<?xml version="1.0" encoding="utf-8"?>
<!-- Generator: Adobe Illustrator 24.3.0, SVG Export Plug-In . SVG Version: 6.00 Build 0)  -->
<svg version="1.1" xmlns="http://www.w3.org/2000/svg" xmlns:xlink="http://www.w3.org/1999/xlink" x="0px" y="0px"
	 viewBox="0 0 440 952" style="enable-background:new 0 0 440 952;" xml:space="preserve">
<style type="text/css">
	.st0{display:none;}
	.st1{fill:#FFFFFF;}
	.st2{display:inline;}
	.st3{fill:#1ADAE4;}
	.st4{fill:#094246;}
	.st5{fill:#BAF4F7;}
	.st6{fill:#02E47D;}
	.st7{fill:#024526;}
	.st8{fill:#B2F7D8;}
	.st9{fill:#E400D9;}
	.st10{fill:#450042;}
	.st11{fill:#F7B2F4;}
	.st12{fill:#0273FF;}
	.st13{fill:#00244E;}
	.st14{fill:#B2D5FF;}
	.st15{fill:#A538FF;}
	.st16{fill:#32124D;}
	.st17{fill:#E4C3FF;}
	.st18{fill:#E40A01;}
	.st19{fill:#450301;}
	.st20{fill:#F6B5B2;}
	.st21{fill:#E40167;}
	.st22{fill:#45001F;}
	.st23{fill:#F4AFCD;}
	.st24{fill:#D9E400;}
	.st25{fill:#424502;}
	.st26{fill:#F4F6B2;}
	.st27{fill:#F7860D;}
	.st28{fill:#4B2804;}
	.st29{fill:#FDDAB5;}
	.st30{fill:#009EA9;}
	.st31{fill:#C74010;}
	.st32{fill:none;stroke:#000000;stroke-miterlimit:10;}
</style>
<g id="Layer_2">
</g>
<g id="Layer_1">
	<g>
		<path class="st3" d="M423.26,222.67c0,112.54-91.24,203.78-203.78,203.78c-64.35,0-203.78,0-203.78,0s0-155.59,0-203.78
			c0-112.54,91.24-203.78,203.78-203.78c60.86,0,203.78,0,203.78,0S423.26,170.99,423.26,222.67z"/>
		<g>
			<path class="st4" d="M219.48,18.89H15.69v203.78C15.69,110.12,106.93,18.89,219.48,18.89z"/>
			<path class="st5" d="M219.48,426.45h203.78V222.67C423.26,335.21,332.02,426.45,219.48,426.45z"/>
		</g>
	</g>
	<g>
		<path class="st9" d="M142.35,870.76c0,34.97-28.35,63.33-63.33,63.33c-20,0-63.33,0-63.33,0s0-48.35,0-63.33
			c0-34.97,28.35-63.33,63.33-63.33c18.91,0,63.33,0,63.33,0S142.35,854.7,142.35,870.76z"/>
		<g>
			<path class="st10" d="M79.02,807.43H15.69v63.33C15.69,835.79,44.05,807.43,79.02,807.43z"/>
			<path class="st11" d="M79.02,934.09h63.33v-63.33C142.35,905.73,113.99,934.09,79.02,934.09z"/>
		</g>
	</g>
	<g>
		<path class="st12" d="M424.15,870.76c0,34.97-28.35,63.33-63.33,63.33c-20,0-63.33,0-63.33,0s0-48.35,0-63.33
			c0-34.97,28.35-63.33,63.33-63.33c18.91,0,63.33,0,63.33,0S424.15,854.7,424.15,870.76z"/>
		<g>
			<path class="st13" d="M360.83,807.43H297.5v63.33C297.5,835.79,325.85,807.43,360.83,807.43z"/>
			<path class="st14" d="M360.83,934.09h63.33v-63.33C424.15,905.73,395.8,934.09,360.83,934.09z"/>
		</g>
	</g>
	<g>
		<path class="st18" d="M423.54,543.67c0,54.75-44.38,99.14-99.14,99.14c-31.31,0-99.14,0-99.14,0s0-75.69,0-99.14
			c0-54.75,44.38-99.14,99.14-99.14c29.61,0,99.14,0,99.14,0S423.54,518.53,423.54,543.67z"/>
		<g>
			<path class="st19" d="M324.4,444.53h-99.14v99.14C225.27,488.92,269.65,444.53,324.4,444.53z"/>
			<path class="st20" d="M324.4,642.8h99.14v-99.14C423.54,598.42,379.15,642.8,324.4,642.8z"/>
		</g>
	</g>
	<g>
		<path class="st21" d="M142.35,727.02c0,34.97-28.35,63.33-63.33,63.33c-20,0-63.33,0-63.33,0s0-48.35,0-63.33
			c0-34.97,28.35-63.33,63.33-63.33c18.91,0,63.33,0,63.33,0S142.35,710.96,142.35,727.02z"/>
		<g>
			<path class="st22" d="M79.02,663.69H15.69v63.33C15.69,692.04,44.05,663.69,79.02,663.69z"/>
			<path class="st23" d="M79.02,790.34h63.33v-63.33C142.35,761.99,113.99,790.34,79.02,790.34z"/>
		</g>
	</g>
	<g>
		<path class="st6" d="M424.15,727.02c0,34.97-28.35,63.33-63.33,63.33c-20,0-63.33,0-63.33,0s0-48.35,0-63.33
			c0-34.97,28.35-63.33,63.33-63.33c18.91,0,63.33,0,63.33,0S424.15,710.96,424.15,727.02z"/>
		<g>
			<path class="st7" d="M360.83,663.69H297.5v63.33C297.5,692.04,325.85,663.69,360.83,663.69z"/>
			<path class="st8" d="M360.83,790.34h63.33v-63.33C424.15,761.99,395.8,790.34,360.83,790.34z"/>
		</g>
	</g>
	<g>
		<path class="st15" d="M283.35,870.76c0,34.97-28.35,63.33-63.33,63.33c-20,0-63.33,0-63.33,0s0-48.35,0-63.33
			c0-34.97,28.35-63.33,63.33-63.33c18.91,0,63.33,0,63.33,0S283.35,854.7,283.35,870.76z"/>
		<g>
			<path class="st16" d="M220.03,807.43H156.7v63.33C156.7,835.79,185.05,807.43,220.03,807.43z"/>
			<path class="st17" d="M220.03,934.09h63.33v-63.33C283.35,905.73,255,934.09,220.03,934.09z"/>
		</g>
	</g>
	<g>
		<path class="st24" d="M283.35,727.02c0,34.97-28.35,63.33-63.33,63.33c-20,0-63.33,0-63.33,0s0-48.35,0-63.33
			c0-34.97,28.35-63.33,63.33-63.33c18.91,0,63.33,0,63.33,0S283.35,710.96,283.35,727.02z"/>
		<g>
			<path class="st25" d="M220.03,663.69H156.7v63.33C156.7,692.04,185.05,663.69,220.03,663.69z"/>
			<path class="st26" d="M220.03,790.34h63.33v-63.33C283.35,761.99,255,790.34,220.03,790.34z"/>
		</g>
	</g>
	<g>
		<path class="st27" d="M213.97,543.67c0,54.75-44.38,99.14-99.14,99.14c-31.31,0-99.14,0-99.14,0s0-75.69,0-99.14
			c0-54.75,44.38-99.14,99.14-99.14c29.61,0,99.14,0,99.14,0S213.97,518.53,213.97,543.67z"/>
		<g>
			<path class="st28" d="M114.83,444.53H15.69v99.14C15.69,488.92,60.08,444.53,114.83,444.53z"/>
			<path class="st29" d="M114.83,642.8h99.14v-99.14C213.97,598.42,169.58,642.8,114.83,642.8z"/>
		</g>
	</g>
</g>
<g id="Layer_3">
</g>
</svg>
