<?xml version="1.0" encoding="utf-8"?>
<!-- Generator: Adobe Illustrator 25.0.0, SVG Export Plug-In . SVG Version: 6.00 Build 0)  -->
<svg version="1.1" id="Layer_1" xmlns="http://www.w3.org/2000/svg" xmlns:xlink="http://www.w3.org/1999/xlink" x="0px" y="0px"
	 viewBox="0 0 714 1060" style="enable-background:new 0 0 714 1060;" xml:space="preserve">
<style type="text/css">
	.st0{fill:#FFFFFF;}
	.st1{font-family:'GTSuperDisplay-Super';}
	.st2{font-size:60px;}
	.st3{font-family:'GTSuperDisplayTrialMedium-Italic';}
	.st4{font-size:31.5121px;}
	.st5{font-family:'Gilroy-Bold';}
	.st6{font-family:'Gilroy-Light';}
</style>
<g id="Layer_1_1_">
	<g id="Layer_2_1_">
		<rect y="1.3" width="714" height="525.5"/>
	</g>
</g>
<text transform="matrix(1 0 0 1 217.9923 465.5212)" class="st0 st1 st2">Radically</text>
<text transform="matrix(1 0 0 1 80.3506 378.021)" class="st0 st3 st4">pioneering</text>
<text transform="matrix(1 0 0 1 431.8447 231.9746)" class="st0 st3 st4">trendsetting</text>
<text transform="matrix(1 0 0 1 85.7637 130.0112)" class="st0 st3 st4">stylish</text>
<text transform="matrix(1 0 0 1 132.1543 259.6611)" class="st0 st3 st4">fashion forward</text>
<text transform="matrix(1 0 0 1 566.0312 127.4688)" class="st0 st3 st4">bold</text>
<text transform="matrix(1 0 0 1 304.7583 165.0957)" class="st0 st3 st4">unique</text>
<text transform="matrix(1 0 0 1 360.5146 346.3633)" class="st0 st3 st4">odd</text>
<text transform="matrix(1 0 0 1 515.6885 386.6011)" class="st0 st3 st4">dynamic</text>
<text transform="matrix(1 0 0 1 209.3822 618.0244)" class="st5 st2">Pragmatic</text>
<text transform="matrix(1 0 0 1 493.8887 973.7148)" class="st6 st4">collective</text>
<text transform="matrix(1 0 0 1 111.0859 840.2793)" class="st6 st4">playful</text>
<text transform="matrix(1 0 0 1 275.9268 829.7734)" class="st6 st4">social</text>
<text transform="matrix(1 0 0 1 103.7129 714.5557)" class="st6 st4">resourceful</text>
<text transform="matrix(1 0 0 1 243.4048 928.9873)" class="st6 st4">accessible</text>
<text transform="matrix(1 0 0 1 532.7314 714.5547)" class="st6 st4">honest</text>
<text transform="matrix(1 0 0 1 366.916 745.6562)" class="st6 st4">forward</text>
<text transform="matrix(1 0 0 1 458.5625 848.7793)" class="st6 st4">empathic</text>
<text transform="matrix(1 0 0 1 80.0903 973.2969)" class="st6 st4">organic</text>
</svg>
