<?xml version="1.0" encoding="utf-8"?>
<!-- Generator: Adobe Illustrator 25.0.1, SVG Export Plug-In . SVG Version: 6.00 Build 0)  -->
<svg version="1.1" id="Layer_1" xmlns="http://www.w3.org/2000/svg" xmlns:xlink="http://www.w3.org/1999/xlink" x="0px" y="0px"
	 viewBox="0 0 360 1060" style="enable-background:new 0 0 360 1060;" xml:space="preserve">
<style type="text/css">
	.st0{fill:#FFFFFF;}
	.st1{opacity:0.7;}
	.st2{opacity:0.8;}
	.st3{opacity:0.9;}
	.st4{opacity:0.6;}
	.st5{opacity:0.5;}
	.st6{fill:none;stroke:#1ADAE4;stroke-width:2;stroke-miterlimit:10;}
</style>
<g id="Layer_1_1_">
	<g>
		<path class="st0" d="M111.8,165.6c0,20.2,16.4,36.6,36.6,36.6s36.6-16.4,36.6-36.6l0,0V129h-9.2v36.6l0,0
			c0,15.1-12.3,27.5-27.5,27.5c-15.1,0-27.5-12.3-27.5-27.5l0,0V129h-9.2v36.6H111.8z"/>
		<path id="A_2_" class="st0" d="M298.4,129c-20.2,0-36.6,16.4-36.6,36.6s16.4,36.6,36.6,36.6c10.9,0,20.8-4.8,27.5-12.4v12.4h9.2
			v-36.6C335,145.4,318.6,129,298.4,129z M298.4,193.1c-15.1,0-27.5-12.3-27.5-27.5c0-15.1,12.3-27.5,27.5-27.5s27.5,12.3,27.5,27.5
			C325.8,180.7,313.5,193.1,298.4,193.1z"/>
		<path id="A_1_" class="st0" d="M58.8,129c-20.2,0-36.6,16.4-36.6,36.6s16.4,36.6,36.6,36.6c10.9,0,20.8-4.8,27.5-12.4v12.4h9.2
			v-36.6C95.5,145.4,79,129,58.8,129z M58.8,193.1c-15.1,0-27.5-12.3-27.5-27.5c0-15.1,12.3-27.5,27.5-27.5s27.5,12.3,27.5,27.5
			C86.3,180.7,74,193.1,58.8,193.1z"/>
		<path class="st0" d="M251.2,130.5c-3.3-1-6.8-1.5-10.4-1.5c-20.2,0-36.6,16.4-36.6,36.6l0,0v36.6h9.2v-36.6l0,0
			c0-15.1,12.3-27.5,27.5-27.5c2.7,0,5.2,0.4,7.7,1.1L251.2,130.5z"/>
	</g>
</g>
<g id="Layer_2_1_">
</g>
<g class="st1">
	<g>
		<path class="st0" d="M137,750.6c-6.9,0-12.6-5.7-12.6-12.6c0-7,5.7-12.6,12.6-12.6s12.6,5.7,12.6,12.6
			C149.6,745,144,750.6,137,750.6z M137,728.6c-5.2,0-9.4,4.2-9.4,9.5s4.2,9.5,9.4,9.5s9.4-4.2,9.4-9.5S142.2,728.6,137,728.6z"/>
	</g>
	<path class="st0" d="M247.4,738v12.6h3.1v-4.3V738c0-5.2,4.2-9.5,9.5-9.5v-3.2C253,725.4,247.4,731.1,247.4,738z"/>
	<rect id="L_8_" x="165.5" y="712.8" class="st0" width="3.1" height="37.8"/>
	<rect id="L_7_" x="155.9" y="712.8" class="st0" width="3.1" height="37.8"/>
	<g id="I_4_">
		<rect x="174.8" y="725.4" class="st0" width="3.1" height="25.2"/>
		<g>
			<path class="st0" d="M174.8,722.3c0.8-2,2.1-3.8,3.9-5.3l1.7,2.2c-1,0.8-1.9,2.1-2.4,3.1H174.8z"/>
		</g>
	</g>
	<path id="E_7_" class="st0" d="M235.2,744.8c-1.7,1.7-4.1,2.7-6.6,2.7c-4.1,0-7.6-2.6-8.9-6.3h17.8l0,0h3.3c0.3-1,0.4-2.1,0.4-3.2
		c0-7-5.6-12.6-12.6-12.6S216,731.1,216,738c0,7,5.6,12.6,12.6,12.6c3.4,0,6.6-1.4,8.9-3.7L235.2,744.8z M228.5,728.6
		c5.2,0,9.4,4.2,9.4,9.5H219C219.1,732.8,223.3,728.6,228.5,728.6z"/>
	<path id="D_5_" class="st0" d="M206.3,712.8v16.9c-2.3-2.6-5.7-4.3-9.4-4.3c-6.9,0-12.6,5.7-12.6,12.6c0,7,5.6,12.6,12.6,12.6
		c6.9,0,12.6-5.7,12.6-12.6v-25.2H206.3L206.3,712.8z M196.9,747.5c-5.2,0-9.4-4.2-9.4-9.5s4.2-9.5,9.4-9.5s9.4,4.2,9.4,9.5
		C206.3,743.2,202.1,747.5,196.9,747.5z"/>
	<path id="C_4_" class="st0" d="M118.7,729c-2.3-2.2-5.4-3.6-8.8-3.6c-6.9,0-12.6,5.7-12.6,12.6c0,7,5.7,12.6,12.6,12.6
		c3.4,0,6.6-1.4,8.9-3.7l-2.2-2.2c-1.7,1.7-4.1,2.7-6.6,2.7c-5.2,0-9.4-4.2-9.4-9.5s4.2-9.5,9.4-9.5c2.5,0,4.8,1,6.6,2.7L118.7,729z
		"/>
</g>
<g>
	<g>
		<g>
			<path class="st0" d="M86.2,416.9c-9.5,0-17.3-7.8-17.3-17.3s7.8-17.3,17.3-17.3s17.3,7.8,17.3,17.3S95.8,416.9,86.2,416.9z
				 M86.2,386.6c-7.2,0-13,5.8-13,13s5.8,13,13,13s13-5.8,13-13S93.4,386.6,86.2,386.6z"/>
		</g>
		<rect x="68.9" y="399" class="st0" width="4.3" height="35.1"/>
	</g>
	<path class="st0" d="M150.7,399.1v17.3h4.3v-5.9v-11.4c0-7.1,5.8-13,13-13v-4.3C158.4,381.9,150.7,389.6,150.7,399.1z"/>
	<path id="E_6_" class="st0" d="M280.1,408.4c-2.3,2.3-5.5,3.7-9.1,3.7c-5.6,0-10.4-3.6-12.2-8.6h24.5l0,0h4.5
		c0.4-1.4,0.5-2.8,0.5-4.3c0-9.5-7.8-17.3-17.3-17.3s-17.3,7.8-17.3,17.3s7.8,17.3,17.3,17.3c4.7,0,9-1.9,12.1-5L280.1,408.4z
		 M271,386.2c7.1,0,13,5.8,13,13h-26C258,392,263.8,386.2,271,386.2z"/>
	<path id="D_3_" class="st0" d="M242.8,364.6v23.2c-3.2-3.6-7.8-5.9-13-5.9c-9.5,0-17.3,7.8-17.3,17.3s7.8,17.3,17.3,17.3
		s17.3-7.8,17.3-17.3v-34.6H242.8z M229.8,412.1c-7.1,0-13-5.8-13-13s5.8-13,13-13s13,5.8,13,13C242.8,406.3,237,412.1,229.8,412.1z
		"/>
	<path id="A_10_" class="st0" d="M188.9,381.9c-9.5,0-17.3,7.8-17.3,17.3s7.8,17.3,17.3,17.3c5.2,0,9.8-2.3,13-5.9v5.9h4.3v-17.3
		C206.2,389.6,198.4,381.9,188.9,381.9z M188.9,412.1c-7.1,0-13-5.8-13-13s5.8-13,13-13s13,5.8,13,13
		C201.8,406.3,196,412.1,188.9,412.1z"/>
	<path id="A_9_" class="st0" d="M126.7,381.9c-9.5,0-17.3,7.8-17.3,17.3s7.8,17.3,17.3,17.3c5.2,0,9.8-2.3,13-5.9v5.9h4.3v-17.3
		C144,389.6,136.3,381.9,126.7,381.9z M126.7,412.1c-7.2,0-13-5.8-13-13s5.8-13,13-13s13,5.8,13,13
		C139.7,406.3,133.9,412.1,126.7,412.1z"/>
</g>
<g class="st2">
	<path class="st0" d="M145,613.8v14.3c0,2.8-3,5.6-5.5,7.4c-2.1,1.5-4.2,2.6-5.3,3.2c-3.4-1.7-10.8-6.2-10.8-10.6v-14.3h-3.6v14.3
		c0,3.5,2.4,7,7,10.3c3.2,2.3,6.5,3.8,6.6,3.9c0.2,0.1,0.5,0.2,0.7,0.2s0.5,0,0.7-0.2c0.1-0.1,3.4-1.5,6.6-3.9c4.7-3.4,7-6.8,7-10.3
		v-14.3L145,613.8L145,613.8z"/>
	<g>
		<path class="st0" d="M167.8,642.5c-7.9,0-14.4-6.4-14.4-14.3s6.4-14.3,14.4-14.3s14.4,6.4,14.4,14.3S175.7,642.5,167.8,642.5z
			 M167.8,617.4c-5.9,0-10.8,4.8-10.8,10.8c0,5.9,4.8,10.8,10.8,10.8s10.8-4.8,10.8-10.8C178.5,622.2,173.7,617.4,167.8,617.4z"/>
	</g>
	<rect id="L_6_" x="199.2" y="599.4" class="st0" width="3.6" height="43.1"/>
	<g>
		<rect x="187" y="613.8" class="st0" width="3.6" height="28.7"/>
		<g>
			<path class="st0" d="M186.9,610.2c0.9-2.3,2.4-4.4,4.4-6l2,2.5c-1.1,0.9-2.1,2.3-2.8,3.5H186.9z"/>
		</g>
	</g>
	<g>
		<path id="A_8_" class="st0" d="M223,613.8c-7.9,0-14.4,6.4-14.4,14.3s6.4,14.3,14.4,14.3c4.3,0,8.1-1.9,10.8-4.9v4.9h3.6v-14.3
			C237.3,620.2,230.9,613.8,223,613.8z M223,638.9c-5.9,0-10.8-4.8-10.8-10.8c0-5.9,4.8-10.8,10.8-10.8s10.8,4.8,10.8,10.8
			S228.9,638.9,223,638.9z"/>
		<path class="st0" d="M212.2,599.4c0,5.9,4.8,10.8,10.8,10.8"/>
	</g>
</g>
<g class="st3">
	<g>
		<path class="st0" d="M219.6,525.9c-8.6,0-15.6-7-15.6-15.6s7-15.6,15.6-15.6s15.6,7,15.6,15.6
			C235.1,518.9,228.1,525.9,219.6,525.9z M219.6,498.7c-6.4,0-11.7,5.2-11.7,11.7c0,6.4,5.2,11.7,11.7,11.7
			c6.4,0,11.7-5.2,11.7-11.7S226,498.7,219.6,498.7z"/>
	</g>
	<g>
		<g>
			<path class="st0" d="M116.1,525.5c-8.6,0-15.6-7-15.6-15.6s7-15.6,15.6-15.6s15.6,7,15.6,15.6
				C131.6,518.5,124.6,525.5,116.1,525.5z M116.1,498.3c-6.4,0-11.7,5.2-11.7,11.7c0,6.4,5.2,11.7,11.7,11.7
				c6.4,0,11.7-5.2,11.7-11.7C127.7,503.5,122.5,498.3,116.1,498.3z"/>
		</g>
		<rect x="100.5" y="509.5" class="st0" width="3.9" height="31.6"/>
	</g>
	<path class="st0" d="M173.3,510.4V526h3.9v-5.3v-10.3c0-6.4,5.2-11.7,11.7-11.7v-3.9C180.3,494.8,173.3,501.8,173.3,510.4z"/>
	<path class="st0" d="M241.1,510.4V526h3.9v-5.3v-10.3c0-6.4,5.2-11.7,11.7-11.7v-3.9C248.1,494.8,241.1,501.8,241.1,510.4z"/>
	<rect id="L_5_" x="194.6" y="479.2" class="st0" width="3.9" height="46.7"/>
	<path id="A_7_" class="st0" d="M152,494.8c-8.6,0-15.6,7-15.6,15.6s7,15.6,15.6,15.6c4.6,0,8.8-2,11.7-5.3v5.3h3.9v-15.6
		C167.5,501.8,160.5,494.8,152,494.8z M152,522c-6.4,0-11.7-5.2-11.7-11.7c0-6.4,5.2-11.7,11.7-11.7c6.4,0,11.7,5.2,11.7,11.7
		S158.4,522,152,522z"/>
</g>
<g class="st4">
	<path class="st0" d="M225.2,848.2v11.3h2.8v-3.8v-7.5c0-4.7,3.8-8.5,8.5-8.5v-2.8C230.3,836.8,225.2,841.9,225.2,848.2z"/>
	<path id="E_5_" class="st0" d="M214.2,854.2c-1.5,1.5-3.6,2.5-6,2.5c-3.7,0-6.9-2.4-8-5.7h16l0,0h3c0.2-0.9,0.4-1.9,0.4-2.8
		c0-6.3-5.1-11.3-11.3-11.3S197,842,197,848.2s5.1,11.3,11.3,11.3c3.1,0,5.9-1.3,8-3.3L214.2,854.2z M208.2,839.7
		c4.7,0,8.5,3.8,8.5,8.5h-17C199.7,843.5,203.5,839.7,208.2,839.7z"/>
	<path id="D_2_" class="st0" d="M189,825.5v15.2c-2.1-2.4-5.1-3.8-8.5-3.8c-6.3,0-11.3,5.1-11.3,11.3s5.1,11.3,11.3,11.3
		c6.3,0,11.3-5.1,11.3-11.3v-22.7H189L189,825.5z M180.5,856.7c-4.7,0-8.5-3.8-8.5-8.5s3.8-8.5,8.5-8.5s8.5,3.8,8.5,8.5
		S185.2,856.7,180.5,856.7z"/>
	<path id="C_2_" class="st0" d="M139.9,840.1c-2.1-2-4.8-3.2-7.9-3.2c-6.3,0-11.3,5.1-11.3,11.3c0,6.3,5.1,11.3,11.3,11.3
		c3.1,0,5.9-1.2,8-3.3l-2-2c-1.5,1.5-3.6,2.5-6,2.5c-4.7,0-8.5-3.8-8.5-8.5s3.8-8.5,8.5-8.5c2.3,0,4.4,0.9,5.9,2.4L139.9,840.1z"/>
	<g>
		<path class="st0" d="M154.1,859.5c-6.3,0-11.3-5.1-11.3-11.3s5.1-11.3,11.3-11.3s11.3,5.1,11.3,11.3S160.4,859.5,154.1,859.5z
			 M154.1,839.7c-4.7,0-8.5,3.8-8.5,8.5s3.8,8.5,8.5,8.5s8.5-3.8,8.5-8.5S158.8,839.7,154.1,839.7z"/>
	</g>
</g>
<g class="st5">
	<g>
		<g>
			<path class="st0" d="M184.9,959.4c-4.2,0-7.7-3.4-7.7-7.7s3.4-7.7,7.7-7.7v-2.5c-5.6,0-10.2,4.6-10.2,10.2s4.6,10.2,10.2,10.2
				V959.4z"/>
		</g>
		<g>
			<path class="st0" d="M164.4,959.4c4.2,0,7.7-3.4,7.7-7.7s-3.4-7.7-7.7-7.7v-2.5c5.6,0,10.2,4.6,10.2,10.2s-4.6,10.2-10.2,10.2
				V959.4z"/>
		</g>
	</g>
	<path id="M-Alt_2_" class="st0" d="M136.9,941.5c-1.3,0-2.6,0.3-3.8,0.7c-1.2-0.5-2.4-0.7-3.8-0.7c-5.6,0-10.2,4.6-10.2,10.2v10.2
		h2.6v-10.2l0,0l0,0c0-4.2,3.4-7.7,7.7-7.7c0.2,0,0.5,0,0.7,0c-2.1,1.9-3.4,4.6-3.4,7.6c0,4.3,2.7,8,6.4,9.5l0,0l0,0l0,0
		c0.1,0,0.1,0,0.1-0.1l0,0l0,0c3.7-1.5,6.3-5.2,6.3-9.4c0-3-1.3-5.8-3.4-7.6c0.2,0,0.5,0,0.7,0c4.2,0,7.7,3.4,7.7,7.7l0,0
		c0,0.1,0,0.2,0,0.3l0,0v9.9h2.6v-10.2l0,0C147.1,946.1,142.5,941.5,136.9,941.5z M137,951.7c0,2.9-1.6,5.3-3.9,6.7
		c-2.3-1.3-3.9-3.8-3.9-6.7s1.6-5.3,3.9-6.7C135.4,946.4,137,948.9,137,951.7z"/>
	<path class="st0" d="M214.7,951.7v10.2h2.6v-3.5v-6.7c0-4.2,3.4-7.7,7.7-7.7v-2.5C219.3,941.5,214.7,946.1,214.7,951.7z"/>
	<path class="st0" d="M227.8,951.7v10.2h2.6v-3.5v-6.7c0-4.2,3.4-7.7,7.7-7.7v-2.5C232.4,941.5,227.8,946.1,227.8,951.7z"/>
	<g id="I_3_">
		<rect x="154.1" y="941.5" class="st0" width="2.6" height="20.4"/>
		<g>
			<path class="st0" d="M154.1,939c0.6-1.6,1.7-3.1,3.1-4.3l1.4,1.8c-0.8,0.6-1.5,1.7-2,2.5H154.1L154.1,939z"/>
		</g>
	</g>
	<path id="E_2_" class="st0" d="M205,957.2c-1.4,1.4-3.3,2.2-5.4,2.2c-3.3,0-6.2-2.1-7.2-5.1h14.4l0,0h2.7c0.2-0.8,0.3-1.7,0.3-2.5
		c0-5.6-4.6-10.2-10.2-10.2s-10.2,4.6-10.2,10.2S194,962,199.6,962c2.8,0,5.3-1.1,7.2-3L205,957.2z M199.6,944.1
		c4.2,0,7.7,3.4,7.7,7.7H192C192,947.5,195.4,944.1,199.6,944.1z"/>
</g>
<g id="Layer_4">
	<line class="st6" x1="178.6" y1="470.1" x2="178.6" y2="439.4"/>
	<line class="st6" x1="178.6" y1="357.4" x2="178.6" y2="231.2"/>
	<line class="st6" x1="178.6" y1="580.9" x2="178.6" y2="550.2"/>
	<line class="st6" x1="178.6" y1="691.7" x2="178.6" y2="661"/>
	<line class="st6" x1="178.6" y1="802.5" x2="178.6" y2="771.8"/>
	<line class="st6" x1="178.6" y1="913.3" x2="178.6" y2="882.6"/>
</g>
</svg>
