<?xml version="1.0" encoding="utf-8"?>
<!-- Generator: Adobe Illustrator 25.0.1, SVG Export Plug-In . SVG Version: 6.00 Build 0)  -->
<svg version="1.1" id="Layer_1" xmlns="http://www.w3.org/2000/svg" xmlns:xlink="http://www.w3.org/1999/xlink" x="0px" y="0px"
	 viewBox="0 0 714 1060" style="enable-background:new 0 0 714 1060;" xml:space="preserve">
<style type="text/css">
	.st0{enable-background:new    ;}
	.st1{fill:#1ADAE4;}
	.st2{fill:#FFFFFF;}
	.st3{fill:none;stroke:#1ADAE4;stroke-width:5;stroke-linecap:round;stroke-linejoin:round;stroke-miterlimit:10;}
</style>
<g id="Layer_1_1_">
	<g id="Layer_2_1_">
		<rect x="-2.34" y="0.7" width="716.61" height="528.26"/>
	</g>
</g>
<g class="st0">
	<path class="st1" d="M226.04,250.36c1.74-0.76,2.87-1.74,2.87-4.92v-21.71c0-3.1-1.06-3.93-2.87-4.69v-0.23h15.59
		c9,0,12.56,3.18,12.56,7.79c0,4.24-4.69,7.87-10.29,7.87v0.3c4.84-0.15,8.47,2.04,9.84,5.67l2.27,6.36c0.76,2.19,2.19,3.1,3.4,3.48
		v0.3H247.3c-0.83-1.21-1.29-2.65-1.74-4.16l-2.35-7.19c-0.98-2.87-1.74-3.93-3.56-3.93h-1.06v10.14c0,2.27,1.13,4.16,2.87,4.92
		v0.23H226.1v-0.23H226.04z M239.36,234.17c2.87,0,4.39-2.8,4.39-7.34c0-4.16-1.29-6.73-4.39-6.73h-0.83v14h0.83V234.17z"/>
	<path class="st1" d="M293.53,250.36v0.23h-16.27v-0.23c2.04-1.06,2.8-3.1,1.51-6.88l-1.44-4.39h-9.76l-1.89,5.67
		c-0.98,2.95,0.15,4.62,1.89,5.52v0.23h-7.79v-0.23c1.97-0.83,2.95-2.57,4.09-5.83l8.93-25.72h7.57l9.46,26.63
		C290.65,247.94,291.56,249.53,293.53,250.36z M276.88,237.72l-4.39-13.09l-4.39,13.09H276.88z"/>
	<path class="st1" d="M326.21,234.55c0,10.82-7.57,16.04-15.89,16.04h-15.21v-0.23c1.74-0.76,2.88-1.74,2.88-4.92v-21.71
		c0-3.1-1.06-3.93-2.88-4.69v-0.23h15.06C320.08,218.81,326.21,225.01,326.21,234.55z M316,235.45c0-11.88-2.42-15.28-7.79-15.28
		h-0.68v29.05h0.68C313.88,249.22,316,246.65,316,235.45z"/>
	<path class="st1" d="M340.21,223.8v21.71c0,2.27,1.13,4.16,2.87,4.92v0.23h-15.36v-0.23c1.74-0.76,2.87-1.74,2.87-4.92V223.8
		c0-3.1-1.06-3.93-2.87-4.69v-0.23h15.36v0.23C341.27,219.79,340.21,221.53,340.21,223.8z"/>
	<path class="st1" d="M344.75,235c0-9.91,6.81-17.1,16.19-17.1c3.86,0,7.87,0.98,11.05,2.65l-3.78,10.29l-0.23-0.08
		c-0.76-6.2-3.78-9.46-8.55-9.46c-4.39,0-7.19,3.33-7.19,8.7c0,8.25,4.77,13.77,11.8,13.77c4.01,0,6.2-1.21,7.34-4.01l0.3,0.15
		c-1.74,7.64-5.98,11.5-12.79,11.5C350.42,251.49,344.75,244.91,344.75,235z"/>
	<path class="st1" d="M404.97,250.36v0.23h-16.19v-0.23c2.04-1.06,2.8-3.1,1.51-6.88l-1.44-4.39h-9.76l-1.89,5.67
		c-0.98,2.95,0.15,4.62,1.89,5.52v0.23h-7.79v-0.23c1.97-0.83,2.95-2.57,4.09-5.83l8.93-25.72h7.57l9.46,26.63
		C402.17,247.94,403.08,249.53,404.97,250.36z M388.33,237.72l-4.39-13.09l-4.39,13.09H388.33z"/>
	<path class="st1" d="M430.85,236.74l-1.44,13.85h-22.77v-0.23c1.74-0.76,2.88-1.74,2.88-4.92v-21.71c0-3.1-1.06-3.93-2.88-4.69
		v-0.23H422v0.23c-1.89,0.76-2.87,2.5-2.87,4.69v25.5h0.08c5.14,0,9.38-4.92,11.42-12.48h0.22V236.74z"/>
	<path class="st1" d="M457.1,236.74l-1.44,13.85h-22.77v-0.23c1.74-0.76,2.87-1.74,2.87-4.92v-21.71c0-3.1-1.06-3.93-2.87-4.69
		v-0.23h15.36v0.23c-1.89,0.76-2.88,2.5-2.88,4.69v25.5h0.08c5.14,0,9.38-4.92,11.42-12.48h0.23V236.74z"/>
	<path class="st1" d="M486.91,218.81v0.23c-0.98,0.15-3.25,2.35-4.99,5.45l-5.83,10.82v10.14c0,2.95,1.21,4.39,4.24,4.92v0.23
		h-18.08v-0.23c3.1-0.53,4.24-1.97,4.24-4.92v-10.06l-6.28-11.95c-1.36-2.57-2.87-4.24-4.46-4.39v-0.23h16.72v0.23
		c-1.74,0.38-2.72,1.59-2.72,3.33c0,0.83,0.3,1.89,0.83,2.95l4.62,8.1l4.62-8.1c0.61-1.06,0.83-2.12,0.83-2.95
		c0-1.74-0.98-2.95-2.65-3.33v-0.23L486.91,218.81L486.91,218.81z"/>
</g>
<g class="st0">
	<path class="st1" d="M132.1,433.16c0.93-0.15,1.32-0.39,1.47-1.08l2.79-10.22c0.15-0.62,0-0.93-0.7-0.85h-0.31l0.08-0.15l3.71-0.93
		l-1.32,5.03c1.78-2.94,3.33-5.03,4.64-5.03c0.77,0,1.47,0.54,1.47,1.86c0,3.48-3.56,8.05-6.11,8.05c-0.54,0-0.93-0.15-1.32-0.31
		l-0.7,2.55c-0.15,0.77,0.08,1.01,0.93,1.08v0.15h-4.64v-0.15H132.1z M141.47,422.94c0-0.85-0.23-1.08-0.54-1.08
		c-0.7,0-1.78,1.32-3.41,3.87l-0.7,2.63c0.39,0.46,1.01,0.77,1.93,0.85C140.23,428.36,141.47,425.34,141.47,422.94z"/>
	<path class="st1" d="M144.41,428.9c0-0.15,0-0.46,0.08-0.7l1.78-6.35c0.15-0.62,0-0.93-0.77-0.85h-0.31v-0.15l3.71-0.93l-2.01,7.35
		c-0.15,0.39,0,0.62,0.23,0.62c0.31,0,1.01-0.54,1.78-1.47l0.15,0.15c-1.01,1.47-2.63,3.33-3.95,3.33
		C144.87,429.75,144.41,429.6,144.41,428.9z M147.12,417.6c0-0.7,0.54-1.32,1.32-1.32c0.77,0,1.32,0.62,1.32,1.32
		s-0.54,1.32-1.32,1.32C147.66,418.92,147.12,418.38,147.12,417.6z"/>
	<path class="st1" d="M150.06,426.81c0-2.71,2.32-6.97,5.88-6.97c1.32,0,3.17,0.62,3.17,3.02c0,2.71-2.32,6.97-5.88,6.97
		C151.92,429.83,150.06,429.21,150.06,426.81z M156.87,422.01c0-1.39-0.46-1.7-1.01-1.7c-1.86,0-3.48,4.95-3.48,7.43
		c0,1.39,0.46,1.7,1.01,1.7C155.17,429.44,156.87,424.49,156.87,422.01z"/>
	<path class="st1" d="M169.8,426.43c-1.01,1.47-2.32,3.33-3.71,3.33c-0.54,0-1.01-0.31-1.01-1.08c0-0.62,0.23-1.47,1.01-3.56
		c0.46-1.32,0.85-2.55,0.85-2.94c0-0.23-0.15-0.46-0.39-0.46c-0.46,0-1.39,0.7-3.56,3.71l-1.08,3.95h-2.17l2.09-7.74
		c0.15-0.62,0-0.93-0.77-0.85h-0.31v-0.15l3.71-0.93l-1.39,5.11c2.01-3.1,3.64-5.11,5.11-5.11c0.62,0,1.16,0.31,1.16,1.24
		c0,0.7-0.39,2.01-0.93,3.48c-0.46,1.24-0.85,2.55-0.85,2.94c0,0.23,0.08,0.39,0.31,0.39c0.39,0,0.93-0.46,1.7-1.47L169.8,426.43z"
		/>
	<path class="st1" d="M172.74,424.88c0,0.15,0,0.31,0,0.39c0,2.01,0.93,2.63,2.09,2.63c1.08,0,2.09-0.62,2.79-1.86l0.15,0.08
		c-0.93,1.93-2.32,3.71-4.57,3.71c-1.39,0-2.55-0.7-2.55-2.71c0-3.64,3.56-7.2,6.73-7.2c0.93,0,1.39,0.46,1.39,1.16
		C178.77,422.56,176.61,424.34,172.74,424.88z M172.81,424.57c1.78-0.31,3.64-1.39,3.64-3.02c0-0.54-0.31-1.01-0.85-1.01
		C174.44,421.01,173.05,422.48,172.81,424.57z"/>
	<path class="st1" d="M181.17,424.88c0,0.15,0,0.31,0,0.39c0,2.01,0.93,2.63,2.09,2.63c1.08,0,2.09-0.62,2.79-1.86l0.15,0.08
		c-0.93,1.93-2.32,3.71-4.57,3.71c-1.39,0-2.55-0.7-2.55-2.71c0-3.64,3.56-7.2,6.73-7.2c0.93,0,1.39,0.46,1.39,1.16
		C187.21,422.56,184.96,424.34,181.17,424.88z M181.17,424.57c1.78-0.31,3.64-1.39,3.64-3.02c0-0.54-0.31-1.01-0.85-1.01
		C182.87,421.01,181.48,422.48,181.17,424.57z"/>
	<path class="st1" d="M195.88,420.08l-0.85,2.71h-0.15c-0.31-0.23-0.62-0.31-0.93-0.31c-1.01,0-1.63,0.62-3.87,5.19l-0.54,1.93
		h-2.24l2.09-7.74c0.15-0.62,0-0.93-0.77-0.85h-0.31v-0.15l3.71-0.93l-1.78,6.58c2.79-5.57,3.71-6.5,4.72-6.5
		C195.41,419.85,195.72,419.93,195.88,420.08z"/>
	<path class="st1" d="M195.34,428.9c0-0.15,0-0.46,0.08-0.7l1.78-6.35c0.15-0.62,0-0.93-0.77-0.85h-0.31v-0.15l3.71-0.93l-2.01,7.35
		c-0.15,0.39,0,0.62,0.23,0.62c0.31,0,1.01-0.54,1.78-1.47l0.15,0.15c-1.01,1.47-2.63,3.33-3.95,3.33
		C195.8,429.75,195.34,429.6,195.34,428.9z M198.04,417.6c0-0.7,0.54-1.32,1.32-1.32s1.32,0.62,1.32,1.32s-0.54,1.32-1.32,1.32
		S198.04,418.38,198.04,417.6z"/>
	<path class="st1" d="M210.97,426.43c-1.01,1.47-2.32,3.33-3.71,3.33c-0.54,0-1.01-0.31-1.01-1.08c0-0.62,0.23-1.47,1.01-3.56
		c0.46-1.32,0.85-2.55,0.85-2.94c0-0.23-0.15-0.46-0.39-0.46c-0.46,0-1.39,0.7-3.56,3.71l-1.08,3.95h-2.17l2.09-7.74
		c0.15-0.62,0-0.93-0.77-0.85h-0.31v-0.15l3.71-0.93l-1.39,5.11c2.01-3.1,3.64-5.11,5.11-5.11c0.62,0,1.16,0.31,1.16,1.24
		c0,0.7-0.39,2.01-0.93,3.48c-0.46,1.24-0.85,2.55-0.85,2.94c0,0.23,0.08,0.39,0.31,0.39c0.39,0,0.93-0.46,1.7-1.47L210.97,426.43z"
		/>
	<path class="st1" d="M220.8,420.54h-1.7c0.46,0.39,0.7,0.93,0.7,1.63c0,1.7-1.39,3.87-4.33,3.87c-0.39,0-0.77-0.08-1.08-0.15
		c-0.46,0.15-0.77,0.39-0.77,0.7s0.23,0.46,0.85,0.7l3.25,1.24c1.08,0.39,1.63,1.01,1.63,1.86c0,1.7-1.93,3.1-5.11,3.1
		c-2.32,0-3.95-0.77-3.95-2.09c0-1.08,1.01-1.7,2.79-2.24c-0.77-0.31-1.16-0.77-1.16-1.47c0-0.77,0.54-1.47,2.17-1.93
		c-0.85-0.31-1.39-1.01-1.39-2.09c0-1.7,1.39-3.87,4.33-3.87c0.46,0,1.01,0.08,1.39,0.23h2.55L220.8,420.54z M213.52,429.44
		l-0.15-0.08c-0.7,0.31-1.32,0.7-1.32,1.47c0,1.32,1.24,2.17,3.1,2.17c1.47,0,2.55-0.54,2.55-1.39c0-0.54-0.39-0.85-1.08-1.08
		L213.52,429.44z M217.78,421.63c0-1.01-0.39-1.39-0.93-1.39c-1.39,0-2.24,2.63-2.24,4.18c0,1.08,0.39,1.39,0.93,1.39
		C216.93,425.81,217.78,423.18,217.78,421.63z"/>
</g>
<g class="st0">
	<path class="st1" d="M289.71,369.41c-0.14,0.41-0.14,0.75,0.2,0.75c0.34,0,0.89-0.41,1.63-1.5l0.14,0.07
		c-0.75,1.36-2.45,3.13-3.61,3.13c-0.48,0-0.82-0.27-0.82-0.89c0-0.27,0.07-0.54,0.14-0.89l1.97-6.4h-1.02l0.14-0.34h0.95l0.34-1.09
		l2.25-1.02l-0.68,2.11h1.5l-0.14,0.34h-1.5L289.71,369.41z"/>
	<path class="st1" d="M300.2,363.35l-0.75,2.38h-0.14c-0.27-0.2-0.54-0.27-0.82-0.27c-0.89,0-1.43,0.54-3.41,4.56l-0.48,1.7h-1.97
		l1.84-6.81c0.14-0.54,0-0.82-0.68-0.75h-0.27v-0.14l3.27-0.82l-1.57,5.79c2.45-4.9,3.27-5.72,4.15-5.72
		C299.72,363.22,300,363.28,300.2,363.35z"/>
	<path class="st1" d="M301.49,367.57c0,0.14,0,0.27,0,0.34c0,1.77,0.82,2.32,1.84,2.32c0.95,0,1.84-0.54,2.45-1.63l0.14,0.07
		c-0.82,1.7-2.04,3.27-4.02,3.27c-1.23,0-2.25-0.61-2.25-2.38c0-3.2,3.13-6.33,5.92-6.33c0.82,0,1.23,0.41,1.23,1.02
		C306.81,365.53,304.83,367.1,301.49,367.57z M301.49,367.37c1.57-0.27,3.2-1.23,3.2-2.66c0-0.48-0.27-0.89-0.75-0.89
		C302.99,364.17,301.77,365.46,301.49,367.37z"/>
	<path class="st1" d="M315.8,369c-0.89,1.29-2.04,2.93-3.27,2.93c-0.48,0-0.89-0.27-0.89-0.95c0-0.54,0.2-1.29,0.89-3.13
		c0.41-1.16,0.75-2.25,0.75-2.59c0-0.2-0.14-0.41-0.34-0.41c-0.41,0-1.23,0.61-3.13,3.27l-0.95,3.47h-1.91l1.84-6.81
		c0.14-0.54,0-0.82-0.68-0.75h-0.27v-0.14l3.27-0.82l-1.23,4.49c1.77-2.72,3.2-4.49,4.49-4.49c0.54,0,1.02,0.27,1.02,1.09
		c0,0.61-0.34,1.77-0.82,3.06c-0.41,1.09-0.75,2.25-0.75,2.59c0,0.2,0.07,0.34,0.27,0.34c0.34,0,0.82-0.41,1.5-1.29L315.8,369z"/>
	<path class="st1" d="M324.85,368.87l0.14,0.07c-1.16,1.97-2.25,3-3.2,3c-0.48,0-0.89-0.27-0.89-0.89c0-0.41,0.14-0.89,0.27-1.29
		l0.54-2.04c-1.5,2.66-3,4.29-4.09,4.29c-0.68,0-1.29-0.41-1.29-1.7c0-3,3.13-7.01,5.99-7.01c0.2,0,0.41,0,0.61,0.07l0.41-1.7
		c0.14-0.54-0.07-0.82-0.82-0.75l-0.54,0.07l0.07-0.2l3.75-0.95l-2.59,9.87c-0.07,0.41,0,0.54,0.2,0.54
		C323.7,370.16,324.24,369.75,324.85,368.87z M322.06,366.76l0.54-2.18c-0.41-0.48-0.95-0.68-1.63-0.68
		c-1.43,0.95-2.45,3.54-2.45,5.31c0,0.82,0.27,1.02,0.54,1.02C319.68,370.16,320.63,369.07,322.06,366.76z"/>
	<path class="st1" d="M325.13,370.23l1.09-1.43h0.14c0.41,1.09,1.7,2.52,3,2.52c0.2-0.14,0.41-0.41,0.41-0.75s-0.2-0.68-0.41-0.95
		l-1.91-2.59c-0.14-0.2-0.48-0.68-0.48-1.23c0-1.16,1.29-2.52,3.06-2.52c0.95,0,1.97,0.41,2.59,1.23l-1.09,1.36h-0.14
		c-0.48-1.09-1.57-2.11-2.45-2.11c-0.41,0.14-0.54,0.41-0.54,0.75s0.2,0.68,0.41,0.89l1.84,2.59c0.27,0.41,0.48,0.82,0.48,1.36
		c0,1.23-1.43,2.66-3.13,2.66C326.9,371.93,325.67,371.12,325.13,370.23z"/>
	<path class="st1" d="M334.46,367.57c0,0.14,0,0.27,0,0.34c0,1.77,0.82,2.32,1.84,2.32c0.95,0,1.84-0.54,2.45-1.63l0.14,0.07
		c-0.82,1.7-2.04,3.27-4.02,3.27c-1.23,0-2.25-0.61-2.25-2.38c0-3.2,3.13-6.33,5.92-6.33c0.82,0,1.23,0.41,1.23,1.02
		C339.77,365.53,337.79,367.1,334.46,367.57z M334.52,367.37c1.57-0.27,3.2-1.23,3.2-2.66c0-0.48-0.27-0.89-0.75-0.89
		C335.95,364.17,334.73,365.46,334.52,367.37z"/>
	<path class="st1" d="M342.36,369.41c-0.14,0.41-0.14,0.75,0.2,0.75c0.41,0,0.89-0.41,1.63-1.5l0.14,0.07
		c-0.75,1.36-2.45,3.13-3.61,3.13c-0.48,0-0.82-0.27-0.82-0.89c0-0.27,0.07-0.54,0.14-0.89l1.97-6.4h-1.02l0.14-0.34h0.95l0.34-1.09
		l2.25-1.02l-0.68,2.11h1.5l-0.14,0.34h-1.5L342.36,369.41z"/>
	<path class="st1" d="M347.74,369.41c-0.14,0.41-0.14,0.75,0.2,0.75c0.41,0,0.89-0.41,1.63-1.5l0.14,0.07
		c-0.75,1.36-2.45,3.13-3.61,3.13c-0.48,0-0.82-0.27-0.82-0.89c0-0.27,0.07-0.54,0.14-0.89l1.97-6.4h-1.02l0.14-0.34h0.95l0.34-1.09
		l2.25-1.02l-0.68,2.11h1.5l-0.14,0.34h-1.5L347.74,369.41z"/>
	<path class="st1" d="M350.87,371.12c0-0.14,0-0.41,0.07-0.61l1.57-5.58c0.14-0.54,0-0.82-0.68-0.75h-0.27v-0.14l3.27-0.82
		l-1.77,6.47c-0.14,0.34,0,0.54,0.2,0.54c0.27,0,0.89-0.48,1.57-1.29l0.14,0.14c-0.89,1.29-2.32,2.93-3.47,2.93
		C351.28,371.93,350.87,371.73,350.87,371.12z M353.25,361.24c0-0.61,0.48-1.16,1.16-1.16s1.16,0.54,1.16,1.16s-0.48,1.16-1.16,1.16
		S353.25,361.85,353.25,361.24z"/>
	<path class="st1" d="M364.62,369c-0.89,1.29-2.04,2.93-3.27,2.93c-0.48,0-0.89-0.27-0.89-0.95c0-0.54,0.2-1.29,0.89-3.13
		c0.41-1.16,0.75-2.25,0.75-2.59c0-0.2-0.14-0.41-0.34-0.41c-0.41,0-1.23,0.61-3.13,3.27l-0.95,3.47h-1.91l1.84-6.81
		c0.14-0.54,0-0.82-0.68-0.75h-0.27v-0.14l3.27-0.82l-1.23,4.49c1.77-2.72,3.2-4.49,4.49-4.49c0.54,0,1.02,0.27,1.02,1.09
		c0,0.61-0.34,1.77-0.82,3.06c-0.41,1.09-0.75,2.25-0.75,2.59c0,0.2,0.07,0.34,0.27,0.34c0.34,0,0.82-0.41,1.5-1.29L364.62,369z"/>
	<path class="st1" d="M373.34,363.76h-1.5c0.41,0.34,0.61,0.82,0.61,1.43c0,1.5-1.23,3.41-3.81,3.41c-0.34,0-0.68-0.07-0.95-0.14
		c-0.41,0.14-0.68,0.34-0.68,0.61s0.2,0.41,0.75,0.61l2.86,1.09c0.95,0.34,1.43,0.89,1.43,1.63c0,1.5-1.7,2.72-4.49,2.72
		c-2.04,0-3.47-0.68-3.47-1.84c0-0.95,0.89-1.5,2.45-1.97c-0.68-0.27-1.02-0.68-1.02-1.29c0-0.68,0.48-1.29,1.91-1.7
		c-0.75-0.27-1.23-0.89-1.23-1.84c0-1.5,1.23-3.41,3.81-3.41c0.41,0,0.89,0.07,1.23,0.2h2.25L373.34,363.76z M366.87,371.59
		l-0.14-0.07c-0.61,0.27-1.16,0.61-1.16,1.29c0,1.16,1.09,1.91,2.72,1.91c1.29,0,2.25-0.48,2.25-1.23c0-0.48-0.34-0.75-0.95-0.95
		L366.87,371.59z M370.62,364.71c0-0.89-0.34-1.23-0.82-1.23c-1.23,0-1.97,2.32-1.97,3.68c0,0.95,0.34,1.23,0.82,1.23
		C369.87,368.39,370.62,366.14,370.62,364.71z"/>
</g>
<g class="st0">
	<path class="st1" d="M297.85,89.01l-0.93,1.93h-0.31c-0.39-0.85-1.01-1.63-1.86-1.7c-0.54,0.23-0.77,0.85-1.01,1.78l-0.54,2.4h2.24
		l-0.15,0.54h-2.24l-2.17,9.75c-0.93,4.02-4.02,6.5-5.88,6.5c-0.39,0-1.08-0.08-1.63-0.54l0.77-2.24h0.31
		c0.46,1.32,1.32,1.86,2.01,1.86c0.39-0.23,0.7-1.01,0.85-1.86l2.94-13c0.08-0.15,0.08-0.31,0.08-0.46h-1.7l0.15-0.54h1.7
		c1.24-3.87,4.26-4.95,5.88-4.95C296.92,88.55,297.54,88.7,297.85,89.01z"/>
	<path class="st1" d="M306.6,101.16l0.23,0.15c-1.7,2.71-3.48,4.18-4.8,4.18c-0.62,0-1.08-0.39-1.08-1.24
		c0-0.54,0.23-1.32,0.46-1.93l0.93-3.02c-2.32,3.79-4.57,6.19-6.11,6.19c-0.93,0-1.78-0.62-1.78-2.24c0-2.79,2.17-6.58,5.26-8.75
		c1.16-0.77,2.71-1.47,4.02-1.47c0.46,0,0.93,0.08,1.32,0.23l2.24-0.7l-3.02,9.6c-0.15,0.54-0.08,0.77,0.23,0.77
		C304.82,103.02,305.59,102.48,306.6,101.16z M302.73,98.3l1.08-3.48c-0.54-0.54-1.32-0.77-2.32-0.77
		c-2.32,1.24-3.95,5.19-3.95,7.82c0,0.93,0.31,1.24,0.7,1.24C299.09,103.02,300.48,101.55,302.73,98.3z"/>
	<path class="st1" d="M306.98,103.18l1.55-2.01h0.15c0.54,1.55,2.4,3.56,4.26,3.56c0.31-0.15,0.54-0.54,0.54-1.08
		s-0.31-0.93-0.62-1.39l-2.71-3.71c-0.23-0.23-0.62-0.93-0.62-1.78c0-1.7,1.86-3.64,4.41-3.64c1.32,0,2.79,0.62,3.71,1.7l-1.55,2.01
		h-0.15c-0.7-1.55-2.24-3.02-3.56-3.02c-0.54,0.15-0.77,0.54-0.77,1.08c0,0.46,0.31,0.93,0.54,1.32l2.63,3.71
		c0.39,0.54,0.7,1.24,0.7,1.93c0,1.78-2.01,3.79-4.41,3.79C309.46,105.58,307.76,104.41,306.98,103.18z"/>
	<path class="st1" d="M329.89,101.4c-1.16,1.7-3.1,4.18-4.64,4.18c-0.62,0-1.32-0.39-1.32-1.32c0-0.77,0.31-1.78,1.24-4.41
		c0.62-1.63,1.08-3.1,1.08-3.64c0-0.31-0.15-0.54-0.46-0.54c-0.62,0-1.7,0.93-4.41,4.72l-1.32,4.88h-2.71l3.87-14.55
		c0.15-0.77,0-1.16-0.93-1.01l-0.39,0.08l0.08-0.23l4.64-1.16l-3.02,11.14c2.55-3.79,4.49-6.27,6.27-6.27
		c0.85,0,1.47,0.39,1.47,1.47c0,0.85-0.54,2.48-1.16,4.33c-0.54,1.55-1.08,3.17-1.08,3.64c0,0.31,0.15,0.46,0.39,0.46
		c0.39,0,1.16-0.62,2.17-1.86L329.89,101.4z"/>
	<path class="st1" d="M331.05,104.41c0-0.23,0.08-0.54,0.15-0.85l2.24-7.97c0.15-0.77,0-1.08-0.93-1.01h-0.39l0.08-0.23l4.64-1.16
		l-2.55,9.13c-0.15,0.46,0,0.77,0.31,0.77c0.39,0,1.24-0.7,2.17-1.86l0.23,0.15c-1.32,1.78-3.33,4.18-4.95,4.18
		C331.6,105.5,331.05,105.27,331.05,104.41z M334.46,90.33c0-0.93,0.7-1.63,1.7-1.63c0.93,0,1.63,0.77,1.63,1.63
		c0,0.93-0.7,1.63-1.63,1.63C335.16,91.95,334.46,91.18,334.46,90.33z"/>
	<path class="st1" d="M338.1,101.86c0-3.33,2.94-8.75,7.35-8.75c1.63,0,4.02,0.77,4.02,3.71c0,3.33-2.94,8.67-7.35,8.67
		C340.42,105.58,338.1,104.88,338.1,101.86z M346.53,95.75c0-1.7-0.62-2.17-1.24-2.17c-2.4,0-4.33,6.19-4.33,9.29
		c0,1.7,0.62,2.09,1.24,2.09C344.52,105.03,346.53,98.84,346.53,95.75z"/>
	<path class="st1" d="M362.71,101.4c-1.24,1.86-2.94,4.18-4.57,4.18c-0.62,0-1.32-0.39-1.32-1.32c0-0.77,0.31-1.78,1.24-4.41
		c0.62-1.63,1.08-3.17,1.08-3.64c0-0.31-0.15-0.54-0.46-0.54c-0.62,0-1.7,0.93-4.41,4.72l-1.32,4.95h-2.71l2.63-9.67
		c0.15-0.77,0-1.08-0.93-1.01h-0.39l0.08-0.23l4.64-1.16l-1.7,6.35c2.55-3.87,4.57-6.35,6.35-6.35c0.77,0,1.39,0.39,1.39,1.47
		c0,0.85-0.54,2.48-1.24,4.33c-0.54,1.47-1.08,3.17-1.08,3.64c0,0.31,0.15,0.46,0.39,0.46c0.46,0,1.24-0.62,2.17-1.86L362.71,101.4z
		"/>
	<path class="st1" d="M379.12,89.01l-0.93,1.93h-0.31c-0.39-0.85-1.01-1.63-1.86-1.7c-0.54,0.23-0.77,0.85-1.01,1.78l-0.54,2.4h2.24
		l-0.15,0.54h-2.24l-2.17,9.75c-0.93,4.02-4.02,6.5-5.88,6.5c-0.39,0-1.08-0.08-1.63-0.54l0.77-2.24h0.31
		c0.46,1.32,1.32,1.86,2.01,1.86c0.39-0.23,0.7-1.01,0.85-1.86l2.94-13c0.08-0.15,0.08-0.31,0.08-0.46h-1.7l0.15-0.54h1.7
		c1.24-3.87,4.26-4.95,5.88-4.95C378.19,88.55,378.81,88.7,379.12,89.01z"/>
	<path class="st1" d="M376.02,101.86c0-3.33,2.94-8.75,7.35-8.75c1.63,0,4.02,0.77,4.02,3.71c0,3.33-2.94,8.67-7.35,8.67
		C378.34,105.58,376.02,104.88,376.02,101.86z M384.53,95.75c0-1.7-0.62-2.17-1.24-2.17c-2.4,0-4.33,6.19-4.33,9.29
		c0,1.7,0.62,2.09,1.24,2.09C382.44,105.03,384.53,98.84,384.53,95.75z"/>
	<path class="st1" d="M398.77,93.35l-1.01,3.41h-0.23c-0.39-0.31-0.77-0.39-1.08-0.39c-1.24,0-2.09,0.77-4.8,6.42l-0.62,2.4h-2.79
		l2.63-9.67c0.15-0.77,0-1.08-0.93-1.01h-0.39l0.08-0.23l4.64-1.16l-2.17,8.2c3.48-7.04,4.64-8.2,5.88-8.2
		C398.15,93.11,398.54,93.27,398.77,93.35z"/>
	<path class="st1" d="M414.1,95.44c0,2.55-1.47,5.26-8.13,10.14l-0.23-0.15l-0.08-5.49c-1.08,2.17-2.94,3.79-5.65,5.65l-0.23-0.15
		l-0.39-9.13c0-1.01-0.23-1.78-1.32-1.63v-0.15l3.95-1.63l0.39,10.45c2.09-1.78,3.25-4.1,3.25-5.88c0-1.16-0.46-2.32-1.24-2.86
		v-0.15l2.79-1.55c0.46,0.54,0.93,1.39,0.93,2.94l0.15,7.51c2.17-1.78,3.25-4.02,3.25-5.73c0-1.24-0.39-2.48-1.24-3.02v-0.15
		l2.79-1.55C413.87,93.58,414.1,94.59,414.1,95.44z"/>
	<path class="st1" d="M426.4,101.16l0.23,0.15c-1.7,2.71-3.48,4.18-4.8,4.18c-0.62,0-1.08-0.39-1.08-1.24
		c0-0.54,0.23-1.32,0.46-1.93l0.93-3.02c-2.32,3.79-4.57,6.19-6.11,6.19c-0.93,0-1.78-0.62-1.78-2.24c0-2.79,2.17-6.58,5.26-8.75
		c1.16-0.77,2.71-1.47,4.02-1.47c0.46,0,0.93,0.08,1.32,0.23l2.24-0.7l-3.02,9.6c-0.15,0.54-0.08,0.77,0.23,0.77
		C424.62,103.02,425.4,102.48,426.4,101.16z M422.53,98.3l1.08-3.48c-0.54-0.54-1.32-0.77-2.32-0.77c-2.32,1.24-3.95,5.19-3.95,7.82
		c0,0.93,0.31,1.24,0.7,1.24C418.9,103.02,420.29,101.55,422.53,98.3z"/>
	<path class="st1" d="M438.24,93.35l-1.01,3.41H437c-0.39-0.31-0.77-0.39-1.08-0.39c-1.24,0-2.09,0.77-4.8,6.42l-0.62,2.4h-2.79
		l2.63-9.67c0.15-0.77,0-1.08-0.93-1.01h-0.39l0.08-0.23l4.64-1.16l-2.17,8.2c3.48-7.04,4.64-8.2,5.88-8.2
		C437.63,93.11,438.01,93.27,438.24,93.35z"/>
	<path class="st1" d="M449.23,101.16l0.23,0.08c-1.63,2.79-3.17,4.26-4.57,4.26c-0.7,0-1.24-0.39-1.24-1.32
		c0-0.54,0.23-1.32,0.39-1.86l0.77-2.86c-2.09,3.71-4.26,6.04-5.73,6.04c-1.01,0-1.86-0.62-1.86-2.48c0-4.26,4.41-9.98,8.51-9.98
		c0.31,0,0.62,0.08,0.85,0.08l0.62-2.4c0.23-0.77-0.15-1.16-1.16-1.01l-0.77,0.08l0.08-0.23l5.26-1.39l-3.71,14.01
		c-0.15,0.54,0,0.77,0.23,0.77C447.61,103.02,448.38,102.48,449.23,101.16z M445.29,98.15l0.85-3.1c-0.62-0.62-1.39-1.01-2.32-1.01
		c-2.09,1.39-3.48,5.03-3.48,7.51c0,1.16,0.39,1.47,0.77,1.47C441.96,103.02,443.2,101.55,445.29,98.15z"/>
</g>
<g class="st0">
	<path class="st1" d="M541.54,175c0,5.26-5.11,12.15-10.22,12.15c-1.63,0-3.25-0.62-3.95-1.39l4.41-16.48
		c0.23-0.93,0-1.39-1.08-1.24l-0.46,0.08l0.08-0.31l5.57-1.39l-3.56,13.31c2.55-4.49,5.11-7.58,7.04-7.58
		C540.54,172.14,541.54,172.91,541.54,175z M537.91,176.86c0-1.32-0.39-1.63-0.85-1.63c-1.08,0-2.71,1.93-5.11,5.8l-1.08,3.87
		c0.54,0.62,1.55,1.16,2.94,1.16C536.13,184.75,537.91,180.34,537.91,176.86z"/>
	<path class="st1" d="M542.24,182.66c0-4.02,3.56-10.45,8.82-10.45c2.01,0,4.8,0.93,4.8,4.49c0,4.02-3.56,10.45-8.82,10.45
		C545.1,187.15,542.24,186.3,542.24,182.66z M552.46,175.39c0-2.09-0.7-2.55-1.47-2.55c-2.86,0-5.19,7.43-5.19,11.14
		c0,2.01,0.7,2.55,1.47,2.55C549.98,186.53,552.46,179.1,552.46,175.39z"/>
	<path class="st1" d="M561.12,184.13c0.46,0,1.47-0.77,2.48-2.17l0.31,0.23c-1.55,2.32-3.95,5.03-5.65,5.03
		c-0.77,0-1.32-0.46-1.32-1.47c0-0.31,0.08-0.62,0.15-1.08l4.1-15.32c0.23-0.93,0-1.39-1.08-1.24l-0.46,0.08l0.08-0.31l5.57-1.39
		l-4.57,16.79C560.58,183.82,560.74,184.13,561.12,184.13z"/>
	<path class="st1" d="M579.54,181.89l0.31,0.15c-1.93,3.33-3.87,5.11-5.49,5.11c-0.85,0-1.47-0.46-1.47-1.55
		c0-0.62,0.31-1.55,0.46-2.24l0.93-3.48c-2.55,4.49-5.11,7.28-6.89,7.28c-1.16,0-2.24-0.77-2.24-2.94c0-5.11,5.34-12,10.14-12
		c0.31,0,0.7,0.08,1.01,0.15l0.77-2.86c0.23-0.93-0.15-1.39-1.39-1.24l-0.93,0.08l0.08-0.31l6.35-1.63l-4.41,16.79
		c-0.15,0.7,0,0.93,0.31,0.93C577.53,184.13,578.46,183.44,579.54,181.89z M574.75,178.25l1.01-3.71c-0.7-0.77-1.7-1.16-2.79-1.16
		c-2.48,1.63-4.18,6.04-4.18,8.98c0,1.39,0.46,1.78,0.93,1.78C570.72,184.13,572.27,182.35,574.75,178.25z"/>
</g>
<g class="st0">
	<path class="st1" d="M534.88,340.03c-1.01,1.55-2.63,3.33-3.79,3.33c-0.7,0-1.08-0.54-0.77-1.63l0.85-3.1
		c-1.86,2.94-3.48,4.72-4.95,4.72c-0.54,0-1.01-0.31-1.01-1.01c0-0.39,0.15-1.16,0.46-2.17l1.47-5.03c0.23-0.7,0-1.01-0.7-0.93
		h-0.31v-0.15l3.71-0.7c-1.24,4.1-2.17,7.27-2.17,7.58c0,0.23,0.15,0.39,0.39,0.39c0.46,0,1.39-0.62,3.25-3.48l1.16-4.18h2.17
		l-1.86,7.04c-0.08,0.39,0,0.62,0.31,0.62s0.93-0.54,1.63-1.47L534.88,340.03z"/>
	<path class="st1" d="M545.71,340.03c-1.01,1.47-2.32,3.33-3.71,3.33c-0.54,0-1.01-0.31-1.01-1.08c0-0.62,0.23-1.47,1.01-3.56
		c0.46-1.32,0.85-2.55,0.85-2.94c0-0.23-0.15-0.46-0.39-0.46c-0.46,0-1.39,0.7-3.56,3.71l-1.08,3.95h-2.17l2.09-7.74
		c0.15-0.62,0-0.93-0.77-0.85h-0.31v-0.15l3.71-0.93l-1.39,5.11c2.01-3.1,3.64-5.11,5.11-5.11c0.62,0,1.16,0.31,1.16,1.24
		c0,0.7-0.39,2.01-0.93,3.48c-0.46,1.24-0.85,2.55-0.85,2.94c0,0.23,0.08,0.39,0.31,0.39c0.39,0,0.93-0.46,1.7-1.47L545.71,340.03z"
		/>
	<path class="st1" d="M546.64,342.43c0-0.15,0-0.46,0.08-0.7l1.78-6.35c0.15-0.62,0-0.93-0.77-0.85h-0.31v-0.15l3.71-0.93
		l-2.01,7.35c-0.15,0.39,0,0.62,0.23,0.62c0.31,0,1.01-0.54,1.78-1.47l0.15,0.15c-1.01,1.47-2.63,3.33-3.95,3.33
		C547.11,343.35,546.64,343.12,546.64,342.43z M549.35,331.2c0-0.7,0.54-1.32,1.32-1.32s1.32,0.62,1.32,1.32s-0.54,1.32-1.32,1.32
		S549.35,331.9,549.35,331.2z"/>
	<path class="st1" d="M559.49,346.68l-0.08,0.15h-4.64v-0.15c0.93-0.15,1.32-0.39,1.47-1.08l1.93-7.2c-1.7,3.1-3.33,4.95-4.64,4.95
		c-0.77,0-1.47-0.46-1.47-1.93c0-3.41,3.64-7.97,6.89-7.97c0.93,0,2.01,0.54,2.55,1.01l-2.94,11.14
		C558.41,346.3,558.71,346.6,559.49,346.68z M558.56,337.47l0.7-2.55c-0.46-0.46-1.01-0.7-1.86-0.7c-1.7,1.08-2.79,4.02-2.79,6.04
		c0,0.93,0.31,1.16,0.62,1.16C555.85,341.42,556.86,340.18,558.56,337.47z"/>
	<path class="st1" d="M571.87,340.03c-1.01,1.55-2.63,3.33-3.79,3.33c-0.7,0-1.08-0.54-0.77-1.63l0.85-3.1
		c-1.86,2.94-3.48,4.72-4.95,4.72c-0.54,0-1.01-0.31-1.01-1.01c0-0.39,0.15-1.16,0.46-2.17l1.47-5.03c0.23-0.7,0-1.01-0.7-0.93
		h-0.31v-0.15l3.71-0.7c-1.24,4.1-2.17,7.27-2.17,7.58c0,0.23,0.15,0.39,0.39,0.39c0.46,0,1.39-0.62,3.25-3.48l1.16-4.18h2.17
		l-1.86,7.04c-0.08,0.39,0,0.62,0.31,0.62s0.93-0.54,1.63-1.47L571.87,340.03z"/>
	<path class="st1" d="M574.89,338.4c0,0.15,0,0.31,0,0.39c0,2.01,0.93,2.63,2.09,2.63c1.08,0,2.09-0.62,2.79-1.86l0.15,0.08
		c-0.93,1.93-2.32,3.71-4.57,3.71c-1.39,0-2.55-0.7-2.55-2.71c0-3.64,3.56-7.2,6.73-7.2c0.93,0,1.39,0.46,1.39,1.16
		C580.93,336.08,578.68,337.86,574.89,338.4z M574.89,338.17c1.78-0.31,3.64-1.39,3.64-3.02c0-0.54-0.31-1.01-0.85-1.01
		C576.52,334.61,575.12,336.08,574.89,338.17z"/>
</g>
<g class="st0">
	<path class="st1" d="M113.93,296.45c0-2.01,1.78-5.26,4.41-5.26c1.01,0,2.4,0.46,2.4,2.24c0,2.01-1.78,5.26-4.41,5.26
		C115.4,298.7,113.93,298.23,113.93,296.45z M119.03,292.81c0-1.01-0.39-1.32-0.77-1.32c-1.39,0-2.63,3.71-2.63,5.57
		c0,1.01,0.39,1.24,0.77,1.24C117.8,298.39,119.03,294.67,119.03,292.81z"/>
	<path class="st1" d="M128.32,296.06l0.15,0.08c-0.93,1.63-1.93,2.55-2.71,2.55c-0.46,0-0.77-0.23-0.77-0.77
		c0-0.31,0.15-0.77,0.23-1.16l0.46-1.7c-1.24,2.24-2.55,3.64-3.48,3.64c-0.62,0-1.16-0.39-1.16-1.47c0-2.55,2.63-5.96,5.11-5.96
		c0.15,0,0.31,0,0.54,0.08l0.39-1.47c0.15-0.46-0.08-0.7-0.7-0.62l-0.46,0.08l0.08-0.15l3.17-0.85l-2.24,8.44
		c-0.08,0.31,0,0.46,0.15,0.46C127.32,297.15,127.78,296.84,128.32,296.06z M125.92,294.28l0.46-1.86
		c-0.39-0.39-0.85-0.62-1.39-0.62c-1.24,0.85-2.09,3.02-2.09,4.49c0,0.7,0.23,0.93,0.46,0.93
		C123.91,297.15,124.68,296.3,125.92,294.28z"/>
	<path class="st1" d="M136.22,296.06l0.15,0.08c-0.93,1.63-1.93,2.55-2.71,2.55c-0.46,0-0.77-0.23-0.77-0.77
		c0-0.31,0.15-0.77,0.23-1.16l0.46-1.7c-1.24,2.24-2.55,3.64-3.48,3.64c-0.62,0-1.16-0.39-1.16-1.47c0-2.55,2.63-5.96,5.11-5.96
		c0.15,0,0.39,0,0.54,0.08l0.39-1.47c0.15-0.46-0.08-0.7-0.7-0.62l-0.46,0.08l0.08-0.15l3.17-0.85l-2.24,8.44
		c-0.08,0.31,0,0.46,0.15,0.46C135.21,297.15,135.67,296.84,136.22,296.06z M133.82,294.28l0.46-1.86
		c-0.39-0.39-0.85-0.62-1.39-0.62c-1.24,0.85-2.09,3.02-2.09,4.49c0,0.7,0.23,0.93,0.46,0.93
		C131.8,297.15,132.58,296.3,133.82,294.28z"/>
</g>
<g class="st0">
	<path class="st1" d="M126.85,167.46l0.15,0.08c-1.32,2.24-2.55,3.41-3.64,3.41c-0.54,0-1.01-0.31-1.01-1.01
		c0-0.46,0.15-1.01,0.31-1.47l0.62-2.32c-1.7,3.02-3.41,4.88-4.64,4.88c-0.77,0-1.47-0.46-1.47-1.93c0-3.41,3.56-7.97,6.81-7.97
		c0.23,0,0.46,0,0.7,0.08l0.46-1.93c0.15-0.62-0.08-0.93-0.93-0.85l-0.62,0.08l0.08-0.23l4.26-1.08L125,168.38
		c-0.08,0.46,0,0.62,0.23,0.62C125.54,168.93,126.16,168.54,126.85,167.46z M123.68,165.06l0.62-2.48
		c-0.46-0.54-1.08-0.77-1.86-0.77c-1.63,1.08-2.79,4.02-2.79,6.04c0,0.93,0.31,1.16,0.62,1.16
		C120.97,168.93,122.05,167.77,123.68,165.06z"/>
	<path class="st1" d="M136.6,163.35c0,1.39-0.46,3.95-5.11,8.05c-2.17,2.01-4.1,3.17-5.88,3.17c-0.62,0-1.01-0.15-1.39-0.39
		l0.93-2.24h0.08c0.46,0.62,1.39,1.08,2.32,1.08c1.08,0,1.86-0.31,2.55-0.93l-1.16-8.44c-0.15-0.93-0.31-1.63-1.24-1.47v-0.15
		l3.1-1.32l1.24,9.6c2.01-1.93,2.48-3.71,2.48-5.19c0-1.32-0.39-2.48-1.24-3.1v-0.08l2.32-1.16
		C136.37,161.5,136.6,162.35,136.6,163.35z"/>
	<path class="st1" d="M147.21,167.61c-1.01,1.47-2.32,3.33-3.71,3.33c-0.54,0-1.01-0.31-1.01-1.08c0-0.62,0.23-1.47,1.01-3.56
		c0.46-1.32,0.85-2.55,0.85-2.94c0-0.23-0.15-0.46-0.39-0.46c-0.46,0-1.39,0.7-3.56,3.71l-1.08,3.95h-2.17l2.09-7.74
		c0.15-0.62,0-0.93-0.77-0.85h-0.31v-0.15l3.71-0.93l-1.39,5.11c2.01-3.1,3.64-5.11,5.11-5.11c0.62,0,1.16,0.31,1.16,1.24
		c0,0.7-0.39,2.01-0.93,3.48c-0.46,1.24-0.85,2.55-0.85,2.94c0,0.23,0.08,0.39,0.31,0.39c0.39,0,0.93-0.46,1.7-1.47L147.21,167.61z"
		/>
	<path class="st1" d="M157.5,167.46l0.23,0.15c-1.39,2.17-2.79,3.33-3.87,3.33c-0.54,0-0.85-0.31-0.85-0.93
		c0-0.46,0.15-1.08,0.39-1.55l0.77-2.4c-1.86,3.02-3.64,4.95-4.88,4.95c-0.77,0-1.39-0.46-1.39-1.78c0-2.24,1.7-5.26,4.18-7.04
		c0.93-0.62,2.17-1.16,3.17-1.16c0.39,0,0.7,0.08,1.01,0.23l1.78-0.54l-2.4,7.66c-0.15,0.46-0.08,0.62,0.15,0.62
		C156.11,168.93,156.8,168.54,157.5,167.46z M154.48,165.13l0.93-2.79c-0.46-0.46-1.01-0.62-1.86-0.62
		c-1.86,1.01-3.17,4.18-3.17,6.27c0,0.77,0.23,0.93,0.54,0.93C151.54,168.93,152.7,167.77,154.48,165.13z"/>
	<path class="st1" d="M173.06,167.61c-0.93,1.32-2.4,3.33-3.71,3.33c-0.54,0-1.01-0.23-1.01-1.08c0-0.62,0.31-1.47,1.01-3.48
		c0.46-1.39,0.85-2.48,0.85-2.94c0-0.23-0.15-0.46-0.39-0.46c-0.46,0-1.32,0.7-3.1,3.71l-1.08,4.02h-2.24l1.86-6.97
		c0.15-0.46,0-0.7-0.31-0.7c-0.46,0-1.32,0.7-3.25,3.79l-1.01,3.87h-2.17l2.09-7.74c0.15-0.62,0-0.93-0.77-0.85h-0.31v-0.15
		l3.71-0.93l-1.32,4.95c1.78-3.02,3.25-4.95,4.72-4.95c0.54,0,1.39,0.31,0.93,1.93l-0.77,2.86c1.78-2.94,3.25-4.8,4.57-4.8
		c0.62,0,1.16,0.31,1.16,1.24c0,0.7-0.46,2.01-0.93,3.48c-0.46,1.24-0.85,2.55-0.85,2.94c0,0.23,0.15,0.39,0.31,0.39
		c0.39,0,0.93-0.46,1.7-1.47L173.06,167.61z"/>
	<path class="st1" d="M173.99,170.01c0-0.15,0-0.46,0.08-0.7l1.78-6.35c0.15-0.62,0-0.93-0.77-0.85h-0.31v-0.15l3.71-0.93
		l-2.01,7.35c-0.15,0.39,0,0.62,0.23,0.62c0.31,0,1.01-0.54,1.78-1.47l0.15,0.15c-1.01,1.47-2.63,3.33-3.95,3.33
		C174.45,170.94,173.99,170.71,173.99,170.01z M176.69,158.79c0-0.7,0.54-1.32,1.32-1.32c0.77,0,1.32,0.62,1.32,1.32
		c0,0.7-0.54,1.32-1.32,1.32C177.24,160.1,176.69,159.48,176.69,158.79z"/>
	<path class="st1" d="M179.71,168.08c0-3.71,3.56-7.04,6.35-7.04c0.93,0,1.63,0.39,1.93,0.77l-1.24,1.86h-0.15
		c-0.46-0.85-1.39-1.55-2.48-1.63c-1.39,0.93-2.48,2.48-2.48,4.49c0,1.86,0.93,2.55,2.01,2.55s1.93-0.62,2.86-1.86l0.15,0.08
		c-1.01,1.93-2.24,3.71-4.41,3.71C180.72,170.94,179.71,170.01,179.71,168.08z"/>
</g>
<g class="st0">
	<path class="st2" d="M249.69,291.06c0,5.98-4.69,10.67-10.82,10.67h-5.6v10.44h-6.28V280.4h11.88
		C244.99,280.4,249.69,285.16,249.69,291.06z M243.48,291.06c0-2.8-1.97-4.84-4.62-4.84h-5.6v9.61h5.6
		C241.51,295.91,243.48,293.79,243.48,291.06z"/>
	<path class="st2" d="M265.95,301.13h-4.77v11.05h-6.28V280.4h12.71c5.83,0,10.59,4.69,10.59,10.52c0,4.01-2.5,7.57-6.13,9.23
		l7.04,11.95h-6.73L265.95,301.13z M261.19,295.68h6.43c2.35,0,4.31-2.12,4.31-4.69c0-2.65-1.97-4.69-4.31-4.69h-6.43V295.68z"/>
	<path class="st2" d="M302.49,306.5h-12.63l-1.89,5.75h-6.73l11.12-31.78h7.79l11.2,31.78h-6.81L302.49,306.5z M300.53,300.6
		l-4.39-13.01l-4.39,13.01H300.53z"/>
	<path class="st2" d="M345.47,297.57c0,9.15-6.51,15.28-15.59,15.28c-9.91,0-17.02-7.41-17.02-16.49c0-9.23,7.19-16.57,16.64-16.57
		c6.05,0,11.2,3.03,13.85,7.41l-5.37,3.1c-1.44-2.57-4.69-4.39-8.55-4.39c-6.05,0-10.37,4.46-10.37,10.52
		c0,5.9,4.24,10.37,10.82,10.37c4.99,0,8.17-2.42,9.23-6.05h-9.61v-5.52h15.96L345.47,297.57L345.47,297.57z"/>
	<path class="st2" d="M382.16,312.17h-6.2v-20.58l-8.93,14.75h-0.76l-8.93-14.68v20.5h-6.28V280.4h6.43l9.15,15.06l9.08-15.06h6.43
		L382.16,312.17L382.16,312.17z"/>
	<path class="st2" d="M407.66,306.5h-12.63l-1.89,5.75h-6.73l11.12-31.78h7.79l11.2,31.78h-6.81L407.66,306.5z M405.77,300.6
		l-4.39-13.01l-4.39,13.01H405.77z"/>
	<path class="st2" d="M439.36,286.37h-8.62v25.8h-6.28v-25.8h-8.55v-5.98h23.38v5.98H439.36z"/>
	<path class="st2" d="M450.25,280.4v31.78h-6.28V280.4H450.25z"/>
	<path class="st2" d="M455.78,296.29c0-9.31,6.88-16.49,16.49-16.49c5.83,0,10.97,2.95,13.69,7.49l-5.37,3.1
		c-1.51-2.8-4.62-4.54-8.25-4.54c-6.2,0-10.29,4.31-10.29,10.44c0,6.05,4.09,10.37,10.29,10.37c3.63,0,6.73-1.74,8.25-4.46l5.37,3.1
		c-2.65,4.54-7.79,7.49-13.69,7.49C462.74,312.85,455.78,305.59,455.78,296.29z"/>
</g>
<g class="st0">
	<path class="st2" d="M322,427.34c0-2.09,1.55-3.64,3.64-3.64c1.39,0,2.55,0.7,3.1,1.86l-1.01,0.62c-0.39-0.77-1.16-1.24-2.09-1.24
		c-1.39,0-2.48,1.08-2.48,2.48c0,1.39,1.08,2.48,2.48,2.48c0.93,0,1.7-0.46,2.09-1.24l1.01,0.62c-0.62,1.08-1.78,1.78-3.17,1.78
		C323.55,430.98,322,429.35,322,427.34z"/>
	<path class="st2" d="M329.51,427.34c0-2.09,1.63-3.64,3.64-3.64s3.71,1.63,3.71,3.64c0,2.09-1.63,3.64-3.71,3.64
		C331.06,430.98,329.51,429.35,329.51,427.34z M335.7,427.34c0-1.39-1.08-2.48-2.48-2.48c-1.39,0-2.48,1.08-2.48,2.48
		c0,1.39,1.08,2.48,2.48,2.48C334.62,429.82,335.7,428.73,335.7,427.34z"/>
	<path class="st2" d="M338.33,420.61h1.24v10.14h-1.24V420.61z"/>
	<path class="st2" d="M341.35,420.61h1.24v10.14h-1.24V420.61z"/>
	<path class="st2" d="M347.78,429.82c0.93,0,1.63-0.46,2.01-1.01l1.01,0.62c-0.62,0.93-1.7,1.55-3.1,1.55
		c-2.24,0-3.71-1.55-3.71-3.64c0-2.09,1.47-3.64,3.64-3.64c2.09,0,3.48,1.7,3.48,3.71c0,0.15,0,0.39-0.08,0.54h-5.8
		C345.53,429.12,346.54,429.82,347.78,429.82z M345.3,426.8h4.64c-0.23-1.39-1.16-2.01-2.24-2.01
		C346.38,424.79,345.45,425.64,345.3,426.8z"/>
	<path class="st2" d="M352.19,427.34c0-2.09,1.55-3.64,3.64-3.64c1.39,0,2.55,0.7,3.1,1.86l-1.01,0.62
		c-0.39-0.77-1.16-1.24-2.09-1.24c-1.39,0-2.48,1.08-2.48,2.48c0,1.39,1.08,2.48,2.48,2.48c0.93,0,1.7-0.46,2.09-1.24l1.01,0.62
		c-0.62,1.08-1.78,1.78-3.17,1.78C353.74,430.98,352.19,429.35,352.19,427.34z"/>
	<path class="st2" d="M362.09,425.02v3.79c0,1.08,0.62,1.01,1.86,0.93v1.08c-2.09,0.31-3.1-0.31-3.1-2.01v-3.79h-1.39v-1.16h1.39
		v-1.63l1.24-0.39v1.93h1.86v1.16h-1.86L362.09,425.02L362.09,425.02z"/>
	<path class="st2" d="M365.19,421.77c0-0.46,0.39-0.85,0.85-0.85s0.77,0.39,0.77,0.85s-0.39,0.77-0.77,0.77
		C365.5,422.54,365.19,422.23,365.19,421.77z M365.34,423.86h1.24v6.97h-1.24V423.86z"/>
	<path class="st2" d="M374.63,423.86l-2.79,6.97h-1.39l-2.79-6.97h1.32l2.17,5.65l2.17-5.65H374.63z"/>
	<path class="st2" d="M378.73,429.82c0.93,0,1.63-0.46,2.01-1.01l1.01,0.62c-0.62,0.93-1.7,1.55-3.1,1.55
		c-2.24,0-3.71-1.55-3.71-3.64c0-2.09,1.47-3.64,3.64-3.64c2.09,0,3.48,1.7,3.48,3.71c0,0.15,0,0.39-0.08,0.54h-5.8
		C376.49,429.12,377.5,429.82,378.73,429.82z M376.26,426.8h4.64c-0.23-1.39-1.16-2.01-2.24-2.01
		C377.34,424.79,376.41,425.64,376.26,426.8z"/>
</g>
<g class="st0">
	<path class="st2" d="M576.5,257.86c0,2.79-2.09,4.88-4.72,4.88c-1.55,0-2.79-0.7-3.48-1.86v5.34h-1.63v-13h1.63v1.63
		c0.77-1.16,1.93-1.86,3.48-1.86C574.41,252.98,576.5,255.15,576.5,257.86z M574.95,257.86c0-1.86-1.39-3.33-3.25-3.33
		s-3.33,1.39-3.33,3.33s1.39,3.33,3.33,3.33C573.48,261.19,574.95,259.79,574.95,257.86z"/>
	<path class="st2" d="M578.43,248.96h1.63v13.54h-1.63V248.96z"/>
	<path class="st2" d="M591.82,253.22v9.29h-1.63v-1.63c-0.77,1.16-1.93,1.86-3.48,1.86c-2.55,0-4.72-2.17-4.72-4.88
		c0-2.79,2.09-4.88,4.72-4.88c1.55,0,2.79,0.7,3.48,1.86v-1.63L591.82,253.22L591.82,253.22z M590.27,257.86
		c0-1.86-1.39-3.33-3.33-3.33c-1.86,0-3.25,1.39-3.25,3.33s1.39,3.33,3.25,3.33C588.8,261.19,590.27,259.79,590.27,257.86z"/>
	<path class="st2" d="M602.5,253.22l-3.79,9.83c-0.77,2.09-2.24,3.25-4.1,3.17v-1.47c1.24,0.08,2.01-0.7,2.48-1.86l0.15-0.39
		l-4.02-9.29h1.7l3.17,7.28l2.71-7.28L602.5,253.22L602.5,253.22z"/>
	<path class="st2" d="M606.22,252.98v0.31h2.48v1.55h-2.48v7.74h-1.63v-7.74h-1.47v-1.55h1.47v-0.31c0-2.48,1.39-3.87,4.1-3.71v1.55
		C606.99,250.74,606.22,251.36,606.22,252.98z"/>
	<path class="st2" d="M617.9,253.22v9.29h-1.63v-1.32c-0.7,1.08-1.7,1.55-3.02,1.55c-2.17,0-3.64-1.47-3.64-3.79v-5.73h1.63v5.57
		c0,1.55,0.85,2.4,2.32,2.4c1.47,0,2.71-0.85,2.71-3.1v-4.95h1.63V253.22z"/>
	<path class="st2" d="M620.38,248.96h1.63v13.54h-1.63V248.96z"/>
</g>
<g class="st0">
	<path class="st2" d="M101.55,231.93c0,1.7-1.47,2.79-3.48,2.79c-1.86,0-3.17-0.93-3.71-2.17l1.39-0.77
		c0.31,0.93,1.16,1.47,2.32,1.47c1.01,0,1.86-0.39,1.86-1.24c0-2.01-5.19-0.85-5.19-4.18c0-1.63,1.39-2.79,3.25-2.79
		c1.55,0,2.79,0.7,3.33,1.93l-1.39,0.77c-0.39-0.85-1.16-1.16-2.01-1.16s-1.63,0.39-1.63,1.24
		C96.37,229.68,101.55,228.52,101.55,231.93z"/>
	<path class="st2" d="M102.71,229.84c0-2.79,2.17-4.88,4.88-4.88s4.88,2.17,4.88,4.88c0,2.79-2.17,4.88-4.88,4.88
		C104.88,234.71,102.71,232.62,102.71,229.84z M110.84,229.84c0-1.86-1.39-3.33-3.25-3.33s-3.25,1.39-3.25,3.33
		c0,1.86,1.39,3.33,3.25,3.33S110.84,231.7,110.84,229.84z"/>
	<path class="st2" d="M113.86,229.84c0-2.79,2.09-4.88,4.88-4.88c1.86,0,3.41,0.93,4.1,2.4l-1.39,0.77
		c-0.46-1.01-1.47-1.63-2.79-1.63c-1.86,0-3.25,1.39-3.25,3.33c0,1.86,1.39,3.25,3.25,3.25c1.24,0,2.32-0.62,2.79-1.63l1.39,0.77
		c-0.77,1.47-2.32,2.4-4.18,2.4C115.95,234.71,113.86,232.62,113.86,229.84z"/>
	<path class="st2" d="M124.23,222.41c0-0.62,0.46-1.08,1.08-1.08s1.08,0.46,1.08,1.08s-0.46,1.08-1.08,1.08
		C124.77,223.49,124.23,223.03,124.23,222.41z M124.54,225.19h1.63v9.29h-1.63V225.19z"/>
	<path class="st2" d="M137.93,225.19v9.29h-1.63v-1.63c-0.77,1.16-1.93,1.86-3.48,1.86c-2.55,0-4.72-2.17-4.72-4.88
		c0-2.79,2.09-4.88,4.72-4.88c1.55,0,2.79,0.7,3.48,1.86v-1.63L137.93,225.19L137.93,225.19z M136.3,229.84
		c0-1.86-1.39-3.33-3.33-3.33c-1.86,0-3.25,1.39-3.25,3.33s1.39,3.33,3.25,3.33C134.91,233.17,136.3,231.77,136.3,229.84z"/>
	<path class="st2" d="M140.4,220.94h1.63v13.54h-1.63V220.94z"/>
</g>
<g class="st0">
	<path class="st2" d="M101.14,354.44v1.24c-1.08-0.08-2.17,0.46-2.17,2.17v3.71h-1.24v-6.97h1.24v1.16
		C99.36,354.75,100.21,354.44,101.14,354.44z"/>
	<path class="st2" d="M105.32,360.55c0.93,0,1.63-0.46,2.01-1.01l1.01,0.62c-0.62,0.93-1.7,1.55-3.1,1.55
		c-2.24,0-3.71-1.55-3.71-3.64c0-2.09,1.47-3.64,3.64-3.64c2.09,0,3.48,1.7,3.48,3.71c0,0.15,0,0.39-0.08,0.54h-5.8
		C103,359.86,104,360.55,105.32,360.55z M102.77,357.54h4.64c-0.23-1.39-1.16-2.01-2.24-2.01C103.85,355.52,103,356.3,102.77,357.54
		z"/>
	<path class="st2" d="M114.68,359.62c0,1.32-1.08,2.09-2.63,2.09c-1.39,0-2.4-0.7-2.79-1.63l1.08-0.62c0.23,0.7,0.85,1.08,1.7,1.08
		c0.77,0,1.39-0.23,1.39-0.93c0-1.47-3.87-0.62-3.87-3.17c0-1.24,1.08-2.09,2.48-2.09c1.16,0,2.09,0.54,2.48,1.47l-1.01,0.54
		c-0.23-0.62-0.85-0.93-1.47-0.93s-1.24,0.31-1.24,0.93C110.81,357.92,114.68,357.07,114.68,359.62z"/>
	<path class="st2" d="M115.54,358.08c0-2.09,1.63-3.64,3.64-3.64s3.71,1.63,3.71,3.64c0,2.09-1.63,3.64-3.71,3.64
		C117.16,361.71,115.54,360.09,115.54,358.08z M121.73,358.08c0-1.39-1.08-2.48-2.48-2.48c-1.39,0-2.48,1.08-2.48,2.48
		c0,1.39,1.08,2.48,2.48,2.48C120.64,360.55,121.73,359.47,121.73,358.08z"/>
	<path class="st2" d="M130.4,354.59v6.97h-1.24v-1.01c-0.54,0.85-1.32,1.16-2.24,1.16c-1.63,0-2.71-1.08-2.71-2.86v-4.26h1.24v4.18
		c0,1.16,0.62,1.78,1.7,1.78s2.01-0.62,2.01-2.32v-3.71h1.24V354.59z"/>
	<path class="st2" d="M135.58,354.44v1.24c-1.08-0.08-2.17,0.46-2.17,2.17v3.71h-1.24v-6.97h1.24v1.16
		C133.88,354.75,134.73,354.44,135.58,354.44z"/>
	<path class="st2" d="M135.97,358.08c0-2.09,1.55-3.64,3.64-3.64c1.39,0,2.55,0.7,3.1,1.86l-1.01,0.62
		c-0.39-0.77-1.16-1.24-2.09-1.24c-1.39,0-2.48,1.08-2.48,2.48c0,1.39,1.08,2.48,2.48,2.48c0.93,0,1.7-0.46,2.09-1.24l1.01,0.62
		c-0.62,1.08-1.78,1.78-3.17,1.78C137.59,361.71,135.97,360.09,135.97,358.08z"/>
	<path class="st2" d="M147.27,360.55c0.93,0,1.63-0.46,2.01-1.01l1.01,0.62c-0.62,0.93-1.7,1.55-3.1,1.55
		c-2.24,0-3.71-1.55-3.71-3.64c0-2.09,1.47-3.64,3.64-3.64c2.09,0,3.48,1.7,3.48,3.71c0,0.15,0,0.39-0.08,0.54h-5.8
		C145.02,359.86,145.95,360.55,147.27,360.55z M144.79,357.54h4.64c-0.23-1.39-1.16-2.01-2.24-2.01
		C145.87,355.52,144.95,356.3,144.79,357.54z"/>
	<path class="st2" d="M153.54,354.36v0.23h1.86v1.16h-1.86v5.8h-1.24v-5.8h-1.08v-1.16h1.08v-0.23c0-1.86,1.08-2.86,3.02-2.79v1.16
		C154.16,352.66,153.54,353.12,153.54,354.36z"/>
	<path class="st2" d="M162.36,354.59v6.97h-1.24v-1.01c-0.54,0.85-1.32,1.16-2.24,1.16c-1.63,0-2.71-1.08-2.71-2.86v-4.26h1.24v4.18
		c0,1.16,0.62,1.78,1.7,1.78s2.01-0.62,2.01-2.32v-3.71h1.24L162.36,354.59L162.36,354.59z"/>
	<path class="st2" d="M164.14,351.34h1.24v10.14h-1.24V351.34z"/>
</g>
<g class="st0">
	<path class="st2" d="M517.42,415.85v11.61h-2.01v-2.01c-0.93,1.39-2.4,2.32-4.41,2.32c-3.25,0-5.88-2.63-5.88-6.11
		c0-3.41,2.63-6.11,5.88-6.11c1.93,0,3.48,0.85,4.41,2.32v-2.01h2.01V415.85z M515.41,421.65c0-2.4-1.78-4.18-4.1-4.18
		s-4.1,1.78-4.1,4.18s1.78,4.18,4.1,4.18C513.55,425.83,515.41,423.97,515.41,421.65z"/>
	<path class="st2" d="M519.82,421.65c0-3.41,2.63-6.11,6.11-6.11c2.32,0,4.26,1.24,5.11,3.02l-1.7,1.01
		c-0.62-1.24-1.86-2.01-3.41-2.01c-2.32,0-4.1,1.78-4.1,4.1s1.78,4.1,4.1,4.1c1.55,0,2.86-0.85,3.48-2.01l1.7,1.01
		c-1.01,1.78-2.94,3.02-5.19,3.02C522.37,427.76,519.82,425.05,519.82,421.65z"/>
	<path class="st2" d="M532.35,421.65c0-3.41,2.63-6.11,6.11-6.11c2.32,0,4.26,1.24,5.11,3.02l-1.7,1.01
		c-0.54-1.24-1.86-2.01-3.41-2.01c-2.32,0-4.1,1.78-4.1,4.1s1.78,4.1,4.1,4.1c1.55,0,2.86-0.85,3.48-2.01l1.7,1.01
		c-1.01,1.78-2.94,3.02-5.19,3.02C534.91,427.76,532.35,425.05,532.35,421.65z"/>
	<path class="st2" d="M551.08,425.83c1.63,0,2.79-0.77,3.33-1.7l1.7,1.01c-1.01,1.55-2.79,2.63-5.11,2.63
		c-3.71,0-6.19-2.63-6.19-6.11c0-3.41,2.48-6.11,6.11-6.11c3.48,0,5.8,2.86,5.8,6.11c0,0.31,0,0.62-0.08,0.93h-9.75
		C547.29,424.67,548.92,425.83,551.08,425.83z M546.9,420.8h7.74c-0.39-2.32-2.01-3.33-3.71-3.33
		C548.76,417.47,547.21,418.79,546.9,420.8z"/>
	<path class="st2" d="M566.79,424.28c0,2.17-1.86,3.48-4.33,3.48c-2.32,0-3.95-1.08-4.64-2.71l1.7-1.01
		c0.39,1.08,1.47,1.78,2.86,1.78c1.24,0,2.32-0.46,2.32-1.55c0-2.48-6.5-1.08-6.5-5.26c0-2.01,1.78-3.48,4.1-3.48
		c1.93,0,3.41,0.93,4.18,2.4l-1.7,0.93c-0.46-1.08-1.47-1.47-2.48-1.47c-1.08,0-2.09,0.54-2.09,1.55
		C560.29,421.42,566.79,420.02,566.79,424.28z"/>
	<path class="st2" d="M576.7,424.28c0,2.17-1.86,3.48-4.33,3.48c-2.32,0-3.95-1.08-4.64-2.71l1.7-1.01
		c0.39,1.08,1.47,1.78,2.86,1.78c1.24,0,2.32-0.46,2.32-1.55c0-2.48-6.5-1.08-6.5-5.26c0-2.01,1.78-3.48,4.1-3.48
		c1.93,0,3.41,0.93,4.18,2.4l-1.7,0.93c-0.46-1.08-1.47-1.47-2.48-1.47s-2.09,0.54-2.09,1.55
		C570.2,421.42,576.7,420.02,576.7,424.28z"/>
	<path class="st2" d="M578.64,412.36c0-0.77,0.62-1.39,1.39-1.39s1.32,0.62,1.32,1.39c0,0.77-0.62,1.32-1.32,1.32
		C579.26,413.76,578.64,413.14,578.64,412.36z M579.02,415.85h2.01v11.61h-2.01V415.85z"/>
	<path class="st2" d="M596.36,421.65c0,3.41-2.63,6.11-5.88,6.11c-2.01,0-3.48-0.85-4.41-2.32v2.01h-2.01V411.2h2.01v6.66
		c0.93-1.39,2.4-2.32,4.41-2.32C593.73,415.54,596.36,418.17,596.36,421.65z M594.35,421.65c0-2.4-1.78-4.18-4.1-4.18
		c-2.32,0-4.1,1.78-4.1,4.18s1.78,4.18,4.1,4.18C592.57,425.83,594.35,423.97,594.35,421.65z"/>
	<path class="st2" d="M598.76,410.5h2.01v16.95h-2.01V410.5z"/>
	<path class="st2" d="M609.52,425.83c1.63,0,2.79-0.77,3.33-1.7l1.7,1.01c-1.01,1.55-2.79,2.63-5.11,2.63
		c-3.71,0-6.19-2.63-6.19-6.11c0-3.41,2.48-6.11,6.11-6.11c3.48,0,5.8,2.86,5.8,6.11c0,0.31,0,0.62-0.08,0.93h-9.75
		C605.72,424.67,607.35,425.83,609.52,425.83z M605.34,420.8h7.74c-0.39-2.32-2.01-3.33-3.71-3.33
		C607.12,417.47,605.65,418.79,605.34,420.8z"/>
</g>
<g class="st0">
	<path class="st2" d="M103.41,99.35c1.32,0,2.24-0.62,2.71-1.39l1.39,0.77c-0.85,1.24-2.24,2.09-4.1,2.09
		c-3.02,0-4.95-2.09-4.95-4.88s1.93-4.88,4.88-4.88c2.79,0,4.64,2.32,4.64,4.88c0,0.23,0,0.46-0.08,0.7h-7.82
		C100.31,98.43,101.63,99.35,103.41,99.35z M100.01,95.33h6.19c-0.31-1.86-1.63-2.71-3.02-2.71
		C101.48,92.62,100.24,93.71,100.01,95.33z"/>
	<path class="st2" d="M123.22,94.87v5.8h-1.63v-5.73c0-1.47-0.85-2.24-2.01-2.24c-1.32,0-2.32,0.85-2.32,2.79v5.19h-1.63v-5.73
		c0-1.47-0.77-2.24-1.93-2.24c-1.24,0-2.4,0.85-2.4,2.79v5.19h-1.63V91.4h1.63v1.24c0.7-1.01,1.63-1.47,2.79-1.47
		c1.24,0,2.17,0.54,2.71,1.55c0.62-1.08,1.7-1.55,2.94-1.55C121.83,91.15,123.22,92.54,123.22,94.87z"/>
	<path class="st2" d="M135.3,96.03c0,2.79-2.09,4.88-4.72,4.88c-1.55,0-2.79-0.7-3.48-1.86v5.34h-1.63v-13h1.63v1.63
		c0.77-1.16,1.93-1.86,3.48-1.86C133.21,91.15,135.3,93.24,135.3,96.03z M133.67,96.03c0-1.86-1.39-3.33-3.25-3.33
		s-3.33,1.39-3.33,3.33s1.39,3.33,3.33,3.33C132.28,99.35,133.67,97.88,133.67,96.03z"/>
	<path class="st2" d="M146.52,91.38v9.29h-1.63v-1.63c-0.77,1.16-1.93,1.86-3.48,1.86c-2.55,0-4.72-2.17-4.72-4.88
		c0-2.79,2.09-4.88,4.72-4.88c1.55,0,2.79,0.7,3.48,1.86v-1.63L146.52,91.38L146.52,91.38z M144.89,96.03
		c0-1.86-1.39-3.33-3.33-3.33c-1.86,0-3.25,1.39-3.25,3.33s1.39,3.33,3.25,3.33C143.5,99.35,144.89,97.88,144.89,96.03z"/>
	<path class="st2" d="M151.55,92.93v5.03c0,1.39,0.85,1.32,2.48,1.24v1.47c-2.79,0.39-4.1-0.39-4.1-2.71v-5.03h-1.86v-1.55h1.86
		v-2.09l1.63-0.46v2.63h2.48v1.55h-2.48L151.55,92.93L151.55,92.93z"/>
	<path class="st2" d="M164.16,94.94v5.73h-1.63V95.1c0-1.55-0.85-2.4-2.32-2.4s-2.71,0.85-2.71,3.1v4.95h-1.63v-13h1.63v5.03
		c0.7-1.08,1.7-1.55,3.02-1.55C162.77,91.15,164.16,92.62,164.16,94.94z"/>
	<path class="st2" d="M166.18,88.6c0-0.62,0.46-1.08,1.08-1.08s1.08,0.46,1.08,1.08s-0.46,1.08-1.08,1.08S166.18,89.22,166.18,88.6z
		 M166.41,91.38h1.63v9.29h-1.63V91.38z"/>
	<path class="st2" d="M169.97,96.03c0-2.79,2.09-4.88,4.88-4.88c1.86,0,3.41,0.93,4.1,2.4l-1.39,0.77
		c-0.46-1.01-1.47-1.63-2.79-1.63c-1.86,0-3.25,1.39-3.25,3.33c0,1.86,1.39,3.25,3.25,3.25c1.24,0,2.32-0.62,2.79-1.63l1.39,0.77
		c-0.77,1.47-2.32,2.4-4.18,2.4C172.06,100.9,169.97,98.74,169.97,96.03z"/>
</g>
<g class="st0">
	<path class="st2" d="M557.39,95.97c0-2.79,2.17-4.88,4.88-4.88s4.88,2.17,4.88,4.88c0,2.79-2.17,4.88-4.88,4.88
		C559.56,100.84,557.39,98.75,557.39,95.97z M565.6,95.97c0-1.86-1.39-3.33-3.25-3.33s-3.25,1.39-3.25,3.33
		c0,1.86,1.39,3.33,3.25,3.33C564.13,99.3,565.6,97.9,565.6,95.97z"/>
	<path class="st2" d="M573.65,91.17v1.7c-1.39-0.08-2.86,0.62-2.86,2.86v4.95h-1.63V91.4h1.63v1.55
		C571.32,91.63,572.49,91.17,573.65,91.17z"/>
	<path class="st2" d="M584.02,91.33v8.9c0,2.86-2.32,4.33-4.72,4.33c-2.09,0-3.64-0.77-4.41-2.24l1.39-0.77
		c0.46,0.85,1.24,1.55,3.02,1.55c1.93,0,3.1-1.08,3.1-2.86v-1.32c-0.77,1.16-1.93,1.86-3.48,1.86c-2.63,0-4.72-2.17-4.72-4.88
		s2.09-4.8,4.72-4.8c1.55,0,2.79,0.7,3.48,1.86v-1.63L584.02,91.33L584.02,91.33z M582.39,95.97c0-1.86-1.39-3.25-3.33-3.25
		c-1.86,0-3.33,1.39-3.33,3.25s1.39,3.33,3.33,3.33C581,99.22,582.39,97.83,582.39,95.97z"/>
	<path class="st2" d="M595.78,91.33v9.29h-1.63v-1.63c-0.77,1.16-1.93,1.86-3.48,1.86c-2.55,0-4.72-2.17-4.72-4.88
		c0-2.79,2.09-4.88,4.72-4.88c1.55,0,2.79,0.7,3.48,1.86v-1.63L595.78,91.33L595.78,91.33z M594.16,95.97
		c0-1.86-1.39-3.33-3.33-3.33c-1.86,0-3.25,1.39-3.25,3.33s1.39,3.33,3.25,3.33C592.76,99.3,594.16,97.9,594.16,95.97z"/>
	<path class="st2" d="M606.46,94.96v5.73h-1.63v-5.57c0-1.55-0.85-2.4-2.32-2.4s-2.71,0.85-2.71,3.1v4.95h-1.63v-9.29h1.63v1.32
		c0.7-1.08,1.7-1.55,3.02-1.55C604.99,91.09,606.46,92.56,606.46,94.96z"/>
	<path class="st2" d="M608.4,88.62c0-0.62,0.46-1.08,1.08-1.08s1.08,0.46,1.08,1.08s-0.46,1.08-1.08,1.08
		C608.94,89.7,608.4,89.16,608.4,88.62z M608.71,91.33h1.63v9.29h-1.63V91.33z"/>
	<path class="st2" d="M612.27,95.97c0-2.79,2.09-4.88,4.88-4.88c1.86,0,3.41,0.93,4.1,2.4l-1.39,0.77
		c-0.46-1.01-1.47-1.63-2.79-1.63c-1.86,0-3.25,1.39-3.25,3.33c0,1.86,1.39,3.25,3.25,3.25c1.24,0,2.32-0.62,2.79-1.63l1.39,0.77
		c-0.77,1.47-2.32,2.4-4.18,2.4C614.36,100.92,612.27,98.75,612.27,95.97z"/>
</g>
<g>
	<path class="st2" d="M332.41,159.34v13.93h-2.4v-2.4c-1.08,1.7-2.86,2.79-5.26,2.79c-3.87,0-7.04-3.17-7.04-7.35
		s3.17-7.35,7.04-7.35c2.4,0,4.18,1.08,5.26,2.79v-2.4L332.41,159.34L332.41,159.34z M329.93,166.3c0-2.86-2.17-4.95-4.95-4.95
		c-2.79,0-4.95,2.17-4.95,4.95s2.17,4.95,4.95,4.95C327.84,171.26,329.93,169.17,329.93,166.3z"/>
	<path class="st2" d="M348.12,159.34v13.93h-2.4v-2.01c-1.01,1.63-2.55,2.4-4.49,2.4c-3.25,0-5.42-2.17-5.42-5.73v-8.59h2.4v8.44
		c0,2.32,1.32,3.56,3.48,3.56c2.24,0,4.02-1.32,4.02-4.57v-7.35h2.4v-0.08H348.12z"/>
	<path class="st2" d="M355.62,161.66v7.58c0,2.09,1.24,2.01,3.71,1.86v2.17c-4.18,0.54-6.11-0.54-6.11-4.02v-7.58h-2.79v-2.32h2.79
		v-3.17l2.4-0.7v3.87h3.71v2.32L355.62,161.66L355.62,161.66z"/>
	<path class="st2" d="M374.59,164.76v8.59h-2.48v-8.44c0-2.32-1.32-3.56-3.48-3.56c-2.24,0-4.02,1.32-4.02,4.57v7.35h-2.4v-19.5h2.4
		v7.58c1.01-1.63,2.55-2.4,4.49-2.4C372.42,158.95,374.59,161.12,374.59,164.76z"/>
	<path class="st2" d="M384.65,171.33c1.93,0,3.33-0.93,4.02-2.01l2.09,1.16c-1.24,1.86-3.33,3.17-6.11,3.17
		c-4.49,0-7.43-3.17-7.43-7.35c0-4.1,2.94-7.35,7.28-7.35c4.18,0,6.97,3.48,6.97,7.35c0,0.39,0,0.7-0.08,1.08H379.7
		C380.08,169.94,382.09,171.33,384.65,171.33z M379.62,165.3h9.29c-0.39-2.79-2.4-4.02-4.49-4.02
		C381.86,161.27,380,162.9,379.62,165.3z"/>
	<path class="st2" d="M406.55,164.76v8.59h-2.4v-8.44c0-2.32-1.32-3.56-3.48-3.56c-2.24,0-4.02,1.32-4.02,4.57v7.35h-2.4v-13.93h2.4
		v2.01c1.01-1.63,2.55-2.4,4.49-2.4C404.38,158.95,406.55,161.12,406.55,164.76z"/>
	<path class="st2" d="M413.75,161.66v7.58c0,2.09,1.24,2.01,3.71,1.86v2.17c-4.18,0.54-6.11-0.54-6.11-4.02v-7.58h-2.79v-2.32h2.79
		v-3.17l2.4-0.7v3.87h3.71v2.32L413.75,161.66L413.75,161.66z"/>
	<path class="st2" d="M419.94,155.16c0-0.93,0.7-1.63,1.63-1.63s1.63,0.77,1.63,1.63c0,0.93-0.7,1.63-1.63,1.63
		C420.64,156.78,419.94,156.09,419.94,155.16z M420.33,159.34h2.4v13.93h-2.4V159.34z"/>
	<path class="st2" d="M425.67,166.3c0-4.1,3.1-7.35,7.35-7.35c2.79,0,5.11,1.47,6.19,3.64l-2.01,1.16c-0.7-1.47-2.24-2.48-4.1-2.48
		c-2.79,0-4.88,2.17-4.88,4.95c0,2.79,2.09,4.95,4.88,4.95c1.86,0,3.41-1.01,4.18-2.4l2.09,1.16c-1.16,2.17-3.56,3.64-6.27,3.64
		C428.84,173.66,425.67,170.41,425.67,166.3z"/>
</g>
<g>
	<path class="st3" d="M-206.18,1142.21c72.96-72.91,299.37-299.33,372.31-372.31"/>
	<path class="st3" d="M-184.3,1142.21c64.06-63.83,281.4-281.67,345.54-345.54"/>
	<path class="st3" d="M-162.41,1142.21c58.06-58.03,269.72-269.69,327.7-327.7"/>
	<path class="st3" d="M-140.52,1142.21c54.08-53.99,261.58-261.62,315.56-315.56"/>
	<path class="st3" d="M-118.63,1142.21c51.36-51.35,256.34-256.33,307.71-307.71"/>
	<path class="st3" d="M-96.74,1142.21c50.53-50.59,254.63-254.81,305.29-305.29"/>
	<path class="st3" d="M-74.86,1142.21c55.75-55.63,265.02-264.9,320.63-320.65"/>
	<path class="st3" d="M-52.97,1142.21c51.01-50.72,255.24-255.32,306.06-306.08"/>
	<path class="st3" d="M-31.08,1142.21c7.94-7.97,169.29-169.32,177.36-177.51c49.18-49.05,96.22-96.09,144.35-144.19"/>
	<path class="st3" d="M-9.19,1142.21c52.51-52.61,258.62-258.72,311.24-311.24"/>
	<path class="st3" d="M12.69,1142.21c50.55-50.59,254.77-254.56,305.22-305.22"/>
	<path class="st3" d="M34.58,1142.21c52.11-51.98,257.6-257.71,309.63-309.63"/>
	<path class="st3" d="M56.47,1142.21c62.63-62.44,278.58-278.65,341.15-341.15"/>
	<path class="st3" d="M78.36,1142.21c54.74-54.63,262.88-263.01,317.66-317.66"/>
	<path class="st3" d="M100.25,1142.21c48.74-48.57,250.95-251.03,299.67-299.67"/>
	<path class="st3" d="M122.13,1142.21C184.3,1080.14,400,864.45,462.1,802.24"/>
	<path class="st3" d="M144.02,1142.21c56.8-56.77,267.07-267.17,323.94-323.94"/>
	<path class="st3" d="M165.91,1142.21c53.19-52.99,259.81-259.98,312.98-312.98"/>
	<path class="st3" d="M187.8,1142.21c50.85-50.84,255.2-255.32,306.05-306.05"/>
	<path class="st3" d="M209.68,1142.21c50.65-50.59,254.75-254.94,305.52-305.52"/>
	<path class="st3" d="M231.57,1142.21c54.24-54.25,262.12-262.13,316.37-316.37"/>
	<path class="st3" d="M253.08,1142.21c48.74-48.7,251.08-251.03,299.71-299.7"/>
</g>
<g>
	<path d="M271.78,795.21c0,27.79,22.61,50.41,50.41,50.41s50.41-22.61,50.41-50.41l0,0V744.8H360v50.41l0,0
		c0,20.85-16.96,37.8-37.8,37.8c-20.85,0-37.8-16.96-37.8-37.8l0,0V744.8h-12.6v50.41H271.78z"/>
	<path id="A_12_" d="M510.1,744.8c-27.79,0-50.41,22.61-50.41,50.41c0,27.79,22.61,50.41,50.41,50.41c15.04,0,28.56-6.63,37.8-17.12
		v17.12h12.6v-50.41C560.51,767.41,537.89,744.8,510.1,744.8z M510.1,833.01c-20.85,0-37.8-16.96-37.8-37.8
		c0-20.85,16.96-37.8,37.8-37.8s37.8,16.96,37.8,37.8S530.94,833.01,510.1,833.01z"/>
	<path id="A_11_" d="M204.21,744.8c-27.79,0-50.41,22.61-50.41,50.41c0,27.79,22.61,50.41,50.41,50.41
		c15.04,0,28.56-6.63,37.8-17.12v17.12h12.6v-50.41C254.61,767.41,232,744.8,204.21,744.8z M204.21,833.01
		c-20.85,0-37.8-16.96-37.8-37.8c0-20.85,16.96-37.8,37.8-37.8s37.8,16.96,37.8,37.8C242.01,816.05,225.05,833.01,204.21,833.01z"/>
	<path d="M455.58,746.87c-4.55-1.38-9.37-2.07-14.32-2.07c-27.82,0-50.41,22.59-50.41,50.41l0,0v50.41h12.67v-50.41l0,0
		c0-20.8,16.94-37.88,37.88-37.88c3.72,0,7.16,0.55,10.61,1.52L455.58,746.87z"/>
</g>
</svg>
