<?xml version="1.0" encoding="utf-8"?>
<!-- Generator: Adobe Illustrator 24.2.3, SVG Export Plug-In . SVG Version: 6.00 Build 0)  -->
<svg version="1.1" xmlns="http://www.w3.org/2000/svg" xmlns:xlink="http://www.w3.org/1999/xlink" x="0px" y="0px"
	 viewBox="0 0 741 1206" style="enable-background:new 0 0 741 1206;" xml:space="preserve">
<style type="text/css">
	.st0{fill:#FFFFFF;}
</style>
<g id="Layer_2">
	<rect x="0" y="603" width="741" height="603"/>
</g>
<g id="Layer_1">
	<g>
		<g>
			
				<rect x="600.24" y="383.24" transform="matrix(-4.597141e-11 1 -1 -4.597141e-11 1000.6807 -204.0271)" width="4.23" height="30.17"/>
			<g>
				<path d="M585.75,400.44c-0.35-1.35-0.54-2.77-0.54-4.23c0-8.08,5.68-14.84,13.26-16.53c0.38,0.79,1.06,1.42,2.03,1.67
					c0.47,0.47,1.1,0.81,1.89,0.9c-0.25,0.38-0.44,0.8-0.53,1.26c-6.88,0.15-12.43,5.78-12.43,12.7c0,1.48,0.26,2.91,0.73,4.23
					L585.75,400.44z"/>
				<path d="M618.55,400.44l-4.42,0c0.78-1.64,0.73-2.3,0.73-4.23h4.23C619.09,397.67,618.9,399.09,618.55,400.44"/>
				<path d="M585.75,366.57l4.42,0c-0.78,1.64-0.73,2.3-0.73,4.23h-4.23C585.21,369.34,585.4,367.92,585.75,366.57"/>
			</g>
			
				<rect x="599.9" y="373.06" transform="matrix(-4.511165e-11 1 -1 -4.511165e-11 983.402 -220.6224)" width="4.23" height="16.66"/>
			<g>
				<path d="M619.09,366.57c0,9.34-7.6,16.94-16.94,16.94c-1.33,0-2.63-0.16-3.88-0.45c0.32-0.07,0.6-0.19,0.85-0.34
					c0.03,0,0.06,0,0.09,0c1.59,0,2.61-0.88,3.06-2.01c0.54-0.37,0.92-0.9,1.15-1.49c6.41-0.64,11.44-6.06,11.44-12.64H619.09z"/>
			</g>
			
				<rect x="599.66" y="353.52" transform="matrix(-4.511165e-11 1 -1 -4.511165e-11 970.4677 -233.0936)" width="4.23" height="30.34"/>
		</g>
		<path d="M266.75,383.49c0,9.34,7.6,16.94,16.94,16.94c9.34,0,16.94-7.6,16.94-16.94l0,0v-16.94h-4.23v16.94l0,0
			c0,7-5.7,12.7-12.7,12.7c-7,0-12.7-5.7-12.7-12.7l0,0v-16.94h-4.23V383.49L266.75,383.49z"/>
		<path d="M193.47,390.69L193.47,390.69l-17.7-17.7c2.08-1.48,4.61-2.36,7.35-2.36c3.5,0,6.68,1.43,8.98,3.73l2.99-2.99
			c-3.07-3.07-7.3-4.97-11.97-4.97c-5.45,0-10.3,2.59-13.4,6.59l3.05,2.99v0l17.7,17.7c-2.08,1.48-4.61,2.36-7.35,2.36
			c-7,0-12.7-5.7-12.7-12.7h-4.23c0,9.34,7.6,16.94,16.94,16.94c5.45,0,10.3-2.59,13.4-6.59L193.47,390.69z"/>
		<path d="M232.09,358.08L232.09,358.08l0-8.47h-4.23v8.47h-12.7c-0.01,1.37-0.01,2.73-0.02,4.1c4.24,0.03,8.48,0.07,12.72,0.1
			v38.14h4.23v-38.11c0,0,0,0,0,0c5.72,0,10.57,3.81,12.16,9.02l3.27-3.27C244.86,362.19,238.95,358.08,232.09,358.08z"/>
		<path d="M430.62,366.56v16.91c0,0,0,0,0,0c0,0.01,0,0.02,0,0.03c0,7-5.7,12.7-12.7,12.7c-0.41,0-0.82-0.02-1.22-0.06
			c3.48-3.1,5.68-7.62,5.68-12.64c0-7.13-4.43-13.23-10.68-15.73c0,0-0.01,0-0.01,0c0,0,0,0-0.01,0c0,0,0,0,0,0
			c-0.08,0.03-0.16,0.07-0.24,0.11c-0.02,0.01-0.04,0.02-0.06,0.02c-0.01,0-0.01,0.01-0.02,0.01c-6.08,2.57-10.38,8.57-10.38,15.58
			c0,5.02,2.2,9.54,5.68,12.64c-0.4,0.04-0.81,0.06-1.22,0.06c-7,0-12.7-5.7-12.7-12.7v0c0-0.19,0.01-0.38,0.01-0.57
			c0,0-0.01,0-0.01,0v-16.37h-4.23v16.94c0,0,0,0,0,0c0,9.34,7.6,16.94,16.94,16.94c2.2,0,4.3-0.43,6.24-1.19
			c1.93,0.77,4.03,1.19,6.24,1.19c9.34,0,16.94-7.6,16.94-16.94v-16.94H430.62z M411.68,394.56c-3.86-2.18-6.47-6.32-6.47-11.06
			c0-4.74,2.62-8.86,6.48-11.04c3.85,2.19,6.45,6.31,6.45,11.04C418.15,388.24,415.54,392.38,411.68,394.56z"/>
		<g>
			<g>
				<path d="M495.51,396.19c-7,0-12.7-5.7-12.7-12.7c0-7,5.7-12.7,12.7-12.7v-4.23c-9.34,0-16.94,7.6-16.94,16.94
					c0,9.34,7.6,16.94,16.94,16.94V396.19z"/>
			</g>
			<g>
				<path d="M461.63,396.19c7,0,12.7-5.7,12.7-12.7c0-7-5.7-12.7-12.7-12.7v-4.23c9.34,0,16.94,7.6,16.94,16.94
					c0,9.34-7.6,16.94-16.94,16.94V396.19z"/>
			</g>
		</g>
		<path d="M554.33,368.35h-0.02v-0.01h-4.23v16.94c0,7-5.7,12.7-12.7,12.7c-7,0-12.7-5.7-12.7-12.7v-16.94h-4.23v16.94
			c0,9.34,7.6,16.94,16.94,16.94c5.01,0,9.51-2.19,12.62-5.65c0.05,0.47,0.09,0.94,0.09,1.42c0,7-5.7,12.7-12.7,12.7
			c-2.36,0-4.57-0.65-6.47-1.77l-3.06,3.06c2.72,1.86,6,2.94,9.53,2.94c9.34,0,16.94-7.6,16.94-16.94c0-0.01,0-0.02,0-0.02h0.02
			V368.35z"/>
		<path d="M356.96,366.56v16.94c0,3.32-3.52,6.58-6.48,8.73c-2.46,1.79-4.96,3.12-6.23,3.75c-4.07-2.01-12.69-7.32-12.69-12.48
			v-16.94h-4.23v16.94c0,4.11,2.79,8.21,8.29,12.19c3.84,2.78,7.63,4.49,7.79,4.56c0.28,0.12,0.57,0.19,0.87,0.19
			c0.29,0,0.59-0.06,0.87-0.19c0.16-0.07,3.95-1.78,7.79-4.56c5.5-3.98,8.29-8.08,8.29-12.19v-16.94H356.96z"/>
		<path d="M122.92,383.49v16.94h4.23v-5.75v-11.18c0-7,5.7-12.7,12.7-12.7v-4.23C130.51,366.55,122.92,374.15,122.92,383.49z"/>
	</g>
	<g>
		<path id="M-Alt_1_" d="M327.61,259.35c-2.2,0-4.3,0.43-6.24,1.19c-1.93-0.77-4.03-1.19-6.24-1.19c-9.34,0-16.94,7.6-16.94,16.94
			v16.94h4.23v-16.91c0,0,0,0,0,0c0-0.01,0-0.02,0-0.03c0-7,5.7-12.7,12.7-12.7c0.41,0,0.82,0.02,1.22,0.06
			c-3.48,3.1-5.68,7.62-5.68,12.64c0,7.13,4.43,13.23,10.68,15.73c0,0,0.01,0,0.01,0c0,0,0,0,0.01,0c0,0,0,0,0,0
			c0.08-0.03,0.16-0.07,0.24-0.11c0.02-0.01,0.04-0.02,0.06-0.02c0.01,0,0.01-0.01,0.02-0.01c6.08-2.57,10.38-8.57,10.38-15.58
			c0-5.02-2.2-9.54-5.68-12.64c0.4-0.04,0.81-0.06,1.22-0.06c7,0,12.7,5.7,12.7,12.7v0c0,0.19-0.01,0.38-0.01,0.57
			c0,0,0.01,0,0.01,0v16.37h4.23v-16.94c0,0,0,0,0,0C344.55,266.95,336.95,259.35,327.61,259.35z M327.84,276.29
			c0,4.74-2.62,8.86-6.48,11.04c-3.85-2.19-6.45-6.31-6.45-11.04c0-4.74,2.61-8.88,6.47-11.06
			C325.23,267.41,327.84,271.55,327.84,276.29z"/>
		<g>
			<path d="M454.27,293.23c-9.34,0-16.94-7.6-16.94-16.94c0-9.34,7.6-16.94,16.94-16.94s16.94,7.6,16.94,16.94
				C471.21,285.63,463.61,293.23,454.27,293.23z M454.27,263.59c-7,0-12.7,5.7-12.7,12.7c0,7,5.7,12.7,12.7,12.7s12.7-5.7,12.7-12.7
				C466.97,269.29,461.28,263.59,454.27,263.59z"/>
		</g>
		<g>
			<g>
				<path d="M513.56,292.81c-9.34,0-16.94-7.6-16.94-16.94c0-9.34,7.6-16.94,16.94-16.94s16.94,7.6,16.94,16.94
					C530.5,285.22,522.9,292.81,513.56,292.81z M513.56,263.17c-7,0-12.7,5.7-12.7,12.7c0,7,5.7,12.7,12.7,12.7
					c7,0,12.7-5.7,12.7-12.7C526.27,268.87,520.57,263.17,513.56,263.17z"/>
			</g>
			<rect x="496.63" y="275.35" width="4.23" height="34.4"/>
		</g>
		<path d="M589.39,275.26c0-0.01,0-0.01,0-0.02v-0.51h-0.01c-0.28-9.09-7.76-16.41-16.92-16.41c-9.34,0-16.94,7.6-16.94,16.94
			c0,9.34,7.6,16.94,16.94,16.94c5.05,0,9.6-2.23,12.7-5.75v22.69h4.23v-33.86C589.39,275.28,589.39,275.27,589.39,275.26z
			 M572.45,287.97c-7,0-12.7-5.7-12.7-12.7c0-7,5.7-12.7,12.7-12.7s12.7,5.7,12.7,12.7C585.15,282.27,579.45,287.97,572.45,287.97z"
			/>
		<path id="N_1_" d="M390.21,259.35c-9.34,0-16.94,7.6-16.94,16.94v16.94h4.23v-16.94c0-7,5.7-12.7,12.7-12.7s12.7,5.7,12.7,12.7
			v16.94h4.23v-16.94C407.15,266.95,399.55,259.35,390.21,259.35z"/>
		<g>
			<path id="J_1_" d="M152.62,309.69c3.06,2.99,7.24,4.83,11.84,4.83c9.34,0,16.94-7.6,16.94-16.94v-4.23v-29.64h-4.23v22.69v6.95
				v4.23c0,7-5.7,12.7-12.7,12.7c-3.43,0-6.56-1.37-8.84-3.59L152.62,309.69z"/>
			<g>
				<path d="M177.45,259.26c1.04-2.69,2.78-5.14,5.19-7.07l2.33,2.91c-1.32,1.05-2.49,2.77-3.27,4.16H177.45z"/>
			</g>
		</g>
		<rect id="L_2_" x="265.93" y="242.42" width="4.23" height="50.81"/>
		<path id="K_1_" d="M237.72,285.27c-2.29,2.26-5.44,3.66-8.91,3.66c-7,0-12.7-5.7-12.7-12.7c0-7,5.7-12.7,12.7-12.7v-4.23
			c-5.05,0-9.6,2.23-12.7,5.75v-22.62h-4.23v50.81h4.23v-5.82c3.11,3.52,7.65,5.75,12.7,5.75c4.64,0,8.84-1.87,11.9-4.9
			L237.72,285.27z"/>
	</g>
	<g>
		<g id="I_1_">
			<rect x="601.72" y="148.98" width="4.23" height="33.87"/>
			<g>
				<path d="M601.7,144.74c1.04-2.69,2.78-5.14,5.19-7.07l2.33,2.91c-1.32,1.05-2.49,2.77-3.27,4.15H601.7z"/>
			</g>
		</g>
		<g>
			<path id="H_1_" d="M571.21,165.91c0-9.34-7.6-16.94-16.94-16.94c-5.05,0-9.6,2.23-12.7,5.75v-22.16h-4.23v50.29h4.23v-16.94
				c0-7,5.7-12.7,12.7-12.7c7,0,12.7,5.7,12.7,12.7c0,0,0,0,0,0h0v16.94h4.23V165.91L571.21,165.91
				C571.2,165.92,571.21,165.91,571.21,165.91z"/>
		</g>
		<path id="G_1_" d="M511.79,166.49c0-3.08-0.83-5.97-2.28-8.47c1.45-2.49,2.28-5.39,2.28-8.47h-4.23c0,1.69-0.34,3.3-0.94,4.77
			c-3.05-2.95-7.2-4.77-11.77-4.77c-9.16,0-16.64,7.31-16.92,16.41h-0.01v34.4c0,9.34,7.6,16.94,16.94,16.94
			c9.34,0,16.94-7.6,16.94-16.94c0-9.34-7.6-16.94-16.94-16.94c-5.05,0-9.6,2.23-12.7,5.75v-11.5c3.11,3.52,7.65,5.75,12.7,5.75
			C504.19,183.43,511.79,175.83,511.79,166.49z M494.85,187.66c7,0,12.7,5.7,12.7,12.7c0,7-5.7,12.7-12.7,12.7
			c-7,0-12.7-5.7-12.7-12.7C482.15,193.36,487.85,187.66,494.85,187.66z M494.85,179.19c-7,0-12.7-5.7-12.7-12.7
			c0-7,5.7-12.7,12.7-12.7c7,0,12.7,5.7,12.7,12.7C507.56,173.5,501.86,179.19,494.85,179.19z"/>
		<path id="F_1_" d="M464.01,136.88c-3.06-2.99-7.24-4.83-11.84-4.83c-9.34,0-16.94,7.6-16.94,16.94v4.23v29.64h4.23v-22.69v-6.95
			h12.7v-4.23h-12.7c0-7,5.7-12.7,12.7-12.7c3.43,0,6.56,1.37,8.84,3.59L464.01,136.88z"/>
		<path id="E_1_" d="M400.34,174.96c-2.29,2.26-5.44,3.66-8.91,3.66c-5.52,0-10.23-3.54-11.97-8.47h23.95l0,0h4.43
			c0.35-1.35,0.54-2.77,0.54-4.23c0-9.34-7.6-16.94-16.94-16.94c-9.34,0-16.94,7.6-16.94,16.94c0,9.34,7.6,16.94,16.94,16.94
			c4.64,0,8.84-1.87,11.9-4.9L400.34,174.96z M391.43,153.21c7,0,12.7,5.7,12.7,12.7h-25.41
			C378.73,158.91,384.42,153.21,391.43,153.21z"/>
		<path id="D_1_" d="M341.17,132.04v22.69c-3.11-3.52-7.65-5.75-12.7-5.75c-9.34,0-16.94,7.6-16.94,16.94
			c0,9.34,7.6,16.94,16.94,16.94c9.34,0,16.94-7.6,16.94-16.94v-33.87H341.17z M328.47,178.62c-7,0-12.7-5.7-12.7-12.7
			c0-7,5.7-12.7,12.7-12.7c7,0,12.7,5.7,12.7,12.7C341.17,172.92,335.47,178.62,328.47,178.62z"/>
		<path id="C_1_" d="M284.62,153.8c-3.05-2.98-7.23-4.82-11.83-4.82c-9.34,0-16.94,7.6-16.94,16.94c0,9.34,7.6,16.94,16.94,16.94
			c4.64,0,8.84-1.87,11.9-4.9l-2.99-2.99c-2.29,2.26-5.44,3.66-8.91,3.66c-7,0-12.7-5.7-12.7-12.7c0-7,5.7-12.7,12.7-12.7
			c3.42,0,6.52,1.36,8.8,3.56L284.62,153.8z"/>
		<path id="B_1_" d="M211.49,148.98c-5.05,0-9.6,2.23-12.7,5.75v-22.69h-4.23v33.87c0,9.34,7.6,16.94,16.94,16.94
			c9.34,0,16.94-7.6,16.94-16.94C228.43,156.58,220.83,148.98,211.49,148.98z M211.49,178.62c-7,0-12.7-5.7-12.7-12.7
			c0-7,5.7-12.7,12.7-12.7c7,0,12.7,5.7,12.7,12.7C224.19,172.92,218.49,178.62,211.49,178.62z"/>
		<path id="A_1_" d="M149.72,148.98c-9.34,0-16.94,7.6-16.94,16.94c0,9.34,7.6,16.94,16.94,16.94c5.05,0,9.6-2.23,12.7-5.75v5.75
			h4.23v-16.94C166.66,156.58,159.06,148.98,149.72,148.98z M149.72,178.62c-7,0-12.7-5.7-12.7-12.7c0-7,5.7-12.7,12.7-12.7
			c7,0,12.7,5.7,12.7,12.7C162.42,172.92,156.72,178.62,149.72,178.62z"/>
	</g>
	<g>
		<g>
			<g>
				<path d="M119.15,469.23c-1.22,3.38-3.83,6.1-7.14,7.46l3.17,3.17c4.1-2.2,7.19-6.04,8.4-10.64L119.15,469.23z"/>
			</g>
			<rect x="119.36" y="469.23" width="4.23" height="33.87"/>
		</g>
		<g>
			<g>
				<path d="M150.71,503.08l3.22,0.02c2.31-3.17,6.05-5.23,10.26-5.23c2.8,0,5.4,0.91,7.5,2.46l5.01-1.15
					c-3.1-3.4-7.56-5.54-12.51-5.54c-5.43,0-10.28,2.57-13.38,6.56L150.71,503.08z"/>
			</g>
			<g>
				<path d="M184.67,498.34c-1.17,0.37-2.4,0.58-3.68,0.58c-2.72,0-5.25-0.91-7.31-2.38l-4.32,1.92c3.04,2.87,7.13,4.64,11.63,4.64
					c1.27,0,2.5-0.14,3.69-0.41L184.67,498.34z"/>
			</g>
			<g>
				<path d="M181.13,475.76c-3.1-3.99-7.94-6.56-13.37-6.56c-4.67,0-8.9,1.9-11.97,4.97l2.99,2.99c2.3-2.3,5.47-3.73,8.98-3.73
					c4.26,0,8.04,2.11,10.35,5.35L181.13,475.76z"/>
			</g>
			<polygon points="151.66,499.25 178.14,472.77 181.13,475.77 153.8,503.09 150.71,503.08 			"/>
		</g>
		<g>
			
				<rect id="L_10_" x="501.75" y="456" transform="matrix(-1.836970e-16 1 -1 -1.836970e-16 975.1724 -32.5669)" width="4.23" height="30.61"/>
			
				<rect id="L_9_" x="501.78" y="485.28" transform="matrix(-1.836970e-16 1 -1 -1.836970e-16 1004.8352 -2.9506)" width="4.23" height="31.33"/>
			<path d="M515.85,469.19c0.47,1.33,0.73,2.75,0.73,4.23c0,7-5.7,12.7-12.7,12.7c-7,0-12.7-5.7-12.7-12.7
				c0-1.48,0.26-2.91,0.73-4.23l-4.42,0c-0.35,1.35-0.54,2.77-0.54,4.23c0,9.34,7.6,16.94,16.94,16.94c9.34,0,16.94-7.6,16.94-16.94
				c0-1.46-0.19-2.88-0.54-4.23L515.85,469.19z"/>
			<path d="M519.55,503.1c0.81-1.97,1.26-4.13,1.26-6.4c0-9.34-7.6-16.94-16.94-16.94c-9.34,0-16.94,7.6-16.94,16.94
				c0,2.25,0.44,4.4,1.25,6.37l4.69-0.02c-1.08-1.87-1.71-4.04-1.71-6.35c0-7,5.7-12.7,12.7-12.7c7,0,12.7,5.7,12.7,12.7
				c0,2.31-0.62,4.48-1.71,6.35L519.55,503.1z"/>
		</g>
		<g>
			<path d="M613.06,469.23c-9.34,0-16.94,7.6-16.94,16.94c0,9.34,7.6,16.94,16.94,16.94s16.94-7.6,16.94-16.94
				C630,476.83,622.4,469.23,613.06,469.23z M613.06,498.87c-7,0-12.7-5.7-12.7-12.7s5.7-12.7,12.7-12.7c7,0,12.7,5.7,12.7,12.7
				S620.07,498.87,613.06,498.87z"/>
			<rect x="610.89" y="469.29" transform="matrix(0.7071 -0.7071 0.7071 0.7071 -164.2705 575.8713)" width="4.23" height="33.87"/>
		</g>
		<g>
			<path d="M424.86,503.1c-0.35-1.35-0.54-2.77-0.54-4.23c0-8.08,5.68-14.84,13.26-16.53c0.38,0.79,1.06,1.42,2.03,1.67
				c0.47,0.47,1.1,0.81,1.89,0.9c-0.25,0.38-0.44,0.8-0.53,1.26c-6.88,0.15-12.43,5.78-12.43,12.7c0,1.48,0.26,2.91,0.73,4.23
				L424.86,503.1z"/>
			<rect x="439" y="475.72" transform="matrix(-4.597141e-11 1 -1 -4.597141e-11 925.1665 42.9346)" width="4.23" height="16.66"/>
			<g>
				<path d="M458.19,469.23c0,9.34-7.6,16.94-16.94,16.94c-1.33,0-2.63-0.16-3.88-0.45c0.32-0.07,0.6-0.19,0.85-0.34
					c0.03,0,0.06,0,0.09,0c1.59,0,2.61-0.88,3.06-2.01c0.54-0.37,0.92-0.9,1.15-1.49c6.41-0.64,11.44-6.06,11.44-12.64H458.19z"/>
			</g>
			<polygon points="455.21,469.23 455.21,473.46 428.55,473.46 424.32,469.23 			"/>
		</g>
		<g>
			<path d="M311.86,499.98c2.77,1.97,6.14,3.12,9.79,3.12c9.34,0,16.94-7.6,16.94-16.94c0-0.72-0.05-1.42-0.13-2.12l-4.28,0
				c0.12,0.69,0.18,1.4,0.18,2.12c0,7-5.7,12.7-12.7,12.7c-2.47,0-4.78-0.71-6.74-1.94L311.86,499.98z"/>
			
				<rect x="325.73" y="475.53" transform="matrix(6.123234e-17 -1 1 6.123234e-17 -158.3238 814.0113)" width="4.23" height="21.27"/>
			
				<rect x="317.21" y="469.23" transform="matrix(-1 -1.224647e-16 1.224647e-16 -1 638.6537 957.5152)" width="4.23" height="19.05"/>
			
				<rect x="321.53" y="464.91" transform="matrix(6.123234e-17 -1 1 6.123234e-17 -147.7034 794.9919)" width="4.23" height="12.87"/>
		</g>
		<g>
			<path d="M564.59,469.23c-9.34,0-16.94,7.6-16.94,16.94h4.23c0-7,5.7-12.7,12.7-12.7V469.23z"/>
			<rect x="564.59" y="469.23" width="4.23" height="33.87"/>
			
				<rect x="554.95" y="478.87" transform="matrix(6.123234e-17 -1 1 6.123234e-17 68.7806 1045.3499)" width="4.23" height="18.83"/>
		</g>
		<g>
			<polygon points="399.03,484.2 399.03,486.17 398.37,488.43 376.82,488.43 380.92,484.2 			"/>
			<path d="M394.06,474.2c-3.07-3.07-7.3-4.97-11.97-4.97c-9.34,0-16.94,7.6-16.94,16.94c0,9.34,7.6,16.94,16.94,16.94
				c9.34,0,16.94-7.6,16.94-16.94c0-0.36-0.02-0.72-0.04-1.08c-1.28,0.64-2.76,0.92-4.2,0.98c0,0.04,0,0.07,0,0.1
				c0,7-5.7,12.7-12.7,12.7c-7,0-12.7-5.7-12.7-12.7s5.7-12.7,12.7-12.7c3.49,0,6.65,1.41,8.95,3.7L394.06,474.2z"/>
			<rect x="375.41" y="484.29" transform="matrix(0.7071 0.7071 -0.7071 0.7071 457.5731 -123.2243)" width="4.23" height="12.87"/>
		</g>
		<g>
			<rect x="278.32" y="469.23" width="4.23" height="33.87"/>
			<rect x="273.98" y="479.81" transform="matrix(6.123234e-17 -1 1 6.123234e-17 -216.4222 768.609)" width="4.23" height="25.4"/>
			<path d="M272.06,478.09c0,5.59-3.64,10.35-8.67,12.04l-0.04,4.42c6.24-1.51,11.14-6.49,12.54-12.78L272.06,478.09z"/>
		</g>
		<path d="M226.53,484.23l5.62-5.62v0l3.02-3.02c-0.87-1.11-1.87-2.11-2.99-2.98l-0.01-0.01l0,0c-2.87-2.23-6.47-3.57-10.37-3.57
			c-4.67,0-8.9,1.9-11.97,4.97l2.99,2.99c2.3-2.3,5.47-3.73,8.98-3.73c2.74,0,5.28,0.88,7.35,2.36l-7.36,7.36l0,3.09l0.01,1.16
			c0.03,0,0.05,0,0.08,0c0.5,0,0.96,0.07,1.38,0.19c3.51,1.34,6.28,4.18,7.5,7.73c-2.3,2.3-5.47,3.73-8.98,3.73
			c-3.5,0-6.68-1.43-8.98-3.73l-2.99,2.99c3.07,3.07,7.3,4.97,11.97,4.97c5.43,0,10.57-2.7,13.67-6.69
			C234.53,491.15,231.14,486.63,226.53,484.23z"/>
	</g>
	<g>
		<g>
			
				<rect x="600.24" y="945.09" transform="matrix(-4.597141e-11 1 -1 -4.597141e-11 1562.5327 357.825)" class="st0" width="4.23" height="30.17"/>
			<g>
				<path class="st0" d="M585.75,962.3c-0.35-1.35-0.54-2.77-0.54-4.23c0-8.08,5.68-14.84,13.26-16.53
					c0.38,0.79,1.06,1.42,2.03,1.67c0.47,0.47,1.1,0.81,1.89,0.9c-0.25,0.38-0.44,0.8-0.53,1.26c-6.88,0.15-12.43,5.78-12.43,12.7
					c0,1.48,0.26,2.91,0.73,4.23H585.75z"/>
				<path class="st0" d="M618.55,962.3l-4.42,0c0.78-1.64,0.73-2.3,0.73-4.23h4.23C619.09,959.52,618.9,960.94,618.55,962.3"/>
				<path class="st0" d="M585.75,928.42l4.42,0c-0.78,1.64-0.73,2.3-0.73,4.23h-4.23C585.21,931.19,585.4,929.78,585.75,928.42"/>
			</g>
			
				<rect x="599.9" y="934.91" transform="matrix(-4.511165e-11 1 -1 -4.511165e-11 1545.2542 341.2297)" class="st0" width="4.23" height="16.66"/>
			<g>
				<path class="st0" d="M619.09,928.42c0,9.34-7.6,16.94-16.94,16.94c-1.33,0-2.63-0.16-3.88-0.45c0.32-0.07,0.6-0.19,0.85-0.34
					c0.03,0,0.06,0,0.09,0c1.59,0,2.61-0.88,3.06-2.01c0.54-0.37,0.92-0.9,1.15-1.49c6.41-0.64,11.44-6.06,11.44-12.64H619.09z"/>
			</g>
			
				<rect x="599.66" y="915.37" transform="matrix(-4.511165e-11 1 -1 -4.511165e-11 1532.3197 328.7585)" class="st0" width="4.23" height="30.34"/>
		</g>
		<path class="st0" d="M266.75,945.34c0,9.34,7.6,16.94,16.94,16.94c9.34,0,16.94-7.6,16.94-16.94l0,0V928.4h-4.23v16.94l0,0
			c0,7-5.7,12.7-12.7,12.7c-7,0-12.7-5.7-12.7-12.7l0,0V928.4h-4.23V945.34L266.75,945.34z"/>
		<path class="st0" d="M193.47,952.54L193.47,952.54l-17.7-17.7c2.08-1.48,4.61-2.36,7.35-2.36c3.5,0,6.68,1.43,8.98,3.73l2.99-2.99
			c-3.07-3.07-7.3-4.97-11.97-4.97c-5.45,0-10.3,2.59-13.4,6.59l3.05,2.99l0,0l17.7,17.7c-2.08,1.48-4.61,2.36-7.35,2.36
			c-7,0-12.7-5.7-12.7-12.7h-4.23c0,9.34,7.6,16.94,16.94,16.94c5.45,0,10.3-2.59,13.4-6.59L193.47,952.54z"/>
		<path class="st0" d="M232.09,919.94L232.09,919.94l0-8.47h-4.23v8.47h-12.7c-0.01,1.37-0.01,2.73-0.02,4.1
			c4.24,0.03,8.48,0.07,12.72,0.1v38.14h4.23v-38.11c0,0,0,0,0,0c5.72,0,10.57,3.81,12.16,9.02l3.27-3.27
			C244.86,924.04,238.95,919.94,232.09,919.94z"/>
		<path class="st0" d="M430.62,928.41v16.91c0,0,0,0,0,0c0,0.01,0,0.02,0,0.03c0,7-5.7,12.7-12.7,12.7c-0.41,0-0.82-0.02-1.22-0.06
			c3.48-3.1,5.68-7.62,5.68-12.64c0-7.13-4.43-13.23-10.68-15.73c0,0-0.01,0-0.01,0c0,0,0,0-0.01,0c0,0,0,0,0,0
			c-0.08,0.03-0.16,0.07-0.24,0.11c-0.02,0.01-0.04,0.02-0.06,0.02c-0.01,0-0.01,0.01-0.02,0.01c-6.08,2.57-10.38,8.57-10.38,15.58
			c0,5.02,2.2,9.54,5.68,12.64c-0.4,0.04-0.81,0.06-1.22,0.06c-7,0-12.7-5.7-12.7-12.7v0c0-0.19,0.01-0.38,0.01-0.57
			c0,0-0.01,0-0.01,0v-16.37h-4.23v16.94c0,0,0,0,0,0c0,9.34,7.6,16.94,16.94,16.94c2.2,0,4.3-0.43,6.24-1.19
			c1.93,0.77,4.03,1.19,6.24,1.19c9.34,0,16.94-7.6,16.94-16.94v-16.94H430.62z M411.68,956.41c-3.86-2.18-6.47-6.32-6.47-11.06
			c0-4.74,2.62-8.86,6.48-11.04c3.85,2.19,6.45,6.31,6.45,11.04C418.15,950.09,415.54,954.23,411.68,956.41z"/>
		<g>
			<g>
				<path class="st0" d="M495.51,958.04c-7,0-12.7-5.7-12.7-12.7c0-7,5.7-12.7,12.7-12.7v-4.23c-9.34,0-16.94,7.6-16.94,16.94
					s7.6,16.94,16.94,16.94V958.04z"/>
			</g>
			<g>
				<path class="st0" d="M461.63,958.04c7,0,12.7-5.7,12.7-12.7c0-7-5.7-12.7-12.7-12.7v-4.23c9.34,0,16.94,7.6,16.94,16.94
					s-7.6,16.94-16.94,16.94V958.04z"/>
			</g>
		</g>
		<path class="st0" d="M554.33,930.2h-0.02v-0.01h-4.23v16.94c0,7-5.7,12.7-12.7,12.7c-7,0-12.7-5.7-12.7-12.7v-16.94h-4.23v16.94
			c0,9.34,7.6,16.94,16.94,16.94c5.01,0,9.51-2.19,12.62-5.65c0.05,0.47,0.09,0.94,0.09,1.42c0,7-5.7,12.7-12.7,12.7
			c-2.36,0-4.57-0.65-6.47-1.77l-3.06,3.06c2.72,1.86,6,2.94,9.53,2.94c9.34,0,16.94-7.6,16.94-16.94c0-0.01,0-0.02,0-0.02h0.02
			V930.2z"/>
		<path class="st0" d="M356.96,928.41v16.94c0,3.32-3.52,6.58-6.48,8.73c-2.46,1.79-4.96,3.12-6.23,3.75
			c-4.07-2.01-12.69-7.32-12.69-12.48v-16.94h-4.23v16.94c0,4.11,2.79,8.21,8.29,12.19c3.84,2.78,7.63,4.49,7.79,4.56
			c0.28,0.12,0.57,0.19,0.87,0.19c0.29,0,0.59-0.06,0.87-0.19c0.16-0.07,3.95-1.78,7.79-4.56c5.5-3.98,8.29-8.08,8.29-12.19v-16.94
			H356.96z"/>
		<path class="st0" d="M122.92,945.34v16.94h4.23v-5.75v-11.18c0-7,5.7-12.7,12.7-12.7v-4.23C130.51,928.4,122.92,936,122.92,945.34
			z"/>
	</g>
	<g>
		<path id="M-Alt_2_" class="st0" d="M327.61,821.21c-2.2,0-4.3,0.43-6.24,1.19c-1.93-0.77-4.03-1.19-6.24-1.19
			c-9.34,0-16.94,7.6-16.94,16.94v16.94h4.23v-16.91c0,0,0,0,0,0c0-0.01,0-0.02,0-0.03c0-7,5.7-12.7,12.7-12.7
			c0.41,0,0.82,0.02,1.22,0.06c-3.48,3.1-5.68,7.62-5.68,12.64c0,7.13,4.43,13.23,10.68,15.73c0,0,0.01,0,0.01,0c0,0,0,0,0.01,0
			c0,0,0,0,0,0c0.08-0.03,0.16-0.07,0.24-0.11c0.02-0.01,0.04-0.02,0.06-0.02c0.01,0,0.01-0.01,0.02-0.01
			c6.08-2.57,10.38-8.57,10.38-15.58c0-5.02-2.2-9.54-5.68-12.64c0.4-0.04,0.81-0.06,1.22-0.06c7,0,12.7,5.7,12.7,12.7v0
			c0,0.19-0.01,0.38-0.01,0.57c0,0,0.01,0,0.01,0v16.37h4.23v-16.94c0,0,0,0,0,0C344.55,828.8,336.95,821.21,327.61,821.21z
			 M327.84,838.14c0,4.74-2.62,8.86-6.48,11.04c-3.85-2.19-6.45-6.31-6.45-11.04c0-4.74,2.61-8.88,6.47-11.06
			C325.23,829.27,327.84,833.4,327.84,838.14z"/>
		<g>
			<path class="st0" d="M454.27,855.08c-9.34,0-16.94-7.6-16.94-16.94s7.6-16.94,16.94-16.94s16.94,7.6,16.94,16.94
				S463.61,855.08,454.27,855.08z M454.27,825.44c-7,0-12.7,5.7-12.7,12.7s5.7,12.7,12.7,12.7s12.7-5.7,12.7-12.7
				S461.28,825.44,454.27,825.44z"/>
		</g>
		<g>
			<g>
				<path class="st0" d="M513.56,854.67c-9.34,0-16.94-7.6-16.94-16.94c0-9.34,7.6-16.94,16.94-16.94s16.94,7.6,16.94,16.94
					C530.5,847.07,522.9,854.67,513.56,854.67z M513.56,825.03c-7,0-12.7,5.7-12.7,12.7c0,7,5.7,12.7,12.7,12.7
					c7,0,12.7-5.7,12.7-12.7C526.27,830.73,520.57,825.03,513.56,825.03z"/>
			</g>
			<rect x="496.63" y="837.2" class="st0" width="4.23" height="34.4"/>
		</g>
		<path class="st0" d="M589.39,837.12c0-0.01,0-0.01,0-0.02v-0.51h-0.01c-0.28-9.09-7.76-16.41-16.92-16.41
			c-9.34,0-16.94,7.6-16.94,16.94s7.6,16.94,16.94,16.94c5.05,0,9.6-2.23,12.7-5.75v22.69h4.23v-33.86
			C589.39,837.13,589.39,837.12,589.39,837.12z M572.45,849.82c-7,0-12.7-5.7-12.7-12.7c0-7,5.7-12.7,12.7-12.7s12.7,5.7,12.7,12.7
			C585.15,844.12,579.45,849.82,572.45,849.82z"/>
		<path id="N_2_" class="st0" d="M390.21,821.21c-9.34,0-16.94,7.6-16.94,16.94v16.94h4.23v-16.94c0-7,5.7-12.7,12.7-12.7
			s12.7,5.7,12.7,12.7v16.94h4.23v-16.94C407.15,828.8,399.55,821.21,390.21,821.21z"/>
		<g>
			<path id="J_2_" class="st0" d="M152.62,871.54c3.06,2.99,7.24,4.83,11.84,4.83c9.34,0,16.94-7.6,16.94-16.94v-4.23v-29.64h-4.23
				v22.69v6.95v4.23c0,7-5.7,12.7-12.7,12.7c-3.43,0-6.56-1.37-8.84-3.59L152.62,871.54z"/>
			<g>
				<path class="st0" d="M177.45,821.11c1.04-2.69,2.78-5.14,5.19-7.07l2.33,2.91c-1.32,1.05-2.49,2.77-3.27,4.15H177.45z"/>
			</g>
		</g>
		<rect id="L_4_" x="265.93" y="804.27" class="st0" width="4.23" height="50.81"/>
		<path id="K_2_" class="st0" d="M237.72,847.12c-2.29,2.26-5.44,3.66-8.91,3.66c-7,0-12.7-5.7-12.7-12.7c0-7,5.7-12.7,12.7-12.7
			v-4.23c-5.05,0-9.6,2.23-12.7,5.75v-22.62h-4.23v50.81h4.23v-5.82c3.11,3.52,7.65,5.75,12.7,5.75c4.64,0,8.84-1.87,11.9-4.9
			L237.72,847.12z"/>
	</g>
	<g>
		<g id="I_2_">
			<rect x="601.72" y="710.83" class="st0" width="4.23" height="33.87"/>
			<g>
				<path class="st0" d="M601.7,706.6c1.04-2.69,2.78-5.14,5.19-7.07l2.33,2.91c-1.32,1.05-2.49,2.77-3.27,4.15H601.7z"/>
			</g>
		</g>
		<g>
			<path id="H_2_" class="st0" d="M571.21,727.77c0-9.34-7.6-16.94-16.94-16.94c-5.05,0-9.6,2.23-12.7,5.75v-22.16h-4.23v50.29h4.23
				v-16.94c0-7,5.7-12.7,12.7-12.7c7,0,12.7,5.7,12.7,12.7c0,0,0,0,0,0h0v16.94h4.23V727.77L571.21,727.77
				C571.2,727.77,571.21,727.77,571.21,727.77z"/>
		</g>
		<path id="G_2_" class="st0" d="M511.79,728.34c0-3.08-0.83-5.97-2.28-8.47c1.45-2.49,2.28-5.39,2.28-8.47h-4.23
			c0,1.69-0.34,3.3-0.94,4.77c-3.05-2.95-7.2-4.77-11.77-4.77c-9.16,0-16.64,7.31-16.92,16.41h-0.01v34.4
			c0,9.34,7.6,16.94,16.94,16.94c9.34,0,16.94-7.6,16.94-16.94c0-9.34-7.6-16.94-16.94-16.94c-5.05,0-9.6,2.23-12.7,5.75v-11.5
			c3.11,3.52,7.65,5.75,12.7,5.75C504.19,745.28,511.79,737.68,511.79,728.34z M494.85,749.52c7,0,12.7,5.7,12.7,12.7
			c0,7-5.7,12.7-12.7,12.7c-7,0-12.7-5.7-12.7-12.7C482.15,755.21,487.85,749.52,494.85,749.52z M494.85,741.05
			c-7,0-12.7-5.7-12.7-12.7s5.7-12.7,12.7-12.7c7,0,12.7,5.7,12.7,12.7S501.86,741.05,494.85,741.05z"/>
		<path id="F_2_" class="st0" d="M464.01,698.73c-3.06-2.99-7.24-4.83-11.84-4.83c-9.34,0-16.94,7.6-16.94,16.94v4.23v29.64h4.23
			v-22.69v-6.95h12.7v-4.23h-12.7c0-7,5.7-12.7,12.7-12.7c3.43,0,6.56,1.37,8.84,3.59L464.01,698.73z"/>
		<path id="E_2_" class="st0" d="M400.34,736.81c-2.29,2.26-5.44,3.66-8.91,3.66c-5.52,0-10.23-3.54-11.97-8.47h23.95l0,0h4.43
			c0.35-1.35,0.54-2.77,0.54-4.23c0-9.34-7.6-16.94-16.94-16.94c-9.34,0-16.94,7.6-16.94,16.94s7.6,16.94,16.94,16.94
			c4.64,0,8.84-1.87,11.9-4.9L400.34,736.81z M391.43,715.07c7,0,12.7,5.7,12.7,12.7h-25.41
			C378.73,720.77,384.42,715.07,391.43,715.07z"/>
		<path id="D_2_" class="st0" d="M341.17,693.9v22.69c-3.11-3.52-7.65-5.75-12.7-5.75c-9.34,0-16.94,7.6-16.94,16.94
			s7.6,16.94,16.94,16.94c9.34,0,16.94-7.6,16.94-16.94V693.9H341.17z M328.47,740.47c-7,0-12.7-5.7-12.7-12.7
			c0-7,5.7-12.7,12.7-12.7c7,0,12.7,5.7,12.7,12.7C341.17,734.77,335.47,740.47,328.47,740.47z"/>
		<path id="C_2_" class="st0" d="M284.62,715.66c-3.05-2.98-7.23-4.82-11.83-4.82c-9.34,0-16.94,7.6-16.94,16.94
			c0,9.34,7.6,16.94,16.94,16.94c4.64,0,8.84-1.87,11.9-4.9l-2.99-2.99c-2.29,2.26-5.44,3.66-8.91,3.66c-7,0-12.7-5.7-12.7-12.7
			c0-7,5.7-12.7,12.7-12.7c3.42,0,6.52,1.36,8.8,3.56L284.62,715.66z"/>
		<path id="B_2_" class="st0" d="M211.49,710.83c-5.05,0-9.6,2.23-12.7,5.75V693.9h-4.23v33.87c0,9.34,7.6,16.94,16.94,16.94
			c9.34,0,16.94-7.6,16.94-16.94S220.83,710.83,211.49,710.83z M211.49,740.47c-7,0-12.7-5.7-12.7-12.7c0-7,5.7-12.7,12.7-12.7
			c7,0,12.7,5.7,12.7,12.7C224.19,734.77,218.49,740.47,211.49,740.47z"/>
		<path id="A_2_" class="st0" d="M149.72,710.83c-9.34,0-16.94,7.6-16.94,16.94c0,9.34,7.6,16.94,16.94,16.94
			c5.05,0,9.6-2.23,12.7-5.75v5.75h4.23v-16.94C166.66,718.43,159.06,710.83,149.72,710.83z M149.72,740.47c-7,0-12.7-5.7-12.7-12.7
			c0-7,5.7-12.7,12.7-12.7c7,0,12.7,5.7,12.7,12.7C162.42,734.77,156.72,740.47,149.72,740.47z"/>
	</g>
	<g>
		<g>
			<g>
				<path class="st0" d="M119.15,1031.08c-1.22,3.38-3.83,6.1-7.14,7.46l3.17,3.17c4.1-2.2,7.19-6.04,8.4-10.64L119.15,1031.08z"/>
			</g>
			<rect x="119.36" y="1031.08" class="st0" width="4.23" height="33.87"/>
		</g>
		<g>
			<g>
				<path class="st0" d="M150.71,1064.93l3.22,0.02c2.31-3.17,6.05-5.23,10.26-5.23c2.8,0,5.4,0.91,7.5,2.46l5.01-1.15
					c-3.1-3.4-7.56-5.54-12.51-5.54c-5.43,0-10.28,2.57-13.38,6.56L150.71,1064.93z"/>
			</g>
			<g>
				<path class="st0" d="M184.67,1060.19c-1.17,0.37-2.4,0.58-3.68,0.58c-2.72,0-5.25-0.91-7.31-2.38l-4.32,1.92
					c3.04,2.87,7.13,4.64,11.63,4.64c1.27,0,2.5-0.14,3.69-0.41L184.67,1060.19z"/>
			</g>
			<g>
				<path class="st0" d="M181.13,1037.62c-3.1-3.99-7.94-6.56-13.37-6.56c-4.67,0-8.9,1.9-11.97,4.97l2.99,2.99
					c2.3-2.3,5.47-3.73,8.98-3.73c4.26,0,8.04,2.11,10.35,5.35L181.13,1037.62z"/>
			</g>
			<polygon class="st0" points="151.66,1061.1 178.14,1034.62 181.13,1037.62 153.8,1064.94 150.71,1064.94 			"/>
		</g>
		<g>
			
				<rect id="L_3_" x="501.75" y="1017.85" transform="matrix(-1.836970e-16 1 -1 -1.836970e-16 1537.0245 529.2852)" class="st0" width="4.23" height="30.61"/>
			
				<rect id="L_1_" x="501.78" y="1047.13" transform="matrix(-1.836970e-16 1 -1 -1.836970e-16 1566.6874 558.9015)" class="st0" width="4.23" height="31.33"/>
			<path class="st0" d="M515.85,1031.04c0.47,1.32,0.73,2.75,0.73,4.23c0,7-5.7,12.7-12.7,12.7c-7,0-12.7-5.7-12.7-12.7
				c0-1.48,0.26-2.91,0.73-4.23l-4.42,0c-0.35,1.35-0.54,2.77-0.54,4.23c0,9.34,7.6,16.94,16.94,16.94c9.34,0,16.94-7.6,16.94-16.94
				c0-1.46-0.19-2.88-0.54-4.23L515.85,1031.04z"/>
			<path class="st0" d="M519.55,1064.96c0.81-1.97,1.26-4.13,1.26-6.4c0-9.34-7.6-16.94-16.94-16.94c-9.34,0-16.94,7.6-16.94,16.94
				c0,2.25,0.44,4.4,1.25,6.37l4.69-0.02c-1.08-1.87-1.71-4.04-1.71-6.35c0-7,5.7-12.7,12.7-12.7c7,0,12.7,5.7,12.7,12.7
				c0,2.31-0.62,4.48-1.71,6.35L519.55,1064.96z"/>
		</g>
		<g>
			<path class="st0" d="M613.06,1031.08c-9.34,0-16.94,7.6-16.94,16.94c0,9.34,7.6,16.94,16.94,16.94s16.94-7.6,16.94-16.94
				C630,1038.68,622.4,1031.08,613.06,1031.08z M613.06,1060.72c-7,0-12.7-5.7-12.7-12.7c0-7,5.7-12.7,12.7-12.7
				c7,0,12.7,5.7,12.7,12.7C625.77,1055.02,620.07,1060.72,613.06,1060.72z"/>
			
				<rect x="610.89" y="1031.14" transform="matrix(0.7071 -0.7071 0.7071 0.7071 -561.5599 740.434)" class="st0" width="4.23" height="33.87"/>
		</g>
		<g>
			<path class="st0" d="M424.86,1064.96c-0.35-1.35-0.54-2.77-0.54-4.23c0-8.08,5.68-14.84,13.26-16.53
				c0.38,0.79,1.06,1.42,2.03,1.67c0.47,0.47,1.1,0.81,1.89,0.9c-0.25,0.38-0.44,0.8-0.53,1.26c-6.88,0.15-12.43,5.78-12.43,12.7
				c0,1.48,0.26,2.91,0.73,4.23L424.86,1064.96z"/>
			
				<rect x="439" y="1037.57" transform="matrix(-4.597141e-11 1 -1 -4.597141e-11 1487.0186 604.7867)" class="st0" width="4.23" height="16.66"/>
			<g>
				<path class="st0" d="M458.19,1031.08c0,9.34-7.6,16.94-16.94,16.94c-1.33,0-2.63-0.16-3.88-0.45c0.32-0.07,0.6-0.19,0.85-0.34
					c0.03,0,0.06,0,0.09,0c1.59,0,2.61-0.88,3.06-2.01c0.54-0.37,0.92-0.9,1.15-1.49c6.41-0.64,11.44-6.06,11.44-12.64H458.19z"/>
			</g>
			<polygon class="st0" points="455.21,1031.08 455.21,1035.32 428.55,1035.32 424.32,1031.08 			"/>
		</g>
		<g>
			<path class="st0" d="M311.86,1061.83c2.77,1.97,6.14,3.12,9.79,3.12c9.34,0,16.94-7.6,16.94-16.94c0-0.72-0.05-1.42-0.13-2.12
				h-4.28c0.12,0.69,0.18,1.4,0.18,2.12c0,7-5.7,12.7-12.7,12.7c-2.47,0-4.78-0.71-6.74-1.94L311.86,1061.83z"/>
			
				<rect x="325.73" y="1037.39" transform="matrix(6.123234e-17 -1 1 6.123234e-17 -720.1758 1375.8634)" class="st0" width="4.23" height="21.27"/>
			
				<rect x="317.21" y="1031.08" transform="matrix(-1 -1.224647e-16 1.224647e-16 -1 638.6537 2081.2195)" class="st0" width="4.23" height="19.05"/>
			
				<rect x="321.53" y="1026.77" transform="matrix(6.123234e-17 -1 1 6.123234e-17 -709.5555 1356.844)" class="st0" width="4.23" height="12.87"/>
		</g>
		<g>
			<path class="st0" d="M564.59,1031.08c-9.34,0-16.94,7.6-16.94,16.94h4.23c0-7,5.7-12.7,12.7-12.7V1031.08z"/>
			<rect x="564.59" y="1031.08" class="st0" width="4.23" height="33.87"/>
			
				<rect x="554.95" y="1040.72" transform="matrix(6.123234e-17 -1 1 6.123234e-17 -493.0715 1607.202)" class="st0" width="4.23" height="18.83"/>
		</g>
		<g>
			<polygon class="st0" points="399.03,1046.05 399.03,1048.02 398.37,1050.29 376.82,1050.29 380.92,1046.05 			"/>
			<path class="st0" d="M394.06,1036.05c-3.07-3.07-7.3-4.97-11.97-4.97c-9.34,0-16.94,7.6-16.94,16.94
				c0,9.34,7.6,16.94,16.94,16.94c9.34,0,16.94-7.6,16.94-16.94c0-0.36-0.02-0.72-0.04-1.08c-1.28,0.64-2.76,0.92-4.2,0.98
				c0,0.04,0,0.07,0,0.1c0,7-5.7,12.7-12.7,12.7c-7,0-12.7-5.7-12.7-12.7c0-7,5.7-12.7,12.7-12.7c3.49,0,6.65,1.41,8.95,3.7
				L394.06,1036.05z"/>
			
				<rect x="375.41" y="1046.15" transform="matrix(0.7071 0.7071 -0.7071 0.7071 854.8625 41.3384)" class="st0" width="4.23" height="12.87"/>
		</g>
		<g>
			<rect x="278.32" y="1031.08" class="st0" width="4.23" height="33.87"/>
			
				<rect x="273.98" y="1041.67" transform="matrix(6.123234e-17 -1 1 6.123234e-17 -778.2744 1330.4611)" class="st0" width="4.23" height="25.4"/>
			<path class="st0" d="M272.06,1039.94c0,5.59-3.64,10.35-8.67,12.04l-0.04,4.42c6.24-1.51,11.14-6.49,12.54-12.78L272.06,1039.94z
				"/>
		</g>
		<path class="st0" d="M226.53,1046.08l5.62-5.62l0,0l3.02-3.02c-0.87-1.11-1.87-2.11-2.99-2.98l-0.01-0.01l0,0
			c-2.87-2.23-6.47-3.57-10.37-3.57c-4.67,0-8.9,1.9-11.97,4.97l2.99,2.99c2.3-2.3,5.47-3.73,8.98-3.73c2.74,0,5.28,0.88,7.35,2.36
			l-7.36,7.36l0,3.09l0.01,1.16c0.03,0,0.05,0,0.08,0c0.5,0,0.96,0.07,1.38,0.19c3.51,1.34,6.28,4.18,7.5,7.73
			c-2.3,2.3-5.47,3.73-8.98,3.73c-3.5,0-6.68-1.43-8.98-3.73l-2.99,2.99c3.07,3.07,7.3,4.97,11.97,4.97c5.43,0,10.57-2.7,13.67-6.69
			C234.53,1053,231.14,1048.49,226.53,1046.08z"/>
	</g>
</g>
</svg>
