<?xml version="1.0" encoding="utf-8"?>
<!-- Generator: Adobe Illustrator 24.2.3, SVG Export Plug-In . SVG Version: 6.00 Build 0)  -->
<svg version="1.1" xmlns="http://www.w3.org/2000/svg" xmlns:xlink="http://www.w3.org/1999/xlink" x="0px" y="0px"
	 viewBox="0 0 360 1060" style="enable-background:new 0 0 360 1060;" xml:space="preserve">
<style type="text/css">
	.st0{opacity:0.15;}
	.st1{fill:#FFFFFF;}
	.st2{opacity:0.9;}
	.st3{fill:none;stroke:#FF0080;stroke-width:2;stroke-linejoin:round;}
	.st4{fill:none;stroke:#FF0080;stroke-width:2;stroke-linejoin:round;stroke-dasharray:2.9705,2.9705;}
	.st5{fill:none;stroke:#FF0080;stroke-width:2;stroke-linejoin:round;stroke-dasharray:3.0199,3.0199;}
	.st6{opacity:0.7;fill:none;stroke:#FF0080;stroke-width:2;stroke-miterlimit:10;}
	.st7{opacity:0.3;}
	.st8{fill:none;stroke:#FF0080;stroke-width:0.25;stroke-miterlimit:10;}
	.st9{fill:none;stroke:#E40167;stroke-width:3;stroke-miterlimit:10;}
</style>
<g id="Layer_2">
	<rect y="346.08" class="st0" width="360" height="360"/>
	<g>
		<rect x="81.17" y="438.33" class="st1" width="197.66" height="197.23"/>
	</g>
	<g class="st2">
		<g>
			<line class="st3" x1="81.27" y1="438.21" x2="82.33" y2="439.27"/>
			<line class="st4" x1="84.43" y1="441.37" x2="276.62" y2="633.57"/>
			<line class="st3" x1="277.67" y1="634.62" x2="278.73" y2="635.68"/>
		</g>
	</g>
	<g class="st2">
		<g>
			<line class="st3" x1="276.09" y1="440.86" x2="275.03" y2="441.92"/>
			<line class="st5" x1="272.89" y1="444.05" x2="86.04" y2="630.9"/>
			<line class="st3" x1="84.97" y1="631.97" x2="83.91" y2="633.03"/>
		</g>
	</g>
	<line class="st6" x1="81.13" y1="536.94" x2="277.87" y2="536.94"/>
	<line class="st6" x1="180.08" y1="437.4" x2="179.92" y2="636.55"/>
	<g class="st7">
		<line class="st8" x1="106.02" y1="438.31" x2="106.02" y2="635.58"/>
		<line class="st8" x1="130.68" y1="438.31" x2="130.68" y2="635.58"/>
		<line class="st8" x1="155.34" y1="438.31" x2="155.34" y2="635.58"/>
		<line class="st8" x1="204.66" y1="438.31" x2="204.66" y2="635.58"/>
		<line class="st8" x1="253.98" y1="438.31" x2="253.98" y2="635.58"/>
		<line class="st8" x1="229.32" y1="438.31" x2="229.32" y2="635.58"/>
	</g>
	<g class="st7">
		<line class="st8" x1="278.63" y1="462.97" x2="81.37" y2="462.97"/>
		<line class="st8" x1="278.63" y1="487.63" x2="81.37" y2="487.63"/>
		<line class="st8" x1="278.63" y1="512.28" x2="81.37" y2="512.28"/>
		<line class="st8" x1="278.63" y1="561.6" x2="81.37" y2="561.6"/>
		<line class="st8" x1="278.63" y1="610.92" x2="81.37" y2="610.92"/>
		<line class="st8" x1="278.63" y1="586.26" x2="81.37" y2="586.26"/>
	</g>
	<rect x="81" y="437.6" class="st9" width="198" height="198.69"/>
	<g>
		<rect y="700.25" width="360" height="360"/>
		<g>
			<g>
				<path class="st1" d="M151.35,897.88c-9.72,0-17.63-7.91-17.63-17.63c0-9.72,7.91-17.63,17.63-17.63s17.63,7.91,17.63,17.63
					C168.98,889.97,161.07,897.88,151.35,897.88z M151.35,867.03c-7.29,0-13.22,5.93-13.22,13.22c0,7.29,5.93,13.22,13.22,13.22
					c7.29,0,13.22-5.93,13.22-13.22C164.57,872.96,158.64,867.03,151.35,867.03z"/>
			</g>
			<rect x="175.59" y="844.99" class="st1" width="4.41" height="52.89"/>
			<path class="st1" d="M204.24,862.62c-9.72,0-17.63,7.91-17.63,17.63c0,9.72,7.91,17.63,17.63,17.63c5.26,0,9.99-2.32,13.22-5.99
				v5.99h4.41v-17.63C221.87,870.53,213.96,862.62,204.24,862.62z M204.24,893.47c-7.29,0-13.22-5.93-13.22-13.22
				c0-7.29,5.93-13.22,13.22-13.22c7.29,0,13.22,5.93,13.22,13.22C217.47,887.54,211.53,893.47,204.24,893.47z"/>
			<path class="st1" d="M109.48,862.62c-9.54,0-17.32,7.61-17.62,17.08h-0.01v35.81h4.41v-23.62c3.23,3.67,7.96,5.99,13.22,5.99
				c9.72,0,17.63-7.91,17.63-17.63C127.11,870.53,119.2,862.62,109.48,862.62z M109.48,893.47c-7.29,0-13.22-5.93-13.22-13.22
				c0-7.29,5.93-13.22,13.22-13.22c7.29,0,13.22,5.93,13.22,13.22C122.7,887.54,116.77,893.47,109.48,893.47z"/>
			<path class="st1" d="M228.48,880.25v17.63h4.41v-5.99v-11.64c0-7.29,5.93-13.22,13.22-13.22v-4.41
				C236.39,862.62,228.48,870.53,228.48,880.25z"/>
			<path class="st1" d="M250.52,880.25v17.63h4.41v-5.99v-11.64c0-7.29,5.93-13.22,13.22-13.22v-4.41
				C258.43,862.62,250.52,870.53,250.52,880.25z"/>
		</g>
	</g>
	<rect y="13.64" class="st1" width="360" height="360"/>
	<g>
		<path d="M142.79,138.57c-10.59,3.93-18.18,14.11-18.18,26.06v36.31h6.95v-36.31c0-9.2,5.99-17.02,14.27-19.78
			C145.24,143.88,143.25,139.26,142.79,138.57z"/>
		<path d="M138.01,166.37h36.35v-6.95h-17.98h-18.36c-11.5,0-20.85-9.36-20.85-20.85h-6.95
			C110.21,153.9,122.68,166.37,138.01,166.37z"/>
		<path d="M101.65,151.56c1.33-1.38,2.54-2.87,3.87-4.25c-1.24-2.66-1.94-5.62-1.94-8.75h-6.95c0,5.11,1.39,9.9,3.81,14.01
			C100.84,152.24,101.26,151.91,101.65,151.56z"/>
		<path d="M101.65,186.05c1.33-1.38,2.54-2.87,3.87-4.25c-1.24-2.66-1.94-5.62-1.94-8.75h-6.95c0,5.11,1.39,9.9,3.81,14.01
			C100.84,186.73,101.26,186.4,101.65,186.05z"/>
		<path d="M186.88,183.45c0.23-0.19,0.46-0.4,0.68-0.61c0.4-0.45,0.8-0.91,1.22-1.35c0.03-0.04,0.06-0.07,0.09-0.11
			c-1.24-2.66-1.94-5.62-1.94-8.74h-6.95c0,4.39,1.03,8.55,2.86,12.24C184.2,184.51,185.79,184.33,186.88,183.45z"/>
		<path d="M242.32,166.36h-27.81v-6.95h9.44h18.36c11.5,0,20.85-9.36,20.85-20.85h6.95C270.12,153.89,257.65,166.36,242.32,166.36z"
			/>
		
			<rect x="200.13" y="130.11" transform="matrix(-1.199895e-10 1 -1 -1.199895e-10 366.4958 -40.718)" width="6.95" height="65.55"/>
		
			<rect x="235.35" y="138.56" transform="matrix(-1 -1.952275e-10 1.952275e-10 -1 477.6435 395.2791)" width="6.95" height="118.16"/>
		<path d="M238.82,172.46c-13.88,0-25.18,11.3-25.18,25.18c0,13.88,11.3,25.18,25.18,25.18c13.88,0,25.18-11.3,25.18-25.18
			C264,183.76,252.71,172.46,238.82,172.46z M238.82,216.52c-10.41,0-18.88-8.47-18.88-18.88s8.47-18.88,18.88-18.88
			c10.41,0,18.88,8.47,18.88,18.88S249.23,216.52,238.82,216.52z"/>
		<path d="M167.7,172.98c-2.89,6.73-9.58,11.45-17.36,11.45c-2.03,0-3.97-0.33-5.81-0.93c0.05,1.87,0.09,3.69-0.1,5.51
			c-0.01,0.33-0.02,0.66-0.02,0.99c1.9,0.46,3.88,0.72,5.93,0.72c11.25,0,20.79-7.41,24.02-17.61
			C172.14,173.13,169.92,173.05,167.7,172.98z"/>
		<path d="M117.68,228.91v-34.46h-6.95v16.1v18.36c0,11.5-9.36,20.85-20.85,20.85v6.95C105.21,256.72,117.68,244.25,117.68,228.91z"
			/>
		<path d="M152.63,208.07v-13.36c-0.28-0.08-0.56-0.18-0.83-0.32h-6.12v13.68c0,15.33,12.47,27.81,27.81,27.81v-6.95
			C161.98,228.92,152.63,219.57,152.63,208.07z"/>
		<path d="M242.32,228.91h-27.81v6.95h9.44h18.36c11.5,0,20.85,9.36,20.85,20.85h6.95C270.12,241.39,257.65,228.91,242.32,228.91z"
			/>
		<path d="M179.79,228.91c-0.01,2.33-0.04,4.64-0.1,6.95h27.97v-6.95H179.79z"/>
		<rect x="190.71" y="194.39" width="6.95" height="52.09"/>
		<path d="M198.22,192.25c5.78-5.1,9.44-12.56,9.44-20.86h-6.95c0,11.46-9.29,20.79-20.73,20.85v6.95h27.42v-6.95H198.22z"/>
		<path d="M133.13,228.75c-0.01,2.33-0.02,4.64-0.05,6.95h15.3v-6.95H133.13z"/>
		<path d="M167.41,173.05v34.85c0,11.5-9.36,20.85-20.85,20.85v6.95c15.33,0,27.81-12.47,27.81-27.81v-34.78
			C172.04,173.18,169.73,173.12,167.41,173.05z"/>
		<path d="M161.17,138.79c0,0-3.64,5.46-3.75,5.59c3.88,1.62,7.15,4.41,9.34,7.95h7.46C171.67,146.39,167,141.57,161.17,138.79z"/>
		<path d="M196.69,138.57c0,0-3.64,5.46-3.75,5.59c3.88,1.62,7.15,4.41,9.34,7.95h7.46C207.18,146.16,202.51,141.35,196.69,138.57z"
			/>
	</g>
	<g>
		<path d="M29.25,565.85l-0.38-0.64c1.18-0.34,1.97-1.33,1.97-2.94c0-1.64-0.84-2.46-1.96-2.46c-1.18,0-1.62,1.04-2.1,2.54
			c-0.53,1.64-0.99,3.11-2.7,3.11c-1.61,0-2.63-1.3-2.63-2.97c0-1.61,0.92-2.68,2.06-3.15l0.35,0.63c-0.88,0.36-1.69,1.12-1.69,2.52
			c0,1.36,0.8,2.21,1.89,2.21c1.18,0,1.54-0.99,2-2.4c0.57-1.74,1.12-3.25,2.82-3.25c1.62,0,2.69,1.27,2.69,3.22
			C31.56,564.1,30.63,565.4,29.25,565.85z"/>
		<path d="M22.3,551.55v3.08h9.1v0.76h-9.1v3.08h-0.7v-6.92H22.3z"/>
		<path d="M28.91,545.07v4.92l2.49,0.95v0.79l-9.81-3.81v-0.78l9.81-3.8v0.78L28.91,545.07z M28.21,545.34l-5.7,2.18l5.7,2.19
			V545.34z"/>
		<path d="M27.39,538.07v3.1h4.02v0.74H21.6v-3.87c0-1.6,1.3-2.9,2.9-2.9c1.33,0,2.45,0.91,2.79,2.16l4.12-2.44v0.86L27.39,538.07z
			 M26.68,541.17v-3.12c0-1.19-0.98-2.16-2.19-2.16c-1.22,0-2.2,0.97-2.2,2.16v3.12H26.68z"/>
		<path d="M27.22,520.26c2.37,0,4.34,1.81,4.34,4.74c0,3.04-2.26,5.15-5.06,5.15c-2.8,0-5.06-2.12-5.06-5.1
			c0-1.82,0.95-3.4,2.37-4.22l0.39,0.66c-1.23,0.64-2.05,2.02-2.05,3.56c0,2.58,1.93,4.36,4.34,4.36c2.41,0,4.34-1.78,4.34-4.41
			c0-2.38-1.47-3.82-3.31-3.98v4.16h-0.7v-4.92H27.22z"/>
		<path d="M27.39,514.57v3.1h4.02v0.74H21.6v-3.87c0-1.6,1.3-2.9,2.9-2.9c1.33,0,2.45,0.91,2.79,2.16l4.12-2.44v0.85L27.39,514.57z
			 M26.68,517.66v-3.12c0-1.19-0.98-2.16-2.19-2.16c-1.22,0-2.2,0.97-2.2,2.16v3.12H26.68z"/>
		<path d="M21.6,509.08h9.81v0.74H21.6V509.08z"/>
		<path d="M26.5,498.34c2.7,0,4.9,1.92,4.9,4.62v3.68H21.6v-3.68C21.6,500.26,23.8,498.34,26.5,498.34z M26.5,499.07
			c-2.33,0-4.2,1.58-4.2,3.89v2.94h8.4v-2.94C30.71,500.65,28.83,499.07,26.5,499.07z"/>
	</g>
	<g>
		<path class="st1" d="M21.6,955.33v-0.78l8.81-2.54l-8.81-2.73v-0.88l8.81-2.75l-8.81-2.52v-0.78l9.81,2.84v0.9l-8.84,2.74
			l8.84,2.76v0.9L21.6,955.33z"/>
		<path class="st1" d="M26.5,941.65c-2.8,0-5.06-2.23-5.06-5.06c0-2.83,2.26-5.06,5.06-5.06c2.8,0,5.06,2.23,5.06,5.06
			C31.56,939.43,29.3,941.65,26.5,941.65z M26.5,932.28c-2.41,0-4.34,1.89-4.34,4.31c0,2.42,1.93,4.31,4.34,4.31
			c2.41,0,4.34-1.89,4.34-4.31C30.84,934.17,28.91,932.28,26.5,932.28z"/>
		<path class="st1" d="M27.38,925.83v3.1h4.02v0.74H21.6v-3.87c0-1.6,1.3-2.9,2.9-2.9c1.33,0,2.45,0.91,2.79,2.16l4.12-2.44v0.85
			L27.38,925.83z M26.68,928.93v-3.12c0-1.19-0.98-2.16-2.19-2.16c-1.22,0-2.2,0.97-2.2,2.16v3.12H26.68z"/>
		<path class="st1" d="M26.5,912.78c2.7,0,4.9,1.92,4.9,4.62v3.68H21.6v-3.68C21.6,914.7,23.8,912.78,26.5,912.78z M26.5,913.51
			c-2.33,0-4.2,1.58-4.2,3.89v2.94h8.41v-2.94C30.71,915.09,28.83,913.51,26.5,913.51z"/>
		<path class="st1" d="M31.41,902.04v0.74h-8.71l6.02,3.63v0.13l-6.02,3.63h8.71v0.74H21.6v-0.92l5.8-3.5l-5.8-3.5v-0.94H31.41z"/>
		<path class="st1" d="M28.91,893.97v4.92l2.49,0.95v0.79l-9.81-3.81v-0.78l9.81-3.8v0.78L28.91,893.97z M28.21,894.23l-5.7,2.18
			l5.7,2.19V894.23z"/>
		<path class="st1" d="M27.38,886.97v3.1h4.02v0.74H21.6v-3.87c0-1.6,1.3-2.9,2.9-2.9c1.33,0,2.45,0.91,2.79,2.16l4.12-2.44v0.86
			L27.38,886.97z M26.68,890.06v-3.12c0-1.19-0.98-2.16-2.19-2.16c-1.22,0-2.2,0.97-2.2,2.16v3.12H26.68z"/>
		<path class="st1" d="M31.41,876.56l-4.83,4.92h4.83v0.74H21.6v-0.74h4.57l-4.57-4.78v-0.99l4.76,4.96l5.04-5.1V876.56z"/>
		<path class="st1" d="M26.74,870.48v-5.04h0.67v5.04H26.74z"/>
		<path class="st1" d="M30.71,853.63h0.7v5.65H21.6v-5.58h0.7v4.83h3.81v-4.48h0.7v4.48h3.89V853.63z"/>
		<path class="st1" d="M21.6,844.63h9.81v0.66l-8.43,5.79h8.43v0.74H21.6v-0.64l8.43-5.8H21.6V844.63z"/>
		<path class="st1" d="M27.22,832.87c2.37,0,4.34,1.81,4.34,4.74c0,3.04-2.26,5.16-5.06,5.16c-2.8,0-5.06-2.12-5.06-5.1
			c0-1.82,0.95-3.4,2.37-4.22l0.39,0.66c-1.23,0.64-2.04,2.02-2.04,3.56c0,2.58,1.93,4.36,4.34,4.36c2.41,0,4.34-1.78,4.34-4.41
			c0-2.38-1.47-3.82-3.31-3.98v4.16h-0.7v-4.92H27.22z"/>
		<path class="st1" d="M30.71,825.65h0.7v5.36H21.6v-0.74h9.11V825.65z"/>
		<path class="st1" d="M21.6,823.37h9.81v0.74H21.6V823.37z"/>
		<path class="st1" d="M29.25,821.66l-0.38-0.64c1.18-0.34,1.97-1.33,1.97-2.94c0-1.64-0.84-2.47-1.96-2.47
			c-1.18,0-1.62,1.04-2.1,2.54c-0.53,1.64-0.99,3.11-2.7,3.11c-1.61,0-2.63-1.3-2.63-2.97c0-1.61,0.92-2.67,2.06-3.15l0.35,0.63
			c-0.88,0.36-1.69,1.12-1.69,2.52c0,1.36,0.8,2.21,1.89,2.21c1.18,0,1.54-1,2-2.4c0.58-1.74,1.12-3.25,2.82-3.25
			c1.62,0,2.69,1.28,2.69,3.22C31.56,819.91,30.63,821.21,29.25,821.66z"/>
		<path class="st1" d="M21.6,805.92h9.81v0.74h-4.69v5.7h4.69v0.74H21.6v-0.74h4.41v-5.7H21.6V805.92z"/>
	</g>
	<g>
		<path d="M21.6,279.69v-0.78l8.81-2.54l-8.81-2.73v-0.88l8.81-2.75l-8.81-2.52v-0.78l9.81,2.84v0.9l-8.84,2.75l8.84,2.76v0.9
			L21.6,279.69z"/>
		<path d="M26.5,266.01c-2.8,0-5.06-2.23-5.06-5.06c0-2.83,2.26-5.06,5.06-5.06c2.8,0,5.06,2.23,5.06,5.06
			C31.56,263.79,29.3,266.01,26.5,266.01z M26.5,256.64c-2.41,0-4.34,1.89-4.34,4.31c0,2.42,1.93,4.31,4.34,4.31
			c2.41,0,4.34-1.89,4.34-4.31C30.84,258.53,28.91,256.64,26.5,256.64z"/>
		<path d="M27.38,250.19v3.1h4.02v0.74H21.6v-3.87c0-1.6,1.3-2.9,2.9-2.9c1.33,0,2.45,0.91,2.79,2.16l4.12-2.44v0.85L27.38,250.19z
			 M26.68,253.29v-3.12c0-1.19-0.98-2.16-2.19-2.16c-1.22,0-2.2,0.97-2.2,2.16v3.12H26.68z"/>
		<path d="M26.5,237.14c2.7,0,4.9,1.92,4.9,4.62v3.68H21.6v-3.68C21.6,239.06,23.8,237.14,26.5,237.14z M26.5,237.87
			c-2.33,0-4.2,1.58-4.2,3.89v2.94h8.4v-2.94C30.7,239.45,28.83,237.87,26.5,237.87z"/>
		<path d="M31.4,226.4v0.74h-8.71l6.02,3.63v0.13l-6.02,3.63h8.71v0.74H21.6v-0.92l5.8-3.5l-5.8-3.5v-0.94H31.4z"/>
		<path d="M28.91,218.33v4.92l2.49,0.95v0.78l-9.81-3.81v-0.78l9.81-3.8v0.78L28.91,218.33z M28.21,218.59l-5.7,2.19l5.7,2.19
			V218.59z"/>
		<path d="M27.38,211.33v3.1h4.02v0.74H21.6v-3.87c0-1.6,1.3-2.9,2.9-2.9c1.33,0,2.45,0.91,2.79,2.16l4.12-2.44v0.85L27.38,211.33z
			 M26.68,214.42v-3.12c0-1.19-0.98-2.16-2.19-2.16c-1.22,0-2.2,0.97-2.2,2.16v3.12H26.68z"/>
		<path d="M31.4,200.93l-4.83,4.92h4.83v0.74H21.6v-0.74h4.57l-4.57-4.78v-0.99l4.76,4.96l5.04-5.1V200.93z"/>
		<path d="M26.74,194.84v-5.04h0.67v5.04H26.74z"/>
		<path d="M31.4,174.77v0.74h-8.71l6.02,3.63v0.13l-6.02,3.63h8.71v0.74H21.6v-0.92l5.8-3.5l-5.8-3.5v-0.94H31.4z"/>
		<path d="M28.91,166.7v4.92l2.49,0.95v0.78l-9.81-3.81v-0.78l9.81-3.8v0.78L28.91,166.7z M28.21,166.96l-5.7,2.19l5.7,2.19V166.96z
			"/>
		<path d="M21.6,156.35h9.81v0.66l-8.43,5.79h8.43v0.74H21.6v-0.64l8.43-5.8H21.6V156.35z"/>
		<path d="M26.5,145.61c2.7,0,4.9,1.92,4.9,4.62v3.68H21.6v-3.68C21.6,147.53,23.8,145.61,26.5,145.61z M26.5,146.34
			c-2.33,0-4.2,1.58-4.2,3.89v2.94h8.4v-2.94C30.7,147.92,28.83,146.34,26.5,146.34z"/>
		<path d="M28.91,138.44v4.92l2.49,0.95v0.78l-9.81-3.81v-0.78l9.81-3.8v0.78L28.91,138.44z M28.21,138.71l-5.7,2.19l5.7,2.19
			V138.71z"/>
		<path d="M27.38,131.45v3.1h4.02v0.74H21.6v-3.87c0-1.6,1.3-2.9,2.9-2.9c1.33,0,2.45,0.91,2.79,2.16l4.12-2.44v0.85L27.38,131.45z
			 M26.68,134.54v-3.12c0-1.19-0.98-2.16-2.19-2.16c-1.22,0-2.2,0.97-2.2,2.16v3.12H26.68z"/>
		<path d="M21.6,125.96h9.81v0.74H21.6V125.96z"/>
		<path d="M21.6,116.34h9.81V117l-8.43,5.79h8.43v0.74H21.6v-0.64l8.43-5.8H21.6V116.34z"/>
	</g>
</g>
<g id="Layer_1">
</g>
</svg>
