<?xml version="1.0" encoding="utf-8"?>
<!-- Generator: Adobe Illustrator 25.0.1, SVG Export Plug-In . SVG Version: 6.00 Build 0)  -->
<svg version="1.1" id="Layer_1" xmlns="http://www.w3.org/2000/svg" xmlns:xlink="http://www.w3.org/1999/xlink" x="0px" y="0px"
	 viewBox="0 0 360 1060" style="enable-background:new 0 0 360 1060;" xml:space="preserve">
<style type="text/css">
	.st0{fill:#FFFFFF;}
	.st1{opacity:0.9;fill:#F6F6FF;}
	.st2{opacity:0.9;}
	.st3{fill:none;stroke:#FF0080;stroke-width:2;stroke-linejoin:round;}
	.st4{fill:none;stroke:#FF0080;stroke-width:2;stroke-linejoin:round;stroke-dasharray:2.9705,2.9705;}
	.st5{fill:none;stroke:#FF0080;stroke-width:2;stroke-linejoin:round;stroke-dasharray:3.0199,3.0199;}
	.st6{opacity:0.7;fill:none;stroke:#FF0080;stroke-width:2;stroke-miterlimit:10;enable-background:new    ;}
	.st7{opacity:0.3;}
	.st8{fill:none;stroke:#FF0080;stroke-width:0.25;stroke-miterlimit:10;}
	.st9{fill:none;stroke:#E40167;stroke-width:3;stroke-miterlimit:10;}
</style>
<g>
	<rect y="376.9" width="360" height="683.4"/>
	<g>
		<g>
			<path class="st0" d="M151.4,897.9c-9.7,0-17.6-7.9-17.6-17.6c0-9.7,7.9-17.6,17.6-17.6s17.6,7.9,17.6,17.6
				C169,890,161.1,897.9,151.4,897.9z M151.4,867c-7.3,0-13.2,5.9-13.2,13.2s5.9,13.2,13.2,13.2c7.3,0,13.2-5.9,13.2-13.2
				S158.6,867,151.4,867z"/>
		</g>
		<rect x="175.6" y="845" class="st0" width="4.4" height="52.9"/>
		<path class="st0" d="M204.2,862.6c-9.7,0-17.6,7.9-17.6,17.6c0,9.7,7.9,17.6,17.6,17.6c5.3,0,10-2.3,13.2-6v6h4.4v-17.6
			C221.9,870.5,214,862.6,204.2,862.6z M204.2,893.5c-7.3,0-13.2-5.9-13.2-13.2s5.9-13.2,13.2-13.2c7.3,0,13.2,5.9,13.2,13.2
			C217.5,887.5,211.5,893.5,204.2,893.5z"/>
		<path class="st0" d="M109.5,862.6c-9.5,0-17.3,7.6-17.6,17.1h0v35.8h4.4v-23.6c3.2,3.7,8,6,13.2,6c9.7,0,17.6-7.9,17.6-17.6
			C127.1,870.5,119.2,862.6,109.5,862.6z M109.5,893.5c-7.3,0-13.2-5.9-13.2-13.2s5.9-13.2,13.2-13.2s13.2,5.9,13.2,13.2
			C122.7,887.5,116.8,893.5,109.5,893.5z"/>
		<path class="st0" d="M228.5,880.2v17.6h4.4v-6v-11.6c0-7.3,5.9-13.2,13.2-13.2v-4.4C236.4,862.6,228.5,870.5,228.5,880.2z"/>
		<path class="st0" d="M250.5,880.2v17.6h4.4v-6v-11.6c0-7.3,5.9-13.2,13.2-13.2v-4.4C258.4,862.6,250.5,870.5,250.5,880.2z"/>
	</g>
</g>
<rect y="13.6" class="st0" width="360" height="360"/>
<g>
	<path d="M142.8,138.6c-10.6,3.9-18.2,14.1-18.2,26.1v36.3h7v-36.3c0-9.2,6-17,14.3-19.8C145.2,143.9,143.2,139.3,142.8,138.6z"/>
	<path d="M138,166.4h36.3v-6.9h-18H138c-11.5,0-20.8-9.4-20.8-20.9h-6.9C110.2,153.9,122.7,166.4,138,166.4z"/>
	<path d="M101.7,151.6c1.3-1.4,2.5-2.9,3.9-4.2c-1.2-2.7-1.9-5.6-1.9-8.8h-6.9c0,5.1,1.4,9.9,3.8,14
		C100.8,152.2,101.3,151.9,101.7,151.6z"/>
	<path d="M101.7,186.1c1.3-1.4,2.5-2.9,3.9-4.2c-1.2-2.7-1.9-5.6-1.9-8.8h-6.9c0,5.1,1.4,9.9,3.8,14
		C100.8,186.7,101.3,186.4,101.7,186.1z"/>
	<path d="M186.9,183.4c0.2-0.2,0.5-0.4,0.7-0.6c0.4-0.4,0.8-0.9,1.2-1.4c0,0,0.1-0.1,0.1-0.1c-1.2-2.7-1.9-5.6-1.9-8.7H180
		c0,4.4,1,8.6,2.9,12.2C184.2,184.5,185.8,184.3,186.9,183.4z"/>
	<path d="M242.3,166.4h-27.8v-6.9h9.4h18.4c11.5,0,20.8-9.4,20.8-20.9h7C270.1,153.9,257.6,166.4,242.3,166.4z"/>
	<rect x="170.8" y="159.4" width="65.6" height="6.9"/>
	<rect x="235.3" y="138.6" width="6.9" height="118.2"/>
	<path d="M238.8,172.5c-13.9,0-25.2,11.3-25.2,25.2s11.3,25.2,25.2,25.2c13.9,0,25.2-11.3,25.2-25.2
		C264,183.8,252.7,172.5,238.8,172.5z M238.8,216.5c-10.4,0-18.9-8.5-18.9-18.9s8.5-18.9,18.9-18.9s18.9,8.5,18.9,18.9
		S249.2,216.5,238.8,216.5z"/>
	<path d="M167.7,173c-2.9,6.7-9.6,11.4-17.4,11.4c-2,0-4-0.3-5.8-0.9c0.1,1.9,0.1,3.7-0.1,5.5c0,0.3,0,0.7,0,1
		c1.9,0.5,3.9,0.7,5.9,0.7c11.2,0,20.8-7.4,24-17.6C172.1,173.1,169.9,173.1,167.7,173z"/>
	<path d="M117.7,228.9v-34.5h-6.9v16.1v18.4c0,11.5-9.4,20.9-20.8,20.9v6.9C105.2,256.7,117.7,244.2,117.7,228.9z"/>
	<path d="M152.6,208.1v-13.4c-0.3-0.1-0.6-0.2-0.8-0.3h-6.1v13.7c0,15.3,12.5,27.8,27.8,27.8v-6.9
		C162,228.9,152.6,219.6,152.6,208.1z"/>
	<path d="M242.3,228.9h-27.8v6.9h9.4h18.4c11.5,0,20.8,9.4,20.8,20.8h7C270.1,241.4,257.6,228.9,242.3,228.9z"/>
	<path d="M179.8,228.9c0,2.3,0,4.6-0.1,6.9h28v-6.9H179.8z"/>
	<rect x="190.7" y="194.4" width="6.9" height="52.1"/>
	<path d="M198.2,192.2c5.8-5.1,9.4-12.6,9.4-20.9h-6.9c0,11.5-9.3,20.8-20.7,20.9v6.9h27.4v-6.9L198.2,192.2L198.2,192.2z"/>
	<path d="M133.1,228.8c0,2.3,0,4.6-0.1,6.9h15.3v-6.9H133.1z"/>
	<path d="M167.4,173.1v34.8c0,11.5-9.4,20.9-20.9,20.9v6.9c15.3,0,27.8-12.5,27.8-27.8v-34.8C172,173.2,169.7,173.1,167.4,173.1z"/>
	<path d="M161.2,138.8c0,0-3.6,5.5-3.8,5.6c3.9,1.6,7.1,4.4,9.3,7.9h7.5C171.7,146.4,167,141.6,161.2,138.8z"/>
	<path d="M196.7,138.6c0,0-3.6,5.5-3.8,5.6c3.9,1.6,7.1,4.4,9.3,7.9h7.5C207.2,146.2,202.5,141.4,196.7,138.6z"/>
</g>
<g>
	<path class="st0" d="M21.6,955.3v-0.8l8.8-2.5l-8.8-2.7v-0.9l8.8-2.8l-8.8-2.5v-0.8l9.8,2.8v0.9l-8.8,2.7l8.8,2.8v0.9L21.6,955.3z"
		/>
	<path class="st0" d="M26.5,941.7c-2.8,0-5.1-2.2-5.1-5.1s2.3-5.1,5.1-5.1s5.1,2.2,5.1,5.1C31.6,939.4,29.3,941.7,26.5,941.7z
		 M26.5,932.3c-2.4,0-4.3,1.9-4.3,4.3s1.9,4.3,4.3,4.3s4.3-1.9,4.3-4.3C30.8,934.2,28.9,932.3,26.5,932.3z"/>
	<path class="st0" d="M27.4,925.8v3.1h4v0.7h-9.8v-3.9c0-1.6,1.3-2.9,2.9-2.9c1.3,0,2.5,0.9,2.8,2.2l4.1-2.4v0.8L27.4,925.8z
		 M26.7,928.9v-3.1c0-1.2-1-2.2-2.2-2.2c-1.2,0-2.2,1-2.2,2.2v3.1H26.7z"/>
	<path class="st0" d="M26.5,912.8c2.7,0,4.9,1.9,4.9,4.6v3.7h-9.8v-3.7C21.6,914.7,23.8,912.8,26.5,912.8z M26.5,913.5
		c-2.3,0-4.2,1.6-4.2,3.9v2.9h8.4v-2.9C30.7,915.1,28.8,913.5,26.5,913.5z"/>
	<path class="st0" d="M31.4,902v0.7h-8.7l6,3.6v0.1l-6,3.6h8.7v0.7h-9.8V910l5.8-3.5l-5.8-3.5V902L31.4,902L31.4,902z"/>
	<path class="st0" d="M28.9,894v4.9l2.5,1v0.8l-9.8-3.8V896l9.8-3.8v0.8L28.9,894z M28.2,894.2l-5.7,2.2l5.7,2.2V894.2z"/>
	<path class="st0" d="M27.4,887v3.1h4v0.7h-9.8v-3.9c0-1.6,1.3-2.9,2.9-2.9c1.3,0,2.5,0.9,2.8,2.2l4.1-2.4v0.9L27.4,887z
		 M26.7,890.1v-3.1c0-1.2-1-2.2-2.2-2.2c-1.2,0-2.2,1-2.2,2.2v3.1H26.7z"/>
	<path class="st0" d="M31.4,876.6l-4.8,4.9h4.8v0.7h-9.8v-0.7h4.6l-4.6-4.8v-1l4.8,5l5-5.1L31.4,876.6L31.4,876.6z"/>
	<path class="st0" d="M26.7,870.5v-5h0.7v5H26.7z"/>
	<path class="st0" d="M30.7,853.6h0.7v5.7h-9.8v-5.6h0.7v4.8h3.8v-4.5h0.7v4.5h3.9L30.7,853.6L30.7,853.6z"/>
	<path class="st0" d="M21.6,844.6h9.8v0.7l-8.4,5.8h8.4v0.7h-9.8v-0.6l8.4-5.8h-8.4V844.6z"/>
	<path class="st0" d="M27.2,832.9c2.4,0,4.3,1.8,4.3,4.7c0,3-2.3,5.2-5.1,5.2s-5.1-2.1-5.1-5.1c0-1.8,1-3.4,2.4-4.2l0.4,0.7
		c-1.2,0.6-2,2-2,3.6c0,2.6,1.9,4.4,4.3,4.4s4.3-1.8,4.3-4.4c0-2.4-1.5-3.8-3.3-4v4.2h-0.7v-4.9L27.2,832.9L27.2,832.9z"/>
	<path class="st0" d="M30.7,825.7h0.7v5.4h-9.8v-0.7h9.1V825.7z"/>
	<path class="st0" d="M21.6,823.4h9.8v0.7h-9.8V823.4z"/>
	<path class="st0" d="M29.2,821.7l-0.4-0.6c1.2-0.3,2-1.3,2-2.9c0-1.6-0.8-2.5-2-2.5c-1.2,0-1.6,1-2.1,2.5c-0.5,1.6-1,3.1-2.7,3.1
		c-1.6,0-2.6-1.3-2.6-3c0-1.6,0.9-2.7,2.1-3.2l0.4,0.6c-0.9,0.4-1.7,1.1-1.7,2.5c0,1.4,0.8,2.2,1.9,2.2c1.2,0,1.5-1,2-2.4
		c0.6-1.7,1.1-3.2,2.8-3.2c1.6,0,2.7,1.3,2.7,3.2C31.6,819.9,30.6,821.2,29.2,821.7z"/>
	<path class="st0" d="M21.6,805.9h9.8v0.7h-4.7v5.7h4.7v0.7h-9.8v-0.7H26v-5.7h-4.4V805.9z"/>
</g>
<g>
	<path d="M21.6,279.7v-0.8l8.8-2.5l-8.8-2.7v-0.9l8.8-2.8l-8.8-2.5v-0.8l9.8,2.8v0.9l-8.8,2.8l8.8,2.8v0.9L21.6,279.7z"/>
	<path d="M26.5,266c-2.8,0-5.1-2.2-5.1-5.1s2.3-5.1,5.1-5.1s5.1,2.2,5.1,5.1C31.6,263.8,29.3,266,26.5,266z M26.5,256.6
		c-2.4,0-4.3,1.9-4.3,4.3c0,2.4,1.9,4.3,4.3,4.3s4.3-1.9,4.3-4.3C30.8,258.5,28.9,256.6,26.5,256.6z"/>
	<path d="M27.4,250.2v3.1h4v0.7h-9.8v-3.9c0-1.6,1.3-2.9,2.9-2.9c1.3,0,2.5,0.9,2.8,2.2l4.1-2.4v0.9L27.4,250.2z M26.7,253.3v-3.1
		c0-1.2-1-2.2-2.2-2.2c-1.2,0-2.2,1-2.2,2.2v3.1H26.7z"/>
	<path d="M26.5,237.1c2.7,0,4.9,1.9,4.9,4.6v3.7h-9.8v-3.7C21.6,239.1,23.8,237.1,26.5,237.1z M26.5,237.9c-2.3,0-4.2,1.6-4.2,3.9
		v2.9h8.4v-2.9C30.7,239.4,28.8,237.9,26.5,237.9z"/>
	<path d="M31.4,226.4v0.7h-8.7l6,3.6v0.1l-6,3.6h8.7v0.7h-9.8v-0.9l5.8-3.5l-5.8-3.5v-0.9L31.4,226.4L31.4,226.4z"/>
	<path d="M28.9,218.3v4.9l2.5,0.9v0.8l-9.8-3.8v-0.8l9.8-3.8v0.8L28.9,218.3z M28.2,218.6l-5.7,2.2l5.7,2.2V218.6z"/>
	<path d="M27.4,211.3v3.1h4v0.7h-9.8v-3.9c0-1.6,1.3-2.9,2.9-2.9c1.3,0,2.5,0.9,2.8,2.2l4.1-2.4v0.9L27.4,211.3z M26.7,214.4v-3.1
		c0-1.2-1-2.2-2.2-2.2c-1.2,0-2.2,1-2.2,2.2v3.1H26.7z"/>
	<path d="M31.4,200.9l-4.8,4.9h4.8v0.7h-9.8v-0.7h4.6l-4.6-4.8v-1l4.8,5l5-5.1C31.4,199.9,31.4,200.9,31.4,200.9z"/>
	<path d="M26.7,194.8v-5h0.7v5H26.7z"/>
	<path d="M31.4,174.8v0.7h-8.7l6,3.6v0.1l-6,3.6h8.7v0.7h-9.8v-0.9l5.8-3.5l-5.8-3.5v-0.9L31.4,174.8L31.4,174.8z"/>
	<path d="M28.9,166.7v4.9l2.5,0.9v0.8l-9.8-3.8v-0.8l9.8-3.8v0.8L28.9,166.7z M28.2,167l-5.7,2.2l5.7,2.2V167z"/>
	<path d="M21.6,156.4h9.8v0.7l-8.4,5.8h8.4v0.7h-9.8v-0.6l8.4-5.8h-8.4V156.4z"/>
	<path d="M26.5,145.6c2.7,0,4.9,1.9,4.9,4.6v3.7h-9.8v-3.7C21.6,147.5,23.8,145.6,26.5,145.6z M26.5,146.3c-2.3,0-4.2,1.6-4.2,3.9
		v2.9h8.4v-2.9C30.7,147.9,28.8,146.3,26.5,146.3z"/>
	<path d="M28.9,138.4v4.9l2.5,0.9v0.8l-9.8-3.8v-0.8l9.8-3.8v0.8L28.9,138.4z M28.2,138.7l-5.7,2.2l5.7,2.2V138.7z"/>
	<path d="M27.4,131.4v3.1h4v0.7h-9.8v-3.9c0-1.6,1.3-2.9,2.9-2.9c1.3,0,2.5,0.9,2.8,2.2l4.1-2.4v0.9L27.4,131.4z M26.7,134.5v-3.1
		c0-1.2-1-2.2-2.2-2.2c-1.2,0-2.2,1-2.2,2.2v3.1H26.7z"/>
	<path d="M21.6,126h9.8v0.7h-9.8V126z"/>
	<path d="M21.6,116.3h9.8v0.7l-8.4,5.8h8.4v0.7h-9.8v-0.6l8.4-5.8h-8.4V116.3z"/>
</g>
<g id="Layer_1_1_">
</g>
<rect y="376.4" class="st1" width="360" height="324.4"/>
<g>
	<rect x="81.2" y="438.3" class="st0" width="197.7" height="197.2"/>
</g>
<g class="st2">
	<g>
		<line class="st3" x1="81.3" y1="438.2" x2="82.3" y2="439.3"/>
		<line class="st4" x1="84.4" y1="441.4" x2="276.6" y2="633.6"/>
		<line class="st3" x1="277.7" y1="634.6" x2="278.7" y2="635.7"/>
	</g>
</g>
<g class="st2">
	<g>
		<line class="st3" x1="276.1" y1="440.9" x2="275" y2="441.9"/>
		<line class="st5" x1="272.9" y1="444" x2="86" y2="630.9"/>
		<line class="st3" x1="85" y1="632" x2="83.9" y2="633"/>
	</g>
</g>
<line class="st6" x1="81.1" y1="536.9" x2="277.9" y2="536.9"/>
<line class="st6" x1="180.1" y1="437.4" x2="179.9" y2="636.5"/>
<g class="st7">
	<line class="st8" x1="106" y1="438.3" x2="106" y2="635.6"/>
	<line class="st8" x1="130.7" y1="438.3" x2="130.7" y2="635.6"/>
	<line class="st8" x1="155.3" y1="438.3" x2="155.3" y2="635.6"/>
	<line class="st8" x1="204.7" y1="438.3" x2="204.7" y2="635.6"/>
	<line class="st8" x1="254" y1="438.3" x2="254" y2="635.6"/>
	<line class="st8" x1="229.3" y1="438.3" x2="229.3" y2="635.6"/>
</g>
<g class="st7">
	<line class="st8" x1="278.6" y1="463" x2="81.4" y2="463"/>
	<line class="st8" x1="278.6" y1="487.6" x2="81.4" y2="487.6"/>
	<line class="st8" x1="278.6" y1="512.3" x2="81.4" y2="512.3"/>
	<line class="st8" x1="278.6" y1="561.6" x2="81.4" y2="561.6"/>
	<line class="st8" x1="278.6" y1="610.9" x2="81.4" y2="610.9"/>
	<line class="st8" x1="278.6" y1="586.3" x2="81.4" y2="586.3"/>
</g>
<rect x="81" y="437.6" class="st9" width="198" height="198.7"/>
<g>
	<path d="M29.2,565.8l-0.4-0.6c1.2-0.3,2-1.3,2-2.9c0-1.6-0.8-2.5-2-2.5c-1.2,0-1.6,1-2.1,2.5c-0.5,1.6-1,3.1-2.7,3.1
		c-1.6,0-2.6-1.3-2.6-3c0-1.6,0.9-2.7,2.1-3.2l0.4,0.6c-0.9,0.4-1.7,1.1-1.7,2.5c0,1.4,0.8,2.2,1.9,2.2c1.2,0,1.5-1,2-2.4
		c0.6-1.7,1.1-3.2,2.8-3.2c1.6,0,2.7,1.3,2.7,3.2C31.6,564.1,30.6,565.4,29.2,565.8z"/>
	<path d="M22.3,551.5v3.1h9.1v0.8h-9.1v3.1h-0.7v-6.9L22.3,551.5L22.3,551.5z"/>
	<path d="M28.9,545.1v4.9l2.5,1v0.8l-9.8-3.8v-0.8l9.8-3.8v0.8L28.9,545.1z M28.2,545.3l-5.7,2.2l5.7,2.2V545.3z"/>
	<path d="M27.4,538.1v3.1h4v0.7h-9.8V538c0-1.6,1.3-2.9,2.9-2.9c1.3,0,2.5,0.9,2.8,2.2l4.1-2.4v0.9L27.4,538.1z M26.7,541.2V538
		c0-1.2-1-2.2-2.2-2.2c-1.2,0-2.2,1-2.2,2.2v3.1H26.7z"/>
	<path d="M27.2,520.3c2.4,0,4.3,1.8,4.3,4.7c0,3-2.3,5.2-5.1,5.2s-5.1-2.1-5.1-5.1c0-1.8,1-3.4,2.4-4.2l0.4,0.7c-1.2,0.6-2,2-2,3.6
		c0,2.6,1.9,4.4,4.3,4.4s4.3-1.8,4.3-4.4c0-2.4-1.5-3.8-3.3-4v4.2h-0.7v-4.9L27.2,520.3L27.2,520.3z"/>
	<path d="M27.4,514.6v3.1h4v0.7h-9.8v-3.9c0-1.6,1.3-2.9,2.9-2.9c1.3,0,2.5,0.9,2.8,2.2l4.1-2.4v0.8L27.4,514.6z M26.7,517.7v-3.1
		c0-1.2-1-2.2-2.2-2.2c-1.2,0-2.2,1-2.2,2.2v3.1H26.7z"/>
	<path d="M21.6,509.1h9.8v0.7h-9.8V509.1z"/>
	<path d="M26.5,498.3c2.7,0,4.9,1.9,4.9,4.6v3.7h-9.8V503C21.6,500.3,23.8,498.3,26.5,498.3z M26.5,499.1c-2.3,0-4.2,1.6-4.2,3.9
		v2.9h8.4V503C30.7,500.6,28.8,499.1,26.5,499.1z"/>
</g>
</svg>
