<?xml version="1.0" encoding="utf-8"?>
<!-- Generator: Adobe Illustrator 24.2.3, SVG Export Plug-In . SVG Version: 6.00 Build 0)  -->
<svg version="1.1" xmlns="http://www.w3.org/2000/svg" xmlns:xlink="http://www.w3.org/1999/xlink" x="0px" y="0px"
	 viewBox="0 0 714 1060" style="enable-background:new 0 0 714 1060;" xml:space="preserve">
<style type="text/css">
	.st0{opacity:0.15;}
	.st1{fill:#FFFFFF;}
	.st2{opacity:0.9;}
	.st3{fill:none;stroke:#FF0080;stroke-width:2;stroke-linejoin:round;}
	.st4{fill:none;stroke:#FF0080;stroke-width:2;stroke-linejoin:round;stroke-dasharray:2.9705,2.9705;}
	.st5{fill:none;stroke:#FF0080;stroke-width:2;stroke-linejoin:round;stroke-dasharray:3.0199,3.0199;}
	.st6{opacity:0.7;fill:none;stroke:#FF0080;stroke-width:2;stroke-miterlimit:10;}
	.st7{opacity:0.3;}
	.st8{fill:none;stroke:#FF0080;stroke-width:0.25;stroke-miterlimit:10;}
	.st9{fill:none;stroke:#E40167;stroke-width:3;stroke-miterlimit:10;}
</style>
<g id="Layer_2">
	<rect x="0" y="530" width="714" height="530"/>
</g>
<g id="Layer_1">
	<g>
		<g>
			
				<rect x="552.44" y="336.99" transform="matrix(-4.546959e-11 1 -1 -4.546959e-11 904.0598 -204.4274)" width="3.6" height="25.66"/>
			<g>
				<path d="M540.13,351.62c-0.3-1.15-0.46-2.36-0.46-3.6c0-6.87,4.83-12.62,11.28-14.06c0.33,0.67,0.9,1.21,1.73,1.42
					c0.4,0.4,0.93,0.69,1.61,0.77c-0.22,0.32-0.37,0.68-0.45,1.07c-5.85,0.13-10.57,4.92-10.57,10.8c0,1.26,0.22,2.47,0.62,3.6
					L540.13,351.62z"/>
				<path d="M568.02,351.62l-3.76,0c0.66-1.4,0.62-1.96,0.62-3.6h3.6C568.47,349.26,568.31,350.47,568.02,351.62"/>
				<path d="M540.13,322.81l3.76,0c-0.66,1.4-0.62,1.96-0.62,3.6h-3.6C539.67,325.17,539.83,323.96,540.13,322.81"/>
			</g>
			
				<rect x="552.15" y="328.33" transform="matrix(-4.445884e-11 1 -1 -4.445884e-11 889.366 -218.5401)" width="3.6" height="14.17"/>
			<g>
				<path d="M568.47,322.81c0,7.94-6.46,14.4-14.4,14.4c-1.14,0-2.24-0.14-3.3-0.39c0.27-0.06,0.51-0.16,0.72-0.29
					c0.02,0,0.05,0,0.07,0c1.35,0,2.22-0.75,2.6-1.71c0.46-0.32,0.78-0.76,0.97-1.27c5.45-0.54,9.73-5.16,9.73-10.75H568.47z"/>
			</g>
			
				<rect x="551.96" y="311.71" transform="matrix(-4.445884e-11 1 -1 -4.445884e-11 878.3666 -229.1455)" width="3.6" height="25.8"/>
		</g>
		<path d="M268.84,337.2c0,7.94,6.46,14.4,14.4,14.4c7.94,0,14.4-6.46,14.4-14.4l0,0v-14.4h-3.6v14.4l0,0
			c0,5.96-4.85,10.8-10.8,10.8s-10.8-4.85-10.8-10.8l0,0v-14.4h-3.6V337.2L268.84,337.2z"/>
		<path d="M206.53,343.32L206.53,343.32l-15.05-15.05c1.77-1.26,3.92-2,6.25-2c2.98,0,5.68,1.21,7.63,3.17l2.54-2.54
			c-2.61-2.61-6.21-4.23-10.18-4.23c-4.63,0-8.76,2.2-11.39,5.61l2.59,2.54v0l15.05,15.05c-1.77,1.26-3.92,2-6.25,2
			c-5.96,0-10.8-4.85-10.8-10.8h-3.6c0,7.94,6.46,14.4,14.4,14.4c4.63,0,8.76-2.2,11.39-5.61L206.53,343.32z"/>
		<path d="M239.37,315.59L239.37,315.59l0-7.2h-3.6v7.2h-10.8c-0.01,1.16-0.01,2.32-0.02,3.48c3.61,0.03,7.21,0.06,10.82,0.09v32.44
			h3.6v-32.41c0,0,0,0,0,0c4.87,0,8.99,3.24,10.34,7.67l2.78-2.78C250.23,319.08,245.2,315.59,239.37,315.59z"/>
		<path d="M408.2,322.8v14.38c0,0,0,0,0,0c0,0.01,0,0.02,0,0.02c0,5.96-4.85,10.8-10.8,10.8c-0.35,0-0.69-0.02-1.04-0.05
			c2.96-2.64,4.83-6.48,4.83-10.75c0-6.06-3.77-11.25-9.08-13.37c0,0,0,0-0.01,0c0,0,0,0-0.01,0c0,0,0,0,0,0
			c-0.07,0.03-0.14,0.06-0.21,0.09c-0.02,0.01-0.04,0.02-0.05,0.02c-0.01,0-0.01,0.01-0.02,0.01c-5.17,2.19-8.82,7.29-8.82,13.25
			c0,4.27,1.87,8.11,4.83,10.75c-0.34,0.03-0.69,0.05-1.04,0.05c-5.96,0-10.8-4.85-10.8-10.8v0c0-0.16,0.01-0.32,0.01-0.49
			c0,0-0.01,0-0.01,0V322.8h-3.6v14.4c0,0,0,0,0,0c0,7.94,6.46,14.4,14.4,14.4c1.87,0,3.66-0.36,5.3-1.02
			c1.64,0.65,3.43,1.02,5.3,1.02c7.94,0,14.4-6.46,14.4-14.4v-14.4H408.2z M392.09,346.61c-3.28-1.86-5.5-5.38-5.5-9.41
			c0-4.03,2.23-7.54,5.51-9.39c3.27,1.86,5.49,5.37,5.49,9.39C397.59,341.24,395.37,344.76,392.09,346.61z"/>
		<g>
			<g>
				<path d="M463.38,348c-5.96,0-10.8-4.85-10.8-10.8s4.85-10.8,10.8-10.8v-3.6c-7.94,0-14.4,6.46-14.4,14.4
					c0,7.94,6.46,14.4,14.4,14.4V348z"/>
			</g>
			<g>
				<path d="M434.57,348c5.96,0,10.8-4.85,10.8-10.8s-4.85-10.8-10.8-10.8v-3.6c7.94,0,14.4,6.46,14.4,14.4
					c0,7.94-6.46,14.4-14.4,14.4V348z"/>
			</g>
		</g>
		<path d="M513.41,324.32h-0.01v-0.01h-3.6v14.4c0,5.96-4.85,10.8-10.8,10.8s-10.8-4.85-10.8-10.8v-14.4h-3.6v14.4
			c0,7.94,6.46,14.4,14.4,14.4c4.26,0,8.09-1.86,10.73-4.81c0.05,0.4,0.07,0.8,0.07,1.21c0,5.96-4.85,10.8-10.8,10.8
			c-2.01,0-3.89-0.55-5.5-1.51l-2.6,2.6c2.31,1.58,5.1,2.5,8.11,2.5c7.94,0,14.4-6.46,14.4-14.4c0-0.01,0-0.01,0-0.02h0.02V324.32z"
			/>
		<path d="M345.56,322.8v14.4c0,2.82-3,5.59-5.51,7.42c-2.09,1.52-4.22,2.65-5.3,3.19c-3.46-1.71-10.8-6.23-10.8-10.61v-14.4h-3.6
			v14.4c0,3.5,2.37,6.99,7.05,10.37c3.26,2.36,6.49,3.82,6.62,3.88c0.23,0.11,0.49,0.16,0.74,0.16s0.5-0.05,0.74-0.16
			c0.14-0.06,3.36-1.51,6.62-3.88c4.68-3.38,7.05-6.87,7.05-10.37v-14.4H345.56z"/>
		<path d="M146.53,337.2v14.4h3.6v-4.89v-9.51c0-5.96,4.85-10.8,10.8-10.8v-3.6C152.99,322.8,146.53,329.26,146.53,337.2z"/>
	</g>
	<g>
		<path id="M-Alt_4_" d="M320.6,231.63c-1.87,0-3.66,0.36-5.3,1.02c-1.64-0.65-3.43-1.02-5.3-1.02c-7.94,0-14.4,6.46-14.4,14.4v14.4
			h3.6v-14.38c0,0,0,0,0,0c0-0.01,0-0.02,0-0.02c0-5.96,4.85-10.8,10.8-10.8c0.35,0,0.69,0.02,1.04,0.05
			c-2.96,2.64-4.83,6.48-4.83,10.75c0,6.06,3.77,11.25,9.08,13.37c0,0,0,0,0.01,0c0,0,0,0,0.01,0c0,0,0,0,0,0
			c0.07-0.03,0.14-0.06,0.21-0.09c0.02-0.01,0.04-0.02,0.05-0.02c0.01,0,0.01-0.01,0.02-0.01c5.17-2.19,8.82-7.29,8.82-13.25
			c0-4.27-1.87-8.11-4.83-10.75c0.34-0.03,0.69-0.05,1.04-0.05c5.96,0,10.8,4.85,10.8,10.8v0c0,0.16-0.01,0.32-0.01,0.49
			c0,0,0.01,0,0.01,0v13.92h3.6v-14.4c0,0,0,0,0,0C335,238.1,328.54,231.63,320.6,231.63z M320.8,246.04c0,4.03-2.23,7.54-5.51,9.39
			c-3.27-1.86-5.49-5.37-5.49-9.39c0-4.03,2.22-7.55,5.5-9.41C318.58,238.49,320.8,242.01,320.8,246.04z"/>
		<g>
			<path d="M428.31,260.44c-7.94,0-14.4-6.46-14.4-14.4c0-7.94,6.46-14.4,14.4-14.4s14.4,6.46,14.4,14.4
				C442.72,253.98,436.26,260.44,428.31,260.44z M428.31,235.23c-5.96,0-10.8,4.85-10.8,10.8c0,5.96,4.85,10.8,10.8,10.8
				s10.8-4.85,10.8-10.8C439.12,240.08,434.27,235.23,428.31,235.23z"/>
		</g>
		<g>
			<g>
				<path d="M478.74,260.09c-7.94,0-14.4-6.46-14.4-14.4c0-7.94,6.46-14.4,14.4-14.4s14.4,6.46,14.4,14.4
					C493.14,253.63,486.68,260.09,478.74,260.09z M478.74,234.88c-5.96,0-10.8,4.85-10.8,10.8c0,5.96,4.85,10.8,10.8,10.8
					s10.8-4.85,10.8-10.8C489.54,239.73,484.69,234.88,478.74,234.88z"/>
			</g>
			<rect x="464.33" y="245.24" width="3.6" height="29.26"/>
		</g>
		<path d="M543.22,245.16c0-0.01,0-0.01,0-0.02v-0.43h-0.01c-0.24-7.73-6.6-13.95-14.39-13.95c-7.94,0-14.4,6.46-14.4,14.4
			s6.46,14.4,14.4,14.4c4.3,0,8.16-1.9,10.8-4.89v19.29h3.6v-28.79C543.22,245.17,543.22,245.17,543.22,245.16z M528.81,255.97
			c-5.96,0-10.8-4.85-10.8-10.8s4.85-10.8,10.8-10.8s10.8,4.85,10.8,10.8S534.77,255.97,528.81,255.97z"/>
		<path id="N_4_" d="M373.83,231.63c-7.94,0-14.4,6.46-14.4,14.4v14.4h3.6v-14.4c0-5.96,4.85-10.8,10.8-10.8
			c5.96,0,10.8,4.85,10.8,10.8v14.4h3.6v-14.4C388.24,238.1,381.78,231.63,373.83,231.63z"/>
		<g>
			<path id="J_4_" d="M171.79,274.44c2.6,2.54,6.15,4.11,10.07,4.11c7.94,0,14.4-6.46,14.4-14.4v-3.6v-25.21h-3.6v19.29v5.91v3.6
				c0,5.96-4.85,10.8-10.8,10.8c-2.92,0-5.58-1.17-7.52-3.06L171.79,274.44z"/>
			<g>
				<path d="M192.9,231.55c0.89-2.28,2.36-4.37,4.41-6.01l1.98,2.48c-1.12,0.9-2.12,2.35-2.78,3.53H192.9z"/>
			</g>
		</g>
		<rect id="L_12_" x="268.15" y="217.23" width="3.6" height="43.21"/>
		<path id="K_4_" d="M244.16,253.67c-1.95,1.92-4.63,3.11-7.58,3.11c-5.96,0-10.8-4.85-10.8-10.8c0-5.96,4.85-10.8,10.8-10.8v-3.6
			c-4.3,0-8.16,1.9-10.8,4.89v-19.24h-3.6v43.21h3.6v-4.95c2.64,3,6.5,4.89,10.8,4.89c3.94,0,7.52-1.59,10.12-4.17L244.16,253.67z"
			/>
	</g>
	<g>
		<g id="I_4_">
			<rect x="553.7" y="137.77" width="3.6" height="28.81"/>
			<g>
				<path d="M553.69,134.17c0.89-2.28,2.36-4.37,4.41-6.01l1.98,2.48c-1.12,0.9-2.12,2.35-2.78,3.53H553.69z"/>
			</g>
		</g>
		<g>
			<path id="H_4_" d="M527.76,152.17c0-7.94-6.46-14.4-14.4-14.4c-4.3,0-8.16,1.9-10.8,4.89v-18.85h-3.6v42.76h3.6v-14.41
				c0-5.96,4.85-10.8,10.8-10.8s10.8,4.85,10.8,10.8c0,0,0,0,0,0h0v14.4h3.6V152.17L527.76,152.17
				C527.75,152.17,527.76,152.17,527.76,152.17z"/>
		</g>
		<path id="G_4_" d="M477.23,152.66c0-2.62-0.71-5.08-1.94-7.2c1.23-2.12,1.94-4.58,1.94-7.2h-3.6c0,1.44-0.29,2.8-0.8,4.06
			c-2.59-2.51-6.12-4.06-10.01-4.06c-7.79,0-14.15,6.22-14.39,13.95h-0.01v29.26c0,7.94,6.46,14.4,14.4,14.4s14.4-6.46,14.4-14.4
			s-6.46-14.4-14.4-14.4c-4.3,0-8.16,1.9-10.8,4.89v-9.78c2.64,3,6.5,4.89,10.8,4.89C470.77,167.07,477.23,160.61,477.23,152.66z
			 M462.83,170.67c5.96,0,10.8,4.85,10.8,10.8s-4.85,10.8-10.8,10.8s-10.8-4.85-10.8-10.8S456.87,170.67,462.83,170.67z
			 M462.83,163.47c-5.96,0-10.8-4.85-10.8-10.8s4.85-10.8,10.8-10.8s10.8,4.85,10.8,10.8S468.78,163.47,462.83,163.47z"/>
		<path id="F_4_" d="M436.59,127.48c-2.6-2.54-6.15-4.11-10.07-4.11c-7.94,0-14.4,6.46-14.4,14.4v3.6v25.21h3.6v-19.29v-5.91h10.8
			v-3.6h-10.8c0-5.96,4.85-10.8,10.8-10.8c2.92,0,5.58,1.17,7.52,3.06L436.59,127.48z"/>
		<path id="E_4_" d="M382.45,159.86c-1.95,1.92-4.63,3.11-7.58,3.11c-4.69,0-8.7-3.01-10.18-7.2h20.37l0,0h3.76
			c0.3-1.15,0.46-2.36,0.46-3.6c0-7.94-6.46-14.4-14.4-14.4c-7.94,0-14.4,6.46-14.4,14.4s6.46,14.4,14.4,14.4
			c3.94,0,7.52-1.59,10.12-4.17L382.45,159.86z M374.87,141.37c5.96,0,10.8,4.85,10.8,10.8h-21.6
			C364.07,146.22,368.92,141.37,374.87,141.37z"/>
		<path id="D_4_" d="M332.13,123.37v19.29c-2.64-3-6.5-4.89-10.8-4.89c-7.94,0-14.4,6.46-14.4,14.4s6.46,14.4,14.4,14.4
			c7.94,0,14.4-6.46,14.4-14.4v-28.81H332.13z M321.33,162.98c-5.96,0-10.8-4.85-10.8-10.8s4.85-10.8,10.8-10.8
			c5.96,0,10.8,4.85,10.8,10.8S327.29,162.98,321.33,162.98z"/>
		<path id="C_4_" d="M284.04,141.87c-2.6-2.54-6.15-4.1-10.06-4.1c-7.94,0-14.4,6.46-14.4,14.4c0,7.94,6.46,14.4,14.4,14.4
			c3.94,0,7.52-1.59,10.12-4.17l-2.55-2.55c-1.95,1.92-4.63,3.11-7.58,3.11c-5.96,0-10.8-4.85-10.8-10.8c0-5.96,4.85-10.8,10.8-10.8
			c2.9,0,5.54,1.15,7.49,3.03L284.04,141.87z"/>
		<path id="B_4_" d="M221.85,137.77c-4.3,0-8.16,1.9-10.8,4.89v-19.29h-3.6v28.81c0,7.94,6.46,14.4,14.4,14.4s14.4-6.46,14.4-14.4
			S229.79,137.77,221.85,137.77z M221.85,162.98c-5.96,0-10.8-4.85-10.8-10.8s4.85-10.8,10.8-10.8s10.8,4.85,10.8,10.8
			S227.81,162.98,221.85,162.98z"/>
		<path id="A_4_" d="M169.32,137.77c-7.94,0-14.4,6.46-14.4,14.4c0,7.94,6.46,14.4,14.4,14.4c4.3,0,8.16-1.9,10.8-4.89v4.89h3.6
			v-14.4C183.73,144.23,177.27,137.77,169.32,137.77z M169.32,162.98c-5.96,0-10.8-4.85-10.8-10.8c0-5.96,4.85-10.8,10.8-10.8
			c5.96,0,10.8,4.85,10.8,10.8C180.13,158.13,175.28,162.98,169.32,162.98z"/>
	</g>
	<g>
		<g>
			<g>
				<path d="M143.32,410.11c-1.04,2.87-3.26,5.19-6.07,6.34l2.7,2.7c3.49-1.87,6.12-5.14,7.14-9.05L143.32,410.11z"/>
			</g>
			<rect x="143.51" y="410.11" width="3.6" height="28.81"/>
		</g>
		<g>
			<g>
				<path d="M170.17,438.9l2.74,0.01c1.97-2.69,5.14-4.45,8.73-4.45c2.38,0,4.59,0.78,6.38,2.09l4.26-0.98
					c-2.64-2.89-6.43-4.71-10.64-4.71c-4.62,0-8.74,2.19-11.38,5.58L170.17,438.9z"/>
			</g>
			<g>
				<path d="M199.05,434.87c-0.99,0.32-2.04,0.5-3.13,0.5c-2.31,0-4.46-0.78-6.22-2.02l-3.68,1.63c2.58,2.44,6.06,3.95,9.89,3.95
					c1.08,0,2.13-0.12,3.14-0.35L199.05,434.87z"/>
			</g>
			<g>
				<path d="M196.04,415.67c-2.64-3.39-6.75-5.58-11.37-5.58c-3.97,0-7.57,1.62-10.18,4.23l2.54,2.54c1.96-1.96,4.66-3.17,7.63-3.17
					c3.63,0,6.84,1.8,8.8,4.55L196.04,415.67z"/>
			</g>
			<polygon points="170.97,435.64 193.49,413.12 196.03,415.67 172.8,438.91 170.17,438.9 			"/>
		</g>
		<g>
			
				<rect id="L_11_" x="468.69" y="398.86" transform="matrix(-1.836970e-16 1 -1 -1.836970e-16 882.3676 -58.6177)" width="3.6" height="26.03"/>
			
				<rect id="L_8_" x="468.71" y="423.76" transform="matrix(-1.836970e-16 1 -1 -1.836970e-16 907.5928 -33.432)" width="3.6" height="26.64"/>
			<path d="M480.68,410.07c0.4,1.13,0.62,2.34,0.62,3.6c0,5.96-4.85,10.8-10.8,10.8c-5.96,0-10.8-4.85-10.8-10.8
				c0-1.26,0.22-2.47,0.62-3.6l-3.76,0c-0.3,1.15-0.46,2.36-0.46,3.6c0,7.94,6.46,14.4,14.4,14.4c7.94,0,14.4-6.46,14.4-14.4
				c0-1.24-0.16-2.45-0.46-3.6L480.68,410.07z"/>
			<path d="M483.83,438.92c0.69-1.68,1.07-3.51,1.07-5.44c0-7.94-6.46-14.4-14.4-14.4c-7.94,0-14.4,6.46-14.4,14.4
				c0,1.92,0.38,3.74,1.06,5.42l3.99-0.02c-0.92-1.59-1.45-3.43-1.45-5.4c0-5.96,4.85-10.8,10.8-10.8c5.96,0,10.8,4.85,10.8,10.8
				c0,1.97-0.53,3.81-1.45,5.4L483.83,438.92z"/>
		</g>
		<g>
			<path d="M563.35,410.11c-7.94,0-14.4,6.46-14.4,14.4c0,7.94,6.46,14.4,14.4,14.4c7.94,0,14.4-6.46,14.4-14.4
				C577.75,416.57,571.29,410.11,563.35,410.11z M563.35,435.32c-5.96,0-10.8-4.85-10.8-10.8s4.85-10.8,10.8-10.8
				s10.8,4.85,10.8,10.8S569.31,435.32,563.35,435.32z"/>
			<rect x="561.5" y="410.16" transform="matrix(0.7071 -0.7071 0.7071 0.7071 -135.2277 522.6657)" width="3.6" height="28.81"/>
		</g>
		<g>
			<path d="M403.3,438.92c-0.3-1.15-0.46-2.36-0.46-3.6c0-6.87,4.83-12.62,11.28-14.06c0.33,0.67,0.9,1.21,1.73,1.42
				c0.4,0.4,0.93,0.69,1.61,0.77c-0.22,0.32-0.37,0.68-0.45,1.07c-5.85,0.13-10.57,4.92-10.57,10.8c0,1.26,0.22,2.47,0.62,3.6
				L403.3,438.92z"/>
			<rect x="415.33" y="415.63" transform="matrix(-4.597496e-11 1 -1 -4.597496e-11 839.8425 5.5888)" width="3.6" height="14.17"/>
			<g>
				<path d="M431.65,410.11c0,7.94-6.46,14.4-14.4,14.4c-1.14,0-2.24-0.14-3.3-0.39c0.27-0.06,0.51-0.16,0.72-0.29
					c0.02,0,0.05,0,0.07,0c1.35,0,2.22-0.75,2.6-1.71c0.46-0.32,0.78-0.76,0.97-1.27c5.45-0.54,9.73-5.16,9.73-10.75H431.65z"/>
			</g>
			<polygon points="429.11,410.11 429.11,413.71 406.44,413.71 402.84,410.11 			"/>
		</g>
		<g>
			<path d="M307.21,436.26c2.35,1.67,5.22,2.66,8.32,2.66c7.94,0,14.4-6.46,14.4-14.4c0-0.61-0.04-1.21-0.11-1.8h-3.64
				c0.1,0.59,0.15,1.19,0.15,1.8c0,5.96-4.85,10.8-10.8,10.8c-2.1,0-4.07-0.6-5.73-1.65L307.21,436.26z"/>
			<rect x="319" y="415.47" transform="matrix(6.123234e-17 -1 1 6.123234e-17 -103.7157 745.3162)" width="3.6" height="18.09"/>
			
				<rect x="311.76" y="410.11" transform="matrix(-1 -1.224647e-16 1.224647e-16 -1 627.1149 836.4291)" width="3.6" height="16.2"/>
			<rect x="315.43" y="406.44" transform="matrix(6.123234e-17 -1 1 6.123234e-17 -94.6842 729.142)" width="3.6" height="10.94"/>
		</g>
		<g>
			<path d="M522.13,410.11c-7.94,0-14.4,6.46-14.4,14.4h3.6c0-5.96,4.85-10.8,10.8-10.8V410.11z"/>
			<rect x="522.13" y="410.11" width="3.6" height="28.81"/>
			<rect x="513.93" y="418.31" transform="matrix(6.123234e-17 -1 1 6.123234e-17 89.4138 942.0465)" width="3.6" height="16.01"/>
		</g>
		<g>
			<polygon points="381.34,422.84 381.34,424.52 380.77,426.44 362.45,426.44 365.94,422.84 			"/>
			<path d="M377.11,414.34c-2.61-2.61-6.21-4.23-10.18-4.23c-7.94,0-14.4,6.46-14.4,14.4c0,7.94,6.46,14.4,14.4,14.4
				c7.94,0,14.4-6.46,14.4-14.4c0-0.31-0.01-0.61-0.03-0.92c-1.09,0.55-2.35,0.78-3.57,0.83c0,0.03,0,0.06,0,0.09
				c0,5.96-4.85,10.8-10.8,10.8s-10.8-4.85-10.8-10.8s4.85-10.8,10.8-10.8c2.97,0,5.66,1.2,7.61,3.14L377.11,414.34z"/>
			<rect x="361.25" y="422.92" transform="matrix(0.7071 0.7071 -0.7071 0.7071 409.2563 -131.2448)" width="3.6" height="10.94"/>
		</g>
		<g>
			<rect x="278.69" y="410.11" width="3.6" height="28.81"/>
			<rect x="274.99" y="419.11" transform="matrix(6.123234e-17 -1 1 6.123234e-17 -153.1227 706.7061)" width="3.6" height="21.6"/>
			<path d="M273.36,417.64c0,4.76-3.09,8.8-7.37,10.24l-0.03,3.76c5.31-1.29,9.48-5.52,10.66-10.86L273.36,417.64z"/>
		</g>
		<path d="M234.64,422.87l4.78-4.78v0l2.57-2.57c-0.74-0.95-1.59-1.8-2.54-2.53l-0.01-0.01l0,0c-2.44-1.9-5.5-3.03-8.82-3.03
			c-3.97,0-7.57,1.62-10.18,4.23l2.54,2.54c1.96-1.96,4.66-3.17,7.63-3.17c2.33,0,4.49,0.74,6.25,2l-6.26,6.26l0,2.63l0.01,0.98
			c0.02,0,0.05,0,0.07,0c0.43,0,0.81,0.06,1.17,0.16c2.98,1.14,5.34,3.55,6.38,6.58c-1.96,1.96-4.65,3.17-7.63,3.17
			c-2.98,0-5.68-1.21-7.63-3.17l-2.54,2.54c2.61,2.61,6.21,4.23,10.18,4.23c4.62,0,8.98-2.29,11.62-5.69
			C241.45,428.75,238.56,424.91,234.64,422.87z"/>
	</g>
	<g>
		<g>
			
				<rect x="552.44" y="843.07" transform="matrix(-4.546959e-11 1 -1 -4.546959e-11 1410.1406 301.6535)" class="st1" width="3.6" height="25.66"/>
			<g>
				<path class="st1" d="M540.13,857.7c-0.3-1.15-0.46-2.36-0.46-3.6c0-6.87,4.83-12.62,11.28-14.06c0.33,0.67,0.9,1.21,1.73,1.42
					c0.4,0.4,0.93,0.69,1.61,0.77c-0.22,0.32-0.37,0.68-0.45,1.07c-5.85,0.13-10.57,4.92-10.57,10.8c0,1.26,0.22,2.47,0.62,3.6
					L540.13,857.7z"/>
				<path class="st1" d="M568.02,857.7h-3.76c0.66-1.4,0.62-1.96,0.62-3.6h3.6C568.47,855.34,568.31,856.55,568.02,857.7"/>
				<path class="st1" d="M540.13,828.89l3.76,0c-0.66,1.4-0.62,1.96-0.62,3.6h-3.6C539.67,831.25,539.83,830.04,540.13,828.89"/>
			</g>
			
				<rect x="552.15" y="834.41" transform="matrix(-4.445884e-11 1 -1 -4.445884e-11 1395.4469 287.5408)" class="st1" width="3.6" height="14.17"/>
			<g>
				<path class="st1" d="M568.47,828.89c0,7.94-6.46,14.4-14.4,14.4c-1.14,0-2.24-0.14-3.3-0.39c0.27-0.06,0.51-0.16,0.72-0.29
					c0.02,0,0.05,0,0.07,0c1.35,0,2.22-0.75,2.6-1.71c0.46-0.32,0.78-0.76,0.97-1.27c5.45-0.54,9.73-5.16,9.73-10.75H568.47z"/>
			</g>
			
				<rect x="551.96" y="817.79" transform="matrix(-4.445884e-11 1 -1 -4.445884e-11 1384.4475 276.9353)" class="st1" width="3.6" height="25.8"/>
		</g>
		<path class="st1" d="M268.84,843.28c0,7.94,6.46,14.4,14.4,14.4c7.94,0,14.4-6.46,14.4-14.4l0,0v-14.4h-3.6v14.4l0,0
			c0,5.96-4.85,10.8-10.8,10.8s-10.8-4.85-10.8-10.8l0,0v-14.4h-3.6V843.28L268.84,843.28z"/>
		<path class="st1" d="M206.53,849.4L206.53,849.4l-15.05-15.05c1.77-1.26,3.92-2,6.25-2c2.98,0,5.68,1.21,7.63,3.17l2.54-2.54
			c-2.61-2.61-6.21-4.23-10.18-4.23c-4.63,0-8.76,2.2-11.39,5.61l2.59,2.54v0l15.05,15.05c-1.77,1.26-3.92,2-6.25,2
			c-5.96,0-10.8-4.85-10.8-10.8h-3.6c0,7.94,6.46,14.4,14.4,14.4c4.63,0,8.76-2.2,11.39-5.61L206.53,849.4z"/>
		<path class="st1" d="M239.37,821.67L239.37,821.67l0-7.2h-3.6v7.2h-10.8c-0.01,1.16-0.01,2.32-0.02,3.48
			c3.61,0.03,7.21,0.06,10.82,0.09v32.44h3.6v-32.41c0,0,0,0,0,0c4.87,0,8.99,3.24,10.34,7.67l2.78-2.78
			C250.23,825.16,245.2,821.67,239.37,821.67z"/>
		<path class="st1" d="M408.2,828.88v14.38c0,0,0,0,0,0c0,0.01,0,0.02,0,0.02c0,5.96-4.85,10.8-10.8,10.8
			c-0.35,0-0.69-0.02-1.04-0.05c2.96-2.64,4.83-6.48,4.83-10.75c0-6.06-3.77-11.25-9.08-13.37c0,0,0,0-0.01,0c0,0,0,0-0.01,0
			c0,0,0,0,0,0c-0.07,0.03-0.14,0.06-0.21,0.09c-0.02,0.01-0.04,0.02-0.05,0.02c-0.01,0-0.01,0.01-0.02,0.01
			c-5.17,2.19-8.82,7.29-8.82,13.25c0,4.27,1.87,8.11,4.83,10.75c-0.34,0.03-0.69,0.05-1.04,0.05c-5.96,0-10.8-4.85-10.8-10.8v0
			c0-0.16,0.01-0.32,0.01-0.49c0,0-0.01,0-0.01,0v-13.92h-3.6v14.4c0,0,0,0,0,0c0,7.94,6.46,14.4,14.4,14.4
			c1.87,0,3.66-0.36,5.3-1.02c1.64,0.65,3.43,1.02,5.3,1.02c7.94,0,14.4-6.46,14.4-14.4v-14.4H408.2z M392.09,852.69
			c-3.28-1.86-5.5-5.38-5.5-9.41c0-4.03,2.23-7.54,5.51-9.39c3.27,1.86,5.49,5.37,5.49,9.39
			C397.59,847.32,395.37,850.84,392.09,852.69z"/>
		<g>
			<g>
				<path class="st1" d="M463.38,854.08c-5.96,0-10.8-4.85-10.8-10.8s4.85-10.8,10.8-10.8v-3.6c-7.94,0-14.4,6.46-14.4,14.4
					s6.46,14.4,14.4,14.4V854.08z"/>
			</g>
			<g>
				<path class="st1" d="M434.57,854.08c5.96,0,10.8-4.85,10.8-10.8s-4.85-10.8-10.8-10.8v-3.6c7.94,0,14.4,6.46,14.4,14.4
					s-6.46,14.4-14.4,14.4V854.08z"/>
			</g>
		</g>
		<path class="st1" d="M513.41,830.41h-0.01v-0.01h-3.6v14.4c0,5.96-4.85,10.8-10.8,10.8s-10.8-4.85-10.8-10.8v-14.4h-3.6v14.4
			c0,7.94,6.46,14.4,14.4,14.4c4.26,0,8.09-1.86,10.73-4.81c0.05,0.4,0.07,0.8,0.07,1.21c0,5.96-4.85,10.8-10.8,10.8
			c-2.01,0-3.89-0.55-5.5-1.51l-2.6,2.6c2.31,1.58,5.1,2.5,8.11,2.5c7.94,0,14.4-6.46,14.4-14.4c0-0.01,0-0.01,0-0.02h0.02V830.41z"
			/>
		<path class="st1" d="M345.56,828.88v14.4c0,2.82-3,5.59-5.51,7.42c-2.09,1.52-4.22,2.65-5.3,3.19c-3.46-1.71-10.8-6.23-10.8-10.61
			v-14.4h-3.6v14.4c0,3.5,2.37,6.99,7.05,10.37c3.26,2.36,6.49,3.82,6.62,3.88c0.23,0.11,0.49,0.16,0.74,0.16s0.5-0.05,0.74-0.16
			c0.14-0.06,3.36-1.51,6.62-3.88c4.68-3.38,7.05-6.87,7.05-10.37v-14.4H345.56z"/>
		<path class="st1" d="M146.53,843.28v14.4h3.6v-4.89v-9.51c0-5.96,4.85-10.8,10.8-10.8v-3.6
			C152.99,828.88,146.53,835.34,146.53,843.28z"/>
	</g>
	<g>
		<path id="M-Alt_2_" class="st1" d="M320.6,737.72c-1.87,0-3.66,0.36-5.3,1.02c-1.64-0.65-3.43-1.02-5.3-1.02
			c-7.94,0-14.4,6.46-14.4,14.4v14.4h3.6v-14.38c0,0,0,0,0,0c0-0.01,0-0.02,0-0.02c0-5.96,4.85-10.8,10.8-10.8
			c0.35,0,0.69,0.02,1.04,0.05c-2.96,2.64-4.83,6.48-4.83,10.75c0,6.06,3.77,11.25,9.08,13.37c0,0,0,0,0.01,0c0,0,0,0,0.01,0
			c0,0,0,0,0,0c0.07-0.03,0.14-0.06,0.21-0.09c0.02-0.01,0.04-0.02,0.05-0.02c0.01,0,0.01-0.01,0.02-0.01
			c5.17-2.19,8.82-7.29,8.82-13.25c0-4.27-1.87-8.11-4.83-10.75c0.34-0.03,0.69-0.05,1.04-0.05c5.96,0,10.8,4.85,10.8,10.8v0
			c0,0.16-0.01,0.32-0.01,0.49c0,0,0.01,0,0.01,0v13.92h3.6v-14.4c0,0,0,0,0,0C335,744.18,328.54,737.72,320.6,737.72z
			 M320.8,752.12c0,4.03-2.23,7.54-5.51,9.39c-3.27-1.86-5.49-5.37-5.49-9.39c0-4.03,2.22-7.55,5.5-9.41
			C318.58,744.57,320.8,748.09,320.8,752.12z"/>
		<g>
			<path class="st1" d="M428.31,766.52c-7.94,0-14.4-6.46-14.4-14.4c0-7.94,6.46-14.4,14.4-14.4s14.4,6.46,14.4,14.4
				C442.72,760.06,436.26,766.52,428.31,766.52z M428.31,741.32c-5.96,0-10.8,4.85-10.8,10.8s4.85,10.8,10.8,10.8
				s10.8-4.85,10.8-10.8S434.27,741.32,428.31,741.32z"/>
		</g>
		<g>
			<g>
				<path class="st1" d="M478.74,766.17c-7.94,0-14.4-6.46-14.4-14.4s6.46-14.4,14.4-14.4s14.4,6.46,14.4,14.4
					S486.68,766.17,478.74,766.17z M478.74,740.96c-5.96,0-10.8,4.85-10.8,10.8s4.85,10.8,10.8,10.8s10.8-4.85,10.8-10.8
					S484.69,740.96,478.74,740.96z"/>
			</g>
			<rect x="464.33" y="751.32" class="st1" width="3.6" height="29.26"/>
		</g>
		<path class="st1" d="M543.22,751.24c0-0.01,0-0.01,0-0.02v-0.43h-0.01c-0.24-7.73-6.6-13.95-14.39-13.95
			c-7.94,0-14.4,6.46-14.4,14.4c0,7.94,6.46,14.4,14.4,14.4c4.3,0,8.16-1.9,10.8-4.89v19.29h3.6v-28.79
			C543.22,751.25,543.22,751.25,543.22,751.24z M528.81,762.05c-5.96,0-10.8-4.85-10.8-10.8s4.85-10.8,10.8-10.8
			s10.8,4.85,10.8,10.8S534.77,762.05,528.81,762.05z"/>
		<path id="N_2_" class="st1" d="M373.83,737.72c-7.94,0-14.4,6.46-14.4,14.4v14.4h3.6v-14.4c0-5.96,4.85-10.8,10.8-10.8
			c5.96,0,10.8,4.85,10.8,10.8v14.4h3.6v-14.4C388.24,744.18,381.78,737.72,373.83,737.72z"/>
		<g>
			<path id="J_2_" class="st1" d="M171.79,780.52c2.6,2.54,6.15,4.11,10.07,4.11c7.94,0,14.4-6.46,14.4-14.4v-3.6v-25.21h-3.6v19.29
				v5.91v3.6c0,5.96-4.85,10.8-10.8,10.8c-2.92,0-5.58-1.17-7.52-3.06L171.79,780.52z"/>
			<g>
				<path class="st1" d="M192.9,737.63c0.89-2.28,2.36-4.37,4.41-6.01l1.98,2.48c-1.12,0.9-2.12,2.35-2.78,3.53H192.9z"/>
			</g>
		</g>
		<rect id="L_6_" x="268.15" y="723.31" class="st1" width="3.6" height="43.21"/>
		<path id="K_2_" class="st1" d="M244.16,759.75c-1.95,1.92-4.63,3.11-7.58,3.11c-5.96,0-10.8-4.85-10.8-10.8
			c0-5.96,4.85-10.8,10.8-10.8v-3.6c-4.3,0-8.16,1.9-10.8,4.89v-19.24h-3.6v43.21h3.6v-4.95c2.64,3,6.5,4.89,10.8,4.89
			c3.94,0,7.52-1.59,10.12-4.17L244.16,759.75z"/>
	</g>
	<g>
		<g id="I_2_">
			<rect x="553.7" y="643.85" class="st1" width="3.6" height="28.81"/>
			<g>
				<path class="st1" d="M553.69,640.25c0.89-2.28,2.36-4.37,4.41-6.01l1.98,2.48c-1.12,0.9-2.12,2.35-2.78,3.53H553.69z"/>
			</g>
		</g>
		<g>
			<path id="H_2_" class="st1" d="M527.76,658.25c0-7.94-6.46-14.4-14.4-14.4c-4.3,0-8.16,1.9-10.8,4.89V629.9h-3.6v42.76h3.6
				v-14.41c0-5.96,4.85-10.8,10.8-10.8s10.8,4.85,10.8,10.8c0,0,0,0,0,0h0v14.4h3.6V658.25L527.76,658.25
				C527.75,658.26,527.76,658.25,527.76,658.25z"/>
		</g>
		<path id="G_2_" class="st1" d="M477.23,658.74c0-2.62-0.71-5.08-1.94-7.2c1.23-2.12,1.94-4.58,1.94-7.2h-3.6
			c0,1.44-0.29,2.8-0.8,4.06c-2.59-2.51-6.12-4.06-10.01-4.06c-7.79,0-14.15,6.22-14.39,13.95h-0.01v29.26
			c0,7.94,6.46,14.4,14.4,14.4s14.4-6.46,14.4-14.4s-6.46-14.4-14.4-14.4c-4.3,0-8.16,1.9-10.8,4.89v-9.78
			c2.64,3,6.5,4.89,10.8,4.89C470.77,673.15,477.23,666.69,477.23,658.74z M462.83,676.75c5.96,0,10.8,4.85,10.8,10.8
			s-4.85,10.8-10.8,10.8s-10.8-4.85-10.8-10.8S456.87,676.75,462.83,676.75z M462.83,669.55c-5.96,0-10.8-4.85-10.8-10.8
			s4.85-10.8,10.8-10.8s10.8,4.85,10.8,10.8S468.78,669.55,462.83,669.55z"/>
		<path id="F_2_" class="st1" d="M436.59,633.56c-2.6-2.54-6.15-4.11-10.07-4.11c-7.94,0-14.4,6.46-14.4,14.4v3.6v25.21h3.6v-19.29
			v-5.91h10.8v-3.6h-10.8c0-5.96,4.85-10.8,10.8-10.8c2.92,0,5.58,1.17,7.52,3.06L436.59,633.56z"/>
		<path id="E_2_" class="st1" d="M382.45,665.94c-1.95,1.92-4.63,3.11-7.58,3.11c-4.69,0-8.7-3.01-10.18-7.2h20.37l0,0h3.76
			c0.3-1.15,0.46-2.36,0.46-3.6c0-7.94-6.46-14.4-14.4-14.4c-7.94,0-14.4,6.46-14.4,14.4s6.46,14.4,14.4,14.4
			c3.94,0,7.52-1.59,10.12-4.17L382.45,665.94z M374.87,647.45c5.96,0,10.8,4.85,10.8,10.8h-21.6
			C364.07,652.3,368.92,647.45,374.87,647.45z"/>
		<path id="D_2_" class="st1" d="M332.13,629.45v19.29c-2.64-3-6.5-4.89-10.8-4.89c-7.94,0-14.4,6.46-14.4,14.4s6.46,14.4,14.4,14.4
			c7.94,0,14.4-6.46,14.4-14.4v-28.81H332.13z M321.33,669.06c-5.96,0-10.8-4.85-10.8-10.8s4.85-10.8,10.8-10.8
			c5.96,0,10.8,4.85,10.8,10.8S327.29,669.06,321.33,669.06z"/>
		<path id="C_2_" class="st1" d="M284.04,647.95c-2.6-2.54-6.15-4.1-10.06-4.1c-7.94,0-14.4,6.46-14.4,14.4
			c0,7.94,6.46,14.4,14.4,14.4c3.94,0,7.52-1.59,10.12-4.17l-2.55-2.55c-1.95,1.92-4.63,3.11-7.58,3.11c-5.96,0-10.8-4.85-10.8-10.8
			c0-5.96,4.85-10.8,10.8-10.8c2.9,0,5.54,1.15,7.49,3.03L284.04,647.95z"/>
		<path id="B_2_" class="st1" d="M221.85,643.85c-4.3,0-8.16,1.9-10.8,4.89v-19.29h-3.6v28.81c0,7.94,6.46,14.4,14.4,14.4
			s14.4-6.46,14.4-14.4S229.79,643.85,221.85,643.85z M221.85,669.06c-5.96,0-10.8-4.85-10.8-10.8s4.85-10.8,10.8-10.8
			s10.8,4.85,10.8,10.8S227.81,669.06,221.85,669.06z"/>
		<path id="A_2_" class="st1" d="M169.32,643.85c-7.94,0-14.4,6.46-14.4,14.4c0,7.94,6.46,14.4,14.4,14.4c4.3,0,8.16-1.9,10.8-4.89
			v4.89h3.6v-14.4C183.73,650.31,177.27,643.85,169.32,643.85z M169.32,669.06c-5.96,0-10.8-4.85-10.8-10.8
			c0-5.96,4.85-10.8,10.8-10.8c5.96,0,10.8,4.85,10.8,10.8C180.13,664.21,175.28,669.06,169.32,669.06z"/>
	</g>
	<g>
		<g>
			<g>
				<path class="st1" d="M143.32,916.19c-1.04,2.87-3.26,5.19-6.07,6.34l2.7,2.7c3.49-1.87,6.12-5.14,7.14-9.05L143.32,916.19z"/>
			</g>
			<rect x="143.51" y="916.19" class="st1" width="3.6" height="28.81"/>
		</g>
		<g>
			<g>
				<path class="st1" d="M170.17,944.98l2.74,0.01c1.97-2.69,5.14-4.45,8.73-4.45c2.38,0,4.59,0.78,6.38,2.09l4.26-0.98
					c-2.64-2.89-6.43-4.71-10.64-4.71c-4.62,0-8.74,2.19-11.38,5.58L170.17,944.98z"/>
			</g>
			<g>
				<path class="st1" d="M199.05,940.95c-0.99,0.32-2.04,0.5-3.13,0.5c-2.31,0-4.46-0.78-6.22-2.02l-3.68,1.63
					c2.58,2.44,6.06,3.95,9.89,3.95c1.08,0,2.13-0.12,3.14-0.35L199.05,940.95z"/>
			</g>
			<g>
				<path class="st1" d="M196.04,921.75c-2.64-3.39-6.75-5.58-11.37-5.58c-3.97,0-7.57,1.62-10.18,4.23l2.54,2.54
					c1.96-1.96,4.66-3.17,7.63-3.17c3.63,0,6.84,1.8,8.8,4.55L196.04,921.75z"/>
			</g>
			<polygon class="st1" points="170.97,941.72 193.49,919.21 196.03,921.75 172.8,944.99 170.17,944.98 			"/>
		</g>
		<g>
			
				<rect id="L_5_" x="468.69" y="904.94" transform="matrix(-1.836970e-16 1 -1 -1.836970e-16 1388.4485 447.4632)" class="st1" width="3.6" height="26.03"/>
			
				<rect id="L_4_" x="468.71" y="929.84" transform="matrix(-1.836970e-16 1 -1 -1.836970e-16 1413.6737 472.6489)" class="st1" width="3.6" height="26.64"/>
			<path class="st1" d="M480.68,916.16c0.4,1.13,0.62,2.34,0.62,3.6c0,5.96-4.85,10.8-10.8,10.8c-5.96,0-10.8-4.85-10.8-10.8
				c0-1.26,0.22-2.47,0.62-3.6l-3.76,0c-0.3,1.15-0.46,2.36-0.46,3.6c0,7.94,6.46,14.4,14.4,14.4c7.94,0,14.4-6.46,14.4-14.4
				c0-1.24-0.16-2.45-0.46-3.6L480.68,916.16z"/>
			<path class="st1" d="M483.83,945c0.69-1.68,1.07-3.51,1.07-5.44c0-7.94-6.46-14.4-14.4-14.4c-7.94,0-14.4,6.46-14.4,14.4
				c0,1.92,0.38,3.74,1.06,5.42l3.99-0.02c-0.92-1.59-1.45-3.43-1.45-5.4c0-5.96,4.85-10.8,10.8-10.8c5.96,0,10.8,4.85,10.8,10.8
				c0,1.97-0.53,3.81-1.45,5.4L483.83,945z"/>
		</g>
		<g>
			<path class="st1" d="M563.35,916.19c-7.94,0-14.4,6.46-14.4,14.4c0,7.94,6.46,14.4,14.4,14.4c7.94,0,14.4-6.46,14.4-14.4
				C577.75,922.65,571.29,916.19,563.35,916.19z M563.35,941.4c-5.96,0-10.8-4.85-10.8-10.8s4.85-10.8,10.8-10.8
				s10.8,4.85,10.8,10.8S569.31,941.4,563.35,941.4z"/>
			
				<rect x="561.5" y="916.24" transform="matrix(0.7071 -0.7071 0.7071 0.7071 -493.0809 670.8934)" class="st1" width="3.6" height="28.81"/>
		</g>
		<g>
			<path class="st1" d="M403.3,945c-0.3-1.15-0.46-2.36-0.46-3.6c0-6.87,4.83-12.62,11.28-14.06c0.33,0.67,0.9,1.21,1.73,1.42
				c0.4,0.4,0.93,0.69,1.61,0.77c-0.22,0.32-0.37,0.68-0.45,1.07c-5.85,0.13-10.57,4.92-10.57,10.8c0,1.26,0.22,2.47,0.62,3.6H403.3
				z"/>
			
				<rect x="415.33" y="921.71" transform="matrix(-4.597496e-11 1 -1 -4.597496e-11 1345.9233 511.6696)" class="st1" width="3.6" height="14.17"/>
			<g>
				<path class="st1" d="M431.65,916.19c0,7.94-6.46,14.4-14.4,14.4c-1.14,0-2.24-0.14-3.3-0.39c0.27-0.06,0.51-0.16,0.72-0.29
					c0.02,0,0.05,0,0.07,0c1.35,0,2.22-0.75,2.6-1.71c0.46-0.32,0.78-0.76,0.97-1.27c5.45-0.54,9.73-5.16,9.73-10.75H431.65z"/>
			</g>
			<polygon class="st1" points="429.11,916.19 429.11,919.79 406.44,919.79 402.84,916.19 			"/>
		</g>
		<g>
			<path class="st1" d="M307.21,942.34c2.35,1.67,5.22,2.66,8.32,2.66c7.94,0,14.4-6.46,14.4-14.4c0-0.61-0.04-1.21-0.11-1.8
				l-3.64,0c0.1,0.59,0.15,1.19,0.15,1.8c0,5.96-4.85,10.8-10.8,10.8c-2.1,0-4.07-0.6-5.73-1.65L307.21,942.34z"/>
			
				<rect x="319" y="921.55" transform="matrix(6.123234e-17 -1 1 6.123234e-17 -609.7966 1251.397)" class="st1" width="3.6" height="18.09"/>
			
				<rect x="311.76" y="916.19" transform="matrix(-1 -1.224647e-16 1.224647e-16 -1 627.1149 1848.5907)" class="st1" width="3.6" height="16.2"/>
			
				<rect x="315.43" y="912.52" transform="matrix(6.123234e-17 -1 1 6.123234e-17 -600.7651 1235.2229)" class="st1" width="3.6" height="10.94"/>
		</g>
		<g>
			<path class="st1" d="M522.13,916.19c-7.94,0-14.4,6.46-14.4,14.4h3.6c0-5.96,4.85-10.8,10.8-10.8V916.19z"/>
			<rect x="522.13" y="916.19" class="st1" width="3.6" height="28.81"/>
			
				<rect x="513.93" y="924.39" transform="matrix(6.123234e-17 -1 1 6.123234e-17 -416.6671 1448.1273)" class="st1" width="3.6" height="16.01"/>
		</g>
		<g>
			<polygon class="st1" points="381.34,928.92 381.34,930.6 380.77,932.52 362.45,932.52 365.94,928.92 			"/>
			<path class="st1" d="M377.11,920.42c-2.61-2.61-6.21-4.23-10.18-4.23c-7.94,0-14.4,6.46-14.4,14.4c0,7.94,6.46,14.4,14.4,14.4
				c7.94,0,14.4-6.46,14.4-14.4c0-0.31-0.01-0.61-0.03-0.92c-1.09,0.55-2.35,0.78-3.57,0.83c0,0.03,0,0.06,0,0.09
				c0,5.96-4.85,10.8-10.8,10.8s-10.8-4.85-10.8-10.8s4.85-10.8,10.8-10.8c2.97,0,5.66,1.2,7.61,3.14L377.11,920.42z"/>
			
				<rect x="361.25" y="929" transform="matrix(0.7071 0.7071 -0.7071 0.7071 767.1095 16.9829)" class="st1" width="3.6" height="10.94"/>
		</g>
		<g>
			<rect x="278.69" y="916.19" class="st1" width="3.6" height="28.81"/>
			
				<rect x="274.99" y="925.19" transform="matrix(6.123234e-17 -1 1 6.123234e-17 -659.2035 1212.7869)" class="st1" width="3.6" height="21.6"/>
			<path class="st1" d="M273.36,923.73c0,4.76-3.09,8.8-7.37,10.24l-0.03,3.76c5.31-1.29,9.48-5.52,10.66-10.86L273.36,923.73z"/>
		</g>
		<path class="st1" d="M234.64,928.95l4.78-4.78v0l2.57-2.57c-0.74-0.95-1.59-1.8-2.54-2.53l-0.01-0.01l0,0
			c-2.44-1.9-5.5-3.03-8.82-3.03c-3.97,0-7.57,1.62-10.18,4.23l2.54,2.54c1.96-1.96,4.66-3.17,7.63-3.17c2.33,0,4.49,0.74,6.25,2
			l-6.26,6.26l0,2.63l0.01,0.98c0.02,0,0.05,0,0.07,0c0.43,0,0.81,0.06,1.17,0.16c2.98,1.14,5.34,3.55,6.38,6.58
			c-1.96,1.96-4.65,3.17-7.63,3.17c-2.98,0-5.68-1.21-7.63-3.17l-2.54,2.54c2.61,2.61,6.21,4.23,10.18,4.23
			c4.62,0,8.98-2.29,11.62-5.69C241.45,934.83,238.56,930.99,234.64,928.95z"/>
	</g>
</g>
</svg>
