<?xml version="1.0" encoding="utf-8"?>
<!-- Generator: Adobe Illustrator 25.0.1, SVG Export Plug-In . SVG Version: 6.00 Build 0)  -->
<svg version="1.1" xmlns="http://www.w3.org/2000/svg" xmlns:xlink="http://www.w3.org/1999/xlink" x="0px" y="0px"
	 viewBox="0 0 1920 1080" style="enable-background:new 0 0 1920 1080;" xml:space="preserve">
<style type="text/css">
	.st0{fill:none;stroke:#000000;stroke-width:3;stroke-miterlimit:10;}
	.st1{display:none;fill:none;stroke:#000000;stroke-width:11;stroke-miterlimit:10;}
	.st2{fill:#0B0B0D;}
	.st3{fill:none;stroke:#969696;stroke-width:4;stroke-linecap:round;stroke-miterlimit:10;}
	.st4{clip-path:url(#SVGID_2_);}
	.st5{fill:none;stroke:#FFFFFF;stroke-width:20;stroke-miterlimit:10;}
	.st6{fill:none;stroke:#FFFFFF;stroke-width:15;stroke-miterlimit:10;}
	.st7{fill:none;stroke:#FFFFFF;stroke-width:10;stroke-miterlimit:10;}
	.st8{fill:none;stroke:#FFFFFF;stroke-width:8;stroke-miterlimit:10;}
	.st9{fill:none;stroke:#FFFFFF;stroke-width:6;stroke-miterlimit:10;}
	.st10{clip-path:url(#SVGID_4_);}
	.st11{clip-path:url(#SVGID_6_);}
	.st12{clip-path:url(#SVGID_8_);}
	.st13{clip-path:url(#SVGID_10_);}
	.st14{fill:none;stroke:#FFFFFF;stroke-width:9;stroke-miterlimit:10;}
	.st15{fill:none;stroke:#FFFFFF;stroke-width:5;stroke-miterlimit:10;}
	.st16{fill:none;stroke:#FFFFFF;stroke-width:4;stroke-miterlimit:10;}
	.st17{fill:none;stroke:#FFFFFF;stroke-width:2;stroke-miterlimit:10;}
	.st18{clip-path:url(#SVGID_14_);}
	.st19{fill:none;stroke:#000000;stroke-width:9;stroke-miterlimit:10;}
	.st20{fill:none;stroke:#000000;stroke-width:6;stroke-miterlimit:10;}
	.st21{fill:none;stroke:#000000;stroke-width:5;stroke-miterlimit:10;}
	.st22{fill:none;stroke:#000000;stroke-width:4;stroke-miterlimit:10;}
	.st23{fill:none;stroke:#000000;stroke-width:2;stroke-miterlimit:10;}
	.st24{clip-path:url(#SVGID_18_);}
	.st25{clip-path:url(#SVGID_20_);}
	.st26{clip-path:url(#SVGID_22_);}
	.st27{clip-path:url(#SVGID_24_);}
	.st28{clip-path:url(#SVGID_26_);}
	.st29{clip-path:url(#SVGID_28_);}
	.st30{opacity:0.75;fill:#FFFFFF;}
	.st31{opacity:0.2;fill:#FFFFFF;}
	.st32{opacity:0.4;fill:#FFFFFF;}
	.st33{opacity:0.6;fill:#FFFFFF;}
	.st34{fill:#FFFFFF;}
	.st35{clip-path:url(#SVGID_30_);}
	.st36{fill:none;stroke:#000000;stroke-width:20;stroke-miterlimit:10;}
	.st37{fill:none;stroke:#000000;stroke-width:15;stroke-miterlimit:10;}
	.st38{fill:none;stroke:#000000;stroke-width:10;stroke-miterlimit:10;}
	.st39{fill:none;stroke:#000000;stroke-width:8;stroke-miterlimit:10;}
	.st40{clip-path:url(#SVGID_32_);}
	.st41{opacity:0.75;}
	.st42{opacity:0.2;}
	.st43{opacity:0.4;}
	.st44{opacity:0.6;}
	.st45{clip-path:url(#SVGID_34_);}
	.st46{clip-path:url(#SVGID_36_);}
	.st47{clip-path:url(#SVGID_36_);fill:none;stroke:#000000;stroke-width:5;stroke-miterlimit:10;}
	.st48{clip-path:url(#SVGID_36_);fill:none;stroke:#000000;stroke-width:4;stroke-miterlimit:10;}
	.st49{clip-path:url(#SVGID_36_);fill:none;stroke:#000000;stroke-width:3;stroke-miterlimit:10;}
	.st50{clip-path:url(#SVGID_36_);fill:none;stroke:#000000;stroke-width:2;stroke-miterlimit:10;}
	.st51{clip-path:url(#SVGID_42_);}
	.st52{fill:#CCCCD6;}
	.st53{fill:#F6F6FF;}
	.st54{fill:#A1A1A9;}
	.st55{fill:#7A7A7F;}
	.st56{clip-path:url(#SVGID_48_);}
	.st57{fill:none;stroke:#FFFFFF;stroke-width:3;stroke-miterlimit:10;}
	.st58{clip-path:url(#SVGID_48_);fill:none;stroke:#FFFFFF;stroke-width:5;stroke-miterlimit:10;}
	.st59{clip-path:url(#SVGID_48_);fill:none;stroke:#FFFFFF;stroke-width:4;stroke-miterlimit:10;}
	.st60{clip-path:url(#SVGID_48_);fill:none;stroke:#FFFFFF;stroke-width:3;stroke-miterlimit:10;}
	.st61{clip-path:url(#SVGID_48_);fill:none;stroke:#FFFFFF;stroke-width:2;stroke-miterlimit:10;}
	.st62{clip-path:url(#SVGID_54_);}
	.st63{fill:#333329;}
	.st64{fill:#090900;}
	.st65{fill:#5E5E56;}
	.st66{fill:#858580;}
	.st67{clip-path:url(#SVGID_60_);}
	.st68{fill:none;stroke:#FFFFFF;stroke-miterlimit:10;}
	.st69{fill:none;stroke:#FFFFFF;stroke-width:0.75;stroke-miterlimit:10;}
	.st70{fill:none;stroke:#FFFFFF;stroke-width:0.5;stroke-miterlimit:10;}
	.st71{clip-path:url(#SVGID_62_);}
	.st72{opacity:0.25;fill:#FFFFFF;}
	.st73{clip-path:url(#SVGID_62_);fill:none;stroke:#FFFFFF;stroke-width:5;stroke-miterlimit:10;}
	.st74{clip-path:url(#SVGID_62_);fill:none;stroke:#FFFFFF;stroke-width:4;stroke-miterlimit:10;}
	.st75{clip-path:url(#SVGID_62_);fill:none;stroke:#FFFFFF;stroke-width:3;stroke-miterlimit:10;}
	.st76{clip-path:url(#SVGID_62_);fill:none;stroke:#FFFFFF;stroke-width:2;stroke-miterlimit:10;}
	.st77{clip-path:url(#SVGID_68_);}
	.st78{clip-path:url(#SVGID_70_);}
	.st79{opacity:0.7;fill:#FFFFFF;}
	.st80{opacity:0.3;fill:#FFFFFF;}
	.st81{opacity:0.5;fill:#FFFFFF;}
	.st82{clip-path:url(#SVGID_72_);}
	.st83{fill:none;stroke:#FFFFFF;stroke-width:14;stroke-miterlimit:10;}
	.st84{fill:none;stroke:#FFFFFF;stroke-width:11;stroke-miterlimit:10;}
	.st85{clip-path:url(#SVGID_74_);}
	.st86{clip-path:url(#SVGID_76_);}
	.st87{fill:none;stroke:#000000;stroke-width:14;stroke-miterlimit:10;}
	.st88{fill:none;stroke:#000000;stroke-width:11;stroke-miterlimit:10;}
	.st89{clip-path:url(#SVGID_78_);}
	.st90{clip-path:url(#SVGID_80_);}
	.st91{fill:none;stroke:#000000;stroke-miterlimit:10;}
	.st92{fill:none;stroke:#000000;stroke-width:0.75;stroke-miterlimit:10;}
	.st93{fill:none;stroke:#000000;stroke-width:0.5;stroke-miterlimit:10;}
	.st94{clip-path:url(#SVGID_82_);}
	.st95{opacity:0.25;}
	.st96{clip-path:url(#SVGID_82_);fill:none;stroke:#000000;stroke-width:5;stroke-miterlimit:10;}
	.st97{clip-path:url(#SVGID_82_);fill:none;stroke:#000000;stroke-width:4;stroke-miterlimit:10;}
	.st98{clip-path:url(#SVGID_82_);fill:none;stroke:#000000;stroke-width:3;stroke-miterlimit:10;}
	.st99{clip-path:url(#SVGID_82_);fill:none;stroke:#000000;stroke-width:2;stroke-miterlimit:10;}
	.st100{clip-path:url(#SVGID_88_);}
	.st101{clip-path:url(#SVGID_90_);}
	.st102{opacity:0.7;}
	.st103{opacity:0.3;}
	.st104{opacity:0.5;}
	.st105{fill:none;stroke:#1ADAE4;stroke-width:10;stroke-miterlimit:10;}
	.st106{font-family:'Gilroy-ExtraBold';}
	.st107{font-size:42px;}
	.st108{clip-path:url(#SVGID_92_);}
	.st109{clip-path:url(#SVGID_94_);}
</style>
<g id="Layer_1">
</g>
<g id="Layer_2">
	<g id="Layer_3">
	</g>
	<g>
		<g>
			<path d="M665.77,284.02c-14.12,0-25.6-11.48-25.6-25.6c0-14.12,11.48-25.6,25.6-25.6c14.12,0,25.6,11.48,25.6,25.6
				C691.37,272.53,679.89,284.02,665.77,284.02z M665.77,239.22c-10.59,0-19.2,8.61-19.2,19.2c0,10.59,8.61,19.2,19.2,19.2
				c10.59,0,19.2-8.61,19.2-19.2C684.97,247.83,676.36,239.22,665.77,239.22z"/>
		</g>
		<path d="M889.86,258.42v25.6h6.4v-8.69v-16.91c0-10.59,8.61-19.2,19.2-19.2v-6.4C901.34,232.82,889.86,244.3,889.86,258.42z"/>
		<rect id="L_8_" x="723.64" y="207.22" width="6.4" height="76.8"/>
		<rect id="L_7_" x="704.15" y="207.22" width="6.4" height="76.8"/>
		<g id="I_4_">
			<rect x="742.51" y="232.82" width="6.4" height="51.2"/>
			<g>
				<path d="M742.48,226.42c1.57-4.06,4.2-7.77,7.84-10.68l3.52,4.4c-1.99,1.59-3.77,4.18-4.94,6.28H742.48z"/>
			</g>
		</g>
		<path id="E_7_" d="M865.11,272.08c-3.47,3.42-8.22,5.54-13.46,5.54c-8.34,0-15.46-5.35-18.1-12.8h36.2l0,0h6.69
			c0.53-2.05,0.81-4.19,0.81-6.4c0-14.12-11.48-25.6-25.6-25.6c-14.12,0-25.6,11.48-25.6,25.6c0,14.12,11.48,25.6,25.6,25.6
			c7.01,0,13.36-2.83,17.99-7.41L865.11,272.08z M851.65,239.22c10.59,0,19.2,8.61,19.2,19.2h-38.4
			C832.45,247.83,841.06,239.22,851.65,239.22z"/>
		<path id="D_5_" d="M806.56,207.22v34.29c-4.69-5.33-11.56-8.69-19.2-8.69c-14.12,0-25.6,11.48-25.6,25.6
			c0,14.12,11.48,25.6,25.6,25.6c14.12,0,25.6-11.48,25.6-25.6v-51.2H806.56z M787.36,277.62c-10.59,0-19.2-8.61-19.2-19.2
			c0-10.59,8.61-19.2,19.2-19.2c10.59,0,19.2,8.61,19.2,19.2C806.56,269.01,797.95,277.62,787.36,277.62z"/>
		<path id="C_4_" d="M628.47,240.11c-4.62-4.51-10.93-7.29-17.87-7.29c-14.12,0-25.6,11.48-25.6,25.6c0,14.12,11.48,25.6,25.6,25.6
			c7.01,0,13.36-2.83,17.99-7.41l-4.52-4.52c-3.47,3.42-8.22,5.53-13.47,5.53c-10.59,0-19.2-8.61-19.2-19.2
			c0-10.59,8.61-19.2,19.2-19.2c5.16,0,9.85,2.05,13.3,5.38L628.47,240.11z"/>
	</g>
	<g>
		<g>
			<g>
				<path d="M1285.6,580.09c-14.12,0-25.6-11.48-25.6-25.6s11.48-25.6,25.6-25.6s25.6,11.48,25.6,25.6S1299.72,580.09,1285.6,580.09
					z M1285.6,535.29c-10.59,0-19.2,8.61-19.2,19.2s8.61,19.2,19.2,19.2c10.59,0,19.2-8.61,19.2-19.2S1296.19,535.29,1285.6,535.29z
					"/>
			</g>
			<rect x="1260" y="553.69" width="6.4" height="52"/>
		</g>
		<path d="M1381.02,553.83v25.6h6.4v-8.69v-16.91c0-10.59,8.61-19.2,19.2-19.2v-6.4C1392.5,528.23,1381.02,539.72,1381.02,553.83z"
			/>
		<path id="E_6_" d="M1572.6,567.5c-3.47,3.42-8.22,5.54-13.46,5.54c-8.34,0-15.46-5.35-18.1-12.8h36.2l0,0h6.69
			c0.53-2.05,0.81-4.19,0.81-6.4c0-14.12-11.48-25.6-25.6-25.6c-14.12,0-25.6,11.48-25.6,25.6c0,14.12,11.48,25.6,25.6,25.6
			c7.01,0,13.36-2.83,17.99-7.41L1572.6,567.5z M1559.14,534.63c10.59,0,19.2,8.61,19.2,19.2h-38.4
			C1539.94,543.25,1548.55,534.63,1559.14,534.63z"/>
		<path id="D_3_" d="M1517.39,502.63v34.29c-4.69-5.33-11.56-8.69-19.2-8.69c-14.12,0-25.6,11.48-25.6,25.6
			c0,14.12,11.48,25.6,25.6,25.6c14.12,0,25.6-11.48,25.6-25.6v-51.2H1517.39z M1498.19,573.03c-10.59,0-19.2-8.61-19.2-19.2
			c0-10.59,8.61-19.2,19.2-19.2c10.59,0,19.2,8.61,19.2,19.2C1517.39,564.42,1508.78,573.03,1498.19,573.03z"/>
		<path id="A_18_" d="M1437.57,528.23c-14.12,0-25.6,11.48-25.6,25.6c0,14.12,11.48,25.6,25.6,25.6c7.64,0,14.51-3.37,19.2-8.69
			v8.69h6.4v-25.6C1463.17,539.72,1451.69,528.23,1437.57,528.23z M1437.57,573.03c-10.59,0-19.2-8.61-19.2-19.2
			c0-10.59,8.61-19.2,19.2-19.2c10.59,0,19.2,8.61,19.2,19.2C1456.77,564.42,1448.16,573.03,1437.57,573.03z"/>
		<path id="A_17_" d="M1345.58,528.23c-14.12,0-25.6,11.48-25.6,25.6c0,14.12,11.48,25.6,25.6,25.6c7.64,0,14.51-3.37,19.2-8.69
			v8.69h6.4v-25.6C1371.18,539.72,1359.69,528.23,1345.58,528.23z M1345.58,573.03c-10.59,0-19.2-8.61-19.2-19.2
			c0-10.59,8.61-19.2,19.2-19.2c10.59,0,19.2,8.61,19.2,19.2C1364.78,564.42,1356.16,573.03,1345.58,573.03z"/>
	</g>
	<g>
		<path d="M1641.63,258.42c0,14.12,11.48,25.6,25.6,25.6s25.6-11.48,25.6-25.6l0,0v-25.6h-6.4v25.6l0,0c0,10.59-8.61,19.2-19.2,19.2
			s-19.2-8.61-19.2-19.2l0,0v-25.6h-6.4V258.42L1641.63,258.42z"/>
		<path d="M1703.48,258.42v25.6h6.4v-8.69v-16.91c0-10.59,8.61-19.2,19.2-19.2v-6.4C1714.96,232.82,1703.48,244.3,1703.48,258.42z"
			/>
		<path id="A_16_" d="M1760.85,232.82c-14.12,0-25.6,11.48-25.6,25.6c0,14.12,11.48,25.6,25.6,25.6c7.64,0,14.51-3.37,19.2-8.69
			v8.69h6.4v-25.6C1786.45,244.3,1774.97,232.82,1760.85,232.82z M1760.85,277.62c-10.59,0-19.2-8.61-19.2-19.2
			c0-10.59,8.61-19.2,19.2-19.2c10.59,0,19.2,8.61,19.2,19.2C1780.05,269.01,1771.44,277.62,1760.85,277.62z"/>
		<path id="A_15_" d="M1607.02,232.82c-14.12,0-25.6,11.48-25.6,25.6c0,14.12,11.48,25.6,25.6,25.6c7.64,0,14.51-3.37,19.2-8.69
			v8.69h6.4v-25.6C1632.62,244.3,1621.13,232.82,1607.02,232.82z M1607.02,277.62c-10.59,0-19.2-8.61-19.2-19.2
			c0-10.59,8.61-19.2,19.2-19.2s19.2,8.61,19.2,19.2C1626.22,269.01,1617.6,277.62,1607.02,277.62z"/>
	</g>
	<g>
		<path d="M882.91,531.16v26.24c0,5.14-5.46,10.19-10.04,13.52c-3.81,2.77-7.68,4.83-9.65,5.81c-6.3-3.11-19.66-11.34-19.66-19.32
			v-26.24H837v26.24c0,6.37,4.32,12.72,12.83,18.89c5.94,4.3,11.81,6.95,12.06,7.06c0.43,0.19,0.88,0.29,1.34,0.29
			c0.46,0,0.91-0.1,1.34-0.29c0.25-0.11,6.12-2.76,12.06-7.06c8.52-6.16,12.83-12.52,12.83-18.89v-26.24H882.91z"/>
		<g>
			<path d="M924.54,583.63c-14.47,0-26.24-11.77-26.24-26.24s11.77-26.24,26.24-26.24c14.47,0,26.24,11.77,26.24,26.24
				S939,583.63,924.54,583.63z M924.54,537.72c-10.85,0-19.68,8.83-19.68,19.68s8.83,19.68,19.68,19.68s19.68-8.83,19.68-19.68
				S935.39,537.72,924.54,537.72z"/>
		</g>
		<rect id="L_6_" x="981.94" y="504.93" width="6.56" height="78.71"/>
		<g>
			<rect x="959.63" y="531.16" width="6.56" height="52.47"/>
			<g>
				<path d="M959.6,524.6c1.61-4.16,4.31-7.96,8.03-10.94l3.61,4.51c-2.04,1.63-3.86,4.28-5.06,6.44H959.6z"/>
			</g>
		</g>
		<g>
			<path id="A_11_" d="M1025.43,531.16c-14.47,0-26.24,11.77-26.24,26.24c0,14.47,11.77,26.24,26.24,26.24
				c7.83,0,14.87-3.45,19.68-8.91v8.91h6.56V557.4C1051.67,542.93,1039.9,531.16,1025.43,531.16z M1025.43,577.07
				c-10.85,0-19.68-8.83-19.68-19.68c0-10.85,8.83-19.68,19.68-19.68c10.85,0,19.68,8.83,19.68,19.68
				C1045.11,568.25,1036.28,577.07,1025.43,577.07z"/>
			<path d="M1005.76,504.93c0,10.85,8.83,19.67,19.67,19.67"/>
		</g>
	</g>
	<g>
		<g>
			<path class="st2" d="M1311.88,864.58c-14.12,0-25.6-11.48-25.6-25.6c0-14.12,11.48-25.6,25.6-25.6s25.6,11.48,25.6,25.6
				C1337.48,853.09,1326,864.58,1311.88,864.58z M1311.88,819.78c-10.59,0-19.2,8.61-19.2,19.2c0,10.59,8.61,19.2,19.2,19.2
				c10.59,0,19.2-8.61,19.2-19.2C1331.08,828.39,1322.47,819.78,1311.88,819.78z"/>
		</g>
		<g>
			<g>
				<path class="st2" d="M1141.6,863.95c-14.12,0-25.6-11.48-25.6-25.6c0-14.12,11.48-25.6,25.6-25.6s25.6,11.48,25.6,25.6
					C1167.2,852.46,1155.72,863.95,1141.6,863.95z M1141.6,819.15c-10.59,0-19.2,8.61-19.2,19.2c0,10.59,8.61,19.2,19.2,19.2
					c10.59,0,19.2-8.61,19.2-19.2C1160.8,827.76,1152.19,819.15,1141.6,819.15z"/>
			</g>
			<rect x="1116" y="837.55" class="st2" width="6.4" height="52"/>
		</g>
		<path class="st2" d="M1235.73,838.98v25.6h6.4v-8.69v-16.91c0-10.59,8.61-19.2,19.2-19.2v-6.4
			C1247.21,813.38,1235.73,824.86,1235.73,838.98z"/>
		<path class="st2" d="M1347.37,838.98v25.6h6.4v-8.69v-16.91c0-10.59,8.61-19.2,19.2-19.2v-6.4
			C1358.86,813.38,1347.37,824.86,1347.37,838.98z"/>
		<rect id="L_5_" x="1270.79" y="787.78" class="st2" width="6.4" height="76.8"/>
		<path id="A_10_" class="st2" d="M1200.66,813.38c-14.12,0-25.6,11.48-25.6,25.6c0,14.12,11.48,25.6,25.6,25.6
			c7.64,0,14.51-3.37,19.2-8.69v8.69h6.4v-25.6C1226.26,824.86,1214.78,813.38,1200.66,813.38z M1200.66,858.18
			c-10.59,0-19.2-8.61-19.2-19.2c0-10.59,8.61-19.2,19.2-19.2c10.59,0,19.2,8.61,19.2,19.2
			C1219.86,849.56,1211.25,858.18,1200.66,858.18z"/>
	</g>
	<g>
		<path d="M578.11,558.03v25.6h6.4v-8.69v-16.91c0-10.59,8.61-19.2,19.2-19.2v-6.4C589.6,532.43,578.11,543.92,578.11,558.03z"/>
		<path id="E_5_" d="M553.17,571.7c-3.47,3.42-8.22,5.54-13.46,5.54c-8.34,0-15.46-5.35-18.1-12.8h36.2l0,0h6.69
			c0.53-2.05,0.81-4.19,0.81-6.4c0-14.12-11.48-25.6-25.6-25.6c-14.12,0-25.6,11.48-25.6,25.6c0,14.12,11.48,25.6,25.6,25.6
			c7.01,0,13.36-2.83,17.99-7.41L553.17,571.7z M539.71,538.83c10.59,0,19.2,8.61,19.2,19.2h-38.4
			C520.51,547.45,529.12,538.83,539.71,538.83z"/>
		<path id="D_2_" d="M496.36,506.83v34.29c-4.69-5.33-11.56-8.69-19.2-8.69c-14.12,0-25.6,11.48-25.6,25.6
			c0,14.12,11.48,25.6,25.6,25.6c14.12,0,25.6-11.48,25.6-25.6v-51.2H496.36z M477.16,577.23c-10.59,0-19.2-8.61-19.2-19.2
			s8.61-19.2,19.2-19.2c10.59,0,19.2,8.61,19.2,19.2S487.75,577.23,477.16,577.23z"/>
		<path id="C_2_" d="M385.47,539.72c-4.62-4.51-10.93-7.29-17.87-7.29c-14.12,0-25.6,11.48-25.6,25.6c0,14.12,11.48,25.6,25.6,25.6
			c7.01,0,13.36-2.83,17.99-7.41l-4.52-4.52c-3.47,3.42-8.22,5.53-13.47,5.53c-10.59,0-19.2-8.61-19.2-19.2
			c0-10.59,8.61-19.2,19.2-19.2c5.16,0,9.85,2.05,13.3,5.38L385.47,539.72z"/>
		<g>
			<path class="st2" d="M417.67,583.63c-14.12,0-25.6-11.48-25.6-25.6c0-14.12,11.48-25.6,25.6-25.6s25.6,11.48,25.6,25.6
				C443.27,572.15,431.78,583.63,417.67,583.63z M417.67,538.83c-10.59,0-19.2,8.61-19.2,19.2s8.61,19.2,19.2,19.2
				c10.59,0,19.2-8.61,19.2-19.2S428.26,538.83,417.67,538.83z"/>
		</g>
	</g>
	<g>
		<g>
			<g>
				<path d="M349.2,277.62c-10.59,0-19.2-8.61-19.2-19.2c0-10.59,8.61-19.2,19.2-19.2v-6.4c-14.12,0-25.6,11.48-25.6,25.6
					c0,14.12,11.48,25.6,25.6,25.6V277.62z"/>
			</g>
			<g>
				<path d="M298,277.62c10.59,0,19.2-8.61,19.2-19.2c0-10.59-8.61-19.2-19.2-19.2v-6.4c14.12,0,25.6,11.48,25.6,25.6
					c0,14.12-11.48,25.6-25.6,25.6V277.62z"/>
			</g>
		</g>
		<path id="M-Alt_2_" d="M228.9,232.82c-3.33,0-6.51,0.65-9.42,1.81c-2.92-1.16-6.1-1.81-9.42-1.81c-14.12,0-25.6,11.48-25.6,25.6
			v25.6h6.4v-25.56c0,0,0,0,0,0c0-0.01,0-0.03,0-0.04c0-10.59,8.61-19.2,19.2-19.2c0.62,0,1.23,0.03,1.84,0.09
			c-5.27,4.69-8.59,11.52-8.59,19.11c0,10.78,6.7,20,16.15,23.77c0,0,0.01,0,0.01-0.01c0,0,0.01,0,0.01-0.01c0,0,0,0,0,0
			c0.12-0.05,0.24-0.11,0.37-0.16c0.03-0.01,0.06-0.03,0.1-0.04c0.01-0.01,0.02-0.01,0.03-0.02c9.19-3.89,15.68-12.95,15.68-23.54
			c0-7.59-3.32-14.42-8.59-19.11c0.61-0.06,1.22-0.09,1.84-0.09c10.59,0,19.2,8.61,19.2,19.2v0c0,0.29-0.01,0.58-0.02,0.86
			c0.01,0,0.01,0,0.02,0v24.74h6.4v-25.6c0,0,0,0,0,0C254.5,244.3,243.02,232.82,228.9,232.82z M229.25,258.42
			c0,7.17-3.96,13.4-9.8,16.69c-5.81-3.3-9.75-9.54-9.75-16.69c0-7.16,3.95-13.42,9.78-16.72
			C225.31,245,229.25,251.26,229.25,258.42z"/>
		<path d="M424.06,258.42v25.6h6.4v-8.69v-16.91c0-10.59,8.61-19.2,19.2-19.2v-6.4C435.54,232.82,424.06,244.3,424.06,258.42z"/>
		<path d="M456.95,258.42v25.6h6.4v-8.69v-16.91c0-10.59,8.61-19.2,19.2-19.2v-6.4C468.43,232.82,456.95,244.3,456.95,258.42z"/>
		<g id="I_3_">
			<rect x="272.19" y="232.82" width="6.4" height="51.2"/>
			<g>
				<path d="M272.17,226.42c1.57-4.06,4.2-7.77,7.84-10.68l3.52,4.4c-1.99,1.59-3.77,4.18-4.94,6.28H272.17z"/>
			</g>
		</g>
		<path id="E_2_" d="M399.66,272.08c-3.47,3.42-8.22,5.54-13.46,5.54c-8.34,0-15.46-5.35-18.1-12.8h36.2l0,0h6.69
			c0.53-2.05,0.81-4.19,0.81-6.4c0-14.12-11.48-25.6-25.6-25.6s-25.6,11.48-25.6,25.6c0,14.12,11.48,25.6,25.6,25.6
			c7.01,0,13.36-2.83,17.99-7.41L399.66,272.08z M386.2,239.22c10.59,0,19.2,8.61,19.2,19.2H367
			C367,247.83,375.61,239.22,386.2,239.22z"/>
	</g>
	<g>
		<line class="st3" x1="1201.31" y1="786.32" x2="1377.68" y2="609.95"/>
		<line class="st3" x1="1488.63" y1="499" x2="1665" y2="322.63"/>
		<line class="st3" x1="549.68" y1="494.32" x2="730.37" y2="313.63"/>
		<line class="st3" x1="909.68" y1="494.32" x2="729" y2="313.63"/>
		<line class="st3" x1="554.14" y1="495.42" x2="373.45" y2="314.74"/>
		<line class="st3" x1="1201.84" y1="786.47" x2="1021.16" y2="605.79"/>
	</g>
</g>
<g id="Layer_4">
</g>
<g id="Layer_5">
</g>
<g id="Layer_6">
</g>
<g id="Layer_7">
	<line class="st105" x1="58.5" y1="1034.74" x2="58.5" y2="818.74"/>
	<text transform="matrix(0 -1 1 0 71.6652 791.7688)" class="st106 st107">blast from the past</text>
</g>
</svg>
