<?xml version="1.0" encoding="utf-8"?>
<!-- Generator: Adobe Illustrator 24.2.3, SVG Export Plug-In . SVG Version: 6.00 Build 0)  -->
<svg version="1.1" xmlns="http://www.w3.org/2000/svg" xmlns:xlink="http://www.w3.org/1999/xlink" x="0px" y="0px"
	 viewBox="0 0 1872 1404.24" style="enable-background:new 0 0 1872 1404.24;" xml:space="preserve">
<style type="text/css">
	.st0{display:none;}
	.st1{display:inline;}
	.st2{fill:#1ADAE4;}
	.st3{fill:#094246;}
	.st4{fill:#BAF4F7;}
	.st5{fill:#02E47D;}
	.st6{fill:#024526;}
	.st7{fill:#B2F7D8;}
	.st8{fill:#E400D9;}
	.st9{fill:#450042;}
	.st10{fill:#F7B2F4;}
	.st11{fill:#0273FF;}
	.st12{fill:#00244E;}
	.st13{fill:#B2D5FF;}
	.st14{fill:#A538FF;}
	.st15{fill:#32124D;}
	.st16{fill:#E4C3FF;}
	.st17{fill:#E40A01;}
	.st18{fill:#450301;}
	.st19{fill:#F6B5B2;}
	.st20{fill:#E40167;}
	.st21{fill:#45001F;}
	.st22{fill:#F4AFCD;}
	.st23{fill:#D9E400;}
	.st24{fill:#424502;}
	.st25{fill:#F4F6B2;}
	.st26{fill:#F7860D;}
	.st27{fill:#4B2804;}
	.st28{fill:#FDDAB5;}
	.st29{fill:none;stroke:#000000;stroke-miterlimit:10;}
	.st30{fill:#FFFFFF;}
	.st31{fill:#009EA9;}
	.st32{fill:#C74010;}
	.st33{fill:none;stroke:#D9E400;stroke-width:6;stroke-miterlimit:10;}
	.st34{fill:none;stroke:#02E47D;stroke-width:6;stroke-miterlimit:10;}
	.st35{fill:none;stroke:#0273FF;stroke-width:6;stroke-miterlimit:10;}
	.st36{fill:none;stroke:#A538FF;stroke-width:6;stroke-miterlimit:10;}
	.st37{fill:none;stroke:#E400D9;stroke-width:6;stroke-miterlimit:10;}
	.st38{fill:none;stroke:#E40167;stroke-width:6;stroke-miterlimit:10;}
	.st39{fill:none;stroke:#1ADAE4;stroke-width:6;stroke-miterlimit:10;}
</style>
<g id="Layer_2">
</g>
<g id="Layer_1">
	<path class="st2" d="M468,0H0v468c258.47,0,468,209.53,468,468h468V468C677.53,468,468,258.47,468,0z"/>
	<path class="st4" d="M468,0c0,258.47,209.53,468,468,468V0H468z"/>
	<path class="st3" d="M0,468v468h468C468,677.53,258.47,468,0,468z"/>
	<path class="st5" d="M1169.72,0H936v233.72c129.08,0,233.72,104.64,233.72,233.72h233.72V233.72
		C1274.36,233.72,1169.72,129.08,1169.72,0z"/>
	<path class="st7" d="M1169.72,0c0,129.08,104.64,233.72,233.72,233.72V0H1169.72z"/>
	<path class="st6" d="M936,233.72v233.72h233.72C1169.72,338.36,1065.08,233.72,936,233.72z"/>
	<path class="st11" d="M1637.72,0H1404v233.72c129.08,0,233.72,104.64,233.72,233.72h233.72V233.72
		C1742.36,233.72,1637.72,129.08,1637.72,0z"/>
	<path class="st13" d="M1637.72,0c0,129.08,104.64,233.72,233.72,233.72V0H1637.72z"/>
	<path class="st12" d="M1404,233.72v233.72h233.72C1637.72,338.36,1533.08,233.72,1404,233.72z"/>
	<path class="st8" d="M1169.72,468.24H936v233.72c129.08,0,233.72,104.64,233.72,233.72h233.72V701.96
		C1274.36,701.96,1169.72,597.32,1169.72,468.24z"/>
	<path class="st10" d="M1169.72,468.24c0,129.08,104.64,233.72,233.72,233.72V468.24H1169.72z"/>
	<path class="st9" d="M936,701.96v233.72h233.72C1169.72,806.6,1065.08,701.96,936,701.96z"/>
	<path class="st14" d="M1637.72,468.24H1404v233.72c129.08,0,233.72,104.64,233.72,233.72h233.72V701.96
		C1742.36,701.96,1637.72,597.32,1637.72,468.24z"/>
	<path class="st16" d="M1637.72,468.24c0,129.08,104.64,233.72,233.72,233.72V468.24H1637.72z"/>
	<path class="st15" d="M1404,701.96v233.72h233.72C1637.72,806.6,1533.08,701.96,1404,701.96z"/>
	<path class="st17" d="M1169.72,936.24H936v233.72c129.08,0,233.72,104.64,233.72,233.72h233.72v-233.72
		C1274.36,1169.96,1169.72,1065.32,1169.72,936.24z"/>
	<path class="st19" d="M1169.72,936.24c0,129.08,104.64,233.72,233.72,233.72V936.24H1169.72z"/>
	<path class="st18" d="M936,1169.96v233.72h233.72C1169.72,1274.6,1065.08,1169.96,936,1169.96z"/>
	<path class="st20" d="M1637.72,936.24H1404v233.72c129.08,0,233.72,104.64,233.72,233.72h233.72v-233.72
		C1742.36,1169.96,1637.72,1065.32,1637.72,936.24z"/>
	<path class="st22" d="M1637.72,936.24c0,129.08,104.64,233.72,233.72,233.72V936.24H1637.72z"/>
	<path class="st21" d="M1404,1169.96v233.72h233.72C1637.72,1274.6,1533.08,1169.96,1404,1169.96z"/>
	<path class="st23" d="M233.72,936.24H0v233.72c129.08,0,233.72,104.64,233.72,233.72h233.72v-233.72
		C338.36,1169.96,233.72,1065.32,233.72,936.24z"/>
	<path class="st25" d="M233.72,936.24c0,129.08,104.64,233.72,233.72,233.72V936.24H233.72z"/>
	<path class="st24" d="M0,1169.96v233.72h233.72C233.72,1274.6,129.08,1169.96,0,1169.96z"/>
	<path class="st26" d="M701.72,936.24H468v233.72c129.08,0,233.72,104.64,233.72,233.72h233.72v-233.72
		C806.36,1169.96,701.72,1065.32,701.72,936.24z"/>
	<path class="st28" d="M701.72,936.24c0,129.08,104.64,233.72,233.72,233.72V936.24H701.72z"/>
	<path class="st27" d="M468,1169.96v233.72h233.72C701.72,1274.6,597.08,1169.96,468,1169.96z"/>
</g>
<g id="Layer_3">
</g>
<g id="Layer_4">
</g>
</svg>
