<?xml version="1.0" encoding="utf-8"?>
<!-- Generator: Adobe Illustrator 24.2.3, SVG Export Plug-In . SVG Version: 6.00 Build 0)  -->
<svg version="1.1" xmlns="http://www.w3.org/2000/svg" xmlns:xlink="http://www.w3.org/1999/xlink" x="0px" y="0px"
	 viewBox="0 0 1738.16 1377" style="enable-background:new 0 0 1738.16 1377;" xml:space="preserve">
<style type="text/css">
	.st0{display:none;}
	.st1{display:inline;}
	.st2{fill:#1ADAE4;}
	.st3{fill:#094246;}
	.st4{fill:#BAF4F7;}
	.st5{fill:#02E47D;}
	.st6{fill:#024526;}
	.st7{fill:#B2F7D8;}
	.st8{fill:#E400D9;}
	.st9{fill:#450042;}
	.st10{fill:#F7B2F4;}
	.st11{fill:#0273FF;}
	.st12{fill:#00244E;}
	.st13{fill:#B2D5FF;}
	.st14{fill:#A538FF;}
	.st15{fill:#32124D;}
	.st16{fill:#E4C3FF;}
	.st17{fill:#E40A01;}
	.st18{fill:#450301;}
	.st19{fill:#F6B5B2;}
	.st20{fill:#E40167;}
	.st21{fill:#45001F;}
	.st22{fill:#F4AFCD;}
	.st23{fill:#D9E400;}
	.st24{fill:#424502;}
	.st25{fill:#F4F6B2;}
	.st26{fill:#F7860D;}
	.st27{fill:#4B2804;}
	.st28{fill:#FDDAB5;}
	.st29{fill:none;stroke:#000000;stroke-miterlimit:10;}
	.st30{fill:#FFFFFF;}
	.st31{fill:#009EA9;}
	.st32{fill:#C74010;}
	.st33{fill:none;stroke:#D9E400;stroke-width:6;stroke-miterlimit:10;}
	.st34{fill:none;stroke:#02E47D;stroke-width:6;stroke-miterlimit:10;}
	.st35{fill:none;stroke:#0273FF;stroke-width:6;stroke-miterlimit:10;}
	.st36{fill:none;stroke:#A538FF;stroke-width:6;stroke-miterlimit:10;}
	.st37{fill:none;stroke:#E400D9;stroke-width:6;stroke-miterlimit:10;}
	.st38{fill:none;stroke:#E40167;stroke-width:6;stroke-miterlimit:10;}
	.st39{fill:none;stroke:#1ADAE4;stroke-width:6;stroke-miterlimit:10;}
</style>
<g id="Layer_2">
</g>
<g id="Layer_1">
	<g>
		<path class="st2" d="M1247.62,877.39c197.61,0,357.8-160.19,357.8-357.8c0-112.99,0-357.8,0-357.8s-273.18,0-357.8,0
			c-197.61,0-357.8,160.19-357.8,357.8c0,106.87,0,357.8,0,357.8S1156.88,877.39,1247.62,877.39z"/>
		<g>
			<path class="st3" d="M889.82,519.59v-357.8h357.8C1050.01,161.79,889.82,321.98,889.82,519.59z"/>
			<path class="st4" d="M1605.42,519.59v357.8h-357.8C1445.23,877.39,1605.42,717.19,1605.42,519.59z"/>
		</g>
	</g>
	<g>
		<path class="st5" d="M680.98,496.65c92.57,0,167.6-75.04,167.6-167.6c0-52.93,0-167.6,0-167.6s-127.97,0-167.6,0
			c-92.57,0-167.6,75.04-167.6,167.6c0,50.06,0,167.6,0,167.6S638.47,496.65,680.98,496.65z"/>
		<g>
			<path class="st6" d="M513.37,329.04v-167.6h167.6C588.41,161.44,513.37,236.48,513.37,329.04z"/>
			<path class="st7" d="M848.58,329.04v167.6h-167.6C773.54,496.65,848.58,421.61,848.58,329.04z"/>
		</g>
	</g>
	<g>
		<path class="st8" d="M305.22,1257.91c92.57,0,167.6-75.04,167.6-167.6c0-52.93,0-167.6,0-167.6s-127.97,0-167.6,0
			c-92.57,0-167.6,75.04-167.6,167.6c0,50.06,0,167.6,0,167.6S262.71,1257.91,305.22,1257.91z"/>
		<g>
			<path class="st9" d="M137.61,1090.31V922.7h167.6C212.65,922.7,137.61,997.74,137.61,1090.31z"/>
			<path class="st10" d="M472.82,1090.31v167.6h-167.6C397.78,1257.91,472.82,1182.87,472.82,1090.31z"/>
		</g>
	</g>
	<g>
		<path class="st11" d="M305.22,496.65c92.57,0,167.6-75.04,167.6-167.6c0-52.93,0-167.6,0-167.6s-127.97,0-167.6,0
			c-92.57,0-167.6,75.04-167.6,167.6c0,50.06,0,167.6,0,167.6S262.71,496.65,305.22,496.65z"/>
		<g>
			<path class="st12" d="M137.61,329.04v-167.6h167.6C212.65,161.44,137.61,236.48,137.61,329.04z"/>
			<path class="st13" d="M472.82,329.04v167.6h-167.6C397.78,496.65,472.82,421.61,472.82,329.04z"/>
		</g>
	</g>
	<g>
		<path class="st14" d="M305.22,877.57c92.57,0,167.6-75.04,167.6-167.6c0-52.93,0-167.6,0-167.6s-127.97,0-167.6,0
			c-92.57,0-167.6,75.04-167.6,167.6c0,50.06,0,167.6,0,167.6S262.71,877.57,305.22,877.57z"/>
		<g>
			<path class="st15" d="M137.61,709.96v-167.6h167.6C212.65,542.36,137.61,617.4,137.61,709.96z"/>
			<path class="st16" d="M472.82,709.96v167.6h-167.6C397.78,877.57,472.82,802.53,472.82,709.96z"/>
		</g>
	</g>
	<g>
		<path class="st17" d="M1058.23,1257.91c92.57,0,167.6-75.04,167.6-167.6c0-52.93,0-167.6,0-167.6s-127.97,0-167.6,0
			c-92.57,0-167.6,75.04-167.6,167.6c0,50.06,0,167.6,0,167.6S1015.72,1257.91,1058.23,1257.91z"/>
		<g>
			<path class="st18" d="M890.62,1090.31V922.7h167.6C965.66,922.7,890.62,997.74,890.62,1090.31z"/>
			<path class="st19" d="M1225.83,1090.31v167.6h-167.6C1150.79,1257.91,1225.83,1182.87,1225.83,1090.31z"/>
		</g>
	</g>
	<g>
		<path class="st20" d="M681.72,1257.91c92.57,0,167.6-75.04,167.6-167.6c0-52.93,0-167.6,0-167.6s-127.97,0-167.6,0
			c-92.57,0-167.6,75.04-167.6,167.6c0,50.06,0,167.6,0,167.6S639.22,1257.91,681.72,1257.91z"/>
		<g>
			<path class="st21" d="M514.12,1090.31V922.7h167.6C589.16,922.7,514.12,997.74,514.12,1090.31z"/>
			<path class="st22" d="M849.33,1090.31v167.6h-167.6C774.29,1257.91,849.33,1182.87,849.33,1090.31z"/>
		</g>
	</g>
	<g>
		<path class="st23" d="M680.98,877.57c92.57,0,167.6-75.04,167.6-167.6c0-52.93,0-167.6,0-167.6s-127.97,0-167.6,0
			c-92.57,0-167.6,75.04-167.6,167.6c0,50.06,0,167.6,0,167.6S638.47,877.57,680.98,877.57z"/>
		<g>
			<path class="st24" d="M513.37,709.96v-167.6h167.6C588.41,542.36,513.37,617.4,513.37,709.96z"/>
			<path class="st25" d="M848.58,709.96v167.6h-167.6C773.54,877.57,848.58,802.53,848.58,709.96z"/>
		</g>
	</g>
	<g>
		<path class="st26" d="M1437.82,1257.91c92.57,0,167.6-75.04,167.6-167.6c0-52.93,0-167.6,0-167.6s-127.97,0-167.6,0
			c-92.57,0-167.6,75.04-167.6,167.6c0,50.06,0,167.6,0,167.6S1395.31,1257.91,1437.82,1257.91z"/>
		<g>
			<path class="st27" d="M1267.13,1090.31V922.7h167.6C1342.17,922.7,1267.13,997.74,1267.13,1090.31z"/>
			<path class="st28" d="M1602.34,1090.31v167.6h-167.6C1527.3,1257.91,1602.34,1182.87,1602.34,1090.31z"/>
		</g>
	</g>
	<g>
		<g>
			<path class="st30" d="M83.21,764.21h0.15v10.74h-0.15c-0.69-1.35-2.07-1.83-4.53-1.02l-2.88,0.96v6.45l3.75,1.26
				c1.95,0.66,3.06-0.09,3.66-1.26h0.15v5.16h-0.15c-0.57-1.29-1.71-1.95-3.84-2.7l-17.01-5.91v-4.98l17.61-6.24
				C81.59,766.1,82.64,765.5,83.21,764.21z M74.84,775.22l-8.64,2.88l8.64,2.91V775.22z"/>
			<path class="st30" d="M73.07,763.6c-6.54,0-11.31-4.5-11.31-10.68c0-2.55,0.66-5.22,1.77-7.32l6.81,2.49l-0.03,0.15
				c-4.08,0.51-6.24,2.49-6.24,5.67c0,2.91,2.19,4.74,5.73,4.74c5.43,0,9.12-3.15,9.12-7.8c0-2.64-0.78-4.08-2.64-4.86l0.09-0.21
				c5.04,1.14,7.59,3.96,7.59,8.43C83.96,759.82,79.58,763.6,73.07,763.6z"/>
			<path class="st30" d="M73.07,742.97c-6.54,0-11.31-4.5-11.31-10.68c0-2.55,0.66-5.22,1.77-7.32l6.81,2.49l-0.03,0.15
				c-4.08,0.51-6.24,2.49-6.24,5.67c0,2.91,2.19,4.74,5.73,4.74c5.43,0,9.12-3.15,9.12-7.8c0-2.64-0.78-4.08-2.64-4.86l0.09-0.21
				c5.04,1.14,7.59,3.96,7.59,8.43C83.96,739.19,79.58,742.97,73.07,742.97z"/>
			<path class="st30" d="M74.96,705.4l8.4,0.81v16.11h-0.15c-0.48-1.17-1.14-1.92-3.24-1.92H65.63c-2.07,0-2.61,0.69-3.12,1.92
				h-0.15v-15.81l7.5-0.48v0.15c-3.78,1.08-6.6,3.81-6.6,7.17v0.75h8.88v-0.3c0-2.73-1.74-4.2-3.48-4.77v-0.15h8.22v0.15
				c-1.89,0.57-3.81,2.07-3.81,4.77v0.3h9.39v-0.75c0-3.84-2.58-6.12-7.5-7.8V705.4z"/>
			<path class="st30" d="M62.36,681.38h0.15c0.45,1.62,1.41,2.22,3.27,2.22h17.88v0.15l-17.07,15.36h13.23
				c2.1,0,2.82-0.78,3.39-2.52h0.15v6.18h-0.15c-0.51-1.92-1.29-2.52-3.39-2.52H65.3l-2.79,2.52h-0.15v-8.28l10.26-9.81h-6.84
				c-1.86,0-2.61,0.45-3.27,2.52h-0.15V681.38z"/>
			<path class="st30" d="M61.46,661.31h8.55v0.15c-2.97,0.54-6.48,2.49-6.48,5.19v0.3h16.44c1.95,0,2.88-0.78,3.24-2.82h0.15v11.94
				h-0.15c-0.36-2.04-1.29-2.82-3.24-2.82H63.53v0.3c0,2.7,3.51,4.65,6.48,5.19v0.15h-8.55v-0.15c0.69-0.6,0.9-1.65,0.9-2.67v-11.94
				c0-1.02-0.21-2.07-0.9-2.67V661.31z"/>
			<path class="st30" d="M81.95,659.23l-5.73-1.89v-0.15c4.2-1.05,6.36-4.32,6.36-7.35c0-1.71-0.99-2.97-2.58-2.97
				c-0.96,0-1.86,0.39-2.64,2.13l-2.28,4.98c-1.38,2.94-3.84,4.47-6.48,4.47c-3.27,0-6.84-2.07-6.84-8.07c0-2.7,0.87-5.82,1.86-7.59
				l4.92,2.16v0.15c-3.69,1.2-5.46,3.87-5.46,6.48c0,2.19,1.11,2.97,2.1,2.97c0.99,0,1.92-0.51,2.7-2.1l2.43-5.13
				c1.53-3.3,3.42-4.29,6.03-4.29c4.26,0,7.62,3.18,7.62,7.95C83.96,654.34,83.18,657.07,81.95,659.23z"/>
		</g>
		<line class="st33" x1="72.71" y1="892.72" x2="72.71" y2="819.68"/>
		<line class="st34" x1="72.71" y1="967.59" x2="72.71" y2="892.72"/>
		<line class="st35" x1="72.71" y1="1036.97" x2="72.71" y2="967.59"/>
		<line class="st36" x1="72.71" y1="1108.18" x2="72.71" y2="1036.97"/>
		<line class="st37" x1="72.71" y1="1183.05" x2="72.71" y2="1108.18"/>
		<line class="st38" x1="72.71" y1="1257.91" x2="72.71" y2="1183.05"/>
	</g>
	<g>
		<g>
			<path class="st30" d="M1666.73,419.11h-5.37c-1.95,0-2.88,0.78-3.24,2.82h-0.15v-11.04h0.15c0.48,1.17,1.14,1.92,3.24,1.92h14.34
				c2.07,0,2.61-0.69,3.12-1.92h0.15v9.78c0,5.88-2.28,8.79-6.12,8.79s-6.12-2.91-6.12-8.79V419.11z M1678.1,419.11h-10.5v0.45
				c0,1.74,2.25,3.15,5.25,3.15s5.25-1.41,5.25-3.15V419.11z"/>
			<path class="st30" d="M1658.12,431.24c0.48,1.17,1.14,1.92,3.24,1.92h14.34c2.07,0,2.61-0.69,3.12-1.92h0.15v10.32
				c0,5.94-2.1,8.28-5.16,8.28c-2.82,0-5.19-3.09-5.19-6.81h-0.21c0.09,3.21-1.35,5.61-3.75,6.48l-4.2,1.5
				c-1.44,0.51-2.07,1.44-2.28,2.25h-0.21v-8.01c0.81-0.57,1.74-0.84,2.76-1.17l4.74-1.56c1.89-0.63,2.61-1.14,2.61-2.37v-0.69
				h-6.72c-1.5,0-2.76,0.75-3.24,1.92h-0.15v-10.14H1658.12z M1668.83,440.03c0,1.89,1.86,2.91,4.83,2.91
				c2.73,0,4.44-0.87,4.44-2.91v-0.57h-9.27V440.03z"/>
			<path class="st30" d="M1675.7,464.12h-14.34c-1.5,0-2.76,0.75-3.24,1.92h-0.15V455.9h0.15c0.48,1.17,1.14,1.92,3.24,1.92h14.34
				c2.07,0,2.61-0.69,3.12-1.92h0.15v10.14h-0.15C1678.31,464.81,1677.17,464.12,1675.7,464.12z"/>
			<path class="st30" d="M1675.19,472.79l-12.87-0.78c-3-0.18-3.57,0.45-4.2,2.46h-0.15v-5.76h0.15c0.69,1.65,1.56,2.01,4.2,2.16
				l13.44,0.78c1.32,0.09,2.43-0.48,3.06-1.8h0.15v8.22l-11.55,4.65l11.55,4.68v7.74h-0.15c-0.51-1.23-1.59-1.92-3.3-1.83
				l-14.28,0.81c-1.56,0.09-2.61,0.81-3.12,2.04h-0.15V485.6h0.15c0.66,1.44,1.95,2.28,4.29,2.16l12.78-0.63l-17.52-7.08v-0.18
				L1675.19,472.79z"/>
			<path class="st30" d="M1658.12,520.81h-0.15v-10.74h0.15c0.69,1.35,2.07,1.83,4.53,1.02l2.88-0.96v-6.45l-3.75-1.26
				c-1.95-0.66-3.06,0.09-3.66,1.26h-0.15v-5.16h0.15c0.57,1.29,1.71,1.95,3.84,2.7l17.01,5.91v4.98l-17.61,6.24
				C1659.74,518.92,1658.69,519.52,1658.12,520.81z M1666.49,509.8l8.64-2.88l-8.64-2.91V509.8z"/>
			<path class="st30" d="M1658.12,523.45c0.48,1.17,1.14,1.92,3.24,1.92h14.34c2.07,0,2.61-0.69,3.12-1.92h0.15v10.32
				c0,5.94-2.1,8.28-5.16,8.28c-2.82,0-5.19-3.09-5.19-6.81h-0.21c0.09,3.21-1.35,5.61-3.75,6.48l-4.2,1.5
				c-1.44,0.51-2.07,1.44-2.28,2.25h-0.21v-8.01c0.81-0.57,1.74-0.84,2.76-1.17l4.74-1.56c1.89-0.63,2.61-1.14,2.61-2.37v-0.69
				h-6.72c-1.5,0-2.76,0.75-3.24,1.92h-0.15v-10.14H1658.12z M1668.83,532.24c0,1.89,1.86,2.91,4.83,2.91
				c2.73,0,4.44-0.87,4.44-2.91v-0.57h-9.27V532.24z"/>
			<path class="st30" d="M1678.97,566.1h-0.15c-0.12-0.66-1.53-2.16-3.6-3.3l-7.14-3.87h-6.72c-1.95,0-2.88,0.78-3.24,2.82h-0.15
				v-11.94h0.15c0.36,2.04,1.29,2.82,3.24,2.82h6.63l7.92-4.17c1.68-0.9,2.79-1.92,2.91-2.94h0.15v11.07h-0.15
				c-0.24-1.14-1.05-1.8-2.19-1.8c-0.57,0-1.26,0.18-1.95,0.57l-5.37,3.06l5.37,3.03c0.69,0.39,1.38,0.57,1.95,0.57
				c1.14,0,1.95-0.63,2.19-1.77h0.15V566.1z"/>
		</g>
		<line class="st39" x1="1668.32" y1="161.79" x2="1668.32" y2="380.91"/>
	</g>
</g>
<g id="Layer_3">
</g>
<g id="Layer_4">
</g>
</svg>
