<?xml version="1.0" encoding="utf-8"?>
<!-- Generator: Adobe Illustrator 24.2.3, SVG Export Plug-In . SVG Version: 6.00 Build 0)  -->
<svg version="1.1" xmlns="http://www.w3.org/2000/svg" xmlns:xlink="http://www.w3.org/1999/xlink" x="0px" y="0px"
	 viewBox="0 0 1866 1401" style="enable-background:new 0 0 1866 1401;" xml:space="preserve">
<style type="text/css">
	.st0{display:none;}
	.st1{display:inline;}
	.st2{fill:#1ADAE4;}
	.st3{fill:#094246;}
	.st4{fill:#BAF4F7;}
	.st5{fill:#02E47D;}
	.st6{fill:#024526;}
	.st7{fill:#B2F7D8;}
	.st8{fill:#E400D9;}
	.st9{fill:#450042;}
	.st10{fill:#F7B2F4;}
	.st11{fill:#0273FF;}
	.st12{fill:#00244E;}
	.st13{fill:#B2D5FF;}
	.st14{fill:#A538FF;}
	.st15{fill:#32124D;}
	.st16{fill:#E4C3FF;}
	.st17{fill:#E40A01;}
	.st18{fill:#450301;}
	.st19{fill:#F6B5B2;}
	.st20{fill:#E40167;}
	.st21{fill:#45001F;}
	.st22{fill:#F4AFCD;}
	.st23{fill:#D9E400;}
	.st24{fill:#424502;}
	.st25{fill:#F4F6B2;}
	.st26{fill:#F7860D;}
	.st27{fill:#4B2804;}
	.st28{fill:#FDDAB5;}
	.st29{fill:none;stroke:#000000;stroke-miterlimit:10;}
	.st30{fill:#FFFFFF;}
	.st31{fill:#009EA9;}
	.st32{fill:#C74010;}
	.st33{fill:none;stroke:#D9E400;stroke-width:6;stroke-miterlimit:10;}
	.st34{fill:none;stroke:#02E47D;stroke-width:6;stroke-miterlimit:10;}
	.st35{fill:none;stroke:#0273FF;stroke-width:6;stroke-miterlimit:10;}
	.st36{fill:none;stroke:#A538FF;stroke-width:6;stroke-miterlimit:10;}
	.st37{fill:none;stroke:#E400D9;stroke-width:6;stroke-miterlimit:10;}
	.st38{fill:none;stroke:#E40167;stroke-width:6;stroke-miterlimit:10;}
	.st39{fill:none;stroke:#1ADAE4;stroke-width:6;stroke-miterlimit:10;}
</style>
<g id="Layer_2">
</g>
<g id="Layer_1">
	<g>
		<path class="st2" d="M885,468c0,230.3-186.7,417-417,417c-131.69,0-417,0-417,0s0-318.38,0-417C51,237.7,237.7,51,468,51
			c124.55,0,417,0,417,0S885,362.25,885,468z"/>
		<g>
			<path class="st3" d="M468,51H51v417C51,237.7,237.7,51,468,51z"/>
			<path class="st4" d="M468,885h417V468C885,698.3,698.3,885,468,885z"/>
		</g>
	</g>
	<g>
		<path class="st5" d="M1353.87,233.43c0,103.13-83.61,186.74-186.74,186.74c-58.97,0-186.74,0-186.74,0s0-142.58,0-186.74
			c0-103.13,83.61-186.74,186.74-186.74c55.77,0,186.74,0,186.74,0S1353.87,186.07,1353.87,233.43z"/>
		<g>
			<path class="st6" d="M1167.13,46.69H980.39v186.74C980.39,130.29,1063.99,46.69,1167.13,46.69z"/>
			<path class="st7" d="M1167.13,420.17h186.74V233.43C1353.87,336.56,1270.26,420.17,1167.13,420.17z"/>
		</g>
	</g>
	<g>
		<path class="st8" d="M1353.87,700.28c0,103.13-83.61,186.74-186.74,186.74c-58.97,0-186.74,0-186.74,0s0-142.58,0-186.74
			c0-103.13,83.61-186.74,186.74-186.74c55.77,0,186.74,0,186.74,0S1353.87,652.92,1353.87,700.28z"/>
		<g>
			<path class="st9" d="M1167.13,513.54H980.39v186.74C980.39,597.14,1063.99,513.54,1167.13,513.54z"/>
			<path class="st10" d="M1167.13,887.02h186.74V700.28C1353.87,803.41,1270.26,887.02,1167.13,887.02z"/>
		</g>
	</g>
	<g>
		<path class="st11" d="M1819.31,233.43c0,103.13-83.61,186.74-186.74,186.74c-58.97,0-186.74,0-186.74,0s0-142.58,0-186.74
			c0-103.13,83.61-186.74,186.74-186.74c55.77,0,186.74,0,186.74,0S1819.31,186.07,1819.31,233.43z"/>
		<g>
			<path class="st12" d="M1632.57,46.69h-186.74v186.74C1445.83,130.29,1529.44,46.69,1632.57,46.69z"/>
			<path class="st13" d="M1632.57,420.17h186.74V233.43C1819.31,336.56,1735.71,420.17,1632.57,420.17z"/>
		</g>
	</g>
	<g>
		<path class="st14" d="M1819.31,700.28c0,103.13-83.61,186.74-186.74,186.74c-58.97,0-186.74,0-186.74,0s0-142.58,0-186.74
			c0-103.13,83.61-186.74,186.74-186.74c55.77,0,186.74,0,186.74,0S1819.31,652.92,1819.31,700.28z"/>
		<g>
			<path class="st15" d="M1632.57,513.54h-186.74v186.74C1445.83,597.14,1529.44,513.54,1632.57,513.54z"/>
			<path class="st16" d="M1632.57,887.02h186.74V700.28C1819.31,803.41,1735.71,887.02,1632.57,887.02z"/>
		</g>
	</g>
	<g>
		<path class="st17" d="M1353.87,1166.43c0,103.13-83.61,186.74-186.74,186.74c-58.97,0-186.74,0-186.74,0s0-142.58,0-186.74
			c0-103.13,83.61-186.74,186.74-186.74c55.77,0,186.74,0,186.74,0S1353.87,1119.07,1353.87,1166.43z"/>
		<g>
			<path class="st18" d="M1167.13,979.69H980.39v186.74C980.39,1063.29,1063.99,979.69,1167.13,979.69z"/>
			<path class="st19" d="M1167.13,1353.17h186.74v-186.74C1353.87,1269.56,1270.26,1353.17,1167.13,1353.17z"/>
		</g>
	</g>
	<g>
		<path class="st20" d="M1819.31,1166.43c0,103.13-83.61,186.74-186.74,186.74c-58.97,0-186.74,0-186.74,0s0-142.58,0-186.74
			c0-103.13,83.61-186.74,186.74-186.74c55.77,0,186.74,0,186.74,0S1819.31,1119.07,1819.31,1166.43z"/>
		<g>
			<path class="st21" d="M1632.57,979.69h-186.74v186.74C1445.83,1063.29,1529.44,979.69,1632.57,979.69z"/>
			<path class="st22" d="M1632.57,1353.17h186.74v-186.74C1819.31,1269.56,1735.71,1353.17,1632.57,1353.17z"/>
		</g>
	</g>
	<g>
		<path class="st23" d="M420.17,1166.43c0,103.13-83.61,186.74-186.74,186.74c-58.97,0-186.74,0-186.74,0s0-142.58,0-186.74
			c0-103.13,83.61-186.74,186.74-186.74c55.77,0,186.74,0,186.74,0S420.17,1119.07,420.17,1166.43z"/>
		<g>
			<path class="st24" d="M233.43,979.69H46.69v186.74C46.69,1063.29,130.29,979.69,233.43,979.69z"/>
			<path class="st25" d="M233.43,1353.17h186.74v-186.74C420.17,1269.56,336.56,1353.17,233.43,1353.17z"/>
		</g>
	</g>
	<g>
		<path class="st26" d="M885.61,1166.43c0,103.13-83.61,186.74-186.74,186.74c-58.97,0-186.74,0-186.74,0s0-142.58,0-186.74
			c0-103.13,83.61-186.74,186.74-186.74c55.77,0,186.74,0,186.74,0S885.61,1119.07,885.61,1166.43z"/>
		<g>
			<path class="st27" d="M698.87,979.69H512.13v186.74C512.13,1063.29,595.74,979.69,698.87,979.69z"/>
			<path class="st28" d="M698.87,1353.17h186.74v-186.74C885.61,1269.56,802.01,1353.17,698.87,1353.17z"/>
		</g>
	</g>
</g>
<g id="Layer_3">
</g>
<g id="Layer_4">
</g>
</svg>
