<?xml version="1.0" encoding="utf-8"?>
<!-- Generator: Adobe Illustrator 24.2.3, SVG Export Plug-In . SVG Version: 6.00 Build 0)  -->
<svg version="1.1" xmlns="http://www.w3.org/2000/svg" xmlns:xlink="http://www.w3.org/1999/xlink" x="0px" y="0px"
	 viewBox="0 0 1866 1377" style="enable-background:new 0 0 1866 1377;" xml:space="preserve">
<style type="text/css">
	.st0{display:none;}
	.st1{display:inline;}
	.st2{fill:#1ADAE4;}
	.st3{fill:#094246;}
	.st4{fill:#BAF4F7;}
	.st5{fill:#02E47D;}
	.st6{fill:#024526;}
	.st7{fill:#B2F7D8;}
	.st8{fill:#E400D9;}
	.st9{fill:#450042;}
	.st10{fill:#F7B2F4;}
	.st11{fill:#0273FF;}
	.st12{fill:#00244E;}
	.st13{fill:#B2D5FF;}
	.st14{fill:#A538FF;}
	.st15{fill:#32124D;}
	.st16{fill:#E4C3FF;}
	.st17{fill:#E40A01;}
	.st18{fill:#450301;}
	.st19{fill:#F6B5B2;}
	.st20{fill:#E40167;}
	.st21{fill:#45001F;}
	.st22{fill:#F4AFCD;}
	.st23{fill:#D9E400;}
	.st24{fill:#424502;}
	.st25{fill:#F4F6B2;}
	.st26{fill:#F7860D;}
	.st27{fill:#4B2804;}
	.st28{fill:#FDDAB5;}
	.st29{fill:none;stroke:#000000;stroke-miterlimit:10;}
	.st30{fill:#FFFFFF;}
	.st31{fill:#009EA9;}
	.st32{fill:#C74010;}
	.st33{fill:none;stroke:#D9E400;stroke-width:6;stroke-miterlimit:10;}
	.st34{fill:none;stroke:#02E47D;stroke-width:6;stroke-miterlimit:10;}
	.st35{fill:none;stroke:#0273FF;stroke-width:6;stroke-miterlimit:10;}
	.st36{fill:none;stroke:#A538FF;stroke-width:6;stroke-miterlimit:10;}
	.st37{fill:none;stroke:#E400D9;stroke-width:6;stroke-miterlimit:10;}
	.st38{fill:none;stroke:#E40167;stroke-width:6;stroke-miterlimit:10;}
	.st39{fill:none;stroke:#1ADAE4;stroke-width:6;stroke-miterlimit:10;}
</style>
<g id="Layer_2">
</g>
<g id="Layer_1">
	<g class="st0">
		<path class="st1" d="M209,361v142H67V361H209 M210,360H66v144h144V360L210,360z"/>
	</g>
	<g class="st0">
		<path class="st1" d="M353,361v142H211V361H353 M354,360H210v144h144V360L354,360z"/>
	</g>
	<g class="st0">
		<path class="st1" d="M353,505v142H211V505H353 M354,504H210v144h144V504L354,504z"/>
	</g>
	<g>
		<path d="M858,73c39.15,0,71,31.85,71,71v71h-71c-39.15,0-71-31.85-71-71V73H858 M858,72c-17.03,0-72,0-72,0s0,49.26,0,72
			c0,39.76,32.24,72,72,72c18.26,0,72,0,72,0s0-50.5,0-72C930,104.24,897.76,72,858,72L858,72z"/>
	</g>
	<g>
		<path d="M858,289c39.15,0,71,31.85,71,71v71h-71c-39.15,0-71-31.85-71-71v-71H858 M858,288c-17.03,0-72,0-72,0s0,49.26,0,72
			c0,39.76,32.24,72,72,72c18.26,0,72,0,72,0s0-50.5,0-72C930,320.24,897.76,288,858,288L858,288z"/>
	</g>
	<g>
		<path d="M858,505c39.15,0,71,31.85,71,71v71h-71c-39.15,0-71-31.85-71-71v-71H858 M858,504c-17.03,0-72,0-72,0s0,49.26,0,72
			c0,39.76,32.24,72,72,72c18.26,0,72,0,72,0s0-50.5,0-72C930,536.24,897.76,504,858,504L858,504z"/>
	</g>
	<g>
		<path d="M858,721c39.15,0,71,31.85,71,71v71h-71c-39.15,0-71-31.85-71-71v-71H858 M858,720c-17.03,0-72,0-72,0s0,49.26,0,72
			c0,39.76,32.24,72,72,72c18.26,0,72,0,72,0s0-50.5,0-72C930,752.24,897.76,720,858,720L858,720z"/>
	</g>
	<g>
		<path d="M858,937c39.15,0,71,31.85,71,71v71h-71c-39.15,0-71-31.85-71-71v-71H858 M858,936c-17.03,0-72,0-72,0s0,49.26,0,72
			c0,39.76,32.24,72,72,72c18.26,0,72,0,72,0s0-50.5,0-72C930,968.24,897.76,936,858,936L858,936z"/>
	</g>
	<g>
		<path d="M858,1153c39.15,0,71,31.85,71,71v71h-71c-39.15,0-71-31.85-71-71v-71H858 M858,1152c-17.03,0-72,0-72,0s0,49.26,0,72
			c0,39.76,32.24,72,72,72c18.26,0,72,0,72,0s0-50.5,0-72C930,1184.24,897.76,1152,858,1152L858,1152z"/>
	</g>
	<g>
		<path d="M462,73c18.89,0,36.69,7.41,50.14,20.86C525.59,107.31,533,125.11,533,144c0,18.89-7.41,36.69-20.86,50.14
			C498.69,207.59,480.89,215,462,215H318c-18.89,0-36.69-7.41-50.14-20.86C254.41,180.69,247,162.89,247,144
			c0-18.89,7.41-36.69,20.86-50.14S299.11,73,318,73H462 M462,72H318c-39.6,0-72,32.4-72,72v0c0,39.6,32.4,72,72,72h144
			c39.6,0,72-32.4,72-72v0C534,104.4,501.6,72,462,72L462,72z"/>
	</g>
	<g>
		<path d="M642,73c39.15,0,71,31.85,71,71s-31.85,71-71,71s-71-31.85-71-71S602.85,73,642,73 M642,72c-39.76,0-72,32.24-72,72
			s32.24,72,72,72s72-32.24,72-72S681.76,72,642,72L642,72z"/>
	</g>
	<g>
		<path d="M138,73c39.15,0,71,31.85,71,71s-31.85,71-71,71s-71-31.85-71-71S98.85,73,138,73 M138,72c-39.76,0-72,32.24-72,72
			s32.24,72,72,72s72-32.24,72-72S177.76,72,138,72L138,72z"/>
	</g>
	<g>
		<path d="M462,289c18.89,0,36.69,7.41,50.14,20.86C525.59,323.31,533,341.11,533,360c0,18.89-7.41,36.69-20.86,50.14
			C498.69,423.59,480.89,431,462,431H318c-18.89,0-36.69-7.41-50.14-20.86C254.41,396.69,247,378.89,247,360
			c0-18.89,7.41-36.69,20.86-50.14C281.31,296.41,299.11,289,318,289H462 M462,288H318c-39.6,0-72,32.4-72,72v0
			c0,39.6,32.4,72,72,72h144c39.6,0,72-32.4,72-72v0C534,320.4,501.6,288,462,288L462,288z"/>
	</g>
	<g>
		<path d="M642,289c39.15,0,71,31.85,71,71s-31.85,71-71,71s-71-31.85-71-71S602.85,289,642,289 M642,288c-39.76,0-72,32.24-72,72
			s32.24,72,72,72s72-32.24,72-72S681.76,288,642,288L642,288z"/>
	</g>
	<g>
		<path d="M138,289c39.15,0,71,31.85,71,71s-31.85,71-71,71s-71-31.85-71-71S98.85,289,138,289 M138,288c-39.76,0-72,32.24-72,72
			s32.24,72,72,72s72-32.24,72-72S177.76,288,138,288L138,288z"/>
	</g>
	<g>
		<path d="M462,505c18.89,0,36.69,7.41,50.14,20.86S533,557.11,533,576c0,18.89-7.41,36.69-20.86,50.14
			C498.69,639.59,480.89,647,462,647H318c-18.89,0-36.69-7.41-50.14-20.86S247,594.89,247,576c0-18.89,7.41-36.69,20.86-50.14
			C281.31,512.41,299.11,505,318,505H462 M462,504H318c-39.6,0-72,32.4-72,72v0c0,39.6,32.4,72,72,72h144c39.6,0,72-32.4,72-72v0
			C534,536.4,501.6,504,462,504L462,504z"/>
	</g>
	<g>
		<path d="M642,505c39.15,0,71,31.85,71,71s-31.85,71-71,71s-71-31.85-71-71S602.85,505,642,505 M642,504c-39.76,0-72,32.24-72,72
			s32.24,72,72,72s72-32.24,72-72S681.76,504,642,504L642,504z"/>
	</g>
	<g>
		<path d="M138,505c39.15,0,71,31.85,71,71s-31.85,71-71,71s-71-31.85-71-71S98.85,505,138,505 M138,504c-39.76,0-72,32.24-72,72
			s32.24,72,72,72s72-32.24,72-72S177.76,504,138,504L138,504z"/>
	</g>
	<g>
		<path d="M462,721c18.89,0,36.69,7.41,50.14,20.86C525.59,755.31,533,773.11,533,792c0,18.89-7.41,36.69-20.86,50.14
			S480.89,863,462,863H318c-18.89,0-36.69-7.41-50.14-20.86C254.41,828.69,247,810.89,247,792c0-18.89,7.41-36.69,20.86-50.14
			S299.11,721,318,721H462 M462,720H318c-39.6,0-72,32.4-72,72v0c0,39.6,32.4,72,72,72h144c39.6,0,72-32.4,72-72v0
			C534,752.4,501.6,720,462,720L462,720z"/>
	</g>
	<g>
		<path d="M642,721c39.15,0,71,31.85,71,71s-31.85,71-71,71s-71-31.85-71-71S602.85,721,642,721 M642,720c-39.76,0-72,32.24-72,72
			s32.24,72,72,72s72-32.24,72-72S681.76,720,642,720L642,720z"/>
	</g>
	<g>
		<path d="M138,721c39.15,0,71,31.85,71,71s-31.85,71-71,71s-71-31.85-71-71S98.85,721,138,721 M138,720c-39.76,0-72,32.24-72,72
			s32.24,72,72,72s72-32.24,72-72S177.76,720,138,720L138,720z"/>
	</g>
	<g>
		<path d="M462,937c18.89,0,36.69,7.41,50.14,20.86C525.59,971.31,533,989.11,533,1008c0,18.89-7.41,36.69-20.86,50.14
			S480.89,1079,462,1079H318c-18.89,0-36.69-7.41-50.14-20.86C254.41,1044.69,247,1026.89,247,1008c0-18.89,7.41-36.69,20.86-50.14
			S299.11,937,318,937H462 M462,936H318c-39.6,0-72,32.4-72,72v0c0,39.6,32.4,72,72,72h144c39.6,0,72-32.4,72-72v0
			C534,968.4,501.6,936,462,936L462,936z"/>
	</g>
	<g>
		<path d="M642,937c39.15,0,71,31.85,71,71s-31.85,71-71,71s-71-31.85-71-71S602.85,937,642,937 M642,936c-39.76,0-72,32.24-72,72
			s32.24,72,72,72s72-32.24,72-72S681.76,936,642,936L642,936z"/>
	</g>
	<g>
		<path d="M138,937c39.15,0,71,31.85,71,71s-31.85,71-71,71s-71-31.85-71-71S98.85,937,138,937 M138,936c-39.76,0-72,32.24-72,72
			s32.24,72,72,72s72-32.24,72-72S177.76,936,138,936L138,936z"/>
	</g>
	<g>
		<path d="M462,1153c18.89,0,36.69,7.41,50.14,20.86S533,1205.11,533,1224c0,18.89-7.41,36.69-20.86,50.14
			C498.69,1287.59,480.89,1295,462,1295H318c-18.89,0-36.69-7.41-50.14-20.86S247,1242.89,247,1224c0-18.89,7.41-36.69,20.86-50.14
			S299.11,1153,318,1153H462 M462,1152H318c-39.6,0-72,32.4-72,72v0c0,39.6,32.4,72,72,72h144c39.6,0,72-32.4,72-72v0
			C534,1184.4,501.6,1152,462,1152L462,1152z"/>
	</g>
	<g>
		<path d="M642,1153c39.15,0,71,31.85,71,71s-31.85,71-71,71s-71-31.85-71-71S602.85,1153,642,1153 M642,1152
			c-39.76,0-72,32.24-72,72s32.24,72,72,72s72-32.24,72-72S681.76,1152,642,1152L642,1152z"/>
	</g>
	<g>
		<path d="M138,1153c39.15,0,71,31.85,71,71s-31.85,71-71,71s-71-31.85-71-71S98.85,1153,138,1153 M138,1152
			c-39.76,0-72,32.24-72,72s32.24,72,72,72s72-32.24,72-72S177.76,1152,138,1152L138,1152z"/>
	</g>
	<g>
		<path d="M1073,289v71c0,39.15-31.85,71-71,71h-71v-71c0-39.15,31.85-71,71-71H1073 M1074,288c0,0-50.5,0-72,0
			c-39.76,0-72,32.24-72,72c0,17.03,0,72,0,72s49.26,0,72,0c39.76,0,72-32.24,72-72C1074,341.74,1074,288,1074,288L1074,288z"/>
	</g>
	<g>
		<path d="M1073,505v71c0,39.15-31.85,71-71,71h-71v-71c0-39.15,31.85-71,71-71H1073 M1074,504c0,0-50.5,0-72,0
			c-39.76,0-72,32.24-72,72c0,17.03,0,72,0,72s49.26,0,72,0c39.76,0,72-32.24,72-72C1074,557.74,1074,504,1074,504L1074,504z"/>
	</g>
	<g>
		<path d="M1073,721v71c0,39.15-31.85,71-71,71h-71v-71c0-39.15,31.85-71,71-71H1073 M1074,720c0,0-50.5,0-72,0
			c-39.76,0-72,32.24-72,72c0,17.03,0,72,0,72s49.26,0,72,0c39.76,0,72-32.24,72-72C1074,773.74,1074,720,1074,720L1074,720z"/>
	</g>
	<g>
		<path d="M1073,937v71c0,39.15-31.85,71-71,71h-71v-71c0-39.15,31.85-71,71-71H1073 M1074,936c0,0-50.5,0-72,0
			c-39.76,0-72,32.24-72,72c0,17.03,0,72,0,72s49.26,0,72,0c39.76,0,72-32.24,72-72C1074,989.74,1074,936,1074,936L1074,936z"/>
	</g>
	<g>
		<path d="M1073,1153v71c0,39.15-31.85,71-71,71h-71v-71c0-39.15,31.85-71,71-71H1073 M1074,1152c0,0-50.5,0-72,0
			c-39.76,0-72,32.24-72,72c0,17.03,0,72,0,72s49.26,0,72,0c39.76,0,72-32.24,72-72C1074,1205.74,1074,1152,1074,1152L1074,1152z"/>
	</g>
	<g>
		<path d="M1073,73v71c0,39.15-31.85,71-71,71h-71v-71c0-39.15,31.85-71,71-71H1073 M1074,72c0,0-50.5,0-72,0
			c-39.76,0-72,32.24-72,72c0,17.03,0,72,0,72s49.26,0,72,0c39.76,0,72-32.24,72-72C1074,125.74,1074,72,1074,72L1074,72z"/>
	</g>
	<g>
		<path d="M1542,1153c18.89,0,36.69,7.41,50.14,20.86c13.45,13.45,20.86,31.26,20.86,50.14c0,18.89-7.41,36.69-20.86,50.14
			c-13.45,13.45-31.26,20.86-50.14,20.86h-144c-18.89,0-36.69-7.41-50.14-20.86c-13.45-13.45-20.86-31.26-20.86-50.14
			s7.41-36.69,20.86-50.14c13.45-13.45,31.26-20.86,50.14-20.86H1542 M1542,1152h-144c-39.6,0-72,32.4-72,72v0c0,39.6,32.4,72,72,72
			h144c39.6,0,72-32.4,72-72v0C1614,1184.4,1581.6,1152,1542,1152L1542,1152z"/>
	</g>
	<g>
		<path d="M1218,1153c39.15,0,71,31.85,71,71s-31.85,71-71,71s-71-31.85-71-71S1178.85,1153,1218,1153 M1218,1152
			c-39.76,0-72,32.24-72,72c0,39.76,32.24,72,72,72s72-32.24,72-72C1290,1184.24,1257.76,1152,1218,1152L1218,1152z"/>
	</g>
	<g>
		<path d="M1722,1153c39.15,0,71,31.85,71,71s-31.85,71-71,71s-71-31.85-71-71S1682.85,1153,1722,1153 M1722,1152
			c-39.76,0-72,32.24-72,72c0,39.76,32.24,72,72,72s72-32.24,72-72C1794,1184.24,1761.76,1152,1722,1152L1722,1152z"/>
	</g>
	<g>
		<path d="M1542,937c18.89,0,36.69,7.41,50.14,20.86c13.45,13.45,20.86,31.26,20.86,50.14c0,18.89-7.41,36.69-20.86,50.14
			c-13.45,13.45-31.26,20.86-50.14,20.86h-144c-18.89,0-36.69-7.41-50.14-20.86c-13.45-13.45-20.86-31.26-20.86-50.14
			c0-18.89,7.41-36.69,20.86-50.14c13.45-13.45,31.26-20.86,50.14-20.86H1542 M1542,936h-144c-39.6,0-72,32.4-72,72v0
			c0,39.6,32.4,72,72,72h144c39.6,0,72-32.4,72-72v0C1614,968.4,1581.6,936,1542,936L1542,936z"/>
	</g>
	<g>
		<path d="M1218,937c39.15,0,71,31.85,71,71s-31.85,71-71,71s-71-31.85-71-71S1178.85,937,1218,937 M1218,936
			c-39.76,0-72,32.24-72,72c0,39.76,32.24,72,72,72s72-32.24,72-72C1290,968.24,1257.76,936,1218,936L1218,936z"/>
	</g>
	<g>
		<path d="M1722,937c39.15,0,71,31.85,71,71s-31.85,71-71,71s-71-31.85-71-71S1682.85,937,1722,937 M1722,936
			c-39.76,0-72,32.24-72,72c0,39.76,32.24,72,72,72s72-32.24,72-72C1794,968.24,1761.76,936,1722,936L1722,936z"/>
	</g>
	<g>
		<path d="M1542,721c18.89,0,36.69,7.41,50.14,20.86c13.45,13.45,20.86,31.26,20.86,50.14c0,18.89-7.41,36.69-20.86,50.14
			C1578.69,855.59,1560.89,863,1542,863h-144c-18.89,0-36.69-7.41-50.14-20.86C1334.41,828.69,1327,810.89,1327,792
			c0-18.89,7.41-36.69,20.86-50.14c13.45-13.45,31.26-20.86,50.14-20.86H1542 M1542,720h-144c-39.6,0-72,32.4-72,72v0
			c0,39.6,32.4,72,72,72h144c39.6,0,72-32.4,72-72v0C1614,752.4,1581.6,720,1542,720L1542,720z"/>
	</g>
	<g>
		<path d="M1218,721c39.15,0,71,31.85,71,71s-31.85,71-71,71s-71-31.85-71-71S1178.85,721,1218,721 M1218,720
			c-39.76,0-72,32.24-72,72c0,39.76,32.24,72,72,72s72-32.24,72-72C1290,752.24,1257.76,720,1218,720L1218,720z"/>
	</g>
	<g>
		<path d="M1722,721c39.15,0,71,31.85,71,71s-31.85,71-71,71s-71-31.85-71-71S1682.85,721,1722,721 M1722,720
			c-39.76,0-72,32.24-72,72c0,39.76,32.24,72,72,72s72-32.24,72-72C1794,752.24,1761.76,720,1722,720L1722,720z"/>
	</g>
	<g>
		<path d="M1542,505c18.89,0,36.69,7.41,50.14,20.86c13.45,13.45,20.86,31.26,20.86,50.14c0,18.89-7.41,36.69-20.86,50.14
			C1578.69,639.59,1560.89,647,1542,647h-144c-18.89,0-36.69-7.41-50.14-20.86C1334.41,612.69,1327,594.89,1327,576
			c0-18.89,7.41-36.69,20.86-50.14c13.45-13.45,31.26-20.86,50.14-20.86H1542 M1542,504h-144c-39.6,0-72,32.4-72,72v0
			c0,39.6,32.4,72,72,72h144c39.6,0,72-32.4,72-72v0C1614,536.4,1581.6,504,1542,504L1542,504z"/>
	</g>
	<g>
		<path d="M1218,505c39.15,0,71,31.85,71,71s-31.85,71-71,71s-71-31.85-71-71S1178.85,505,1218,505 M1218,504
			c-39.76,0-72,32.24-72,72s32.24,72,72,72s72-32.24,72-72S1257.76,504,1218,504L1218,504z"/>
	</g>
	<g>
		<path d="M1722,505c39.15,0,71,31.85,71,71s-31.85,71-71,71s-71-31.85-71-71S1682.85,505,1722,505 M1722,504
			c-39.76,0-72,32.24-72,72s32.24,72,72,72s72-32.24,72-72S1761.76,504,1722,504L1722,504z"/>
	</g>
	<g>
		<path d="M1542,289c18.89,0,36.69,7.41,50.14,20.86c13.45,13.45,20.86,31.26,20.86,50.14c0,18.89-7.41,36.69-20.86,50.14
			C1578.69,423.59,1560.89,431,1542,431h-144c-18.89,0-36.69-7.41-50.14-20.86C1334.41,396.69,1327,378.89,1327,360
			c0-18.89,7.41-36.69,20.86-50.14c13.45-13.45,31.26-20.86,50.14-20.86H1542 M1542,288h-144c-39.6,0-72,32.4-72,72v0
			c0,39.6,32.4,72,72,72h144c39.6,0,72-32.4,72-72v0C1614,320.4,1581.6,288,1542,288L1542,288z"/>
	</g>
	<g>
		<path d="M1218,289c39.15,0,71,31.85,71,71s-31.85,71-71,71s-71-31.85-71-71S1178.85,289,1218,289 M1218,288
			c-39.76,0-72,32.24-72,72s32.24,72,72,72s72-32.24,72-72S1257.76,288,1218,288L1218,288z"/>
	</g>
	<g>
		<path d="M1722,289c39.15,0,71,31.85,71,71s-31.85,71-71,71s-71-31.85-71-71S1682.85,289,1722,289 M1722,288
			c-39.76,0-72,32.24-72,72s32.24,72,72,72s72-32.24,72-72S1761.76,288,1722,288L1722,288z"/>
	</g>
	<g>
		<path d="M1542,73c18.89,0,36.69,7.41,50.14,20.86c13.45,13.45,20.86,31.26,20.86,50.14c0,18.89-7.41,36.69-20.86,50.14
			C1578.69,207.59,1560.89,215,1542,215h-144c-18.89,0-36.69-7.41-50.14-20.86C1334.41,180.69,1327,162.89,1327,144
			c0-18.89,7.41-36.69,20.86-50.14C1361.31,80.41,1379.11,73,1398,73H1542 M1542,72h-144c-39.6,0-72,32.4-72,72v0
			c0,39.6,32.4,72,72,72h144c39.6,0,72-32.4,72-72v0C1614,104.4,1581.6,72,1542,72L1542,72z"/>
	</g>
	<g>
		<path d="M1218,73c39.15,0,71,31.85,71,71s-31.85,71-71,71s-71-31.85-71-71S1178.85,73,1218,73 M1218,72c-39.76,0-72,32.24-72,72
			s32.24,72,72,72s72-32.24,72-72S1257.76,72,1218,72L1218,72z"/>
	</g>
	<g>
		<path d="M1722,73c39.15,0,71,31.85,71,71s-31.85,71-71,71s-71-31.85-71-71S1682.85,73,1722,73 M1722,72c-39.76,0-72,32.24-72,72
			s32.24,72,72,72s72-32.24,72-72S1761.76,72,1722,72L1722,72z"/>
	</g>
</g>
<g id="Layer_3">
</g>
<g id="Layer_4">
</g>
</svg>
