<?xml version="1.0" encoding="utf-8"?>
<!-- Generator: Adobe Illustrator 24.2.3, SVG Export Plug-In . SVG Version: 6.00 Build 0)  -->
<svg version="1.1" xmlns="http://www.w3.org/2000/svg" xmlns:xlink="http://www.w3.org/1999/xlink" x="0px" y="0px"
	 viewBox="0 0 1866 1401" style="enable-background:new 0 0 1866 1401;" xml:space="preserve">
<style type="text/css">
	.st0{display:none;}
	.st1{display:inline;}
	.st2{fill:#1ADAE4;}
	.st3{fill:#094246;}
	.st4{fill:#BAF4F7;}
	.st5{fill:#02E47D;}
	.st6{fill:#024526;}
	.st7{fill:#B2F7D8;}
	.st8{fill:#E400D9;}
	.st9{fill:#450042;}
	.st10{fill:#F7B2F4;}
	.st11{fill:#0273FF;}
	.st12{fill:#00244E;}
	.st13{fill:#B2D5FF;}
	.st14{fill:#A538FF;}
	.st15{fill:#32124D;}
	.st16{fill:#E4C3FF;}
	.st17{fill:#E40A01;}
	.st18{fill:#450301;}
	.st19{fill:#F6B5B2;}
	.st20{fill:#E40167;}
	.st21{fill:#45001F;}
	.st22{fill:#F4AFCD;}
	.st23{fill:#D9E400;}
	.st24{fill:#424502;}
	.st25{fill:#F4F6B2;}
	.st26{fill:#F7860D;}
	.st27{fill:#4B2804;}
	.st28{fill:#FDDAB5;}
	.st29{fill:none;stroke:#000000;stroke-miterlimit:10;}
	.st30{fill:#FFFFFF;}
	.st31{fill:#009EA9;}
	.st32{fill:#C74010;}
	.st33{fill:none;stroke:#D9E400;stroke-width:6;stroke-miterlimit:10;}
	.st34{fill:none;stroke:#02E47D;stroke-width:6;stroke-miterlimit:10;}
	.st35{fill:none;stroke:#0273FF;stroke-width:6;stroke-miterlimit:10;}
	.st36{fill:none;stroke:#A538FF;stroke-width:6;stroke-miterlimit:10;}
	.st37{fill:none;stroke:#E400D9;stroke-width:6;stroke-miterlimit:10;}
	.st38{fill:none;stroke:#E40167;stroke-width:6;stroke-miterlimit:10;}
	.st39{fill:none;stroke:#1ADAE4;stroke-width:6;stroke-miterlimit:10;}
</style>
<g id="Layer_2">
</g>
<g id="Layer_1">
	<g>
		<path class="st2" d="M468,885C237.7,885,51,698.3,51,468c0-131.69,0-417,0-417s318.38,0,417,0c230.3,0,417,186.7,417,417
			c0,124.55,0,417,0,417S573.75,885,468,885z"/>
		<g>
			<path class="st3" d="M885,468V51H468C698.3,51,885,237.7,885,468z"/>
			<path class="st4" d="M51,468v417h417C237.7,885,51,698.3,51,468z"/>
		</g>
	</g>
	<g>
		<path class="st5" d="M1340.34,233.43c0,103.13-83.61,186.74-186.74,186.74c-58.97,0-186.74,0-186.74,0s0-142.58,0-186.74
			c0-103.13,83.61-186.74,186.74-186.74c55.77,0,186.74,0,186.74,0S1340.34,186.07,1340.34,233.43z"/>
		<g>
			<path class="st6" d="M1153.6,46.69H966.86v186.74C966.86,130.29,1050.47,46.69,1153.6,46.69z"/>
			<path class="st7" d="M1153.6,420.17h186.74V233.43C1340.34,336.56,1256.74,420.17,1153.6,420.17z"/>
		</g>
	</g>
	<g>
		<path class="st8" d="M1340.34,1151.48c0,103.13-83.61,186.74-186.74,186.74c-58.97,0-186.74,0-186.74,0s0-142.58,0-186.74
			c0-103.13,83.61-186.74,186.74-186.74c55.77,0,186.74,0,186.74,0S1340.34,1104.12,1340.34,1151.48z"/>
		<g>
			<path class="st9" d="M1153.6,964.74H966.86v186.74C966.86,1048.35,1050.47,964.74,1153.6,964.74z"/>
			<path class="st10" d="M1153.6,1338.22h186.74v-186.74C1340.34,1254.61,1256.74,1338.22,1153.6,1338.22z"/>
		</g>
	</g>
	<g>
		<path class="st11" d="M66,1138c0,103.13,83.61,186.74,186.74,186.74c58.97,0,186.74,0,186.74,0s0-142.58,0-186.74
			c0-103.13-83.61-186.74-186.74-186.74c-55.77,0-186.74,0-186.74,0S66,1090.64,66,1138z"/>
		<g>
			<path class="st12" d="M252.74,951.26h186.74V1138C439.48,1034.87,355.87,951.26,252.74,951.26z"/>
			<path class="st13" d="M252.74,1324.74H66V1138C66,1241.13,149.61,1324.74,252.74,1324.74z"/>
		</g>
	</g>
	<g>
		<path class="st14" d="M498,1151.48c0,103.13,83.61,186.74,186.74,186.74c58.97,0,186.74,0,186.74,0s0-142.58,0-186.74
			c0-103.13-83.61-186.74-186.74-186.74c-55.77,0-186.74,0-186.74,0S498,1104.12,498,1151.48z"/>
		<g>
			<path class="st15" d="M684.74,964.74h186.74v186.74C871.48,1048.35,787.87,964.74,684.74,964.74z"/>
			<path class="st16" d="M684.74,1338.22H498v-186.74C498,1254.61,581.61,1338.22,684.74,1338.22z"/>
		</g>
	</g>
	<g>
		<path class="st17" d="M1616.26,883.74c103.13,0,186.74-83.61,186.74-186.74c0-58.97,0-186.74,0-186.74s-142.58,0-186.74,0
			c-103.13,0-186.74,83.61-186.74,186.74c0,55.77,0,186.74,0,186.74S1568.9,883.74,1616.26,883.74z"/>
		<g>
			<path class="st18" d="M1429.52,697V510.26h186.74C1513.13,510.26,1429.52,593.87,1429.52,697z"/>
			<path class="st19" d="M1803,697v186.74h-186.74C1719.39,883.74,1803,800.13,1803,697z"/>
		</g>
	</g>
	<g>
		<path class="st20" d="M1803,1151.48c0,103.13-83.61,186.74-186.74,186.74c-58.97,0-186.74,0-186.74,0s0-142.58,0-186.74
			c0-103.13,83.61-186.74,186.74-186.74c55.77,0,186.74,0,186.74,0S1803,1104.12,1803,1151.48z"/>
		<g>
			<path class="st21" d="M1616.26,964.74h-186.74v186.74C1429.52,1048.35,1513.13,964.74,1616.26,964.74z"/>
			<path class="st22" d="M1616.26,1338.22H1803v-186.74C1803,1254.61,1719.39,1338.22,1616.26,1338.22z"/>
		</g>
	</g>
	<g>
		<path class="st23" d="M1152.74,883.7c103.13,0,186.74-83.61,186.74-186.74c0-58.97,0-186.74,0-186.74s-142.58,0-186.74,0
			c-103.13,0-186.74,83.61-186.74,186.74c0,55.77,0,186.74,0,186.74S1105.38,883.7,1152.74,883.7z"/>
		<g>
			<path class="st24" d="M966,696.96V510.22h186.74C1049.61,510.22,966,593.83,966,696.96z"/>
			<path class="st25" d="M1339.48,696.96V883.7h-186.74C1255.87,883.7,1339.48,800.09,1339.48,696.96z"/>
		</g>
	</g>
	<g>
		<path class="st26" d="M1803,242.48c0,103.13-83.61,186.74-186.74,186.74c-58.97,0-186.74,0-186.74,0s0-142.58,0-186.74
			c0-103.13,83.61-186.74,186.74-186.74c55.77,0,186.74,0,186.74,0S1803,195.12,1803,242.48z"/>
		<g>
			<path class="st27" d="M1616.26,55.74h-186.74v186.74C1429.52,139.35,1513.13,55.74,1616.26,55.74z"/>
			<path class="st28" d="M1616.26,429.22H1803V242.48C1803,345.61,1719.39,429.22,1616.26,429.22z"/>
		</g>
	</g>
</g>
<g id="Layer_3">
</g>
<g id="Layer_4">
</g>
</svg>
