<?xml version="1.0" encoding="utf-8"?>
<!-- Generator: Adobe Illustrator 24.2.3, SVG Export Plug-In . SVG Version: 6.00 Build 0)  -->
<svg version="1.1" xmlns="http://www.w3.org/2000/svg" xmlns:xlink="http://www.w3.org/1999/xlink" x="0px" y="0px"
	 viewBox="0 0 1866 1377" style="enable-background:new 0 0 1866 1377;" xml:space="preserve">
<style type="text/css">
	.st0{display:none;}
	.st1{display:inline;}
	.st2{fill:#1ADAE4;}
	.st3{fill:#094246;}
	.st4{fill:#BAF4F7;}
	.st5{fill:#02E47D;}
	.st6{fill:#024526;}
	.st7{fill:#B2F7D8;}
	.st8{fill:#E400D9;}
	.st9{fill:#450042;}
	.st10{fill:#F7B2F4;}
	.st11{fill:#0273FF;}
	.st12{fill:#00244E;}
	.st13{fill:#B2D5FF;}
	.st14{fill:#A538FF;}
	.st15{fill:#32124D;}
	.st16{fill:#E4C3FF;}
	.st17{fill:#E40A01;}
	.st18{fill:#450301;}
	.st19{fill:#F6B5B2;}
	.st20{fill:#E40167;}
	.st21{fill:#45001F;}
	.st22{fill:#F4AFCD;}
	.st23{fill:#D9E400;}
	.st24{fill:#424502;}
	.st25{fill:#F4F6B2;}
	.st26{fill:#F7860D;}
	.st27{fill:#4B2804;}
	.st28{fill:#FDDAB5;}
	.st29{fill:none;stroke:#000000;stroke-miterlimit:10;}
	.st30{fill:#FFFFFF;}
	.st31{fill:#009EA9;}
	.st32{fill:#C74010;}
	.st33{fill:none;stroke:#D9E400;stroke-width:6;stroke-miterlimit:10;}
	.st34{fill:none;stroke:#02E47D;stroke-width:6;stroke-miterlimit:10;}
	.st35{fill:none;stroke:#0273FF;stroke-width:6;stroke-miterlimit:10;}
	.st36{fill:none;stroke:#A538FF;stroke-width:6;stroke-miterlimit:10;}
	.st37{fill:none;stroke:#E400D9;stroke-width:6;stroke-miterlimit:10;}
	.st38{fill:none;stroke:#E40167;stroke-width:6;stroke-miterlimit:10;}
	.st39{fill:none;stroke:#1ADAE4;stroke-width:6;stroke-miterlimit:10;}
</style>
<g id="Layer_2">
</g>
<g id="Layer_1">
	<path class="st29" d="M288.59,1078.83v-286.5l-0.7-0.7C128.89,791.63,0,920.53,0,1079.53c0,159,128.89,287.89,287.89,287.89
		s287.89-128.89,287.89-287.89l-0.7-0.7H288.59z"/>
	<g>
		<path d="M395.6,1c53.33,0,105.06,10.44,153.76,31.04c47.04,19.9,89.29,48.38,125.57,84.66c36.28,36.28,64.76,78.53,84.66,125.56
			c20.6,48.7,31.04,100.43,31.04,153.76s-10.44,105.06-31.04,153.76c-19.9,47.04-48.38,89.29-84.66,125.56
			c-36.28,36.28-78.53,64.76-125.57,84.66c-48.7,20.6-100.43,31.04-153.76,31.04s-105.06-10.44-153.76-31.04
			c-47.04-19.9-89.29-48.38-125.57-84.66c-36.28-36.28-64.76-78.53-84.66-125.56c-20.6-48.7-31.04-100.43-31.04-153.76
			s10.44-105.06,31.04-153.76c19.9-47.04,48.38-89.29,84.66-125.56c36.28-36.28,78.53-64.76,125.57-84.66
			C290.54,11.44,342.27,1,395.6,1 M395.6,0C176.88,0-0.43,177.31-0.43,396.03S176.88,792.06,395.6,792.06
			s396.03-177.31,396.03-396.03S614.32,0,395.6,0L395.6,0z"/>
	</g>
	<path class="st4" d="M1366.29,1148.98c1.36,0.02,2.71,0.05,4.07,0.05c161.78,0,292.93-131.15,292.93-292.93h-297V1148.98z"/>
	<path class="st2" d="M1078.34,856.1c-0.02,1.34-0.05,2.68-0.05,4.03c0,160.16,128.94,290,288,290V856.1H1078.34z"/>
	<path class="st2" d="M1366.24,856.1c0.02-1.31,0.05-2.63,0.05-3.94c0-156.86-128.94-284.03-288-284.03V856.1H1366.24z"/>
	<path class="st3" d="M1078.29,568.15c-1.31-0.02-2.63-0.05-3.94-0.05c-156.86,0-284.03,128.94-284.03,288h287.97V568.15z"/>
	<g>
		<path d="M247.29,396.63c36.99,0,71.78,14.41,97.93,40.57c26.16,26.16,40.57,60.94,40.57,97.93s-14.41,71.78-40.57,97.93
			c-26.16,26.16-60.94,40.57-97.93,40.57s-71.78-14.41-97.93-40.57c-26.16-26.16-40.57-60.94-40.57-97.93s14.41-71.78,40.57-97.93
			C175.51,411.04,210.29,396.63,247.29,396.63 M247.29,395.63c-77.04,0-139.5,62.46-139.5,139.5s62.46,139.5,139.5,139.5
			s139.5-62.46,139.5-139.5S324.33,395.63,247.29,395.63L247.29,395.63z"/>
	</g>
	<g>
		<path d="M571.29,396.63c36.99,0,71.78,14.41,97.93,40.57c26.16,26.16,40.57,60.94,40.57,97.93s-14.41,71.78-40.57,97.93
			c-26.16,26.16-60.94,40.57-97.93,40.57s-71.78-14.41-97.93-40.57c-26.16-26.16-40.57-60.94-40.57-97.93s14.41-71.78,40.57-97.93
			C499.51,411.04,534.29,396.63,571.29,396.63 M571.29,395.63c-77.04,0-139.5,62.46-139.5,139.5s62.46,139.5,139.5,139.5
			s139.5-62.46,139.5-139.5S648.33,395.63,571.29,395.63L571.29,395.63z"/>
	</g>
	<g>
		<path d="M576.79,900.63c46.68,0.26,90.53,18.56,123.57,51.6c33.27,33.27,51.6,77.51,51.6,124.57c0,0.49-0.01,0.97-0.02,1.46
			H576.79V900.63 M575.79,899.63v179.63h177.14c0.01-0.82,0.03-1.64,0.03-2.46C752.96,978.95,673.64,899.63,575.79,899.63
			L575.79,899.63z"/>
	</g>
	<g>
		<path d="M395.89,1c53.31,0,105.03,10.44,153.71,31.03c47.02,19.89,89.26,48.36,125.52,84.63c36.27,36.27,64.74,78.5,84.63,125.52
			c20.46,48.38,30.9,99.75,31.03,152.71H1c0.13-52.96,10.57-104.33,31.03-152.71c19.89-47.02,48.36-89.26,84.63-125.52
			c36.27-36.27,78.5-64.74,125.52-84.63C290.87,11.44,342.58,1,395.89,1 M395.89,0C177.25,0,0,177.25,0,395.89h791.79
			C791.79,177.25,614.54,0,395.89,0L395.89,0z"/>
	</g>
</g>
<g id="Layer_3">
</g>
<g id="Layer_4">
</g>
</svg>
