<?xml version="1.0" encoding="utf-8"?>
<!-- Generator: Adobe Illustrator 24.2.3, SVG Export Plug-In . SVG Version: 6.00 Build 0)  -->
<svg version="1.1" xmlns="http://www.w3.org/2000/svg" xmlns:xlink="http://www.w3.org/1999/xlink" x="0px" y="0px"
	 viewBox="0 0 1947.3 1377" style="enable-background:new 0 0 1947.3 1377;" xml:space="preserve">
<style type="text/css">
	.st0{display:none;}
	.st1{fill:#FFFFFF;}
	.st2{font-family:'GTSuperDisplay-Super';}
	.st3{font-size:30px;}
	.st4{fill:none;}
	.st5{display:inline;}
	.st6{fill:#1ADAE4;}
	.st7{fill:#094246;}
	.st8{fill:#BAF4F7;}
	.st9{fill:#02E47D;}
	.st10{fill:#024526;}
	.st11{fill:#B2F7D8;}
	.st12{fill:#E400D9;}
	.st13{fill:#450042;}
	.st14{fill:#F7B2F4;}
	.st15{fill:#0273FF;}
	.st16{fill:#00244E;}
	.st17{fill:#B2D5FF;}
	.st18{fill:#A538FF;}
	.st19{fill:#32124D;}
	.st20{fill:#E4C3FF;}
	.st21{fill:#E40A01;}
	.st22{fill:#450301;}
	.st23{fill:#F6B5B2;}
	.st24{fill:#E40167;}
	.st25{fill:#45001F;}
	.st26{fill:#F4AFCD;}
	.st27{fill:#D9E400;}
	.st28{fill:#424502;}
	.st29{fill:#F4F6B2;}
	.st30{fill:#F7860D;}
	.st31{fill:#4B2804;}
	.st32{fill:#FDDAB5;}
	.st33{fill:none;stroke:#000000;stroke-miterlimit:10;}
	.st34{fill:#009EA9;}
	.st35{fill:#C74010;}
	.st36{fill:none;stroke:#D9E400;stroke-width:6;stroke-miterlimit:10;}
	.st37{fill:none;stroke:#02E47D;stroke-width:6;stroke-miterlimit:10;}
	.st38{fill:none;stroke:#0273FF;stroke-width:6;stroke-miterlimit:10;}
	.st39{fill:none;stroke:#A538FF;stroke-width:6;stroke-miterlimit:10;}
	.st40{fill:none;stroke:#E400D9;stroke-width:6;stroke-miterlimit:10;}
	.st41{fill:none;stroke:#E40167;stroke-width:6;stroke-miterlimit:10;}
	.st42{fill:none;stroke:#1ADAE4;stroke-width:6;stroke-miterlimit:10;}
</style>
<g id="Layer_2">
	<rect x="350.9" class="st0" width="1628.36" height="1404"/>
	<text transform="matrix(1 0 0 1 401.5522 151.4474)" class="st1 st2 st3">accents</text>
	<rect x="1028.72" y="125.89" class="st4" width="323.01" height="30.42"/>
	<text transform="matrix(1 0 0 1 1113.2181 147.7879)" class="st1 st2 st3">primary</text>
</g>
<g id="Layer_1">
	
		<rect x="1518.45" y="-0.3" transform="matrix(-1 -3.996282e-11 3.996282e-11 -1 3464.4026 1376.3558)" class="st1" width="427.5" height="1376.96"/>
	<g>
		<path class="st8" d="M1191.02,879.18c-1.5,0.02-3,0.06-4.51,0.06c-179.29,0-324.64-147.46-324.64-329.35h329.15V879.18z"/>
		<path class="st6" d="M1518.5,549.89c0.02,1.5,0.06,3,0.06,4.51c0,179.41-146.64,324.84-327.54,324.84V549.89H1518.5z"/>
		<path class="st6" d="M1191.08,549.89c-0.02-1.5-0.06-2.99-0.06-4.49c0-178.56,146.64-323.32,327.54-323.32v327.81H1191.08z"/>
		<path class="st34" d="M1845.85,551.43c0.02-1.5,0.06-3,0.06-4.51c0-179.41-146.64-324.84-327.54-324.84v329.35H1845.85z"/>
		<path class="st34" d="M1518.43,551.43c-0.02,1.5-0.06,2.99-0.06,4.49c0,178.56,146.64,323.32,327.54,323.32V551.43H1518.43z"/>
		<g>
			<path class="st7" d="M861.88,222.13c1.5-0.02,3-0.06,4.51-0.06c179.29,0,324.64,146.75,324.64,327.76H861.88V222.13z"/>
		</g>
	</g>
	<g>
		<path class="st11" d="M638.33,542.46c-0.73,0.01-1.47,0.03-2.2,0.03c-87.58,0-158.58-71.73-158.58-160.2h160.78V542.46z"/>
		<path class="st9" d="M797.7,381.91c0.01,0.73,0.03,1.46,0.03,2.2c0,87.47-71.5,158.38-159.7,158.38V381.91H797.7z"/>
		<path class="st9" d="M638.05,381.91c-0.01-0.73-0.03-1.46-0.03-2.19c0-87.06,71.5-157.64,159.7-157.64v159.83H638.05z"/>
		<g>
			<path class="st10" d="M477.55,222.11c0.73-0.01,1.46-0.03,2.2-0.03c87.42,0,158.28,71.73,158.28,160.2H477.55V222.11z"/>
		</g>
	</g>
	<g>
		<path class="st32" d="M1359.43,1238.43c-0.73,0.01-1.47,0.03-2.2,0.03c-87.58,0-158.58-71.73-158.58-160.2h160.78V1238.43z"/>
		<path class="st30" d="M1518.8,1077.87c0.01,0.73,0.03,1.46,0.03,2.2c0,87.47-71.5,158.38-159.7,158.38v-160.58H1518.8z"/>
		<path class="st30" d="M1359.16,1077.87c-0.01-0.73-0.03-1.46-0.03-2.19c0-87.06,71.5-157.64,159.7-157.64v159.83H1359.16z"/>
		<path class="st35" d="M1518.9,1077.87c-0.01,0.73-0.03,1.46-0.03,2.2c0,87.47,71.5,158.38,159.7,158.38v-160.58H1518.9z"/>
		<path class="st35" d="M1678.54,1077.87c0.01-0.73,0.03-1.46,0.03-2.19c0-87.06-71.5-157.64-159.7-157.64v159.83H1678.54z"/>
		<g>
			<path class="st31" d="M1198.65,918.07c0.73-0.01,1.46-0.03,2.2-0.03c87.42,0,158.28,71.73,158.28,160.2h-160.48V918.07z"/>
		</g>
	</g>
	<g>
		<path class="st23" d="M1022.66,1238.43c-0.73,0.01-1.47,0.03-2.2,0.03c-87.58,0-158.58-71.73-158.58-160.2h160.78V1238.43z"/>
		<path class="st21" d="M1182.02,1077.87c0.01,0.73,0.03,1.46,0.03,2.2c0,87.47-71.5,158.38-159.7,158.38v-160.58H1182.02z"/>
		<path class="st21" d="M1022.38,1077.87c-0.01-0.73-0.03-1.46-0.03-2.19c0-87.06,71.5-157.64,159.7-157.64v159.83H1022.38z"/>
		<g>
			<path class="st22" d="M861.88,918.07c0.73-0.01,1.46-0.03,2.2-0.03c87.42,0,158.28,71.73,158.28,160.2H861.88V918.07z"/>
		</g>
	</g>
	<g>
		<path class="st29" d="M638.33,879.21c-0.73,0.01-1.47,0.03-2.2,0.03c-87.58,0-158.58-71.73-158.58-160.2h160.78V879.21z"/>
		<path class="st27" d="M797.7,718.66c0.01,0.73,0.03,1.46,0.03,2.2c0,87.47-71.5,158.38-159.7,158.38V718.66H797.7z"/>
		<path class="st27" d="M638.05,718.66c-0.01-0.73-0.03-1.46-0.03-2.19c0-87.06,71.5-157.64,159.7-157.64v159.83H638.05z"/>
		<g>
			<path class="st28" d="M477.55,558.86c0.73-0.01,1.46-0.03,2.2-0.03c87.42,0,158.28,71.73,158.28,160.2H477.55V558.86z"/>
		</g>
	</g>
	<g>
		<path class="st14" d="M266.9,1238.43c-0.73,0.01-1.47,0.03-2.2,0.03c-87.58,0-158.58-71.73-158.58-160.2H266.9V1238.43z"/>
		<path class="st12" d="M426.27,1077.87c0.01,0.73,0.03,1.46,0.03,2.2c0,87.47-71.5,158.38-159.7,158.38v-160.58H426.27z"/>
		<path class="st12" d="M266.63,1077.87c-0.01-0.73-0.03-1.46-0.03-2.19c0-87.06,71.5-157.64,159.7-157.64v159.83H266.63z"/>
		<g>
			<path class="st13" d="M106.12,918.07c0.73-0.01,1.46-0.03,2.2-0.03c87.42,0,158.28,71.73,158.28,160.2H106.12V918.07z"/>
		</g>
	</g>
	<g>
		<path class="st26" d="M638.33,1238.43c-0.73,0.01-1.47,0.03-2.2,0.03c-87.58,0-158.58-71.73-158.58-160.2h160.78V1238.43z"/>
		<path class="st24" d="M797.7,1077.87c0.01,0.73,0.03,1.46,0.03,2.2c0,87.47-71.5,158.38-159.7,158.38v-160.58H797.7z"/>
		<path class="st24" d="M638.05,1077.87c-0.01-0.73-0.03-1.46-0.03-2.19c0-87.06,71.5-157.64,159.7-157.64v159.83H638.05z"/>
		<g>
			<path class="st25" d="M477.55,918.07c0.73-0.01,1.46-0.03,2.2-0.03c87.42,0,158.28,71.73,158.28,160.2H477.55V918.07z"/>
		</g>
	</g>
	<g>
		<path class="st17" d="M266.9,542.46c-0.73,0.01-1.47,0.03-2.2,0.03c-87.58,0-158.58-71.73-158.58-160.2H266.9V542.46z"/>
		<path class="st15" d="M426.27,381.91c0.01,0.73,0.03,1.46,0.03,2.2c0,87.47-71.5,158.38-159.7,158.38V381.91H426.27z"/>
		<path class="st15" d="M266.63,381.91c-0.01-0.73-0.03-1.46-0.03-2.19c0-87.06,71.5-157.64,159.7-157.64v159.83H266.63z"/>
		<g>
			<path class="st16" d="M106.12,222.11c0.73-0.01,1.46-0.03,2.2-0.03c87.42,0,158.28,71.73,158.28,160.2H106.12V222.11z"/>
		</g>
	</g>
	<g>
		<path class="st20" d="M266.9,879.21c-0.73,0.01-1.47,0.03-2.2,0.03c-87.58,0-158.58-71.73-158.58-160.2H266.9V879.21z"/>
		<path class="st18" d="M426.27,718.66c0.01,0.73,0.03,1.46,0.03,2.2c0,87.47-71.5,158.38-159.7,158.38V718.66H426.27z"/>
		<path class="st18" d="M266.63,718.66c-0.01-0.73-0.03-1.46-0.03-2.19c0-87.06,71.5-157.64,159.7-157.64v159.83H266.63z"/>
		<g>
			<path class="st19" d="M106.12,558.86c0.73-0.01,1.46-0.03,2.2-0.03c87.42,0,158.28,71.73,158.28,160.2H106.12V558.86z"/>
		</g>
	</g>
	<text transform="matrix(1 0 0 1 1611.8851 151.1461)" class="st2 st3">alternates</text>
</g>
<g id="Layer_3">
</g>
<g id="Layer_4">
</g>
</svg>
