<?xml version="1.0" encoding="utf-8"?>
<!-- Generator: Adobe Illustrator 14.0.0, SVG Export Plug-In  -->
<!DOCTYPE svg PUBLIC "-//W3C//DTD SVG 1.1//EN" "http://www.w3.org/Graphics/SVG/1.1/DTD/svg11.dtd" [
	<!ENTITY ns_flows "http://ns.adobe.com/Flows/1.0/">
]>
<svg version="1.1"
	 xmlns="http://www.w3.org/2000/svg" xmlns:xlink="http://www.w3.org/1999/xlink" xmlns:a="http://ns.adobe.com/AdobeSVGViewerExtensions/3.0/"
	 x="0px" y="0px" width="378px" height="720px" viewBox="-26 -232.586 378 720" enable-background="new -26 -232.586 378 720"
	 xml:space="preserve">
<defs>
</defs>
<polygon fill="#FFFFFF" stroke="#000000" stroke-width="2" stroke-dasharray="2,2,2,2,2,9.63" points="163,253.414 37,127.414 
	37,99.414 107,29.414 163,85.414 219,29.414 289,99.414 289,127.414 "/>
<polygon opacity="0.62" fill="#FFFFFF" stroke="#000000" stroke-width="2" stroke-dasharray="2,2,2,2,2,9.63" points="163,271.414 
	19,127.414 19,95.414 99,15.414 163,79.414 227,15.414 307,95.414 307,127.414 "/>
<polygon fill="none" stroke="#000000" stroke-width="2" points="163,289.414 1,127.414 1,91.414 91,1.414 163,73.414 235,1.414 
	325,91.414 325,127.414 "/>
<line fill="none" stroke="#000000" stroke-width="2" stroke-dasharray="2,2,2,2,2,9.63" x1="163" y1="73.414" x2="163" y2="289.414"/>
<line fill="none" stroke="#000000" stroke-width="2" stroke-dasharray="2,2,2,2,2,9.63" x1="163" y1="79.414" x2="163" y2="271.414"/>
<line fill="none" stroke="#000000" stroke-width="2" stroke-dasharray="2,2,2,2,2,9.63" x1="163" y1="82.208" x2="163" y2="253.414"/>
</svg>
