<?xml version="1.0" encoding="utf-8"?>
<!-- Generator: Adobe Illustrator 14.0.0, SVG Export Plug-In  -->
<!DOCTYPE svg PUBLIC "-//W3C//DTD SVG 1.1//EN" "http://www.w3.org/Graphics/SVG/1.1/DTD/svg11.dtd" [
	<!ENTITY ns_flows "http://ns.adobe.com/Flows/1.0/">
]>
<svg version="1.1"
	 xmlns="http://www.w3.org/2000/svg" xmlns:xlink="http://www.w3.org/1999/xlink" xmlns:a="http://ns.adobe.com/AdobeSVGViewerExtensions/3.0/"
	 x="0px" y="0px" width="1512px" height="720px" viewBox="-34.95 -169.365 1512 720"
	 enable-background="new -34.95 -169.365 1512 720" xml:space="preserve">
<defs>
</defs>
<polygon fill="#FFFFFF" stroke="#000000" stroke-width="2" stroke-miterlimit="5" stroke-dasharray="9.3913,9.3913,4.6957,9.3913,4.6957,9.3913" points="
	965.543,44.616 1027.507,153.208 1005.17,276.223 908.985,356.103 783.961,355.467 688.596,274.616 667.51,151.38 730.573,43.421 
	848.275,1.258 "/>
<path fill="none" stroke="#000000" stroke-width="2" d="M845.727,191.79c0,0-80.893-87.837,2.664-191.161"/>
<path fill="none" stroke="#000000" stroke-width="2" stroke-dasharray="2,2,2,2,2,9.3913" d="M965.658,43.987
	C965.029,179.981,845.727,191.79,845.727,191.79"/>
<path fill="none" stroke="#000000" stroke-width="2" d="M840.687,188.902c0,0-5.701-119.275,124.68-144.93"/>
<path fill="none" stroke="#000000" stroke-width="2" stroke-dasharray="2,2,2,2,2,9.3913" d="M1027.507,152.464
	c-87.729,103.915-186.82,36.438-186.82,36.438"/>
<path fill="none" stroke="#000000" stroke-width="2" d="M839.708,183.248c0,0,72.518-94.87,188.739-30.451"/>
<path fill="none" stroke="#000000" stroke-width="2" stroke-dasharray="2,2,2,2,2,9.3913" d="M1006.032,275.8
	c-134.053,22.907-166.324-92.552-166.324-92.552"/>
<path fill="none" stroke="#000000" stroke-width="2" d="M839.305,179.207c0,0,116.288-27.14,165.058,96.47"/>
<path fill="none" stroke="#000000" stroke-width="2" stroke-dasharray="2,2,2,2,2,9.3913" d="M907.749,355.432
	c-118.044-67.531-68.444-176.225-68.444-176.225"/>
<path fill="none" stroke="#000000" stroke-width="2" d="M846.639,174.959c0,0,106.118,54.754,63.081,180.473"/>
<path fill="none" stroke="#000000" stroke-width="2" stroke-dasharray="2,2,2,2,2,9.3913" d="M784.692,354.938
	c-46.063-127.958,61.946-179.979,61.946-179.979"/>
<path fill="none" stroke="#000000" stroke-width="2" d="M852.335,176.218c0,0,45.918,110.23-67.971,178.689"/>
<path fill="none" stroke="#000000" stroke-width="2" stroke-dasharray="2,2,2,2,2,9.3913" d="M689.035,274.009
	c47.169-127.556,163.3-97.791,163.3-97.791"/>
<path fill="none" stroke="#000000" stroke-width="2" d="M854.986,181.087c0,0-35.76,113.93-166.994,93.074"/>
<path fill="none" stroke="#000000" stroke-width="2" stroke-dasharray="2,2,2,2,2,9.3913" d="M667.054,150.899
	c118.172-67.311,187.933,30.188,187.933,30.188"/>
<path fill="none" stroke="#000000" stroke-width="2" d="M854.862,187.689c0,0-100.52,64.459-187.812-35.728"/>
<path fill="none" stroke="#000000" stroke-width="2" stroke-dasharray="2,2,2,2,2,9.3913" d="M730.062,43.973
	c133.83,24.174,124.801,143.717,124.801,143.717"/>
<path fill="none" stroke="#000000" stroke-width="2" d="M853.253,191.361c0,0-118.485-14.847-121.392-147.695"/>
<path fill="none" stroke="#000000" stroke-width="2" stroke-dasharray="2,2,2,2,2,9.3913" d="M849.406,1.059
	c87.324,104.258,3.847,190.303,3.847,190.303"/>
<polygon id="hexagon_3_" fill="#FFFFFF" stroke="#000000" stroke-width="2" stroke-dasharray="9.3913,9.3913,4.6957,9.3913,4.6957,9.3913" points="
	307.92,263.692 307.47,94.299 453.945,9.212 600.87,93.52 601.321,262.915 454.845,348.001 "/>
<path fill="#FFFFFF" stroke="#000000" stroke-width="2" d="M455.161,179.154c0,0,15.611-111.883,145.235-85.117"/>
<path fill="#FFFFFF" stroke="#000000" stroke-width="2" stroke-dasharray="2,2,2,2,2,9.39" d="M601.02,263.431
	c-127.692,26.551-145.858-84.276-145.858-84.276"/>
<path fill="#FFFFFF" stroke="#000000" stroke-width="2" d="M454.021,179.547c0,0,105.231-41.857,147.301,83.636"/>
<path fill="#FFFFFF" stroke="#000000" stroke-width="2" stroke-dasharray="2,2,2,2,2,9.3913" d="M454.551,348.001
	c-87.179-97.006-0.53-168.454-0.53-168.454"/>
<path fill="#FFFFFF" stroke="#000000" stroke-width="2" d="M455.199,179.113c0,0-88.864-70.205-1.218-169.385"/>
<path fill="#FFFFFF" stroke="#000000" stroke-width="2" stroke-dasharray="2,2,2,2,2,9.3913" d="M600.821,94.426
	c-40.42,124.001-145.622,84.688-145.622,84.688"/>
<path fill="#FFFFFF" stroke="#000000" stroke-width="2" d="M453.468,179.666c0,0,89.02,69.55,0.926,168.335"/>
<path fill="#FFFFFF" stroke="#000000" stroke-width="2" stroke-dasharray="2,2,2,2,2,9.3913" d="M307.47,263.694
	c40.977-123.817,145.998-84.028,145.998-84.028"/>
<path fill="#FFFFFF" stroke="#000000" stroke-width="2" d="M453.128,178.797c0,0-16.255,111.79-145.723,84.276"/>
<path fill="#FFFFFF" stroke="#000000" stroke-width="2" stroke-dasharray="2,2,2,2,2,9.3913" d="M307.761,93.68
	c127.843-25.815,145.367,85.117,145.367,85.117"/>
<path fill="#FFFFFF" stroke="#000000" stroke-width="2" d="M453.286,177.185c0,0-104.747,42.305-146.236-83.384"/>
<path fill="#FFFFFF" stroke="#000000" stroke-width="2" stroke-dasharray="2,2,2,2,2,9.39" d="M453.534,8.73
	c86.729,97.406-0.248,168.454-0.248,168.454"/>
<polygon fill="#FFFFFF" stroke="#000000" stroke-width="2" stroke-miterlimit="5" stroke-dasharray="9.3913,9.3913,4.6957,9.3913,4.6957,9.3913" points="
	1.732,285.758 126.943,68.886 252.154,285.758 "/>
<path opacity="0.53" fill="#FFFFFF" stroke="#000000" stroke-width="2" d="M127.194,214.357c53.68,0,100.55,29.15,125.643,72.486"/>
<path opacity="0.53" fill="#FFFFFF" stroke="#000000" stroke-width="2" stroke-dasharray="2,2,2,2,2,9.3913" d="M1.05,287.717
	c24.968-43.816,72.106-73.359,126.145-73.359"/>
<path fill="#FFFFFF" stroke="#000000" stroke-width="2" d="M126.279,214.521c-12.222-21.262-19.211-45.914-19.211-72.197
	c0-26.09,6.887-50.57,18.941-71.725"/>
<path fill="#FFFFFF" stroke="#000000" stroke-width="2" stroke-dasharray="2,2,2,2,2,9.3913" d="M252.154,287.41
	c-53.844,0-100.838-29.332-125.875-72.889"/>
<path opacity="0.48" fill="#FFFFFF" stroke="#000000" stroke-width="2" d="M127.514,214.363
	C102.564,258.248,55.389,287.846,1.3,287.846"/>
<path opacity="0.48" fill="#FFFFFF" stroke="#000000" stroke-width="2" stroke-dasharray="2,2,2,2,2,9.3913" d="M126.942,70.163
	c12.363,21.353,19.44,46.148,19.44,72.598c0,26.039-6.859,50.477-18.869,71.603"/>
<polygon fill="#FFFFFF" stroke="#000000" stroke-width="2" stroke-miterlimit="5" stroke-dasharray="2,2,2,2,2,9.63" points="
	1140.962,257.702 1266.173,40.832 1391.384,257.702 "/>
<path opacity="0.53" fill="#FFFFFF" stroke="#000000" stroke-width="2" stroke-dasharray="2,2,2,2,2,9.63" d="M1266.424,186.302
	c53.68,0,100.55,29.151,125.643,72.487"/>
<path fill="#FFFFFF" stroke="#000000" stroke-width="2" stroke-dasharray="2,2,2,2,2,9.63" d="M1265.509,186.467
	c-12.222-21.262-19.211-45.913-19.211-72.196c0-26.09,6.887-50.57,18.941-71.725"/>
<path opacity="0.48" fill="#FFFFFF" stroke="#000000" stroke-width="2" stroke-dasharray="2,2,2,2,2,9.63" d="M1266.743,186.309
	c-24.949,43.884-72.125,73.482-126.214,73.482"/>
<path fill="#FFFFFF" stroke="#000000" stroke-width="2" stroke-dasharray="2,2,2,2,2,9.63" d="M1264.369,180.943
	c0,0,15.611-111.883,145.235-85.117"/>
<path fill="#FFFFFF" stroke="#000000" stroke-width="2" stroke-dasharray="2,2,2,2,2,9.63" d="M1263.229,181.336
	c0,0,105.231-41.857,147.301,83.637"/>
<path fill="#FFFFFF" stroke="#000000" stroke-width="2" stroke-dasharray="2,2,2,2,2,9.63" d="M1264.407,180.902
	c0,0-88.864-70.205-1.218-169.385"/>
<path fill="#FFFFFF" stroke="#000000" stroke-width="2" stroke-dasharray="2,2,2,2,2,9.63" d="M1262.676,181.455
	c0,0,89.02,69.551,0.926,168.336"/>
<path fill="#FFFFFF" stroke="#000000" stroke-width="2" stroke-dasharray="2,2,2,2,2,9.63" d="M1262.336,180.586
	c0,0-16.255,111.791-145.723,84.277"/>
<path fill="#FFFFFF" stroke="#000000" stroke-width="2" stroke-dasharray="2,2,2,2,2,9.63" d="M1262.494,178.974
	c0,0-104.747,42.306-146.236-83.384"/>
<polygon id="hexagon_2_" fill="#FFFFFF" stroke="#000000" stroke-width="2" stroke-dasharray="2,2,2,2,2,9.63" points="
	1117.128,265.482 1116.678,96.088 1263.153,11.001 1410.078,95.309 1410.529,264.705 1264.053,349.791 "/>
<polygon fill="none" stroke="#000000" stroke-width="2" stroke-miterlimit="5" points="1379.543,44.616 1441.507,153.208 
	1419.17,276.223 1322.985,356.103 1197.961,355.467 1102.596,274.616 1081.51,151.379 1144.573,43.421 1262.275,1.258 "/>
<path fill="none" stroke="#000000" stroke-width="2" d="M1259.727,191.79c0,0-80.893-87.837,2.664-191.161"/>
<path fill="none" stroke="#000000" stroke-width="2" d="M1254.687,188.902c0,0-5.701-119.275,124.68-144.93"/>
<path fill="none" stroke="#000000" stroke-width="2" d="M1253.708,183.248c0,0,72.518-94.87,188.739-30.451"/>
<path fill="none" stroke="#000000" stroke-width="2" d="M1253.305,179.207c0,0,116.288-27.14,165.058,96.47"/>
<path fill="none" stroke="#000000" stroke-width="2" d="M1260.639,174.959c0,0,106.118,54.754,63.081,180.473"/>
<path fill="none" stroke="#000000" stroke-width="2" d="M1266.335,176.218c0,0,45.918,110.23-67.971,178.689"/>
<path fill="none" stroke="#000000" stroke-width="2" d="M1268.986,181.087c0,0-35.76,113.93-166.994,93.074"/>
<path fill="none" stroke="#000000" stroke-width="2" d="M1268.862,187.689c0,0-100.52,64.459-187.812-35.728"/>
<path fill="none" stroke="#000000" stroke-width="2" d="M1267.253,191.361c0,0-118.485-14.847-121.392-147.696"/>
</svg>
