<?xml version="1.0" encoding="utf-8"?>
<!-- Generator: Adobe Illustrator 14.0.0, SVG Export Plug-In  -->
<!DOCTYPE svg PUBLIC "-//W3C//DTD SVG 1.1//EN" "http://www.w3.org/Graphics/SVG/1.1/DTD/svg11.dtd" [
	<!ENTITY ns_flows "http://ns.adobe.com/Flows/1.0/">
]>
<svg version="1.1"
	 xmlns="http://www.w3.org/2000/svg" xmlns:xlink="http://www.w3.org/1999/xlink" xmlns:a="http://ns.adobe.com/AdobeSVGViewerExtensions/3.0/"
	 x="0px" y="0px" width="720px" height="720px" viewBox="-182.5 -182.999 720 720" enable-background="new -182.5 -182.999 720 720"
	 xml:space="preserve">
<defs>
</defs>
<circle fill="#FFFFFF" stroke="#000000" stroke-width="2" cx="181" cy="181" r="180"/>
<path fill="#00BCD4" d="M181.062,129.602c0-35.464,36.92-64.464,77.911-64.162c51.237,0.381,70.271,44.566,51.508,91.66
	c-5.251,13.177-129.419,174.152-129.419,174.152S77.637,205.109,52.74,157.1c-26.688-51.462,15.906-96.467,59.578-91.66
	C181,73.001,181.062,129.602,181.062,129.602z"/>
<path opacity="0.3" fill="#FFFFFF" stroke="#000000" d="M180.555,136.222c0.877-4.582,6.645-7.364,10.07-16.295
	c2.399-6.256,3.234-14.174,7.104-19.973c4.444-6.664,13.432-5.594,20.11-7.934c7.565-2.652,11.104-6.889,17.327-12.195
	c4.293-3.662,12.697-6.563,18.362-4.604c5.007,1.733,4.823,6.599,8.358,10.383c6.811,7.295,17.963,8.694,27.019,11.522
	c9.57,2.988,4.413,11.366,7.368,19.235c2.94,7.835,13.133,8.165,14.144,16.792c0.691,5.902-4.286,17.053-7.525,22.046
	c-4.437,6.842-6.808,15.839-11.699,22.122c-3.945,5.068-10.486,7.685-16.437,9.327c-9.183,2.535-14.199,8.682-20.823,14.652
	c-5.928,5.343-14.685,6.579-19.021,13.823c-2.529,4.225-1.084,19.592-2.927,23.959c-7.353,17.417-16.821,22.217-27.274,38.049
	c-3.955,5.988-6.154,20.934-11.426,26.112c-2.09,2.053-11.558,11.618-14.275,12.731c-0.703,0.287-6.4-10.545-6.737-10.643
	c-2.635-0.76-3.171-4.341-3.979-6.645c-2.074-5.914-3.475-11.68-9.102-15.303c-7.67-4.934-19.076-7.103-22.928-15.15
	c-4.933-10.31-6.955-17.948-15.457-22.192c-3.883-1.938-2.023-6.626-4.031-10.522c-2.213-4.292-6.678-6.622-9.617-10.229
	c-3.061-3.757-4.021-8.438-6.156-12.688c-2.324-4.628-5.797-7.776-10.17-10.566c-4.147-2.646-8.364-3.55-9.573-8.784
	c-1.028-4.447,1.573-11.087-0.568-15.042c-1.478-2.727-6.69-5.175-9.239-6.81c-6.783-4.347-14.127-14.302-14.127-14.302
	c0.381-8.021-3.02-7.756,0-9.166c3.594-1.679,2.54-0.643,2.545-4.583c0.01-6.07-2.786-15.675-0.166-21.336
	c1.881-4.058,7.359-6.397,9.73-10.351c1.883-3.137,1.795-7.028,2.67-10.551c2.112-8.47,8.242-10.988,12.832-17.747
	c2.023-2.981,4.145-5.475,7.523-6.211c4.184-0.915,8.584,1.673,12.729,0.393c7.411-2.288,8.923-10.454,18.22-6.889
	c6.524,2.502,11.546,9.048,17.936,12.604c6.315,3.514,15.744,4.833,18.331,12.706c0.671,2.044-0.192,4.659,0.585,6.545
	c0.57,1.384,2.938,2.697,3.613,4.571c1.664,4.61,0.214,6.142,4.065,9.637C174.633,122.795,177.431,128.273,180.555,136.222"/>
<path opacity="0.4" fill="#FFFFFF" stroke="#000000" d="M199.904,118.399c-2.186,1.531-3.099,2.316-3.563,5.093
	c-0.599,3.588,0.069,4.062-1.401,7.253c-3.43,7.444-9.984,13.823-13.904,21.081c0.53-10.436-6.34-9.065-12.701-14.191
	c-4.877-3.93-10.213-10.931-13.24-16.181c-1.598-2.771-3.49-6.797-4.199-10.071c-0.564-2.608,0.121-9.117-1.506-11.214
	c-1.635-2.107-7.617-3.021-10.096-4.161c-3.549-1.633-7.018-3.249-10.678-4.738c-7.42-3.022-13.752-0.485-20.764-3.04
	c-8.555-3.116-12.066,4.165-11.412,12.26c-3.039,0.843-4.814,3.752-7.61,4.881c-2.655,1.071-4.409,0.27-7.211,0.708
	c-5.653,0.883-8.349,5.099-10.021,10.272c-1.246,3.85,0.166,8.382-1.137,12.132c-1.084,3.124-3.879,5.02-4.595,8.645
	c-2.794,14.154,19.452,20.622,22.915,33.722c1.33,5.029,0.263,6.715,3.792,10.569c2.673,2.918,5.991,4.476,8.938,6.857
	c6.215,5.024,9.588,12.281,10.796,19.746c1.322,8.182-0.649,17.417,6.657,22.406c6.973,4.761,11.729,6.637,15.363,14.144
	c1.509,3.115,2.895,5.234,3.592,8.771c0.365,1.857,0.127,3.703,0.357,5.613c0.002,0.011,0.002,0.022,0.004,0.033
	c0.929,7.698,19.032,9.55,25.061,14.088c3.886,2.927,11.398,14.421,16.505,14.317c3.2-0.065,6.536-5.9,8.87-7.821
	c3.34-2.747,6.954-4.219,9.064-8.165c5.334-9.974,5.508-22.886,10.398-33.33c1.963-4.192,3.763-7.438,4.961-11.723
	c0.599-2.141-0.66-2.07,0.884-4.204c1.091-1.508,3.414-2.21,4.834-3.298c5.741-4.394,11.261-8.294,17.327-11.724
	c2.977-1.682,7.968-2.487,10.465-4.809c5.51-5.121,7.649-19.886,18.345-18.309c0.907-4.843,5.206-4.283,8.745-6.135
	c3.479-1.82,8.754-5.42,11.215-8.556c5.023-6.396,6.359-16.65,7.116-24.442c1.38-14.196-1.299-34.795-15.149-42.39
	c-7.059-3.87-18.646-8.176-22.633-16.091c-7.794,3.427-15.301,7.751-23.318,10.994c-5.974,2.418-14.041,2.918-17.656,9.014
	c-1.799,3.039-0.901,6.251-3.553,8.61C207.254,117.246,202.686,116.451,199.904,118.399z"/>
<path opacity="0.4" fill="#FFFFFF" stroke="#000000" d="M190.229,166.266c-1.336,2.649-2.83,6.224-6.223,4.978
	c-2.929-1.076-3.034-6.007-4.331-9.191c-0.621-1.526-1.631-2.278-2.188-3.946c-0.66-1.98,1.285-1.876-0.609-4.458
	c-1.615-2.201-7.588-4.858-10.071-6.224c-6.243-3.436-12.226-6.469-15.163-13.355c-1.599-3.744-0.137-8.458-1.77-11.978
	c-1.262-2.721-5.083-5.596-7.385-7.383c-7.658-5.944-9.561-10.284-13.381-19.032c-7.623,1.845-17.329,0.873-22.908,4.392
	c-3.99,2.515-4.553,6.161-7.491,9.305c-1.94,2.076-6.819,4.859-9.429,6.365c-6.748,3.896-16.471,4.703-10.951,14.274
	c3.851,6.679,7.115,13.291,9.931,20.582c3.073,7.959,8.403,22.41,16.347,26.453c0.22,2.746,5.204,5.165,6.58,8.57
	c1.538,3.807-0.194,9.336,1.107,12.248c1.371,3.068,5.486,3.565,7.623,7.012c2.596,4.186,2.086,8.455,4.243,12.821
	c1.549,3.137,4.972,5.786,6.108,8.023c1.354,2.666-0.626,5.782,2.012,8.667c1.729,1.891,7.122,3.324,9.547,4.685
	c3.951,2.215,7.396,5.24,11.342,7.524c5.17,2.992,9.32,5.735,13.85,9.775c3.543,3.158,6.475,14.971,12.918,12.41
	c-1.439-9.451,8.868-15.953,12.977-23.474c3.533-6.466,8.008-13.606,9.526-20.494c1.572-7.13,2.575-15.831,9.204-20.764
	c2.969-2.209,6.248-3.111,9.649-4.062c2.288-0.64,3.001-0.492,4.71-1.514c0.967-0.58,2.363-2.442,3.438-3.207
	c0.42-0.299,1.111,0.325,1.398,0.458c3.678-2.925,5.889-7.111,8.416-11.015c1.48-2.286,1.779-3.887,4.445-4.694
	c2.342-0.71,4.517,0.975,6.654-0.375c1.492-0.944,2.418-4.255,3.863-5.619c4.369-4.123,12.018-1.732,15.337-5.598
	c3.38-3.938,3.606-16.76,5.19-22.021c1.185-3.936,2.741-6.062,4.723-9.546c2.045-3.593,1.596-6.829,2.535-10.82
	c0.713-3.034,3.918-8.338,2.062-11.341c-1.683-2.719-7.444-3.062-9.939-4.32c-5.721-2.884-10.687-10.205-16.145-12.37
	c-3.669-1.456-5.837,1.478-8.544,2.199c-3.188,0.849-5.873-0.217-8.666,2.026c-3.381,2.715-6.876,10.578-8.365,14.551
	c-11.506-1.295-20.615,8.742-26.72,17.162c-3.019,4.16-6.114,8.727-8.091,13.493C195.08,153.497,193.201,160.374,190.229,166.266z"
	/>
<path opacity="0.4" fill="#FFFFFF" stroke="#000000" d="M167.746,238.575c2.44,4.276,5.345,13.753,11.419,11.316
	c7.16-2.871,10.895-17.979,14.028-24.162c3.948-7.792,7.404-17.63,14.03-23.69c11.091-10.147,22.383-18.881,30.539-31.177
	c3.489-5.261,9.919-12.071,15.549-14.917c4.449-2.251,16.395-5.89,16.93-11.844c0.493-5.483-9.973-14.37-13.129-18.203
	c-5.764-6.999-13.066-4.975-20.099-1.501c-6.515,3.219-12.979,5.782-19.25,9.153c-7.006,3.766-9.833,10.505-10.262,18.37
	c-5.508,3.569-10.046,11.539-14.294,16.755c-5.433,6.674-8.328,10.796-16.168,5.228c-5.323-3.778-10.516-8.329-14.387-13.609
	c-2.063-2.814-4.597-6.163-5.36-9.417c-1.431-6.1,0.13-5.091-6.197-6.507c-3.834-0.858-9.628-2.853-10.719-6.62
	c-1.211-4.188,2.788-8.428,0.151-12.346c-1.81-2.685-6.682-3.686-9.303-5.603c-3.922-2.866-4.422-5.116-5.705-9.46
	c-6.914-0.404-12.722-1.44-16.84,4.479c-4.167,5.99-10.598,5.944-15.118,10.27c-5.218,4.993-1.374,15.388,1.888,20.423
	c4.096,6.321,10.14,9.782,16.269,14.259c12.327,9,16.018,24.747,21.146,37.938c2.156,5.547,4.123,12.617,7.908,17.072
	c3.614,4.256,8.763,7.962,12.969,11.954C158.35,231.11,164.788,233.393,167.746,238.575z"/>
<path opacity="0.4" fill="#FFFFFF" stroke="#000000" d="M172.272,186.21c-6.805-4.391-6.194-6.025-11.477-11.935
	c-5.003-5.597-4.919-12.452-10.413-17.557c-4.473-4.153-10.549-7.415-14.514-11.965c-2.961-3.4-2.656-4.162-7.229-5.502
	c-1.846-0.54-3.252,0.179-4.749-1.362c-1.581-1.627-0.417-4.287-1.376-5.753c-2.68-4.088-3.994-1.633-6.758,1.018
	c-2.082,1.996-5.99,4.304-7.129,7.017c-2.59,6.175,5.457,12.498,8.922,16.789c4.091,5.068,8.959,9.621,11.547,15.443
	c2.811,6.329,4.73,12.879,7.168,19.31c2.25,5.931,6.055,11.558,10.806,16.183c4.914,4.784,8.468,9.632,12.604,14.386
	c2.593,2.984,9.53,12.805,14.655,12.103c6.217-0.852,8.341-12.706,10.424-17.183c5.283-11.35,14.09-21.278,21.896-30.949
	c8.283-10.259,21.089-15.426,30.301-25.713c2.736-3.057,4.527-5.584,1.256-8.67c-1.378-1.299-3.762-0.87-5.23-1.897
	c-2.18-1.526-1.715-2.639-3.027-4.583c-4.656-6.902-10.676-3.275-14.895,3.438c-3.661,5.821-5.795,11.635-10.668,16.791
	c-4.396,4.649-8.066,12.613-12.645,15.911c-2.641,1.902-6.623,3.003-9.672,4.981c-3.115,2.019-7.053,5.279-9.154,0.125
	L172.272,186.21z"/>
<path fill="#FFFFFF" stroke="#666666" d="M157.469,196.988c-5.602,5.432,9.846,15.107,14.428,19.69
	c3.549-4.719,11.068-8.384,13.75-13.749c4.582-9.166-9.166-13.749-13.75,0C171.896,202.929,166.186,188.538,157.469,196.988z"/>
</svg>
