<?xml version="1.0" encoding="utf-8"?>
<!-- Generator: Adobe Illustrator 14.0.0, SVG Export Plug-In  -->
<!DOCTYPE svg PUBLIC "-//W3C//DTD SVG 1.1//EN" "http://www.w3.org/Graphics/SVG/1.1/DTD/svg11.dtd" [
	<!ENTITY ns_flows "http://ns.adobe.com/Flows/1.0/">
]>
<svg version="1.1"
	 xmlns="http://www.w3.org/2000/svg" xmlns:xlink="http://www.w3.org/1999/xlink" xmlns:a="http://ns.adobe.com/AdobeSVGViewerExtensions/3.0/"
	 x="0px" y="0px" width="3528px" height="720px" viewBox="-70.961 -26.066 3528 720"
	 enable-background="new -70.961 -26.066 3528 720" xml:space="preserve">
<defs>
</defs>
<path fill="#FFFFFF" stroke="#000000" stroke-width="2" d="M3009.1,132.686c5.602,5.432-9.846,15.107-14.428,19.69
	c-3.549-4.719-11.068-8.385-13.75-13.75c-4.582-9.166,9.166-13.749,13.75,0C2994.672,138.626,3000.384,124.235,3009.1,132.686z"/>
<path fill="#FFFFFF" stroke="#000000" stroke-width="2" d="M2561.698,121.907c6.805-4.391,6.193-6.024,11.477-11.935
	c5.002-5.596,4.918-12.452,10.412-17.557c4.473-4.153,10.549-7.415,14.515-11.966c2.961-3.399,2.655-4.162,7.229-5.501
	c1.845-0.54,3.252,0.179,4.749-1.362c1.581-1.627,0.416-4.287,1.375-5.752c2.681-4.089,3.994-1.634,6.758,1.018
	c2.082,1.995,5.991,4.303,7.129,7.016c2.59,6.175-5.456,12.498-8.922,16.789c-4.09,5.068-8.959,9.621-11.546,15.443
	c-2.812,6.329-4.731,12.879-7.169,19.31c-2.249,5.931-6.055,11.558-10.805,16.184c-4.914,4.784-8.469,9.631-12.604,14.386
	c-2.594,2.984-9.531,12.805-14.655,12.103c-6.218-0.852-8.341-12.705-10.425-17.183c-5.282-11.35-14.089-21.278-21.896-30.949
	c-8.283-10.259-21.088-15.426-30.301-25.713c-2.736-3.057-4.527-5.584-1.256-8.67c1.379-1.299,3.763-0.87,5.23-1.897
	c2.181-1.526,1.716-2.639,3.027-4.583c4.657-6.901,10.677-3.275,14.896,3.438c3.661,5.821,5.794,11.635,10.668,16.791
	c4.396,4.649,8.066,12.613,12.644,15.912c2.641,1.902,6.624,3.002,9.673,4.98c3.114,2.02,7.052,5.279,9.153,0.125L2561.698,121.907z
	"/>
<path fill="#FFFFFF" stroke="#000000" stroke-width="2" d="M2137.513,174.272c-2.441,4.276-5.345,13.753-11.42,11.316
	c-7.159-2.871-10.895-17.979-14.027-24.162c-3.949-7.792-7.406-17.631-14.031-23.691c-11.09-10.147-22.382-18.881-30.539-31.178
	c-3.488-5.261-9.919-12.07-15.548-14.917c-4.449-2.252-16.395-5.89-16.931-11.844c-0.494-5.483,9.973-14.37,13.129-18.203
	c5.764-6.999,13.066-4.976,20.1-1.501c6.514,3.219,12.979,5.782,19.25,9.153c7.006,3.766,9.832,10.506,10.26,18.37
	c5.51,3.569,10.048,11.539,14.295,16.755c5.434,6.674,8.328,10.797,16.169,5.229c5.321-3.778,10.515-8.33,14.386-13.609
	c2.064-2.815,4.598-6.163,5.361-9.417c1.43-6.1-0.13-5.091,6.197-6.507c3.834-0.858,9.628-2.853,10.719-6.62
	c1.211-4.188-2.788-8.428-0.151-12.347c1.808-2.684,6.681-3.685,9.303-5.602c3.922-2.865,4.422-5.115,5.705-9.46
	c6.914-0.404,12.722-1.44,16.84,4.479c4.167,5.99,10.598,5.944,15.118,10.27c5.218,4.994,1.373,15.389-1.889,20.424
	c-4.096,6.321-10.139,9.782-16.269,14.259c-12.326,9-16.017,24.748-21.146,37.938c-2.156,5.547-4.122,12.617-7.907,17.072
	c-3.614,4.256-8.764,7.962-12.969,11.954C2146.909,166.808,2140.471,169.09,2137.513,174.272z"/>
<path fill="#FFFFFF" stroke="#000000" stroke-width="2" d="M1688.405,101.963c1.336,2.649,2.831,6.224,6.224,4.978
	c2.929-1.076,3.034-6.007,4.331-9.19c0.621-1.527,1.631-2.278,2.188-3.946c0.661-1.98-1.284-1.876,0.611-4.458
	c1.614-2.201,7.586-4.858,10.07-6.224c6.242-3.436,12.225-6.469,15.163-13.355c1.599-3.744,0.136-8.457,1.769-11.978
	c1.262-2.72,5.084-5.596,7.385-7.383c7.658-5.944,9.561-10.284,13.381-19.032c7.624,1.845,17.33,0.873,22.909,4.392
	c3.99,2.515,4.553,6.162,7.491,9.305c1.939,2.076,6.818,4.859,9.429,6.365c6.747,3.895,16.47,4.703,10.951,14.273
	c-3.851,6.68-7.116,13.292-9.931,20.582c-3.074,7.959-8.404,22.411-16.348,26.453c-0.219,2.746-5.203,5.165-6.579,8.57
	c-1.538,3.807,0.194,9.336-1.107,12.248c-1.372,3.068-5.487,3.565-7.624,7.012c-2.595,4.186-2.085,8.455-4.242,12.821
	c-1.549,3.137-4.973,5.786-6.108,8.022c-1.354,2.667,0.626,5.782-2.013,8.668c-1.728,1.891-7.121,3.325-9.547,4.685
	c-3.951,2.215-7.395,5.24-11.341,7.525c-5.17,2.992-9.32,5.735-13.851,9.775c-3.542,3.158-6.475,14.971-12.917,12.41
	c1.438-9.451-8.868-15.953-12.978-23.474c-3.533-6.466-8.007-13.606-9.525-20.494c-1.572-7.13-2.576-15.831-9.205-20.764
	c-2.968-2.209-6.247-3.111-9.648-4.062c-2.289-0.64-3.002-0.492-4.709-1.514c-0.969-0.58-2.364-2.442-3.438-3.207
	c-0.421-0.299-1.111,0.325-1.399,0.458c-3.678-2.925-5.888-7.111-8.416-11.015c-1.479-2.286-1.779-3.887-4.444-4.694
	c-2.343-0.71-4.517,0.975-6.655-0.375c-1.492-0.944-2.418-4.255-3.862-5.619c-4.368-4.123-12.019-1.732-15.337-5.598
	c-3.381-3.938-3.607-16.76-5.191-22.02c-1.184-3.937-2.74-6.062-4.723-9.546c-2.045-3.593-1.595-6.829-2.534-10.82
	c-0.714-3.034-3.919-8.338-2.062-11.341c1.682-2.719,7.443-3.062,9.939-4.32c5.721-2.884,10.687-10.205,16.145-12.37
	c3.669-1.456,5.837,1.478,8.543,2.199c3.188,0.849,5.873-0.217,8.667,2.026c3.38,2.715,6.876,10.578,8.364,14.551
	c11.506-1.295,20.615,8.742,26.721,17.162c3.018,4.161,6.113,8.727,8.091,13.493C1683.554,89.194,1685.433,96.071,1688.405,101.963z
	"/>
<path fill="#FFFFFF" stroke="#000000" stroke-width="2" d="M1245.49,54.097c2.186,1.531,3.099,2.316,3.563,5.093
	c0.599,3.588-0.07,4.062,1.4,7.253c3.43,7.444,9.984,13.823,13.904,21.081c-0.529-10.436,6.34-9.065,12.701-14.191
	c4.878-3.93,10.213-10.931,13.24-16.181c1.599-2.771,3.49-6.798,4.2-10.072c0.564-2.608-0.122-9.117,1.506-11.214
	c1.635-2.107,7.616-3.021,10.095-4.161c3.549-1.633,7.018-3.249,10.678-4.738c7.42-3.022,13.752-0.485,20.765-3.04
	c8.555-3.116,12.066,4.165,11.412,12.26c3.038,0.843,4.814,3.752,7.61,4.881c2.654,1.071,4.408,0.269,7.211,0.707
	c5.652,0.884,8.348,5.099,10.021,10.272c1.246,3.85-0.167,8.382,1.136,12.132c1.084,3.124,3.879,5.02,4.596,8.645
	c2.793,14.154-19.453,20.622-22.916,33.722c-1.329,5.029-0.262,6.715-3.791,10.569c-2.673,2.918-5.992,4.476-8.939,6.857
	c-6.215,5.024-9.588,12.281-10.795,19.747c-1.322,8.182,0.648,17.417-6.658,22.406c-6.972,4.761-11.729,6.637-15.363,14.144
	c-1.508,3.115-2.895,5.234-3.591,8.771c-0.365,1.857-0.128,3.704-0.358,5.613c-0.001,0.011-0.002,0.022-0.004,0.033
	c-0.928,7.697-19.031,9.549-25.06,14.087c-3.886,2.927-11.399,14.421-16.505,14.317c-3.2-0.065-6.537-5.9-8.871-7.821
	c-3.34-2.747-6.953-4.219-9.064-8.165c-5.334-9.974-5.507-22.886-10.397-33.33c-1.963-4.192-3.763-7.438-4.962-11.722
	c-0.598-2.142,0.66-2.071-0.883-4.204c-1.092-1.508-3.414-2.21-4.834-3.298c-5.741-4.395-11.262-8.294-17.328-11.724
	c-2.976-1.683-7.967-2.487-10.465-4.81c-5.51-5.121-7.648-19.886-18.344-18.309c-0.908-4.843-5.206-4.283-8.746-6.135
	c-3.479-1.82-8.753-5.42-11.214-8.556c-5.024-6.396-6.36-16.65-7.116-24.442c-1.381-14.196,1.299-34.795,15.149-42.39
	c7.059-3.87,18.646-8.176,22.632-16.091c7.795,3.427,15.302,7.751,23.318,10.994c5.975,2.418,14.041,2.918,17.656,9.014
	c1.8,3.039,0.902,6.251,3.554,8.61C1238.14,52.943,1242.709,52.148,1245.49,54.097z"/>
<path fill="#FFFFFF" stroke="#000000" stroke-width="2" d="M830.509,73.175c-0.878-4.582-6.646-7.364-10.071-16.295
	c-2.398-6.256-3.234-14.174-7.103-19.973c-4.444-6.663-13.432-5.594-20.11-7.934c-7.566-2.652-11.105-6.888-17.328-12.195
	c-4.293-3.662-12.697-6.563-18.361-4.604c-5.008,1.733-4.824,6.599-8.358,10.383c-6.811,7.295-17.964,8.694-27.019,11.521
	c-9.57,2.989-4.414,11.366-7.369,19.236c-2.939,7.835-13.133,8.165-14.143,16.792c-0.691,5.902,4.285,17.053,7.525,22.046
	c4.436,6.841,6.807,15.839,11.699,22.122c3.945,5.068,10.486,7.685,16.437,9.327c9.183,2.535,14.198,8.682,20.823,14.652
	c5.928,5.343,14.685,6.579,19.02,13.823c2.529,4.225,1.085,19.592,2.928,23.958c7.352,17.417,16.82,22.217,27.274,38.049
	c3.954,5.988,6.153,20.934,11.426,26.112c2.09,2.053,11.558,11.618,14.274,12.731c0.703,0.287,6.4-10.545,6.738-10.643
	c2.635-0.76,3.171-4.341,3.979-6.645c2.074-5.913,3.475-11.68,9.103-15.303c7.669-4.934,19.075-7.103,22.927-15.15
	c4.934-10.31,6.956-17.948,15.457-22.192c3.883-1.938,2.023-6.626,4.031-10.522c2.214-4.292,6.678-6.622,9.617-10.229
	c3.061-3.757,4.021-8.438,6.156-12.688c2.324-4.628,5.797-7.776,10.17-10.566c4.148-2.646,8.365-3.55,9.574-8.784
	c1.027-4.446-1.574-11.087,0.568-15.042c1.477-2.727,6.69-5.175,9.238-6.81c6.783-4.347,14.127-14.302,14.127-14.302
	c-0.381-8.021,3.02-7.756,0-9.166c-3.593-1.678-2.539-0.643-2.545-4.583c-0.009-6.07,2.787-15.675,0.166-21.336
	c-1.88-4.059-7.359-6.398-9.73-10.352c-1.883-3.137-1.795-7.028-2.67-10.551c-2.111-8.47-8.242-10.988-12.831-17.747
	c-2.024-2.981-4.146-5.474-7.524-6.212c-4.184-0.914-8.583,1.674-12.729,0.394c-7.412-2.288-8.924-10.454-18.221-6.888
	c-6.523,2.501-11.545,9.047-17.936,12.603c-6.314,3.515-15.744,4.833-18.33,12.706c-0.672,2.044,0.191,4.659-0.586,6.545
	c-0.57,1.384-2.937,2.697-3.613,4.571c-1.663,4.61-0.213,6.142-4.064,9.637C836.43,59.748,833.633,65.226,830.509,73.175"/>
<path fill="#FFFFFF" stroke="#000000" stroke-width="2" d="M398.492,65.299c0-35.464-36.919-64.464-77.91-64.162
	c-51.238,0.381-70.271,44.566-51.508,91.66c5.25,13.177,129.418,174.152,129.418,174.152S501.919,140.807,526.814,92.797
	c26.688-51.462-15.814-95.863-67.31-91.5C407.188,5.73,398.492,65.299,398.492,65.299"/>
<circle fill="#FFFFFF" stroke="#000000" stroke-width="2" cx="181" cy="477.933" r="180"/>
<path fill="#FFFFFF" stroke="#000000" stroke-width="2" d="M612.048,489.175c4.668-14.002,18.67-9.335,14.003,0
	c-2.73,5.463-10.389,9.197-14.003,14.002c-4.667-4.668-20.397-14.521-14.693-20.053C606.23,474.518,612.048,489.175,612.048,489.175
	z M613,297.933c-99.412,0-180,80.589-180,180c0,99.412,80.588,180,180,180s180-80.589,180-180
	C793,378.522,712.412,297.933,613,297.933z"/>
<path fill="#FFFFFF" stroke="#000000" stroke-width="2" d="M3203.553,421.521c0-36.118,31.312-65.344,70.011-65.344l0,0
	c44.601-3.63,87.856,40.938,60.676,93.349c-25.354,48.895-130.687,177.363-130.687,177.363s-126.457-163.943-131.805-177.363
	c-19.109-47.961,0.275-92.961,52.457-93.349C3165.953,355.868,3203.553,385.403,3203.553,421.521L3203.553,421.521z M3205,297.933
	c-99.412,0-180,80.589-180,180s80.588,180,180,180s180-80.589,180-180S3304.412,297.933,3205,297.933z"/>
<path fill="#FFFFFF" stroke="#000000" stroke-width="2" d="M2772.546,432.329c0.894-4.667,6.769-7.5,10.257-16.595
	c2.443-6.371,3.294-14.435,7.233-20.341c4.526-6.787,13.68-5.697,20.481-8.081c7.705-2.7,11.31-7.015,17.646-12.419
	c4.373-3.729,12.932-6.685,18.701-4.688c5.1,1.765,4.912,6.72,8.512,10.574c6.937,7.43,18.295,8.854,27.518,11.734
	c9.746,3.044,4.494,11.576,7.503,19.591c2.995,7.979,13.376,8.314,14.404,17.102c0.704,6.011-4.365,17.367-7.663,22.453
	c-4.519,6.968-6.934,16.131-11.915,22.53c-4.019,5.162-10.68,7.826-16.74,9.499c-9.351,2.581-14.46,8.842-21.206,14.922
	c-6.037,5.441-14.956,6.7-19.371,14.077c-2.576,4.303-1.104,19.954-2.981,24.401c-7.487,17.737-17.131,22.627-27.777,38.75
	c-4.026,6.099-6.267,21.32-11.636,26.594c-2.129,2.09-11.771,11.832-14.538,12.965c-0.716,0.292-6.519-10.74-6.862-10.839
	c-2.684-0.773-3.229-4.421-4.053-6.767c-2.111-6.022-3.538-11.895-9.27-15.585c-7.811-5.024-19.428-7.233-23.35-15.429
	c-5.023-10.5-7.084-18.279-15.742-22.601c-3.954-1.974-2.061-6.749-4.105-10.716c-2.254-4.371-6.8-6.744-9.794-10.418
	c-3.118-3.827-4.095-8.594-6.27-12.923c-2.368-4.713-5.904-7.92-10.358-10.761c-4.224-2.694-8.519-3.616-9.75-8.946
	c-1.046-4.528,1.604-11.292-0.578-15.318c-1.505-2.777-6.814-5.271-9.409-6.935c-6.909-4.428-14.388-14.566-14.388-14.566
	c0.388-8.169-3.075-7.899,0-9.334c3.658-1.709,2.586-0.654,2.592-4.668c0.009-6.182-2.838-15.964-0.17-21.729
	c1.916-4.132,7.496-6.516,9.911-10.542c1.917-3.195,1.827-7.158,2.719-10.746c2.151-8.626,8.394-11.191,13.067-18.074
	c2.062-3.037,4.222-5.575,7.664-6.327c4.26-0.931,8.74,1.705,12.963,0.401c7.548-2.331,9.088-10.646,18.556-7.016
	c6.645,2.548,11.759,9.214,18.267,12.836c6.432,3.579,16.034,4.922,18.668,12.94c0.684,2.082-0.194,4.745,0.598,6.666
	c0.58,1.409,2.99,2.747,3.679,4.655c1.694,4.694,0.218,6.255,4.141,9.814C2766.516,418.655,2769.365,424.234,2772.546,432.329
	 M2773,297.933c-99.412,0-180,80.589-180,180c0,99.412,80.588,180,180,180s180-80.589,180-180
	C2953,378.522,2872.412,297.933,2773,297.933z"/>
<path fill="#FFFFFF" stroke="#000000" stroke-width="2" d="M2370.291,410.731c2.701-2.402,1.787-5.674,3.62-8.769
	c3.681-6.208,11.896-6.718,17.981-9.18c8.164-3.303,15.81-7.707,23.747-11.197c4.062,8.061,15.861,12.447,23.05,16.388
	c14.106,7.734,16.836,28.714,15.43,43.171c-0.771,7.936-2.132,18.378-7.248,24.893c-2.507,3.194-7.878,6.86-11.421,8.713
	c-3.605,1.886-7.982,1.315-8.906,6.248c-10.894-1.606-13.072,13.431-18.683,18.646c-2.544,2.365-7.628,3.185-10.658,4.898
	c-6.178,3.493-11.801,7.464-17.646,11.939c-1.446,1.107-3.812,1.823-4.924,3.359c-1.572,2.173-0.29,2.102-0.899,4.281
	c-1.221,4.364-3.054,7.67-5.054,11.938c-4.98,10.637-5.156,23.787-10.589,33.945c-2.149,4.018-5.831,5.518-9.231,8.315
	c-2.377,1.956-5.775,7.899-9.033,7.965c-5.201,0.105-12.853-11.601-16.811-14.581c-6.139-4.622-24.576-6.508-25.521-14.347
	c-0.002-0.011-0.003-0.022-0.004-0.034c-0.234-1.945,0.008-3.825-0.365-5.717c-0.709-3.602-2.121-5.76-3.657-8.932
	c-3.701-7.646-8.546-9.557-15.646-14.405c-7.441-5.082-5.435-14.486-6.781-22.819c-1.229-7.603-4.664-14.993-10.994-20.109
	c-3.002-2.427-6.383-4.012-9.104-6.984c-3.595-3.926-2.508-5.643-3.861-10.764c-3.526-13.341-26.184-19.928-23.338-34.343
	c0.729-3.692,3.576-5.623,4.68-8.804c1.326-3.819-0.112-8.435,1.156-12.355c1.705-5.269,4.449-9.562,10.207-10.461
	c2.853-0.446,4.639,0.371,7.344-0.721c2.847-1.15,4.655-4.112,7.75-4.971c-0.666-8.244,2.91-15.66,11.622-12.486
	c7.142,2.602,13.591,0.019,21.146,3.096c3.729,1.518,7.261,3.163,10.875,4.826c2.524,1.162,8.616,2.092,10.281,4.237
	c1.657,2.136,0.958,8.765,1.534,11.421c0.722,3.334,2.648,7.435,4.276,10.257c3.083,5.347,8.517,12.477,13.485,16.48
	c6.479,5.22,13.475,3.825,12.936,14.453c3.991-7.392,10.666-13.888,14.159-21.469c1.499-3.25,0.817-3.733,1.428-7.387
	c0.473-2.828,1.402-3.628,3.628-5.188C2363.085,412.194,2367.738,413.003,2370.291,410.731z M2341,297.933
	c-99.412,0-180,80.589-180,180s80.588,180,180,180s180-80.589,180-180S2440.412,297.933,2341,297.933z"/>
<path fill="#FFFFFF" stroke="#000000" stroke-width="2" d="M1925.899,443.753c2.014-4.854,5.166-9.504,8.239-13.742
	c6.218-8.575,15.495-18.797,27.213-17.478c1.517-4.046,5.076-12.054,8.52-14.819c2.845-2.285,5.58-1.199,8.826-2.063
	c2.756-0.735,4.964-3.723,8.701-2.24c5.559,2.205,10.615,9.661,16.442,12.599c2.541,1.281,8.409,1.631,10.122,4.4
	c1.891,3.058-1.373,8.46-2.1,11.55c-0.957,4.064-0.499,7.36-2.581,11.02c-2.019,3.548-3.604,5.713-4.81,9.722
	c-1.613,5.358-1.844,18.416-5.287,22.427c-3.38,3.937-11.171,1.502-15.62,5.7c-1.471,1.389-2.413,4.762-3.934,5.723
	c-2.177,1.376-4.392-0.341-6.777,0.383c-2.715,0.822-3.02,2.452-4.527,4.78c-2.574,3.975-4.825,8.239-8.57,11.218
	c-0.293-0.136-0.996-0.771-1.425-0.466c-1.094,0.778-2.516,2.675-3.502,3.265c-1.739,1.041-2.465,0.89-4.795,1.542
	c-3.465,0.969-6.805,1.887-9.827,4.137c-6.751,5.024-7.772,13.886-9.374,21.147c-1.547,7.014-6.104,14.286-9.701,20.871
	c-4.186,7.66-14.683,14.281-13.218,23.907c-6.562,2.608-9.547-9.423-13.154-12.639c-4.614-4.114-8.841-6.909-14.106-9.956
	c-4.019-2.326-7.525-5.406-11.55-7.663c-2.47-1.386-7.963-2.846-9.723-4.771c-2.687-2.938-0.671-6.112-2.05-8.827
	c-1.157-2.278-4.643-4.976-6.221-8.171c-2.197-4.447-1.678-8.794-4.321-13.057c-2.176-3.511-6.367-4.017-7.765-7.142
	c-1.324-2.966,0.439-8.596-1.127-12.474c-1.4-3.468-6.478-5.931-6.701-8.728c-8.09-4.117-13.518-18.834-16.648-26.94
	c-2.866-7.425-6.191-14.159-10.113-20.961c-5.62-9.747,4.281-10.57,11.152-14.537c2.658-1.534,7.627-4.368,9.604-6.482
	c2.992-3.202,3.565-6.916,7.629-9.477c5.682-3.583,15.566-2.593,23.331-4.472c3.891,8.909,5.828,13.329,13.627,19.383
	c2.345,1.819,6.235,4.748,7.521,7.519c1.663,3.585,0.175,8.385,1.803,12.199c2.992,7.014,9.084,10.102,15.442,13.602
	c2.529,1.392,8.611,4.097,10.256,6.338c1.93,2.629-0.052,2.523,0.622,4.54c0.568,1.699,1.596,2.464,2.229,4.019
	c1.32,3.242,1.428,8.264,4.41,9.36c3.455,1.27,4.978-2.371,6.339-5.069C1921.427,456.927,1923.34,449.924,1925.899,443.753z
	 M1909,297.934c-99.412,0-180,80.589-180,180s80.588,180,180,180s180-80.589,180-180S2008.412,297.934,1909,297.934z"/>
<path fill="#FFFFFF" stroke="#000000" stroke-width="2" d="M1447.113,524.513c-4.283-4.065-9.527-7.839-13.208-12.174
	c-3.854-4.538-5.857-11.737-8.054-17.387c-5.223-13.435-8.981-29.472-21.535-38.638c-6.242-4.56-12.397-8.084-16.568-14.522
	c-3.321-5.128-7.237-15.715-1.922-20.8c4.603-4.406,11.152-4.36,15.396-10.459c4.194-6.029,10.108-4.973,17.15-4.562
	c1.307,4.425,1.815,6.716,5.81,9.635c2.671,1.952,7.633,2.971,9.475,5.705c2.686,3.991-1.387,8.309-0.153,12.574
	c1.11,3.837,7.012,5.868,10.916,6.742c6.443,1.442,4.854,0.414,6.312,6.626c0.778,3.314,3.357,6.725,5.459,9.591
	c3.943,5.377,9.232,10.013,14.652,13.86c7.985,5.67,10.934,1.472,16.467-5.325c4.325-5.313,8.947-13.43,14.559-17.064
	c0.435-8.009,3.314-14.874,10.448-18.708c6.388-3.433,12.971-6.043,19.605-9.322c7.162-3.538,14.599-5.599,20.469,1.529
	c3.215,3.904,13.874,12.954,13.372,18.538c-0.547,6.064-12.712,9.769-17.243,12.062c-5.732,2.9-12.281,9.835-15.835,15.193
	c-8.307,12.523-19.807,21.418-31.103,31.752c-6.746,6.172-10.267,16.192-14.288,24.127c-3.191,6.297-6.996,21.684-14.287,24.607
	c-6.187,2.482-9.144-7.17-11.63-11.525C1458.363,531.292,1451.807,528.968,1447.113,524.513z M1477,297.934
	c-99.412,0-180,80.589-180,180c0,99.412,80.588,180,180,180s180-80.589,180-180C1657,378.523,1576.412,297.934,1477,297.934z"/>
<path fill="#FFFFFF" stroke="#000000" stroke-width="2" d="M1036.768,483.671c2.141,5.25,6.149,1.928,9.321-0.127
	c3.106-2.015,7.163-3.136,9.853-5.073c4.661-3.358,8.399-11.469,12.875-16.204c4.964-5.25,7.139-11.172,10.865-17.1
	c4.297-6.837,10.428-10.531,15.17-3.501c1.337,1.98,0.863,3.113,3.084,4.667c1.495,1.047,3.922,0.609,5.326,1.933
	c3.331,3.143,1.508,5.717-1.279,8.83c-9.383,10.478-22.424,15.739-30.858,26.188c-7.952,9.849-16.921,19.961-22.301,31.52
	c-2.122,4.56-4.284,16.633-10.616,17.5c-5.219,0.715-12.285-9.287-14.926-12.325c-4.211-4.843-7.832-9.78-12.834-14.651
	c-4.84-4.711-8.715-10.442-11.007-16.481c-2.481-6.55-4.437-13.221-7.3-19.666c-2.634-5.93-7.592-10.566-11.76-15.728
	c-3.528-4.371-11.724-10.81-9.085-17.099c1.158-2.764,5.139-5.114,7.259-7.146c2.816-2.7,4.154-5.201,6.884-1.037
	c0.977,1.493-0.21,4.202,1.4,5.859c1.524,1.57,2.957,0.836,4.836,1.387c4.658,1.365,4.347,2.141,7.362,5.603
	c4.038,4.635,10.227,7.957,14.781,12.186c5.596,5.199,5.511,12.181,10.605,17.881c5.379,6.019,4.758,7.683,11.688,12.154
	L1036.768,483.671z M1045,297.934c-99.412,0-180,80.589-180,180s80.588,180,180,180s180-80.589,180-180
	S1144.412,297.934,1045,297.934z"/>
</svg>
