<?xml version="1.0" encoding="utf-8"?>
<!-- Generator: Adobe Illustrator 14.0.0, SVG Export Plug-In  -->
<!DOCTYPE svg PUBLIC "-//W3C//DTD SVG 1.1//EN" "http://www.w3.org/Graphics/SVG/1.1/DTD/svg11.dtd" [
	<!ENTITY ns_flows "http://ns.adobe.com/Flows/1.0/">
]>
<svg version="1.1"
	 xmlns="http://www.w3.org/2000/svg" xmlns:xlink="http://www.w3.org/1999/xlink" xmlns:a="http://ns.adobe.com/AdobeSVGViewerExtensions/3.0/"
	 x="0px" y="0px" width="720px" height="720px" viewBox="-70.5 -39.172 720 720" enable-background="new -70.5 -39.172 720 720"
	 xml:space="preserve">
<defs>
</defs>
<circle fill="#FFFFFF" stroke="#FF1744" stroke-width="2" cx="181" cy="455.828" r="180"/>
<path fill="#FFFFFF" stroke="#00BCD4" stroke-width="2" d="M440.381,65.177c0-35.464-36.919-64.464-77.91-64.162
	c-51.238,0.381-70.271,44.566-51.508,91.66c5.25,13.177,129.418,174.152,129.418,174.152S543.808,140.685,568.703,92.675
	C595.391,41.213,550,0.081,509.125,1.016C441.845,2.555,440.381,65.177,440.381,65.177z"/>
<path fill="none" stroke="#FF1744" stroke-width="2" d="M157.47,471.816c-5.602,5.432,9.845,15.107,14.427,19.69
	c3.549-4.719,11.068-8.384,13.75-13.749c4.582-9.166-9.166-13.749-13.75,0C171.897,477.757,166.185,463.365,157.47,471.816z"/>
<path fill="none" stroke="#FF1744" stroke-width="2" d="M172.272,461.038c-6.805-4.391-6.194-6.024-11.477-11.935
	c-5.002-5.597-4.919-12.452-10.413-17.556c-4.472-4.154-10.548-7.415-14.514-11.966c-2.961-3.399-2.655-4.162-7.229-5.501
	c-1.845-0.54-3.252,0.179-4.749-1.362c-1.582-1.627-0.417-4.287-1.375-5.753c-2.681-4.088-3.994-1.633-6.758,1.018
	c-2.082,1.996-5.991,4.304-7.128,7.017c-2.59,6.175,5.456,12.498,8.921,16.789c4.091,5.068,8.959,9.621,11.546,15.443
	c2.812,6.329,4.731,12.879,7.169,19.31c2.249,5.931,6.054,11.558,10.805,16.183c4.914,4.784,8.468,9.632,12.604,14.386
	c2.593,2.984,9.53,12.805,14.655,12.103c6.218-0.852,8.341-12.706,10.425-17.183c5.282-11.35,14.089-21.278,21.897-30.949
	c8.283-10.259,21.088-15.426,30.3-25.713c2.737-3.057,4.527-5.584,1.256-8.67c-1.378-1.299-3.762-0.87-5.23-1.897
	c-2.181-1.526-1.716-2.639-3.027-4.583c-4.657-6.902-10.677-3.275-14.896,3.438c-3.661,5.821-5.794,11.635-10.668,16.791
	c-4.396,4.649-8.066,12.613-12.644,15.911c-2.641,1.902-6.624,3.003-9.673,4.981c-3.114,2.019-7.051,5.279-9.153,0.125
	L172.272,461.038z"/>
<path fill="none" stroke="#FF1744" stroke-width="2" d="M165.659,513.402c2.441,4.276,5.344,13.753,11.419,11.316
	c7.16-2.871,10.895-17.979,14.028-24.162c3.948-7.792,7.406-17.63,14.03-23.69c11.091-10.147,22.382-18.881,30.539-31.178
	c3.489-5.261,9.919-12.07,15.548-14.917c4.449-2.251,16.395-5.89,16.931-11.844c0.494-5.483-9.973-14.37-13.129-18.203
	c-5.763-6.999-13.066-4.975-20.099-1.501c-6.514,3.219-12.979,5.782-19.25,9.153c-7.006,3.766-9.833,10.505-10.26,18.37
	c-5.509,3.569-10.048,11.539-14.295,16.755c-5.433,6.674-8.328,10.796-16.169,5.229c-5.321-3.778-10.515-8.33-14.386-13.609
	c-2.063-2.815-4.597-6.163-5.36-9.417c-1.43-6.1,0.129-5.091-6.197-6.507c-3.834-0.858-9.628-2.853-10.719-6.62
	c-1.211-4.188,2.788-8.428,0.151-12.347c-1.808-2.684-6.681-3.685-9.303-5.602c-3.922-2.865-4.422-5.115-5.705-9.46
	c-6.914-0.404-12.721-1.44-16.84,4.479c-4.167,5.99-10.598,5.944-15.118,10.27c-5.218,4.993-1.374,15.388,1.888,20.423
	c4.095,6.321,10.139,9.782,16.269,14.259c12.326,9,16.017,24.747,21.146,37.938c2.156,5.547,4.122,12.617,7.907,17.072
	c3.615,4.256,8.764,7.962,12.969,11.954C156.263,505.938,162.701,508.22,165.659,513.402z"/>
<path fill="none" stroke="#FF1744" stroke-width="2" d="M190.229,441.093c-1.336,2.649-2.831,6.224-6.224,4.978
	c-2.928-1.076-3.034-6.007-4.331-9.191c-0.621-1.526-1.631-2.278-2.188-3.946c-0.661-1.98,1.284-1.876-0.611-4.458
	c-1.615-2.201-7.586-4.858-10.07-6.224c-6.243-3.436-12.225-6.469-15.164-13.355c-1.598-3.744-0.136-8.458-1.769-11.978
	c-1.262-2.721-5.083-5.596-7.385-7.383c-7.658-5.944-9.56-10.284-13.38-19.032c-7.624,1.845-17.33,0.873-22.909,4.392
	c-3.99,2.515-4.553,6.161-7.491,9.305c-1.94,2.076-6.819,4.859-9.429,6.365c-6.747,3.896-16.47,4.703-10.951,14.273
	c3.851,6.68,7.116,13.291,9.931,20.582c3.074,7.959,8.404,22.41,16.347,26.453c0.22,2.746,5.204,5.165,6.58,8.57
	c1.539,3.807-0.194,9.336,1.107,12.248c1.372,3.068,5.487,3.565,7.624,7.012c2.595,4.186,2.085,8.455,4.243,12.821
	c1.549,3.137,4.972,5.786,6.108,8.022c1.354,2.667-0.625,5.782,2.013,8.668c1.728,1.891,7.122,3.324,9.547,4.685
	c3.951,2.215,7.395,5.24,11.341,7.524c5.17,2.992,9.32,5.735,13.851,9.775c3.542,3.158,6.474,14.971,12.917,12.41
	c-1.438-9.451,8.869-15.953,12.978-23.474c3.533-6.466,8.007-13.606,9.526-20.494c1.572-7.13,2.576-15.831,9.204-20.764
	c2.968-2.209,6.248-3.111,9.649-4.062c2.289-0.64,3.001-0.492,4.709-1.514c0.969-0.58,2.364-2.442,3.438-3.207
	c0.421-0.298,1.111,0.325,1.399,0.458c3.677-2.925,5.888-7.111,8.416-11.015c1.48-2.286,1.78-3.887,4.445-4.694
	c2.342-0.71,4.517,0.975,6.655-0.375c1.492-0.944,2.418-4.255,3.862-5.619c4.369-4.123,12.019-1.732,15.337-5.598
	c3.381-3.938,3.607-16.76,5.191-22.021c1.184-3.936,2.741-6.062,4.723-9.546c2.044-3.593,1.595-6.829,2.534-10.82
	c0.714-3.034,3.919-8.338,2.062-11.341c-1.682-2.719-7.444-3.062-9.939-4.32c-5.721-2.884-10.687-10.205-16.145-12.37
	c-3.669-1.456-5.837,1.478-8.544,2.199c-3.187,0.849-5.873-0.217-8.667,2.026c-3.38,2.715-6.875,10.578-8.364,14.551
	c-11.506-1.295-20.616,8.742-26.72,17.162c-3.018,4.16-6.114,8.727-8.091,13.493C195.081,428.325,193.202,435.201,190.229,441.093z"
	/>
<path fill="none" stroke="#FF1744" stroke-width="2" d="M199.904,393.227c-2.186,1.531-3.098,2.316-3.563,5.093
	c-0.599,3.588,0.07,4.062-1.401,7.253c-3.43,7.444-9.984,13.823-13.903,21.081c0.529-10.436-6.34-9.065-12.702-14.191
	c-4.878-3.93-10.213-10.931-13.241-16.181c-1.598-2.771-3.49-6.797-4.2-10.071c-0.564-2.608,0.122-9.117-1.506-11.214
	c-1.635-2.107-7.617-3.021-10.095-4.161c-3.549-1.633-7.018-3.249-10.678-4.738c-7.42-3.022-13.752-0.485-20.765-3.04
	c-8.555-3.116-12.066,4.165-11.412,12.26c-3.038,0.843-4.814,3.752-7.61,4.881c-2.655,1.071-4.409,0.27-7.211,0.707
	c-5.652,0.884-8.348,5.099-10.021,10.272c-1.246,3.85,0.167,8.382-1.136,12.132c-1.083,3.124-3.879,5.02-4.595,8.645
	c-2.794,14.154,19.453,20.622,22.916,33.722c1.329,5.029,0.262,6.715,3.792,10.569c2.672,2.918,5.991,4.476,8.939,6.857
	c6.215,5.024,9.588,12.281,10.795,19.746c1.322,8.182-0.649,17.417,6.658,22.406c6.972,4.761,11.728,6.637,15.363,14.144
	c1.508,3.115,2.895,5.234,3.591,8.771c0.365,1.857,0.128,3.703,0.358,5.613c0.001,0.011,0.002,0.022,0.003,0.033
	c0.929,7.698,19.032,9.55,25.06,14.088c3.886,2.927,11.399,14.421,16.505,14.317c3.2-0.065,6.537-5.9,8.871-7.821
	c3.339-2.747,6.954-4.219,9.064-8.165c5.334-9.974,5.507-22.886,10.398-33.33c1.963-4.192,3.763-7.438,4.961-11.723
	c0.599-2.141-0.66-2.07,0.884-4.204c1.092-1.508,3.414-2.21,4.834-3.298c5.741-4.394,11.261-8.294,17.327-11.724
	c2.976-1.682,7.968-2.487,10.465-4.809c5.509-5.121,7.649-19.886,18.344-18.309c0.908-4.843,5.206-4.283,8.745-6.135
	c3.479-1.82,8.753-5.42,11.214-8.556c5.024-6.396,6.361-16.65,7.117-24.442c1.381-14.196-1.299-34.795-15.15-42.39
	c-7.059-3.87-18.645-8.176-22.632-16.091c-7.794,3.427-15.301,7.751-23.318,10.994c-5.974,2.418-14.042,2.918-17.656,9.014
	c-1.8,3.039-0.902,6.251-3.554,8.61C207.254,392.073,202.685,391.278,199.904,393.227z"/>
<path fill="none" stroke="#FF1744" stroke-width="2" d="M180.554,411.05c0.877-4.582,6.646-7.364,10.071-16.295
	c2.399-6.256,3.234-14.174,7.103-19.973c4.445-6.664,13.432-5.594,20.111-7.934c7.566-2.652,11.104-6.889,17.328-12.195
	c4.293-3.662,12.697-6.563,18.362-4.604c5.008,1.733,4.824,6.599,8.358,10.383c6.811,7.295,17.964,8.694,27.019,11.522
	c9.57,2.988,4.414,11.366,7.368,19.235c2.94,7.835,13.133,8.165,14.144,16.792c0.691,5.902-4.286,17.053-7.525,22.046
	c-4.437,6.842-6.808,15.839-11.699,22.122c-3.945,5.068-10.486,7.685-16.437,9.327c-9.182,2.535-14.198,8.682-20.823,14.652
	c-5.928,5.343-14.685,6.579-19.02,13.823c-2.529,4.225-1.085,19.592-2.927,23.959c-7.352,17.417-16.821,22.217-27.275,38.049
	c-3.954,5.988-6.154,20.934-11.426,26.112c-2.09,2.053-11.557,11.618-14.274,12.731c-0.703,0.287-6.401-10.545-6.738-10.643
	c-2.635-0.76-3.171-4.341-3.979-6.645c-2.074-5.914-3.475-11.68-9.103-15.303c-7.669-4.934-19.076-7.103-22.927-15.15
	c-4.933-10.31-6.956-17.948-15.457-22.192c-3.883-1.938-2.023-6.626-4.032-10.522c-2.213-4.292-6.677-6.622-9.617-10.229
	c-3.061-3.757-4.021-8.438-6.156-12.688c-2.324-4.628-5.797-7.776-10.17-10.566c-4.148-2.646-8.365-3.55-9.574-8.784
	c-1.028-4.447,1.574-11.087-0.568-15.042c-1.477-2.727-6.691-5.175-9.239-6.809c-6.784-4.348-14.127-14.303-14.127-14.303
	c0.381-8.021-3.019-7.756,0-9.166c3.593-1.679,2.54-0.643,2.545-4.583c0.009-6.07-2.787-15.675-0.167-21.336
	c1.88-4.058,7.359-6.397,9.731-10.351c1.883-3.137,1.794-7.028,2.67-10.551c2.112-8.47,8.242-10.988,12.831-17.747
	c2.024-2.981,4.145-5.475,7.524-6.212c4.184-0.914,8.583,1.674,12.729,0.394c7.412-2.288,8.923-10.454,18.22-6.889
	c6.524,2.502,11.546,9.048,17.936,12.604c6.315,3.515,15.744,4.833,18.331,12.706c0.671,2.044-0.191,4.659,0.585,6.545
	c0.57,1.384,2.937,2.697,3.613,4.571c1.664,4.61,0.214,6.142,4.065,9.637C174.633,397.623,177.431,403.101,180.554,411.05"/>
<path fill="none" stroke="#FF1744" stroke-width="2" d="M181.063,404.429c0-35.464-30.747-64.162-68.744-64.162"/>
<path fill="none" stroke="#FF1744" stroke-width="2" d="M181.063,404.429c0-35.464,36.919-64.464,77.911-64.162
	c51.237,0.381,70.271,44.566,51.508,91.66C305.23,445.104,181.063,606.08,181.063,606.08S77.636,479.937,52.74,431.927
	c-26.687-51.462,15.787-95.223,59.579-91.66"/>
<path fill="none" stroke="#00BCD4" stroke-width="2" d="M463.975,132.564c5.602,5.432-9.846,15.107-14.428,19.69
	c-3.549-4.719-11.068-8.385-13.75-13.75c-4.582-9.166,9.166-13.749,13.75,0C449.547,138.505,455.259,124.113,463.975,132.564z"/>
<path fill="none" stroke="#00BCD4" stroke-width="2" d="M449.172,121.786c6.805-4.391,6.193-6.024,11.477-11.935
	c5.002-5.596,4.918-12.452,10.412-17.556c4.473-4.154,10.549-7.415,14.515-11.966c2.961-3.399,2.655-4.162,7.229-5.501
	c1.845-0.54,3.252,0.179,4.749-1.362c1.581-1.627,0.416-4.287,1.375-5.752c2.681-4.089,3.994-1.634,6.758,1.018
	c2.082,1.995,5.991,4.303,7.129,7.016c2.59,6.175-5.456,12.498-8.922,16.79c-4.09,5.067-8.959,9.621-11.546,15.442
	c-2.812,6.329-4.731,12.879-7.169,19.31c-2.249,5.931-6.055,11.558-10.805,16.184c-4.914,4.784-8.469,9.631-12.604,14.386
	c-2.594,2.984-9.531,12.805-14.655,12.103c-6.218-0.852-8.341-12.705-10.425-17.183c-5.282-11.35-14.089-21.278-21.896-30.949
	c-8.283-10.26-21.088-15.426-30.301-25.714c-2.736-3.057-4.527-5.584-1.256-8.67c1.379-1.299,3.763-0.87,5.23-1.897
	c2.181-1.526,1.716-2.639,3.027-4.583c4.657-6.901,10.677-3.275,14.896,3.438c3.661,5.821,5.794,11.635,10.668,16.791
	c4.396,4.649,8.066,12.613,12.644,15.912c2.641,1.902,6.624,3.002,9.673,4.98c3.114,2.02,7.052,5.279,9.153,0.126L449.172,121.786z"
	/>
<path fill="none" stroke="#00BCD4" stroke-width="2" d="M455.785,174.15c-2.441,4.276-5.345,13.753-11.42,11.316
	c-7.159-2.871-10.895-17.979-14.027-24.162c-3.949-7.792-7.406-17.631-14.031-23.691c-11.09-10.147-22.382-18.881-30.539-31.178
	c-3.488-5.261-9.919-12.07-15.548-14.917c-4.449-2.252-16.395-5.89-16.931-11.844c-0.494-5.483,9.973-14.37,13.129-18.203
	c5.764-6.999,13.066-4.975,20.1-1.502c6.514,3.219,12.979,5.782,19.25,9.153c7.006,3.766,9.832,10.505,10.26,18.37
	c5.51,3.569,10.048,11.539,14.295,16.755c5.434,6.674,8.328,10.797,16.169,5.229c5.321-3.778,10.515-8.33,14.386-13.609
	c2.064-2.815,4.598-6.163,5.361-9.417c1.43-6.1-0.13-5.091,6.197-6.507c3.834-0.858,9.628-2.853,10.719-6.62
	c1.211-4.188-2.788-8.428-0.151-12.347c1.808-2.684,6.681-3.685,9.303-5.602c3.922-2.865,4.422-5.115,5.705-9.46
	c6.914-0.404,12.722-1.44,16.84,4.479c4.167,5.99,10.598,5.944,15.118,10.27c5.218,4.993,1.373,15.388-1.889,20.423
	c-4.096,6.321-10.139,9.782-16.269,14.259c-12.326,9-16.017,24.748-21.146,37.938c-2.156,5.547-4.122,12.617-7.907,17.072
	c-3.614,4.256-8.764,7.962-12.969,11.954C465.182,166.686,458.743,168.968,455.785,174.15z"/>
<path fill="none" stroke="#00BCD4" stroke-width="2" d="M431.215,101.841c1.336,2.649,2.831,6.224,6.224,4.978
	c2.929-1.075,3.034-6.007,4.331-9.19c0.621-1.526,1.631-2.278,2.188-3.946c0.661-1.98-1.284-1.877,0.611-4.458
	c1.614-2.201,7.586-4.858,10.07-6.224c6.242-3.436,12.225-6.469,15.163-13.355c1.599-3.744,0.136-8.457,1.769-11.978
	c1.262-2.72,5.084-5.596,7.385-7.383c7.658-5.944,9.561-10.284,13.381-19.032c7.624,1.845,17.33,0.873,22.909,4.392
	c3.99,2.514,4.553,6.161,7.491,9.305c1.939,2.076,6.818,4.859,9.429,6.365c6.747,3.896,16.47,4.703,10.951,14.273
	c-3.851,6.68-7.116,13.292-9.931,20.582c-3.074,7.959-8.404,22.411-16.348,26.453c-0.219,2.746-5.203,5.165-6.579,8.57
	c-1.538,3.807,0.194,9.336-1.107,12.248c-1.372,3.068-5.487,3.565-7.624,7.012c-2.595,4.186-2.085,8.455-4.242,12.821
	c-1.549,3.137-4.973,5.786-6.108,8.022c-1.354,2.667,0.626,5.783-2.013,8.668c-1.728,1.891-7.121,3.325-9.547,4.685
	c-3.951,2.215-7.395,5.24-11.341,7.524c-5.17,2.992-9.32,5.735-13.851,9.775c-3.542,3.158-6.475,14.971-12.917,12.41
	c1.438-9.451-8.868-15.953-12.978-23.474c-3.533-6.466-8.007-13.606-9.525-20.494c-1.572-7.13-2.576-15.831-9.205-20.764
	c-2.968-2.209-6.247-3.111-9.648-4.062c-2.289-0.64-3.002-0.492-4.709-1.514c-0.969-0.58-2.364-2.442-3.438-3.207
	c-0.421-0.298-1.111,0.325-1.399,0.458c-3.678-2.925-5.888-7.111-8.416-11.015c-1.479-2.286-1.779-3.887-4.444-4.694
	c-2.343-0.71-4.517,0.975-6.655-0.375c-1.492-0.944-2.418-4.255-3.862-5.619c-4.368-4.123-12.019-1.732-15.337-5.598
	c-3.381-3.938-3.607-16.76-5.191-22.02c-1.184-3.937-2.74-6.062-4.723-9.546c-2.045-3.593-1.595-6.829-2.534-10.82
	c-0.714-3.034-3.919-8.338-2.062-11.341c1.682-2.719,7.443-3.062,9.939-4.32c5.721-2.884,10.687-10.205,16.145-12.37
	c3.669-1.456,5.837,1.478,8.543,2.199c3.188,0.849,5.873-0.217,8.667,2.026c3.38,2.715,6.876,10.578,8.364,14.551
	c11.506-1.295,20.615,8.742,26.721,17.162c3.018,4.16,6.113,8.727,8.091,13.493C426.363,89.073,428.242,95.949,431.215,101.841z"/>
<path fill="none" stroke="#00BCD4" stroke-width="2" d="M421.54,53.975c2.186,1.531,3.099,2.316,3.563,5.094
	c0.599,3.587-0.07,4.062,1.4,7.253c3.43,7.444,9.984,13.823,13.904,21.081c-0.529-10.436,6.34-9.065,12.701-14.191
	c4.878-3.93,10.213-10.931,13.24-16.181c1.599-2.771,3.49-6.797,4.2-10.071c0.564-2.608-0.122-9.117,1.506-11.214
	c1.635-2.107,7.616-3.021,10.095-4.161c3.549-1.633,7.018-3.249,10.678-4.738c7.42-3.022,13.752-0.485,20.765-3.041
	c8.555-3.116,12.066,4.165,11.412,12.26c3.038,0.843,4.814,3.752,7.61,4.881c2.654,1.071,4.408,0.269,7.211,0.707
	c5.652,0.884,8.348,5.099,10.021,10.272c1.246,3.85-0.167,8.382,1.136,12.132c1.084,3.124,3.879,5.02,4.596,8.645
	c2.793,14.154-19.453,20.622-22.916,33.722c-1.329,5.029-0.262,6.714-3.791,10.57c-2.673,2.918-5.992,4.476-8.939,6.857
	c-6.215,5.024-9.588,12.281-10.795,19.746c-1.322,8.183,0.648,17.417-6.658,22.407c-6.972,4.76-11.729,6.637-15.363,14.144
	c-1.508,3.115-2.895,5.234-3.591,8.771c-0.365,1.857-0.128,3.704-0.358,5.613c-0.001,0.011-0.002,0.022-0.004,0.033
	c-0.928,7.698-19.031,9.55-25.06,14.088c-3.886,2.927-11.399,14.421-16.505,14.317c-3.2-0.065-6.537-5.9-8.871-7.821
	c-3.34-2.747-6.953-4.219-9.064-8.165c-5.334-9.974-5.507-22.886-10.397-33.33c-1.963-4.192-3.763-7.438-4.962-11.723
	c-0.598-2.14,0.66-2.069-0.883-4.203c-1.092-1.508-3.414-2.21-4.834-3.298c-5.741-4.395-11.262-8.294-17.328-11.724
	c-2.976-1.682-7.967-2.487-10.465-4.809c-5.51-5.121-7.648-19.886-18.344-18.309c-0.908-4.843-5.206-4.283-8.746-6.135
	c-3.479-1.82-8.753-5.42-11.214-8.556c-5.024-6.396-6.36-16.65-7.116-24.442c-1.381-14.196,1.299-34.795,15.149-42.39
	c7.059-3.87,18.646-8.176,22.632-16.091c7.795,3.427,15.302,7.751,23.318,10.994c5.975,2.418,14.041,2.918,17.656,9.014
	c1.8,3.039,0.902,6.251,3.554,8.61C414.189,52.821,418.759,52.027,421.54,53.975z"/>
<path fill="none" stroke="#00BCD4" stroke-width="2" d="M440.89,71.798c-0.878-4.582-6.646-7.364-10.071-16.295
	c-2.398-6.256-3.234-14.173-7.103-19.973c-4.444-6.664-13.432-5.594-20.11-7.934c-7.566-2.652-11.105-6.889-17.328-12.195
	c-4.293-3.662-12.697-6.563-18.361-4.604c-5.008,1.733-4.824,6.599-8.358,10.383c-6.811,7.295-17.964,8.694-27.019,11.522
	c-9.57,2.988-4.414,11.366-7.369,19.236c-2.939,7.834-13.133,8.164-14.143,16.792c-0.691,5.902,4.285,17.053,7.525,22.047
	c4.436,6.841,6.807,15.838,11.699,22.122c3.945,5.068,10.486,7.685,16.437,9.327c9.183,2.535,14.198,8.682,20.823,14.652
	c5.928,5.343,14.685,6.579,19.02,13.823c2.529,4.225,1.085,19.592,2.928,23.959c7.352,17.417,16.82,22.217,27.274,38.049
	c3.954,5.989,6.153,20.934,11.426,26.112c2.09,2.053,11.558,11.618,14.274,12.731c0.703,0.287,6.4-10.545,6.738-10.643
	c2.635-0.76,3.171-4.341,3.979-6.645c2.074-5.914,3.475-11.68,9.103-15.303c7.669-4.934,19.075-7.103,22.927-15.15
	c4.934-10.31,6.956-17.948,15.457-22.192c3.883-1.938,2.023-6.626,4.031-10.522c2.214-4.291,6.678-6.622,9.617-10.229
	c3.061-3.757,4.021-8.438,6.156-12.688c2.324-4.629,5.797-7.776,10.17-10.566c4.148-2.646,8.365-3.55,9.574-8.784
	c1.027-4.447-1.574-11.087,0.568-15.041c1.477-2.727,6.69-5.176,9.238-6.81c6.783-4.348,14.127-14.303,14.127-14.303
	c-0.381-8.021,3.02-7.756,0-9.166c-3.593-1.679-2.539-0.643-2.545-4.583c-0.009-6.07,2.787-15.675,0.166-21.336
	c-1.88-4.058-7.359-6.397-9.73-10.351c-1.883-3.137-1.795-7.028-2.67-10.551c-2.111-8.47-8.242-10.989-12.831-17.748
	c-2.024-2.981-4.146-5.475-7.524-6.212c-4.184-0.914-8.583,1.674-12.729,0.394c-7.412-2.288-8.924-10.454-18.221-6.889
	c-6.523,2.502-11.545,9.048-17.936,12.604c-6.314,3.515-15.744,4.833-18.33,12.706c-0.672,2.044,0.191,4.659-0.586,6.545
	c-0.57,1.383-2.937,2.697-3.613,4.57c-1.663,4.61-0.213,6.142-4.064,9.638C446.811,58.372,444.014,63.849,440.89,71.798"/>
<path fill="none" stroke="#00BCD4" stroke-width="2" d="M440.381,65.177c0-35.464,30.746-64.162,68.744-64.162"/>
</svg>
