<svg data-name="Layer 1" xmlns="http://www.w3.org/2000/svg" viewBox="0 0 154.12 97.66"><defs><style>.cls-1{fill:#fff;}.cls-2{fill:none;stroke:#fff;}</style></defs><title>date</title><path class="cls-1" d="M16.71,91c0,4-3,6.7-7.1,6.7H7.11C3.05,97.66,0,95,0,91s3-6.7,7.11-6.7h2.5C13.75,84.26,16.71,87,16.71,91Zm-4.14,0a2.83,2.83,0,0,0-3-2.91H7.11a2.91,2.91,0,1,0,0,5.82h2.5A2.82,2.82,0,0,0,12.57,91Z"/><path class="cls-1" d="M22.27,88v1.78H30v3.51H22.27v4.15H18.2v-13h13V88Z"/><path class="cls-1" d="M54.71,91c0,4-3,6.7-7.11,6.7H45.1C41.05,97.66,38,95,38,91s3-6.7,7.1-6.7h2.5C51.75,84.26,54.71,87,54.71,91Zm-4.15,0a2.82,2.82,0,0,0-3-2.91H45.1a2.91,2.91,0,1,0,0,5.82h2.5A2.82,2.82,0,0,0,50.56,91Z"/><path class="cls-1" d="M68.26,91.87h4.22c-.4,3.5-3.22,5.79-7,5.79h-2.5c-4,0-7.1-2.68-7.1-6.7s3-6.7,7.1-6.7h2.5c3.83,0,6.65,2.3,7,5.79H68.26a2.91,2.91,0,0,0-2.83-2h-2.5a2.94,2.94,0,1,0,0,5.87h2.5A2.94,2.94,0,0,0,68.26,91.87Z"/><path class="cls-1" d="M88.57,88.05H83v9.39H79V88.05H73.42V84.48H88.57Z"/><path class="cls-1" d="M106.22,91c0,4-3,6.7-7.11,6.7h-2.5c-4,0-7.1-2.68-7.1-6.7s3-6.7,7.1-6.7h2.5C103.26,84.26,106.22,87,106.22,91Zm-4.15,0a2.82,2.82,0,0,0-3-2.91h-2.5a2.91,2.91,0,1,0,0,5.82h2.5A2.82,2.82,0,0,0,102.07,91Z"/><path class="cls-1" d="M121.81,90.94a3.55,3.55,0,0,1,.91,2.37,4.12,4.12,0,0,1-4.15,4.13H107.71v-13h10.86a4.14,4.14,0,0,1,4.15,4.15A3.33,3.33,0,0,1,121.81,90.94Zm-10.12-1.55h6.23a.67.67,0,0,0,.65-.67.66.66,0,0,0-.65-.67h-6.23Zm6.88,3.75a.74.74,0,0,0-.72-.72h-6.16v1.45h6.18A.71.71,0,0,0,118.57,93.14Z"/><path class="cls-1" d="M128.28,88v1.29H136v3.37h-7.68V93.9h8.94v3.54h-13v-13h13V88Z"/><path class="cls-1" d="M139.07,84.48h9.52c3.31,0,5.49,2.24,5.49,5a4.79,4.79,0,0,1-2.44,4.22l2.48,3.74H149.4l-1.76-3h-4.48v3h-4.09Zm9.52,6.43a1.43,1.43,0,0,0,0-2.86h-5.43v2.86Z"/><path class="cls-2" d="M78.16,57.07H72.1v9.65H52.23V57l-48.06-.1v-18L19.31.5H72.1V39.38h6.06ZM52.23,39.38V18.76H32.46L24.33,39.38Z"/><path class="cls-2" d="M116.82,46.93H105.14V66.72H96.55V46.93H84.84V39.39h32Z"/><path class="cls-2" d="M152.94,39.39V66.72h-8.59V56.57h-15V66.72h-8.59V39.39h8.59V49h15V39.39Z"/></svg>