<?xml version="1.0" encoding="utf-8"?>
<!-- Generator: Adobe Illustrator 23.0.3, SVG Export Plug-In . SVG Version: 6.00 Build 0)  -->
<svg version="1.1" id="Layer_3" xmlns="http://www.w3.org/2000/svg" xmlns:xlink="http://www.w3.org/1999/xlink" x="0px" y="0px"
	 viewBox="0 0 200 200" style="enable-background:new 0 0 200 200;" xml:space="preserve">
<style type="text/css">
	.st0{opacity:0.9;}
	.st1{fill:#FFFFFF;}
	.st2{opacity:0.6;}
	.st3{opacity:0.7;}
	.st4{opacity:0.5;}
	.st5{opacity:0.8;}
</style>
<g>
	<g>
		<g class="st0">
			<path class="st1" d="M40.3,153.9v-15.8l-40,40v15.8c0,0.5,0.1,1,0.2,1.5l40-40C40.4,154.9,40.3,154.4,40.3,153.9z"/>
		</g>
		<g class="st2">
			<path class="st1" d="M1.2,108c-0.5,3.7-0.8,7.5-0.8,11.4v9.3l40-40v-9.3c0-3.9,0.3-7.7,0.8-11.4L1.2,108z"/>
		</g>
		<g class="st3">
			<polygon class="st1" points="40.3,91.8 0.4,131.7 0.4,150.9 40.3,110.9 			"/>
		</g>
		<g>
			<path class="st1" d="M120.4,159.5H45.9c-0.6,0-1.1-0.1-1.6-0.2l-40,40c0.5,0.2,1.1,0.2,1.6,0.2h74.5c32.4,0,60.4-19.3,72.9-47.1
				C143.3,157,132.1,159.5,120.4,159.5z"/>
		</g>
		<g class="st4">
			<path class="st1" d="M41.6,65.3c1.2-6.6,3.1-12.9,5.8-18.8C23.8,57.2,6.3,79,1.6,105.3L41.6,65.3z"/>
		</g>
		<g class="st5">
			<polygon class="st1" points="40.3,132.5 40.3,114.7 0.4,154.7 0.4,172.5 			"/>
		</g>
	</g>
	<g>
		<g class="st3">
			<polygon class="st1" points="160.4,107.7 200.4,67.7 200.4,48.6 160.4,88.6 			"/>
		</g>
		<g class="st2">
			<path class="st1" d="M160.4,119.4c0,4.1-0.3,8.2-0.9,12.1l40-40c0.6-3.9,0.9-8,0.9-12.1v-8.7l-40,40V119.4z"/>
		</g>
		<g class="st0">
			<path class="st1" d="M160.4,45v16.3l40-40V5c0-0.3,0-0.7-0.1-1l-40,40C160.4,44.3,160.4,44.6,160.4,45z"/>
		</g>
		<g class="st4">
			<path class="st1" d="M159,134.3c-1.2,6.3-3.1,12.4-5.7,18.1c23.4-10.6,40.8-32.1,45.7-58.1L159,134.3z"/>
		</g>
		<g class="st5">
			<polygon class="st1" points="200.4,44.8 200.4,27 160.4,67 160.4,84.8 			"/>
		</g>
		<g>
			<path class="st1" d="M156.9,39.8l40-40c-0.6-0.3-1.3-0.4-2-0.4h-74.5C87.9-0.5,60,18.8,47.4,46.5c10-4.5,21.2-7.1,33-7.1h74.5
				C155.6,39.4,156.2,39.6,156.9,39.8z"/>
		</g>
	</g>
</g>
<g>
	<path class="st1" d="M68.8,120.3v16.2h4.1v-5.5v-10.7c0-6.7,5.5-12.2,12.2-12.2v-4.1C76.1,104.1,68.8,111.3,68.8,120.3z"/>
	<path id="A_2_" class="st1" d="M121.4,104.1c-8.9,0-16.2,7.3-16.2,16.2c0,8.9,7.3,16.2,16.2,16.2c4.8,0,9.2-2.1,12.2-5.5v5.5h4.1
		v-16.2C137.6,111.3,130.3,104.1,121.4,104.1z M121.4,132.4c-6.7,0-12.2-5.5-12.2-12.2c0-6.7,5.5-12.2,12.2-12.2
		c6.7,0,12.2,5.5,12.2,12.2C133.5,127,128.1,132.4,121.4,132.4z"/>
	<path class="st1" d="M105.2,75.4c0,8.9,7.3,16.2,16.2,16.2s16.2-7.3,16.2-16.2l0,0V59.2h-4.1v16.2l0,0c0,6.7-5.5,12.2-12.2,12.2
		c-6.7,0-12.2-5.5-12.2-12.2l0,0V59.2h-4.1V75.4L105.2,75.4z"/>
	<path id="A_1_" class="st1" d="M76.9,59.7c-8.9,0-16.2,7.3-16.2,16.2c0,8.9,7.3,16.2,16.2,16.2c4.8,0,9.2-2.1,12.2-5.5v5.5h4.1
		V75.9C93.1,66.9,85.8,59.7,76.9,59.7z M76.9,88c-6.7,0-12.2-5.5-12.2-12.2c0-6.7,5.5-12.2,12.2-12.2S89,69.2,89,75.9
		C89,82.6,83.6,88,76.9,88z"/>
</g>
</svg>
