<?xml version="1.0" encoding="utf-8"?>
<!-- Generator: Adobe Illustrator 14.0.0, SVG Export Plug-In . SVG Version: 6.00 Build 43363)  -->
<!DOCTYPE svg PUBLIC "-//W3C//DTD SVG 1.1//EN" "http://www.w3.org/Graphics/SVG/1.1/DTD/svg11.dtd">
<svg name="13" version="1.1" xmlns="http://www.w3.org/2000/svg" xmlns:xlink="http://www.w3.org/1999/xlink" x="0px" y="0px" width="300px"
	 height="300px" viewBox="0 0 300 300" enable-background="new 0 0 300 300" xml:space="preserve">
<g id="cluster_thirteen">
	<g id="color_emphasis_14_">
		<path fill="none" stroke="#F1F2F3" stroke-width="4" d="M180.396,295.391c-10.125,2.184-20.634,3.334-31.411,3.334
			c-81.853,0-148.208-66.354-148.208-148.209c0-11.707,1.357-23.095,3.921-34.018"/>
		<path fill="none" stroke="#D3A143" stroke-width="4" d="M265.157,58.473c20.06,25.281,32.037,57.264,32.037,92.043
			c0,71.078-50.031,130.467-116.798,144.875"/>
		<path fill="none" stroke="#7FA6D7" stroke-width="4" d="M4.698,116.498C20.073,51.04,78.839,2.307,148.985,2.307
			c47.075,0,89.022,21.946,116.172,56.166"/>
	</g>
	<g id="rhythm_11_" opacity="0.03">
		<path fill="none" stroke="#2C2C2C" d="M147.108,151.08c22.727-17.676,45.452-35.352,68.179-53.029
			c11.36-8.839,22.725-17.677,34.088-26.516c2.913-2.265,5.826-4.53,8.741-6.799c1.33-1.035,2.66-2.07,3.992-3.104
			c2.119-1.65,1.094-0.961-0.476-0.976c-0.505-0.006-1.4,0.339-1.815,0.449c-1.832,0.479-4.428,3.435-5.945,4.615
			c-2.965,2.306-5.929,4.611-8.892,6.917c-5.93,4.612-11.857,9.223-17.785,13.835c-11.857,9.22-23.715,18.443-35.571,27.667
			c-11.363,8.838-22.726,17.678-34.09,26.515c-2.913,2.266-5.826,4.532-8.74,6.799c-1.332,1.036-2.662,2.07-3.993,3.105
			c-2.12,1.649-1.093,0.96,0.475,0.976c0.506,0.004,1.401-0.341,1.816-0.449c-0.216,0.055-0.613,0.133-0.888,0.205
			c-3.998,1.047,1.235-2.281,2.18-3.016c2.368-1.844,4.736-3.686,7.106-5.53c4.941-3.842,9.881-7.684,14.822-11.527
			c9.88-7.686,19.761-15.37,29.64-23.056c19.763-15.371,39.525-30.743,59.286-46.112c0.994-0.779,2.087-1.192,3.279-1.239
			c-0.945,0.097-3.217,2.503-3.991,3.106c-2.371,1.842-4.739,3.685-7.109,5.527c-4.941,3.844-9.88,7.687-14.82,11.527
			c-9.881,7.687-19.762,15.372-29.642,23.058c-20.257,15.756-40.513,31.51-60.768,47.266
			C146.412,151.121,146.88,151.259,147.108,151.08z"/>
		<path fill="none" stroke="#2C2C2C" d="M146.066,153.654c22.635,19.199,45.268,38.402,67.902,57.605
			c11.317,9.598,22.634,19.196,33.951,28.799c2.901,2.462,5.801,4.924,8.706,7.387c1.325,1.123,2.65,2.247,3.976,3.372
			c2.111,1.79,1.199,0.9,0.883-0.686c-0.102-0.511-0.637-1.343-0.836-1.737c-0.871-1.748-4.4-3.743-5.911-5.023
			c-2.955-2.507-5.906-5.01-8.858-7.515c-5.905-5.01-11.809-10.019-17.715-15.026c-11.806-10.018-23.615-20.036-35.426-30.053
			c-11.316-9.601-22.636-19.202-33.95-28.803c-2.902-2.461-5.805-4.921-8.707-7.385c-1.326-1.125-2.65-2.25-3.977-3.373
			c-2.111-1.791-1.197-0.902-0.885,0.686c0.104,0.511,0.641,1.342,0.837,1.737c-0.102-0.206-0.264-0.591-0.395-0.853
			c-1.9-3.814,2.563,0.764,3.503,1.564c2.361,2,4.72,4,7.08,6.002c4.922,4.176,9.839,8.35,14.762,12.524
			c9.841,8.346,19.681,16.696,29.521,25.043c19.683,16.696,39.366,33.394,59.046,50.09c0.997,0.839,1.645,1.854,1.942,3.048
			c-0.297-0.935-3.205-2.718-3.977-3.372c-2.358-2.004-4.719-4.005-7.078-6.009c-4.923-4.174-9.841-8.348-14.761-12.521
			c-9.843-8.348-19.684-16.696-29.524-25.044c-20.173-17.114-40.347-34.228-60.521-51.341
			C145.878,152.961,145.839,153.462,146.066,153.654z"/>
		<path fill="none" stroke="#2C2C2C" d="M143.141,152.07c-21.906,15.596-43.816,31.188-65.724,46.783
			c-10.952,7.798-21.903,15.596-32.859,23.393c-2.809,1.997-5.618,3.997-8.427,5.998c-1.282,0.912-2.565,1.826-3.849,2.739
			c-2.042,1.454-1.058,0.851,0.404,0.929c0.473,0.023,1.322-0.26,1.715-0.348c1.729-0.374,4.268-3.031,5.729-4.07
			c2.859-2.037,5.715-4.07,8.572-6.104c5.715-4.069,11.431-8.136,17.145-12.204c11.429-8.136,22.86-16.273,34.289-24.408
			c10.954-7.798,21.909-15.596,32.861-23.391c2.809-2.001,5.615-4,8.426-5.999c1.284-0.913,2.567-1.826,3.849-2.74
			c2.044-1.454,1.059-0.85-0.407-0.929c-0.47-0.024-1.319,0.263-1.71,0.347c0.204-0.043,0.578-0.1,0.837-0.156
			c3.773-0.818-1.244,2.081-2.154,2.727c-2.282,1.626-4.565,3.252-6.85,4.879c-4.765,3.391-9.527,6.779-14.29,10.172
			c-9.522,6.779-19.048,13.559-28.572,20.338c-19.05,13.562-38.101,27.121-57.15,40.682c-0.958,0.688-1.996,1.03-3.109,1.024
			c0.887-0.05,3.101-2.206,3.848-2.74c2.287-1.622,4.57-3.251,6.854-4.875c4.763-3.391,9.524-6.778,14.287-10.169
			c9.525-6.782,19.049-13.562,28.574-20.343c19.525-13.897,39.051-27.799,58.578-41.696
			C143.793,152.06,143.36,151.914,143.141,152.07z"/>
		<path fill="none" stroke="#2C2C2C" d="M145.097,149.925c-9.062-23.364-18.122-46.728-27.182-70.092
			c-4.531-11.681-9.062-23.358-13.592-35.043c-1.162-2.996-2.322-5.99-3.484-8.989c-0.532-1.364-1.062-2.732-1.594-4.101
			c-0.845-2.18-0.524-1.152-0.93,0.15c-0.129,0.422-0.069,1.253-0.079,1.628c-0.058,1.647,1.759,4.55,2.361,6.109
			c1.185,3.05,2.366,6.096,3.548,9.142c2.364,6.095,4.727,12.19,7.091,18.283c4.727,12.188,9.455,24.379,14.182,36.568
			c4.531,11.681,9.062,23.365,13.59,35.046c1.164,2.994,2.325,5.987,3.485,8.985c0.532,1.367,1.061,2.737,1.592,4.104
			c0.844,2.178,0.526,1.15,0.931-0.153c0.131-0.419,0.068-1.252,0.081-1.625c-0.008,0.193-0.042,0.543-0.052,0.791
			c-0.126,3.597-1.594-1.6-1.966-2.571c-0.947-2.435-1.892-4.869-2.837-7.304c-1.972-5.081-3.939-10.16-5.911-15.241
			c-3.939-10.156-7.877-20.314-11.817-30.469c-7.88-20.318-15.758-40.634-23.637-60.949c-0.4-1.023-0.473-2.038-0.212-3.043
			c-0.159,0.813,1.28,3.305,1.592,4.104c0.941,2.438,1.888,4.874,2.831,7.309c1.971,5.08,3.939,10.156,5.91,15.236
			c3.94,10.158,7.881,20.314,11.82,30.474c8.075,20.821,16.152,41.646,24.227,62.47
			C144.958,150.514,145.188,150.158,145.097,149.925z"/>
	</g>
	<g id="pattern_balance_9_">
		<g id="pattern_lines_out_11_">
			<g>
				<path fill="none" stroke="#2C2C2C" d="M145.65,150.258c0-23.265,0-46.528,0-69.792c0-11.632,0-23.265,0-34.896
					c0-2.982,0-5.965,0-8.948c0-1.362,0-2.725,0-4.087c0-2.17-0.069-1.173-0.857-0.181c-0.254,0.32-0.479,1.062-0.615,1.381
					c-0.603,1.408-0.005,4.527-0.005,6.082c0,3.034,0,6.069,0,9.103c0,6.069,0,12.139,0,18.207c0,12.138,0,24.275,0,36.413
					c0,11.632,0,23.264,0,34.896c0,2.982,0,5.965,0,8.948c0,1.362,0,2.724,0,4.087c0,2.17,0.069,1.173,0.857,0.18
					c0.254-0.319,0.479-1.062,0.615-1.381c-0.071,0.166-0.22,0.457-0.31,0.669c-1.314,3.069-0.842-1.919-0.842-2.886
					c0-2.426,0-4.851,0-7.276c0-5.058,0-10.115,0-15.172c0-10.115,0-20.23,0-30.345c0-20.23,0-40.459,0-60.688
					c-0.002-1.021,0.276-1.923,0.837-2.706c-0.408,0.652,0,3.293,0,4.087c0,2.426,0,4.851,0,7.276c0,5.058,0,10.115,0,15.172
					c0,10.115,0,20.229,0,30.345c0,20.735,0,41.47,0,62.206C145.331,150.722,145.65,150.49,145.65,150.258z"/>
				<path fill="none" stroke="#2C2C2C" d="M146.199,150.671c10.222-20.898,20.441-41.797,30.663-62.695
					c5.109-10.449,10.221-20.899,15.331-31.349c1.31-2.679,2.62-5.357,3.932-8.038c0.598-1.224,1.196-2.448,1.796-3.671
					c0.953-1.949,0.452-1.085-0.692-0.539c-0.367,0.176-0.896,0.744-1.158,0.971c-1.16,0.999-1.994,4.065-2.677,5.461
					c-1.333,2.727-2.666,5.451-3.998,8.178c-2.667,5.452-5.333,10.903-7.999,16.355c-5.333,10.903-10.666,21.807-15.998,32.71
					c-5.11,10.45-10.221,20.899-15.332,31.349c-1.311,2.679-2.621,5.357-3.931,8.038c-0.599,1.225-1.197,2.447-1.795,3.671
					c-0.955,1.95-0.454,1.085,0.69,0.539c0.369-0.176,0.897-0.744,1.159-0.971c-0.136,0.117-0.397,0.314-0.572,0.465
					c-2.529,2.18,0.086-2.095,0.512-2.964c1.065-2.179,2.13-4.355,3.196-6.536c2.222-4.543,4.445-9.086,6.667-13.629
					c4.442-9.086,8.888-18.173,13.33-27.259c8.889-18.173,17.776-36.346,26.663-54.518c0.446-0.918,1.093-1.606,1.941-2.063
					c-0.653,0.406-1.446,2.959-1.795,3.672c-1.066,2.179-2.131,4.357-3.197,6.536c-2.223,4.544-4.444,9.086-6.667,13.629
					c-4.442,9.086-8.887,18.173-13.33,27.259c-9.11,18.629-18.22,37.254-27.33,55.882
					C145.708,150.947,146.098,150.881,146.199,150.671z"/>
				<path fill="none" stroke="#2C2C2C" d="M146.522,151.971c22.771-4.764,45.542-9.525,68.315-14.288
					c11.384-2.384,22.769-4.766,34.156-7.147c2.919-0.609,5.837-1.219,8.758-1.832c1.334-0.278,2.666-0.557,4-0.835
					c2.124-0.445,1.135-0.31,0.002-0.877c-0.366-0.183-1.138-0.251-1.479-0.319c-1.5-0.301-4.434,0.922-5.953,1.24
					c-2.972,0.622-5.941,1.244-8.91,1.864c-5.941,1.243-11.881,2.485-17.821,3.729c-11.88,2.483-23.761,4.969-35.642,7.456
					c-11.385,2.38-22.772,4.763-34.156,7.144c-2.92,0.61-5.839,1.222-8.758,1.833c-1.335,0.279-2.668,0.557-4.001,0.836
					c-2.124,0.444-1.134,0.308-0.002,0.877c0.367,0.182,1.138,0.251,1.479,0.319c-0.176-0.037-0.492-0.122-0.718-0.167
					c-3.273-0.66,1.706-1.218,2.654-1.415c2.374-0.497,4.747-0.993,7.121-1.491c4.95-1.035,9.9-2.069,14.852-3.105
					c9.899-2.071,19.8-4.142,29.7-6.213c19.802-4.143,39.604-8.284,59.402-12.426c1-0.213,1.939-0.124,2.821,0.266
					c-0.721-0.267-3.224,0.673-4.001,0.837c-2.374,0.495-4.748,0.993-7.122,1.488c-4.95,1.036-9.9,2.071-14.85,3.106
					c-9.9,2.071-19.802,4.143-29.701,6.214c-20.298,4.245-40.593,8.489-60.889,12.736
					C146.002,151.753,146.294,152.019,146.522,151.971z"/>
				<path fill="none" stroke="#2C2C2C" d="M146.229,152.593c22.549,5.725,45.097,11.451,67.646,17.177
					c11.273,2.862,22.547,5.724,33.822,8.587c2.891,0.735,5.78,1.469,8.674,2.202c1.319,0.336,2.64,0.671,3.959,1.007
					c2.104,0.533,1.156,0.222,0.387-0.786c-0.247-0.325-0.91-0.727-1.188-0.937c-1.215-0.931-4.387-1.12-5.893-1.501
					c-2.942-0.747-5.882-1.494-8.823-2.24c-5.883-1.494-11.765-2.988-17.646-4.48c-11.764-2.988-23.527-5.975-35.293-8.962
					c-11.274-2.862-22.549-5.726-33.822-8.588c-2.892-0.734-5.781-1.468-8.673-2.202c-1.322-0.336-2.642-0.672-3.962-1.006
					c-2.103-0.535-1.153-0.223-0.387,0.787c0.25,0.325,0.914,0.725,1.188,0.936c-0.142-0.11-0.389-0.326-0.572-0.465
					c-2.651-2.031,2.068-0.345,3.006-0.105c2.35,0.597,4.701,1.192,7.051,1.789c4.903,1.245,9.804,2.49,14.707,3.735
					c9.802,2.487,19.606,4.978,29.409,7.468c19.608,4.978,39.217,9.956,58.822,14.935c0.991,0.248,1.796,0.74,2.417,1.478
					c-0.531-0.557-3.191-0.811-3.961-1.006c-2.351-0.598-4.702-1.193-7.053-1.792c-4.903-1.243-9.804-2.489-14.705-3.734
					c-9.805-2.487-19.607-4.978-29.412-7.466c-20.098-5.104-40.194-10.207-60.292-15.31
					C145.858,152.169,146.004,152.536,146.229,152.593z"/>
				<path fill="none" stroke="#2C2C2C" d="M145.023,153.175c9.327,21.312,18.649,42.628,27.974,63.942
					c4.663,10.655,9.327,21.31,13.988,31.969c1.194,2.732,2.39,5.465,3.587,8.198c0.546,1.247,1.091,2.495,1.637,3.743
					c0.871,1.987,0.534,1.048,0.857-0.177c0.104-0.396,0.015-1.166,0.011-1.514c-0.012-1.53-1.811-4.15-2.433-5.572
					c-1.218-2.782-2.433-5.561-3.65-8.341c-2.433-5.56-4.863-11.121-7.298-16.68c-4.863-11.119-9.728-22.239-14.595-33.358
					c-4.661-10.657-9.324-21.315-13.985-31.972c-1.197-2.732-2.393-5.463-3.587-8.197c-0.547-1.249-1.092-2.498-1.639-3.744
					c-0.87-1.989-0.533-1.048-0.86,0.178c-0.103,0.396-0.011,1.165-0.008,1.512c0-0.181,0.018-0.508,0.016-0.736
					c-0.024-3.34,1.542,1.421,1.929,2.307c0.973,2.222,1.944,4.442,2.917,6.665c2.028,4.635,4.054,9.267,6.081,13.901
					c4.055,9.266,8.108,18.532,12.162,27.799c8.109,18.533,16.218,37.067,24.325,55.601c0.413,0.934,0.519,1.872,0.317,2.813
					c0.114-0.759-1.319-3.016-1.639-3.743c-0.969-2.223-1.942-4.444-2.913-6.667c-2.028-4.635-4.055-9.268-6.082-13.899
					c-4.056-9.268-8.109-18.533-12.165-27.8c-8.31-18.996-16.622-37.993-24.933-56.99
					C145.13,152.621,144.93,152.961,145.023,153.175z"/>
				<path fill="none" stroke="#2C2C2C" d="M144.354,153.016c-0.986,23.242-1.976,46.486-2.963,69.73
					c-0.492,11.621-0.984,23.241-1.479,34.865c-0.128,2.979-0.256,5.958-0.381,8.939c-0.058,1.359-0.115,2.722-0.173,4.083
					c-0.091,2.167,0.019,1.175,0.848,0.218c0.267-0.311,0.524-1.041,0.674-1.355c0.662-1.38,0.196-4.524,0.263-6.074
					c0.127-3.035,0.256-6.065,0.384-9.098c0.257-6.062,0.516-12.126,0.773-18.188c0.516-12.126,1.031-24.253,1.545-36.38
					c0.494-11.621,0.988-23.244,1.481-34.864c0.126-2.981,0.251-5.96,0.379-8.94c0.058-1.362,0.116-2.723,0.173-4.084
					c0.093-2.168-0.018-1.175-0.851-0.217c-0.266,0.311-0.521,1.041-0.671,1.354c0.08-0.162,0.238-0.447,0.338-0.654
					c1.445-3.012,0.76,1.954,0.718,2.919c-0.102,2.423-0.205,4.845-0.307,7.27c-0.215,5.054-0.431,10.106-0.645,15.16
					c-0.429,10.104-0.858,20.21-1.289,30.313c-0.857,20.213-1.715,40.425-2.574,60.635c-0.04,1.021-0.357,1.91-0.951,2.668
					c0.436-0.631,0.14-3.289,0.172-4.082c0.106-2.424,0.208-4.847,0.312-7.271c0.214-5.054,0.43-10.104,0.644-15.157
					c0.429-10.107,0.856-20.212,1.286-30.318c0.881-20.715,1.76-41.433,2.64-62.149
					C144.694,152.565,144.364,152.783,144.354,153.016z"/>
				<path fill="none" stroke="#2C2C2C" d="M143.824,152.58c-11.097,20.446-22.198,40.892-33.297,61.338
					c-5.547,10.224-11.095,20.444-16.646,30.67c-1.424,2.62-2.847,5.241-4.27,7.863c-0.649,1.197-1.299,2.395-1.949,3.593
					c-1.034,1.906-0.499,1.063,0.667,0.567c0.376-0.161,0.929-0.703,1.201-0.921c1.2-0.949,2.164-3.979,2.905-5.342
					c1.448-2.67,2.895-5.335,4.342-8.002c2.895-5.334,5.792-10.667,8.685-16.001c5.791-10.666,11.582-21.334,17.372-32.002
					c5.549-10.223,11.099-20.447,16.648-30.668c1.422-2.622,2.844-5.244,4.269-7.865c0.65-1.197,1.301-2.395,1.948-3.592
					c1.037-1.906,0.5-1.064-0.668-0.568c-0.374,0.16-0.926,0.707-1.197,0.921c0.142-0.11,0.41-0.298,0.592-0.44
					c2.621-2.069-0.176,2.09-0.638,2.938c-1.156,2.131-2.312,4.262-3.47,6.395c-2.413,4.447-4.827,8.891-7.24,13.337
					c-4.824,8.888-9.649,17.777-14.475,26.665c-9.65,17.781-19.302,35.561-28.952,53.339c-0.484,0.898-1.16,1.56-2.026,1.979
					c0.669-0.377,1.57-2.894,1.948-3.592c1.16-2.131,2.316-4.264,3.474-6.395c2.412-4.445,4.825-8.889,7.237-13.334
					c4.826-8.891,9.649-17.779,14.475-26.67c9.892-18.222,19.784-36.447,29.676-54.67
					C144.326,152.324,143.934,152.375,143.824,152.58z"/>
				<path fill="none" stroke="#2C2C2C" d="M143.557,151.267c-22.952,3.795-45.906,7.586-68.86,11.378
					c-11.476,1.897-22.95,3.795-34.428,5.69c-2.943,0.485-5.885,0.971-8.829,1.459c-1.343,0.222-2.687,0.444-4.032,0.666
					c-2.14,0.354-1.146,0.259-0.039,0.875c0.359,0.198,1.126,0.302,1.465,0.382c1.486,0.365,4.469-0.732,6-0.986
					c2.997-0.496,5.988-0.99,8.982-1.484c5.988-0.99,11.976-1.979,17.962-2.969c11.974-1.979,23.951-3.958,35.926-5.936
					c11.476-1.897,22.954-3.795,34.428-5.689c2.944-0.486,5.884-0.974,8.829-1.459c1.345-0.223,2.689-0.443,4.032-0.666
					c2.141-0.354,1.146-0.26,0.038-0.877c-0.356-0.198-1.125-0.298-1.46-0.381c0.175,0.045,0.485,0.142,0.709,0.197
					c3.244,0.799-1.756,1.145-2.711,1.3c-2.392,0.396-4.783,0.792-7.177,1.188c-4.991,0.825-9.981,1.646-14.973,2.475
					c-9.977,1.648-19.957,3.296-29.935,4.945c-19.96,3.299-39.919,6.596-59.878,9.895c-1.006,0.169-1.942,0.042-2.806-0.387
					c0.708,0.299,3.248-0.535,4.032-0.666c2.394-0.393,4.787-0.789,7.18-1.184c4.991-0.825,9.979-1.648,14.968-2.474
					c9.98-1.649,19.959-3.301,29.938-4.948c20.457-3.381,40.916-6.762,61.374-10.142
					C144.067,151.507,143.786,151.229,143.557,151.267z"/>
				<path fill="none" stroke="#2C2C2C" d="M143.875,150.658c-22.286-6.676-44.571-13.354-66.857-20.033
					c-11.142-3.336-22.283-6.674-33.427-10.014c-2.857-0.855-5.713-1.712-8.572-2.568c-1.304-0.39-2.609-0.78-3.915-1.172
					c-2.078-0.622-1.143-0.271-0.42,0.769c0.236,0.335,0.879,0.765,1.148,0.985c1.174,0.981,4.336,1.306,5.823,1.751
					c2.911,0.872,5.815,1.741,8.721,2.612c5.814,1.741,11.627,3.484,17.44,5.226c11.625,3.483,23.254,6.968,34.88,10.45
					c11.143,3.338,22.287,6.678,33.428,10.017c2.857,0.854,5.714,1.71,8.571,2.567c1.306,0.391,2.611,0.783,3.915,1.173
					c2.078,0.622,1.144,0.27,0.418-0.771c-0.233-0.334-0.879-0.762-1.145-0.984c0.137,0.117,0.374,0.341,0.551,0.488
					c2.562,2.143-2.081,0.257-3.006-0.023c-2.323-0.693-4.645-1.39-6.97-2.085c-4.847-1.452-9.69-2.905-14.537-4.355
					c-9.688-2.901-19.376-5.806-29.064-8.708c-19.38-5.806-38.759-11.613-58.137-17.419c-0.978-0.29-1.764-0.814-2.351-1.579
					c0.505,0.58,3.153,0.945,3.915,1.173c2.322,0.698,4.646,1.394,6.969,2.091c4.846,1.451,9.688,2.902,14.534,4.354
					c9.69,2.903,19.379,5.805,29.068,8.708c19.861,5.951,39.726,11.901,59.588,17.854
					C144.228,151.098,144.098,150.726,143.875,150.658z"/>
				<path fill="none" stroke="#2C2C2C" d="M144.429,150.252c-17.086-15.789-34.172-31.579-51.258-47.369
					c-8.543-7.893-17.086-15.785-25.629-23.682c-2.19-2.024-4.38-4.049-6.572-6.074c-1-0.922-2.001-1.848-3.002-2.771
					c-1.593-1.473-0.907-0.747-0.714,0.504c0.064,0.406,0.454,1.074,0.598,1.392c0.624,1.397,3.322,3.076,4.461,4.131
					c2.232,2.061,4.458,4.119,6.688,6.178c4.458,4.118,8.914,8.238,13.371,12.356c8.913,8.236,17.829,16.476,26.743,24.712
					c8.543,7.894,17.088,15.79,25.629,23.685c2.191,2.023,4.381,4.045,6.572,6.072c1.001,0.924,2,1.852,3,2.773
					c1.594,1.474,0.909,0.746,0.714-0.508c-0.062-0.402-0.455-1.071-0.596-1.388c0.072,0.165,0.187,0.47,0.28,0.682
					c1.361,3.05-1.982-0.685-2.689-1.343c-1.782-1.644-3.563-3.289-5.345-4.936c-3.716-3.433-7.429-6.867-11.145-10.299
					c-7.428-6.862-14.855-13.729-22.283-20.592c-14.859-13.729-29.715-27.46-44.573-41.189c-0.751-0.689-1.226-1.505-1.417-2.451
					c0.199,0.743,2.417,2.235,3.001,2.774c1.779,1.647,3.562,3.293,5.342,4.94c3.716,3.433,7.428,6.863,11.143,10.295
					c7.43,6.865,14.859,13.729,22.288,20.594c15.227,14.072,30.458,28.146,45.685,42.218
					C144.553,150.801,144.599,150.409,144.429,150.252z"/>
			</g>
			<line fill="none" stroke="#2C2C2C" stroke-width="0.82" x1="48.831" y1="60.811" x2="97.238" y2="28.167"/>
		</g>
		<g id="pattern_radial_12_">
			<polygon fill="none" stroke="#2C2C2C" stroke-width="0.92" points="83.928,95.919 113.551,69.537 145.119,64.74 183.1,72.586 
				212.695,99.565 229.343,134.646 231.774,173.982 211.979,209.571 180.396,230.342 140.992,239.734 103.201,228.088 
				74.379,201.017 59.378,165.178 62.544,126.625 			"/>
			<polygon fill="none" stroke="#2C2C2C" stroke-width="0.92" points="53.461,123.569 74.036,86.777 108.577,55.761 144.173,48.919 
				188.998,60.527 222.417,92.002 242.085,130.473 242.085,176.931 218.057,214.189 182.895,239.734 140.652,247.754 
				98.231,236.574 65.117,207.611 51.254,166.521 			"/>
			<polygon fill="none" stroke="#2C2C2C" stroke-width="0.92" points="96.599,137.702 109.114,119.628 128.9,109.111 
				144.78,107.641 164.188,111.256 180.396,122.875 187.927,139.301 190.608,162.338 181.553,181.822 165.656,197.45 
				142.621,204.132 121.675,196.478 101.143,182.421 93.622,159.519 			"/>
			<polygon fill="none" stroke="#2C2C2C" stroke-width="0.92" points="81.344,131.922 99.036,108.738 120.813,91.708 
				145.331,88.745 172.938,95.271 195.331,111.256 210.469,138.268 208.579,167.231 196.3,194.333 172.044,211.251 141.85,219.506 
				112.685,210.613 89.484,190.264 79.123,162.238 			"/>
			<polyline fill="none" stroke="#2C2C2C" stroke-width="0.92" points="112.685,156.692 116.681,142.511 123.435,132.426 
				134.909,127.099 144.78,124.058 157.96,126.625 168.238,134.646 170.417,145.791 171.13,158.915 169.049,170.681 
				158.384,180.027 144.138,185.375 129.63,181.822 115.439,171.79 112.685,157.865 			"/>
			<polygon fill="none" stroke="#2C2C2C" stroke-width="0.92" points="59.378,71.657 103.089,42.564 145.65,32.534 197.927,44.176 
				238.795,79.263 260.274,126.672 256.372,180.559 229.269,223.7 188.218,251.102 139.913,257.611 93.881,244.588 56.856,213.947 
				34.833,170.73 35.019,118.043 			"/>
		</g>
	</g>
	<g id="contrast_12_">
		<polygon fill="#2C2C2C" fill-opacity="0.02" points="35.019,118.043 30.684,117.64 7.073,107.641 39.226,50.931 59.378,71.657 		
			"/>
		<polygon fill="#2C2C2C" fill-opacity="0.02" points="90.586,14.257 98.666,31.152 144.793,32.354 147.119,2.307 		"/>
		<polygon fill="#2C2C2C" fill-opacity="0.02" points="197.927,44.176 211.879,16.278 265.157,58.473 262.519,60.811 		"/>
		<polygon fill="#2C2C2C" fill-opacity="0.02" points="262.341,127.418 293.973,119.654 292.301,188.417 261.06,181.42 		"/>
		<polygon fill="#2C2C2C" fill-opacity="0.02" points="261.484,250.132 212.622,284.4 193.066,260.851 229.269,223.7 		"/>
		<path fill="#2C2C2C" fill-opacity="0.02" d="M139.333,298.414c0.43,0.026,0.875-27.562,0.875-27.562l-52.583-14.068L76.43,279.771
			L139.333,298.414z"/>
		<polygon fill="#2C2C2C" fill-opacity="0.02" points="32.283,230.983 27.278,235.1 2.645,174.089 27.408,170.46 		"/>
	</g>
	<g id="movement_12_">
		<g>
			<g>
				<path fill="#2C2C2C" d="M259.283,151.821c-5.444-7.283-10.889-14.565-16.332-21.849c-0.003-0.004-1.631,0.847-1.732,1
					c-4.937,7.419-9.873,14.837-14.81,22.256c0.577-0.333,1.155-0.667,1.732-1c-5.603-6.027-11.205-12.055-16.807-18.082
					c-0.058-0.062-1.569,0.88-1.732,1c-7.086,5.226-14.173,10.45-21.26,15.676c0.577-0.333,1.155-0.667,1.732-1
					c-3.6-0.938-7.2-1.875-10.8-2.812c-2.38-0.619-4.76-1.239-7.14-1.859c-0.676-0.176-1.724-0.7-2.431-0.527
					c-7.546,1.85-15.093,3.699-22.64,5.548c-0.625,0.153-1.115,0.849-1.732,1c6.012-1.473,12.023-2.946,18.035-4.419
					c1.285-0.315,3.72-1.465,5.048-1.119c2.884,0.751,5.767,1.502,8.649,2.253c3.387,0.882,6.773,1.764,10.161,2.646
					c1.308,0.341,1.863,0.018,3.003-0.822c5.275-3.891,10.552-7.781,15.828-11.672c1.759-1.297,3.519-2.594,5.277-3.891
					c-0.577,0.333-1.155,0.667-1.732,1c5.603,6.027,11.205,12.055,16.807,18.082c0.026,0.028,1.634-0.852,1.732-1
					c4.937-7.419,9.873-14.837,14.81-22.256c-0.577,0.333-1.155,0.667-1.732,1c5.444,7.283,10.889,14.565,16.332,21.849
					C257.607,152.896,259.245,151.771,259.283,151.821L259.283,151.821z"/>
			</g>
		</g>
		<line display="none" fill="none" stroke="#2C2C2C" stroke-width="2" x1="145.276" y1="151.535" x2="293.086" y2="116.541"/>
		<line display="none" fill="none" stroke="#2C2C2C" stroke-width="2" x1="145.276" y1="151.535" x2="297.172" y2="151.535"/>
	</g>
</g>
</svg>
