<?xml version="1.0" encoding="utf-8"?>
<!-- Generator: Adobe Illustrator 14.0.0, SVG Export Plug-In . SVG Version: 6.00 Build 43363)  -->
<!DOCTYPE svg PUBLIC "-//W3C//DTD SVG 1.1//EN" "http://www.w3.org/Graphics/SVG/1.1/DTD/svg11.dtd">
<svg name="15" version="1.1" id="Layer_1" xmlns="http://www.w3.org/2000/svg" xmlns:xlink="http://www.w3.org/1999/xlink" x="0px" y="0px"
	 width="300px" height="300px" viewBox="0 0 300 300" enable-background="new 0 0 300 300" xml:space="preserve">
<g id="cluster_fifteen">
	<g id="color_emphasis_12_">
		<path fill="none" stroke="#BB5B25" stroke-width="4" d="M179.846,292.456c-9.933,2.143-20.243,3.271-30.819,3.271
			c-80.315,0-140.424-66.106-140.424-146.423c0-11.487-3.668-21.662-1.151-32.379"/>
		<path fill="none" stroke="#E48124" stroke-width="4" d="M263.016,59.99c19.681,24.805,31.436,56.187,31.436,90.313
			c0,69.744-49.091,128.016-114.604,142.153"/>
		<path fill="none" stroke="#A4A4A4" stroke-width="4" d="M7.452,116.925C22.537,52.698,80.199,4.88,149.026,4.88
			c46.19,0,87.348,21.535,113.987,55.111"/>
	</g>
	<g id="rhythm_13_" opacity="0.03">
		<g>
			<g>
				<path fill="#2C2C2C" d="M150.274,150.996c0-42.887,0-85.774,0-128.661c0-0.534,0-1.067,0-1.6c0,0.35-1.388,1.506-1.388,2.255
					c0,42.887,0,85.774,0,128.66c0,0.534,0,1.067,0,1.6C148.887,152.9,150.274,151.744,150.274,150.996L150.274,150.996z"/>
			</g>
		</g>
		<g>
			<g>
				<path fill="#2C2C2C" d="M148.895,153.312c42.079-13.523,84.16-27.048,126.24-40.571c1.711-0.551,3.423-1.1,5.134-1.65
					c0.746-0.24,0.891-2.223,1.373-2.377c-42.08,13.523-84.161,27.048-126.241,40.571c-1.711,0.551-3.423,1.1-5.134,1.651
					C149.521,151.174,149.377,153.157,148.895,153.312L148.895,153.312z"/>
			</g>
		</g>
		<g>
			<g>
				<path fill="#2C2C2C" d="M148.895,153.312c23.533,32.83,47.065,65.661,70.599,98.49c-0.101-0.137,1.691-1.931,1.372-2.377
					c-23.533-32.83-47.065-65.66-70.599-98.49C150.367,151.073,148.575,152.866,148.895,153.312L148.895,153.312z"/>
			</g>
		</g>
		<g>
			<g>
				<path fill="#FFFFFF" d="M149.868,151.445c-25.55,34.464-51.098,68.928-76.646,103.393c-0.61,0.821-1.22,1.645-1.829,2.466
					c-0.21,0.283-1.427,2.61-0.791,1.753c25.55-34.464,51.099-68.929,76.647-103.394c0.61-0.82,1.219-1.643,1.828-2.465
					C149.288,152.914,150.505,150.588,149.868,151.445L149.868,151.445z"/>
				<g>
					<path fill="#2C2C2C" d="M150.271,150.556c-15.114,20.388-30.227,40.774-45.341,61.162
						c-7.557,10.193-15.114,20.388-22.669,30.581c-3.488,4.706-6.976,9.41-10.466,14.116c-0.837,1.128-1.541,2.494-2.026,3.809
						c0.012-0.034-0.114,0.302,0.021,0.173c3.074-2.939,5.434-7.226,7.968-10.645c3.958-5.34,7.917-10.679,11.875-16.019
						c7.916-10.679,15.834-21.359,23.75-32.038c7.916-10.679,15.833-21.358,23.749-32.037c3.848-5.191,7.697-10.382,11.544-15.572
						c0.837-1.129,1.542-2.494,2.027-3.809c-0.013,0.034,0.113-0.302-0.021-0.172c-0.061,0.058-0.122,0.116-0.183,0.174
						c-0.579,0.553-0.919,2.002-1.26,2.329c-3.519,3.367-6.239,8.44-9.145,12.36c-3.238,4.367-6.477,8.736-9.716,13.104
						c-6.477,8.738-12.953,17.477-19.431,26.213c-12.954,17.476-25.908,34.95-38.864,52.425
						c25.069-33.816,51.713-69.748,77.384-104.378C149.682,152.046,150.915,149.687,150.271,150.556z"/>
				</g>
			</g>
		</g>
	</g>
	<g id="pattern_balance_11_">
		<g id="pattern_lines_out_13_">
			<g>
				<g>
					<path fill="#2C2C2C" d="M150.267,150.935c-33.854-11.481-67.707-22.962-101.562-34.443c-0.354-0.12-1.403,2.366-1.373,2.377
						c33.854,11.481,67.708,22.962,101.562,34.442C149.247,153.432,150.297,150.944,150.267,150.935L150.267,150.935z"/>
				</g>
			</g>
		</g>
		<g id="pattern_radial_14_">
			<polygon fill="none" stroke="#2C2C2C" stroke-width="1.4" points="48.019,117.68 149.58,44.88 253.924,118.589 215.267,240.878 
				84.014,240.965 			"/>
			<polygon fill="none" stroke="#2C2C2C" stroke-width="1.4" points="66.184,123.841 150.051,62.603 237.581,123.841 
				202.368,225.768 95.279,225.768 			"/>
		</g>
	</g>
	<g id="contrast_14_">
		<polygon fill="#2C2C2C" fill-opacity="0.02" points="48.019,117.68 11.008,104.376 150.972,4.894 149.58,44.88 		"/>
		<path fill="#2C2C2C" fill-opacity="0.02" d="M253.924,118.589l34.073-11.254c0,0-51.139,158.889-50.417,158.329
			s-17.402-15.051-17.402-15.051L253.924,118.589z"/>
	</g>
	<g id="movement_14_">
		<g>
			<path fill="#2C2C2C" d="M149.076,151.902c22.797-0.994,45.595-1.987,68.391-2.98c3.175-0.137,6.349-0.276,9.522-0.415
				c2.308-0.101,4.56,0.298,6.859,0.566c3.705,0.432,7.525,1.312,11.25,0.9c4.624-0.511,9.246-1.02,13.869-1.53
				c0.561-0.061,1.036-0.854,1.585-0.915c-5.204,0.574-10.405,1.147-15.609,1.722c-2.104,0.232-4.718-0.534-6.809-0.779
				c-2.694-0.313-5.391-0.627-8.086-0.941c-2.341-0.272-5.014,0.216-7.359,0.318c-6.084,0.266-12.17,0.53-18.253,0.795
				c-17.926,0.781-35.852,1.562-53.776,2.343C150.115,151.012,149.61,151.879,149.076,151.902L149.076,151.902z"/>
		</g>
	</g>
</g>
</svg>
