<?xml version="1.0" encoding="utf-8"?>
<!-- Generator: Adobe Illustrator 14.0.0, SVG Export Plug-In . SVG Version: 6.00 Build 43363)  -->
<!DOCTYPE svg PUBLIC "-//W3C//DTD SVG 1.1//EN" "http://www.w3.org/Graphics/SVG/1.1/DTD/svg11.dtd">
<svg name="14" version="1.1" xmlns="http://www.w3.org/2000/svg" xmlns:xlink="http://www.w3.org/1999/xlink" x="0px" y="0px" width="300px"
	 height="300px" viewBox="0 0 300 300" enable-background="new 0 0 300 300" xml:space="preserve">
<g id="cluster_fourteen">
	<g id="color_emphasis_13_">
		<path fill="none" stroke="#D1D5D7" stroke-width="4" d="M181.059,293.252c-10.013,2.161-20.402,3.298-31.06,3.298
			c-80.937,0-146.55-65.612-146.55-146.55c0-11.577,1.341-22.837,3.878-33.639"/>
		<path fill="none" stroke="#B09122" stroke-width="4" d="M264.872,58.985C284.705,83.986,296.55,115.608,296.55,150
			c0,70.283-49.473,129.007-115.491,143.252"/>
		<path fill="none" stroke="#C0251E" stroke-width="4" d="M7.327,116.361C22.53,51.638,80.638,3.449,149.999,3.449
			c46.548,0,88.026,21.701,114.873,55.536"/>
	</g>
	<g id="rhythm_12_" opacity="0.92">
		<g>
			<path fill="#FFFFFF" stroke="#2C2C2C" d="M151.979,148.709c10.872-31.541,21.743-63.081,32.614-94.621
				c-0.166,0.48-2.618,1.413-2.974,2.441c-10.872,31.541-21.743,63.082-32.613,94.622
				C149.171,150.671,151.626,149.738,151.979,148.709L151.979,148.709z"/>
		</g>
		<g>
			<path fill="#FFFFFF" stroke="#2C2C2C" d="M151.514,154.186c30.485,13.643,60.972,27.281,91.463,40.924
				c-0.469-0.212-1.181-2.735-2.177-3.182c-30.484-13.643-60.97-27.283-91.455-40.925
				C149.811,151.211,150.521,153.74,151.514,154.186L151.514,154.186z"/>
		</g>
		<g>
			<path fill="#FFFFFF" stroke="#2C2C2C" d="M149.132,154.542c13.685,25.894,27.371,51.783,41.058,77.677
				c-0.21-0.397,0.663-2.526,0.214-3.372c-13.682-25.891-27.365-51.78-41.049-77.674
				C149.564,151.568,148.688,153.698,149.132,154.542L149.132,154.542z"/>
		</g>
		<g>
			<path fill="#FFFFFF" stroke="#2C2C2C" d="M145.837,151.998c-23.145,20.684-46.286,41.37-69.432,62.057
				c0.354-0.319,2.769,0.036,3.522-0.641c23.145-20.682,46.289-41.367,69.435-62.047
				C149.008,151.684,146.594,151.324,145.837,151.998L145.837,151.998z"/>
		</g>
		<g>
			<path fill="#FFFFFF" stroke="#2C2C2C" d="M146.872,148.869c-28.55-7.791-57.104-15.581-85.657-23.374
				c0.439,0.118,1.403,2.234,2.337,2.487c28.553,7.794,57.105,15.587,85.654,23.382
				C148.768,151.246,147.804,149.129,146.872,148.869L146.872,148.869z"/>
		</g>
		<g>
			<path fill="#FFFFFF" stroke="#2C2C2C" d="M148.602,147.267c-21.659-29.058-43.324-58.12-64.986-87.181
				c0.333,0.444-0.331,3.213,0.378,4.161c21.661,29.063,43.321,58.125,64.979,87.187
				C148.637,150.989,149.305,148.22,148.602,147.267L148.602,147.267z"/>
		</g>
	</g>
	<g id="pattern_balance_10_">
		<g id="pattern_lines_out_12_">
			<g>
				<path fill="#FFFFFF" stroke="#2C2C2C" d="M150.758,148.768c0-25.084,0-50.167,0-75.25c0,0.383-1.516,1.646-1.516,2.465
					c0,25.084,0,50.167,0,75.25C149.242,150.85,150.758,149.586,150.758,148.768L150.758,148.768z"/>
			</g>
			<g>
				<path fill="#FFFFFF" stroke="#2C2C2C" d="M151.954,150.226c15.455-19.758,30.91-39.513,46.365-59.27
					c-0.236,0.301-2.207,0.363-2.713,1.008c-15.455,19.756-30.91,39.513-46.364,59.269
					C149.478,150.931,151.45,150.87,151.954,150.226L151.954,150.226z"/>
			</g>
			<g>
				<path fill="#FFFFFF" stroke="#2C2C2C" d="M152.134,151.164c21.051-13.643,42.099-27.283,63.148-40.926
					c-0.322,0.207-2.205-0.375-2.893,0.069c-21.05,13.642-42.1,27.283-63.147,40.925
					C149.563,151.024,151.448,151.609,152.134,151.164L152.134,151.164z"/>
			</g>
			<g>
				<path fill="#FFFFFF" stroke="#2C2C2C" d="M151.997,152.11c24.348-6.038,48.691-12.076,73.039-18.115
					c-0.373,0.092-1.963-1.072-2.758-0.876c-24.346,6.037-48.691,12.075-73.036,18.113
					C149.614,151.141,151.204,152.308,151.997,152.11L151.997,152.11z"/>
			</g>
			<g>
				<path fill="#FFFFFF" stroke="#2C2C2C" d="M151.561,152.96c24.985,2.227,49.969,4.45,74.956,6.675
					c-0.383-0.036-1.507-1.653-2.322-1.727c-24.984-2.227-49.969-4.451-74.952-6.676
					C149.624,151.267,150.747,152.888,151.561,152.96L151.561,152.96z"/>
			</g>
			<g>
				<path fill="#FFFFFF" stroke="#2C2C2C" d="M150.003,154.022c18.307,17.147,36.615,34.292,54.926,51.441
					c-0.281-0.265-0.168-2.231-0.767-2.792c-18.306-17.147-36.612-34.292-54.92-51.439
					C149.522,151.493,149.407,153.464,150.003,154.022L150.003,154.022z"/>
			</g>
			<g>
				<path fill="#FFFFFF" stroke="#2C2C2C" d="M148.122,153.899c3.854,24.785,7.711,49.57,11.566,74.358
					c-0.059-0.381,1.242-1.861,1.115-2.671c-3.854-24.785-7.709-49.568-11.562-74.354
					C149.302,151.611,147.997,153.091,148.122,153.899L148.122,153.899z"/>
			</g>
			<g>
				<path fill="#FFFFFF" stroke="#2C2C2C" d="M147.313,153.389c-4.434,24.688-8.863,49.378-13.295,74.069
					c0.068-0.38,1.781-1.355,1.924-2.162c4.434-24.688,8.865-49.375,13.3-74.063C149.175,151.61,147.46,152.583,147.313,153.389
					L147.313,153.389z"/>
			</g>
			<g>
				<path fill="#FFFFFF" stroke="#2C2C2C" d="M146.716,152.643c-12.236,21.896-24.47,43.795-36.705,65.694
					c0.188-0.337,2.125-0.701,2.523-1.417c12.236-21.896,24.471-43.792,36.708-65.688
					C149.056,151.567,147.116,151.929,146.716,152.643L146.716,152.643z"/>
			</g>
			<g>
				<path fill="#FFFFFF" stroke="#2C2C2C" d="M146.382,150.786c-23.128,9.707-46.256,19.418-69.387,29.128
					c0.355-0.151,2.105,0.757,2.86,0.438c23.128-9.706,46.258-19.415,69.387-29.12C148.888,151.382,147.138,150.472,146.382,150.786
					L146.382,150.786z"/>
			</g>
			<g>
				<path fill="#FFFFFF" stroke="#2C2C2C" d="M146.683,149.878c-25.027,1.642-50.059,3.286-75.09,4.928
					c0.385-0.026,1.742,1.402,2.561,1.348c25.029-1.641,50.06-3.282,75.089-4.921C148.858,151.259,147.501,149.828,146.683,149.878
					L146.683,149.878z"/>
			</g>
			<g>
				<path fill="#FFFFFF" stroke="#2C2C2C" d="M148.061,148.589c-20.724-14.128-41.452-28.256-62.179-42.385
					c0.318,0.216,0.508,2.178,1.186,2.639c20.727,14.13,41.451,28.259,62.175,42.39
					C148.923,151.018,148.735,149.054,148.061,148.589L148.061,148.589z"/>
			</g>
			<g>
				<path fill="#FFFFFF" stroke="#2C2C2C" d="M149.94,148.423c-7.619-23.896-15.24-47.797-22.859-71.694
					c0.117,0.364-0.941,2.026-0.691,2.808c7.619,23.899,15.236,47.798,22.853,71.696
					C149.124,150.866,150.185,149.205,149.94,148.423L149.94,148.423z"/>
			</g>
		</g>
		<g id="pattern_radial_13_">
			<polygon fill="none" stroke="#2C2C2C" stroke-width="0.84" points="114.753,140.105 119.181,130.736 127.247,122.282 
				139.718,116.361 150.758,115.215 162.781,117.368 170.862,123.594 177.225,133.097 181.059,144.902 182.263,156.155 
				179.337,165.57 173.78,174.654 162.496,181.198 154.35,184.084 140.79,184.084 131.194,180.421 123.424,174.546 116.613,165.717 
				114.337,153.016 			"/>
			<path fill="none" stroke="#2C2C2C" stroke-width="0.84" d="M126.04,151.232v-6.193l3.586-7.182l4.393-6.488l8.048-2.65
				l8.691-1.004l5.979,1.004l7.206,3.721l5.065,5.981l4.771,7.247l-2.239,10.594l-1.772,4.953l-3.721,5.758l-6.768,2.982
				l-7.105,5.663l-8.296-3.102c0,0-5.782-1.341-5.715-1.462s-6.707-6.205-6.707-6.205l-2.237-5.215L126.04,151.232z"/>
			<polygon fill="none" stroke="#2C2C2C" stroke-width="0.84" points="136.1,145.93 138.164,141.843 141.63,138.43 146.223,136.762 
				150,136.762 154.463,136.762 158.622,139.242 162.843,144.224 164.087,148.835 164.087,152.555 160.812,157.465 158.96,160.334 
				155.944,163.644 151.172,163.644 147.013,163.644 142.981,162.436 138.164,159.635 136.1,155.102 136.1,151.003 			"/>
			<path fill="none" stroke="#2C2C2C" stroke-width="0.84" d="M105.21,138.43c0.173-0.882,6.283-12.935,6.283-12.935
				s12.915-10.686,12.297-11.515s12.689-7.776,12.689-7.776l13.613-0.444l13.049,4.376l13.943,5.503l8.444,12.076l4.754,14.9
				l0.251,13.54l-2.654,12.091l-7.474,12.175l-11.569,9.324l-14.374,3.72l-12.833,0.154l-15.278-4.53l-10.993-9.851l-6.866-10.904
				c0,0-3.883-12.66-3.282-14.217S105.21,138.43,105.21,138.43z"/>
			<path fill="none" stroke="#2C2C2C" stroke-width="0.84" d="M97.492,135.395c0.042,0.012,7.068-14.625,6.72-14.863
				s13.982-10.396,13.982-10.396l15.824-11.648h15.344c0,0,16.128,4.833,16.37,4.132s17.583,7.517,17.583,7.517l10.698,12.08
				l5.183,18.188l-0.877,15.751l-5.539,16.495l-7.715,12.135l-11.285,12.606l-18.133,4.892l-17.256,0.807l-15.121-5.383
				l-15.157-11.992l-8.607-15.251l-3.419-18.331L97.492,135.395z"/>
			<path fill="none" stroke="#2C2C2C" stroke-width="0.84" d="M202.337,175.618c0.115-0.851,4.779-19.231,4.779-19.231l0.474-19.625
				l-5.253-19.939l-11.803-14.203l-20.766-6.654l-19.011-3.5h-18.659l-17.762,8.834l-13.554,15.062l-9.946,17.68l-1.222,21.099
				l2.639,18.369l9.833,18.187l15.116,13.769l20.961,6.001h18.912l20.97-6.001l16.452-11.845L202.337,175.618z"/>
			<polygon fill="none" stroke="#2C2C2C" stroke-width="0.84" points="129.626,84.712 148.972,81.965 171.905,84.712 
				193.174,97.533 209.508,113.98 215.282,134.854 216.899,157.258 210.455,178.348 198.319,199.273 181.059,211.465 
				159.448,216.87 137.455,216.87 116.294,210.192 97.602,195.109 87.229,175.618 81.55,154.152 84.737,131.914 93.304,111.264 
				109.396,94.671 			"/>
			<polygon fill="none" stroke="#2C2C2C" stroke-width="0.84" points="105.146,89.574 126.499,78.498 150,74.75 173.78,79.271 
				196.653,90.956 213.852,110.172 222.278,133.119 225.25,158.535 217.786,182.711 204.162,202.672 184.175,217.06 159.221,225.25 
				136.1,223.965 113.118,214.055 95.272,199.702 81.55,178.348 74.153,156.153 77.243,130.736 87.86,107.553 			"/>
		</g>
	</g>
	<g id="contrast_13_" opacity="0.92">
		<path fill="#2C2C2C" d="M61.215,32.215c-0.03,1.206,43.932,57.359,43.932,57.359l22.443-11.25l-22.38-67.901L61.215,32.215z"/>
		<polygon fill="#2C2C2C" points="150,74.75 152.587,3.449 199.196,11.911 175.594,80.197 		"/>
		<polygon fill="#2C2C2C" points="196.653,90.956 240.7,34.888 270.151,66.068 213.852,110.172 		"/>
		<path fill="#2C2C2C" d="M223.395,133.331l70.304-12.237l1.793,46.579c0,0-69.186-8.511-70.241-9.138
			S223.395,133.331,223.395,133.331z"/>
		<polygon fill="#2C2C2C" points="242.977,195.109 282.784,212.09 257.001,250.135 204.7,204.45 		"/>
		<polygon fill="#2C2C2C" points="190.371,230.772 210.082,283.705 169.769,295.228 159.221,225.25 		"/>
		<polygon fill="#2C2C2C" points="134.415,225.25 122.587,293.252 71.593,271.965 110.83,216.87 		"/>
		<polygon fill="#2C2C2C" points="78.629,213.823 38.82,245.479 11.081,196.8 79.855,180.353 		"/>
		<polygon fill="#2C2C2C" points="72.632,155.434 3.737,159.227 6.337,115.215 62.139,126.605 		"/>
	</g>
	<g id="movement_13_">
		<line display="none" fill="none" stroke="#2C2C2C" stroke-width="2" x1="150" y1="148.632" x2="225.221" y2="148.632"/>
		<line display="none" fill="none" stroke="#2C2C2C" stroke-width="2" x1="150" y1="148.632" x2="220.282" y2="121.828"/>
		<g>
			<path fill="#FFFFFF" stroke="#2C2C2C" d="M225.694,148.526c-1.069-1.191-1.768-2.883-2.528-4.272
				c-1.472-2.691-2.894-5.412-4.312-8.133c-1.98-3.799-3.94-7.61-5.88-11.431c-0.104-0.204-0.908-0.121-0.959,0.105
				c-1.637,7.39-3.273,14.779-4.91,22.169c0.319-0.035,0.64-0.07,0.959-0.105c-3.575-4.916-7.15-9.831-10.726-14.746
				c-0.144-0.197-0.87-0.131-0.959,0.105c-2.151,5.733-4.303,11.466-6.455,17.199c0.319-0.035,0.64-0.07,0.959-0.105
				c-3.961-4.104-7.922-8.207-11.882-12.311c-0.181-0.188-0.835-0.141-0.959,0.105c-1.682,3.325-3.363,6.651-5.046,9.977
				c0.274-0.06,0.548-0.119,0.821-0.18c-2.085-0.561-4.169-1.12-6.254-1.681c-1.279-0.345-3.513-1.48-4.874-1.177
				c-1.86,0.414-3.747,1.454-5.517,2.147c-1.951,0.765-3.903,1.529-5.855,2.294c-0.604,0.236,0.254,0.399,0.539,0.287
				c3.721-1.457,7.44-2.913,11.161-4.37c0.27-0.106-0.86-0.097-0.276,0.061c0.311,0.084,0.622,0.167,0.933,0.251
				c1.228,0.33,2.456,0.66,3.684,0.99c1.93,0.519,3.858,1.037,5.788,1.557c0.207,0.056,0.703,0.055,0.821-0.18
				c1.682-3.325,3.363-6.651,5.046-9.977c-0.319,0.035-0.64,0.07-0.959,0.105c3.961,4.104,7.922,8.207,11.882,12.311
				c0.167,0.173,0.862,0.152,0.959-0.105c2.151-5.733,4.303-11.466,6.455-17.199c-0.319,0.035-0.64,0.07-0.959,0.105
				c3.575,4.916,7.15,9.831,10.726,14.746c0.132,0.181,0.904,0.141,0.959-0.105c1.637-7.39,3.273-14.779,4.91-22.169
				c-0.319,0.035-0.64,0.07-0.959,0.105c1.94,3.821,3.901,7.631,5.881,11.432c1.417,2.722,2.845,5.438,4.312,8.133
				c0.757,1.39,1.46,3.081,2.527,4.271C224.947,148.96,225.872,148.725,225.694,148.526L225.694,148.526z"/>
		</g>
	</g>
</g>
</svg>
