<?xml version="1.0" encoding="utf-8"?>
<!-- Generator: Adobe Illustrator 14.0.0, SVG Export Plug-In . SVG Version: 6.00 Build 43363)  -->
<!DOCTYPE svg PUBLIC "-//W3C//DTD SVG 1.1//EN" "http://www.w3.org/Graphics/SVG/1.1/DTD/svg11.dtd">
<svg name="4" version="1.1" xmlns="http://www.w3.org/2000/svg" xmlns:xlink="http://www.w3.org/1999/xlink" x="0px" y="0px"
	 width="318.667px" height="318.668px" viewBox="0 0 318.667 318.668" enable-background="new 0 0 318.667 318.668"
	 xml:space="preserve">
<g id="cluster_four">
	<g id="color_emphasis_5_">
		<path fill="none" stroke="#8E8E8E" stroke-width="4" d="M193.586,309.822c-10.608,2.289-21.62,3.493-32.913,3.493
			c-85.769,0-155.299-69.528-155.299-155.299c0-12.268,1.422-24.2,4.109-35.646"/>
		<path fill="none" stroke="#292929" stroke-width="4" d="M282.402,61.568c21.018,26.492,33.57,60.003,33.57,96.448
			c0,74.478-52.426,136.707-122.387,151.806"/>
		<path fill="none" stroke="#6C6C6B" stroke-width="4" d="M9.482,122.37C25.593,53.782,87.17,2.716,160.673,2.716
			c49.326,0,93.281,22.996,121.729,58.853"/>
	</g>
	<g id="pattern_balance_2_">
		<g id="pattern_lines_out_3_">
			<g>
				<path fill="#FFFFFF" stroke="#2C2C2C" d="M160.836,156.847c0-47.977,0-95.952,0-143.928c0-1.357,0-2.715,0-4.072
					c0,0.383-1.516,1.646-1.516,2.465c0,47.977,0,95.952,0,143.928c0,1.357,0,2.715,0,4.072
					C159.32,158.929,160.836,157.665,160.836,156.847L160.836,156.847z"/>
			</g>
			<g>
				<path fill="#FFFFFF" stroke="#2C2C2C" d="M157.803,156.85c47.898-2.784,95.794-5.566,143.687-8.349
					c1.355-0.077,2.711-0.155,4.064-0.234c-0.381,0.021-1.732-1.42-2.547-1.37c-47.895,2.78-95.791,5.563-143.687,8.343
					c-1.355,0.079-2.709,0.158-4.065,0.237C155.638,155.455,156.988,156.895,157.803,156.85L157.803,156.85z"/>
			</g>
			<g>
				<path fill="#FFFFFF" stroke="#2C2C2C" d="M157.591,156.536c49.4,7.873,98.797,15.747,148.191,23.621
					c1.396,0.224,2.795,0.448,4.19,0.67c-0.393-0.064-1.447-1.833-2.287-1.964c-49.396-7.878-98.792-15.751-148.189-23.629
					c-1.397-0.222-2.794-0.444-4.192-0.667C155.698,154.632,156.752,156.398,157.591,156.536L157.591,156.536z"/>
			</g>
			<g>
				<path fill="#FFFFFF" stroke="#2C2C2C" d="M157.589,153.906c5.741,49.242,11.482,98.481,17.222,147.717
					c0.161,1.392,0.322,2.783,0.483,4.176c-0.045-0.394,1.399-1.875,1.299-2.712c-5.734-49.239-11.477-98.477-17.213-147.718
					c-0.162-1.393-0.325-2.782-0.488-4.178C158.938,151.585,157.496,153.067,157.589,153.906L157.589,153.906z"/>
			</g>
			<g>
				<path fill="#FFFFFF" stroke="#2C2C2C" d="M160.639,153.466c-28.226,4.964-56.451,9.928-84.676,14.892
					c-19.026,3.346-38.053,6.692-57.078,10.038c-1.336,0.233-2.67,0.467-4.008,0.702c0.377-0.065,1.885,1.208,2.687,1.062
					c47.251-8.301,94.502-16.613,141.757-24.921c1.336-0.231,2.67-0.47,4.011-0.703
					C162.953,154.601,161.444,153.329,160.639,153.466L160.639,153.466z"/>
			</g>
			<g>
				<path fill="#FFFFFF" stroke="#2C2C2C" d="M160.988,153.79c-47.935-2.017-95.871-4.032-143.802-6.048
					c-1.354-0.058-2.708-0.116-4.065-0.173c0.383,0.017,1.582,1.584,2.396,1.613c47.932,2.025,95.866,4.038,143.803,6.057
					c1.354,0.061,2.709,0.114,4.068,0.174C163.006,155.395,161.805,153.829,160.988,153.79L160.988,153.79z"/>
			</g>
			<g>
				<path fill="#FFFFFF" stroke="#2C2C2C" d="M161.168,156.453c-11.035-46.691-22.071-93.383-33.105-140.07
					c-0.313-1.317-0.622-2.637-0.936-3.958c0.089,0.372-1.097,1.952-0.903,2.741c11.026,46.691,22.062,93.382,33.097,140.073
					c0.309,1.323,0.625,2.64,0.935,3.964C160.17,158.832,161.35,157.251,161.168,156.453L161.168,156.453z"/>
			</g>
		</g>
		<g id="pattern_radial_3_">
			<polygon fill="none" stroke="#2C2C2C" stroke-width="2" points="75.964,150.214 78.987,134.026 86.982,116.398 96.361,101.268 
				110.341,90.227 124.035,78.352 141.678,73.987 160.078,73.987 177.158,73.987 195.761,79.867 212.435,87.641 224.311,101.783 
				234.484,115.126 240.358,134.026 240.358,151.732 240.358,169.695 234.484,186.387 225.278,201.259 215.639,216.171 
				200.763,226.011 184.851,233.911 166.803,237.986 150.699,241.081 132.423,237.45 116.046,228.707 102.736,216.171 
				90.712,202.811 79.778,186.312 75.963,168.357 			"/>
			<polygon fill="none" stroke="#2C2C2C" stroke-width="2" points="118.322,160.079 116.936,153.455 118.322,142.844 
				122.551,134.657 126.202,127.884 130.835,116.398 140.46,112.511 147.862,109.63 159.32,109.63 166.803,112.411 179.966,114.106 
				188.746,116.398 195.761,126.143 197.518,134.854 202.896,142.986 203.263,151.732 203.263,162.246 202.896,172.354 
				196.529,180.172 189.817,189.241 179.966,195.165 174.479,199.191 163.331,202.765 154.547,202.765 143.184,199.681 
				136.472,194.029 129.169,187.707 124.035,179.705 116.046,171.396 			"/>
			<polygon fill="none" stroke="#2C2C2C" stroke-width="2" points="64.026,104.615 75.964,84.421 93.219,68.36 112.357,57.562 
				135.647,48.473 161.314,48.473 181.805,48.473 206.293,53.416 225.278,68.176 246.665,80.719 260.134,101.438 271.671,123.647 
				275.87,148.472 271.671,173.153 266.078,197.167 255.721,219.832 238.654,237.986 219.589,256.835 195.761,265.537 
				172.817,271.061 147.862,269.322 124.035,264.356 99.904,256.109 82.476,237.986 64.026,219.472 54.078,196.882 48.166,173.246 
				47.418,147.569 54.078,125.881 			"/>
		</g>
	</g>
	<g id="rhythm_2_" opacity="0.68">
		<g>
			<path fill="#FFFFFF" stroke="#2C2C2C" d="M160.472,157.064c10.589-48.233,21.179-96.466,31.767-144.697
				c0.3-1.364,0.6-2.729,0.899-4.094c-0.085,0.385-1.845,1.33-2.024,2.152c-10.59,48.232-21.178,96.466-31.768,144.697
				c-0.299,1.364-0.599,2.729-0.898,4.094C158.532,158.832,160.291,157.887,160.472,157.064L160.472,157.064z"/>
		</g>
		<g>
			<path fill="#FFFFFF" stroke="#2C2C2C" d="M160.197,157.142c22.127-47.964,44.252-95.926,66.377-143.887
				c0.626-1.357,1.252-2.715,1.878-4.072c-0.177,0.383-2.276,0.947-2.651,1.766c-22.127,47.962-44.252,95.924-66.378,143.886
				c-0.625,1.356-1.251,2.714-1.877,4.071C157.722,158.522,159.82,157.958,160.197,157.142L160.197,157.142z"/>
		</g>
		<g>
			<path fill="#FFFFFF" stroke="#2C2C2C" d="M160.075,157.065c36.127-47.686,72.251-95.372,108.375-143.056
				c1.022-1.349,2.046-2.698,3.067-4.048c-0.289,0.38-2.748,0.496-3.362,1.31c-36.126,47.684-72.25,95.369-108.376,143.053
				c-1.021,1.35-2.043,2.699-3.065,4.049C157.001,157.992,159.458,157.877,160.075,157.065L160.075,157.065z"/>
		</g>
		<g>
			<path fill="#FFFFFF" stroke="#2C2C2C" d="M159.89,157.088c48.966-41.778,97.931-83.557,146.893-125.332
				c1.386-1.181,2.772-2.362,4.157-3.544c-0.391,0.331-3.003-0.114-3.835,0.6c-48.966,41.774-97.929,83.553-146.895,125.327
				c-1.385,1.182-2.77,2.363-4.156,3.548C156.446,157.353,159.055,157.798,159.89,157.088L159.89,157.088z"/>
		</g>
		<g>
			<path fill="#FFFFFF" stroke="#2C2C2C" d="M159.032,157.255c49.297-26.31,98.59-52.619,147.882-78.926
				c1.396-0.742,2.791-1.486,4.185-2.231c-0.392,0.208-2.525-0.655-3.362-0.206c-49.295,26.306-98.589,52.616-147.883,78.922
				c-1.395,0.745-2.788,1.488-4.184,2.234C156.063,156.838,158.192,157.701,159.032,157.255L159.032,157.255z"/>
		</g>
		<g>
			<path fill="#FFFFFF" stroke="#2C2C2C" d="M158.373,157.142c49.589-13.946,99.176-27.893,148.761-41.835
				c1.402-0.394,2.807-0.787,4.208-1.182c-0.394,0.109-2.144-1.09-2.985-0.851c-49.588,13.941-99.175,27.888-148.763,41.83
				c-1.403,0.395-2.805,0.789-4.208,1.185C155.782,156.179,157.528,157.376,158.373,157.142L158.373,157.142z"/>
		</g>
		<g>
			<path fill="#FFFFFF" stroke="#2C2C2C" d="M157.446,156.209c48.628,19.095,97.252,38.188,145.873,57.282
				c1.374,0.54,2.75,1.081,4.124,1.621c-0.386-0.152-1.064-2.193-1.893-2.516c-48.621-19.097-97.247-38.189-145.869-57.288
				c-1.375-0.539-2.75-1.079-4.127-1.619C155.942,153.844,156.621,155.881,157.446,156.209L157.446,156.209z"/>
		</g>
		<g>
			<path fill="#FFFFFF" stroke="#2C2C2C" d="M157.502,156.056c48.784,32.684,97.564,65.364,146.342,98.046
				c1.378,0.924,2.758,1.85,4.137,2.774c-0.387-0.261-0.641-2.664-1.473-3.218c-48.775-32.686-97.558-65.366-146.335-98.053
				c-1.379-0.923-2.758-1.847-4.14-2.772C156.421,153.096,156.675,155.495,157.502,156.056L157.502,156.056z"/>
		</g>
		<g>
			<path fill="#FFFFFF" stroke="#2C2C2C" d="M157.607,156.121c47.477,49.514,94.95,99.022,142.421,148.532
				c1.341,1.4,2.681,2.801,4.023,4.201c-0.377-0.394-0.063-3.2-0.874-4.039c-47.466-49.514-94.942-99.023-142.411-148.539
				c-1.341-1.397-2.685-2.798-4.029-4.201C157.115,152.473,156.804,155.275,157.607,156.121L157.607,156.121z"/>
		</g>
		<g>
			<path fill="#FFFFFF" stroke="#2C2C2C" d="M157.333,155.24c30.806,50.439,61.612,100.875,92.414,151.311
				c0.868,1.426,1.738,2.852,2.61,4.278c-0.245-0.402,0.536-2.705,0.01-3.562c-30.799-50.438-61.604-100.873-92.403-151.314
				c-0.871-1.425-1.742-2.85-2.615-4.28C157.593,152.077,156.812,154.379,157.333,155.24L157.333,155.24z"/>
		</g>
		<g>
			<path fill="#FFFFFF" stroke="#2C2C2C" d="M157.371,154.569c17.788,51.568,35.577,103.132,53.363,154.694
				c0.5,1.457,1.003,2.915,1.506,4.374c-0.143-0.411,1.02-2.333,0.714-3.208c-17.781-51.564-35.57-103.129-53.354-154.697
				c-0.502-1.457-1.006-2.913-1.51-4.376C158.231,151.77,157.073,153.689,157.371,154.569L157.371,154.569z"/>
		</g>
		<g>
			<path fill="#FFFFFF" stroke="#2C2C2C" d="M157.912,153.623c-5.062,50.433-10.124,100.86-15.187,151.286
				c-0.145,1.425-0.288,2.849-0.432,4.276c0.041-0.403,1.769-1.57,1.851-2.428c5.069-50.427,10.129-100.854,15.196-151.286
				c0.144-1.425,0.286-2.85,0.43-4.278C159.728,151.596,158.003,152.765,157.912,153.623L157.912,153.623z"/>
		</g>
		<g>
			<path fill="#FFFFFF" stroke="#2C2C2C" d="M158.198,153.491c-16.698,51.045-33.396,102.087-50.092,153.127
				c-0.474,1.441-0.946,2.884-1.419,4.328c0.134-0.408,2.188-1.224,2.467-2.092c16.705-51.039,33.399-102.081,50.102-153.125
				c0.473-1.442,0.943-2.884,1.417-4.33C160.538,151.806,158.487,152.624,158.198,153.491L158.198,153.491z"/>
		</g>
		<g>
			<path fill="#FFFFFF" stroke="#2C2C2C" d="M158.404,153.471c-29.749,50.509-59.497,101.017-89.242,151.522
				c-0.842,1.426-1.684,2.853-2.526,4.282c0.239-0.404,2.618-0.793,3.119-1.653c29.755-50.502,59.5-101.011,89.253-151.52
				c0.842-1.426,1.681-2.854,2.525-4.284C161.292,152.22,158.916,152.612,158.404,153.471L158.404,153.471z"/>
		</g>
		<g>
			<path fill="#FFFFFF" stroke="#2C2C2C" d="M158.374,153.563c-46.175,49.727-92.35,99.452-138.521,149.176
				c-1.307,1.403-2.612,2.808-3.919,4.215c0.371-0.397,3.158-0.247,3.937-1.097c46.18-49.716,92.351-99.442,138.532-149.168
				c1.307-1.402,2.609-2.81,3.918-4.219C161.951,152.867,159.166,152.721,158.374,153.563L158.374,153.563z"/>
		</g>
		<g>
			<path fill="#FFFFFF" stroke="#2C2C2C" d="M159.211,153.256c-48.463,33.604-96.925,67.21-145.382,100.812
				c-1.371,0.948-2.74,1.896-4.112,2.847c0.388-0.268,2.726,0.378,3.545-0.196c48.465-33.595,96.924-67.202,145.39-100.805
				c1.371-0.946,2.738-1.899,4.112-2.85C162.377,153.33,160.04,152.688,159.211,153.256L159.211,153.256z"/>
		</g>
		<g>
			<path fill="#FFFFFF" stroke="#2C2C2C" d="M159.93,153.252c-49.517,20.365-99.034,40.729-148.545,61.094
				c-1.4,0.573-2.799,1.148-4.201,1.725c0.396-0.162,2.343,0.865,3.182,0.515c49.518-20.354,99.031-40.722,148.551-61.085
				c1.4-0.572,2.798-1.15,4.202-1.727C162.724,153.936,160.775,152.91,159.93,153.252L159.93,153.252z"/>
		</g>
		<g>
			<path fill="#FFFFFF" stroke="#2C2C2C" d="M161.127,154.099c-49.223-12.998-98.446-25.995-147.666-38.989
				c-1.391-0.368-2.78-0.736-4.173-1.104c0.393,0.104,1.278,2.001,2.116,2.217c49.218,13.006,98.44,25.998,147.664,38.998
				c1.391,0.371,2.783,0.734,4.177,1.105C162.853,156.221,161.964,154.325,161.127,154.099L161.127,154.099z"/>
		</g>
		<g>
			<path fill="#FFFFFF" stroke="#2C2C2C" d="M161.156,154.343c-49.293-25.305-98.587-50.608-147.876-75.91
				c-1.393-0.714-2.784-1.431-4.179-2.146c0.393,0.201,0.892,2.426,1.732,2.85c49.285,25.312,98.579,50.612,147.872,75.919
				c1.392,0.72,2.787,1.43,4.183,2.15C162.495,157.001,161.993,154.78,161.156,154.343L161.156,154.343z"/>
		</g>
		<g>
			<path fill="#FFFFFF" stroke="#2C2C2C" d="M161.09,154.43C112.741,114.494,64.392,74.559,16.045,34.628
				c-1.366-1.126-2.729-2.257-4.099-3.386c0.386,0.317,0.398,2.897,1.224,3.57c48.339,39.941,96.689,79.872,145.038,119.81
				c1.365,1.134,2.734,2.257,4.103,3.394C161.926,157.693,161.908,155.116,161.09,154.43L161.09,154.43z"/>
		</g>
		<g>
			<path fill="#FFFFFF" stroke="#2C2C2C" d="M161.267,154.942C124.028,107.386,86.789,59.827,49.552,12.274
				c-1.053-1.342-2.103-2.687-3.157-4.031c0.298,0.378-0.225,2.809,0.414,3.61c37.228,47.562,74.469,95.116,111.707,142.676
				c1.051,1.349,2.106,2.689,3.159,4.04C161.38,158.188,161.896,155.759,161.267,154.942L161.267,154.942z"/>
		</g>
		<g>
			<path fill="#FFFFFF" stroke="#2C2C2C" d="M161.352,155.806c-22.603-47.007-45.206-94.015-67.808-141.019
				c-0.64-1.326-1.275-2.655-1.916-3.984c0.181,0.374-0.71,2.328-0.32,3.121c22.593,47.01,45.197,94.017,67.799,141.024
				c0.637,1.332,1.278,2.657,1.917,3.991C160.846,158.564,161.73,156.611,161.352,155.806L161.352,155.806z"/>
		</g>
	</g>
	<g id="contrast_3_">
		<polygon fill="#2C2C2C" fill-opacity="0.68" points="11.947,31.242 46.395,8.243 70.667,39.239 48.166,61.157 		"/>
		<polygon fill="#2C2C2C" fill-opacity="0.68" points="127.127,12.425 91.628,10.803 97.708,23.447 		"/>
		<polygon fill="#2C2C2C" fill-opacity="0.68" points="160.078,10.079 193.138,8.273 192.238,12.367 160.078,12.367 		"/>
		<polygon fill="#2C2C2C" fill-opacity="0.68" points="223.387,23.88 247.855,38.064 271.517,9.962 225.801,10.948 		"/>
		<polygon fill="#2C2C2C" fill-opacity="0.68" points="272.324,61.157 310.94,28.212 311.099,76.098 291.438,86.589 		"/>
		<polygon fill="#2C2C2C" fill-opacity="0.68" points="303.007,146.896 311.342,114.125 304.052,116.173 		"/>
		<polygon fill="#2C2C2C" fill-opacity="0.68" points="309.973,180.827 307.443,215.112 299.77,212.097 		"/>
		<polygon fill="#2C2C2C" fill-opacity="0.68" points="284.281,241.081 307.98,256.876 304.052,308.854 262.847,265.875 		"/>
		<polygon fill="#2C2C2C" fill-opacity="0.68" points="238.366,284.341 252.366,307.268 210.734,309.264 206.436,296.802 		"/>
		<polygon fill="#2C2C2C" fill-opacity="0.68" points="176.594,303.087 142.293,309.186 142.726,304.909 		"/>
		<polygon fill="#2C2C2C" fill-opacity="0.68" points="111.673,298.2 109.153,308.854 66.636,309.275 79.778,286.968 		"/>
		<polygon fill="#2C2C2C" fill-opacity="0.68" points="56.679,264.356 19.871,305.857 13.263,256.719 34.971,239.408 		"/>
		<polygon fill="#2C2C2C" fill-opacity="0.68" points="20.511,212.415 17.563,180.16 7.184,216.07 		"/>
		<polygon fill="#2C2C2C" fill-opacity="0.68" points="13.121,147.569 9.288,114.006 15.935,117.42 		"/>
	</g>
	<g id="movement_3_">
		<line display="none" fill="none" stroke="#2C2C2C" stroke-width="2" x1="160.078" y1="158.079" x2="310.077" y2="158.079"/>
		<line display="none" fill="none" stroke="#2C2C2C" stroke-width="2" x1="160.078" y1="158.079" x2="192.398" y2="11.603"/>
		<g>
			<g>
				<path fill="#2C2C2C" d="M311.138,157.019c-37.447-32.623-74.895-65.247-112.343-97.87c-4.49-3.912-8.98-7.824-13.472-11.736
					c-1.287-1.121-3.155,0.272-2.355,1.817c18.698,36.126,37.396,72.252,56.096,108.378c0.684-0.684,1.368-1.368,2.052-2.052
					c-23.432-14.674-46.863-29.347-70.296-44.02c-0.787-0.493-2.007-0.041-2.203,0.896c-3.075,14.672-6.151,29.344-9.227,44.016
					c-0.396,1.887,2.496,2.69,2.893,0.797c3.075-14.672,6.151-29.344,9.227-44.016c-0.734,0.299-1.469,0.598-2.203,0.896
					c23.432,14.674,46.863,29.347,70.296,44.02c1.339,0.839,2.713-0.774,2.052-2.052c-18.698-36.126-37.396-72.252-56.096-108.378
					c-0.785,0.605-1.57,1.212-2.355,1.817c37.447,32.623,74.895,65.247,112.343,97.87c4.49,3.912,8.98,7.824,13.472,11.736
					C310.468,160.404,312.599,158.291,311.138,157.019L311.138,157.019z"/>
			</g>
		</g>
	</g>
	<line fill="none" stroke="#2C2C2C" stroke-width="2" x1="93.544" y1="14.787" x2="62.032" y2="28.212"/>
</g>
</svg>
