<?xml version="1.0" encoding="utf-8"?>
<!-- Generator: Adobe Illustrator 14.0.0, SVG Export Plug-In . SVG Version: 6.00 Build 43363)  -->
<!DOCTYPE svg PUBLIC "-//W3C//DTD SVG 1.1//EN" "http://www.w3.org/Graphics/SVG/1.1/DTD/svg11.dtd">
<svg name="5" version="1.1" xmlns="http://www.w3.org/2000/svg" xmlns:xlink="http://www.w3.org/1999/xlink" x="0px" y="0px" width="300px"
	 height="300px" viewBox="0 0 300 300" enable-background="new 0 0 300 300" xml:space="preserve">
<g id="cluster_five">
	<g id="color_emphasis_4_">
		<path fill="none" stroke="#2C2C2C" stroke-width="4" d="M176.198,278.267c-9.047,1.952-18.436,2.979-28.064,2.979
			c-73.134,0-132.42-59.285-132.42-132.42c0-10.46,1.213-20.635,3.504-30.395"/>
		<path fill="none" stroke="#2C2C2C" stroke-width="4" d="M251.93,66.588c17.921,22.589,28.624,51.163,28.624,82.238
			c0,63.507-44.702,116.567-104.355,129.44"/>
		<path fill="none" stroke="#2C2C2C" stroke-width="4" d="M19.218,118.432C32.954,59.948,85.459,16.406,148.134,16.406
			c42.06,0,79.538,19.608,103.796,50.182"/>
	</g>
	<g id="rhythm_3_" opacity="0.62">
		<g>
			<path fill="#FFFFFF" stroke="#2C2C2C" d="M152.312,147.704c32.754-48.155,65.508-96.31,98.26-144.46
				c0.929-1.366,1.854-2.73,2.783-4.091c-0.261,0.385-2.648,0.617-3.207,1.44c-32.755,48.153-65.504,96.306-98.258,144.464
				c-0.928,1.361-1.852,2.723-2.782,4.083C149.37,148.761,151.755,148.527,152.312,147.704L152.312,147.704z"/>
		</g>
		<g>
			<path fill="#FFFFFF" stroke="#2C2C2C" d="M150.818,152.271c48.528,31.76,97.061,63.518,145.587,95.272
				c1.377,0.903,2.753,1.801,4.122,2.699c-0.387-0.255-0.662-2.627-1.489-3.169c-48.533-31.756-97.059-63.51-145.595-95.271
				c-1.374-0.899-2.748-1.791-4.114-2.703C149.711,149.36,149.988,151.733,150.818,152.271L150.818,152.271z"/>
		</g>
		<g>
			<path fill="#FFFFFF" stroke="#2C2C2C" d="M145.875,150.627c-39.074,48.21-78.156,96.429-117.228,144.638
				c-1.106,1.368-2.213,2.742-3.321,4.098c0.315-0.379,2.877-0.419,3.536-1.243c39.071-48.224,78.146-96.429,117.229-144.651
				c1.106-1.362,2.202-2.731,3.324-4.095C149.096,149.764,146.537,149.801,145.875,150.627L145.875,150.627z"/>
		</g>
		<g>
			<path fill="#FFFFFF" stroke="#2C2C2C" d="M146.11,149.617c-42,31.98-84.011,63.966-126.009,95.947
				c-1.189,0.907-2.38,1.82-3.569,2.718c0.337-0.251,2.462,0.233,3.171-0.315c42.004-31.992,84.003-63.968,126.015-95.958
				c1.189-0.902,2.368-1.813,3.57-2.716C148.947,149.553,146.824,149.068,146.11,149.617L146.11,149.617z"/>
		</g>
		<g>
			<path fill="#FFFFFF" stroke="#2C2C2C" d="M148.054,145.486C100.113,97.801,52.157,50.095,4.215,2.417
				C2.852,1.06,1.486-0.288,0.135-1.64c0.381,0.384,0.143,3.162,0.962,3.969c47.957,47.688,95.895,95.378,143.858,143.077
				c1.352,1.346,2.716,2.687,4.067,4.047C148.64,149.074,148.876,146.291,148.054,145.486L148.054,145.486z"/>
		</g>
	</g>
	<g id="pattern_balance_3_">
		<g id="pattern_lines_out_4_">
			<g>
				<path fill="#FFFFFF" stroke="#2C2C2C" d="M150.758,146.768c0-47.977,0-95.952,0-143.928c0-1.357,0-2.715,0-4.072
					c0,0.383-1.516,1.646-1.516,2.465c0,47.977,0,95.952,0,143.928c0,1.357,0,2.715,0,4.072
					C149.242,148.85,150.758,147.586,150.758,146.768L150.758,146.768z"/>
			</g>
			<g>
				<path fill="#FFFFFF" stroke="#2C2C2C" d="M151.041,146.966c5.718-47.635,11.435-95.269,17.152-142.901
					c0.161-1.349,0.323-2.696,0.485-4.044c-0.045,0.38-1.701,1.454-1.799,2.267c-5.717,47.635-11.435,95.269-17.152,142.902
					c-0.162,1.348-0.323,2.695-0.485,4.043C149.288,148.853,150.943,147.778,151.041,146.966L151.041,146.966z"/>
			</g>
			<g>
				<path fill="#FFFFFF" stroke="#2C2C2C" d="M151.299,147.197c11.354-46.614,22.707-93.228,34.06-139.839
					c0.322-1.32,0.643-2.64,0.964-3.958c-0.089,0.372-1.862,1.241-2.056,2.037c-11.354,46.613-22.707,93.226-34.061,139.839
					c-0.321,1.319-0.643,2.638-0.964,3.956C149.333,148.861,151.104,147.992,151.299,147.197L151.299,147.197z"/>
			</g>
			<g>
				<path fill="#FFFFFF" stroke="#2C2C2C" d="M151.526,147.457c16.828-44.929,33.656-89.857,50.482-134.782
					c0.478-1.273,0.953-2.545,1.43-3.816c-0.133,0.359-1.998,1.011-2.284,1.778c-16.829,44.928-33.655,89.854-50.483,134.783
					c-0.477,1.271-0.952,2.542-1.429,3.812C149.376,148.875,151.239,148.224,151.526,147.457L151.526,147.457z"/>
			</g>
			<g>
				<path fill="#FFFFFF" stroke="#2C2C2C" d="M151.722,147.742c22.062-42.603,44.125-85.206,66.186-127.805
					c0.627-1.208,1.25-2.414,1.875-3.619c-0.176,0.341-2.105,0.765-2.48,1.493c-22.063,42.603-44.123,85.203-66.186,127.807
					c-0.625,1.205-1.248,2.409-1.874,3.614C149.418,148.895,151.347,148.47,151.722,147.742L151.722,147.742z"/>
			</g>
			<g>
				<path fill="#FFFFFF" stroke="#2C2C2C" d="M152.005,148.372C183.522,112.2,215.04,76.029,246.556,39.86
					c0.895-1.024,1.785-2.05,2.678-3.072c-0.251,0.29-2.227,0.245-2.764,0.863c-31.519,36.171-63.033,72.341-94.551,108.515
					c-0.893,1.023-1.781,2.045-2.677,3.066C149.495,148.947,151.468,148.99,152.005,148.372L152.005,148.372z"/>
			</g>
			<g>
				<path fill="#FFFFFF" stroke="#2C2C2C" d="M152.088,148.707c35.604-32.157,71.208-64.314,106.81-96.47
					c1.01-0.91,2.016-1.822,3.023-2.73c-0.283,0.258-2.238-0.022-2.846,0.526c-35.604,32.158-71.205,64.314-106.809,96.475
					c-1.01,0.909-2.013,1.818-3.024,2.725C149.527,148.979,151.481,149.258,152.088,148.707L152.088,148.707z"/>
			</g>
			<g>
				<path fill="#FFFFFF" stroke="#2C2C2C" d="M152.13,149.05c39.184-27.684,78.366-55.37,117.546-83.053
					c1.111-0.783,2.218-1.569,3.327-2.351c-0.312,0.222-2.22-0.289-2.888,0.184c-39.185,27.686-78.362,55.37-117.546,83.058
					c-1.111,0.782-2.214,1.566-3.327,2.345C149.556,149.016,151.463,149.524,152.13,149.05L152.13,149.05z"/>
			</g>
			<g>
				<path fill="#FFFFFF" stroke="#2C2C2C" d="M152.132,149.396c42.203-22.817,84.406-45.637,126.605-68.453
					c1.197-0.646,2.389-1.294,3.584-1.938c-0.338,0.183-2.17-0.552-2.89-0.162c-42.204,22.818-84.402,45.637-126.606,68.457
					c-1.196,0.646-2.385,1.292-3.583,1.932C149.579,149.056,151.413,149.787,152.132,149.396L152.132,149.396z"/>
			</g>
			<g>
				<path fill="#FFFFFF" stroke="#2C2C2C" d="M152.092,149.74c44.622-17.625,89.243-35.253,133.861-52.877
					c1.265-0.499,2.526-1,3.79-1.497c-0.358,0.141-2.09-0.806-2.851-0.505c-44.622,17.626-89.239,35.253-133.862,52.88
					c-1.265,0.5-2.521,1-3.788,1.491C149.599,149.097,151.331,150.042,152.092,149.74L152.092,149.74z"/>
			</g>
			<g>
				<path fill="#FFFFFF" stroke="#2C2C2C" d="M152.011,150.076c46.405-12.182,92.809-24.365,139.209-36.547
					c1.315-0.345,2.628-0.691,3.941-1.035c-0.373,0.097-1.979-1.049-2.77-0.841c-46.404,12.183-92.805,24.367-139.211,36.551
					c-1.314,0.345-2.622,0.692-3.938,1.028C149.612,149.141,151.22,150.285,152.011,150.076L152.011,150.076z"/>
			</g>
			<g>
				<path fill="#FFFFFF" stroke="#2C2C2C" d="M151.892,150.4c47.525-6.564,95.051-13.131,142.571-19.696
					c1.347-0.186,2.692-0.373,4.036-0.559c-0.381,0.053-1.838-1.276-2.649-1.165c-47.524,6.567-95.046,13.135-142.575,19.701
					c-1.346,0.185-2.685,0.375-4.032,0.551C149.62,149.186,151.081,150.515,151.892,150.4L151.892,150.4z"/>
			</g>
			<g>
				<path fill="#FFFFFF" stroke="#2C2C2C" d="M151.733,150.709c47.969-0.854,95.938-1.711,143.902-2.566
					c1.36-0.022,2.719-0.049,4.074-0.073c-0.384,0.007-1.673-1.486-2.492-1.473c-47.968,0.857-95.934,1.715-143.906,2.569
					c-1.357,0.023-2.711,0.053-4.069,0.066C149.623,149.231,150.915,150.726,151.733,150.709L151.733,150.709z"/>
			</g>
			<g>
				<path fill="#FFFFFF" stroke="#2C2C2C" d="M151.54,150.995c47.729,4.869,95.459,9.735,143.183,14.602
					c1.354,0.14,2.705,0.276,4.054,0.414c-0.381-0.039-1.484-1.676-2.299-1.761c-47.729-4.864-95.455-9.729-143.188-14.598
					c-1.35-0.139-2.697-0.271-4.048-0.42C149.62,149.277,150.726,150.914,151.54,150.995L151.54,150.995z"/>
			</g>
			<g>
				<path fill="#FFFFFF" stroke="#2C2C2C" d="M151.313,151.257c46.809,10.522,93.619,21.042,140.422,31.562
					c1.328,0.3,2.654,0.597,3.977,0.894c-0.373-0.084-1.274-1.841-2.072-2.021c-46.81-10.518-93.616-21.036-140.428-31.559
					c-1.324-0.299-2.646-0.591-3.97-0.899C149.612,149.322,150.515,151.079,151.313,151.257L151.313,151.257z"/>
			</g>
			<g>
				<path fill="#FFFFFF" stroke="#2C2C2C" d="M151.058,151.489c45.221,16.026,90.445,32.05,135.66,48.071
					c1.283,0.456,2.564,0.909,3.842,1.362c-0.361-0.129-1.046-1.98-1.817-2.255c-45.222-16.021-90.44-32.043-135.665-48.068
					c-1.279-0.455-2.559-0.902-3.835-1.367C149.599,149.366,150.286,151.219,151.058,151.489L151.058,151.489z"/>
			</g>
			<g>
				<path fill="#FFFFFF" stroke="#2C2C2C" d="M150.776,151.69c42.988,21.301,85.98,42.6,128.965,63.896
					c1.22,0.606,2.438,1.208,3.651,1.811c-0.344-0.171-0.803-2.092-1.536-2.456c-42.99-21.297-85.977-42.593-128.969-63.894
					c-1.217-0.604-2.434-1.2-3.646-1.814C149.581,149.408,150.043,151.33,150.776,151.69L150.776,151.69z"/>
			</g>
			<g>
				<path fill="#FFFFFF" stroke="#2C2C2C" d="M150.152,151.985c36.726,30.867,73.455,61.736,110.179,92.6
					c1.043,0.877,2.084,1.75,3.12,2.623c-0.292-0.248-0.284-2.224-0.911-2.749c-36.73-30.866-73.454-61.729-110.186-92.6
					c-1.039-0.875-2.08-1.742-3.112-2.627C149.53,149.485,149.524,151.461,150.152,151.985L150.152,151.985z"/>
			</g>
			<g>
				<path fill="#FFFFFF" stroke="#2C2C2C" d="M149.817,152.074c32.785,35.024,65.574,70.051,98.358,105.07
					c0.932,0.995,1.86,1.986,2.786,2.977c-0.261-0.281-0.018-2.242-0.578-2.839c-32.79-35.022-65.574-70.042-98.365-105.07
					c-0.926-0.993-1.855-1.978-2.776-2.979C149.499,149.518,149.257,151.479,149.817,152.074L149.817,152.074z"/>
			</g>
			<g>
				<path fill="#FFFFFF" stroke="#2C2C2C" d="M149.476,152.122c28.377,38.683,56.758,77.367,85.135,116.045
					c0.807,1.098,1.611,2.193,2.412,3.287c-0.225-0.311,0.25-2.229-0.236-2.888c-28.383-38.681-56.759-77.357-85.143-116.045
					c-0.8-1.096-1.606-2.184-2.401-3.289C149.464,149.547,148.989,151.466,149.476,152.122L149.476,152.122z"/>
			</g>
			<g>
				<path fill="#FFFFFF" stroke="#2C2C2C" d="M149.13,152.13c23.564,41.789,47.133,83.58,70.698,125.363
					c0.67,1.186,1.339,2.37,2.004,3.551c-0.187-0.334,0.514-2.183,0.108-2.895c-23.57-41.787-47.135-83.57-70.705-125.365
					c-0.664-1.183-1.336-2.359-1.993-3.552C149.426,149.571,148.726,151.42,149.13,152.13L149.13,152.13z"/>
			</g>
			<g>
				<path fill="#FFFFFF" stroke="#2C2C2C" d="M148.786,152.097c18.416,44.299,36.836,88.601,55.254,132.895
					c0.523,1.258,1.047,2.514,1.566,3.765c-0.145-0.354,0.771-2.106,0.453-2.861c-18.422-44.298-36.84-88.592-55.262-132.897
					c-0.519-1.254-1.045-2.503-1.556-3.765C149.385,149.592,148.47,151.343,148.786,152.097L148.786,152.097z"/>
			</g>
			<g>
				<path fill="#FFFFFF" stroke="#2C2C2C" d="M148.448,152.022c13.006,46.178,26.016,92.359,39.022,138.531
					c0.37,1.312,0.741,2.621,1.106,3.926c-0.102-0.368,1.016-2,0.791-2.787c-13.012-46.178-26.02-92.352-39.029-138.536
					c-0.365-1.307-0.74-2.609-1.097-3.924C149.341,149.607,148.224,151.236,148.448,152.022L148.448,152.022z"/>
			</g>
			<g>
				<path fill="#FFFFFF" stroke="#2C2C2C" d="M148.122,151.908c7.41,47.399,14.822,94.802,22.234,142.194
					c0.211,1.347,0.424,2.691,0.631,4.029c-0.057-0.377,1.247-1.864,1.117-2.672c-7.416-47.399-14.828-94.794-22.24-142.2
					c-0.207-1.341-0.424-2.679-0.622-4.027C149.296,149.616,147.993,151.102,148.122,151.908L148.122,151.908z"/>
			</g>
			<g>
				<path fill="#FFFFFF" stroke="#2C2C2C" d="M147.812,151.757c1.709,47.944,3.418,95.892,5.13,143.83
					c0.05,1.362,0.101,2.723,0.146,4.076c-0.01-0.382,1.461-1.703,1.428-2.521c-1.715-47.945-3.426-95.885-5.135-143.837
					c-0.045-1.355-0.102-2.711-0.138-4.073C149.251,149.62,147.779,150.94,147.812,151.757L147.812,151.757z"/>
			</g>
			<g>
				<path fill="#FFFFFF" stroke="#2C2C2C" d="M147.521,151.569c-4.017,47.806-8.034,95.615-12.048,143.416
					c-0.113,1.358-0.225,2.715-0.342,4.063c0.036-0.38,1.654-1.516,1.719-2.331c4.011-47.809,8.025-95.609,12.043-143.425
					c0.117-1.351,0.223-2.703,0.349-4.061C149.205,149.618,147.587,150.755,147.521,151.569L147.521,151.569z"/>
			</g>
			<g>
				<path fill="#FFFFFF" stroke="#2C2C2C" d="M147.256,151.348c-9.686,46.986-19.372,93.977-29.054,140.959
					c-0.275,1.335-0.547,2.669-0.824,3.993c0.082-0.372,1.824-1.308,1.985-2.109c9.679-46.99,19.362-93.972,29.05-140.967
					c0.277-1.328,0.543-2.658,0.829-3.991C149.159,149.611,147.417,150.547,147.256,151.348L147.256,151.348z"/>
			</g>
			<g>
				<path fill="#FFFFFF" stroke="#2C2C2C" d="M147.019,151.097c-15.217,45.497-30.434,90.998-45.645,136.491
					c-0.434,1.293-0.861,2.586-1.295,3.867c0.125-0.359,1.967-1.082,2.223-1.858c15.209-45.502,30.423-90.994,45.642-136.5
					c0.434-1.285,0.856-2.575,1.299-3.864C149.115,149.599,147.273,150.321,147.019,151.097L147.019,151.097z"/>
			</g>
			<g>
				<path fill="#FFFFFF" stroke="#2C2C2C" d="M146.812,150.819c-20.529,43.359-41.061,86.723-61.585,130.079
					c-0.583,1.231-1.163,2.465-1.746,3.685c0.167-0.342,2.083-0.84,2.429-1.58c20.523-43.365,41.051-86.72,61.584-130.088
					c0.582-1.225,1.156-2.455,1.749-3.683C149.073,149.582,147.157,150.079,146.812,150.819L146.812,150.819z"/>
			</g>
			<g>
				<path fill="#FFFFFF" stroke="#2C2C2C" d="M146.64,150.52c-25.55,40.603-51.102,81.211-76.648,121.812
					c-0.725,1.153-1.447,2.309-2.172,3.45c0.207-0.319,2.168-0.585,2.6-1.279c25.545-40.61,51.094-81.209,76.648-121.821
					c0.725-1.146,1.439-2.3,2.175-3.448C149.032,149.561,147.071,149.825,146.64,150.52L146.64,150.52z"/>
			</g>
			<g>
				<path fill="#FFFFFF" stroke="#2C2C2C" d="M146.409,149.868C111.979,183.271,77.54,216.679,43.11,250.081
					c-0.975,0.947-1.95,1.9-2.926,2.838c0.277-0.262,2.246-0.056,2.828-0.628c34.432-33.412,68.861-66.811,103.302-100.222
					c0.976-0.943,1.94-1.894,2.928-2.837C148.962,149.503,146.993,149.296,146.409,149.868L146.409,149.868z"/>
			</g>
			<g>
				<path fill="#FFFFFF" stroke="#2C2C2C" d="M146.341,149.181c-41.357,24.306-82.726,48.615-124.08,72.921
					c-1.172,0.689-2.344,1.385-3.516,2.065c0.332-0.19,2.196,0.477,2.896,0.059c41.362-24.315,82.718-48.617,124.086-72.93
					c1.171-0.686,2.333-1.38,3.516-2.063C148.905,149.429,147.043,148.764,146.341,149.181L146.341,149.181z"/>
			</g>
			<g>
				<path fill="#FFFFFF" stroke="#2C2C2C" d="M146.368,148.836c-43.959,19.203-87.93,38.41-131.887,57.613
					c-1.246,0.545-2.492,1.096-3.736,1.632c0.353-0.148,2.123,0.735,2.867,0.404c43.965-19.214,87.924-38.413,131.895-57.623
					c1.243-0.541,2.48-1.092,3.735-1.63C148.886,149.388,147.114,148.506,146.368,148.836L146.368,148.836z"/>
			</g>
			<g>
				<path fill="#FFFFFF" stroke="#2C2C2C" d="M146.437,148.497c-45.935,13.827-91.881,27.657-137.812,41.485
					c-1.303,0.393-2.605,0.791-3.904,1.175c0.367-0.105,2.02,0.982,2.799,0.743c45.94-13.838,91.874-27.661,137.82-41.495
					c1.299-0.389,2.594-0.788,3.903-1.173C148.87,149.345,147.217,148.258,146.437,148.497L146.437,148.497z"/>
			</g>
			<g>
				<path fill="#FFFFFF" stroke="#2C2C2C" d="M146.545,148.169c-47.255,8.254-94.522,16.51-141.774,24.766
					c-1.34,0.234-2.682,0.475-4.017,0.701c0.377-0.062,1.888,1.216,2.69,1.071c47.262-8.265,94.516-16.515,141.783-24.774
					c1.336-0.232,2.67-0.475,4.015-0.7C148.86,149.3,147.348,148.023,146.545,148.169L146.545,148.169z"/>
			</g>
			<g>
				<path fill="#FFFFFF" stroke="#2C2C2C" d="M146.691,147.855c-47.901,2.563-95.816,5.127-143.716,7.693
					c-1.358,0.073-2.719,0.151-4.071,0.218c0.382-0.016,1.729,1.432,2.544,1.384c47.909-2.573,95.809-5.133,143.725-7.701
					c1.354-0.071,2.707-0.152,4.069-0.217C148.855,149.255,147.505,147.807,146.691,147.855L146.691,147.855z"/>
			</g>
			<g>
				<path fill="#FFFFFF" stroke="#2C2C2C" d="M146.874,147.562c-47.865-3.163-95.744-6.328-143.607-9.488
					c-1.359-0.089-2.719-0.174-4.069-0.269c0.38,0.03,1.547,1.627,2.361,1.676c47.874,3.155,95.737,6.322,143.618,9.483
					c1.354,0.09,2.705,0.171,4.065,0.269C148.856,149.209,147.688,147.61,146.874,147.562L146.874,147.562z"/>
			</g>
			<g>
				<path fill="#FFFFFF" stroke="#2C2C2C" d="M147.09,147.291c-47.146-8.845-94.308-17.692-141.453-26.534
					c-1.339-0.251-2.679-0.497-4.009-0.751c0.374,0.074,1.344,1.799,2.146,1.944c47.156,8.838,94.301,17.687,141.464,26.531
					c1.333,0.25,2.665,0.492,4.004,0.751C148.862,149.163,147.892,147.437,147.09,147.291L147.09,147.291z"/>
			</g>
			<g>
				<path fill="#FFFFFF" stroke="#2C2C2C" d="M147.337,147.049c-45.756-14.4-91.527-28.806-137.283-43.202
					c-1.299-0.409-2.6-0.812-3.891-1.225c0.363,0.119,1.121,1.946,1.9,2.187c45.767,14.396,91.521,28.799,137.293,43.202
					c1.295,0.406,2.588,0.806,3.886,1.222C148.874,149.119,148.116,147.288,147.337,147.049L147.337,147.049z"/>
			</g>
			<g>
				<path fill="#FFFFFF" stroke="#2C2C2C" d="M147.61,146.838c-43.713-19.751-87.441-39.509-131.155-59.255
					c-1.241-0.562-2.484-1.117-3.718-1.68c0.348,0.161,0.881,2.066,1.627,2.397c43.725,19.747,87.437,39.5,131.166,59.256
					c1.236,0.558,2.474,1.108,3.712,1.676C148.891,149.076,148.356,147.168,147.61,146.838L147.61,146.838z"/>
			</g>
			<g>
				<path fill="#FFFFFF" stroke="#2C2C2C" d="M147.907,146.661C106.86,121.842,65.798,97.013,24.749,72.198
					c-1.166-0.706-2.334-1.406-3.492-2.111c0.327,0.201,0.629,2.156,1.33,2.574c41.06,24.817,82.105,49.64,123.17,74.465
					c1.16,0.701,2.324,1.396,3.485,2.106C148.913,149.035,148.609,147.077,147.907,146.661L147.907,146.661z"/>
			</g>
			<g>
				<path fill="#FFFFFF" stroke="#2C2C2C" d="M148.224,146.521c-37.797-29.534-75.607-59.08-113.406-88.609
					c-1.074-0.84-2.15-1.674-3.217-2.512c0.302,0.238,0.369,2.215,1.014,2.714c37.811,29.534,75.605,59.071,113.42,88.613
					c1.066,0.833,2.141,1.662,3.208,2.506C148.94,148.998,148.871,147.018,148.224,146.521L148.224,146.521z"/>
			</g>
			<g>
				<path fill="#FFFFFF" stroke="#2C2C2C" d="M148.896,146.357c-29.736-37.64-59.479-75.294-89.216-112.93
					c-0.845-1.071-1.692-2.136-2.53-3.202c0.235,0.303-0.168,2.239,0.342,2.877c29.746,37.644,59.478,75.285,89.229,112.937
					c0.838,1.062,1.686,2.121,2.522,3.193C149.005,148.934,149.406,146.993,148.896,146.357L148.896,146.357z"/>
			</g>
			<g>
				<path fill="#FFFFFF" stroke="#2C2C2C" d="M149.241,146.337C124.202,105.422,99.159,64.491,74.12,23.58
					c-0.712-1.165-1.427-2.322-2.132-3.48c0.197,0.327-0.434,2.202-0.003,2.897c25.048,40.92,50.082,81.836,75.134,122.764
					c0.704,1.155,1.42,2.308,2.123,3.472C149.042,148.907,149.673,147.029,149.241,146.337L149.241,146.337z"/>
			</g>
			<g>
				<path fill="#FFFFFF" stroke="#2C2C2C" d="M149.587,146.357c-19.984-43.606-39.971-87.23-59.957-130.834
					c-0.566-1.241-1.139-2.476-1.701-3.709c0.156,0.348-0.693,2.134-0.348,2.875c19.992,43.614,39.971,87.222,59.968,130.844
					c0.561,1.23,1.134,2.46,1.693,3.699C149.083,148.887,149.933,147.097,149.587,146.357L149.587,146.357z"/>
			</g>
			<g>
				<path fill="#FFFFFF" stroke="#2C2C2C" d="M149.928,146.419c-14.646-45.677-29.291-91.371-43.938-137.047
					c-0.414-1.3-0.836-2.593-1.246-3.885c0.113,0.363-0.943,2.035-0.688,2.812c14.651,45.687,29.291,91.364,43.946,137.059
					c0.41,1.288,0.834,2.577,1.241,3.874C149.126,148.871,150.183,147.194,149.928,146.419L149.928,146.419z"/>
			</g>
			<g>
				<path fill="#FFFFFF" stroke="#2C2C2C" d="M150.259,146.521c-9.098-47.097-18.193-94.211-27.293-141.307
					c-0.256-1.341-0.521-2.674-0.774-4.006c0.069,0.375-1.179,1.908-1.019,2.711c9.102,47.106,18.193,94.203,27.299,141.318
					c0.254,1.328,0.521,2.659,0.771,3.994C149.171,148.86,150.419,147.321,150.259,146.521L150.259,146.521z"/>
			</g>
			<g>
				<path fill="#FFFFFF" stroke="#2C2C2C" d="M150.575,146.662c-3.42-47.845-6.837-95.708-10.258-143.552
					c-0.095-1.362-0.199-2.717-0.292-4.07c0.024,0.382-1.397,1.754-1.335,2.571c3.424,47.855,6.838,95.699,10.264,143.563
					c0.094,1.35,0.2,2.703,0.288,4.058C149.216,148.855,150.64,147.476,150.575,146.662L150.575,146.662z"/>
			</g>
		</g>
		<g id="pattern_radial_4_">
			<path fill="none" stroke="#2C2C2C" d="M71.831,151.861c-0.171,0.01,0-9.107,0-9.107l2.242-8.135l0.506-8.691l5.414-9.641l4-8.271
				l3.504-7.024l7.801-7.981l7.898-4.501l5.433-5.639l7.732-2.347l10.74-5.303l8.472-0.594l6.613-4.54h8.391h8.165l8.803,4.001
				l9.878,6.436l6.964,4.143l5.134,5.062l8.55,3.469l5.368,7.089l6.297,6.207l4.453,7.628l5.305,8.995l-0.273,7.749l0.273,8.667
				l0.408,8.931l-0.408,9.155l-3.176,6.697l-5.195,8.459l-2.498,5.887l-5.186,5.857l-5.754,7.416l-4.553,4.195l-6.81,6.219
				l-5.62,2.685l-8.589,5.311h-7.238h-7.616l-6.096,2.163l-8.58-2.163h-7.488h-6.296l-10.215-2.58l-6.022-3.087l-7.451-3.754
				l-6.369-2.702l-8.208-6.286l-6.54-5.231l-3.004-7.656l-6.41-8.299l-0.506-9.921L71.831,151.861z"/>
			<polygon fill="none" stroke="#2C2C2C" points="38.069,153.669 36.629,141.794 40.185,128.776 42.705,114.121 49.068,102.316 
				56.559,93.197 63.761,80.523 72.253,70.087 80.989,60.399 91.2,51.489 102.537,47.321 115.271,43.28 129.793,40.557 
				141.32,38.394 149.671,36.788 162.547,38.394 175.259,42.42 189.398,46.345 199.861,51.489 207.277,63.622 219.493,70.087 
				228.376,78.729 236.088,89.729 241.469,99.369 246.896,112.291 251.837,122.301 253.354,134.853 253.354,147.455 251.93,161.438 
				249.233,171.712 241.99,183.712 237.736,194.775 228.376,203.026 222.069,212.507 212.461,218.994 205.581,228.601 
				194.699,232.937 184.513,238.026 175.514,242.521 163.823,242.521 151.163,245.759 139.521,246.797 126.991,248.282 
				116.361,246.797 104.015,241.211 94.714,235.885 82.91,228.313 71.831,223.682 62.811,215.139 51.909,204.677 49.575,191.118 
				43.575,179.461 40.185,166.011 			"/>
			<polygon fill="none" stroke="#2C2C2C" points="104.716,150.102 104.716,146.118 106.83,141.277 108.53,134.836 110.613,130.865 
				113.617,125.928 114.771,122.301 118.584,116.173 120.056,112.291 126.991,106.493 129.793,103.164 135.132,100.269 
				142.187,99.551 145.828,101.468 150.577,99.369 156.4,102.316 161.344,99.551 167.782,99.369 172.113,102.622 179.783,104.046 
				183.727,109.66 186.322,114.121 189.398,120.006 189.398,127.525 193.132,131.899 191.572,139.69 193.132,143.61 
				193.132,148.463 193.132,155.237 193.132,159.104 189.398,165.076 185.535,167.222 181.617,172.428 179.676,176.799 
				174.704,178.661 170.698,181.052 166.715,183.314 161.93,183.712 157.262,183.314 154.516,183.005 149.002,185.153 
				144.991,185.153 140.666,183.314 137.838,183.314 133.31,179.336 130.72,178.661 126.991,177.034 122.968,174.719 
				116.361,170.748 113.562,170.198 108.53,165.364 108.53,161.438 104.716,155.476 			"/>
			<path fill="none" stroke="#2C2C2C" d="M32.614,58.113c2.203-0.202,12.044-15.474,12.044-15.474l12.833-9.537L74.12,23.58
				l16.301-9.646l15.568-4.562l15.184-5.452l17.518-2.309L150,0l16.88,2.287L186.322,3.4l17.116,5.458l16.344,7.46l13.96,11.667
				l15.491,8.803l12.688,12.719l9.814,12.016l7.696,17.321l10.312,16.522l5.418,17.128l3.338,17.651l1.211,17.924l-3.232,16.181
				l-0.766,19.462l-5.152,17.211l-8.703,14.018l-8.854,17.777l-10.463,11.741l-12.156,12.823l-13.598,11.284l-14.846,9.583
				l-15.881,7.745l-16.691,5.798l-19.012,2.41l-15.842,3.04l-17.664-0.425l-17.487-2.527l-17.062-4.594l-16.393-6.594l-15.49-8.501
				l-15.312-11.884l-12.094-10.327l-12.418-14.717l-11.85-13.407l-7.344-19.49l-5.238-14.581l-2.719-15.389L1.448,157.15l0.11-17.67
				l2.216-17.53l2.389-19.328l6.574-16.719l8.52-15.816L32.614,58.113z"/>
		</g>
	</g>
	<g id="contrast_4_">
		<polygon fill="#2C2C2C" fill-opacity="0.62" points="43.463,44.462 72.253,70.087 63.761,80.523 32.614,58.113 		"/>
		<polygon fill="#2C2C2C" fill-opacity="0.62" points="59.68,33.428 74.12,23.58 91.2,51.489 80.989,60.399 		"/>
		<polygon fill="#2C2C2C" fill-opacity="0.62" points="102.537,47.321 115.271,43.28 104.716,11.814 89.63,15.523 		"/>
		<polygon fill="#2C2C2C" fill-opacity="0.62" points="129.793,40.557 141.32,38.394 138.69,1.611 122.966,5.215 		"/>
		<polygon fill="#2C2C2C" fill-opacity="0.62" points="149.671,36.788 162.547,38.394 168.193,4.064 150.758,-1.232 		"/>
		<polygon fill="#2C2C2C" fill-opacity="0.62" points="175.259,42.42 189.398,46.345 203.438,8.858 186.322,3.4 		"/>
		<polygon fill="#2C2C2C" fill-opacity="0.62" points="200.103,54.319 208.913,64.488 233.742,27.985 219.782,16.318 		"/>
		<polygon fill="#2C2C2C" fill-opacity="0.62" points="219.493,70.087 228.376,78.729 259.075,50.033 249.233,36.788 		"/>
		<polygon fill="#2C2C2C" fill-opacity="0.62" points="236.088,89.729 241.469,99.369 279.432,78.844 273.003,63.646 		"/>
		<polygon fill="#2C2C2C" fill-opacity="0.62" points="246.896,112.291 251.837,122.301 295.712,115.407 286.893,94.861 		"/>
		<polygon fill="#2C2C2C" fill-opacity="0.62" points="253.354,134.853 253.354,147.455 299.71,148.069 298.499,130.146 		"/>
		<polygon fill="#2C2C2C" fill-opacity="0.62" points="249.233,171.712 251.93,161.438 296.386,166.574 295.712,183.712 		"/>
		<polygon fill="#2C2C2C" fill-opacity="0.62" points="237.736,194.775 241.99,183.712 290.56,200.923 281.856,214.94 		"/>
		<polygon fill="#2C2C2C" fill-opacity="0.61" points="222.069,212.507 228.376,203.026 274.475,231.002 263.451,247.208 		"/>
		<polygon fill="#2C2C2C" fill-opacity="0.62" points="205.581,228.601 212.461,218.994 248.176,257.145 234.61,268.167 		"/>
		<polygon fill="#2C2C2C" fill-opacity="0.62" points="194.699,232.937 221.94,278.149 203.438,288.756 184.513,238.026 		"/>
		<polygon fill="#2C2C2C" fill-opacity="0.61" points="163.823,242.521 175.514,242.521 187.471,290.554 170.356,294.103 		"/>
		<polygon fill="#2C2C2C" fill-opacity="0.62" points="139.521,246.797 151.163,245.759 152.941,295.587 135.474,294.985 		"/>
		<polygon fill="#2C2C2C" fill-opacity="0.62" points="116.361,246.797 128.867,248.06 119.363,294.19 101.374,287.588 		"/>
		<polygon fill="#2C2C2C" fill-opacity="0.62" points="85.909,283.003 104.015,241.211 94.714,235.885 70.419,274.502 		"/>
		<polygon fill="#2C2C2C" fill-opacity="0.62" points="43.013,252.291 71.831,223.682 82.91,228.313 57.149,264.889 		"/>
		<polygon fill="#2C2C2C" fill-opacity="0.62" points="30.595,237.574 62.811,215.139 51.909,204.677 18.745,224.167 		"/>
		<polygon fill="#2C2C2C" fill-opacity="0.62" points="13.612,208.485 49.575,191.118 43.575,179.461 7.519,191.9 		"/>
		<polygon fill="#2C2C2C" fill-opacity="0.62" points="3.444,174.707 40.185,166.011 38.069,153.669 1.448,157.15 		"/>
		<polygon fill="#2C2C2C" fill-opacity="0.62" points="36.629,141.794 40.185,128.776 3.774,121.95 1.559,139.48 		"/>
		<polygon fill="#2C2C2C" fill-opacity="0.62" points="42.705,114.121 49.223,104.046 12.737,85.903 8.063,104.809 		"/>
	</g>
	<g id="movement_4_">
		<g display="none">
			<line display="inline" fill="#ED0653" x1="149.107" y1="149.141" x2="299.243" y2="149.141"/>
			<g display="inline">
				<path fill="#2C2C2C" d="M149.107,149.19c20.796,0,41.593,0,62.389,0c27.474,0,54.948,0,82.422,0c1.774,0,3.55,0,5.325,0
					c0.064,0,0.064-0.1,0-0.1c-20.796,0-41.593,0-62.389,0c-27.474,0-54.948,0-82.422,0c-1.775,0-3.55,0-5.325,0
					C149.043,149.091,149.043,149.19,149.107,149.19L149.107,149.19z"/>
			</g>
		</g>
		<g display="none">
			<line display="inline" fill="#ED0653" x1="149.107" y1="149.141" x2="298.11" y2="130.733"/>
			<g display="inline">
				<path fill="#2C2C2C" d="M149.107,149.19c20.64-2.55,41.278-5.1,61.918-7.649c27.267-3.368,54.533-6.736,81.8-10.104
					c1.762-0.218,3.523-0.436,5.285-0.653c0.063-0.008,0.063-0.107,0-0.1c-20.64,2.55-41.278,5.1-61.918,7.648
					c-27.267,3.369-54.533,6.737-81.8,10.105c-1.762,0.218-3.523,0.436-5.285,0.653C149.044,149.099,149.044,149.198,149.107,149.19
					L149.107,149.19z"/>
			</g>
		</g>
		<g>
			<g>
				<path fill="#2C2C2C" d="M300.75,146.701c-11.891-3.352-23.781-6.703-35.672-10.055c-2.705-0.763-5.41-1.525-8.115-2.287
					c-0.638-0.18-2.331-1.021-2.988-0.753c-5.38,2.188-10.761,4.378-16.141,6.566c-5.632,2.291-11.264,4.583-16.895,6.874
					c-0.951,0.387-2.633-0.308-3.592-0.481c-3.849-0.698-7.698-1.396-11.548-2.094c-3.93-0.712-8.91-2.606-12.923-2.012
					c-6.201,0.919-12.401,1.838-18.603,2.756c-7.842,1.162-15.683,2.323-23.524,3.485c-0.76,0.112-1.09,2.537-1.5,2.598
					c12.252-1.814,24.504-3.63,36.757-5.445c3.613-0.535,6.144-0.986,9.679-0.346c7.13,1.293,14.261,2.586,21.392,3.878
					c3.689,0.669,7.062-1.652,10.479-3.043c6.988-2.844,13.978-5.687,20.967-8.53c3.736-1.521,4.171-1.636,7.993-0.559
					c6.949,1.959,13.899,3.918,20.849,5.876c7.295,2.057,14.591,4.113,21.886,6.169C299.687,149.422,300.735,146.696,300.75,146.701
					L300.75,146.701z"/>
				<g>
					<path fill="#FFFFFF" d="M300.764,146.653c-13.694-3.86-27.388-7.721-41.082-11.58c-1.214-0.342-2.439-0.645-3.617-1.097
						c-0.561-0.215-1.472-0.675-2.104-0.418c-3.288,1.337-6.575,2.675-9.863,4.013c-6.835,2.78-13.67,5.562-20.504,8.342
						c-1.789,0.729-3.083,1.392-5.087,0.893c-1.648-0.412-3.323-0.684-4.995-0.986c-3.337-0.605-6.704-1.119-10.007-1.896
						c-2.75-0.647-5.453-1.402-8.282-1.609c-3.329-0.243-6.917,0.773-10.191,1.259c-7.185,1.064-14.368,2.129-21.552,3.192
						c-3.595,0.533-7.188,1.065-10.782,1.598c-0.494,0.073-1.89-0.025-2.256,0.455c-0.51,0.667-0.606,1.936-1.227,2.446
						c-0.044,0.035,0.005,0.09,0.049,0.083c7.093-1.05,14.187-2.101,21.279-3.151c6.958-1.031,14.068-2.603,21.096-2.942
						c3.599-0.175,7.316,0.898,10.84,1.537c3.565,0.646,7.131,1.293,10.696,1.939c2.671,0.483,5.081,1.101,7.764,0.456
						c3.213-0.772,6.324-2.67,9.365-3.907c6.579-2.677,13.132-5.434,19.746-8.021c2.924-1.143,5.458-0.236,8.348,0.578
						c3.791,1.069,7.581,2.138,11.372,3.206c6.968,1.964,13.936,3.928,20.903,5.892c1.586,0.447,3.172,0.894,4.758,1.341
						c0.759,0.214,3.117,1.317,3.833,1.072c0.861-0.295,1.192-1.863,1.529-2.62c0.026-0.059-0.06-0.109-0.086-0.051
						c-0.298,0.668-0.577,1.332-0.921,1.978c-0.624,1.173-5.318-0.754-6.232-1.012c-4.123-1.162-8.246-2.324-12.37-3.487
						c-7.902-2.228-15.805-4.454-23.707-6.682c-2.113-0.596-4.083-1.272-6.262-0.719c-3.714,0.943-7.364,2.906-10.91,4.349
						c-3.646,1.483-7.293,2.967-10.939,4.45c-3.481,1.417-6.922,3.609-10.726,3.898c-2.035,0.154-4.399-0.63-6.411-0.995
						c-1.944-0.352-3.89-0.704-5.834-1.058c-3.833-0.694-7.703-1.631-11.573-2.078c-2.993-0.347-5.87,0.044-8.828,0.485
						c-4.19,0.624-8.383,1.242-12.574,1.863c-3.869,0.573-7.738,1.146-11.607,1.719c-1.935,0.287-3.869,0.573-5.804,0.86
						c-0.968,0.143-1.935,0.286-2.902,0.43c-0.782,0.115-3.077,0.045-3.669,0.532c0.42-0.346,0.654-1.623,0.859-2.039
						c0.518-1.047,5.269-1.133,6.349-1.293c4.247-0.629,8.495-1.259,12.742-1.888c5.876-0.871,11.753-1.741,17.629-2.611
						c2.982-0.442,5.997-1.127,9.021-0.905c2.784,0.203,5.526,1.095,8.231,1.731c5.092,1.198,10.37,2.059,15.518,2.976
						c1.746,0.312,4.051-1.259,5.613-1.895c2.964-1.206,5.928-2.412,8.892-3.618c5.37-2.185,10.741-4.369,16.111-6.555
						c1.223-0.497,3.146-1.644,4.485-1.422c0.987,0.163,1.997,0.697,2.965,0.97c2.718,0.766,5.435,1.532,8.152,2.298
						c11.577,3.264,23.155,6.527,34.732,9.79C300.799,146.767,300.825,146.671,300.764,146.653z"/>
				</g>
			</g>
		</g>
	</g>
</g>
</svg>
