<?xml version="1.0" encoding="utf-8"?>
<!-- Generator: Adobe Illustrator 14.0.0, SVG Export Plug-In . SVG Version: 6.00 Build 43363)  -->
<!DOCTYPE svg PUBLIC "-//W3C//DTD SVG 1.1//EN" "http://www.w3.org/Graphics/SVG/1.1/DTD/svg11.dtd">
<svg version="1.1" xmlns="http://www.w3.org/2000/svg" xmlns:xlink="http://www.w3.org/1999/xlink" x="0px" y="0px" width="1422px"
	 height="720px" viewBox="0 0 1422 720" enable-background="new 0 0 1422 720" xml:space="preserve">
<g id="rosette1">
	<g>
		
			<polygon fill="#FFFFFF" stroke="#FF1744" stroke-width="2" stroke-miterlimit="5" stroke-dasharray="9.3913,9.3913,4.6957,9.3913,4.6957,9.3913" points="
			-315.139,-642.013 -253.175,-533.421 -275.512,-410.406 -371.696,-330.526 -496.721,-331.162 -592.086,-412.013 -613.172,-535.25 
			-550.108,-643.208 -432.406,-685.371 		"/>
		<g>
			<g>
				<path fill="none" stroke="#FF1744" stroke-width="2" d="M-432.406-685.371c0.629-135.994,119.931-147.802,119.931-147.802
					s80.894,87.836-2.663,191.161"/>
			</g>
			<g>
				<path fill="none" stroke="#FF1744" stroke-width="2" d="M-315.538-642.161c87.729-103.916,186.82-36.439,186.82-36.439
					s5.701,119.276-124.68,144.931"/>
			</g>
			<g>
				<path fill="none" stroke="#FF1744" stroke-width="2" d="M-253.105-533.362c134.053-22.907,166.324,92.552,166.324,92.552
					s-72.518,94.87-188.739,30.451"/>
			</g>
			<g>
				<path fill="none" stroke="#FF1744" stroke-width="2" d="M-372.122-330.455c46.063,127.958-61.946,179.979-61.946,179.979
					s-106.118-54.754-63.081-180.473"/>
			</g>
			<g>
				<path fill="none" stroke="#FF1744" stroke-width="2" d="M-496.742-331.104c-47.169,127.556-163.3,97.791-163.3,97.791
					s-45.918-110.23,67.971-178.689"/>
			</g>
			<g>
				<path fill="none" stroke="#FF1744" stroke-width="2" d="M-592.198-411.928c-118.172,67.311-187.933-30.188-187.933-30.188
					s35.76-113.93,166.994-93.075"/>
			</g>
			<g>
				<path fill="none" stroke="#FF1744" stroke-width="2" d="M-613.292-534.924c-133.831-24.174-124.801-143.717-124.801-143.717
					s100.52-64.459,187.813,35.728"/>
			</g>
			<g>
				<path fill="none" stroke="#FF1744" stroke-width="2" d="M-550.246-642.657c-87.324-104.258-3.847-190.303-3.847-190.303
					s118.485,14.847,121.392,147.696"/>
			</g>
			<g>
				<path fill="none" stroke="#FF1744" stroke-width="2" d="M-275.521-410.359c118.044,67.531,68.444,176.225,68.444,176.225
					s-116.288,27.14-165.058-96.47"/>
			</g>
			<path fill="none" stroke="#FF1744" stroke-width="2" d="M-250.537-663.97"/>
		</g>
	</g>
	<g display="none">
		
			<line display="inline" fill="none" stroke="#494949" stroke-width="0.6942" x1="-431.5" y1="-683.779" x2="-431.5" y2="-329.248"/>
		
			<line display="inline" fill="none" stroke="#494949" stroke-width="0.6942" x1="-548.205" y1="-372.009" x2="-321.346" y2="-644.46"/>
		
			<line display="inline" fill="none" stroke="#494949" stroke-width="0.6942" x1="-589.008" y1="-603.415" x2="-281.407" y2="-427.133"/>
		<line display="inline" fill="none" stroke="#494949" stroke-width="0.6942" x1="-559" y1="-864" x2="-371.208" y2="-350.908"/>
		
			<line display="inline" fill="none" stroke="#494949" stroke-width="0.6942" x1="-272.428" y1="-603.415" x2="-580.031" y2="-427.133"/>
		
			<line display="inline" fill="none" stroke="#494949" stroke-width="0.6942" x1="-610.719" y1="-480.286" x2="-261.679" y2="-542.449"/>
		
			<line display="inline" fill="none" stroke="#494949" stroke-width="0.6942" x1="-250.719" y1="-480.287" x2="-599.758" y2="-542.449"/>
		
			<line display="inline" fill="none" stroke="#494949" stroke-width="0.6942" x1="-313.232" y1="-372.009" x2="-540.091" y2="-644.46"/>
		<line display="inline" fill="none" stroke="#494949" stroke-width="0.6942" x1="-301.666" y1="-864" x2="-490.23" y2="-350.908"/>
	</g>
</g>
<g id="rosette2">
	<polygon fill="none" stroke="#00BCD4" stroke-width="2" points="-578.493,-416.685 -578.943,-586.079 -432.468,-671.167 
		-285.543,-586.859 -285.092,-417.463 -431.568,-332.377 	"/>
	<path fill="#FFFFFF" stroke="#00BCD4" stroke-width="2" d="M-432.534-671.051c40.878-123.852,145.934-84.145,145.934-84.145
		s89.071,69.481,1.057,168.336"/>
	<path fill="#FFFFFF" stroke="#00BCD4" stroke-width="2" d="M-285.715-586.804c127.692-26.552,145.858,84.276,145.858,84.276
		s-15.611,111.883-145.235,85.117"/>
	<path fill="#FFFFFF" stroke="#00BCD4" stroke-width="2" d="M-285.202-417.273c87.179,97.005,0.53,168.455,0.53,168.455
		s-105.231,41.856-147.3-83.638"/>
	<path fill="#FFFFFF" stroke="#00BCD4" stroke-width="2" d="M-431.972-332.456c-40.977,123.817-145.999,84.028-145.999,84.028
		s-89.019-69.55-0.926-168.335"/>
	<path fill="#FFFFFF" stroke="#00BCD4" stroke-width="2" d="M-579.364-417.031c-127.842,25.815-145.367-85.116-145.367-85.116
		s16.255-111.792,145.723-84.278"/>
	<path fill="#FFFFFF" stroke="#00BCD4" stroke-width="2" d="M-578.99-585.997c-86.73-97.406,0.248-168.454,0.248-168.454
		s104.747-42.305,146.236,83.384"/>
	
		<polygon fill="#FFFFFF" stroke="#00BCD4" stroke-width="2" stroke-miterlimit="5" stroke-dasharray="9.3913,9.3913,4.6957,9.3913,4.6957,9.3913" points="
		-578.559,-416.569 -579.009,-585.963 -432.534,-671.051 -285.609,-586.743 -285.158,-417.349 -431.634,-332.262 	"/>
</g>
<g id="rosette3">
	<circle fill="#FFFFFF" stroke="#FFEB3B" stroke-width="2" cx="-432.07" cy="-501.857" r="145.085"/>
	
		<polygon fill="#FFFFFF" stroke="#FFEB3B" stroke-width="2" stroke-miterlimit="5" stroke-dasharray="9.3913,9.3913,4.6957,9.3913,4.6957,9.3913" points="
		-557.488,-430.072 -432.277,-646.942 -307.066,-430.072 	"/>
</g>
<g id="hearts">
	<rect display="none" opacity="0.18" fill="#FFEB3B" width="1422" height="729"/>
	<rect y="-1648" opacity="0.18" fill="#FFEB3B" width="3150" height="702"/>
	<g>
		<polygon fill="none" stroke="#FF1744" stroke-width="2" points="-504,72 -432,144 -360,72 -270,162 -270,198 -234,198 -144,288 
			-216,360 -144,432 -234,522 -270,522 -270,558 -360,648 -432,576 -504,648 -594,558 -594,522 -630,522 -720,432 -648,360 
			-720,288 -630,198 -594,198 -594,162 		"/>
		
			<line fill="none" stroke="#7C7C7C" stroke-width="2" stroke-miterlimit="5" stroke-dasharray="9.3913,9.3913,4.6957,9.3913,4.6957,9.3913" x1="-594" y1="198" x2="-270" y2="522"/>
		
			<line fill="none" stroke="#7C7C7C" stroke-width="2" stroke-miterlimit="5" stroke-dasharray="9.3913,9.3913,4.6957,9.3913,4.6957,9.3913" x1="-270" y1="198" x2="-594" y2="522"/>
	</g>
	<g>
		<polygon fill="none" stroke="#00BCD4" stroke-width="2" points="-495,108 -432,171 -369,108 -290.25,186.75 -290.25,218.25 
			-258.75,218.25 -180,297 -243,360 -180,423 -258.75,501.75 -290.25,501.75 -290.25,533.25 -369,612 -432,549 -495,612 
			-573.75,533.25 -573.75,501.75 -605.25,501.75 -684,423 -621,360 -684,297 -605.25,218.25 -573.75,218.25 -573.75,186.75 		"/>
		
			<line fill="none" stroke="#7C7C7C" stroke-width="2" stroke-miterlimit="5" stroke-dasharray="8.2174,8.2174,4.1087,8.2174,4.1087,8.2174" x1="-573.75" y1="218.25" x2="-290.25" y2="501.75"/>
		
			<line fill="none" stroke="#7C7C7C" stroke-width="2" stroke-miterlimit="5" stroke-dasharray="8.2174,8.2174,4.1087,8.2174,4.1087,8.2174" x1="-290.25" y1="218.25" x2="-573.75" y2="501.75"/>
	</g>
	<polygon fill="none" stroke="#FFEB3B" stroke-width="2" points="-486,144 -432,198 -378,144 -310.5,211.5 -310.5,238.5 
		-283.5,238.5 -216,306 -270,360 -216,414 -283.5,481.5 -310.5,481.5 -310.5,508.5 -378,576 -432,522 -486,576 -553.5,508.5 
		-553.5,481.5 -580.5,481.5 -648,414 -594,360 -648,306 -580.5,238.5 -553.5,238.5 -553.5,211.5 	"/>
	
		<line fill="none" stroke="#7C7C7C" stroke-width="2" stroke-miterlimit="5" stroke-dasharray="7.0435,7.0435,3.5217,7.0435,3.5217,7.0435" x1="-553.5" y1="238.5" x2="-310.5" y2="481.5"/>
	
		<line fill="none" stroke="#7C7C7C" stroke-width="2" stroke-miterlimit="5" stroke-dasharray="7.0435,7.0435,3.5217,7.0435,3.5217,7.0435" x1="-310.5" y1="238.5" x2="-553.5" y2="481.5"/>
	
		<line fill="none" stroke="#7C7C7C" stroke-width="2" stroke-miterlimit="5" stroke-dasharray="2,2,2,2,2,2" x1="-648" y1="360" x2="-216" y2="360"/>
</g>
<g id="walletOrigami">
	<rect x="-720" y="-1584" fill="none" stroke="#00BCD4" stroke-width="2" stroke-miterlimit="5" width="576" height="576"/>
	<g>
		
			<line fill="none" stroke="#00BCD4" stroke-width="2" stroke-miterlimit="5" stroke-dasharray="9.3913,9.3913,4.6957,9.3913,4.6957,9.3913" x1="-720" y1="-1440" x2="-144" y2="-1440"/>
		
			<line fill="none" stroke="#00BCD4" stroke-width="2" stroke-miterlimit="5" stroke-dasharray="9.3913,9.3913,4.6957,9.3913,4.6957,9.3913" x1="-720" y1="-1296" x2="-144" y2="-1296"/>
		
			<line fill="none" stroke="#00BCD4" stroke-width="2" stroke-miterlimit="5" stroke-dasharray="9.3913,9.3913,4.6957,9.3913,4.6957,9.3913" x1="-720" y1="-1152" x2="-144" y2="-1152"/>
	</g>
	<line fill="none" stroke="#00BCD4" stroke-width="2" stroke-miterlimit="5" x1="-576" y1="-1494" x2="-576" y2="-1386"/>
	<g>
		
			<line fill="none" stroke="#00BCD4" stroke-width="2" stroke-miterlimit="5" stroke-dasharray="9.3913,9.3913,4.6957,9.3913,4.6957,9.3913" x1="-576" y1="-1584" x2="-576" y2="-1485"/>
		
			<line fill="none" stroke="#00BCD4" stroke-width="2" stroke-miterlimit="5" stroke-dasharray="9.3913,9.3913,4.6957,9.3913,4.6957,9.3913" x1="-432" y1="-1584" x2="-432" y2="-1008"/>
		
			<line fill="none" stroke="#00BCD4" stroke-width="2" stroke-miterlimit="5" stroke-dasharray="9.3913,9.3913,4.6957,9.3913,4.6957,9.3913" x1="-288" y1="-1485" x2="-288" y2="-1584"/>
	</g>
	<line fill="none" stroke="#00BCD4" stroke-width="2" stroke-miterlimit="5" x1="-288" y1="-1386" x2="-288" y2="-1494"/>
	<g>
		
			<line fill="none" stroke="#00BCD4" stroke-width="2" stroke-miterlimit="5" stroke-dasharray="9.3913,9.3913,4.6957,9.3913,4.6957,9.3913" x1="-576" y1="-1395" x2="-576" y2="-1008"/>
		
			<line fill="none" stroke="#00BCD4" stroke-width="2" stroke-miterlimit="5" stroke-dasharray="9.3913,9.3913,4.6957,9.3913,4.6957,9.3913" x1="-288" y1="-1008" x2="-288" y2="-1395"/>
	</g>
	
		<line fill="none" stroke="#00BCD4" stroke-width="2" stroke-miterlimit="5" stroke-dasharray="9.3913,9.3913,4.6957,9.3913,4.6957,9.3913" x1="-720" y1="-1494" x2="-576" y2="-1440"/>
	
		<line fill="none" stroke="#00BCD4" stroke-width="2" stroke-miterlimit="5" stroke-dasharray="2,2,2,2,2,2" x1="-720" y1="-1386" x2="-576" y2="-1440"/>
	
		<line fill="none" stroke="#00BCD4" stroke-width="2" stroke-miterlimit="5" stroke-dasharray="9.3913,9.3913,4.6957,9.3913,4.6957,9.3913" x1="-288" y1="-1440" x2="-144" y2="-1494"/>
	
		<line fill="none" stroke="#00BCD4" stroke-width="2" stroke-miterlimit="5" stroke-dasharray="2,2,2,2,2,2" x1="-288" y1="-1440" x2="-144" y2="-1386"/>
	
		<line fill="none" stroke="#00BCD4" stroke-width="2" stroke-miterlimit="5" stroke-dasharray="2,2,2,2,2,2" x1="-576" y1="-1152" x2="-720" y2="-1062"/>
	
		<line fill="none" stroke="#00BCD4" stroke-width="2" stroke-miterlimit="5" stroke-dasharray="9.3913,9.3913,4.6957,9.3913,4.6957,9.3913" x1="-576" y1="-1152" x2="-720" y2="-1242"/>
	
		<line fill="none" stroke="#00BCD4" stroke-width="2" stroke-miterlimit="5" stroke-dasharray="9.3913,9.3913,4.6957,9.3913,4.6957,9.3913" x1="-288" y1="-1152" x2="-144" y2="-1242"/>
	
		<line fill="none" stroke="#00BCD4" stroke-width="2" stroke-miterlimit="5" stroke-dasharray="2,2,2,2,2,2" x1="-288" y1="-1152" x2="-144" y2="-1062"/>
	<path fill="none" stroke="#00BCD4" stroke-width="2" stroke-miterlimit="5" d="M-710.879-1503c3.454-3.681,2.727-10.519,0-14.2
		s-3.272-10.782,0-14.2c3.271-3.418,2.363-10.519,0-14.199c-2.363-3.682-2.545-10.256,0-14.201c2.545-3.944,3.09-10.255,0-14.2"/>
	<path fill="none" stroke="#00BCD4" stroke-width="2" stroke-miterlimit="5" d="M-439-1303.218c-6.727-3.455-19.222-2.727-25.949,0
		c-6.727,2.727-19.703,3.272-25.949,0c-6.246-3.272-19.223-2.364-25.948,0c-6.729,2.363-18.742,2.545-25.95,0
		c-7.207-2.545-18.74-3.09-25.949,0"/>
	<path fill="none" stroke="#00BCD4" stroke-width="2" stroke-miterlimit="5" d="M-294.99-1303.218
		c-6.727-3.455-19.222-2.727-25.949,0c-6.727,2.727-19.703,3.272-25.949,0c-6.246-3.272-19.223-2.364-25.948,0
		c-6.729,2.363-18.742,2.545-25.95,0c-7.207-2.545-18.74-3.09-25.949,0"/>
	<rect x="144" y="-1584" fill="#FFFFFF" stroke="#000000" stroke-width="2" stroke-miterlimit="5" width="576" height="576"/>
	<g>
		
			<line fill="none" stroke="#474747" stroke-width="2" stroke-miterlimit="5" stroke-dasharray="9.3913,9.3913,4.6957,9.3913,4.6957,9.3913" x1="144" y1="-1440" x2="720" y2="-1440"/>
		
			<line fill="none" stroke="#474747" stroke-width="2" stroke-miterlimit="5" stroke-dasharray="9.3913,9.3913,4.6957,9.3913,4.6957,9.3913" x1="144" y1="-1296" x2="720" y2="-1296"/>
		
			<line fill="none" stroke="#474747" stroke-width="2" stroke-miterlimit="5" stroke-dasharray="9.3913,9.3913,4.6957,9.3913,4.6957,9.3913" x1="144" y1="-1152" x2="720" y2="-1152"/>
	</g>
	<g>
		
			<line fill="none" stroke="#474747" stroke-width="2" stroke-miterlimit="5" stroke-dasharray="9.3913,9.3913,4.6957,9.3913,4.6957,9.3913" x1="288" y1="-1584" x2="288" y2="-1485"/>
		
			<line fill="none" stroke="#474747" stroke-width="2" stroke-miterlimit="5" stroke-dasharray="9.3913,9.3913,4.6957,9.3913,4.6957,9.3913" x1="432" y1="-1584" x2="432" y2="-1008"/>
		
			<line fill="none" stroke="#474747" stroke-width="2" stroke-miterlimit="5" stroke-dasharray="9.3913,9.3913,4.6957,9.3913,4.6957,9.3913" x1="576" y1="-1485" x2="576" y2="-1584"/>
	</g>
	<g>
		
			<line fill="none" stroke="#474747" stroke-width="2" stroke-miterlimit="5" stroke-dasharray="9.3913,9.3913,4.6957,9.3913,4.6957,9.3913" x1="288" y1="-1395" x2="288" y2="-1008"/>
		
			<line fill="none" stroke="#474747" stroke-width="2" stroke-miterlimit="5" stroke-dasharray="9.3913,9.3913,4.6957,9.3913,4.6957,9.3913" x1="576" y1="-1008" x2="576" y2="-1395"/>
	</g>
	<g>
		<g>
			<path fill="none" stroke="#999999" stroke-width="2" stroke-miterlimit="5" d="M126-1044c-29.823,0-54-32.235-54-72
				s24.177-72,54-72"/>
			<path fill="#999999" d="M124.389-1188c-4.176-4.176-6.172-12.445-6.334-18.178c5.73,7.697,13.182,14.41,22.188,18.178
				c-9.006,3.602-16.129,10.727-22.188,18.178C118.545-1175.965,120.049-1183.414,124.389-1188z"/>
		</g>
	</g>
	<g>
		<g>
			<path fill="none" stroke="#666666" stroke-width="2" stroke-miterlimit="5" d="M1503-1206c-29.823,0-54-32.235-54-72
				s24.177-72,54-72"/>
			<path fill="#666666" d="M1501.389-1350c-4.176-4.176-6.172-12.445-6.334-18.178c5.73,7.697,13.182,14.41,22.188,18.178
				c-9.006,3.602-16.129,10.727-22.188,18.178C1495.545-1337.965,1497.049-1345.414,1501.389-1350z"/>
		</g>
	</g>
	<g>
		<g>
			<path fill="none" stroke="#999999" stroke-width="2" stroke-miterlimit="5" d="M126-1548c-29.823,0-54,32.235-54,72
				s24.177,72,54,72"/>
			<path fill="#999999" d="M124.389-1404c-4.176-4.176-6.172-12.445-6.334-18.178c5.73,7.697,13.182,14.41,22.188,18.178
				c-9.006,3.602-16.129,10.727-22.188,18.178C118.545-1391.965,120.049-1399.414,124.389-1404z"/>
		</g>
	</g>
</g>
<g id="walletdetail">
	<rect x="2808" y="-1395" fill="#FFFFFF" stroke="#000000" stroke-width="2" stroke-miterlimit="5" width="288" height="144"/>
	<rect x="2808" y="-1341" fill="#FFFFFF" stroke="#000000" stroke-width="2" stroke-miterlimit="5" width="288" height="90"/>
	<polygon fill="#FFFFFF" stroke="#000000" stroke-width="2" stroke-miterlimit="5" points="2808,-1395 2952,-1341 3096,-1395 
		3096,-1251 2808,-1251 	"/>
	<polygon fill="#FFFFFF" stroke="#000000" stroke-width="2" stroke-miterlimit="5" points="2808,-1395 2952,-1305 3096,-1395 
		3096,-1251 2808,-1251 	"/>
	<line fill="none" stroke="#000000" stroke-width="2" stroke-miterlimit="5" x1="2952" y1="-1341" x2="2952" y2="-1251"/>
	
		<line fill="none" stroke="#666666" stroke-width="2" stroke-miterlimit="5" stroke-dasharray="9.3913,9.3913,4.6957,9.3913,4.6957,9.3913" x1="2952" y1="-1395" x2="2952" y2="-1341"/>
	<rect x="1656" y="-1440" fill="#FFFFFF" width="288" height="234"/>
	<rect x="3528" y="-1368" fill="#FFFFFF" stroke="#606060" stroke-width="0.6172" stroke-miterlimit="5" width="144" height="144"/>
	<rect x="2303.961" y="-1341" fill="#FFFFFF" stroke="#000000" stroke-width="2" stroke-miterlimit="5" width="288" height="90"/>
	<polygon display="none" fill="#FFFFFF" stroke="#606060" stroke-width="0.6172" stroke-miterlimit="5" points="2159.961,-1251 
		2303.961,-1251 2303.961,-1395 2159.961,-1305 	"/>
	<polyline fill="#FFFFFF" stroke="#000000" stroke-width="2" stroke-miterlimit="5" points="2303.961,-1395 2159.961,-1341 
		2159.961,-1251 2303.961,-1251 	"/>
	
		<line fill="#FFFFFF" stroke="#000000" stroke-width="2" stroke-miterlimit="5" stroke-dasharray="9.3913,9.3913,4.6957,9.3913,4.6957,9.3913" x1="2303.961" y1="-1251" x2="2303.961" y2="-1395"/>
	<polygon display="none" fill="#FFFFFF" stroke="#606060" stroke-width="0.6172" stroke-miterlimit="5" points="2735.961,-1251 
		2591.961,-1251 2591.961,-1395 2735.961,-1305 	"/>
	<polyline fill="#FFFFFF" stroke="#000000" stroke-width="2" stroke-miterlimit="5" points="2591.961,-1395 2735.961,-1341 
		2735.961,-1251 2591.961,-1251 	"/>
	
		<line fill="#FFFFFF" stroke="#000000" stroke-width="2" stroke-miterlimit="5" stroke-dasharray="9.3913,9.3913,4.6957,9.3913,4.6957,9.3913" x1="2591.961" y1="-1251" x2="2591.961" y2="-1395"/>
	
		<line fill="#FFFFFF" stroke="#000000" stroke-width="2" stroke-miterlimit="5" x1="1943.961" y1="-1295.999" x2="1655.961" y2="-1295.999"/>
	
		<line fill="#FFFFFF" stroke="#000000" stroke-width="2" stroke-miterlimit="5" x1="1655.961" y1="-1439.999" x2="1943.961" y2="-1439.999"/>
	<rect x="1655.961" y="-1295.999" fill="#FFFFFF" stroke="#000000" stroke-width="2" width="288" height="90"/>
	<polyline fill="#FFFFFF" stroke="#000000" stroke-width="2" stroke-miterlimit="5" points="1655.961,-1439.999 1511.961,-1349.999 
		1511.961,-1295.999 1655.961,-1295.999 	"/>
	<polyline fill="#FFFFFF" stroke="#000000" stroke-width="2" stroke-miterlimit="5" points="1655.961,-1151.999 1511.961,-1206 
		1511.961,-1295.999 1655.961,-1295.999 	"/>
	
		<line fill="#FFFFFF" stroke="#666666" stroke-width="2" stroke-miterlimit="5" stroke-dasharray="9.3913,9.3913,4.6957,9.3913,4.6957,9.3913" x1="1655.961" y1="-1295.999" x2="1655.961" y2="-1151.999"/>
	<polyline fill="#FFFFFF" stroke="#000000" stroke-width="0.6172" stroke-miterlimit="5" points="1943.961,-1439.999 
		2087.961,-1349.999 2087.961,-1295.999 1943.961,-1295.999 	"/>
	<polyline fill="#FFFFFF" stroke="#000000" stroke-width="2" stroke-miterlimit="5" points="1943.961,-1151.999 2087.961,-1206 
		2087.961,-1295.999 1943.961,-1295.999 	"/>
	
		<line fill="#FFFFFF" stroke="#666666" stroke-width="2" stroke-miterlimit="5" stroke-dasharray="9.3913,9.3913,4.6957,9.3913,4.6957,9.3913" x1="1943.961" y1="-1295.999" x2="1943.961" y2="-1151.999"/>
	
		<rect x="1655.961" y="-1259.999" fill="#FFFFFF" stroke="#000000" stroke-width="2" stroke-miterlimit="5" width="288" height="54"/>
	<polyline fill="#FFFFFF" stroke="#000000" stroke-width="2" stroke-miterlimit="5" points="2087.961,-1349.999 2007.062,-1310.562 
		1943.961,-1440 	"/>
	<polyline fill="#FFFFFF" stroke="#000000" stroke-width="2" stroke-miterlimit="5" points="1511.961,-1349.998 1592.86,-1310.561 
		1655.961,-1439.999 	"/>
	<rect x="936" y="-1440" fill="#FFFFFF" stroke="#000000" stroke-width="2" stroke-miterlimit="5" width="288" height="144"/>
	<rect x="936" y="-1296" fill="#FFFFFF" stroke="#000000" stroke-width="2" stroke-miterlimit="5" width="288" height="144"/>
	<rect x="792" y="-1440" fill="#FFFFFF" stroke="#000000" stroke-width="2" stroke-miterlimit="5" width="144" height="144"/>
	<rect x="792" y="-1296" fill="#FFFFFF" stroke="#000000" stroke-width="2" stroke-miterlimit="5" width="144" height="144"/>
	<rect x="1224" y="-1440" fill="#FFFFFF" stroke="#000000" stroke-width="2" stroke-miterlimit="5" width="144" height="144"/>
	<rect x="1224" y="-1296" fill="#FFFFFF" stroke="#000000" stroke-width="2" stroke-miterlimit="5" width="144" height="144"/>
	<line fill="#FFFFFF" stroke="#000000" stroke-width="2" stroke-miterlimit="5" x1="936" y1="-1152" x2="936" y2="-1206"/>
	<line fill="#FFFFFF" stroke="#000000" stroke-width="2" stroke-miterlimit="5" x1="1224" y1="-1152" x2="936" y2="-1152"/>
	<line fill="#FFFFFF" stroke="#000000" stroke-width="2" stroke-miterlimit="5" x1="1224" y1="-1206" x2="1224" y2="-1152"/>
	
		<line fill="none" stroke="#666666" stroke-width="2" stroke-miterlimit="5" stroke-dasharray="9.3913,9.3913,4.6957,9.3913,4.6957,9.3913" x1="792" y1="-1350" x2="936" y2="-1440"/>
	
		<line fill="none" stroke="#666666" stroke-width="2" stroke-miterlimit="5" stroke-dasharray="9.3913,9.3913,4.6957,9.3913,4.6957,9.3913" x1="1224" y1="-1440" x2="1368" y2="-1350"/>
	
		<line fill="none" stroke="#666666" stroke-width="2" stroke-miterlimit="5" stroke-dasharray="2,2,2,2,2,2" x1="1224" y1="-1152" x2="1368" y2="-1206"/>
	
		<line fill="none" stroke="#666666" stroke-width="2" stroke-miterlimit="5" stroke-dasharray="2,2,2,2,2,2" x1="792" y1="-1206" x2="936" y2="-1152"/>
	
		<line fill="#FFFFFF" stroke="#666666" stroke-width="2" stroke-miterlimit="5" stroke-dasharray="9.3913,9.3913,4.6957,9.3913,4.6957,9.3913" x1="936" y1="-1206" x2="1224" y2="-1206"/>
	
		<line fill="#FFFFFF" stroke="#000000" stroke-width="2" stroke-miterlimit="5" x1="2303.961" y1="-1395" x2="2591.961" y2="-1395"/>
	<rect x="2304" y="-1395" fill="#FFFFFF" width="288" height="54"/>
	<polyline fill="#FFFFFF" stroke="#000000" stroke-width="2" stroke-miterlimit="5" points="2591.961,-1395 2700.455,-1300.315 
		2735.961,-1341 	"/>
	<polyline fill="#FFFFFF" stroke="#000000" stroke-width="2" stroke-miterlimit="5" points="2303.961,-1395 2195.467,-1300.315 
		2159.961,-1341 	"/>
	
		<line fill="none" stroke="#666666" stroke-width="2" stroke-miterlimit="5" stroke-dasharray="9.3913,9.3913,4.6957,9.3913,4.6957,9.3913" x1="2448" y1="-1395" x2="2448" y2="-1341"/>
	<g>
		<path fill="none" stroke="#666666" stroke-width="2" stroke-miterlimit="5" d="M2440.966-1257.674
			c-6.634-3.455-18.958-2.727-25.593,0c-6.635,2.727-19.433,3.272-25.594,0c-6.16-3.272-18.959-2.364-25.592,0
			c-6.637,2.363-18.485,2.545-25.594,0c-7.108-2.545-18.483-3.09-25.594,0"/>
		<path fill="none" stroke="#666666" stroke-width="2" stroke-miterlimit="5" d="M2583-1257.674c-6.635-3.455-18.958-2.727-25.593,0
			c-6.635,2.727-19.433,3.272-25.594,0c-6.16-3.272-18.959-2.364-25.592,0c-6.637,2.363-18.485,2.545-25.595,0
			c-7.107-2.545-18.482-3.09-25.593,0"/>
	</g>
	<g>
		<g>
			
				<path fill="none" stroke="#666666" stroke-width="2" stroke-miterlimit="5" stroke-dasharray="9.3913,9.3913,4.6957,9.3913,4.6957,9.3913" d="
				M2196-1305c107.881,0,153-108,207-18"/>
			<path fill="#666666" d="M2402.171-1324.382c1.433-5.729,7.497-11.695,12.329-14.784c-3.652,8.875-5.575,18.717-4.172,28.378
				c-7.723-5.87-17.496-8.312-27.003-9.674C2388.844-1323.201,2396.006-1325.744,2402.171-1324.382z"/>
		</g>
	</g>
	<g>
		<g>
			
				<path fill="none" stroke="#666666" stroke-width="2" stroke-miterlimit="5" stroke-dasharray="9.3913,9.3913,4.6957,9.3913,4.6957,9.3913" d="
				M2700-1305.187c-107.881,0-153-108-207-18"/>
			<path fill="#666666" d="M2493.829-1324.568c5.729-1.433,13.847,1.11,18.847,3.921c-9.549,0.954-19.139,3.889-27.004,9.673
				c1.546-9.575-0.899-19.349-4.172-28.378C2486.516-1335.771,2492.129-1330.649,2493.829-1324.568z"/>
		</g>
	</g>
	
		<line fill="#FFFFFF" stroke="#666666" stroke-width="2" stroke-miterlimit="5" stroke-dasharray="9.3913,9.3913,4.6957,9.3913,4.6957,9.3913" x1="1655.961" y1="-1295.999" x2="1655.961" y2="-1439.999"/>
	
		<line fill="#FFFFFF" stroke="#666666" stroke-width="2" stroke-miterlimit="5" stroke-dasharray="9.3913,9.3913,4.6957,9.3913,4.6957,9.3913" x1="1943.961" y1="-1295.999" x2="1943.961" y2="-1439.999"/>
	
		<line fill="none" stroke="#666666" stroke-width="2" stroke-miterlimit="5" stroke-dasharray="9.3913,9.3913,4.6957,9.3913,4.6957,9.3913" x1="1800" y1="-1440" x2="1800" y2="-1296"/>
	<path fill="none" stroke="#666666" stroke-width="2" stroke-miterlimit="5" d="M1523.254-1216c3.455-3.681,2.727-10.519,0-14.2
		s-3.271-10.782,0-14.2c3.272-3.418,2.363-10.519,0-14.199c-2.363-3.682-2.545-10.256,0-14.201c2.545-3.944,3.09-10.255,0-14.2"/>
	<path fill="none" stroke="#666666" stroke-width="2" stroke-miterlimit="5" d="M2076.674-1216c3.455-3.681,2.727-10.519,0-14.2
		s-3.271-10.782,0-14.2c3.272-3.418,2.363-10.519,0-14.199c-2.363-3.682-2.545-10.256,0-14.201c2.545-3.944,3.09-10.255,0-14.2"/>
</g>
<g id="heatdetail">
	<polygon opacity="0.57" fill="none" stroke="#000000" stroke-width="2" points="170,482.875 44,356.875 44,328.875 114,258.875 
		170,314.875 226,258.875 296,328.875 296,356.875 	"/>
	<polygon fill="#FFFFFF" stroke="#000000" stroke-width="2" stroke-dasharray="2,2,2,2,2,9.63" points="170,482.875 44,356.875 
		44,328.875 114,258.875 170,314.875 226,258.875 296,328.875 296,356.875 	"/>
	<polygon opacity="0.5" fill="none" stroke="#000000" stroke-width="2" points="474.5,498.875 330.5,354.875 330.5,322.875 
		410.5,242.875 474.5,306.875 538.5,242.875 618.5,322.875 618.5,354.875 	"/>
	<polygon fill="#FFFFFF" stroke="#000000" stroke-width="2" stroke-dasharray="2,2,2,2,2,9.63" points="474.5,498.875 
		330.5,354.875 330.5,322.875 410.5,242.875 474.5,306.875 538.5,242.875 618.5,322.875 618.5,354.875 	"/>
	<polygon fill="#FFFFFF" stroke="#000000" stroke-width="2" stroke-dasharray="2,2,2,2,2,9.63" points="1222.5,478.875 
		1096.5,352.875 1096.5,324.875 1166.5,254.875 1222.5,310.875 1278.5,254.875 1348.5,324.875 1348.5,352.875 	"/>
	<polygon opacity="0.62" fill="#FFFFFF" stroke="#000000" stroke-width="2" stroke-dasharray="2,2,2,2,2,9.63" points="
		1222.5,496.875 1078.5,352.875 1078.5,320.875 1158.5,240.875 1222.5,304.875 1286.5,240.875 1366.5,320.875 1366.5,352.875 	"/>
	<polygon fill="none" stroke="#000000" stroke-width="2" points="1222.5,514.875 1060.5,352.875 1060.5,316.875 1150.5,226.875 
		1222.5,298.875 1294.5,226.875 1384.5,316.875 1384.5,352.875 	"/>
	<polygon fill="#FFFFFF" stroke="#000000" stroke-width="2" points="1835.846,514.875 1673.846,352.875 1673.846,316.875 
		1763.846,226.875 1835.846,298.875 1907.846,226.875 1997.846,316.875 1997.846,352.875 	"/>
	<polygon opacity="0.56" fill="none" stroke="#000000" stroke-width="2" points="819,514.875 657,352.875 657,316.875 747,226.875 
		819,298.875 891,226.875 981,316.875 981,352.875 	"/>
	<polygon fill="#FFFFFF" stroke="#000000" stroke-width="2" stroke-dasharray="2,2,2,2,2,9.63" points="819,514.875 657,352.875 
		657,316.875 747,226.875 819,298.875 891,226.875 981,316.875 981,352.875 	"/>
	<line fill="none" stroke="#000000" stroke-width="2" stroke-dasharray="2,2,2,2,2,9.63" x1="170" y1="314" x2="170" y2="482"/>
	
		<line fill="none" stroke="#000000" stroke-width="2" stroke-dasharray="2,2,2,2,2,9.63" x1="474.5" y1="306.188" x2="474.5" y2="498.188"/>
	
		<line fill="none" stroke="#000000" stroke-width="2" stroke-dasharray="2,2,2,2,2,9.63" x1="819" y1="298.875" x2="819" y2="514.875"/>
	
		<line fill="none" stroke="#000000" stroke-width="2" stroke-dasharray="2,2,2,2,2,9.63" x1="1222.5" y1="298.875" x2="1222.5" y2="514.875"/>
	
		<line fill="none" stroke="#000000" stroke-width="2" stroke-dasharray="2,2,2,2,2,9.63" x1="1222.5" y1="304.875" x2="1222.5" y2="496.875"/>
	
		<line fill="none" stroke="#000000" stroke-width="2" stroke-dasharray="2,2,2,2,2,9.63" x1="1222.5" y1="307.669" x2="1222.5" y2="478.875"/>
	<line fill="none" stroke="#000000" x1="1818" y1="324" x2="1854" y2="324"/>
	<g>
		
			<radialGradient id="SVGID_1_" cx="14646.2812" cy="13585.6562" r="337.7347" gradientTransform="matrix(0.1637 -0.1277 0.0776 -0.1234 -1660.6918 3904.5852)" gradientUnits="userSpaceOnUse">
			<stop  offset="0" style="stop-color:#7B7B7B"/>
			<stop  offset="0.0932" style="stop-color:#919191"/>
			<stop  offset="0.2861" style="stop-color:#B8B8B8"/>
			<stop  offset="0.4767" style="stop-color:#D7D7D7"/>
			<stop  offset="0.6619" style="stop-color:#EDEDED"/>
			<stop  offset="0.8391" style="stop-color:#FAFAFA"/>
			<stop  offset="1" style="stop-color:#FFFFFF"/>
		</radialGradient>
		<path fill="url(#SVGID_1_)" d="M1846.494,314.629c14.486-23.017,1.43-22.311-29.127,1.5
			c-30.564,23.826-67.06,61.771-81.542,84.787c-14.479,22.997-1.429,22.322,29.115-1.482
			C1795.518,375.599,1832.018,337.641,1846.494,314.629z"/>
	</g>
	<g>
		
			<radialGradient id="SVGID_2_" cx="29621.8984" cy="-26065.2852" r="462.4397" gradientTransform="matrix(-0.1457 -0.0871 -0.1166 -0.0165 3151.4688 2477.3638)" gradientUnits="userSpaceOnUse">
			<stop  offset="0" style="stop-color:#7B7B7B"/>
			<stop  offset="0.0932" style="stop-color:#919191"/>
			<stop  offset="0.2861" style="stop-color:#B8B8B8"/>
			<stop  offset="0.4767" style="stop-color:#D7D7D7"/>
			<stop  offset="0.6619" style="stop-color:#EDEDED"/>
			<stop  offset="0.8391" style="stop-color:#FAFAFA"/>
			<stop  offset="1" style="stop-color:#FFFFFF"/>
		</radialGradient>
		<path fill="url(#SVGID_2_)" d="M1807.328,287.056c-29.809-4.232-23.709,10.39,13.526,32.667
			c37.241,22.272,91.558,43.746,121.366,47.97c29.775,4.24,23.717-10.395-13.516-32.655
			C1891.449,312.764,1837.119,291.282,1807.328,287.056z"/>
	</g>
	<g>
		
			<radialGradient id="SVGID_3_" cx="21559.8438" cy="16937.7188" r="544.8906" gradientTransform="matrix(0.0899 -0.0503 0.0232 -0.0478 -524.5381 2230.1724)" gradientUnits="userSpaceOnUse">
			<stop  offset="0" style="stop-color:#7B7B7B"/>
			<stop  offset="0.0932" style="stop-color:#919191"/>
			<stop  offset="0.2861" style="stop-color:#B8B8B8"/>
			<stop  offset="0.4767" style="stop-color:#D7D7D7"/>
			<stop  offset="0.6619" style="stop-color:#EDEDED"/>
			<stop  offset="0.8391" style="stop-color:#FAFAFA"/>
			<stop  offset="1" style="stop-color:#FFFFFF"/>
		</radialGradient>
		<path fill="url(#SVGID_3_)" d="M1855.658,308.622c7.003-14.408-9.272-13.75-36.344,1.405
			c-27.07,15.173-54.685,39.13-61.684,53.539c-7.008,14.39,9.267,13.762,36.328-1.403
			C1821.036,346.989,1848.657,323.023,1855.658,308.622z"/>
	</g>
	<g>
		<g>
			
				<radialGradient id="SVGID_4_" cx="15229.1094" cy="12160.9258" r="399.2754" gradientTransform="matrix(0.1882 0.1072 0.1481 0.0273 -2803.3545 -1631.4641)" gradientUnits="userSpaceOnUse">
				<stop  offset="0" style="stop-color:#00C0D9"/>
				<stop  offset="0.0866" style="stop-color:#27CADF"/>
				<stop  offset="0.2249" style="stop-color:#60D8E7"/>
				<stop  offset="0.3639" style="stop-color:#90E4EF"/>
				<stop  offset="0.5003" style="stop-color:#B8EEF4"/>
				<stop  offset="0.6338" style="stop-color:#D7F5F9"/>
				<stop  offset="0.7635" style="stop-color:#EDFBFC"/>
				<stop  offset="0.8875" style="stop-color:#FAFEFE"/>
				<stop  offset="1" style="stop-color:#FFFFFF"/>
			</radialGradient>
			<path fill="url(#SVGID_4_)" d="M1938.965,375.904c32.68,6.031,25.447-8.263-16.038-31.91
				c-41.507-23.647-101.597-47.691-134.267-53.713c-32.646-6.024-25.456,8.271,16.013,31.907
				C1846.193,345.848,1906.303,369.887,1938.965,375.904z"/>
		</g>
		<g>
			<image overflow="visible" width="93" height="73" xlink:href="2354469E.png"  transform="matrix(1 0 0 1 1837 253)">
			</image>
			<image overflow="visible" width="92" height="52" xlink:href="235446A2.png"  transform="matrix(1 0 0 1 1744 271)">
			</image>
			<image overflow="visible" width="92" height="59" xlink:href="235446A5.png"  transform="matrix(1 0 0 1 1745 264)">
			</image>
			<image overflow="visible" width="119" height="70" xlink:href="235446A6.png"  transform="matrix(1 0 0 1 1843 308)">
			</image>
			<image overflow="visible" width="87" height="75" xlink:href="235446A4.png"  transform="matrix(1 0 0 1 1841 252)">
			</image>
			<image overflow="visible" width="102" height="136" xlink:href="235446A3.png"  transform="matrix(1 0 0 1 1740 308)">
			</image>
			<image overflow="visible" width="21" height="24" xlink:href="235446AD.png"  transform="matrix(1 0 0 1 1829 304)">
			</image>
		</g>
	</g>
</g>
<g id="rosettessss">
	<rect y="-864" opacity="0.18" fill="#FFEB3B" width="1629" height="711"/>
	
		<polygon fill="#FFFFFF" stroke="#000000" stroke-width="2" stroke-miterlimit="5" stroke-dasharray="9.3913,9.3913,4.6957,9.3913,4.6957,9.3913" points="
		1063.493,-650.019 1125.457,-541.427 1103.12,-418.412 1006.936,-338.532 881.911,-339.168 786.546,-420.019 765.46,-543.255 
		828.523,-651.214 946.226,-693.377 	"/>
	<g id="foldedOuter">
		<g id="one">
			<path fill="none" stroke="#000000" stroke-width="2" d="M943.677-502.845c0,0-80.893-87.837,2.664-191.161"/>
			<path fill="none" stroke="#000000" stroke-width="2" stroke-dasharray="2,2,2,2,2,9.3913" d="M1063.608-650.647
				c-0.629,135.994-119.932,147.803-119.932,147.803"/>
		</g>
		<g id="two">
			<path fill="none" stroke="#000000" stroke-width="2" d="M938.637-505.732c0,0-5.701-119.275,124.68-144.93"/>
			<path fill="none" stroke="#000000" stroke-width="2" stroke-dasharray="2,2,2,2,2,9.3913" d="M1125.457-542.171
				c-87.729,103.915-186.82,36.438-186.82,36.438"/>
		</g>
		<g id="three">
			<path fill="none" stroke="#000000" stroke-width="2" d="M937.658-511.387c0,0,72.518-94.87,188.739-30.451"/>
			<path fill="none" stroke="#000000" stroke-width="2" stroke-dasharray="2,2,2,2,2,9.3913" d="M1103.982-418.835
				c-134.053,22.907-166.324-92.552-166.324-92.552"/>
		</g>
		<g id="four">
			<path fill="none" stroke="#000000" stroke-width="2" d="M937.255-515.428c0,0,116.288-27.14,165.058,96.47"/>
			<path fill="none" stroke="#000000" stroke-width="2" stroke-dasharray="2,2,2,2,2,9.3913" d="M1005.699-339.203
				c-118.044-67.531-68.444-176.225-68.444-176.225"/>
		</g>
		<g id="five">
			<path fill="none" stroke="#000000" stroke-width="2" d="M944.589-519.676c0,0,106.118,54.754,63.081,180.473"/>
			<path fill="none" stroke="#000000" stroke-width="2" stroke-dasharray="2,2,2,2,2,9.3913" d="M882.643-339.697
				c-46.063-127.958,61.946-179.979,61.946-179.979"/>
		</g>
		<g id="six">
			<path fill="none" stroke="#000000" stroke-width="2" d="M950.285-518.417c0,0,45.918,110.23-67.971,178.689"/>
			<path fill="none" stroke="#000000" stroke-width="2" stroke-dasharray="2,2,2,2,2,9.3913" d="M786.985-420.626
				c47.169-127.556,163.3-97.791,163.3-97.791"/>
		</g>
		<g id="seven">
			<path fill="none" stroke="#000000" stroke-width="2" d="M952.937-513.548c0,0-35.76,113.93-166.994,93.074"/>
			<path fill="none" stroke="#000000" stroke-width="2" stroke-dasharray="2,2,2,2,2,9.3913" d="M765.004-543.735
				c118.172-67.311,187.933,30.188,187.933,30.188"/>
		</g>
		<g id="eight">
			<path fill="none" stroke="#000000" stroke-width="2" d="M952.812-506.945c0,0-100.52,64.459-187.812-35.728"/>
			<path fill="none" stroke="#000000" stroke-width="2" stroke-dasharray="2,2,2,2,2,9.3913" d="M828.012-650.662
				c133.83,24.174,124.801,143.717,124.801,143.717"/>
		</g>
		<g id="nine">
			<path fill="none" stroke="#000000" stroke-width="2" d="M951.203-503.273c0,0-118.485-14.847-121.392-147.695"/>
			<path fill="none" stroke="#000000" stroke-width="2" stroke-dasharray="2,2,2,2,2,9.3913" d="M947.356-693.576
				c87.324,104.258,3.847,190.303,3.847,190.303"/>
		</g>
		<path fill="none" stroke="#000000" stroke-width="2" d="M1128.095-671.976"/>
	</g>
	
		<polygon id="hexagon" fill="#FFFFFF" stroke="#000000" stroke-width="2" stroke-dasharray="9.3913,9.3913,4.6957,9.3913,4.6957,9.3913" points="
		396.87,-430.942 396.42,-600.336 542.896,-685.423 689.82,-601.115 690.271,-431.72 543.795,-346.634 	"/>
	<g id="foldedMiddle">
		<g>
			<path fill="#FFFFFF" stroke="#000000" stroke-width="2" d="M544.111-515.48c0,0,15.611-111.883,145.235-85.117"/>
			<path fill="#FFFFFF" stroke="#000000" stroke-width="2" stroke-dasharray="2,2,2,2,2,9.39" d="M689.97-431.204
				c-127.692,26.551-145.858-84.276-145.858-84.276"/>
		</g>
		<g>
			<path fill="#FFFFFF" stroke="#000000" stroke-width="2" d="M542.971-515.088c0,0,105.231-41.857,147.301,83.636"/>
			<path fill="#FFFFFF" stroke="#000000" stroke-width="2" stroke-dasharray="2,2,2,2,2,9.3913" d="M543.501-346.634
				c-87.179-97.006-0.53-168.454-0.53-168.454"/>
		</g>
		<g>
			<path fill="#FFFFFF" stroke="#000000" stroke-width="2" d="M544.149-515.521c0,0-88.864-70.205-1.218-169.385"/>
			<path fill="#FFFFFF" stroke="#000000" stroke-width="2" stroke-dasharray="2,2,2,2,2,9.3913" d="M689.771-600.209
				c-40.42,124.001-145.622,84.688-145.622,84.688"/>
		</g>
		<g>
			<path fill="#FFFFFF" stroke="#000000" stroke-width="2" d="M542.418-514.969c0,0,89.02,69.55,0.926,168.335"/>
			<path fill="#FFFFFF" stroke="#000000" stroke-width="2" stroke-dasharray="2,2,2,2,2,9.3913" d="M396.42-430.94
				c40.977-123.817,145.998-84.028,145.998-84.028"/>
		</g>
		<g>
			<path fill="#FFFFFF" stroke="#000000" stroke-width="2" d="M542.078-515.838c0,0-16.255,111.79-145.723,84.276"/>
			<path fill="#FFFFFF" stroke="#000000" stroke-width="2" stroke-dasharray="2,2,2,2,2,9.3913" d="M396.711-600.955
				c127.843-25.815,145.367,85.117,145.367,85.117"/>
		</g>
		<g>
			<path fill="#FFFFFF" stroke="#000000" stroke-width="2" d="M542.236-517.45c0,0-104.747,42.305-146.236-83.384"/>
			<path fill="#FFFFFF" stroke="#000000" stroke-width="2" stroke-dasharray="2,2,2,2,2,9.39" d="M542.484-685.904
				c86.729,97.406-0.248,168.454-0.248,168.454"/>
		</g>
	</g>
	<g id="inner">
		
			<polygon fill="#FFFFFF" stroke="#000000" stroke-width="2" stroke-miterlimit="5" stroke-dasharray="9.3913,9.3913,4.6957,9.3913,4.6957,9.3913" points="
			72.683,-408.877 197.894,-625.749 323.104,-408.877 		"/>
		<path opacity="0.53" fill="#FFFFFF" stroke="#000000" stroke-width="2" d="M198.145-480.277c53.68,0,100.55,29.15,125.643,72.486"
			/>
		<path opacity="0.53" fill="#FFFFFF" stroke="#000000" stroke-width="2" stroke-dasharray="2,2,2,2,2,9.3913" d="M72-406.918
			c24.968-43.816,72.106-73.359,126.145-73.359"/>
		<path fill="#FFFFFF" stroke="#000000" stroke-width="2" d="M197.229-480.113c-12.222-21.262-19.211-45.914-19.211-72.197
			c0-26.09,6.887-50.57,18.941-71.725"/>
		<path fill="#FFFFFF" stroke="#000000" stroke-width="2" stroke-dasharray="2,2,2,2,2,9.3913" d="M323.104-407.225
			c-53.844,0-100.838-29.332-125.875-72.889"/>
		<path opacity="0.48" fill="#FFFFFF" stroke="#000000" stroke-width="2" d="M198.464-480.271
			c-24.949,43.885-72.125,73.482-126.214,73.482"/>
		<path opacity="0.48" fill="#FFFFFF" stroke="#000000" stroke-width="2" stroke-dasharray="2,2,2,2,2,9.3913" d="M197.893-624.472
			c12.363,21.353,19.44,46.148,19.44,72.598c0,26.039-6.859,50.477-18.869,71.603"/>
	</g>
	<g id="inner_1_">
		<polygon fill="#FFFFFF" stroke="#000000" stroke-width="2" stroke-miterlimit="5" stroke-dasharray="2,2,2,2,2,9.63" points="
			1256.912,-436.933 1382.123,-653.803 1507.334,-436.933 		"/>
		<path opacity="0.53" fill="#FFFFFF" stroke="#000000" stroke-width="2" stroke-dasharray="2,2,2,2,2,9.63" d="M1382.374-508.333
			c53.68,0,100.55,29.151,125.643,72.487"/>
		<path fill="#FFFFFF" stroke="#000000" stroke-width="2" stroke-dasharray="2,2,2,2,2,9.63" d="M1381.459-508.168
			c-12.222-21.262-19.211-45.913-19.211-72.196c0-26.09,6.887-50.57,18.941-71.725"/>
		<path opacity="0.48" fill="#FFFFFF" stroke="#000000" stroke-width="2" stroke-dasharray="2,2,2,2,2,9.63" d="M1382.693-508.326
			c-24.949,43.884-72.125,73.482-126.214,73.482"/>
	</g>
	<g id="foldedMiddle_1_" opacity="0.6">
		<g>
			<path fill="#FFFFFF" stroke="#000000" stroke-width="2" stroke-dasharray="2,2,2,2,2,9.63" d="M1380.319-513.691
				c0,0,15.611-111.883,145.235-85.117"/>
			<path fill="#FFFFFF" stroke="#000000" stroke-width="2" stroke-dasharray="2,2,2,2,2,9.63" d="M1380.319-513.691"/>
			<path fill="#FFFFFF" stroke="#000000" stroke-width="2" stroke-dasharray="2,2,2,2,2,9.63" d="M1526.178-429.414"/>
		</g>
		<g>
			<path fill="#FFFFFF" stroke="#000000" stroke-width="2" stroke-dasharray="2,2,2,2,2,9.63" d="M1379.179-513.299
				c0,0,105.231-41.857,147.301,83.637"/>
			<path fill="#FFFFFF" stroke="#000000" stroke-width="2" stroke-dasharray="2,2,2,2,2,9.63" d="M1379.179-513.299"/>
			<path fill="#FFFFFF" stroke="#000000" stroke-width="2" stroke-dasharray="2,2,2,2,2,9.63" d="M1379.709-344.844"/>
		</g>
		<g>
			<path fill="#FFFFFF" stroke="#000000" stroke-width="2" stroke-dasharray="2,2,2,2,2,9.63" d="M1380.357-513.732
				c0,0-88.864-70.205-1.218-169.385"/>
			<path fill="#FFFFFF" stroke="#000000" stroke-width="2" stroke-dasharray="2,2,2,2,2,9.63" d="M1380.357-513.732"/>
			<path fill="#FFFFFF" stroke="#000000" stroke-width="2" stroke-dasharray="2,2,2,2,2,9.63" d="M1525.979-598.42"/>
		</g>
		<g>
			<path fill="#FFFFFF" stroke="#000000" stroke-width="2" stroke-dasharray="2,2,2,2,2,9.63" d="M1378.626-513.18
				c0,0,89.02,69.551,0.926,168.336"/>
			<path fill="#FFFFFF" stroke="#000000" stroke-width="2" stroke-dasharray="2,2,2,2,2,9.63" d="M1378.626-513.18"/>
			<path fill="#FFFFFF" stroke="#000000" stroke-width="2" stroke-dasharray="2,2,2,2,2,9.63" d="M1232.628-429.15"/>
		</g>
		<g>
			<path fill="#FFFFFF" stroke="#000000" stroke-width="2" stroke-dasharray="2,2,2,2,2,9.63" d="M1378.286-514.049
				c0,0-16.255,111.791-145.723,84.277"/>
			<path fill="#FFFFFF" stroke="#000000" stroke-width="2" stroke-dasharray="2,2,2,2,2,9.63" d="M1378.286-514.049"/>
			<path fill="#FFFFFF" stroke="#000000" stroke-width="2" stroke-dasharray="2,2,2,2,2,9.63" d="M1232.919-599.166"/>
		</g>
		<g>
			<path fill="#FFFFFF" stroke="#000000" stroke-width="2" stroke-dasharray="2,2,2,2,2,9.63" d="M1378.444-515.661
				c0,0-104.747,42.306-146.236-83.384"/>
			<path fill="#FFFFFF" stroke="#000000" stroke-width="2" stroke-dasharray="2,2,2,2,2,9.63" d="M1378.444-515.661"/>
			<path fill="#FFFFFF" stroke="#000000" stroke-width="2" stroke-dasharray="2,2,2,2,2,9.63" d="M1378.692-684.115"/>
		</g>
		<polygon id="hexagon_1_" fill="#FFFFFF" stroke="#000000" stroke-width="2" stroke-dasharray="2,2,2,2,2,9.63" points="
			1233.078,-429.152 1232.628,-598.547 1379.104,-683.634 1526.028,-599.326 1526.479,-429.93 1380.003,-344.844 		"/>
	</g>
	<g id="foldedOuter_1_">
		<polygon fill="none" stroke="#000000" stroke-width="2" stroke-miterlimit="5" points="1495.493,-650.019 1557.457,-541.427 
			1535.12,-418.412 1438.936,-338.532 1313.911,-339.168 1218.546,-420.019 1197.46,-543.255 1260.523,-651.214 1378.226,-693.377 
					"/>
		<g id="one_1_">
			<path fill="none" stroke="#000000" stroke-width="2" d="M1375.677-502.845c0,0-80.893-87.837,2.664-191.161"/>
			<path fill="none" stroke="#000000" stroke-width="2" stroke-dasharray="2,2,2,2,2,9.3913" d="M1375.677-502.845"/>
			<path fill="none" stroke="#000000" stroke-width="2" stroke-dasharray="2,2,2,2,2,9.3913" d="M1495.608-650.647"/>
		</g>
		<g id="two_1_">
			<path fill="none" stroke="#000000" stroke-width="2" d="M1370.637-505.732c0,0-5.701-119.275,124.68-144.93"/>
			<path fill="none" stroke="#000000" stroke-width="2" stroke-dasharray="2,2,2,2,2,9.3913" d="M1370.637-505.732"/>
			<path fill="none" stroke="#000000" stroke-width="2" stroke-dasharray="2,2,2,2,2,9.3913" d="M1557.457-542.171"/>
		</g>
		<g id="three_1_">
			<path fill="none" stroke="#000000" stroke-width="2" d="M1369.658-511.387c0,0,72.518-94.87,188.739-30.451"/>
			<path fill="none" stroke="#000000" stroke-width="2" stroke-dasharray="2,2,2,2,2,9.3913" d="M1369.658-511.387"/>
			<path fill="none" stroke="#000000" stroke-width="2" stroke-dasharray="2,2,2,2,2,9.3913" d="M1535.982-418.835"/>
		</g>
		<g id="four_1_">
			<path fill="none" stroke="#000000" stroke-width="2" d="M1369.255-515.428c0,0,116.288-27.14,165.058,96.47"/>
			<path fill="none" stroke="#000000" stroke-width="2" stroke-dasharray="2,2,2,2,2,9.3913" d="M1369.255-515.428"/>
			<path fill="none" stroke="#000000" stroke-width="2" stroke-dasharray="2,2,2,2,2,9.3913" d="M1437.699-339.203"/>
		</g>
		<g id="five_1_">
			<path fill="none" stroke="#000000" stroke-width="2" d="M1376.589-519.676c0,0,106.118,54.754,63.081,180.473"/>
			<path fill="none" stroke="#000000" stroke-width="2" stroke-dasharray="2,2,2,2,2,9.3913" d="M1376.589-519.676"/>
			<path fill="none" stroke="#000000" stroke-width="2" stroke-dasharray="2,2,2,2,2,9.3913" d="M1314.643-339.697"/>
		</g>
		<g id="six_1_">
			<path fill="none" stroke="#000000" stroke-width="2" d="M1382.285-518.417c0,0,45.918,110.23-67.971,178.689"/>
			<path fill="none" stroke="#000000" stroke-width="2" stroke-dasharray="2,2,2,2,2,9.3913" d="M1382.285-518.417"/>
			<path fill="none" stroke="#000000" stroke-width="2" stroke-dasharray="2,2,2,2,2,9.3913" d="M1218.985-420.626"/>
		</g>
		<g id="seven_1_">
			<path fill="none" stroke="#000000" stroke-width="2" d="M1384.937-513.548c0,0-35.76,113.93-166.994,93.074"/>
			<path fill="none" stroke="#000000" stroke-width="2" stroke-dasharray="2,2,2,2,2,9.3913" d="M1384.937-513.548"/>
			<path fill="none" stroke="#000000" stroke-width="2" stroke-dasharray="2,2,2,2,2,9.3913" d="M1197.004-543.735"/>
		</g>
		<g id="eight_1_">
			<path fill="none" stroke="#000000" stroke-width="2" d="M1384.812-506.945c0,0-100.52,64.459-187.812-35.728"/>
			<path fill="none" stroke="#000000" stroke-width="2" stroke-dasharray="2,2,2,2,2,9.3913" d="M1384.812-506.945"/>
			<path fill="none" stroke="#000000" stroke-width="2" stroke-dasharray="2,2,2,2,2,9.3913" d="M1260.012-650.663"/>
		</g>
		<g id="nine_1_">
			<path fill="none" stroke="#000000" stroke-width="2" d="M1383.203-503.273c0,0-118.485-14.847-121.392-147.696"/>
			<path fill="none" stroke="#000000" stroke-width="2" stroke-dasharray="2,2,2,2,2,9.3913" d="M1383.203-503.273"/>
			<path fill="none" stroke="#000000" stroke-width="2" stroke-dasharray="2,2,2,2,2,9.3913" d="M1379.356-693.577"/>
		</g>
		<path fill="none" stroke="#000000" stroke-width="2" d="M1560.095-671.976"/>
	</g>
	<g id="foldedOuter_2_" opacity="0.55">
		<g id="one_2_">
			<path fill="none" stroke="#000000" stroke-width="2" d="M2047.582-502.845c0,0-80.893-87.837,2.664-191.161"/>
			<path fill="none" stroke="#000000" stroke-width="2" stroke-dasharray="2,2,2,2,2,9.3913" d="M2047.582-502.845"/>
			<path fill="none" stroke="#000000" stroke-width="2" stroke-dasharray="2,2,2,2,2,9.3913" d="M2167.514-650.647"/>
		</g>
		<g id="two_2_">
			<path fill="none" stroke="#000000" stroke-width="2" d="M2042.542-505.732c0,0-5.701-119.275,124.68-144.93"/>
			<path fill="none" stroke="#000000" stroke-width="2" stroke-dasharray="2,2,2,2,2,9.3913" d="M2042.542-505.732"/>
			<path fill="none" stroke="#000000" stroke-width="2" stroke-dasharray="2,2,2,2,2,9.3913" d="M2229.362-542.171"/>
		</g>
		<g id="three_2_">
			<path fill="none" stroke="#000000" stroke-width="2" d="M2041.563-511.387c0,0,72.518-94.87,188.739-30.451"/>
			<path fill="none" stroke="#000000" stroke-width="2" stroke-dasharray="2,2,2,2,2,9.3913" d="M2041.563-511.387"/>
			<path fill="none" stroke="#000000" stroke-width="2" stroke-dasharray="2,2,2,2,2,9.3913" d="M2207.888-418.835"/>
		</g>
		<g id="four_2_">
			<path fill="none" stroke="#000000" stroke-width="2" d="M2041.16-515.428c0,0,116.288-27.14,165.058,96.47"/>
			<path fill="none" stroke="#000000" stroke-width="2" stroke-dasharray="2,2,2,2,2,9.3913" d="M2041.16-515.428"/>
			<path fill="none" stroke="#000000" stroke-width="2" stroke-dasharray="2,2,2,2,2,9.3913" d="M2109.604-339.203"/>
		</g>
		<g id="five_2_">
			<path fill="none" stroke="#000000" stroke-width="2" d="M2048.494-519.676c0,0,106.118,54.754,63.081,180.473"/>
			<path fill="none" stroke="#000000" stroke-width="2" stroke-dasharray="2,2,2,2,2,9.3913" d="M2048.494-519.676"/>
			<path fill="none" stroke="#000000" stroke-width="2" stroke-dasharray="2,2,2,2,2,9.3913" d="M1986.548-339.697"/>
		</g>
		<g id="six_2_">
			<path fill="none" stroke="#000000" stroke-width="2" d="M2054.19-518.417c0,0,45.918,110.23-67.971,178.689"/>
			<path fill="none" stroke="#000000" stroke-width="2" stroke-dasharray="2,2,2,2,2,9.3913" d="M2054.19-518.417"/>
			<path fill="none" stroke="#000000" stroke-width="2" stroke-dasharray="2,2,2,2,2,9.3913" d="M1890.891-420.626"/>
		</g>
		<g id="seven_2_">
			<path fill="none" stroke="#000000" stroke-width="2" d="M2056.842-513.548c0,0-35.76,113.93-166.994,93.074"/>
			<path fill="none" stroke="#000000" stroke-width="2" stroke-dasharray="2,2,2,2,2,9.3913" d="M2056.842-513.548"/>
			<path fill="none" stroke="#000000" stroke-width="2" stroke-dasharray="2,2,2,2,2,9.3913" d="M1868.909-543.735"/>
		</g>
		<g id="eight_2_">
			<path fill="none" stroke="#000000" stroke-width="2" d="M2056.718-506.945c0,0-100.52,64.459-187.812-35.728"/>
			<path fill="none" stroke="#000000" stroke-width="2" stroke-dasharray="2,2,2,2,2,9.3913" d="M2056.718-506.945"/>
			<path fill="none" stroke="#000000" stroke-width="2" stroke-dasharray="2,2,2,2,2,9.3913" d="M1931.917-650.663"/>
		</g>
		<g id="nine_2_">
			<path fill="none" stroke="#000000" stroke-width="2" d="M2055.108-503.273c0,0-118.485-14.847-121.392-147.696"/>
			<path fill="none" stroke="#000000" stroke-width="2" stroke-dasharray="2,2,2,2,2,9.3913" d="M2055.108-503.273"/>
			<path fill="none" stroke="#000000" stroke-width="2" stroke-dasharray="2,2,2,2,2,9.3913" d="M2051.262-693.577"/>
		</g>
		<path fill="none" stroke="#000000" stroke-width="2" d="M2232-671.976"/>
		<polygon fill="none" stroke="#000000" stroke-width="2" stroke-miterlimit="5" points="2167.398,-650.019 2229.362,-541.427 
			2207.025,-418.412 2110.841,-338.532 1985.816,-339.168 1890.451,-420.019 1869.365,-543.255 1932.429,-651.214 
			2050.131,-693.377 		"/>
	</g>
</g>
<g id="terrain">
	<g id="IJsFQ8.tif" display="none">
		
			<image display="inline" overflow="visible" width="915" height="1101" id="Layer_0" xlink:href="235446AE.png"  transform="matrix(0.7083 0 0 0.7083 -747.123 -2480.8721)">
		</image>
	</g>
	<path fill="none" stroke="#FF1744" d="M-563.53-1937.012c-5.602,5.432,9.845,15.107,14.427,19.69
		c3.549-4.719,11.068-8.384,13.75-13.749c4.582-9.166-9.166-13.749-13.75,0C-549.103-1931.071-554.815-1945.462-563.53-1937.012z"/>
	<path fill="none" stroke="#FF1744" d="M-548.728-1947.79c-6.805-4.391-6.194-6.024-11.477-11.935
		c-5.002-5.597-4.919-12.452-10.413-17.556c-4.472-4.154-10.548-7.415-14.514-11.966c-2.961-3.399-2.655-4.162-7.229-5.501
		c-1.845-0.54-3.252,0.179-4.749-1.362c-1.582-1.627-0.417-4.287-1.375-5.753c-2.681-4.088-3.994-1.633-6.758,1.018
		c-2.082,1.996-5.991,4.304-7.128,7.017c-2.59,6.175,5.456,12.498,8.921,16.789c4.091,5.068,8.959,9.621,11.546,15.443
		c2.812,6.329,4.731,12.879,7.169,19.31c2.249,5.931,6.054,11.558,10.805,16.183c4.914,4.784,8.468,9.632,12.604,14.386
		c2.593,2.984,9.53,12.805,14.655,12.103c6.218-0.852,8.341-12.706,10.425-17.183c5.282-11.35,14.089-21.278,21.897-30.949
		c8.283-10.259,21.088-15.426,30.3-25.713c2.737-3.057,4.527-5.584,1.256-8.67c-1.378-1.299-3.762-0.87-5.23-1.897
		c-2.181-1.526-1.716-2.639-3.027-4.583c-4.657-6.902-10.677-3.275-14.896,3.438c-3.661,5.821-5.794,11.635-10.668,16.791
		c-4.396,4.649-8.066,12.613-12.644,15.911c-2.641,1.902-6.624,3.003-9.673,4.981c-3.114,2.019-7.051,5.279-9.153,0.125
		L-548.728-1947.79z"/>
	<path fill="none" stroke="#FF1744" d="M-555.341-1895.425c2.441,4.276,5.344,13.753,11.419,11.316
		c7.16-2.871,10.895-17.979,14.028-24.162c3.948-7.792,7.406-17.63,14.03-23.69c11.091-10.147,22.382-18.881,30.539-31.178
		c3.489-5.261,9.919-12.07,15.548-14.917c4.449-2.251,16.395-5.89,16.931-11.844c0.494-5.483-9.973-14.37-13.129-18.203
		c-5.763-6.999-13.066-4.975-20.099-1.501c-6.514,3.219-12.979,5.782-19.25,9.153c-7.006,3.766-9.833,10.505-10.26,18.37
		c-5.509,3.569-10.048,11.539-14.295,16.755c-5.433,6.674-8.328,10.796-16.169,5.229c-5.321-3.778-10.515-8.33-14.386-13.609
		c-2.063-2.815-4.597-6.163-5.36-9.417c-1.43-6.1,0.129-5.091-6.197-6.507c-3.834-0.858-9.628-2.853-10.719-6.62
		c-1.211-4.188,2.788-8.428,0.151-12.347c-1.808-2.684-6.681-3.685-9.303-5.602c-3.922-2.865-4.422-5.115-5.705-9.46
		c-6.914-0.404-12.721-1.44-16.84,4.479c-4.167,5.99-10.598,5.944-15.118,10.27c-5.218,4.993-1.374,15.388,1.888,20.423
		c4.095,6.321,10.139,9.782,16.269,14.259c12.326,9,16.017,24.747,21.146,37.938c2.156,5.547,4.122,12.617,7.907,17.072
		c3.615,4.256,8.764,7.962,12.969,11.954C-564.737-1902.89-558.299-1900.607-555.341-1895.425z"/>
	<path fill="none" stroke="#FF1744" d="M-530.771-1967.734c-1.336,2.649-2.831,6.224-6.224,4.978
		c-2.928-1.076-3.034-6.007-4.331-9.191c-0.621-1.526-1.631-2.278-2.188-3.946c-0.661-1.98,1.284-1.876-0.611-4.458
		c-1.615-2.201-7.586-4.858-10.07-6.224c-6.243-3.436-12.225-6.469-15.164-13.355c-1.598-3.744-0.136-8.458-1.769-11.978
		c-1.262-2.721-5.083-5.596-7.385-7.383c-7.658-5.944-9.56-10.284-13.38-19.032c-7.624,1.845-17.33,0.873-22.909,4.392
		c-3.99,2.515-4.553,6.161-7.491,9.305c-1.94,2.076-6.819,4.859-9.429,6.365c-6.747,3.896-16.47,4.703-10.951,14.273
		c3.851,6.68,7.116,13.291,9.931,20.582c3.074,7.959,8.404,22.41,16.347,26.453c0.22,2.746,5.204,5.165,6.58,8.57
		c1.539,3.807-0.194,9.336,1.107,12.248c1.372,3.068,5.487,3.565,7.624,7.012c2.595,4.186,2.085,8.455,4.243,12.821
		c1.549,3.137,4.972,5.786,6.108,8.022c1.354,2.667-0.625,5.782,2.013,8.668c1.728,1.891,7.122,3.324,9.547,4.685
		c3.951,2.215,7.395,5.24,11.341,7.524c5.17,2.992,9.32,5.735,13.851,9.775c3.542,3.158,6.474,14.971,12.917,12.41
		c-1.438-9.451,8.869-15.953,12.978-23.474c3.533-6.466,8.007-13.606,9.526-20.494c1.572-7.13,2.576-15.831,9.204-20.764
		c2.968-2.209,6.248-3.111,9.649-4.062c2.289-0.64,3.001-0.492,4.709-1.514c0.969-0.58,2.364-2.442,3.438-3.207
		c0.421-0.298,1.111,0.325,1.399,0.458c3.677-2.925,5.888-7.111,8.416-11.015c1.48-2.286,1.78-3.887,4.445-4.694
		c2.342-0.71,4.517,0.975,6.655-0.375c1.492-0.944,2.418-4.255,3.862-5.619c4.369-4.123,12.019-1.732,15.337-5.598
		c3.381-3.938,3.607-16.76,5.191-22.021c1.184-3.936,2.741-6.062,4.723-9.546c2.044-3.593,1.595-6.829,2.534-10.82
		c0.714-3.034,3.919-8.338,2.062-11.341c-1.682-2.719-7.444-3.062-9.939-4.32c-5.721-2.884-10.687-10.205-16.145-12.37
		c-3.669-1.456-5.837,1.478-8.544,2.199c-3.187,0.849-5.873-0.217-8.667,2.026c-3.38,2.715-6.875,10.578-8.364,14.551
		c-11.506-1.295-20.616,8.742-26.72,17.162c-3.018,4.16-6.114,8.727-8.091,13.493
		C-525.919-1980.503-527.798-1973.626-530.771-1967.734z"/>
	<path fill="none" stroke="#FF1744" d="M-521.096-2015.601c-2.186,1.531-3.098,2.316-3.563,5.093
		c-0.599,3.588,0.07,4.062-1.401,7.253c-3.43,7.444-9.984,13.823-13.903,21.081c0.529-10.436-6.34-9.065-12.702-14.191
		c-4.878-3.93-10.213-10.931-13.241-16.181c-1.598-2.771-3.49-6.797-4.2-10.071c-0.564-2.608,0.122-9.117-1.506-11.214
		c-1.635-2.107-7.617-3.021-10.095-4.161c-3.549-1.633-7.018-3.249-10.678-4.738c-7.42-3.022-13.752-0.485-20.765-3.04
		c-8.555-3.116-12.066,4.165-11.412,12.26c-3.038,0.843-4.814,3.752-7.61,4.881c-2.655,1.071-4.409,0.27-7.211,0.707
		c-5.652,0.884-8.348,5.099-10.021,10.272c-1.246,3.85,0.167,8.382-1.136,12.132c-1.083,3.124-3.879,5.02-4.595,8.645
		c-2.794,14.154,19.453,20.622,22.916,33.722c1.329,5.029,0.262,6.715,3.792,10.569c2.672,2.918,5.991,4.476,8.939,6.857
		c6.215,5.024,9.588,12.281,10.795,19.746c1.322,8.182-0.649,17.417,6.658,22.406c6.972,4.761,11.728,6.637,15.363,14.144
		c1.508,3.115,2.895,5.234,3.591,8.771c0.365,1.857,0.128,3.703,0.358,5.613c0.001,0.011,0.002,0.022,0.003,0.033
		c0.929,7.698,19.032,9.55,25.06,14.088c3.886,2.927,11.399,14.421,16.505,14.317c3.2-0.065,6.537-5.9,8.871-7.821
		c3.339-2.747,6.954-4.219,9.064-8.165c5.334-9.974,5.507-22.886,10.398-33.33c1.963-4.192,3.763-7.438,4.961-11.723
		c0.599-2.141-0.66-2.07,0.884-4.204c1.092-1.508,3.414-2.21,4.834-3.298c5.741-4.394,11.261-8.294,17.327-11.724
		c2.976-1.682,7.968-2.487,10.465-4.809c5.509-5.121,7.649-19.886,18.344-18.309c0.908-4.843,5.206-4.283,8.745-6.135
		c3.479-1.82,8.753-5.42,11.214-8.556c5.024-6.396,6.361-16.65,7.117-24.442c1.381-14.196-1.299-34.795-15.15-42.39
		c-7.059-3.87-18.645-8.176-22.632-16.091c-7.794,3.427-15.301,7.751-23.318,10.994c-5.974,2.418-14.042,2.918-17.656,9.014
		c-1.8,3.039-0.902,6.251-3.554,8.61C-513.746-2016.754-518.315-2017.549-521.096-2015.601z"/>
	<path fill="none" stroke="#FF1744" d="M-540.446-1997.778c0.877-4.582,6.646-7.364,10.071-16.295
		c2.399-6.256,3.234-14.174,7.103-19.973c4.445-6.664,13.432-5.594,20.111-7.934c7.566-2.652,11.104-6.889,17.328-12.195
		c4.293-3.662,12.697-6.563,18.362-4.604c5.008,1.733,4.824,6.599,8.358,10.383c6.811,7.295,17.964,8.694,27.019,11.522
		c9.57,2.988,4.414,11.366,7.368,19.235c2.94,7.835,13.133,8.165,14.144,16.792c0.691,5.902-4.286,17.053-7.525,22.046
		c-4.437,6.842-6.808,15.839-11.699,22.122c-3.945,5.068-10.486,7.685-16.437,9.327c-9.182,2.535-14.198,8.682-20.823,14.652
		c-5.928,5.343-14.685,6.579-19.02,13.823c-2.529,4.225-1.085,19.592-2.927,23.959c-7.352,17.417-16.821,22.217-27.275,38.049
		c-3.954,5.988-6.154,20.934-11.426,26.112c-2.09,2.053-11.557,11.618-14.274,12.731c-0.703,0.287-6.401-10.545-6.738-10.643
		c-2.635-0.76-3.171-4.341-3.979-6.645c-2.074-5.914-3.475-11.68-9.103-15.303c-7.669-4.934-19.076-7.103-22.927-15.15
		c-4.933-10.31-6.956-17.948-15.457-22.192c-3.883-1.938-2.023-6.626-4.032-10.522c-2.213-4.292-6.677-6.622-9.617-10.229
		c-3.061-3.757-4.021-8.438-6.156-12.688c-2.324-4.628-5.797-7.776-10.17-10.566c-4.148-2.646-8.365-3.55-9.574-8.784
		c-1.028-4.447,1.574-11.087-0.568-15.042c-1.477-2.727-6.691-5.175-9.239-6.809c-6.784-4.348-14.127-14.303-14.127-14.303
		c0.381-8.021-3.019-7.756,0-9.166c3.593-1.679,2.54-0.643,2.545-4.583c0.009-6.07-2.787-15.675-0.167-21.336
		c1.88-4.058,7.359-6.397,9.731-10.351c1.883-3.137,1.794-7.028,2.67-10.551c2.112-8.47,8.242-10.988,12.831-17.747
		c2.024-2.981,4.145-5.475,7.524-6.212c4.184-0.914,8.583,1.674,12.729,0.394c7.412-2.288,8.923-10.454,18.22-6.889
		c6.524,2.502,11.546,9.048,17.936,12.604c6.315,3.515,15.744,4.833,18.331,12.706c0.671,2.044-0.191,4.659,0.585,6.545
		c0.57,1.384,2.937,2.697,3.613,4.571c1.664,4.61,0.214,6.142,4.065,9.637C-546.367-2011.205-543.569-2005.727-540.446-1997.778"/>
	<path fill="none" stroke="#FF1744" stroke-width="2" d="M-539.937-2004.398c0-35.464-30.747-64.162-68.744-64.162"/>
	<path fill="none" stroke="#FF1744" stroke-width="2" d="M-539.937-2004.398c0-35.464,36.919-64.464,77.911-64.162
		c51.237,0.381,70.271,44.566,51.508,91.66c-5.251,13.177-129.418,174.152-129.418,174.152S-643.364-1928.891-668.26-1976.9
		c-26.687-51.462,15.787-95.223,59.579-91.66"/>
	<path fill="none" stroke="#00BCD4" d="M-257.025-2276.264c5.602,5.432-9.846,15.107-14.428,19.69
		c-3.549-4.719-11.068-8.385-13.75-13.75c-4.582-9.166,9.166-13.749,13.75,0C-271.453-2270.323-265.741-2284.714-257.025-2276.264z"
		/>
	<path fill="none" stroke="#00BCD4" d="M-271.828-2287.042c6.805-4.391,6.193-6.024,11.477-11.935
		c5.002-5.596,4.918-12.452,10.412-17.556c4.473-4.154,10.549-7.415,14.515-11.966c2.961-3.399,2.655-4.162,7.229-5.501
		c1.845-0.54,3.252,0.179,4.749-1.362c1.581-1.627,0.416-4.287,1.375-5.752c2.681-4.089,3.994-1.634,6.758,1.018
		c2.082,1.995,5.991,4.303,7.129,7.016c2.59,6.175-5.456,12.498-8.922,16.79c-4.09,5.067-8.959,9.621-11.546,15.442
		c-2.812,6.329-4.731,12.879-7.169,19.31c-2.249,5.931-6.055,11.558-10.805,16.184c-4.914,4.784-8.469,9.631-12.604,14.386
		c-2.594,2.984-9.531,12.805-14.655,12.103c-6.218-0.852-8.341-12.705-10.425-17.183c-5.282-11.35-14.089-21.278-21.896-30.949
		c-8.283-10.26-21.088-15.426-30.301-25.714c-2.736-3.057-4.527-5.584-1.256-8.67c1.379-1.299,3.763-0.87,5.23-1.897
		c2.181-1.526,1.716-2.639,3.027-4.583c4.657-6.901,10.677-3.275,14.896,3.438c3.661,5.821,5.794,11.635,10.668,16.791
		c4.396,4.649,8.066,12.613,12.644,15.912c2.641,1.902,6.624,3.002,9.673,4.98c3.114,2.02,7.052,5.279,9.153,0.126
		L-271.828-2287.042z"/>
	<path fill="none" stroke="#00BCD4" d="M-265.215-2234.677c-2.441,4.276-5.345,13.753-11.42,11.316
		c-7.159-2.871-10.895-17.979-14.027-24.162c-3.949-7.792-7.406-17.631-14.031-23.691c-11.09-10.147-22.382-18.881-30.539-31.178
		c-3.488-5.261-9.919-12.07-15.548-14.917c-4.449-2.252-16.395-5.89-16.931-11.844c-0.494-5.483,9.973-14.37,13.129-18.203
		c5.764-6.999,13.066-4.975,20.1-1.502c6.514,3.219,12.979,5.782,19.25,9.153c7.006,3.766,9.832,10.505,10.26,18.37
		c5.51,3.569,10.048,11.539,14.295,16.755c5.434,6.674,8.328,10.797,16.169,5.229c5.321-3.778,10.515-8.33,14.386-13.609
		c2.064-2.815,4.598-6.163,5.361-9.417c1.43-6.1-0.13-5.091,6.197-6.507c3.834-0.858,9.628-2.853,10.719-6.62
		c1.211-4.188-2.788-8.428-0.151-12.347c1.808-2.684,6.681-3.685,9.303-5.602c3.922-2.865,4.422-5.115,5.705-9.46
		c6.914-0.404,12.722-1.44,16.84,4.479c4.167,5.99,10.598,5.944,15.118,10.27c5.218,4.993,1.373,15.388-1.889,20.423
		c-4.096,6.321-10.139,9.782-16.269,14.259c-12.326,9-16.017,24.748-21.146,37.938c-2.156,5.547-4.122,12.617-7.907,17.072
		c-3.614,4.256-8.764,7.962-12.969,11.954C-255.818-2242.142-262.257-2239.859-265.215-2234.677z"/>
	<path fill="none" stroke="#00BCD4" d="M-289.785-2306.986c1.336,2.649,2.831,6.224,6.224,4.978c2.929-1.075,3.034-6.007,4.331-9.19
		c0.621-1.526,1.631-2.278,2.188-3.946c0.661-1.98-1.284-1.877,0.611-4.458c1.614-2.201,7.586-4.858,10.07-6.224
		c6.242-3.436,12.225-6.469,15.163-13.355c1.599-3.744,0.136-8.457,1.769-11.978c1.262-2.72,5.084-5.596,7.385-7.383
		c7.658-5.944,9.561-10.284,13.381-19.032c7.624,1.845,17.33,0.873,22.909,4.392c3.99,2.514,4.553,6.161,7.491,9.305
		c1.939,2.076,6.818,4.859,9.429,6.365c6.747,3.896,16.47,4.703,10.951,14.273c-3.851,6.68-7.116,13.292-9.931,20.582
		c-3.074,7.959-8.404,22.411-16.348,26.453c-0.219,2.746-5.203,5.165-6.579,8.57c-1.538,3.807,0.194,9.336-1.107,12.248
		c-1.372,3.068-5.487,3.565-7.624,7.012c-2.595,4.186-2.085,8.455-4.242,12.821c-1.549,3.137-4.973,5.786-6.108,8.022
		c-1.354,2.667,0.626,5.783-2.013,8.668c-1.728,1.891-7.121,3.325-9.547,4.685c-3.951,2.215-7.395,5.24-11.341,7.524
		c-5.17,2.992-9.32,5.735-13.851,9.775c-3.542,3.158-6.475,14.971-12.917,12.41c1.438-9.451-8.868-15.953-12.978-23.474
		c-3.533-6.466-8.007-13.606-9.525-20.494c-1.572-7.13-2.576-15.831-9.205-20.764c-2.968-2.209-6.247-3.111-9.648-4.062
		c-2.289-0.64-3.002-0.492-4.709-1.514c-0.969-0.58-2.364-2.442-3.438-3.207c-0.421-0.298-1.111,0.325-1.399,0.458
		c-3.678-2.925-5.888-7.111-8.416-11.015c-1.479-2.286-1.779-3.887-4.444-4.694c-2.343-0.71-4.517,0.975-6.655-0.375
		c-1.492-0.944-2.418-4.255-3.862-5.619c-4.368-4.123-12.019-1.732-15.337-5.598c-3.381-3.938-3.607-16.76-5.191-22.02
		c-1.184-3.937-2.74-6.062-4.723-9.546c-2.045-3.593-1.595-6.829-2.534-10.82c-0.714-3.034-3.919-8.338-2.062-11.341
		c1.682-2.719,7.443-3.062,9.939-4.32c5.721-2.884,10.687-10.205,16.145-12.37c3.669-1.456,5.837,1.478,8.543,2.199
		c3.188,0.849,5.873-0.217,8.667,2.026c3.38,2.715,6.876,10.578,8.364,14.551c11.506-1.295,20.615,8.742,26.721,17.162
		c3.018,4.16,6.113,8.727,8.091,13.493C-294.637-2319.755-292.758-2312.878-289.785-2306.986z"/>
	<path fill="none" stroke="#00BCD4" d="M-299.46-2354.853c2.186,1.531,3.099,2.316,3.563,5.094c0.599,3.587-0.07,4.062,1.4,7.253
		c3.43,7.444,9.984,13.823,13.904,21.081c-0.529-10.436,6.34-9.065,12.701-14.191c4.878-3.93,10.213-10.931,13.24-16.181
		c1.599-2.771,3.49-6.797,4.2-10.071c0.564-2.608-0.122-9.117,1.506-11.214c1.635-2.107,7.616-3.021,10.095-4.161
		c3.549-1.633,7.018-3.249,10.678-4.738c7.42-3.022,13.752-0.485,20.765-3.041c8.555-3.116,12.066,4.165,11.412,12.26
		c3.038,0.843,4.814,3.752,7.61,4.881c2.654,1.071,4.408,0.269,7.211,0.707c5.652,0.884,8.348,5.099,10.021,10.272
		c1.246,3.85-0.167,8.382,1.136,12.132c1.084,3.124,3.879,5.02,4.596,8.645c2.793,14.154-19.453,20.622-22.916,33.722
		c-1.329,5.029-0.262,6.714-3.791,10.57c-2.673,2.918-5.992,4.476-8.939,6.857c-6.215,5.024-9.588,12.281-10.795,19.746
		c-1.322,8.183,0.648,17.417-6.658,22.407c-6.972,4.76-11.729,6.637-15.363,14.144c-1.508,3.115-2.895,5.234-3.591,8.771
		c-0.365,1.857-0.128,3.704-0.358,5.613c-0.001,0.011-0.002,0.022-0.004,0.033c-0.928,7.698-19.031,9.55-25.06,14.088
		c-3.886,2.927-11.399,14.421-16.505,14.317c-3.2-0.065-6.537-5.9-8.871-7.821c-3.34-2.747-6.953-4.219-9.064-8.165
		c-5.334-9.974-5.507-22.886-10.397-33.33c-1.963-4.192-3.763-7.438-4.962-11.723c-0.598-2.14,0.66-2.069-0.883-4.203
		c-1.092-1.508-3.414-2.21-4.834-3.298c-5.741-4.395-11.262-8.294-17.328-11.724c-2.976-1.682-7.967-2.487-10.465-4.809
		c-5.51-5.121-7.648-19.886-18.344-18.309c-0.908-4.843-5.206-4.283-8.746-6.135c-3.479-1.82-8.753-5.42-11.214-8.556
		c-5.024-6.396-6.36-16.65-7.116-24.442c-1.381-14.196,1.299-34.795,15.149-42.39c7.059-3.87,18.646-8.176,22.632-16.091
		c7.795,3.427,15.302,7.751,23.318,10.994c5.975,2.418,14.041,2.918,17.656,9.014c1.8,3.039,0.902,6.251,3.554,8.61
		C-306.811-2356.006-302.241-2356.801-299.46-2354.853z"/>
	<path fill="none" stroke="#00BCD4" d="M-280.11-2337.03c-0.878-4.582-6.646-7.364-10.071-16.295
		c-2.398-6.256-3.234-14.173-7.103-19.973c-4.444-6.664-13.432-5.594-20.11-7.934c-7.566-2.652-11.105-6.889-17.328-12.195
		c-4.293-3.662-12.697-6.563-18.361-4.604c-5.008,1.733-4.824,6.599-8.358,10.383c-6.811,7.295-17.964,8.694-27.019,11.522
		c-9.57,2.988-4.414,11.366-7.369,19.236c-2.939,7.834-13.133,8.164-14.143,16.792c-0.691,5.902,4.285,17.053,7.525,22.047
		c4.436,6.841,6.807,15.838,11.699,22.122c3.945,5.068,10.486,7.685,16.437,9.327c9.183,2.535,14.198,8.682,20.823,14.652
		c5.928,5.343,14.685,6.579,19.02,13.823c2.529,4.225,1.085,19.592,2.928,23.959c7.352,17.417,16.82,22.217,27.274,38.049
		c3.954,5.989,6.153,20.934,11.426,26.112c2.09,2.053,11.558,11.618,14.274,12.731c0.703,0.287,6.4-10.545,6.738-10.643
		c2.635-0.76,3.171-4.341,3.979-6.645c2.074-5.914,3.475-11.68,9.103-15.303c7.669-4.934,19.075-7.103,22.927-15.15
		c4.934-10.31,6.956-17.948,15.457-22.192c3.883-1.938,2.023-6.626,4.031-10.522c2.214-4.291,6.678-6.622,9.617-10.229
		c3.061-3.757,4.021-8.438,6.156-12.688c2.324-4.629,5.797-7.776,10.17-10.566c4.148-2.646,8.365-3.55,9.574-8.784
		c1.027-4.447-1.574-11.087,0.568-15.041c1.477-2.727,6.69-5.176,9.238-6.81c6.783-4.348,14.127-14.303,14.127-14.303
		c-0.381-8.021,3.02-7.756,0-9.166c-3.593-1.679-2.539-0.643-2.545-4.583c-0.009-6.07,2.787-15.675,0.166-21.336
		c-1.88-4.058-7.359-6.397-9.73-10.351c-1.883-3.137-1.795-7.028-2.67-10.551c-2.111-8.47-8.242-10.989-12.831-17.748
		c-2.024-2.981-4.146-5.475-7.524-6.212c-4.184-0.914-8.583,1.674-12.729,0.394c-7.412-2.288-8.924-10.454-18.221-6.889
		c-6.523,2.502-11.545,9.048-17.936,12.604c-6.314,3.515-15.744,4.833-18.33,12.706c-0.672,2.044,0.191,4.659-0.586,6.545
		c-0.57,1.383-2.937,2.697-3.613,4.57c-1.663,4.61-0.213,6.142-4.064,9.638C-274.189-2350.456-276.986-2344.979-280.11-2337.03"/>
	<path fill="none" stroke="#00BCD4" stroke-width="2" d="M-280.619-2343.65c0-35.464,30.746-64.162,68.744-64.162"/>
	<path fill="none" stroke="#00BCD4" stroke-width="2" d="M-280.619-2343.65c0-35.464-36.919-64.464-77.91-64.162
		c-51.238,0.381-70.271,44.566-51.508,91.66c5.25,13.177,129.418,174.152,129.418,174.152s103.427-126.143,128.322-174.152
		c26.688-51.462-15.786-95.223-59.578-91.66"/>
	<path fill="none" stroke="#000000" stroke-width="2" d="M3080.1-2289.248c5.602,5.432-9.846,15.107-14.428,19.69
		c-3.549-4.719-11.068-8.385-13.75-13.75c-4.582-9.166,9.166-13.749,13.75,0C3065.672-2283.307,3071.384-2297.699,3080.1-2289.248z"
		/>
	<path fill="none" stroke="#000000" stroke-width="2" d="M2632.698-2300.026c6.805-4.391,6.193-6.024,11.477-11.935
		c5.002-5.596,4.918-12.452,10.412-17.557c4.473-4.153,10.549-7.415,14.515-11.966c2.961-3.399,2.655-4.162,7.229-5.501
		c1.845-0.54,3.252,0.179,4.749-1.362c1.581-1.627,0.416-4.287,1.375-5.752c2.681-4.089,3.994-1.634,6.758,1.018
		c2.082,1.995,5.991,4.303,7.129,7.016c2.59,6.175-5.456,12.498-8.922,16.789c-4.09,5.068-8.959,9.621-11.546,15.443
		c-2.812,6.329-4.731,12.879-7.169,19.31c-2.249,5.931-6.055,11.558-10.805,16.184c-4.914,4.784-8.469,9.631-12.604,14.386
		c-2.594,2.984-9.531,12.805-14.655,12.103c-6.218-0.852-8.341-12.705-10.425-17.183c-5.282-11.35-14.089-21.278-21.896-30.949
		c-8.283-10.259-21.088-15.426-30.301-25.713c-2.736-3.057-4.527-5.584-1.256-8.67c1.379-1.299,3.763-0.87,5.23-1.897
		c2.181-1.526,1.716-2.639,3.027-4.583c4.657-6.901,10.677-3.275,14.896,3.438c3.661,5.821,5.794,11.635,10.668,16.791
		c4.396,4.649,8.066,12.613,12.644,15.912c2.641,1.902,6.624,3.002,9.673,4.98c3.114,2.02,7.052,5.279,9.153,0.125
		L2632.698-2300.026z"/>
	<path fill="none" stroke="#000000" stroke-width="2" d="M2208.513-2247.662c-2.441,4.276-5.345,13.753-11.42,11.316
		c-7.159-2.871-10.895-17.979-14.027-24.162c-3.949-7.792-7.406-17.631-14.031-23.691c-11.09-10.147-22.382-18.881-30.539-31.178
		c-3.488-5.261-9.919-12.07-15.548-14.917c-4.449-2.252-16.395-5.89-16.931-11.844c-0.494-5.483,9.973-14.37,13.129-18.203
		c5.764-6.999,13.066-4.976,20.1-1.501c6.514,3.219,12.979,5.782,19.25,9.153c7.006,3.766,9.832,10.506,10.26,18.37
		c5.51,3.569,10.048,11.539,14.295,16.755c5.434,6.674,8.328,10.797,16.169,5.229c5.321-3.778,10.515-8.33,14.386-13.609
		c2.064-2.815,4.598-6.163,5.361-9.417c1.43-6.1-0.13-5.091,6.197-6.507c3.834-0.858,9.628-2.853,10.719-6.62
		c1.211-4.188-2.788-8.428-0.151-12.347c1.808-2.684,6.681-3.685,9.303-5.602c3.922-2.865,4.422-5.115,5.705-9.46
		c6.914-0.404,12.722-1.44,16.84,4.479c4.167,5.99,10.598,5.944,15.118,10.27c5.218,4.994,1.373,15.389-1.889,20.424
		c-4.096,6.321-10.139,9.782-16.269,14.259c-12.326,9-16.017,24.748-21.146,37.938c-2.156,5.547-4.122,12.617-7.907,17.072
		c-3.614,4.256-8.764,7.962-12.969,11.954C2217.909-2255.126,2211.471-2252.844,2208.513-2247.662z"/>
	<path fill="none" stroke="#000000" stroke-width="2" d="M1759.405-2319.971c1.336,2.649,2.831,6.224,6.224,4.978
		c2.929-1.076,3.034-6.007,4.331-9.19c0.621-1.527,1.631-2.278,2.188-3.946c0.661-1.98-1.284-1.876,0.611-4.458
		c1.614-2.201,7.586-4.858,10.07-6.224c6.242-3.436,12.225-6.469,15.163-13.355c1.599-3.744,0.136-8.457,1.769-11.978
		c1.262-2.72,5.084-5.596,7.385-7.383c7.658-5.944,9.561-10.284,13.381-19.032c7.624,1.845,17.33,0.873,22.909,4.392
		c3.99,2.515,4.553,6.162,7.491,9.305c1.939,2.076,6.818,4.859,9.429,6.365c6.747,3.895,16.47,4.703,10.951,14.273
		c-3.851,6.68-7.116,13.292-9.931,20.582c-3.074,7.959-8.404,22.411-16.348,26.453c-0.219,2.746-5.203,5.165-6.579,8.57
		c-1.538,3.807,0.194,9.336-1.107,12.248c-1.372,3.068-5.487,3.565-7.624,7.012c-2.595,4.186-2.085,8.455-4.242,12.821
		c-1.549,3.137-4.973,5.786-6.108,8.022c-1.354,2.667,0.626,5.782-2.013,8.668c-1.728,1.891-7.121,3.325-9.547,4.685
		c-3.951,2.215-7.395,5.24-11.341,7.525c-5.17,2.992-9.32,5.735-13.851,9.775c-3.542,3.158-6.475,14.971-12.917,12.41
		c1.438-9.451-8.868-15.953-12.978-23.474c-3.533-6.466-8.007-13.606-9.525-20.494c-1.572-7.13-2.576-15.831-9.205-20.764
		c-2.968-2.209-6.247-3.111-9.648-4.062c-2.289-0.64-3.002-0.492-4.709-1.514c-0.969-0.58-2.364-2.442-3.438-3.207
		c-0.421-0.299-1.111,0.325-1.399,0.458c-3.678-2.925-5.888-7.111-8.416-11.015c-1.479-2.286-1.779-3.887-4.444-4.694
		c-2.343-0.71-4.517,0.975-6.655-0.375c-1.492-0.944-2.418-4.255-3.862-5.619c-4.368-4.123-12.019-1.732-15.337-5.598
		c-3.381-3.938-3.607-16.76-5.191-22.02c-1.184-3.937-2.74-6.062-4.723-9.546c-2.045-3.593-1.595-6.829-2.534-10.82
		c-0.714-3.034-3.919-8.338-2.062-11.341c1.682-2.719,7.443-3.062,9.939-4.32c5.721-2.884,10.687-10.205,16.145-12.37
		c3.669-1.456,5.837,1.478,8.543,2.199c3.188,0.849,5.873-0.217,8.667,2.026c3.38,2.715,6.876,10.578,8.364,14.551
		c11.506-1.295,20.615,8.742,26.721,17.162c3.018,4.161,6.113,8.727,8.091,13.493
		C1754.554-2332.739,1756.433-2325.863,1759.405-2319.971z"/>
	<path fill="none" stroke="#000000" stroke-width="2" d="M1316.49-2367.837c2.186,1.531,3.099,2.316,3.563,5.093
		c0.599,3.588-0.07,4.062,1.4,7.253c3.43,7.444,9.984,13.823,13.904,21.081c-0.529-10.436,6.34-9.065,12.701-14.191
		c4.878-3.93,10.213-10.931,13.24-16.181c1.599-2.771,3.49-6.798,4.2-10.072c0.564-2.608-0.122-9.117,1.506-11.214
		c1.635-2.107,7.616-3.021,10.095-4.161c3.549-1.633,7.018-3.249,10.678-4.738c7.42-3.022,13.752-0.485,20.765-3.04
		c8.555-3.116,12.066,4.165,11.412,12.26c3.038,0.843,4.814,3.752,7.61,4.881c2.654,1.071,4.408,0.269,7.211,0.707
		c5.652,0.884,8.348,5.099,10.021,10.272c1.246,3.85-0.167,8.382,1.136,12.132c1.084,3.124,3.879,5.02,4.596,8.645
		c2.793,14.154-19.453,20.622-22.916,33.722c-1.329,5.029-0.262,6.715-3.791,10.569c-2.673,2.918-5.992,4.476-8.939,6.857
		c-6.215,5.024-9.588,12.281-10.795,19.747c-1.322,8.182,0.648,17.417-6.658,22.406c-6.972,4.761-11.729,6.637-15.363,14.144
		c-1.508,3.115-2.895,5.234-3.591,8.771c-0.365,1.857-0.128,3.704-0.358,5.613c-0.001,0.011-0.002,0.022-0.004,0.033
		c-0.928,7.697-19.031,9.549-25.06,14.087c-3.886,2.927-11.399,14.421-16.505,14.317c-3.2-0.065-6.537-5.9-8.871-7.821
		c-3.34-2.747-6.953-4.219-9.064-8.165c-5.334-9.974-5.507-22.886-10.397-33.33c-1.963-4.192-3.763-7.438-4.962-11.722
		c-0.598-2.142,0.66-2.071-0.883-4.204c-1.092-1.508-3.414-2.21-4.834-3.298c-5.741-4.395-11.262-8.294-17.328-11.724
		c-2.976-1.683-7.967-2.487-10.465-4.81c-5.51-5.121-7.648-19.886-18.344-18.309c-0.908-4.843-5.206-4.283-8.746-6.135
		c-3.479-1.82-8.753-5.42-11.214-8.556c-5.024-6.396-6.36-16.65-7.116-24.442c-1.381-14.196,1.299-34.795,15.149-42.39
		c7.059-3.87,18.646-8.176,22.632-16.091c7.795,3.427,15.302,7.751,23.318,10.994c5.975,2.418,14.041,2.918,17.656,9.014
		c1.8,3.039,0.902,6.251,3.554,8.61C1309.14-2368.991,1313.709-2369.786,1316.49-2367.837z"/>
	<path fill="none" stroke="#000000" stroke-width="2" d="M901.509-2348.759c-0.878-4.582-6.646-7.364-10.071-16.295
		c-2.398-6.256-3.234-14.174-7.103-19.973c-4.444-6.663-13.432-5.594-20.11-7.934c-7.566-2.652-11.105-6.888-17.328-12.195
		c-4.293-3.662-12.697-6.563-18.361-4.604c-5.008,1.733-4.824,6.599-8.358,10.383c-6.811,7.295-17.964,8.694-27.019,11.521
		c-9.57,2.989-4.414,11.366-7.369,19.236c-2.939,7.835-13.133,8.165-14.143,16.792c-0.691,5.902,4.285,17.053,7.525,22.046
		c4.436,6.841,6.807,15.839,11.699,22.122c3.945,5.068,10.486,7.685,16.437,9.327c9.183,2.535,14.198,8.682,20.823,14.652
		c5.928,5.343,14.685,6.579,19.02,13.823c2.529,4.225,1.085,19.592,2.928,23.958c7.352,17.417,16.82,22.217,27.274,38.049
		c3.954,5.988,6.153,20.934,11.426,26.112c2.09,2.053,11.558,11.618,14.274,12.731c0.703,0.287,6.4-10.545,6.738-10.643
		c2.635-0.76,3.171-4.341,3.979-6.645c2.074-5.913,3.475-11.68,9.103-15.303c7.669-4.934,19.075-7.103,22.927-15.15
		c4.934-10.31,6.956-17.948,15.457-22.192c3.883-1.938,2.023-6.626,4.031-10.522c2.214-4.292,6.678-6.622,9.617-10.229
		c3.061-3.757,4.021-8.438,6.156-12.688c2.324-4.628,5.797-7.776,10.17-10.566c4.148-2.646,8.365-3.55,9.574-8.784
		c1.027-4.446-1.574-11.087,0.568-15.042c1.477-2.727,6.69-5.175,9.238-6.81c6.783-4.347,14.127-14.302,14.127-14.302
		c-0.381-8.021,3.02-7.756,0-9.166c-3.593-1.678-2.539-0.643-2.545-4.583c-0.009-6.07,2.787-15.675,0.166-21.336
		c-1.88-4.059-7.359-6.398-9.73-10.352c-1.883-3.137-1.795-7.028-2.67-10.551c-2.111-8.47-8.242-10.988-12.831-17.747
		c-2.024-2.981-4.146-5.474-7.524-6.212c-4.184-0.914-8.583,1.674-12.729,0.394c-7.412-2.288-8.924-10.454-18.221-6.888
		c-6.523,2.501-11.545,9.047-17.936,12.603c-6.314,3.515-15.744,4.833-18.33,12.706c-0.672,2.044,0.191,4.659-0.586,6.545
		c-0.57,1.384-2.937,2.697-3.613,4.571c-1.663,4.61-0.213,6.142-4.064,9.637C907.43-2362.186,904.633-2356.708,901.509-2348.759"/>
	<path fill="none" stroke="#000000" stroke-width="2" d="M469.492-2356.635c0-35.464,30.746-64.162,68.744-64.162"/>
	<path fill="none" stroke="#000000" stroke-width="2" d="M469.492-2356.635c0-35.464-36.919-64.464-77.91-64.162
		c-51.238,0.381-70.271,44.566-51.508,91.66c5.25,13.177,129.418,174.152,129.418,174.152s103.427-126.143,128.322-174.152
		c26.688-51.462-15.786-95.223-59.578-91.66"/>
	<circle fill="none" stroke="#FF1744" stroke-width="2" cx="-540" cy="-1953" r="180"/>
	<path fill="#00BCD4" d="M3960.062-2139.399c0-35.464,36.92-64.464,77.911-64.162c51.237,0.381,70.271,44.566,51.508,91.66
		c-5.251,13.177-129.419,174.152-129.419,174.152s-103.426-126.143-128.322-174.152c-26.688-51.462,15.906-96.467,59.578-91.66
		C3960-2196,3960.062-2139.399,3960.062-2139.399z"/>
	<path opacity="0.3" fill="#FFFFFF" stroke="#000000" d="M3959.555-2132.779c0.877-4.582,6.645-7.364,10.07-16.295
		c2.399-6.256,3.234-14.174,7.104-19.973c4.444-6.664,13.432-5.594,20.11-7.934c7.565-2.652,11.104-6.889,17.327-12.195
		c4.293-3.662,12.697-6.563,18.362-4.604c5.007,1.733,4.823,6.599,8.358,10.383c6.811,7.295,17.963,8.694,27.019,11.522
		c9.57,2.988,4.413,11.366,7.368,19.235c2.94,7.835,13.133,8.165,14.144,16.792c0.691,5.902-4.286,17.053-7.525,22.046
		c-4.437,6.842-6.808,15.839-11.699,22.122c-3.945,5.068-10.486,7.685-16.437,9.327c-9.183,2.535-14.199,8.682-20.823,14.652
		c-5.928,5.343-14.685,6.579-19.021,13.823c-2.529,4.225-1.084,19.592-2.927,23.959c-7.353,17.417-16.821,22.217-27.274,38.049
		c-3.955,5.988-6.154,20.934-11.426,26.112c-2.09,2.053-11.558,11.618-14.275,12.731c-0.703,0.287-6.4-10.545-6.737-10.643
		c-2.635-0.76-3.171-4.341-3.979-6.645c-2.074-5.914-3.475-11.68-9.102-15.303c-7.67-4.934-19.076-7.103-22.928-15.15
		c-4.933-10.31-6.955-17.948-15.457-22.192c-3.883-1.938-2.023-6.626-4.031-10.522c-2.213-4.292-6.678-6.622-9.617-10.229
		c-3.061-3.757-4.021-8.438-6.156-12.688c-2.324-4.628-5.797-7.776-10.17-10.566c-4.147-2.646-8.364-3.55-9.573-8.784
		c-1.028-4.447,1.573-11.087-0.568-15.042c-1.478-2.727-6.69-5.175-9.239-6.81c-6.783-4.347-14.127-14.302-14.127-14.302
		c0.381-8.021-3.02-7.756,0-9.166c3.594-1.679,2.54-0.643,2.545-4.583c0.01-6.07-2.786-15.675-0.166-21.336
		c1.881-4.058,7.359-6.397,9.73-10.351c1.883-3.137,1.795-7.028,2.67-10.551c2.112-8.47,8.242-10.988,12.832-17.747
		c2.023-2.981,4.145-5.475,7.523-6.211c4.184-0.915,8.584,1.673,12.729,0.393c7.411-2.288,8.923-10.454,18.22-6.889
		c6.524,2.502,11.546,9.048,17.936,12.604c6.315,3.514,15.744,4.833,18.331,12.706c0.671,2.044-0.192,4.659,0.585,6.545
		c0.57,1.384,2.938,2.697,3.613,4.571c1.664,4.61,0.214,6.142,4.065,9.637C3953.633-2146.206,3956.431-2140.728,3959.555-2132.779"
		/>
	<path opacity="0.4" fill="#FFFFFF" stroke="#000000" d="M3978.904-2150.602c-2.186,1.531-3.099,2.316-3.563,5.093
		c-0.599,3.588,0.069,4.062-1.401,7.253c-3.43,7.444-9.984,13.823-13.904,21.081c0.53-10.436-6.34-9.065-12.701-14.191
		c-4.877-3.93-10.213-10.931-13.24-16.181c-1.598-2.771-3.49-6.797-4.199-10.071c-0.564-2.608,0.121-9.117-1.506-11.214
		c-1.635-2.107-7.617-3.021-10.096-4.161c-3.549-1.633-7.018-3.249-10.678-4.738c-7.42-3.022-13.752-0.485-20.764-3.04
		c-8.555-3.116-12.066,4.165-11.412,12.26c-3.039,0.843-4.814,3.752-7.61,4.881c-2.655,1.071-4.409,0.27-7.211,0.708
		c-5.653,0.883-8.349,5.099-10.021,10.272c-1.246,3.85,0.166,8.382-1.137,12.132c-1.084,3.124-3.879,5.02-4.595,8.645
		c-2.794,14.154,19.452,20.622,22.915,33.722c1.33,5.029,0.263,6.715,3.792,10.569c2.673,2.918,5.991,4.476,8.938,6.857
		c6.215,5.024,9.588,12.281,10.796,19.746c1.322,8.182-0.649,17.417,6.657,22.406c6.973,4.761,11.729,6.637,15.363,14.144
		c1.509,3.115,2.895,5.234,3.592,8.771c0.365,1.857,0.127,3.703,0.357,5.613c0.002,0.011,0.002,0.022,0.004,0.033
		c0.929,7.698,19.032,9.55,25.061,14.088c3.886,2.927,11.398,14.421,16.505,14.317c3.2-0.065,6.536-5.9,8.87-7.821
		c3.34-2.747,6.954-4.219,9.064-8.165c5.334-9.974,5.508-22.886,10.398-33.33c1.963-4.192,3.763-7.438,4.961-11.723
		c0.599-2.141-0.66-2.07,0.884-4.204c1.091-1.508,3.414-2.21,4.834-3.298c5.741-4.394,11.261-8.294,17.327-11.724
		c2.977-1.682,7.968-2.487,10.465-4.809c5.51-5.121,7.649-19.886,18.345-18.309c0.907-4.843,5.206-4.283,8.745-6.135
		c3.479-1.82,8.754-5.42,11.215-8.556c5.023-6.396,6.359-16.65,7.116-24.442c1.38-14.196-1.299-34.795-15.149-42.39
		c-7.059-3.87-18.646-8.176-22.633-16.091c-7.794,3.427-15.301,7.751-23.318,10.994c-5.974,2.418-14.041,2.918-17.656,9.014
		c-1.799,3.039-0.901,6.251-3.553,8.61C3986.254-2151.755,3981.686-2152.55,3978.904-2150.602z"/>
	<path opacity="0.4" fill="#FFFFFF" stroke="#000000" d="M3969.229-2102.735c-1.336,2.649-2.83,6.224-6.223,4.978
		c-2.929-1.076-3.034-6.007-4.331-9.191c-0.621-1.526-1.631-2.278-2.188-3.946c-0.66-1.98,1.285-1.876-0.609-4.458
		c-1.615-2.201-7.588-4.858-10.071-6.224c-6.243-3.436-12.226-6.469-15.163-13.355c-1.599-3.744-0.137-8.458-1.77-11.978
		c-1.262-2.721-5.083-5.596-7.385-7.383c-7.658-5.944-9.561-10.284-13.381-19.032c-7.623,1.845-17.329,0.873-22.908,4.392
		c-3.99,2.515-4.553,6.161-7.491,9.305c-1.94,2.076-6.819,4.859-9.429,6.365c-6.748,3.896-16.471,4.703-10.951,14.274
		c3.851,6.679,7.115,13.291,9.931,20.582c3.073,7.959,8.403,22.41,16.347,26.453c0.22,2.746,5.204,5.165,6.58,8.57
		c1.538,3.807-0.194,9.336,1.107,12.248c1.371,3.068,5.486,3.565,7.623,7.012c2.596,4.186,2.086,8.455,4.243,12.821
		c1.549,3.137,4.972,5.786,6.108,8.023c1.354,2.666-0.626,5.782,2.012,8.667c1.729,1.891,7.122,3.324,9.547,4.685
		c3.951,2.215,7.396,5.24,11.342,7.524c5.17,2.992,9.32,5.735,13.85,9.775c3.543,3.158,6.475,14.971,12.918,12.41
		c-1.439-9.451,8.868-15.953,12.977-23.474c3.533-6.466,8.008-13.606,9.526-20.494c1.572-7.13,2.575-15.831,9.204-20.764
		c2.969-2.209,6.248-3.111,9.649-4.062c2.288-0.64,3.001-0.492,4.71-1.514c0.967-0.58,2.363-2.442,3.438-3.207
		c0.42-0.299,1.111,0.325,1.398,0.458c3.678-2.925,5.889-7.111,8.416-11.015c1.48-2.286,1.779-3.887,4.445-4.694
		c2.342-0.71,4.517,0.975,6.654-0.375c1.492-0.944,2.418-4.255,3.863-5.619c4.369-4.123,12.018-1.732,15.337-5.598
		c3.38-3.938,3.606-16.76,5.19-22.021c1.185-3.936,2.741-6.062,4.723-9.546c2.045-3.593,1.596-6.829,2.535-10.82
		c0.713-3.034,3.918-8.338,2.062-11.341c-1.683-2.719-7.444-3.062-9.939-4.32c-5.721-2.884-10.687-10.205-16.145-12.37
		c-3.669-1.456-5.837,1.478-8.544,2.199c-3.188,0.849-5.873-0.217-8.666,2.026c-3.381,2.715-6.876,10.578-8.365,14.551
		c-11.506-1.295-20.615,8.742-26.72,17.162c-3.019,4.16-6.114,8.727-8.091,13.493
		C3974.08-2115.504,3972.201-2108.627,3969.229-2102.735z"/>
	<path opacity="0.4" fill="#FFFFFF" stroke="#000000" d="M3946.746-2030.426c2.44,4.276,5.345,13.753,11.419,11.316
		c7.16-2.871,10.895-17.979,14.028-24.162c3.948-7.792,7.404-17.63,14.03-23.69c11.091-10.147,22.383-18.881,30.539-31.177
		c3.489-5.261,9.919-12.071,15.549-14.917c4.449-2.251,16.395-5.89,16.93-11.844c0.493-5.483-9.973-14.37-13.129-18.203
		c-5.764-6.999-13.066-4.975-20.099-1.501c-6.515,3.219-12.979,5.782-19.25,9.153c-7.006,3.766-9.833,10.505-10.262,18.37
		c-5.508,3.569-10.046,11.539-14.294,16.755c-5.433,6.674-8.328,10.796-16.168,5.228c-5.323-3.778-10.516-8.329-14.387-13.609
		c-2.063-2.814-4.597-6.163-5.36-9.417c-1.431-6.1,0.13-5.091-6.197-6.507c-3.834-0.858-9.628-2.853-10.719-6.62
		c-1.211-4.188,2.788-8.428,0.151-12.346c-1.81-2.685-6.682-3.686-9.303-5.603c-3.922-2.866-4.422-5.116-5.705-9.46
		c-6.914-0.404-12.722-1.44-16.84,4.479c-4.167,5.99-10.598,5.944-15.118,10.27c-5.218,4.993-1.374,15.388,1.888,20.423
		c4.096,6.321,10.14,9.782,16.269,14.259c12.327,9,16.018,24.747,21.146,37.938c2.156,5.547,4.123,12.617,7.908,17.072
		c3.614,4.256,8.763,7.962,12.969,11.954C3937.35-2037.891,3943.788-2035.608,3946.746-2030.426z"/>
	<path opacity="0.4" fill="#FFFFFF" stroke="#000000" d="M3951.272-2082.791c-6.805-4.391-6.194-6.025-11.477-11.935
		c-5.003-5.597-4.919-12.452-10.413-17.557c-4.473-4.153-10.549-7.415-14.514-11.965c-2.961-3.4-2.656-4.162-7.229-5.502
		c-1.846-0.54-3.252,0.179-4.749-1.362c-1.581-1.627-0.417-4.287-1.376-5.753c-2.68-4.088-3.994-1.633-6.758,1.018
		c-2.082,1.996-5.99,4.304-7.129,7.017c-2.59,6.175,5.457,12.498,8.922,16.789c4.091,5.068,8.959,9.621,11.547,15.443
		c2.811,6.329,4.73,12.879,7.168,19.31c2.25,5.931,6.055,11.558,10.806,16.183c4.914,4.784,8.468,9.632,12.604,14.386
		c2.593,2.984,9.53,12.805,14.655,12.103c6.217-0.852,8.341-12.706,10.424-17.183c5.283-11.35,14.09-21.278,21.896-30.949
		c8.283-10.259,21.089-15.426,30.301-25.713c2.736-3.057,4.527-5.584,1.256-8.67c-1.378-1.299-3.762-0.87-5.23-1.897
		c-2.18-1.526-1.715-2.639-3.027-4.583c-4.656-6.902-10.676-3.275-14.895,3.438c-3.661,5.821-5.795,11.635-10.668,16.791
		c-4.396,4.649-8.066,12.613-12.645,15.911c-2.641,1.902-6.623,3.003-9.672,4.981c-3.115,2.019-7.053,5.279-9.154,0.125
		L3951.272-2082.791z"/>
	<path fill="#FFFFFF" stroke="#666666" d="M3936.469-2072.013c-5.602,5.432,9.846,15.107,14.428,19.69
		c3.549-4.719,11.068-8.384,13.75-13.749c4.582-9.166-9.166-13.749-13.75,0C3950.896-2066.072,3945.186-2080.463,3936.469-2072.013z
		"/>
	<circle fill="none" stroke="#000000" stroke-width="2" cx="3960" cy="-2088" r="180"/>
	<circle fill="#FFFFFF" stroke="#000000" stroke-width="2" cx="252" cy="-1944" r="180"/>
	<path fill="#FFFFFF" stroke="#000000" stroke-width="2" d="M683.048-1932.759c4.668-14.002,18.67-9.335,14.003,0
		c-2.73,5.463-10.389,9.197-14.003,14.002c-4.667-4.668-20.397-14.521-14.693-20.053
		C677.23-1947.416,683.048-1932.759,683.048-1932.759z M684-2124.001c-99.412,0-180,80.589-180,180c0,99.412,80.588,180,180,180
		s180-80.589,180-180C864-2043.412,783.412-2124.001,684-2124.001z"/>
	<path fill="#FFFFFF" stroke="#000000" stroke-width="2" d="M3274.553-2000.413c0-36.118,31.312-65.344,70.011-65.344l0,0
		c44.601-3.63,87.856,40.938,60.676,93.349c-25.354,48.895-130.687,177.363-130.687,177.363s-126.457-163.943-131.805-177.363
		c-19.109-47.961,0.275-92.961,52.457-93.349C3236.953-2066.066,3274.553-2036.531,3274.553-2000.413L3274.553-2000.413z
		 M3276-2124.001c-99.412,0-180,80.589-180,180s80.588,180,180,180s180-80.589,180-180S3375.412-2124.001,3276-2124.001z"/>
	<path fill="#FFFFFF" stroke="#000000" stroke-width="2" d="M2843.546-1989.604c0.894-4.667,6.769-7.5,10.257-16.595
		c2.443-6.371,3.294-14.435,7.233-20.341c4.526-6.787,13.68-5.697,20.481-8.081c7.705-2.7,11.31-7.015,17.646-12.419
		c4.373-3.729,12.932-6.685,18.701-4.688c5.1,1.765,4.912,6.72,8.512,10.574c6.937,7.43,18.295,8.854,27.518,11.734
		c9.746,3.044,4.494,11.576,7.503,19.591c2.995,7.979,13.376,8.314,14.404,17.102c0.704,6.011-4.365,17.367-7.663,22.453
		c-4.519,6.968-6.934,16.131-11.915,22.53c-4.019,5.162-10.68,7.826-16.74,9.499c-9.351,2.581-14.46,8.842-21.206,14.922
		c-6.037,5.441-14.956,6.7-19.371,14.077c-2.576,4.303-1.104,19.954-2.981,24.401c-7.487,17.737-17.131,22.627-27.777,38.75
		c-4.026,6.099-6.267,21.32-11.636,26.594c-2.129,2.09-11.771,11.832-14.538,12.965c-0.716,0.292-6.519-10.74-6.862-10.839
		c-2.684-0.773-3.229-4.421-4.053-6.767c-2.111-6.022-3.538-11.895-9.27-15.585c-7.811-5.024-19.428-7.233-23.35-15.429
		c-5.023-10.5-7.084-18.279-15.742-22.601c-3.954-1.974-2.061-6.749-4.105-10.716c-2.254-4.371-6.8-6.744-9.794-10.418
		c-3.118-3.827-4.095-8.594-6.27-12.923c-2.368-4.713-5.904-7.92-10.358-10.761c-4.224-2.694-8.519-3.616-9.75-8.946
		c-1.046-4.528,1.604-11.292-0.578-15.318c-1.505-2.777-6.814-5.271-9.409-6.935c-6.909-4.428-14.388-14.566-14.388-14.566
		c0.388-8.169-3.075-7.899,0-9.334c3.658-1.709,2.586-0.654,2.592-4.668c0.009-6.182-2.838-15.964-0.17-21.729
		c1.916-4.132,7.496-6.516,9.911-10.542c1.917-3.195,1.827-7.158,2.719-10.746c2.151-8.626,8.394-11.191,13.067-18.074
		c2.062-3.037,4.222-5.575,7.664-6.327c4.26-0.931,8.74,1.705,12.963,0.401c7.548-2.331,9.088-10.646,18.556-7.016
		c6.645,2.548,11.759,9.214,18.267,12.836c6.432,3.579,16.034,4.922,18.668,12.94c0.684,2.082-0.194,4.745,0.598,6.666
		c0.58,1.409,2.99,2.747,3.679,4.655c1.694,4.694,0.218,6.255,4.141,9.814C2837.516-2003.278,2840.365-1997.7,2843.546-1989.604
		 M2844-2124.001c-99.412,0-180,80.589-180,180c0,99.412,80.588,180,180,180s180-80.589,180-180
		C3024-2043.412,2943.412-2124.001,2844-2124.001z"/>
	<path fill="#FFFFFF" stroke="#000000" stroke-width="2" d="M2441.291-2011.202c2.701-2.402,1.787-5.674,3.62-8.769
		c3.681-6.208,11.896-6.718,17.981-9.18c8.164-3.303,15.81-7.707,23.747-11.197c4.062,8.061,15.861,12.447,23.05,16.388
		c14.106,7.734,16.836,28.714,15.43,43.171c-0.771,7.936-2.132,18.378-7.248,24.893c-2.507,3.194-7.878,6.86-11.421,8.713
		c-3.605,1.886-7.982,1.315-8.906,6.248c-10.894-1.606-13.072,13.431-18.683,18.646c-2.544,2.365-7.628,3.185-10.658,4.898
		c-6.178,3.493-11.801,7.464-17.646,11.939c-1.446,1.107-3.812,1.823-4.924,3.359c-1.572,2.173-0.29,2.102-0.899,4.281
		c-1.221,4.364-3.054,7.67-5.054,11.938c-4.98,10.637-5.156,23.787-10.589,33.945c-2.149,4.018-5.831,5.518-9.231,8.315
		c-2.377,1.956-5.775,7.899-9.033,7.965c-5.201,0.105-12.853-11.601-16.811-14.581c-6.139-4.622-24.576-6.508-25.521-14.347
		c-0.002-0.011-0.003-0.022-0.004-0.034c-0.234-1.945,0.008-3.825-0.365-5.717c-0.709-3.602-2.121-5.76-3.657-8.932
		c-3.701-7.646-8.546-9.557-15.646-14.405c-7.441-5.082-5.435-14.486-6.781-22.819c-1.229-7.603-4.664-14.993-10.994-20.109
		c-3.002-2.427-6.383-4.012-9.104-6.984c-3.595-3.926-2.508-5.643-3.861-10.764c-3.526-13.341-26.184-19.928-23.338-34.343
		c0.729-3.692,3.576-5.623,4.68-8.804c1.326-3.819-0.112-8.435,1.156-12.355c1.705-5.269,4.449-9.562,10.207-10.461
		c2.853-0.446,4.639,0.371,7.344-0.721c2.847-1.15,4.655-4.112,7.75-4.971c-0.666-8.244,2.91-15.66,11.622-12.486
		c7.142,2.602,13.591,0.019,21.146,3.096c3.729,1.518,7.261,3.163,10.875,4.826c2.524,1.162,8.616,2.092,10.281,4.237
		c1.657,2.136,0.958,8.765,1.534,11.421c0.722,3.334,2.648,7.435,4.276,10.257c3.083,5.347,8.517,12.477,13.485,16.48
		c6.479,5.22,13.475,3.825,12.936,14.453c3.991-7.392,10.666-13.888,14.159-21.469c1.499-3.25,0.817-3.733,1.428-7.387
		c0.473-2.828,1.402-3.628,3.628-5.188C2434.085-2009.739,2438.738-2008.93,2441.291-2011.202z M2412-2124.001
		c-99.412,0-180,80.589-180,180s80.588,180,180,180s180-80.589,180-180S2511.412-2124.001,2412-2124.001z"/>
	<path fill="#FFFFFF" stroke="#000000" stroke-width="2" d="M1996.899-1978.181c2.014-4.854,5.166-9.504,8.239-13.742
		c6.218-8.575,15.495-18.797,27.213-17.478c1.517-4.046,5.076-12.054,8.52-14.819c2.845-2.285,5.58-1.199,8.826-2.063
		c2.756-0.735,4.964-3.723,8.701-2.24c5.559,2.205,10.615,9.661,16.442,12.599c2.541,1.281,8.409,1.631,10.122,4.4
		c1.891,3.058-1.373,8.46-2.1,11.55c-0.957,4.064-0.499,7.36-2.581,11.02c-2.019,3.548-3.604,5.713-4.81,9.722
		c-1.613,5.358-1.844,18.416-5.287,22.427c-3.38,3.937-11.171,1.502-15.62,5.7c-1.471,1.389-2.413,4.762-3.934,5.723
		c-2.177,1.376-4.392-0.341-6.777,0.383c-2.715,0.822-3.02,2.452-4.527,4.78c-2.574,3.975-4.825,8.239-8.57,11.218
		c-0.293-0.136-0.996-0.771-1.425-0.466c-1.094,0.778-2.516,2.675-3.502,3.265c-1.739,1.041-2.465,0.89-4.795,1.542
		c-3.465,0.969-6.805,1.887-9.827,4.137c-6.751,5.024-7.772,13.886-9.374,21.147c-1.547,7.014-6.104,14.286-9.701,20.871
		c-4.186,7.66-14.683,14.281-13.218,23.907c-6.562,2.608-9.547-9.423-13.154-12.639c-4.614-4.114-8.841-6.909-14.106-9.956
		c-4.019-2.326-7.525-5.406-11.55-7.663c-2.47-1.386-7.963-2.846-9.723-4.771c-2.687-2.938-0.671-6.112-2.05-8.827
		c-1.157-2.278-4.643-4.976-6.221-8.171c-2.197-4.447-1.678-8.794-4.321-13.057c-2.176-3.511-6.367-4.017-7.765-7.142
		c-1.324-2.966,0.439-8.596-1.127-12.474c-1.4-3.468-6.478-5.931-6.701-8.728c-8.09-4.117-13.518-18.834-16.648-26.94
		c-2.866-7.425-6.191-14.159-10.113-20.961c-5.62-9.747,4.281-10.57,11.152-14.537c2.658-1.534,7.627-4.368,9.604-6.482
		c2.992-3.202,3.565-6.916,7.629-9.477c5.682-3.583,15.566-2.593,23.331-4.472c3.891,8.909,5.828,13.329,13.627,19.383
		c2.345,1.819,6.235,4.748,7.521,7.519c1.663,3.585,0.175,8.385,1.803,12.199c2.992,7.014,9.084,10.102,15.442,13.602
		c2.529,1.392,8.611,4.097,10.256,6.338c1.93,2.629-0.052,2.523,0.622,4.54c0.568,1.699,1.596,2.464,2.229,4.019
		c1.32,3.242,1.428,8.264,4.41,9.36c3.455,1.27,4.978-2.371,6.339-5.069C1992.427-1965.006,1994.34-1972.01,1996.899-1978.181z
		 M1980-2124c-99.412,0-180,80.589-180,180s80.588,180,180,180s180-80.589,180-180S2079.412-2124,1980-2124z"/>
	<path fill="#FFFFFF" stroke="#000000" stroke-width="2" d="M1518.113-1897.421c-4.283-4.065-9.527-7.839-13.208-12.174
		c-3.854-4.538-5.857-11.737-8.054-17.387c-5.223-13.435-8.981-29.472-21.535-38.638c-6.242-4.56-12.397-8.084-16.568-14.522
		c-3.321-5.128-7.237-15.715-1.922-20.8c4.603-4.406,11.152-4.36,15.396-10.459c4.194-6.029,10.108-4.973,17.15-4.562
		c1.307,4.425,1.815,6.716,5.81,9.635c2.671,1.952,7.633,2.971,9.475,5.705c2.686,3.991-1.387,8.309-0.153,12.574
		c1.11,3.837,7.012,5.868,10.916,6.742c6.443,1.442,4.854,0.414,6.312,6.626c0.778,3.314,3.357,6.725,5.459,9.591
		c3.943,5.377,9.232,10.013,14.652,13.86c7.985,5.67,10.934,1.472,16.467-5.325c4.325-5.313,8.947-13.43,14.559-17.064
		c0.435-8.009,3.314-14.874,10.448-18.708c6.388-3.433,12.971-6.043,19.605-9.322c7.162-3.538,14.599-5.599,20.469,1.529
		c3.215,3.904,13.874,12.954,13.372,18.538c-0.547,6.064-12.712,9.769-17.243,12.062c-5.732,2.9-12.281,9.835-15.835,15.193
		c-8.307,12.523-19.807,21.418-31.103,31.752c-6.746,6.172-10.267,16.192-14.288,24.127c-3.191,6.297-6.996,21.684-14.287,24.607
		c-6.187,2.482-9.144-7.17-11.63-11.525C1529.363-1890.642,1522.807-1892.966,1518.113-1897.421z M1548-2124
		c-99.412,0-180,80.589-180,180c0,99.412,80.588,180,180,180s180-80.589,180-180C1728-2043.411,1647.412-2124,1548-2124z"/>
	<path fill="#FFFFFF" stroke="#000000" stroke-width="2" d="M1107.768-1938.262c2.141,5.25,6.149,1.928,9.321-0.127
		c3.106-2.015,7.163-3.136,9.853-5.073c4.661-3.358,8.399-11.469,12.875-16.204c4.964-5.25,7.139-11.172,10.865-17.1
		c4.297-6.837,10.428-10.531,15.17-3.501c1.337,1.98,0.863,3.113,3.084,4.667c1.495,1.047,3.922,0.609,5.326,1.933
		c3.331,3.143,1.508,5.717-1.279,8.83c-9.383,10.478-22.424,15.739-30.858,26.188c-7.952,9.849-16.921,19.961-22.301,31.52
		c-2.122,4.56-4.284,16.633-10.616,17.5c-5.219,0.715-12.285-9.287-14.926-12.325c-4.211-4.843-7.832-9.78-12.834-14.651
		c-4.84-4.711-8.715-10.442-11.007-16.481c-2.481-6.55-4.437-13.221-7.3-19.666c-2.634-5.93-7.592-10.566-11.76-15.728
		c-3.528-4.371-11.724-10.81-9.085-17.099c1.158-2.764,5.139-5.114,7.259-7.146c2.816-2.7,4.154-5.201,6.884-1.037
		c0.977,1.493-0.21,4.202,1.4,5.859c1.524,1.57,2.957,0.836,4.836,1.387c4.658,1.365,4.347,2.141,7.362,5.603
		c4.038,4.635,10.227,7.957,14.781,12.186c5.596,5.199,5.511,12.181,10.605,17.881c5.379,6.019,4.758,7.683,11.688,12.154
		L1107.768-1938.262z M1116-2124c-99.412,0-180,80.589-180,180s80.588,180,180,180s180-80.589,180-180S1215.412-2124,1116-2124z"/>
</g>
</svg>
