<?xml version="1.0" encoding="utf-8"?>
<!-- Generator: Adobe Illustrator 14.0.0, SVG Export Plug-In  -->
<!DOCTYPE svg PUBLIC "-//W3C//DTD SVG 1.1//EN" "http://www.w3.org/Graphics/SVG/1.1/DTD/svg11.dtd" [
	<!ENTITY ns_flows "http://ns.adobe.com/Flows/1.0/">
]>
<svg version="1.1"
	 xmlns="http://www.w3.org/2000/svg" xmlns:xlink="http://www.w3.org/1999/xlink" xmlns:a="http://ns.adobe.com/AdobeSVGViewerExtensions/3.0/"
	 x="0px" y="0px" width="720px" height="720px" viewBox="-70.585 -72.038 720 720" enable-background="new -70.585 -72.038 720 720"
	 xml:space="preserve">
<defs>
</defs>
<polygon fill="#FFFFFF" stroke="#FF1744" stroke-width="2" points="217.414,1.414 289.414,73.414 361.415,1.414 451.415,91.414 
	451.415,127.414 487.415,127.414 577.415,217.414 505.415,289.414 577.415,361.414 487.415,451.414 451.415,451.414 
	451.415,487.414 361.415,577.414 289.414,505.414 217.414,577.414 127.414,487.414 127.414,451.414 91.414,451.414 1.414,361.414 
	73.414,289.414 1.414,217.414 91.414,127.414 127.414,127.414 127.414,91.414 "/>
<line fill="#FFFFFF" stroke="#7C7C7C" stroke-width="2" stroke-miterlimit="5" stroke-dasharray="9.3913,9.3913,4.6957,9.3913,4.6957,9.3913" x1="127.414" y1="127.414" x2="451.415" y2="451.414"/>
<line fill="#FFFFFF" stroke="#7C7C7C" stroke-width="2" stroke-miterlimit="5" stroke-dasharray="9.3913,9.3913,4.6957,9.3913,4.6957,9.3913" x1="451.415" y1="127.414" x2="127.414" y2="451.414"/>
<polygon fill="none" stroke="#00BCD4" stroke-width="2" points="226.414,37.414 289.414,100.414 352.415,37.414 431.165,116.164 
	431.165,147.664 462.665,147.664 541.415,226.414 478.415,289.414 541.415,352.414 462.665,431.164 431.165,431.164 
	431.165,462.664 352.415,541.414 289.414,478.414 226.414,541.414 147.664,462.664 147.664,431.164 116.164,431.164 37.414,352.414 
	100.414,289.414 37.414,226.414 116.164,147.664 147.664,147.664 147.664,116.164 "/>
<line fill="none" stroke="#7C7C7C" stroke-width="2" stroke-miterlimit="5" stroke-dasharray="8.2174,8.2174,4.1087,8.2174,4.1087,8.2174" x1="147.664" y1="147.664" x2="431.165" y2="431.164"/>
<line fill="none" stroke="#7C7C7C" stroke-width="2" stroke-miterlimit="5" stroke-dasharray="8.2174,8.2174,4.1087,8.2174,4.1087,8.2174" x1="431.165" y1="147.664" x2="147.664" y2="431.164"/>
<polygon fill="none" stroke="#FFEB3B" stroke-width="2" points="235.414,73.414 289.414,127.414 343.415,73.414 410.915,140.914 
	410.915,167.914 437.915,167.914 505.415,235.414 451.415,289.414 505.415,343.414 437.915,410.914 410.915,410.914 
	410.915,437.914 343.415,505.414 289.414,451.414 235.414,505.414 167.914,437.914 167.914,410.914 140.914,410.914 73.414,343.414 
	127.414,289.414 73.414,235.414 140.914,167.914 167.914,167.914 167.914,140.914 "/>
<line fill="none" stroke="#7C7C7C" stroke-width="2" stroke-miterlimit="5" stroke-dasharray="7.0435,7.0435,3.5217,7.0435,3.5217,7.0435" x1="167.914" y1="167.914" x2="410.915" y2="410.914"/>
<line fill="none" stroke="#7C7C7C" stroke-width="2" stroke-miterlimit="5" stroke-dasharray="7.0435,7.0435,3.5217,7.0435,3.5217,7.0435" x1="410.915" y1="167.914" x2="167.914" y2="410.914"/>
<line fill="none" stroke="#7C7C7C" stroke-width="2" stroke-miterlimit="5" stroke-dasharray="2,2,2,2,2,2" x1="73.414" y1="289.414" x2="505.415" y2="289.414"/>
</svg>
