<?xml version="1.0" encoding="utf-8"?>
<!-- Generator: Adobe Illustrator 14.0.0, SVG Export Plug-In  -->
<!DOCTYPE svg PUBLIC "-//W3C//DTD SVG 1.1//EN" "http://www.w3.org/Graphics/SVG/1.1/DTD/svg11.dtd" [
	<!ENTITY ns_flows "http://ns.adobe.com/Flows/1.0/">
]>
<svg version="1.1"
	 xmlns="http://www.w3.org/2000/svg" xmlns:xlink="http://www.w3.org/1999/xlink" xmlns:a="http://ns.adobe.com/AdobeSVGViewerExtensions/3.0/"
	 x="0px" y="0px" width="720px" height="720px" viewBox="-183.306 -170.817 720 720"
	 enable-background="new -183.306 -170.817 720 720" xml:space="preserve">
<defs>
</defs>
<polygon fill="#FFFFFF" stroke="#000000" stroke-width="2" stroke-miterlimit="5" points="299.247,44.616 361.211,153.208 
	338.874,276.223 242.689,356.103 117.665,355.467 22.3,274.616 1.214,151.379 64.277,43.421 181.979,1.258 "/>
<path fill="none" stroke="#000000" stroke-width="2" d="M179.431,191.79c0,0-80.893-87.837,2.664-191.161"/>
<path fill="none" stroke="#000000" stroke-width="2" d="M174.391,188.902c0,0-5.701-119.275,124.68-144.93"/>
<path fill="none" stroke="#000000" stroke-width="2" d="M173.412,183.248c0,0,72.518-94.87,188.739-30.451"/>
<path fill="none" stroke="#000000" stroke-width="2" d="M173.009,179.207c0,0,116.288-27.14,165.058,96.47"/>
<path fill="none" stroke="#000000" stroke-width="2" d="M180.343,174.959c0,0,106.118,54.754,63.081,180.473"/>
<path fill="none" stroke="#000000" stroke-width="2" d="M186.039,176.218c0,0,45.918,110.23-67.971,178.689"/>
<path fill="none" stroke="#000000" stroke-width="2" d="M188.69,181.087c0,0-35.76,113.93-166.994,93.074"/>
<path fill="none" stroke="#000000" stroke-width="2" d="M188.566,187.689c0,0-100.52,64.459-187.812-35.728"/>
<path fill="none" stroke="#000000" stroke-width="2" d="M186.957,191.361c0,0-118.485-14.847-121.392-147.696"/>
</svg>
