<?xml version="1.0" encoding="utf-8"?>
<!-- Generator: Adobe Illustrator 14.0.0, SVG Export Plug-In  -->
<!DOCTYPE svg PUBLIC "-//W3C//DTD SVG 1.1//EN" "http://www.w3.org/Graphics/SVG/1.1/DTD/svg11.dtd" [
	<!ENTITY ns_flows "http://ns.adobe.com/Flows/1.0/">
]>
<svg version="1.1"
	 xmlns="http://www.w3.org/2000/svg" xmlns:xlink="http://www.w3.org/1999/xlink" xmlns:a="http://ns.adobe.com/AdobeSVGViewerExtensions/3.0/"
	 x="0px" y="0px" width="738px" height="738px" viewBox="-24.266 -27.259 738 738" enable-background="new -24.266 -27.259 738 738"
	 xml:space="preserve">
<defs>
</defs>
<polygon fill="#FFFFFF" stroke="#FF1744" stroke-width="2" stroke-miterlimit="5" stroke-dasharray="9.3913,9.3913,4.6957,9.3913,4.6957,9.3913" points="
	466.096,192.205 528.06,300.796 505.723,423.812 409.538,503.69 284.514,503.056 189.148,422.204 168.062,298.968 231.126,191.009 
	348.828,148.846 "/>
<path fill="#FFFFFF" stroke="#FF1744" stroke-width="2" d="M348.828,148.846C349.457,12.852,468.759,1.044,468.759,1.044
	s80.894,87.836-2.663,191.161"/>
<path fill="#FFFFFF" stroke="#FF1744" stroke-width="2" d="M465.696,192.057c87.729-103.916,186.82-36.439,186.82-36.439
	s5.701,119.276-124.68,144.931"/>
<path fill="#FFFFFF" stroke="#FF1744" stroke-width="2" d="M528.129,300.855c134.053-22.907,166.324,92.552,166.324,92.552
	s-72.518,94.869-188.739,30.451"/>
<path fill="#FFFFFF" stroke="#FF1744" stroke-width="2" d="M409.112,503.763c46.063,127.957-61.946,179.979-61.946,179.979
	s-106.118-54.754-63.081-180.473"/>
<path fill="#FFFFFF" stroke="#FF1744" stroke-width="2" d="M284.492,503.114c-47.169,127.555-163.3,97.791-163.3,97.791
	s-45.918-110.23,67.971-178.689"/>
<path fill="#FFFFFF" stroke="#FF1744" stroke-width="2" d="M189.036,422.29C70.864,489.601,1.104,392.103,1.104,392.103
	s35.76-113.931,166.994-93.075"/>
<path fill="#FFFFFF" stroke="#FF1744" stroke-width="2" d="M167.942,299.293C34.111,275.12,43.141,155.577,43.141,155.577
	s100.52-64.459,187.813,35.728"/>
<path fill="#FFFFFF" stroke="#FF1744" stroke-width="2" d="M230.989,191.561C143.665,87.302,227.142,1.257,227.142,1.257
	s118.485,14.847,121.392,147.696"/>
<path fill="#FFFFFF" stroke="#FF1744" stroke-width="2" d="M505.714,423.858c118.044,67.531,68.444,176.225,68.444,176.225
	s-116.288,27.139-165.058-96.471"/>
<polygon fill="none" stroke="#00BCD4" stroke-width="2" points="202.741,417.532 202.291,248.138 348.767,163.051 495.691,247.358 
	496.143,416.755 349.666,501.841 "/>
<path fill="#FFFFFF" stroke="#00BCD4" stroke-width="2" d="M348.701,163.167c40.878-123.852,145.934-84.145,145.934-84.145
	s89.071,69.481,1.057,168.336"/>
<path fill="#FFFFFF" stroke="#00BCD4" stroke-width="2" d="M495.52,247.414c127.692-26.552,145.858,84.276,145.858,84.276
	s-15.611,111.883-145.235,85.118"/>
<path fill="#FFFFFF" stroke="#00BCD4" stroke-width="2" d="M496.032,416.944c87.179,97.004,0.53,168.455,0.53,168.455
	s-105.231,41.855-147.3-83.639"/>
<path fill="#FFFFFF" stroke="#00BCD4" stroke-width="2" d="M349.262,501.761c-40.977,123.818-145.999,84.029-145.999,84.029
	s-89.019-69.551-0.926-168.336"/>
<path fill="#FFFFFF" stroke="#00BCD4" stroke-width="2" d="M201.871,417.187C74.028,443.001,56.503,332.07,56.503,332.07
	s16.255-111.792,145.723-84.278"/>
<path fill="#FFFFFF" stroke="#00BCD4" stroke-width="2" d="M202.245,248.22c-86.73-97.406,0.248-168.454,0.248-168.454
	s104.747-42.305,146.236,83.384"/>
<polygon fill="#FFFFFF" stroke="#00BCD4" stroke-width="2" stroke-miterlimit="5" stroke-dasharray="9.3913,9.3913,4.6957,9.3913,4.6957,9.3913" points="
	202.675,417.647 202.225,248.254 348.701,163.167 495.625,247.474 496.076,416.868 349.601,501.956 "/>
<circle fill="#FFFFFF" stroke="#FFEB3B" stroke-width="2" cx="349.164" cy="332.36" r="145.085"/>
<polygon fill="#FFFFFF" stroke="#FFEB3B" stroke-width="2" stroke-miterlimit="5" stroke-dasharray="9.3913,9.3913,4.6957,9.3913,4.6957,9.3913" points="
	223.747,404.146 348.957,187.275 474.168,404.146 "/>
</svg>
