<?xml version="1.0" encoding="utf-8"?>
<!-- Generator: Adobe Illustrator 14.0.0, SVG Export Plug-In  -->
<!DOCTYPE svg PUBLIC "-//W3C//DTD SVG 1.1//EN" "http://www.w3.org/Graphics/SVG/1.1/DTD/svg11.dtd" [
	<!ENTITY ns_flows "http://ns.adobe.com/Flows/1.0/">
]>
<svg version="1.1"
	 xmlns="http://www.w3.org/2000/svg" xmlns:xlink="http://www.w3.org/1999/xlink" xmlns:a="http://ns.adobe.com/AdobeSVGViewerExtensions/3.0/"
	 x="0px" y="0px" width="720px" height="720px" viewBox="-71 -71 720 720" enable-background="new -71 -71 720 720"
	 xml:space="preserve">
<defs>
</defs>
<rect x="1" y="1" fill="#FFFFFF" stroke="#FF1744" stroke-width="2" stroke-miterlimit="5" width="576" height="576"/>
<line fill="none" stroke="#FF1744" stroke-width="2" stroke-miterlimit="5" stroke-dasharray="9.3913,9.3913,4.6957,9.3913,4.6957,9.3913" x1="1" y1="145" x2="577" y2="145"/>
<line fill="none" stroke="#FF1744" stroke-width="2" stroke-miterlimit="5" stroke-dasharray="9.3913,9.3913,4.6957,9.3913,4.6957,9.3913" x1="1" y1="289" x2="577" y2="289"/>
<line fill="none" stroke="#FF1744" stroke-width="2" stroke-miterlimit="5" stroke-dasharray="9.3913,9.3913,4.6957,9.3913,4.6957,9.3913" x1="1" y1="433" x2="577" y2="433"/>
<line fill="none" stroke="#FF1744" stroke-width="2" stroke-miterlimit="5" x1="145" y1="91" x2="145" y2="199"/>
<line fill="none" stroke="#FF1744" stroke-width="2" stroke-miterlimit="5" stroke-dasharray="9.3913,9.3913,4.6957,9.3913,4.6957,9.3913" x1="145" y1="1" x2="145" y2="100"/>
<line fill="none" stroke="#FF1744" stroke-width="2" stroke-miterlimit="5" stroke-dasharray="9.3913,9.3913,4.6957,9.3913,4.6957,9.3913" x1="289" y1="1" x2="289" y2="577"/>
<line fill="none" stroke="#FF1744" stroke-width="2" stroke-miterlimit="5" stroke-dasharray="9.3913,9.3913,4.6957,9.3913,4.6957,9.3913" x1="433" y1="100" x2="433" y2="1"/>
<line fill="none" stroke="#FF1744" stroke-width="2" stroke-miterlimit="5" x1="433" y1="199" x2="433" y2="91"/>
<line fill="none" stroke="#FF1744" stroke-width="2" stroke-miterlimit="5" stroke-dasharray="9.3913,9.3913,4.6957,9.3913,4.6957,9.3913" x1="145" y1="190" x2="145" y2="577"/>
<line fill="none" stroke="#FF1744" stroke-width="2" stroke-miterlimit="5" stroke-dasharray="9.3913,9.3913,4.6957,9.3913,4.6957,9.3913" x1="433" y1="577" x2="433" y2="190"/>
<line fill="none" stroke="#FF1744" stroke-width="2" stroke-miterlimit="5" stroke-dasharray="9.3913,9.3913,4.6957,9.3913,4.6957,9.3913" x1="1" y1="91" x2="145" y2="145"/>
<line fill="none" stroke="#FF1744" stroke-width="2" stroke-miterlimit="5" stroke-dasharray="2,2,2,2,2,2" x1="1" y1="199" x2="145" y2="145"/>
<line fill="none" stroke="#FF1744" stroke-width="2" stroke-miterlimit="5" stroke-dasharray="9.3913,9.3913,4.6957,9.3913,4.6957,9.3913" x1="433" y1="145" x2="577" y2="91"/>
<line fill="none" stroke="#FF1744" stroke-width="2" stroke-miterlimit="5" stroke-dasharray="2,2,2,2,2,2" x1="433" y1="145" x2="577" y2="199"/>
<line fill="none" stroke="#FF1744" stroke-width="2" stroke-miterlimit="5" stroke-dasharray="2,2,2,2,2,2" x1="145" y1="433" x2="1" y2="523"/>
<line fill="none" stroke="#FF1744" stroke-width="2" stroke-miterlimit="5" stroke-dasharray="9.3913,9.3913,4.6957,9.3913,4.6957,9.3913" x1="145" y1="433" x2="1" y2="343"/>
<line fill="none" stroke="#FF1744" stroke-width="2" stroke-miterlimit="5" stroke-dasharray="9.3913,9.3913,4.6957,9.3913,4.6957,9.3913" x1="433" y1="433" x2="577" y2="343"/>
<line fill="none" stroke="#FF1744" stroke-width="2" stroke-miterlimit="5" stroke-dasharray="2,2,2,2,2,2" x1="433" y1="433" x2="577" y2="523"/>
<path fill="none" stroke="#FF1744" stroke-width="2" stroke-miterlimit="5" d="M10.121,82c3.454-3.681,2.727-10.519,0-14.2
	s-3.272-10.782,0-14.2c3.271-3.418,2.363-10.519,0-14.199c-2.363-3.682-2.545-10.256,0-14.201c2.545-3.944,3.09-10.255,0-14.2"/>
<path fill="none" stroke="#FF1744" stroke-width="2" stroke-miterlimit="5" d="M282,281.782c-6.727-3.455-19.222-2.727-25.949,0
	c-6.727,2.727-19.703,3.272-25.949,0c-6.246-3.272-19.223-2.364-25.948,0c-6.729,2.363-18.742,2.545-25.95,0
	c-7.207-2.545-18.74-3.09-25.949,0"/>
<path fill="none" stroke="#FF1744" stroke-width="2" stroke-miterlimit="5" d="M426.01,281.782c-6.727-3.455-19.222-2.727-25.949,0
	c-6.727,2.727-19.703,3.272-25.949,0c-6.246-3.272-19.223-2.364-25.948,0c-6.729,2.363-18.742,2.545-25.95,0
	c-7.207-2.545-18.74-3.09-25.949,0"/>
</svg>
