<?xml version="1.0" encoding="utf-8"?>
<!-- Generator: Adobe Illustrator 14.0.0, SVG Export Plug-In  -->
<!DOCTYPE svg PUBLIC "-//W3C//DTD SVG 1.1//EN" "http://www.w3.org/Graphics/SVG/1.1/DTD/svg11.dtd" [
	<!ENTITY ns_flows "http://ns.adobe.com/Flows/1.0/">
]>
<svg version="1.1"
	 xmlns="http://www.w3.org/2000/svg" xmlns:xlink="http://www.w3.org/1999/xlink" xmlns:a="http://ns.adobe.com/AdobeSVGViewerExtensions/3.0/"
	 x="0px" y="0px" width="3382px" height="720px" viewBox="-70.961 -70.842 3382 720"
	 enable-background="new -70.961 -70.842 3382 720" xml:space="preserve">
<defs>
</defs>
<rect x="73" y="1" fill="#FFFFFF" stroke="#000000" stroke-width="2" stroke-miterlimit="5" width="576" height="576"/>
<line fill="none" stroke="#474747" stroke-width="2" stroke-miterlimit="5" stroke-dasharray="9.3913,9.3913,4.6957,9.3913,4.6957,9.3913" x1="73" y1="145" x2="649" y2="145"/>
<line fill="none" stroke="#474747" stroke-width="2" stroke-miterlimit="5" stroke-dasharray="9.3913,9.3913,4.6957,9.3913,4.6957,9.3913" x1="73" y1="289" x2="649" y2="289"/>
<line fill="none" stroke="#474747" stroke-width="2" stroke-miterlimit="5" stroke-dasharray="9.3913,9.3913,4.6957,9.3913,4.6957,9.3913" x1="73" y1="433" x2="649" y2="433"/>
<line fill="none" stroke="#474747" stroke-width="2" stroke-miterlimit="5" stroke-dasharray="9.3913,9.3913,4.6957,9.3913,4.6957,9.3913" x1="217" y1="1" x2="217" y2="100"/>
<line fill="none" stroke="#474747" stroke-width="2" stroke-miterlimit="5" stroke-dasharray="9.3913,9.3913,4.6957,9.3913,4.6957,9.3913" x1="361" y1="1" x2="361" y2="577"/>
<line fill="none" stroke="#474747" stroke-width="2" stroke-miterlimit="5" stroke-dasharray="9.3913,9.3913,4.6957,9.3913,4.6957,9.3913" x1="505" y1="100" x2="505" y2="1"/>
<line fill="none" stroke="#474747" stroke-width="2" stroke-miterlimit="5" stroke-dasharray="9.3913,9.3913,4.6957,9.3913,4.6957,9.3913" x1="217" y1="190" x2="217" y2="577"/>
<line fill="none" stroke="#474747" stroke-width="2" stroke-miterlimit="5" stroke-dasharray="9.3913,9.3913,4.6957,9.3913,4.6957,9.3913" x1="505" y1="577" x2="505" y2="190"/>
<g>
	<g>
		<path fill="none" stroke="#999999" stroke-width="2" stroke-miterlimit="5" d="M55,541c-29.823,0-54-32.235-54-72s24.177-72,54-72
			"/>
		<path fill="#999999" d="M53.389,397c-4.176-4.176-6.172-12.445-6.334-18.178c5.73,7.697,13.182,14.41,22.188,18.178
			c-9.006,3.602-16.129,10.727-22.188,18.178C47.545,409.035,49.049,401.586,53.389,397z"/>
	</g>
</g>
<g>
	<g>
		<path fill="none" stroke="#666666" stroke-width="2" stroke-miterlimit="5" d="M1432,379c-29.823,0-54-32.235-54-72
			s24.177-72,54-72"/>
		<path fill="#666666" d="M1430.389,235c-4.176-4.176-6.172-12.445-6.334-18.178c5.73,7.697,13.182,14.41,22.188,18.178
			c-9.006,3.602-16.129,10.727-22.188,18.178C1424.545,247.035,1426.049,239.586,1430.389,235z"/>
	</g>
</g>
<g>
	<g>
		<path fill="none" stroke="#999999" stroke-width="2" stroke-miterlimit="5" d="M55,37C25.177,37,1,69.235,1,109s24.177,72,54,72"
			/>
		<path fill="#999999" d="M53.389,181c-4.176-4.176-6.172-12.445-6.334-18.178c5.73,7.697,13.182,14.41,22.188,18.178
			c-9.006,3.602-16.129,10.727-22.188,18.178C47.545,193.035,49.049,185.586,53.389,181z"/>
	</g>
</g>
<rect x="2737" y="190" fill="#FFFFFF" stroke="#000000" stroke-width="2" stroke-miterlimit="5" width="288" height="144"/>
<rect x="2737" y="244" fill="#FFFFFF" stroke="#000000" stroke-width="2" stroke-miterlimit="5" width="288" height="90"/>
<polygon fill="#FFFFFF" stroke="#000000" stroke-width="2" stroke-miterlimit="5" points="2737,190 2881,244 3025,190 3025,334 
	2737,334 "/>
<polygon fill="#FFFFFF" stroke="#000000" stroke-width="2" stroke-miterlimit="5" points="2737,190 2881,280 3025,190 3025,334 
	2737,334 "/>
<line fill="none" stroke="#000000" stroke-width="2" stroke-miterlimit="5" x1="2881" y1="244" x2="2881" y2="334"/>
<line fill="none" stroke="#666666" stroke-width="2" stroke-miterlimit="5" stroke-dasharray="9.3913,9.3913,4.6957,9.3913,4.6957,9.3913" x1="2881" y1="190" x2="2881" y2="244"/>
<rect x="1585" y="145" fill="#FFFFFF" width="288" height="234"/>
<rect x="3098.519" y="190" fill="#FFFFFF" stroke="#000000" stroke-miterlimit="5" width="144" height="144"/>
<rect x="2232.961" y="244" fill="#FFFFFF" stroke="#000000" stroke-width="2" stroke-miterlimit="5" width="288" height="90"/>
<polygon display="none" fill="#FFFFFF" stroke="#606060" stroke-width="0.6172" stroke-miterlimit="5" points="2088.961,334 
	2232.961,334 2232.961,190 2088.961,280 "/>
<polyline fill="#FFFFFF" stroke="#000000" stroke-width="2" stroke-miterlimit="5" points="2232.961,190 2088.961,244 2088.961,334 
	2232.961,334 "/>
<line fill="#FFFFFF" stroke="#000000" stroke-width="2" stroke-miterlimit="5" stroke-dasharray="9.3913,9.3913,4.6957,9.3913,4.6957,9.3913" x1="2232.961" y1="334" x2="2232.961" y2="190"/>
<polygon display="none" fill="#FFFFFF" stroke="#606060" stroke-width="0.6172" stroke-miterlimit="5" points="2664.961,334 
	2520.961,334 2520.961,190 2664.961,280 "/>
<polyline fill="#FFFFFF" stroke="#000000" stroke-width="2" stroke-miterlimit="5" points="2520.961,190 2664.961,244 2664.961,334 
	2520.961,334 "/>
<line fill="#FFFFFF" stroke="#000000" stroke-width="2" stroke-miterlimit="5" stroke-dasharray="9.3913,9.3913,4.6957,9.3913,4.6957,9.3913" x1="2520.961" y1="334" x2="2520.961" y2="190"/>
<line fill="#FFFFFF" stroke="#000000" stroke-width="2" stroke-miterlimit="5" x1="1872.961" y1="289.001" x2="1584.961" y2="289.001"/>
<line fill="#FFFFFF" stroke="#000000" stroke-width="2" stroke-miterlimit="5" x1="1584.961" y1="145.001" x2="1872.961" y2="145.001"/>
<rect x="1584.961" y="289.001" fill="#FFFFFF" stroke="#000000" stroke-width="2" width="288" height="90"/>
<polyline fill="#FFFFFF" stroke="#000000" stroke-width="2" stroke-miterlimit="5" points="1584.961,145.001 1440.961,235.001 
	1440.961,289.001 1584.961,289.001 "/>
<polyline fill="#FFFFFF" stroke="#000000" stroke-width="2" stroke-miterlimit="5" points="1584.961,433.001 1440.961,379 
	1440.961,289.001 1584.961,289.001 "/>
<line fill="#FFFFFF" stroke="#666666" stroke-width="2" stroke-miterlimit="5" stroke-dasharray="9.3913,9.3913,4.6957,9.3913,4.6957,9.3913" x1="1584.961" y1="289.001" x2="1584.961" y2="433.001"/>
<polyline fill="#FFFFFF" stroke="#000000" stroke-width="0.6172" stroke-miterlimit="5" points="1872.961,145.001 2016.961,235.001 
	2016.961,289.001 1872.961,289.001 "/>
<polyline fill="#FFFFFF" stroke="#000000" stroke-width="2" stroke-miterlimit="5" points="1872.961,433.001 2016.961,379 
	2016.961,289.001 1872.961,289.001 "/>
<line fill="#FFFFFF" stroke="#666666" stroke-width="2" stroke-miterlimit="5" stroke-dasharray="9.3913,9.3913,4.6957,9.3913,4.6957,9.3913" x1="1872.961" y1="289.001" x2="1872.961" y2="433.001"/>
<rect x="1584.961" y="325.001" fill="#FFFFFF" stroke="#000000" stroke-width="2" stroke-miterlimit="5" width="288" height="54"/>
<polyline fill="#FFFFFF" stroke="#000000" stroke-width="2" stroke-miterlimit="5" points="2016.961,235.001 1936.062,274.438 
	1872.961,145 "/>
<polyline fill="#FFFFFF" stroke="#000000" stroke-width="2" stroke-miterlimit="5" points="1440.961,235.002 1521.86,274.439 
	1584.961,145.001 "/>
<rect x="865" y="145" fill="#FFFFFF" stroke="#000000" stroke-width="2" stroke-miterlimit="5" width="288" height="144"/>
<rect x="865" y="289" fill="#FFFFFF" stroke="#000000" stroke-width="2" stroke-miterlimit="5" width="288" height="144"/>
<rect x="721" y="145" fill="#FFFFFF" stroke="#000000" stroke-width="2" stroke-miterlimit="5" width="144" height="144"/>
<rect x="721" y="289" fill="#FFFFFF" stroke="#000000" stroke-width="2" stroke-miterlimit="5" width="144" height="144"/>
<rect x="1153" y="145" fill="#FFFFFF" stroke="#000000" stroke-width="2" stroke-miterlimit="5" width="144" height="144"/>
<rect x="1153" y="289" fill="#FFFFFF" stroke="#000000" stroke-width="2" stroke-miterlimit="5" width="144" height="144"/>
<line fill="#FFFFFF" stroke="#000000" stroke-width="2" stroke-miterlimit="5" x1="865" y1="433" x2="865" y2="379"/>
<line fill="#FFFFFF" stroke="#000000" stroke-width="2" stroke-miterlimit="5" x1="1153" y1="433" x2="865" y2="433"/>
<line fill="#FFFFFF" stroke="#000000" stroke-width="2" stroke-miterlimit="5" x1="1153" y1="379" x2="1153" y2="433"/>
<line fill="none" stroke="#666666" stroke-width="2" stroke-miterlimit="5" stroke-dasharray="9.3913,9.3913,4.6957,9.3913,4.6957,9.3913" x1="721" y1="235" x2="865" y2="145"/>
<line fill="none" stroke="#666666" stroke-width="2" stroke-miterlimit="5" stroke-dasharray="9.3913,9.3913,4.6957,9.3913,4.6957,9.3913" x1="1153" y1="145" x2="1297" y2="235"/>
<line fill="none" stroke="#666666" stroke-width="2" stroke-miterlimit="5" stroke-dasharray="2,2,2,2,2,2" x1="1153" y1="433" x2="1297" y2="379"/>
<line fill="none" stroke="#666666" stroke-width="2" stroke-miterlimit="5" stroke-dasharray="2,2,2,2,2,2" x1="721" y1="379" x2="865" y2="433"/>
<line fill="#FFFFFF" stroke="#666666" stroke-width="2" stroke-miterlimit="5" stroke-dasharray="9.3913,9.3913,4.6957,9.3913,4.6957,9.3913" x1="865" y1="379" x2="1153" y2="379"/>
<line fill="#FFFFFF" stroke="#000000" stroke-width="2" stroke-miterlimit="5" x1="2232.961" y1="190" x2="2520.961" y2="190"/>
<rect x="2233" y="190" fill="#FFFFFF" width="288" height="54"/>
<polyline fill="#FFFFFF" stroke="#000000" stroke-width="2" stroke-miterlimit="5" points="2520.961,190 2629.455,284.685 
	2664.961,244 "/>
<polyline fill="#FFFFFF" stroke="#000000" stroke-width="2" stroke-miterlimit="5" points="2232.961,190 2124.467,284.685 
	2088.961,244 "/>
<line fill="none" stroke="#666666" stroke-width="2" stroke-miterlimit="5" stroke-dasharray="9.3913,9.3913,4.6957,9.3913,4.6957,9.3913" x1="2377" y1="190" x2="2377" y2="244"/>
<path fill="none" stroke="#666666" stroke-width="2" stroke-miterlimit="5" d="M2369.966,327.326
	c-6.634-3.455-18.958-2.727-25.593,0c-6.635,2.727-19.433,3.272-25.594,0c-6.16-3.272-18.959-2.364-25.592,0
	c-6.637,2.363-18.485,2.545-25.594,0c-7.108-2.545-18.483-3.09-25.594,0"/>
<path fill="none" stroke="#666666" stroke-width="2" stroke-miterlimit="5" d="M2512,327.326c-6.635-3.455-18.958-2.727-25.593,0
	c-6.635,2.727-19.433,3.272-25.594,0c-6.16-3.272-18.959-2.364-25.592,0c-6.637,2.363-18.485,2.545-25.595,0
	c-7.107-2.545-18.482-3.09-25.593,0"/>
<g>
	<g>
		
			<path fill="none" stroke="#666666" stroke-width="2" stroke-miterlimit="5" stroke-dasharray="9.3913,9.3913,4.6957,9.3913,4.6957,9.3913" d="
			M2125,280c107.881,0,153-108,207-18"/>
		<path fill="#666666" d="M2331.171,260.618c1.433-5.729,7.497-11.695,12.329-14.784c-3.652,8.875-5.575,18.717-4.172,28.378
			c-7.723-5.87-17.496-8.312-27.003-9.674C2317.844,261.799,2325.006,259.256,2331.171,260.618z"/>
	</g>
</g>
<g>
	<g>
		
			<path fill="none" stroke="#666666" stroke-width="2" stroke-miterlimit="5" stroke-dasharray="9.3913,9.3913,4.6957,9.3913,4.6957,9.3913" d="
			M2629,279.813c-107.881,0-153-108-207-18"/>
		<path fill="#666666" d="M2422.829,260.432c5.729-1.433,13.847,1.11,18.847,3.921c-9.549,0.954-19.139,3.889-27.004,9.673
			c1.546-9.575-0.899-19.349-4.172-28.378C2415.516,249.229,2421.129,254.351,2422.829,260.432z"/>
	</g>
</g>
<line fill="#FFFFFF" stroke="#666666" stroke-width="2" stroke-miterlimit="5" stroke-dasharray="9.3913,9.3913,4.6957,9.3913,4.6957,9.3913" x1="1584.961" y1="289.001" x2="1584.961" y2="145.001"/>
<line fill="#FFFFFF" stroke="#666666" stroke-width="2" stroke-miterlimit="5" stroke-dasharray="9.3913,9.3913,4.6957,9.3913,4.6957,9.3913" x1="1872.961" y1="289.001" x2="1872.961" y2="145.001"/>
<line fill="none" stroke="#666666" stroke-width="2" stroke-miterlimit="5" stroke-dasharray="9.3913,9.3913,4.6957,9.3913,4.6957,9.3913" x1="1729" y1="145" x2="1729" y2="289"/>
<path fill="none" stroke="#666666" stroke-width="2" stroke-miterlimit="5" d="M1452.254,369c3.455-3.681,2.727-10.519,0-14.2
	s-3.271-10.782,0-14.2c3.272-3.418,2.363-10.519,0-14.199c-2.363-3.682-2.545-10.256,0-14.201c2.545-3.944,3.09-10.255,0-14.2"/>
<path fill="none" stroke="#666666" stroke-width="2" stroke-miterlimit="5" d="M2005.674,369c3.455-3.681,2.727-10.519,0-14.2
	s-3.271-10.782,0-14.2c3.272-3.418,2.363-10.519,0-14.199c-2.363-3.682-2.545-10.256,0-14.201c2.545-3.944,3.09-10.255,0-14.2"/>
</svg>
