<?xml version="1.0" encoding="utf-8"?>
<!-- Generator: Adobe Illustrator 14.0.0, SVG Export Plug-In . SVG Version: 6.00 Build 43363)  -->
<!DOCTYPE svg PUBLIC "-//W3C//DTD SVG 1.1//EN" "http://www.w3.org/Graphics/SVG/1.1/DTD/svg11.dtd">
<svg name="12" version="1.1" xmlns="http://www.w3.org/2000/svg" xmlns:xlink="http://www.w3.org/1999/xlink" x="0px" y="0px" width="300px"
	 height="300px" viewBox="0 0 300 300" enable-background="new 0 0 300 300" xml:space="preserve">
<g id="cluster_twelve">
	<g id="color_emphasis_11_">
		<path fill="none" stroke="#F0F3F2" stroke-width="4" d="M175.072,267.813c-8.048,1.736-16.4,2.65-24.967,2.65
			c-65.061,0-117.804-52.742-117.804-117.804c0-9.306,1.079-18.356,3.117-27.039"/>
		<path fill="none" stroke="#90A1B2" stroke-width="4" d="M242.444,79.499c15.943,20.096,25.465,45.516,25.465,73.161
			c0,56.497-39.768,103.701-92.837,115.153"/>
		<path fill="none" stroke="#3FA9ED" stroke-width="4" d="M35.419,125.621c12.221-52.029,58.93-90.765,114.687-90.765
			c37.417,0,70.759,17.444,92.339,44.643"/>
	</g>
	<g id="rhythm_10_" opacity="0.32">
		<g>
			<path fill="#FFFFFF" stroke="#2C2C2C" d="M152.954,148.133c47.6-46.585,95.198-93.169,142.798-139.754
				c1.347-1.317,2.694-2.636,4.042-3.953c-0.38,0.371-3.106,0.095-3.918,0.89c-47.601,46.584-95.2,93.169-142.799,139.753
				c-1.348,1.318-2.693,2.636-4.04,3.953C149.417,148.65,152.142,148.927,152.954,148.133L152.954,148.133z"/>
		</g>
		<g>
			<path fill="#FFFFFF" stroke="#2C2C2C" d="M145.674,150.089c-46.735,41.948-93.467,83.897-140.2,125.845
				c-1.323,1.188-2.645,2.374-3.968,3.562c0.372-0.335,2.928,0.035,3.725-0.682c46.734-41.949,93.468-83.896,140.199-125.847
				c1.324-1.187,2.646-2.373,3.97-3.559C149.024,149.744,146.469,149.373,145.674,150.089L145.674,150.089z"/>
		</g>
		<g>
			<path fill="#FFFFFF" stroke="#2C2C2C" d="M148.474,145.674C107.884,98.44,67.295,51.213,26.705,3.982
				c-1.149-1.336-2.298-2.672-3.449-4.01c0.326,0.377-0.096,2.903,0.598,3.709c40.592,47.23,81.181,94.46,121.772,141.688
				c1.148,1.339,2.296,2.674,3.445,4.012C148.744,149.001,149.168,146.477,148.474,145.674L148.474,145.674z"/>
		</g>
	</g>
	<g id="pattern_balance_8_">
		<g id="pattern_lines_out_10_">
			<g>
				<path fill="#FFFFFF" stroke="#2C2C2C" d="M150.758,146.768c0-47.977,0-95.952,0-143.928c0-1.357,0-2.715,0-4.072
					c0,0.383-1.516,1.646-1.516,2.465c0,47.977,0,95.952,0,143.928c0,1.357,0,2.715,0,4.072
					C149.242,148.85,150.758,147.586,150.758,146.768L150.758,146.768z"/>
			</g>
			<g>
				<path fill="#FFFFFF" stroke="#2C2C2C" d="M151.675,150.802c47.965,1.034,95.93,2.067,143.895,3.103
					c1.357,0.029,2.714,0.059,4.072,0.088c-0.383-0.008-1.614-1.551-2.433-1.568c-47.965-1.034-95.931-2.068-143.895-3.102
					c-1.357-0.03-2.714-0.06-4.071-0.089C149.626,149.242,150.856,150.784,151.675,150.802L151.675,150.802z"/>
			</g>
			<g>
				<path fill="#FFFFFF" stroke="#2C2C2C" d="M149.823,152.068c32.81,35.004,65.619,70.006,98.428,105.01
					c0.93,0.991,1.857,1.98,2.787,2.973c-0.264-0.279-0.021-2.238-0.582-2.836c-32.809-35.003-65.619-70.007-98.429-105.009
					c-0.929-0.991-1.856-1.981-2.784-2.972C149.505,149.514,149.263,151.473,149.823,152.068L149.823,152.068z"/>
			</g>
			<g>
				<path fill="#FFFFFF" stroke="#2C2C2C" d="M147.623,151.631c-2.069,47.933-4.136,95.863-6.204,143.795
					c-0.059,1.357-0.117,2.713-0.176,4.07c0.016-0.383,1.584-1.58,1.619-2.398c2.068-47.932,4.137-95.863,6.203-143.795
					c0.06-1.356,0.118-2.713,0.178-4.068C149.226,149.617,147.657,150.814,147.623,151.631L147.623,151.631z"/>
			</g>
			<g>
				<path fill="#FFFFFF" stroke="#2C2C2C" d="M146.88,147.564c-47.877-3.104-95.752-6.203-143.627-9.305
					c-1.355-0.087-2.71-0.175-4.066-0.262c0.383,0.023,1.546,1.617,2.363,1.67c47.877,3.101,95.752,6.202,143.628,9.301
					c1.355,0.089,2.709,0.177,4.065,0.266C148.858,149.209,147.696,147.615,146.88,147.564L146.88,147.564z"/>
			</g>
		</g>
		<g id="pattern_radial_11_">
			<polygon fill="none" stroke="#2C2C2C" stroke-width="0.5" points="104.681,144.682 120.697,113.961 150.758,108.53 
				180.831,119.857 187.638,150 174.105,174.198 147.521,189.112 118.555,174.198 			"/>
			<polygon fill="none" stroke="#2C2C2C" stroke-width="0.5" points="87.256,144.682 104.543,97.568 149.435,87.453 
				192.544,106.443 206.323,149.381 187.214,189.112 146.159,204.643 108.104,186.473 			"/>
			<polygon fill="none" stroke="#2C2C2C" stroke-width="0.5" points="54.553,141.583 87.256,76.283 150.758,56.042 214.955,87.453 
				233.087,151.232 212.237,216.44 142.818,240.916 82.878,209.117 			"/>
			<polygon fill="none" stroke="#2C2C2C" stroke-width="0.5" points="52.056,35.907 150.758,-1.232 258.606,41.789 299.642,153.992 
				250.456,257.215 142.862,297.098 38.15,246.604 1.55,139.668 			"/>
		</g>
	</g>
	<g id="contrast_11_">
		<polygon fill="#2C2C2C" fill-opacity="0.32" stroke="#FFFFFF" points="52.056,35.907 87.256,76.283 54.553,141.583 1.55,139.668 
					"/>
		<polygon fill="#2C2C2C" fill-opacity="0.32" stroke="#FFFFFF" points="150.758,-1.232 150.758,56.042 214.955,87.453 
			258.606,41.789 		"/>
		<polygon fill="#2C2C2C" fill-opacity="0.32" stroke="#FFFFFF" points="233.087,151.232 299.642,153.992 251.038,260.051 
			208.949,217.6 		"/>
		<polyline fill="#2C2C2C" fill-opacity="0.32" stroke="#FFFFFF" points="141.419,295.426 142.818,240.916 82.878,209.117 
			38.15,246.604 142.862,297.098 		"/>
	</g>
	<g id="movement_11_">
		<line display="none" fill="none" stroke="#2C2C2C" stroke-width="2" x1="150" y1="150" x2="300" y2="150"/>
		<line display="none" fill="none" stroke="#2C2C2C" stroke-width="2" x1="150" y1="150" x2="299.879" y2="143.973"/>
		<g>
			<g>
				<path fill="#2C2C2C" d="M300,149.5c-22.692-1.095-45.386-2.189-68.078-3.284c-1.236-0.06-2.691,0.49-3.892,0.726
					c-3.728,0.732-7.455,1.464-11.183,2.195c-3.364,0.66-6.729,1.32-10.093,1.98c-0.597,0.117-1.193,0.234-1.79,0.352
					c0.458-0.09-0.078-0.072-0.319-0.126c-0.625-0.141-1.25-0.281-1.875-0.421c-3.701-0.831-7.402-1.662-11.104-2.492
					c-1.486-0.334-3.261-1.065-4.805-0.979c-6.092,0.339-12.185,0.677-18.277,1.017c-6.194,0.344-12.39,0.688-18.585,1.033
					c-0.642,0.035-0.645,1.036,0,1c11.994-0.667,23.988-1.334,35.982-2.001c1.412-0.079,2.249,0.184,3.854,0.544
					c3.722,0.835,7.443,1.671,11.166,2.506c1.402,0.314,3.172,1.092,4.624,0.807c2.72-0.534,5.439-1.068,8.159-1.602
					c6.046-1.187,12.092-2.373,18.137-3.56c0.261-0.051,2.009,0.118,2.674,0.15c2.466,0.119,4.932,0.238,7.397,0.356
					c15.304,0.738,30.608,1.478,45.913,2.216c4.031,0.194,8.062,0.389,12.093,0.583C300.645,150.531,300.642,149.531,300,149.5
					L300,149.5z"/>
			</g>
		</g>
	</g>
</g>
</svg>
