<?xml version="1.0" encoding="utf-8"?>
<!-- Generator: Adobe Illustrator 14.0.0, SVG Export Plug-In . SVG Version: 6.00 Build 43363)  -->
<!DOCTYPE svg PUBLIC "-//W3C//DTD SVG 1.1//EN" "http://www.w3.org/Graphics/SVG/1.1/DTD/svg11.dtd">
<svg name="10" version="1.1" xmlns="http://www.w3.org/2000/svg" xmlns:xlink="http://www.w3.org/1999/xlink" x="0px" y="0px" width="300px"
	 height="300px" viewBox="0 0 300 300" enable-background="new 0 0 300 300" xml:space="preserve">
<g id="cluster_ten">
	<g id="color_emphasis_9_">
		<path fill="none" stroke="#6E6965" stroke-width="4" d="M175.246,269.258c-8.334,1.799-16.984,2.745-25.856,2.745
			c-67.38,0-122.003-54.622-122.003-122.004c0-9.636,1.117-19.011,3.228-28.003"/>
		<path fill="none" stroke="#4D8F7D" stroke-width="4" d="M245.021,74.23c16.512,20.812,26.372,47.138,26.372,75.769
			c0,58.512-41.186,107.398-96.147,119.259"/>
		<path fill="none" stroke="#080808" stroke-width="4" d="M30.615,121.996C43.271,68.113,91.646,27.997,149.39,27.997
			c38.752,0,73.282,18.065,95.632,46.233"/>
	</g>
	<g id="rhythm_8_" opacity="0.41">
		<g>
			<path fill="#FFFFFF" stroke="#2C2C2C" d="M151.545,147.294C167.796,99.8,184.049,52.307,200.3,4.813
				c0.46-1.343,0.919-2.688,1.379-4.03c-0.129,0.378-2.058,1.115-2.334,1.925c-16.252,47.494-32.503,94.987-48.756,142.481
				c-0.46,1.344-0.919,2.688-1.38,4.031C149.339,148.842,151.266,148.105,151.545,147.294L151.545,147.294z"/>
		</g>
		<g>
			<path fill="#FFFFFF" stroke="#2C2C2C" d="M151.977,147.555c25.62-47.513,51.241-95.021,76.86-142.533
				c0.726-1.343,1.448-2.689,2.174-4.032c-0.203,0.378-2.378,0.82-2.815,1.631c-25.621,47.511-51.239,95.022-76.861,142.534
				c-0.725,1.344-1.45,2.689-2.175,4.033C149.364,148.809,151.537,148.367,151.977,147.555L151.977,147.555z"/>
		</g>
		<g>
			<path fill="#FFFFFF" stroke="#2C2C2C" d="M152.489,147.834c36.866-47.564,73.735-95.126,110.604-142.69
				c1.042-1.342,2.084-2.69,3.127-4.036c-0.291,0.38-2.765,0.468-3.393,1.279c-36.869,47.562-73.736,95.127-110.606,142.689
				c-1.042,1.346-2.086,2.693-3.131,4.038C149.386,148.734,151.857,148.648,152.489,147.834L152.489,147.834z"/>
		</g>
		<g>
			<path fill="#FFFFFF" stroke="#2C2C2C" d="M152.904,148.274c47.655-44.093,95.313-88.18,142.969-132.271
				c1.348-1.245,2.696-2.495,4.044-3.741c-0.378,0.353-3.026,0.008-3.838,0.76c-47.658,44.09-95.313,88.182-142.971,132.27
				c-1.349,1.249-2.698,2.498-4.048,3.744C149.443,148.684,152.088,149.03,152.904,148.274L152.904,148.274z"/>
		</g>
		<g>
			<path fill="#FFFFFF" stroke="#2C2C2C" d="M151.104,151.77c48.443,20.903,96.879,41.811,145.323,62.712
				c1.368,0.593,2.744,1.183,4.106,1.772c-0.382-0.164-1.003-2.247-1.825-2.603c-48.438-20.902-96.88-41.805-145.32-62.711
				c-1.371-0.594-2.742-1.185-4.116-1.777C149.662,149.332,150.275,151.412,151.104,151.77L151.104,151.77z"/>
		</g>
		<g>
			<path fill="#FFFFFF" stroke="#2C2C2C" d="M150.827,152.234c48.314,31.118,96.617,62.239,144.933,93.356
				c1.363,0.882,2.737,1.761,4.097,2.638c-0.382-0.244-0.679-2.593-1.498-3.122c-48.309-31.117-96.62-62.234-144.93-93.355
				c-1.367-0.882-2.734-1.763-4.105-2.645C149.712,149.358,150,151.701,150.827,152.234L150.827,152.234z"/>
		</g>
		<g>
			<path fill="#FFFFFF" stroke="#2C2C2C" d="M150.529,152.817c48.377,43.913,96.742,87.826,145.121,131.736
				c1.365,1.243,2.741,2.485,4.103,3.722c-0.383-0.344-0.278-3.034-1.097-3.779c-48.371-43.91-96.746-87.82-145.118-131.734
				c-1.367-1.245-2.736-2.487-4.11-3.731C149.816,149.385,149.702,152.065,150.529,152.817L150.529,152.817z"/>
		</g>
		<g>
			<path fill="#FFFFFF" stroke="#2C2C2C" d="M149.832,152.743c37.598,47.565,75.183,95.129,112.782,142.692
				c1.061,1.346,2.132,2.692,3.188,4.031c-0.298-0.373,0.208-2.819-0.428-3.626c-37.593-47.562-75.188-95.125-112.78-142.69
				c-1.062-1.348-2.127-2.693-3.195-4.042C149.702,149.492,149.188,151.93,149.832,152.743L149.832,152.743z"/>
		</g>
		<g>
			<path fill="#FFFFFF" stroke="#2C2C2C" d="M149.183,152.486c26.475,47.998,52.938,95.995,79.415,143.991
				c0.745,1.358,1.501,2.718,2.245,4.069c-0.211-0.377,0.604-2.483,0.156-3.297c-26.47-47.997-52.942-95.992-79.412-143.991
				c-0.747-1.359-1.498-2.717-2.25-4.078C149.55,149.568,148.731,151.665,149.183,152.486L149.183,152.486z"/>
		</g>
		<g>
			<path fill="#FFFFFF" stroke="#2C2C2C" d="M148.641,152.197c16.779,47.557,33.551,95.11,50.332,142.667
				c0.472,1.345,0.952,2.693,1.423,4.032c-0.134-0.375,0.923-2.163,0.64-2.969c-16.776-47.555-33.554-95.11-50.329-142.668
				c-0.473-1.346-0.95-2.691-1.427-4.04C149.414,149.604,148.354,151.384,148.641,152.197L148.641,152.197z"/>
		</g>
		<g>
			<path fill="#FFFFFF" stroke="#2C2C2C" d="M146.478,150.986c-25.746,48.848-51.495,97.687-77.24,146.537
				c-0.729,1.378-1.456,2.769-2.182,4.144c0.2-0.388,2.424-0.867,2.861-1.696c25.747-48.844,51.494-97.688,77.243-146.534
				c0.728-1.38,1.456-2.764,2.183-4.151C149.136,149.682,146.918,150.151,146.478,150.986L146.478,150.986z"/>
		</g>
		<g>
			<path fill="#FFFFFF" stroke="#2C2C2C" d="M145.985,150.683c-36.773,48.383-73.55,96.755-110.323,145.142
				c-1.041,1.364-2.081,2.742-3.116,4.104c0.288-0.387,2.788-0.504,3.412-1.326c36.774-48.379,73.549-96.757,110.326-145.137
				c1.039-1.366,2.08-2.737,3.119-4.111C149.106,149.746,146.614,149.855,145.985,150.683L145.985,150.683z"/>
		</g>
		<g>
			<path fill="#FFFFFF" stroke="#2C2C2C" d="M145.573,150.236C98.051,195.047,50.527,239.846,3.006,284.659
				c-1.344,1.265-2.689,2.541-4.028,3.802c0.373-0.356,3.045-0.042,3.851-0.804c47.521-44.806,95.044-89.611,142.569-134.417
				c1.343-1.266,2.688-2.535,4.032-3.81C149.047,149.794,146.384,149.47,145.573,150.236L145.573,150.236z"/>
		</g>
		<g>
			<path fill="#FFFFFF" stroke="#2C2C2C" d="M145.873,149.496c-47.534,31.91-95.07,63.808-142.606,95.721
				c-1.344,0.9-2.691,1.811-4.029,2.707c0.373-0.254,2.639,0.401,3.445-0.141c47.535-31.905,95.07-63.812,142.607-95.717
				c1.342-0.9,2.689-1.805,4.033-2.713C148.941,149.612,146.685,148.948,145.873,149.496L145.873,149.496z"/>
		</g>
		<g>
			<path fill="#FFFFFF" stroke="#2C2C2C" d="M147.674,146.3c-47.561-29.999-95.11-60.004-142.673-90.003
				c-1.343-0.851-2.696-1.699-4.034-2.545c0.377,0.234,0.69,2.531,1.497,3.04c47.554,30,95.112,60.004,142.671,90.006
				c1.341,0.85,2.689,1.701,4.037,2.545C148.792,149.1,148.491,146.81,147.674,146.3L147.674,146.3z"/>
		</g>
		<g>
			<path fill="#FFFFFF" stroke="#2C2C2C" d="M147.947,145.701C99.763,102.789,51.592,59.875,3.406,16.965
				c-1.36-1.217-2.732-2.432-4.086-3.641c0.382,0.336,0.305,2.994,1.123,3.723c48.176,42.91,96.355,85.826,144.537,128.739
				c1.358,1.215,2.723,2.433,4.089,3.641C148.684,149.08,148.774,146.431,147.947,145.701L147.947,145.701z"/>
		</g>
		<g>
			<path fill="#FFFFFF" stroke="#2C2C2C" d="M148.593,145.658C109.63,97.314,70.681,48.971,31.717,0.628
				c-1.1-1.368-2.21-2.738-3.305-4.1c0.309,0.378-0.183,2.891,0.477,3.711c38.956,48.341,77.913,96.687,116.873,145.03
				c1.097,1.369,2.201,2.739,3.307,4.103C148.758,148.981,149.263,146.481,148.593,145.658L148.593,145.658z"/>
		</g>
		<g>
			<path fill="#FFFFFF" stroke="#2C2C2C" d="M149.276,145.999C122.506,98.533,95.748,51.07,68.977,3.604
				c-0.754-1.344-1.519-2.688-2.27-4.025c0.213,0.372-0.575,2.476-0.121,3.281c26.764,47.462,53.527,94.93,80.294,142.396
				c0.753,1.342,1.511,2.688,2.272,4.027C148.94,148.9,149.737,146.809,149.276,145.999L149.276,145.999z"/>
		</g>
	</g>
	<g id="pattern_balance_6_">
		<g id="pattern_lnes_out">
			<g>
				<path fill="#FFFFFF" stroke="#2C2C2C" d="M150.758,146.768c0-47.977,0-95.952,0-143.928c0-1.357,0-2.715,0-4.072
					c0,0.383-1.516,1.646-1.516,2.465c0,47.977,0,95.952,0,143.928c0,1.357,0,2.715,0,4.072
					C149.242,148.85,150.758,147.586,150.758,146.768L150.758,146.768z"/>
			</g>
			<g>
				<path fill="#FFFFFF" stroke="#2C2C2C" d="M151.142,147.05c7.873-47.326,15.746-94.651,23.619-141.977
					c0.223-1.339,0.445-2.678,0.668-4.017c-0.062,0.377-1.765,1.375-1.898,2.182c-7.873,47.326-15.746,94.651-23.62,141.977
					c-0.223,1.339-0.445,2.679-0.668,4.018C149.305,148.854,151.007,147.857,151.142,147.05L151.142,147.05z"/>
			</g>
			<g>
				<path fill="#FFFFFF" stroke="#2C2C2C" d="M152.137,149.145c40.085-26.362,80.171-52.72,120.255-79.081
					c1.133-0.744,2.268-1.492,3.4-2.236c-0.318,0.211-2.207-0.361-2.889,0.088c-40.086,26.359-80.17,52.721-120.256,79.079
					c-1.135,0.746-2.27,1.494-3.405,2.238C149.564,149.022,151.45,149.596,152.137,149.145L152.137,149.145z"/>
			</g>
			<g>
				<path fill="#FFFFFF" stroke="#2C2C2C" d="M152.112,149.621c43.867-19.428,87.735-38.849,131.603-58.275
					c1.239-0.548,2.481-1.1,3.72-1.647c-0.348,0.155-2.117-0.719-2.863-0.388c-43.867,19.424-87.734,38.85-131.602,58.272
					c-1.242,0.55-2.485,1.102-3.728,1.649C149.594,149.078,151.36,149.953,152.112,149.621L152.112,149.621z"/>
			</g>
			<g>
				<path fill="#FFFFFF" stroke="#2C2C2C" d="M152.011,150.086c46.46-11.965,92.92-23.923,139.381-35.889
					c1.312-0.336,2.629-0.677,3.939-1.015c-0.367,0.097-1.971-1.056-2.762-0.852c-46.459,11.962-92.92,23.925-139.379,35.886
					c-1.316,0.339-2.632,0.679-3.948,1.016C149.615,149.138,151.214,150.291,152.011,150.086L152.011,150.086z"/>
			</g>
			<g>
				<path fill="#FFFFFF" stroke="#2C2C2C" d="M151.833,150.528c47.795-4.178,95.586-8.35,143.381-12.529
					c1.351-0.115,2.705-0.236,4.053-0.354c-0.379,0.035-1.771-1.364-2.585-1.293c-47.792,4.176-95.585,8.353-143.378,12.527
					c-1.354,0.117-2.707,0.236-4.062,0.354C149.626,149.2,151.015,150.6,151.833,150.528L151.833,150.528z"/>
			</g>
			<g>
				<path fill="#FFFFFF" stroke="#2C2C2C" d="M151.585,150.936c47.833,3.723,95.661,7.45,143.494,11.171
					c1.351,0.106,2.707,0.21,4.055,0.315c-0.379-0.028-1.523-1.637-2.338-1.7c-47.828-3.724-95.658-7.446-143.488-11.171
					c-1.355-0.107-2.709-0.212-4.065-0.318C149.626,149.264,150.767,150.872,151.585,150.936L151.585,150.936z"/>
			</g>
			<g>
				<path fill="#FFFFFF" stroke="#2C2C2C" d="M151.274,151.297c46.573,11.521,93.141,23.048,139.715,34.567
					c1.315,0.327,2.637,0.651,3.947,0.977c-0.367-0.09-1.234-1.865-2.025-2.062c-46.569-11.521-93.141-23.042-139.711-34.566
					c-1.319-0.328-2.637-0.653-3.958-0.98C149.617,149.326,150.477,151.1,151.274,151.297L151.274,151.297z"/>
			</g>
			<g>
				<path fill="#FFFFFF" stroke="#2C2C2C" d="M148.179,151.927c8.322,47.25,16.637,94.496,24.961,141.746
					c0.232,1.335,0.474,2.677,0.707,4.006c-0.068-0.372,1.203-1.886,1.062-2.687c-8.32-47.248-16.639-94.496-24.958-141.746
					c-0.234-1.336-0.471-2.674-0.709-4.014C149.31,149.615,148.037,151.118,148.179,151.927L148.179,151.927z"/>
			</g>
			<g>
				<path fill="#FFFFFF" stroke="#2C2C2C" d="M147.751,151.715c0.456,47.976,0.904,95.945,1.361,143.922
					c0.01,1.354,0.028,2.717,0.04,4.067c-0.006-0.379,1.497-1.663,1.489-2.477c-0.454-47.973-0.906-95.945-1.358-143.92
					c-0.012-1.355-0.026-2.715-0.042-4.075C149.246,149.621,147.744,150.896,147.751,151.715L147.751,151.715z"/>
			</g>
			<g>
				<path fill="#FFFFFF" stroke="#2C2C2C" d="M147.365,151.437c-7.424,47.399-14.854,94.792-22.275,142.193
					c-0.212,1.338-0.418,2.686-0.628,4.02c0.056-0.375,1.749-1.395,1.875-2.199c7.425-47.396,14.852-94.793,22.279-142.191
					c0.21-1.339,0.42-2.682,0.627-4.026C149.182,149.616,147.491,150.627,147.365,151.437L147.365,151.437z"/>
			</g>
			<g>
				<path fill="#FFFFFF" stroke="#2C2C2C" d="M147.029,151.099c-15.102,45.538-30.208,91.069-45.308,136.61
					c-0.429,1.285-0.853,2.58-1.279,3.861c0.116-0.36,1.954-1.088,2.21-1.861c15.103-45.535,30.207-91.07,45.311-136.607
					c0.427-1.287,0.854-2.577,1.279-3.869C149.12,149.601,147.287,150.32,147.029,151.099L147.029,151.099z"/>
			</g>
			<g>
				<path fill="#FFFFFF" stroke="#2C2C2C" d="M146.371,148.875c-43.682,19.842-87.363,39.673-131.046,59.517
					c-1.235,0.558-2.474,1.125-3.703,1.683c0.344-0.158,2.126,0.694,2.867,0.357c43.681-19.837,87.363-39.675,131.046-59.512
					c1.234-0.56,2.471-1.122,3.707-1.688C148.89,149.394,147.118,148.534,146.371,148.875L146.371,148.875z"/>
			</g>
			<g>
				<path fill="#FFFFFF" stroke="#2C2C2C" d="M146.468,148.409c-46.345,12.403-92.689,24.798-139.036,37.203
					c-1.31,0.349-2.625,0.705-3.929,1.053c0.365-0.1,1.984,1.033,2.77,0.823c46.344-12.399,92.689-24.8,139.036-37.2
					c1.309-0.349,2.622-0.7,3.934-1.056C148.869,149.333,147.261,148.194,146.468,148.409L146.468,148.409z"/>
			</g>
			<g>
				<path fill="#FFFFFF" stroke="#2C2C2C" d="M146.641,147.965c-47.752,4.63-95.501,9.251-143.256,13.883
					c-1.35,0.129-2.705,0.265-4.049,0.394c0.376-0.039,1.787,1.345,2.597,1.267c47.75-4.626,95.502-9.253,143.255-13.88
					c1.349-0.129,2.702-0.26,4.053-0.396C148.858,149.27,147.458,147.883,146.641,147.965L146.641,147.965z"/>
			</g>
			<g>
				<path fill="#FFFFFF" stroke="#2C2C2C" d="M146.885,147.555c-47.865-3.269-95.725-6.546-143.592-9.813
					c-1.353-0.095-2.712-0.183-4.059-0.276c0.378,0.023,1.542,1.619,2.354,1.676c47.862,3.272,95.726,6.545,143.591,9.816
					c1.352,0.095,2.708,0.188,4.063,0.275C148.857,149.206,147.705,147.607,146.885,147.555L146.885,147.555z"/>
			</g>
			<g>
				<path fill="#FFFFFF" stroke="#2C2C2C" d="M147.192,147.19c-46.68-11.079-93.353-22.166-140.035-33.245
					c-1.319-0.314-2.645-0.624-3.958-0.938c0.369,0.086,1.256,1.852,2.048,2.04c46.676,11.082,93.354,22.165,140.033,33.247
					c1.318,0.315,2.641,0.63,3.962,0.938C148.867,149.143,147.992,147.377,147.192,147.19L147.192,147.19z"/>
			</g>
			<g>
				<path fill="#FFFFFF" stroke="#2C2C2C" d="M147.555,146.882c-44.229-18.589-88.45-37.185-132.681-55.774
					c-1.25-0.527-2.507-1.051-3.751-1.575c0.35,0.145,0.935,2.032,1.686,2.348c44.224,18.591,88.451,37.185,132.679,55.776
					c1.248,0.527,2.501,1.055,3.754,1.576C148.887,149.082,148.314,147.196,147.555,146.882L147.555,146.882z"/>
			</g>
			<g>
				<path fill="#FFFFFF" stroke="#2C2C2C" d="M149.824,146.397c-16.391-45.091-32.772-90.178-49.165-135.27
					c-0.461-1.274-0.931-2.554-1.39-3.823c0.131,0.354-0.857,2.066-0.58,2.832c16.386,45.087,32.772,90.179,49.162,135.27
					c0.46,1.274,0.924,2.553,1.391,3.826C149.114,148.869,150.107,147.168,149.824,146.397L149.824,146.397z"/>
			</g>
			<g>
				<path fill="#FFFFFF" stroke="#2C2C2C" d="M150.281,146.531c-8.77-47.17-17.53-94.333-26.3-141.504
					c-0.246-1.332-0.499-2.672-0.743-4c0.071,0.371-1.185,1.898-1.037,2.699c8.765,47.165,17.53,94.334,26.297,141.503
					c0.245,1.333,0.493,2.67,0.744,4.003C149.175,148.854,150.434,147.338,150.281,146.531L150.281,146.531z"/>
			</g>
		</g>
		<g id="pattern_radial_9_">
			<polyline fill="none" stroke="#2C2C2C" stroke-width="1.12" points="11.622,239.608 30.615,261.46 52.695,276.583 			"/>
			<polygon fill="none" stroke="#2C2C2C" stroke-width="1.12" points="50.589,140.973 52.695,124.756 59.375,109.813 66.443,97.154 
				76.373,81.375 88.74,71.387 101.316,60.95 116.152,53.752 133.038,53.752 150.837,50 166.662,53.752 181.945,58.451 
				195.416,63.408 209.72,74 224.589,81.375 233.732,95.486 241.166,108.53 251.09,123.011 254.59,140.029 254.59,155.827 
				251.929,174.641 245.021,190.484 236.089,204.997 224.488,217.171 214.788,231.841 197.231,239.608 183.977,252.362 
				165.863,252.362 148.591,254.277 132.787,254.277 114.813,248.229 101.316,240.404 85.173,230.686 75.07,220.401 62.622,207.552 
				55.087,189.112 46.087,171.744 45.587,155.736 			"/>
			<polygon fill="none" stroke="#2C2C2C" stroke-width="1.12" points="32.546,160.542 30.615,141.125 36.087,119.466 
				39.712,101.547 51.015,85.322 60.415,67.738 77.761,57.763 93.055,46.3 110.767,38.935 128.938,31.692 149.43,31.692 
				169.776,35.031 187.04,38.668 207.601,44.404 223.319,56.454 236.743,70.709 248.807,85.574 258.306,102.598 265.802,120.787 
				266.22,140.534 266.22,158.341 263.45,179.052 258.306,196.217 250.081,214.01 238.055,229.485 222.286,244.416 207.601,254.277 
				187.502,262.354 169.642,265.078 149.43,269.258 129.344,266.462 111.966,261.626 94.003,254.277 76.373,242.263 62.062,228.975 
				49.989,213.854 38.587,197 32.546,178.892 			"/>
			<polygon fill="none" stroke="#2C2C2C" stroke-width="1.12" points="61.587,171.744 56.557,156.693 59.072,141.553 
				61.587,128.424 67.057,113.043 74.194,99.945 80.183,88.072 93.686,80.648 108.2,67.738 122.189,67.738 133.302,63.46 
				149.09,63.46 163.512,63.46 176.984,72.95 191.101,75.002 201.679,83.112 213.7,89.235 223.319,100.521 234.798,113.007 
				241.244,127.11 241.244,141.195 241.244,157.916 240.223,171.744 231.136,184.492 224.903,197 214.083,210.511 205.747,220.401 
				192.989,228.33 178.687,237.366 165.664,242.486 150.837,239.608 135.085,239.608 119.09,235.335 106.96,229.697 92.99,220.401 
				84.653,210.511 74.194,198.668 66.436,186.841 			"/>
			<polygon fill="none" stroke="#2C2C2C" stroke-width="1.12" points="18.08,160.423 16.087,140.132 18.08,118.094 27.387,98.008 
				34.881,75.145 49.789,58.273 65.283,42.277 82.844,31.692 104.885,22.755 124.842,17.938 150.088,17.938 172.621,17.938 
				194.134,17.938 216.448,27.997 235.704,40.479 250.412,55.271 266.22,72.31 275.792,94.854 285.587,115.692 290.087,136.349 
				285.587,161.368 282.302,182.154 275.792,203.763 266.22,223.441 254.59,242.486 235.54,258.096 215.562,269.258 195.02,278.877 
				174.838,281 150.513,283.641 128.938,278.842 106.929,272.003 88.74,264.262 66.443,255.326 52.695,240.642 38.95,223.441 
				28.412,204.108 24.138,182.709 			"/>
			<polygon fill="none" stroke="#2C2C2C" stroke-width="1.12" points="3.199,113.007 11.124,89.532 23.959,67.738 38.893,48.569 
				56.557,27.997 80.183,16.979 99.269,7.305 123.238,1.027 147.751,0 175.429,1.057 200.3,4.813 223.319,15.253 242.975,27.997 
				260.906,48.354 275.792,65.5 287.435,89.698 295.602,112.307 299.267,137.645 300.534,160.5 295.331,184.773 287.435,210.602 
				273.863,231.488 260.574,248.005 241.323,265.412 222.286,277.707 201.084,288.461 174.909,294.992 151.866,294.992 
				128.938,294.992 105.159,289.271 80.793,279.338 60.274,266.613 42.013,250.713 27.387,231.202 11.622,210.074 6.273,187.488 
				1.934,163.508 3.292,137.741 			"/>
			<polygon fill="none" stroke="#2C2C2C" stroke-width="1.12" points="73.317,131.209 78.23,119.383 80.432,103.881 90.974,94.958 
				101.316,86.993 110.859,81.375 124.257,76.055 137.818,74.996 150.088,75.145 160.691,77.936 171.521,79.842 183.599,85.322 
				195.276,89.532 204.218,98.008 212.517,108.53 222.286,116.891 228.587,128.805 231.136,142.079 231.011,155.601 
				231.011,168.037 223.319,179.852 215.562,191.774 205.199,202.446 201.084,209.829 187.813,218.945 175.762,224.287 
				163.589,234.307 150.855,230.298 137.148,226.439 124.842,223.455 112.782,218.652 100.442,213.771 93.055,202.589 
				84.587,189.112 76.755,182.154 70.71,170.248 70.71,155.322 70.71,143.439 			"/>
			<polygon fill="none" stroke="#2C2C2C" stroke-width="1.12" points="94.003,123.947 98.64,115.368 104.885,107.349 
				112.587,98.008 118.469,94.871 128.938,93.368 139.09,94.608 151.391,94.608 157.942,94.608 166.411,98.953 176.786,101.547 
				182.728,105.722 188.762,112.307 197.395,119.383 206.35,123.947 212.517,132.942 212.517,141.5 212.517,152.973 
				212.517,166.449 207.601,174.336 201.084,182.449 195.791,193.905 187.25,197 178.687,202.397 168.972,205.041 160.034,210.511 
				150.088,210.511 140.344,206.04 128.938,205.644 119.697,201.794 110.779,197 104.342,189.112 95.784,185.294 90.974,175.697 
				84.454,165.003 84.454,152.476 86.113,142.988 90.974,133.845 			"/>
			<polygon fill="none" stroke="#2C2C2C" stroke-width="1.12" points="108.2,131.981 112.11,125.964 115.334,119.383 
				122.189,112.307 128.938,108.53 135.032,105.701 141.151,105.701 147.751,101.547 156.844,103.543 163.134,108.53 
				169.048,112.307 178.687,114.035 184.042,119.466 190.085,123.947 196.036,128.514 201.084,135.886 201.084,143.439 
				201.084,152.139 198.955,161.534 195.11,168.946 190.085,175.364 183.158,179.652 178.687,186.164 171.359,189.112 
				163.355,193.905 154.642,193.905 149.09,193.905 140.712,193.905 135.163,191.691 127.224,187.515 120.21,184.594 
				114.375,179.652 108.2,174.784 104.375,167.948 101.316,158 103.574,152.139 104.087,143.349 106.223,137.465 			"/>
			<polygon fill="none" stroke="#2C2C2C" stroke-width="1.12" points="49.873,105.818 57.217,89.235 67.057,76.381 81.962,66.101 
				95.283,53.752 112.78,44.475 129.773,44.475 150.642,37.5 167.036,42.277 185.835,47.085 201.084,53.752 215.486,63.46 
				229.701,74.432 241.244,88.733 251.032,105.818 261.107,121.996 261.107,139.46 261.107,157.943 258.306,177.779 
				252.949,193.905 244.648,210.511 231.136,225.477 218.339,239.42 203.84,248.005 187.688,258.096 168.412,258.096 149.43,263.5 
				132.188,258.096 112.807,254.277 98.64,245.481 80.432,236.923 69.43,224.863 56.557,209.445 49.873,192.699 39.93,176.915 
				39.93,158.305 42.026,140.387 45.587,121.996 			"/>
			<polygon fill="none" stroke="#2C2C2C" stroke-width="1.12" points="122.189,141.255 122.496,136.349 124.842,131.897 
				128.938,128.771 131.096,123.947 135.739,121.996 140.035,119.466 145.235,119.383 150.088,119.383 155.744,119.383 
				159.392,119.466 162.771,123.947 167.846,124.919 172.312,130.318 174.838,132.402 178.687,137.465 180.231,141.255 
				180.231,146.526 180.231,152.139 180.231,156.901 178.687,161.858 175.444,167.948 171.379,171.744 167.846,175.534 
				162.335,176.332 157.942,178.561 154.601,179.652 149.09,179.652 144.479,179.652 139.09,179.852 134.912,176.672 
				129.977,171.744 124.842,169.783 122.189,165.395 118.469,161.548 118.469,152.973 122.189,148.382 122.189,145.867 			"/>
		</g>
	</g>
	<g id="contrast_9_">
		<polygon fill="#2C2C2C" fill-opacity="0.41" stroke="#FFFFFF" points="65.283,42.277 75.07,57.547 93.055,46.3 82.844,31.692 		
			"/>
		<polygon fill="#2C2C2C" fill-opacity="0.41" stroke="#FFFFFF" points="104.885,22.755 110.767,38.935 128.938,31.692 
			124.842,17.938 		"/>
		<polygon fill="#2C2C2C" fill-opacity="0.41" stroke="#FFFFFF" points="150.088,17.938 149.43,31.692 169.776,35.031 
			172.621,17.938 		"/>
		<polygon fill="#2C2C2C" fill-opacity="0.41" stroke="#FFFFFF" points="187.04,38.668 207.601,44.404 216.448,27.997 
			194.134,17.938 		"/>
		<polygon fill="#2C2C2C" fill-opacity="0.41" stroke="#FFFFFF" points="223.319,56.454 235.338,69.217 250.412,55.271 
			235.704,40.479 		"/>
		<polygon fill="#2C2C2C" fill-opacity="0.41" stroke="#FFFFFF" points="248.807,85.574 258.306,102.598 275.792,93.198 
			266.22,72.31 		"/>
		<polygon fill="#2C2C2C" fill-opacity="0.41" stroke="#FFFFFF" points="265.802,119.223 266.22,140.534 290.087,136.349 
			285.587,115.692 		"/>
		<polygon fill="#2C2C2C" fill-opacity="0.41" stroke="#FFFFFF" points="266.22,158.341 263.652,177.541 282.302,182.154 
			285.587,161.368 		"/>
		<polygon fill="#2C2C2C" fill-opacity="0.41" stroke="#FFFFFF" points="258.306,196.217 251.848,216.254 266.22,223.441 
			275.792,203.763 		"/>
		<polygon fill="#2C2C2C" fill-opacity="0.41" stroke="#FFFFFF" points="222.286,244.416 235.54,258.096 253.427,243.439 
			238.055,229.485 		"/>
		<polygon fill="#2C2C2C" fill-opacity="0.41" stroke="#FFFFFF" points="187.502,262.354 195.02,278.877 215.562,269.258 
			207.601,254.277 		"/>
		<polygon fill="#2C2C2C" fill-opacity="0.41" stroke="#FFFFFF" points="169.642,265.078 172.621,281.24 150.513,283.641 
			149.43,269.258 		"/>
		<polygon fill="#2C2C2C" fill-opacity="0.41" stroke="#FFFFFF" points="129.344,266.462 128.938,278.842 106.929,272.003 
			111.966,261.626 		"/>
		<path fill="#2C2C2C" fill-opacity="0.41" stroke="#FFFFFF" d="M88.74,264.262c-1.627-0.652,5.263-9.984,5.263-9.984
			l-17.631-12.015l-9.93,13.063L88.74,264.262z"/>
		<polygon fill="#2C2C2C" fill-opacity="0.41" stroke="#FFFFFF" points="51.403,239.024 62.062,228.975 49.989,213.854 
			38.95,223.441 		"/>
		<path fill="#2C2C2C" fill-opacity="0.41" stroke="#FFFFFF" d="M28.412,202.446c2.122-0.963,13.716-6.229,13.716-6.229
			l-9.583-17.325l-8.408,3.817L28.412,202.446z"/>
		<polygon fill="#2C2C2C" fill-opacity="0.41" stroke="#FFFFFF" points="18.08,160.423 32.546,160.542 30.992,139.633 
			16.087,140.132 		"/>
		<polygon fill="#2C2C2C" fill-opacity="0.41" stroke="#FFFFFF" points="18.08,118.094 35.448,121.996 39.712,101.547 
			27.387,98.008 		"/>
		<polygon fill="#2C2C2C" fill-opacity="0.41" stroke="#FFFFFF" points="34.881,75.145 49.789,58.273 60.415,67.738 51.015,85.322 
					"/>
	</g>
	<g id="movement_9_">
		<line display="none" fill="#2C2C2C" x1="150" y1="148" x2="299.499" y2="148"/>
		<line display="none" fill="#2C2C2C" x1="150" y1="148" x2="257.248" y2="43.848"/>
		<g>
			<path fill="#2C2C2C" d="M300.749,146.701c-17.336-31.722-34.671-63.442-52.007-95.163c0.11,0.202-1.614,1.991-1.5,2.598
				c6.076,32.261,12.151,64.521,18.228,96.78c0.5-0.866,1-1.731,1.5-2.598c-10.965-27.513-21.93-55.025-32.895-82.537
				c0.15,0.378-1.743,1.877-1.5,2.598c4.553,13.505,9.131,27.002,13.732,40.49c3.111,9.121,6.231,18.24,9.407,27.339
				c0.284,0.816,3.919,12.716,4.638,12.618c0.526-0.072,1.433-2.048,1.508-2.531c0.114-0.732-0.876-2.006-1.193-2.595
				c-1.367-2.541-2.83-5.032-4.282-7.525c-4.585-7.872-9.286-15.677-13.989-23.479c-6.964-11.554-13.972-23.081-21.018-34.585
				c0.114,0.187-1.679,2.003-1.5,2.598c6.872,22.863,13.744,45.727,20.616,68.59c0.5-0.866,1-1.731,1.5-2.598
				c-13.075-17.359-26.149-34.718-39.225-52.076c0.051,0.067-1.604,2.091-1.5,2.598c3.499,17.191,6.998,34.382,10.497,51.572
				c0.5-0.866,1-1.731,1.5-2.598c-9.749-10.603-19.497-21.205-29.246-31.807c-0.058-0.063-1.474,2.184-1.508,2.531
				c-1.013,10.279-2.026,20.559-3.039,30.837c0.503-0.844,1.005-1.688,1.508-2.531c-9.666,0.323-19.332,0.646-28.998,0.97
				c-0.694,0.023-1.188,2.588-1.5,2.598c9.666-0.323,19.332-0.646,28.998-0.97c0.47-0.016,1.465-2.099,1.508-2.531
				c1.013-10.279,2.026-20.559,3.039-30.837c-0.503,0.844-1.005,1.688-1.508,2.531c9.749,10.603,19.497,21.205,29.246,31.807
				c0.004,0.005,1.592-2.147,1.5-2.598c-3.499-17.191-6.998-34.382-10.497-51.572c-0.5,0.866-1,1.731-1.5,2.598
				c13.075,17.359,26.149,34.718,39.225,52.076c-0.071-0.095,1.658-2.071,1.5-2.598c-6.872-22.863-13.744-45.727-20.616-68.59
				c-0.5,0.866-1,1.731-1.5,2.598c6.695,10.934,13.354,21.889,19.98,32.864c4.663,7.725,9.311,15.459,13.88,23.239
				c1.622,2.762,3.234,5.531,4.794,8.329c0.409,0.734,1.954,2.707,1.812,3.618c0.503-0.844,1.005-1.688,1.508-2.531
				c-0.688,0.094-4.126-11.154-4.396-11.926c-3.265-9.327-6.458-18.679-9.649-28.031c-4.604-13.488-9.18-26.985-13.732-40.49
				c-0.5,0.866-1,1.731-1.5,2.598c10.965,27.513,21.93,55.025,32.895,82.537c-0.137-0.342,1.633-1.893,1.5-2.598
				c-6.076-32.261-12.151-64.521-18.228-96.78c-0.5,0.866-1,1.731-1.5,2.598c17.336,31.722,34.671,63.442,52.007,95.163
				C299.104,149.034,301.079,147.305,300.749,146.701L300.749,146.701z"/>
		</g>
	</g>
</g>
</svg>
