<?xml version="1.0" encoding="utf-8"?>
<!-- Generator: Adobe Illustrator 14.0.0, SVG Export Plug-In . SVG Version: 6.00 Build 43363)  -->
<!DOCTYPE svg PUBLIC "-//W3C//DTD SVG 1.1//EN" "http://www.w3.org/Graphics/SVG/1.1/DTD/svg11.dtd">
<svg name="1" version="1.1" xmlns="http://www.w3.org/2000/svg" xmlns:xlink="http://www.w3.org/1999/xlink" x="0px" y="0px" width="300px"
	 height="300px" viewBox="0 0 300 300" enable-background="new 0 0 300 300" xml:space="preserve">
<g id="cluster_one">
	<g id="color_emphasis">
		<path fill="none" stroke="#EDEEE8" stroke-width="4" d="M169.888,246.688c-6.949,1.5-14.162,2.289-21.561,2.289
			c-56.182,0-101.727-45.544-101.727-101.729c0-8.034,0.932-15.851,2.691-23.348"/>
		<path fill="none" stroke="#8EAAB7" stroke-width="4" d="M228.066,84.072c13.768,17.354,21.989,39.305,21.989,63.176
			c0,48.787-34.341,89.55-80.168,99.439"/>
		<path fill="none" stroke="#292929" stroke-width="4" d="M49.292,123.9c10.554-44.929,50.889-78.379,99.036-78.379
			c32.312,0,61.104,15.064,79.739,38.551"/>
	</g>
	<g id="pattern_balance">
		<g id="pattern_lines_out">
			<g>
				<path fill="#FFFFFF" stroke="#2C2C2C" d="M150.758,146.767c0-47.976,0-95.952,0-143.927c0-1.358,0-2.715,0-4.073
					c0,0.384-1.516,1.647-1.516,2.466c0,47.976,0,95.952,0,143.928c0,1.357,0,2.715,0,4.072
					C149.242,148.849,150.758,147.585,150.758,146.767L150.758,146.767z"/>
			</g>
			<g>
				<path fill="#FFFFFF" stroke="#2C2C2C" d="M151.269,147.167c10.683-46.771,21.365-93.543,32.048-140.313
					c0.302-1.324,0.604-2.647,0.907-3.971c-0.086,0.374-1.845,1.269-2.027,2.066c-10.682,46.771-21.365,93.543-32.047,140.314
					c-0.302,1.323-0.604,2.646-0.907,3.97C149.328,148.859,151.087,147.965,151.269,147.167L151.269,147.167z"/>
			</g>
			<g>
				<path fill="#FFFFFF" stroke="#2C2C2C" d="M151.965,148.251c29.929-37.495,59.858-74.991,89.786-112.486
					c0.848-1.062,1.695-2.122,2.541-3.183c-0.238,0.299-2.212,0.341-2.723,0.98c-29.928,37.496-59.857,74.992-89.787,112.488
					c-0.846,1.061-1.693,2.121-2.54,3.182C149.482,148.933,151.454,148.893,151.965,148.251L151.965,148.251z"/>
			</g>
			<g>
				<path fill="#FFFFFF" stroke="#2C2C2C" d="M152.114,148.882c37.527-29.89,75.055-59.78,112.58-89.67
					c1.062-0.847,2.125-1.691,3.186-2.537c-0.299,0.238-2.232-0.16-2.873,0.35c-37.525,29.892-75.053,59.781-112.58,89.672
					c-1.061,0.846-2.123,1.69-3.185,2.536C149.542,148.995,151.474,149.394,152.114,148.882L152.114,148.882z"/>
			</g>
			<g>
				<path fill="#FFFFFF" stroke="#2C2C2C" d="M151.981,150.165c46.783-10.634,93.566-21.268,140.348-31.901
					c1.324-0.301,2.647-0.601,3.971-0.903c-0.372,0.086-1.941-1.113-2.74-0.933c-46.782,10.638-93.564,21.271-140.348,31.903
					c-1.322,0.302-2.646,0.602-3.97,0.902C149.616,149.149,151.183,150.347,151.981,150.165L151.981,150.165z"/>
			</g>
			<g>
				<path fill="#FFFFFF" stroke="#2C2C2C" d="M151.705,150.751c47.977,0.05,95.953,0.1,143.927,0.149
					c1.359,0.002,2.715,0.005,4.072,0.004c-0.381,0.001-1.645-1.518-2.463-1.52c-47.977-0.046-95.951-0.097-143.928-0.148
					c-1.356,0-2.713-0.002-4.071-0.004C149.625,149.235,150.886,150.751,151.705,150.751L151.705,150.751z"/>
			</g>
			<g>
				<path fill="#FFFFFF" stroke="#2C2C2C" d="M151.306,151.262c46.76,10.73,93.521,21.463,140.279,32.193
					c1.325,0.305,2.646,0.609,3.969,0.91c-0.371-0.084-1.264-1.846-2.062-2.029c-46.762-10.729-93.52-21.459-140.281-32.192
					c-1.322-0.303-2.644-0.606-3.968-0.911C149.615,149.321,150.506,151.08,151.306,151.262L151.306,151.262z"/>
			</g>
			<g>
				<path fill="#FFFFFF" stroke="#2C2C2C" d="M150.802,151.67c43.197,20.873,86.395,41.748,129.59,62.621
					c1.224,0.592,2.444,1.184,3.666,1.771c-0.343-0.164-0.82-2.082-1.559-2.438c-43.199-20.873-86.394-41.744-129.592-62.619
					c-1.221-0.59-2.442-1.181-3.665-1.773C149.586,149.402,150.063,151.316,150.802,151.67L150.802,151.67z"/>
			</g>
			<g>
				<path fill="#FFFFFF" stroke="#2C2C2C" d="M150.22,151.957c37.464,29.967,74.929,59.936,112.392,89.904
					c1.062,0.848,2.119,1.697,3.18,2.543c-0.297-0.236-0.336-2.213-0.977-2.725c-37.467-29.967-74.93-59.932-112.395-89.902
					c-1.059-0.847-2.119-1.695-3.179-2.544C149.54,149.474,149.579,151.447,150.22,151.957L150.22,151.957z"/>
			</g>
			<g>
				<path fill="#FFFFFF" stroke="#2C2C2C" d="M148.94,152.113c20.738,43.26,41.479,86.521,62.217,129.783
					c0.587,1.225,1.171,2.449,1.76,3.672c-0.164-0.344,0.657-2.141,0.302-2.879c-20.741-43.262-41.48-86.52-62.218-129.783
					c-0.586-1.225-1.172-2.448-1.759-3.673C149.406,149.58,148.584,151.375,148.94,152.113L148.94,152.113z"/>
			</g>
			<g>
				<path fill="#FFFFFF" stroke="#2C2C2C" d="M148.307,151.975c10.585,46.791,21.172,93.584,31.757,140.379
					c0.299,1.324,0.596,2.646,0.898,3.971c-0.084-0.371,1.117-1.941,0.935-2.74c-10.587-46.793-21.174-93.582-31.757-140.379
					c-0.299-1.324-0.598-2.646-0.897-3.972C149.325,149.608,148.124,151.176,148.307,151.975L148.307,151.975z"/>
			</g>
			<g>
				<path fill="#FFFFFF" stroke="#2C2C2C" d="M147.719,151.697c-0.099,47.973-0.197,95.949-0.298,143.926
					c-0.003,1.357-0.008,2.713-0.008,4.072c0.001-0.381,1.521-1.645,1.521-2.465c0.098-47.975,0.195-95.947,0.297-143.926
					c0.003-1.357,0.006-2.712,0.01-4.072C149.239,149.618,147.719,150.878,147.719,151.697L147.719,151.697z"/>
			</g>
			<g>
				<path fill="#FFFFFF" stroke="#2C2C2C" d="M147.208,151.297c-10.778,46.746-21.557,93.496-32.337,140.246
					c-0.305,1.322-0.612,2.643-0.915,3.969c0.086-0.371,1.85-1.266,2.032-2.064c10.778-46.748,21.555-93.496,32.337-140.246
					c0.305-1.324,0.61-2.644,0.917-3.968C149.153,149.608,147.391,150.499,147.208,151.297L147.208,151.297z"/>
			</g>
			<g>
				<path fill="#FFFFFF" stroke="#2C2C2C" d="M146.515,150.21c-30.004,37.43-60.011,74.868-90.019,112.299
					c-0.849,1.059-1.699,2.115-2.547,3.178c0.239-0.297,2.216-0.338,2.727-0.979c30.005-37.432,60.009-74.867,90.019-112.299
					c0.851-1.061,1.698-2.117,2.549-3.177C149,149.534,147.025,149.571,146.515,150.21L146.515,150.21z"/>
			</g>
			<g>
				<path fill="#FFFFFF" stroke="#2C2C2C" d="M146.365,149.579c-37.585,29.81-75.175,59.626-112.764,89.437
					c-1.063,0.842-2.127,1.684-3.19,2.529c0.298-0.236,2.235,0.164,2.875-0.346c37.587-29.811,75.172-59.627,112.764-89.436
					c1.065-0.845,2.126-1.686,3.192-2.531C148.939,149.472,147.005,149.069,146.365,149.579L146.365,149.579z"/>
			</g>
			<g>
				<path fill="#FFFFFF" stroke="#2C2C2C" d="M146.5,148.295c-46.8,10.537-93.607,21.078-140.412,31.613
					c-1.323,0.295-2.647,0.592-3.972,0.893c0.372-0.084,1.942,1.119,2.74,0.936c46.802-10.533,93.606-21.076,140.411-31.609
					c1.326-0.299,2.648-0.596,3.975-0.895C148.865,149.317,147.298,148.114,146.5,148.295L146.5,148.295z"/>
			</g>
			<g>
				<path fill="#FFFFFF" stroke="#2C2C2C" d="M146.777,147.708c-47.971-0.148-95.95-0.294-143.926-0.445
					c-1.355-0.007-2.712-0.013-4.07-0.015c0.381,0.001,1.645,1.523,2.463,1.522c47.972,0.152,95.949,0.296,143.923,0.449
					c1.359,0.004,2.714,0.009,4.074,0.013C148.856,149.231,147.596,147.709,146.777,147.708L146.777,147.708z"/>
			</g>
			<g>
				<path fill="#FFFFFF" stroke="#2C2C2C" d="M147.179,147.198c-46.734-10.826-93.476-21.65-140.213-32.48
					c-1.32-0.309-2.642-0.616-3.965-0.921c0.371,0.086,1.264,1.852,2.062,2.033c46.733,10.83,93.474,21.652,140.21,32.484
					c1.325,0.306,2.645,0.612,3.969,0.919C148.866,149.145,147.977,147.381,147.179,147.198L147.179,147.198z"/>
			</g>
			<g>
				<path fill="#FFFFFF" stroke="#2C2C2C" d="M147.684,146.79c-43.15-20.96-86.308-41.92-129.461-62.886
					c-1.218-0.595-2.438-1.188-3.66-1.78c0.343,0.166,0.82,2.087,1.558,2.441c43.149,20.964,86.306,41.922,129.457,62.889
					c1.223,0.593,2.442,1.186,3.665,1.779C148.895,149.064,148.421,147.146,147.684,146.79L147.684,146.79z"/>
			</g>
			<g>
				<path fill="#FFFFFF" stroke="#2C2C2C" d="M148.267,146.504c-37.399-30.042-74.807-60.086-112.208-90.134
					c-1.056-0.852-2.112-1.701-3.172-2.551c0.297,0.238,0.335,2.218,0.976,2.728c37.397,30.045,74.805,60.086,112.204,90.135
					c1.061,0.851,2.117,1.699,3.177,2.551C148.941,148.992,148.906,147.016,148.267,146.504L148.267,146.504z"/>
			</g>
			<g>
				<path fill="#FFFFFF" stroke="#2C2C2C" d="M148.898,146.356C119.127,108.741,89.349,71.122,59.577,33.5
					c-0.839-1.064-1.68-2.128-2.524-3.192c0.236,0.298-0.167,2.236,0.343,2.876c29.769,37.618,59.548,75.234,89.317,112.856
					c0.845,1.064,1.686,2.128,2.529,3.193C149.003,148.931,149.408,146.998,148.898,146.356L148.898,146.356z"/>
			</g>
			<g>
				<path fill="#FFFFFF" stroke="#2C2C2C" d="M150.181,146.493C139.693,99.682,129.2,52.865,118.713,6.047
					c-0.294-1.323-0.589-2.646-0.888-3.972c0.083,0.372-1.122,1.942-0.94,2.74c10.486,46.812,20.981,93.627,31.464,140.443
					c0.299,1.325,0.595,2.647,0.893,3.974C149.157,148.857,150.362,147.292,150.181,146.493L150.181,146.493z"/>
			</g>
		</g>
		<g id="pattern_radial">
			<polygon fill="none" stroke="#2C2C2C" stroke-width="0.75" points="44,62.751 66.523,42.277 91.064,27.229 121.21,17.196 
				150,12.765 178.775,19.929 208.562,29.639 233.18,44.074 256,66.138 270.585,90.908 284.058,118.588 287.587,150.184 
				285.511,180.505 274.874,209.94 258.795,236.864 234.97,257.093 207.517,274.303 178.17,283.982 147.414,285.568 
				116.249,285.568 87.002,274.217 63.096,254.276 44,230.769 27.454,207.46 14.562,178.001 12.839,148 14.562,116.478 
				25.386,87.384 			"/>
			<polygon fill="none" stroke="#2C2C2C" stroke-width="0.75" points="55.587,74 75.658,53.82 98.24,42.277 124.658,32.583 
				149.637,30.307 175.885,32.583 200.788,42.277 224.474,54.982 241.675,76.058 256,97.919 267.88,122.266 271.587,150 
				271.587,177.311 261.174,203.321 244.292,225.265 224.884,244.404 201.903,259.088 174.547,267.967 148.328,271.5 
				120.308,267.967 95.2,257.297 72.951,244.404 55.587,222.372 41.19,199.216 32.886,173.876 27.587,148 30.411,120.149 
				40.273,94.617 			"/>
			<polygon fill="none" stroke="#2C2C2C" stroke-width="0.75" points="7.562,116.409 8.147,114.992 20.534,85.027 37.627,59.572 
				61.567,36.015 89.826,21.115 119.574,9.891 150,5 182.587,10.045 210.949,21.193 238.245,37.728 262.821,60.704 278.416,87.144 
				292.329,118.263 295.632,150.901 291.585,183.455 280.392,214.291 262.612,241.861 238.13,261.068 211.28,278.646 
				180.083,285.568 148.288,291.5 116.867,289.636 85.452,277.416 60.063,260.481 38.584,236.997 21.562,208.6 10.196,178.983 
				7.562,147.249 			"/>
			<polygon fill="none" stroke="#2C2C2C" stroke-width="0.75" points="21.917,119.735 32.886,91.028 50.811,68.222 70.173,49.328 
				95.294,32.583 122.965,25.027 150,20 177.99,23.364 204.061,35.487 229.186,49.079 248.884,69.867 265.792,94.895 
				276.433,120.321 281.587,149.622 279.08,179.029 267.88,206.562 252.393,231.743 230.305,251.225 206.16,267.967 177.77,275.346 
				148.328,278.5 118.597,275.387 92.819,265.688 68.551,247.472 49.201,226.644 34.944,202.201 25.233,177.15 21.917,148.277 			
				"/>
			<polygon fill="none" stroke="#2C2C2C" stroke-width="0.75" points="38.087,147.374 38.087,121.928 47.717,98.232 62.254,77.415 
				81.041,60.622 101.595,45.797 125.857,37.939 149.587,37.939 176.216,37.939 200.174,47.042 222.397,60.012 237.342,80.999 
				251.994,101.526 260.938,123.844 265.792,150.184 260.987,176.434 253.526,199.626 238.794,220.866 220.344,238.693 
				197.936,250.812 172.546,259.122 148.288,262.5 123.829,259.44 99.577,251.737 78.759,234.737 63.292,217.4 46.203,196.818 
				40.986,172.053 			"/>
			<polygon fill="none" stroke="#2C2C2C" stroke-width="0.75" points="85.452,147.249 87.163,133.296 91.064,117.324 
				96.375,106.764 109.252,96.265 123.107,90.908 136.408,85.027 150.758,89.77 162.823,89.77 176.683,95.787 186.183,102.954 
				193.733,113.796 201.21,124.255 207.517,135.988 210.587,149.622 205.442,162.132 202.19,174.82 195.458,186.204 
				185.924,195.389 177.152,207.46 163.701,213.16 149.107,213.16 135.55,208.6 121.13,203.778 109.154,196.818 96.066,189.474 
				91.064,175.369 87.707,161.533 			"/>
			<path fill="none" stroke="#2C2C2C" stroke-width="0.75" d="M115.757,155.218l-1.8-7.61v-8.105l2.911-5.997l4.624-8.508
				c0,0,4.201-3.08,4.851-4.699l8.578-4.62l7.935-1.882h6.732l7.319,1.882l8.195,1.646l9.053,3.128l4.24,5.561l5.829,5.501
				l3.691,8.929v9.178v8.488l-2.325,8.689l-4.511,7.903l-8.982,3.29l-6.995,6.373l-8.303-1.718l-8.471,1.718h-8.744l-8.217-1.718
				l-4.736-5.212l-6.339-7.177l-3.425-7.228L115.757,155.218z"/>
			<polygon fill="none" stroke="#2C2C2C" stroke-width="0.75" points="65.886,128.368 74.012,108 82.271,93.494 95.865,81.79 
				113.957,71.719 131.6,63.566 150,63.566 170.363,63.566 187.915,68.989 202.81,82.124 216.649,95.967 224.474,113.073 
				234.031,131.515 236.587,149.081 234.614,170.381 227.074,188.526 216.649,203.155 202.356,216.062 185.304,224.464 
				167.754,231.075 148.328,231.075 129.308,228.936 113.957,218.584 97.995,213.16 85.452,197.893 74.012,182.647 68.587,165.016 
				65.886,148.277 			"/>
		</g>
	</g>
	<g id="rhythm">
		<g>
			<path fill="#FFFFFF" fill-opacity="0.65" stroke="#2C2C2C" stroke-width="0.25" d="M151.862,147.47
				c23.029-47.783,46.058-95.566,69.086-143.349c0.652-1.354,1.304-2.705,1.956-4.056c-0.185,0.381-2.301,0.912-2.693,1.728
				c-23.028,47.784-46.058,95.567-69.086,143.351c-0.652,1.352-1.303,2.704-1.955,4.056
				C149.354,148.816,151.471,148.287,151.862,147.47L151.862,147.47z"/>
		</g>
		<g>
			<path fill="#FFFFFF" fill-opacity="0.64" stroke="#2C2C2C" stroke-width="0.25" d="M152.41,149.487
				c48.158-23.147,96.318-46.295,144.475-69.442c1.363-0.656,2.726-1.31,4.087-1.965c-0.383,0.185-2.384-0.728-3.206-0.333
				c-48.157,23.15-96.315,46.297-144.475,69.444c-1.36,0.656-2.723,1.31-4.086,1.964C149.59,148.971,151.588,149.884,152.41,149.487
				L152.41,149.487z"/>
		</g>
		<g>
			<path fill="#FFFFFF" fill-opacity="0.64" stroke="#2C2C2C" stroke-width="0.25" d="M149.872,152.829
				c38.812,48.83,77.624,97.661,116.435,146.494c1.1,1.381,2.194,2.765,3.294,4.144c-0.308-0.386,0.214-2.902-0.45-3.735
				c-38.814-48.833-77.626-97.658-116.438-146.494c-1.097-1.381-2.194-2.762-3.292-4.146
				C149.729,149.484,149.206,151.996,149.872,152.829L149.872,152.829z"/>
		</g>
		<g>
			<path fill="#FFFFFF" fill-opacity="0.64" stroke="#2C2C2C" stroke-width="0.25" d="M146.589,151.02
				c-23.424,48.35-46.851,96.705-70.279,145.057c-0.663,1.369-1.327,2.734-1.988,4.105c0.186-0.383,2.335-0.921,2.733-1.748
				c23.425-48.351,46.849-96.704,70.279-145.056c0.664-1.372,1.326-2.736,1.991-4.105
				C149.134,149.661,146.987,150.193,146.589,151.02L146.589,151.02z"/>
		</g>
		<g>
			<path fill="#FFFFFF" fill-opacity="0.64" stroke="#2C2C2C" stroke-width="0.25" d="M146.093,148.969
				c-47.803,22.857-95.611,45.717-143.419,68.574c-1.352,0.643-2.705,1.287-4.057,1.937c0.379-0.181,2.366,0.728,3.181,0.335
				c47.805-22.854,95.61-45.717,143.418-68.569c1.355-0.648,2.705-1.293,4.06-1.94C148.892,149.488,146.908,148.578,146.093,148.969
				L146.093,148.969z"/>
		</g>
		<g>
			<path fill="#FFFFFF" stroke="#2C2C2C" stroke-width="0.25" d="M149.505,146.066c-22.957-48.141-45.92-96.288-68.876-144.436
				c-0.646-1.362-1.293-2.722-1.945-4.086c0.182,0.382-0.735,2.383-0.34,3.203c22.954,48.143,45.919,96.287,68.871,144.435
				c0.652,1.363,1.301,2.723,1.951,4.087C148.98,148.883,149.898,146.889,149.505,146.066L149.505,146.066z"/>
		</g>
	</g>
	<g id="movement_1_">
		<g id="spider">
			<path fill="#F2F2F2" stroke="#2C2C2C" d="M299.583,148.623c-0.099,0.423-0.197,0.847-0.296,1.27
				c0.278-0.416,0.556-0.831,0.834-1.246c-38.151-27.484-76.304-54.968-114.456-82.452c-25.012-18.018-50.023-36.035-75.034-54.053
				c0.01,0.007-0.865,1.223-0.835,1.246c37.755,29.251,75.511,58.501,113.267,87.752c21.369,16.556,42.738,33.111,64.107,49.667
				c0.278-0.416,0.556-0.831,0.834-1.246c-39.405-28.21-78.811-56.42-118.217-84.631c-18.471-13.223-36.942-26.447-55.413-39.67
				c0.011,0.008-0.866,1.221-0.835,1.246c38.766,30.524,77.531,61.048,116.297,91.572c13.778,10.849,27.556,21.697,41.334,32.545
				c0.278-0.416,0.556-0.831,0.834-1.246c-40.537-28.937-81.075-57.873-121.613-86.81c-10.62-7.581-21.24-15.162-31.86-22.742
				c0.01,0.007-0.865,1.222-0.835,1.246c39.314,30.744,78.628,61.487,117.941,92.231c6.648,5.199,13.298,10.398,19.946,15.598
				c0.278-0.416,0.556-0.831,0.834-1.246c-41.338-25.894-82.676-51.787-124.014-77.68c-2.139-1.34-4.278-2.68-6.417-4.019
				c0.013,0.008-0.875,1.207-0.835,1.246c28.34,27.682,56.679,55.363,85.019,83.044c0.278-0.416,0.556-0.831,0.834-1.246
				c-23.865-12.001-47.729-24.003-71.595-36.004c-0.065-0.033-0.79,1.269-0.835,1.246c23.865,12.001,47.73,24.003,71.596,36.004
				c0.01,0.005,0.861-1.22,0.834-1.246c-28.339-27.682-56.679-55.363-85.018-83.044c-0.278,0.416-0.557,0.831-0.835,1.246
				c41.339,25.894,82.677,51.787,124.015,77.68c2.139,1.34,4.278,2.68,6.417,4.019c0.004,0.003,0.855-1.23,0.834-1.246
				c-39.313-30.744-78.627-61.487-117.941-92.231c-6.649-5.199-13.297-10.398-19.946-15.598c-0.278,0.416-0.557,0.831-0.835,1.246
				c40.538,28.937,81.076,57.874,121.614,86.81c10.62,7.581,21.24,15.162,31.86,22.742c-0.011-0.007,0.865-1.222,0.834-1.246
				c-38.766-30.524-77.531-61.048-116.297-91.572c-13.778-10.849-27.555-21.697-41.333-32.545c-0.278,0.416-0.557,0.831-0.835,1.246
				c39.406,28.21,78.812,56.42,118.217,84.631c18.472,13.223,36.942,26.447,55.414,39.67c-0.01-0.007,0.864-1.223,0.834-1.246
				c-37.755-29.251-75.511-58.501-113.266-87.752C153.369,45.253,132,28.697,110.631,12.142c-0.278,0.416-0.557,0.831-0.835,1.246
				c38.152,27.484,76.305,54.968,114.456,82.452c25.012,18.018,50.023,36.035,75.035,54.053c-0.021-0.015,0.8-1.1,0.834-1.246
				c0.099-0.423,0.197-0.847,0.296-1.27C300.312,147.828,299.689,148.164,299.583,148.623L299.583,148.623z"/>
		</g>
		<line display="none" fill="#CE0F58" stroke="#2C2C2C" stroke-width="2" x1="149.166" y1="149.271" x2="107.858" y2="4.511"/>
		<line display="none" fill="#CE0F58" stroke="#2C2C2C" stroke-width="2" x1="149.166" y1="149.27" x2="299.704" y2="149.27"/>
	</g>
	<g id="contrast">
		<polygon fill="#2C2C2C" fill-opacity="0.64" stroke="#FFFFFF" stroke-width="0.25" points="46.805,123.948 53.948,102.954 
			73.007,110.518 65.886,128.368 		"/>
		<polygon fill="#2C2C2C" fill-opacity="0.64" stroke="#FFFFFF" stroke-width="0.25" points="67.546,81.667 84.473,64.958 
			95.865,81.79 82.271,93.494 		"/>
		<polygon fill="#2C2C2C" fill-opacity="0.64" stroke="#FFFFFF" stroke-width="0.25" points="105.515,53.82 113.924,71.455 
			131.869,65.412 126.346,47.042 		"/>
		<polygon fill="#2C2C2C" fill-opacity="0.64" stroke="#FFFFFF" stroke-width="0.25" points="150,42.277 150,63.566 170.363,63.566 
			174.661,44.748 		"/>
		<polygon fill="#2C2C2C" fill-opacity="0.64" stroke="#FFFFFF" stroke-width="0.25" points="187.915,68.989 202.81,82.124 
			218.664,67.522 197.43,52.921 		"/>
		<polygon fill="#2C2C2C" fill-opacity="0.64" stroke="#FFFFFF" stroke-width="0.25" points="216.649,95.967 224.474,113.073 
			246.463,104.28 233.087,82.447 		"/>
		<polygon fill="#2C2C2C" fill-opacity="0.64" stroke="#FFFFFF" stroke-width="0.25" points="234.031,131.515 236.587,149.081 
			256,150.905 253.86,127.007 		"/>
		<polygon fill="#2C2C2C" fill-opacity="0.64" stroke="#FFFFFF" stroke-width="0.25" points="234.614,170.381 253.082,173.064 
			244.292,196.751 227.656,187.126 		"/>
		<polygon fill="#2C2C2C" fill-opacity="0.64" stroke="#FFFFFF" stroke-width="0.25" points="202.356,216.062 216.649,203.155 
			231.038,216.604 215.198,231.855 		"/>
		<polygon fill="#2C2C2C" fill-opacity="0.64" stroke="#FFFFFF" stroke-width="0.25" points="185.304,224.464 193.185,244.404 
			172.465,251.893 167.754,231.075 		"/>
		<polygon fill="#2C2C2C" fill-opacity="0.64" stroke="#FFFFFF" stroke-width="0.25" points="129.308,228.936 148.328,231.075 
			150,254.277 125.569,251.893 		"/>
		<polygon fill="#2C2C2C" fill-opacity="0.64" stroke="#FFFFFF" stroke-width="0.25" points="102.096,242.856 113.957,218.584 
			97.995,213.16 83.009,231.855 		"/>
		<polygon fill="#2C2C2C" fill-opacity="0.64" stroke="#FFFFFF" stroke-width="0.25" points="65.886,212.778 85.452,197.893 
			74.012,182.647 53.948,193.152 		"/>
		<polygon fill="#2C2C2C" fill-opacity="0.64" stroke="#FFFFFF" stroke-width="0.25" points="46.805,170.742 68.587,165.016 
			65.886,148.277 44,148.276 		"/>
	</g>
	<polyline fill="none" stroke="#2C2C2C" stroke-width="2" points="2.674,217.543 23.893,247.771 33.286,241.199 	"/>
</g>
</svg>
