<?xml version="1.0" encoding="utf-8"?>
<!-- Generator: Adobe Illustrator 14.0.0, SVG Export Plug-In . SVG Version: 6.00 Build 43363)  -->
<!DOCTYPE svg PUBLIC "-//W3C//DTD SVG 1.1//EN" "http://www.w3.org/Graphics/SVG/1.1/DTD/svg11.dtd">
<svg name="11" version="1.1" xmlns="http://www.w3.org/2000/svg" xmlns:xlink="http://www.w3.org/1999/xlink" x="0px" y="0px" width="300px"
	 height="300px" viewBox="0 0 300 300" enable-background="new 0 0 300 300" xml:space="preserve">
<g id="cluster_eleven">
	<g id="color_emphasis_10_">
		<path fill="none" stroke="#D2442A" stroke-width="4" d="M177.831,278.37c-8.971,1.936-18.281,2.954-27.832,2.954
			c-72.528,0-131.323-58.794-131.323-131.323c0-10.374,1.202-20.464,3.475-30.144"/>
		<path fill="none" stroke="#101011" stroke-width="4" d="M252.937,68.443c17.772,22.401,28.387,50.739,28.387,81.558
			c0,62.98-44.332,115.603-103.492,128.369"/>
		<path fill="none" stroke="#32383E" stroke-width="4" d="M22.15,119.857C35.773,61.858,87.844,18.677,149.999,18.677
			c41.712,0,78.88,19.446,102.938,49.767"/>
	</g>
	<g id="rhythm_9_" opacity="0.03">
		<g>
			<path fill="#FFFFFF" stroke="#2C2C2C" stroke-width="3" d="M149.747,149.004c24.154-47.47,48.312-94.941,72.468-142.411
				c0.798-1.569,1.596-3.137,2.394-4.704c-0.192,0.378-2.325,0.864-2.736,1.674c-24.155,47.47-48.312,94.939-72.469,142.411
				c-0.798,1.566-1.596,3.135-2.395,4.704C147.202,150.299,149.334,149.812,149.747,149.004L149.747,149.004z"/>
		</g>
		<g>
			<path fill="#FFFFFF" stroke="#2C2C2C" stroke-width="3" d="M148.972,148.81c49.868-36.312,99.738-72.624,149.606-108.936
				c1.649-1.2,3.296-2.399,4.943-3.6c-0.397,0.29-2.855-0.329-3.704,0.291c-49.868,36.313-99.739,72.624-149.608,108.937
				c-1.647,1.197-3.295,2.397-4.944,3.598C145.664,148.81,148.121,149.427,148.972,148.81L148.972,148.81z"/>
		</g>
		<g>
			<path fill="#FFFFFF" stroke="#2C2C2C" stroke-width="3" d="M146.855,146.979c49.725,30.312,99.449,60.621,149.172,90.931
				c1.643,1.004,3.287,2.004,4.93,3.007c-0.397-0.244-0.75-2.61-1.597-3.124c-49.727-30.311-99.447-60.623-149.173-90.932
				c-1.642-1.005-3.283-2.004-4.925-3.008C145.657,144.096,146.012,146.462,146.855,146.979L146.855,146.979z"/>
		</g>
		<g>
			<path fill="#FFFFFF" stroke="#2C2C2C" stroke-width="3" d="M146.896,145.885c31.018,50.289,62.033,100.576,93.049,150.865
				c1.023,1.662,2.05,3.324,3.073,4.986c-0.246-0.404,0.523-2.706-0.006-3.561c-31.019-50.289-62.03-100.578-93.047-150.863
				c-1.022-1.666-2.048-3.323-3.071-4.988C147.141,142.726,146.371,145.029,146.896,145.885L146.896,145.885z"/>
		</g>
		<g>
			<path fill="#FFFFFF" stroke="#2C2C2C" stroke-width="3" d="M148.764,144.168C112.589,194.4,76.413,244.634,40.239,294.859
				c-1.198,1.658-2.391,3.321-3.589,4.98c0.292-0.399,2.828-0.582,3.44-1.436c36.176-50.236,72.355-100.462,108.525-150.69
				c1.201-1.659,2.389-3.32,3.588-4.979C151.919,143.135,149.38,143.319,148.764,144.168L148.764,144.168z"/>
		</g>
		<g>
			<path fill="#FFFFFF" stroke="#2C2C2C" stroke-width="3" d="M151.538,146.111C103.239,105.357,54.934,64.604,6.64,23.851
				c-1.594-1.349-3.195-2.693-4.79-4.042c0.385,0.327,0.37,2.925,1.193,3.614C51.35,64.178,99.644,104.937,147.94,145.686
				c1.595,1.351,3.19,2.69,4.787,4.04C152.342,149.403,152.356,146.805,151.538,146.111L151.538,146.111z"/>
		</g>
		<g>
			<path fill="#FFFFFF" stroke="#2C2C2C" stroke-width="3" d="M151.62,146.831C116.196,98.711,80.768,50.589,45.351,2.47
				c-1.17-1.592-2.347-3.182-3.514-4.773c0.28,0.387-0.305,2.771,0.3,3.587c35.429,48.122,70.849,96.247,106.269,144.363
				c1.17,1.593,2.341,3.177,3.512,4.77C151.634,150.035,152.219,147.648,151.62,146.831L151.62,146.831z"/>
		</g>
	</g>
	<g id="pattern_balance_7_">
		<g id="pattern_lines_out_9_">
			<g>
				<path fill="#FFFFFF" stroke="#2C2C2C" d="M150.758,148.768c0-48.044,0-96.088,0-144.132c0-1.587,0-3.174,0-4.761
					c0,0.383-1.516,1.646-1.516,2.465c0,48.044,0,96.088,0,144.132c0,1.587,0,3.174,0,4.761
					C149.242,150.85,150.758,149.586,150.758,148.768L150.758,148.768z"/>
			</g>
			<g>
				<path fill="#FFFFFF" stroke="#2C2C2C" d="M150.181,149.058c11.203-46.719,22.406-93.438,33.61-140.158
					c0.37-1.543,0.739-3.086,1.11-4.629c-0.09,0.372-1.858,1.247-2.049,2.043c-11.203,46.72-22.407,93.438-33.61,140.158
					c-0.37,1.543-0.74,3.086-1.11,4.63C148.222,150.729,149.989,149.854,150.181,149.058L150.181,149.058z"/>
			</g>
			<g>
				<path fill="#FFFFFF" stroke="#2C2C2C" d="M148.905,149.202c31.173-36.558,62.348-73.115,93.521-109.672
					c1.03-1.208,2.06-2.416,3.089-3.623c-0.248,0.291-2.222,0.269-2.752,0.893c-31.173,36.558-62.348,73.114-93.521,109.672
					c-1.03,1.206-2.06,2.414-3.091,3.622C146.401,149.803,148.374,149.824,148.905,149.202L148.905,149.202z"/>
			</g>
			<g>
				<path fill="#FFFFFF" stroke="#2C2C2C" d="M147.704,148.752c44.362-18.443,88.726-36.888,133.088-55.331
					c1.467-0.608,2.931-1.219,4.396-1.827c-0.354,0.146-2.103-0.768-2.857-0.453c-44.362,18.445-88.726,36.887-133.089,55.331
					c-1.466,0.607-2.931,1.217-4.397,1.826C145.199,148.15,146.948,149.064,147.704,148.752L147.704,148.752z"/>
			</g>
			<g>
				<path fill="#FFFFFF" stroke="#2C2C2C" d="M147.215,148.33c47.44-7.59,94.882-15.181,142.321-22.771
					c1.568-0.249,3.135-0.502,4.701-0.752c-0.378,0.061-1.865-1.236-2.673-1.106c-47.44,7.592-94.881,15.18-142.322,22.771
					c-1.567,0.249-3.134,0.5-4.702,0.75C144.919,147.161,146.407,148.458,147.215,148.33L147.215,148.33z"/>
			</g>
			<g>
				<path fill="#FFFFFF" stroke="#2C2C2C" d="M146.837,147.807c47.902,3.682,95.807,7.362,143.707,11.044
					c1.584,0.124,3.166,0.244,4.748,0.366c-0.383-0.029-1.526-1.638-2.342-1.699c-47.903-3.682-95.805-7.365-143.708-11.046
					c-1.583-0.124-3.163-0.245-4.747-0.367C144.877,146.134,146.022,147.742,146.837,147.807L146.837,147.807z"/>
			</g>
			<g>
				<path fill="#FFFFFF" stroke="#2C2C2C" d="M146.592,147.208c45.724,14.751,91.448,29.501,137.17,44.252
					c1.511,0.489,3.022,0.976,4.532,1.463c-0.365-0.118-1.104-1.949-1.882-2.198c-45.725-14.751-91.445-29.504-137.17-44.253
					c-1.511-0.49-3.02-0.977-4.53-1.465C145.075,145.125,145.815,146.956,146.592,147.208L146.592,147.208z"/>
			</g>
			<g>
				<path fill="#FFFFFF" stroke="#2C2C2C" d="M146.546,145.925c34.062,33.884,68.122,67.767,102.182,101.649
					c1.125,1.121,2.252,2.24,3.377,3.36c-0.271-0.272-0.1-2.238-0.68-2.813c-34.063-33.884-68.12-67.768-102.183-101.649
					c-1.124-1.123-2.249-2.239-3.373-3.361C146.14,143.381,145.968,145.348,146.546,145.925L146.546,145.925z"/>
			</g>
			<g>
				<path fill="#FFFFFF" stroke="#2C2C2C" d="M147.087,144.761c14.99,45.646,29.979,91.292,44.969,136.937
					c0.494,1.509,0.99,3.018,1.484,4.526c-0.117-0.366,0.928-2.04,0.67-2.815c-14.991-45.647-29.977-91.293-44.968-136.937
					c-0.492-1.512-0.989-3.017-1.482-4.526C147.88,142.309,146.834,143.984,147.087,144.761L147.087,144.761z"/>
			</g>
			<g>
				<path fill="#FFFFFF" stroke="#2C2C2C" d="M147.545,144.305c3.933,47.885,7.865,95.767,11.796,143.647
					c0.129,1.583,0.26,3.166,0.389,4.749c-0.028-0.384,1.378-1.769,1.309-2.582c-3.934-47.885-7.861-95.768-11.796-143.647
					c-0.126-1.585-0.259-3.165-0.386-4.747C148.889,142.105,147.48,143.491,147.545,144.305L147.545,144.305z"/>
			</g>
			<g>
				<path fill="#FFFFFF" stroke="#2C2C2C" d="M148.097,143.968c-7.342,47.481-14.684,94.962-22.026,142.438
					c-0.244,1.569-0.485,3.139-0.729,4.709c0.062-0.38,1.752-1.398,1.874-2.205c7.342-47.483,14.688-94.962,22.027-142.438
					c0.247-1.57,0.485-3.139,0.731-4.706C149.917,142.143,148.224,143.162,148.097,143.968L148.097,143.968z"/>
			</g>
			<g>
				<path fill="#FFFFFF" stroke="#2C2C2C" d="M148.712,143.77c-18.211,44.46-36.423,88.92-54.635,133.375
					c-0.604,1.469-1.203,2.939-1.807,4.409c0.148-0.355,2.029-0.951,2.336-1.707c18.213-44.463,36.428-88.919,54.636-133.375
					c0.606-1.47,1.203-2.938,1.808-4.406C150.907,142.419,149.023,143.016,148.712,143.77L148.712,143.77z"/>
			</g>
			<g>
				<path fill="#FFFFFF" stroke="#2C2C2C" d="M149.995,143.822c-36.395,31.365-72.79,62.73-109.182,94.092
					c-1.205,1.034-2.406,2.074-3.61,3.109c0.292-0.249,2.239,0.072,2.856-0.462c36.396-31.367,72.793-62.728,109.183-94.09
					c1.208-1.036,2.404-2.073,3.608-3.108C152.563,143.613,150.613,143.292,149.995,143.822L149.995,143.822z"/>
			</g>
			<g>
				<path fill="#FFFFFF" stroke="#2C2C2C" d="M150.593,144.07c-42.706,22.014-85.412,44.027-128.114,66.037
					c-1.413,0.725-2.823,1.457-4.235,2.183c0.342-0.174,2.161,0.593,2.885,0.217c42.707-22.016,85.414-44.023,128.114-66.035
					c1.416-0.727,2.821-1.455,4.233-2.182C153.138,144.467,151.316,143.699,150.593,144.07L150.593,144.07z"/>
			</g>
			<g>
				<path fill="#FFFFFF" stroke="#2C2C2C" d="M151.115,144.451c-46.661,11.447-93.324,22.896-139.981,34.341
					c-1.543,0.376-3.085,0.759-4.627,1.136c0.372-0.09,1.963,1.08,2.754,0.883c46.664-11.45,93.326-22.892,139.981-34.339
					c1.546-0.377,3.082-0.758,4.626-1.134C153.497,145.431,151.906,144.259,151.115,144.451L151.115,144.451z"/>
			</g>
			<g>
				<path fill="#FFFFFF" stroke="#2C2C2C" d="M151.534,144.943c-48.043,0.251-96.09,0.503-144.13,0.752
					c-1.588,0.006-3.177,0.018-4.765,0.024c0.383,0,1.657,1.509,2.473,1.502c48.048-0.253,96.091-0.498,144.13-0.75
					c1.591-0.006,3.174-0.019,4.763-0.024C153.622,146.451,152.349,144.94,151.534,144.943L151.534,144.943z"/>
			</g>
			<g>
				<path fill="#FFFFFF" stroke="#2C2C2C" d="M151.827,145.52c-46.776-10.959-93.558-21.918-140.331-32.879
					c-1.546-0.364-3.094-0.724-4.64-1.087c0.373,0.089,1.26,1.854,2.055,2.037c46.782,10.958,93.558,21.923,140.331,32.881
					c1.548,0.365,3.09,0.723,4.638,1.087C153.506,147.474,152.62,145.707,151.827,145.52L151.827,145.52z"/>
			</g>
			<g>
				<path fill="#FFFFFF" stroke="#2C2C2C" d="M151.978,146.148c-42.931-21.565-85.867-43.131-128.795-64.697
					c-1.418-0.715-2.84-1.425-4.258-2.139c0.342,0.174,0.792,2.096,1.523,2.46c42.937,21.565,85.865,43.136,128.794,64.699
					c1.419,0.716,2.836,1.423,4.256,2.138C153.155,148.44,152.706,146.516,151.978,146.148L151.978,146.148z"/>
			</g>
			<g>
				<path fill="#FFFFFF" stroke="#2C2C2C" d="M151.448,148.122c-16.262-45.208-32.525-90.419-48.781-135.624
					c-0.536-1.496-1.078-2.992-1.613-4.486c0.127,0.363-0.869,2.064-0.592,2.833c16.264,45.212,32.52,90.422,48.78,135.627
					c0.536,1.495,1.075,2.984,1.61,4.48C150.723,150.594,151.722,148.89,151.448,148.122L151.448,148.122z"/>
			</g>
		</g>
		<g id="pattern_radial_10_">
			<polygon fill="none" stroke="#2C2C2C" stroke-width="0.84" points="84.526,113.961 94.427,97.924 107.908,87.453 125.954,77.686 
				149.974,76.283 167.296,77.686 193.029,95.122 208.618,105.377 214.201,119.466 215.438,137.415 215.438,153.078 
				211.156,168.037 192.107,189.112 180.625,197.022 170.049,209.829 153.88,211.81 139.946,209.829 125.341,204.821 
				108.131,200.591 96.187,192.193 87.512,178.29 84.526,160.788 84.526,145.294 84.526,129.557 			"/>
			<polygon fill="none" stroke="#2C2C2C" stroke-width="0.84" points="78.791,108.708 85.489,90.793 100.413,74.057 121.66,67.738 
				150.632,67.738 170.129,65.872 201.859,84.768 216.503,97.23 224.608,116.779 224.608,134.414 224.608,152.973 223.504,170.429 
				212.249,186.841 200.853,198.668 188.943,210.511 171.353,218.652 155.68,224.863 136.141,221.287 118.628,217.213 
				103.392,210.511 88.674,198.668 75.635,182.709 73.831,164.971 70.588,146.881 70.896,128.113 			"/>
			<polygon fill="none" stroke="#2C2C2C" stroke-width="0.84" points="95.026,117.541 100.413,105.583 112.987,97.53 
				128.656,89.235 150.632,87.453 162.526,91.074 174.735,96.191 184.901,104.654 194.251,113.961 200.853,123.692 205.931,137.402 
				203.97,150.678 198.686,162.422 193.738,173.406 182.966,182.154 175.746,189.112 164.79,198.668 152.728,198.668 
				141.171,198.668 128.578,192.923 118.803,189.112 105.19,182.154 98.253,170.248 95.026,158.212 94.427,147.222 95.026,133.769 
							"/>
			<polygon fill="none" stroke="#2C2C2C" stroke-width="0.84" points="105.19,122.646 113.435,113.961 120.829,105.005 
				133.084,101.547 148.618,101.227 159.101,101.547 170.129,105.245 177.831,112.945 184.901,120.241 189.204,129.557 
				194.955,139.158 191.413,151.232 189.204,160.955 183.507,167.17 177.831,174.91 171.797,182.709 161.041,187.251 
				151.225,189.112 141.468,186.841 132.762,182.709 122.359,180.833 115.667,173.406 107.24,167.17 104.746,155.827 
				104.746,143.968 104.746,134.489 			"/>
			<polygon fill="none" stroke="#2C2C2C" stroke-width="0.84" points="116.073,128.113 119.649,119.946 127.216,113.961 
				136.683,111.554 150.632,108.53 158.993,112.307 165.693,113.961 172.104,121.996 177.831,125.389 182.159,132.787 
				184.901,141.945 184.901,148.609 182.159,157.09 176.062,162.632 170.649,170.248 166.517,174.147 158.098,178.29 
				149.974,180.833 143.019,178.29 135.036,177.158 127.707,173.406 120.829,170.248 114.991,162.422 111.92,152.66 111.92,145.17 
				111.92,137.727 			"/>
			<polygon fill="none" stroke="#2C2C2C" stroke-width="0.84" points="125.341,132.769 130.996,121.996 139.528,119.466 
				149.974,115.692 157.276,119.466 166.517,126.214 173.144,131.209 174.735,137.514 177.831,142.735 177.831,148.669 
				174.599,154.651 167.021,162.632 157.051,170.248 150,174.198 144.54,173.406 138.392,168.965 135.036,166.572 128.17,162.632 
				122.908,158.341 119.649,150.678 119.649,145.367 119.649,139.538 			"/>
			<polygon fill="none" stroke="#2C2C2C" stroke-width="0.84" points="132.469,136.349 137.657,129.557 143.019,128.113 
				149.242,128.113 154.005,126.61 159.101,126.918 162.026,131.479 163.237,136.016 167.021,139.08 170.129,142.735 170.129,148 
				168.428,152.66 164.898,155.827 161.041,160.344 158.003,160.344 153.476,162.632 149.242,164.971 144.712,165.857 
				140.986,162.632 137.544,159.748 132.469,155.827 130.065,154.651 130.065,150.678 127.216,146.082 128.981,141.725 			"/>
			<polygon fill="none" stroke="#2C2C2C" stroke-width="0.84" points="73.952,80.648 92.271,65.872 119.649,54.848 150.632,51.538 
				172.008,51.538 191.392,63.46 211.085,76.283 223.11,89.235 235.366,112.307 235.366,132.693 235.904,154.651 232.733,173.406 
				223.11,193.905 210.785,209.829 194.251,224.863 176.503,229.485 156.703,237.324 135.036,234.307 115.237,229.485 
				96.877,219.556 78.322,207.588 65.142,186.841 58.512,167.17 58.512,145.367 58.512,123.947 65.277,102.598 			"/>
			<polygon fill="none" stroke="#2C2C2C" stroke-width="0.84" points="66.139,74.057 85.859,57.502 114.142,44.404 149.974,40.479 
				176.218,40.479 197.459,51.538 219.389,64.211 236.924,84.768 245.515,108.087 245.515,132.603 245.515,154.651 242.351,176.51 
				231.651,198.668 219.894,218.652 200.853,233.368 177.831,238.381 155.827,248.229 132.661,243.791 110.554,240.916 
				86.212,231.027 70.174,212.612 55.818,192.923 46.805,168.965 46.805,143.968 44.789,121.996 54.362,97.114 			"/>
			<polygon fill="none" stroke="#2C2C2C" stroke-width="0.84" points="56.439,65.872 78.322,47.264 107.961,31.692 149.242,24.667 
				177.653,27.997 204.603,37.5 229.29,54.848 248.33,74.057 263.065,99.151 267.254,128.113 267.254,157.061 261.565,182.709 
				252.104,208.986 235.904,232.682 210.019,248.229 184.901,258.096 159.101,266.524 129.613,263.5 104.746,258.096 
				80.188,242.729 58.274,224.863 40.942,200.591 31.92,170.248 31.92,146.082 33.99,119.466 41.837,92.516 			"/>
			<polygon fill="none" stroke="#2C2C2C" stroke-width="0.84" points="29.783,84.768 44.789,56.042 71.136,37.5 105.616,19.809 
				150.632,12.262 181.624,17.938 235.904,42.277 259.57,65.872 276.974,93.368 285.188,124.722 285.188,155.827 281.323,186.841 
				267.254,217.213 247.071,243.791 221.624,263.5 192.556,278.37 161.041,286.224 126.821,281.554 96.877,274.304 69.119,258.096 
				44.999,234.307 26.322,209.829 13.181,178.29 13.181,144.682 18.243,114.222 			"/>
			<polygon fill="none" stroke="#2C2C2C" stroke-width="0.84" points="18.676,76.445 37.616,49.99 61.989,25.075 101.054,8.012 
				150,0 184.901,4.271 217.521,15.815 245.515,35.907 269.547,58.607 285.188,91.594 291.564,123.701 295.292,159.217 
				286.412,190.725 278.558,224.287 252.104,250.935 228.27,274.274 193.54,286.224 159.729,292.701 127.215,288.91 60.646,266.524 
				40.06,240.562 18.243,212.29 6.507,179.928 2.64,145.72 10.07,112.307 			"/>
			<polygon fill="none" stroke="#2C2C2C" stroke-width="0.84" points="139.218,139.739 143.658,136.016 145.263,135.408 
				150.179,133.333 153.868,133.68 158.158,136.016 161.428,139.739 163.165,142.324 164.306,145.596 163.388,147.559 
				162.281,150.678 159.704,152.66 158.202,155.384 154.292,157.876 152.728,159.217 149.974,159.217 147.009,159.217 
				144.495,158.062 140.746,155.301 139.218,153.11 137.544,151.232 135.268,148.339 135.268,145.596 136.571,141.945 			"/>
			<line fill="none" stroke="#2C2C2C" stroke-width="0.84" x1="26.345" y1="40.479" x2="57.022" y2="21.503"/>
		</g>
	</g>
	<g id="contrast_10_">
		<polygon fill="#2C2C2C" fill-opacity="0.02" points="29.783,84.768 44.789,56.042 56.439,65.872 43.111,91.463 		"/>
		<polygon fill="#2C2C2C" fill-opacity="0.02" points="71.136,37.5 105.616,19.809 107.961,31.692 78.322,47.264 		"/>
		<polygon fill="#2C2C2C" fill-opacity="0.02" points="151.05,24.879 150.632,12.262 181.624,17.938 177.653,27.997 		"/>
		<polygon fill="#2C2C2C" fill-opacity="0.02" points="204.603,37.5 208.438,29.961 238.163,44.529 229.29,54.848 		"/>
		<polygon fill="#2C2C2C" fill-opacity="0.02" points="248.33,74.057 259.57,65.872 276.974,93.368 262.017,101.227 		"/>
		<polygon fill="#2C2C2C" fill-opacity="0.02" points="267.254,128.113 288.294,125.758 284.866,158.414 267.254,157.061 		"/>
		<polygon fill="#2C2C2C" fill-opacity="0.02" points="261.565,182.709 281.323,190.674 267.254,217.213 252.104,208.986 		"/>
		<polygon fill="#2C2C2C" fill-opacity="0.02" points="235.904,232.682 247.071,243.791 221.624,263.5 211.614,247.27 		"/>
		<polygon fill="#2C2C2C" fill-opacity="0.02" points="184.901,258.096 192.556,278.37 161.041,286.224 159.101,266.524 		"/>
		<polygon fill="#2C2C2C" fill-opacity="0.02" points="131.145,263.5 128.32,281.758 96.877,274.304 103.517,258.096 		"/>
		<polygon fill="#2C2C2C" fill-opacity="0.02" points="69.119,258.096 80.188,242.729 58.274,224.863 44.999,234.307 		"/>
		<polygon fill="#2C2C2C" fill-opacity="0.02" points="26.322,209.829 41.837,200.591 34.079,173.163 13.181,178.29 		"/>
		<polygon fill="#2C2C2C" fill-opacity="0.02" points="13.181,146.351 31.92,146.082 33.99,119.466 18.243,114.222 		"/>
	</g>
	<g id="movement_10_">
		<line display="none" fill="none" stroke="#2C2C2C" x1="150" y1="148" x2="298.587" y2="148"/>
		<line display="none" fill="none" stroke="#2C2C2C" x1="150" y1="148" x2="243.172" y2="32.254"/>
		<g>
			<g>
				<path fill="#FFFFFF" d="M300.432,147.748c-11.933-19.683-23.865-39.365-35.798-59.047
					c-9.433-15.559-18.865-31.117-28.298-46.676c-0.29-0.479-1.08-0.168-0.914,0.385c6.946,23.058,13.892,46.115,20.837,69.172
					c3.504,11.634,7.009,23.268,10.513,34.901c0.305-0.128,0.609-0.257,0.914-0.385c-12.495-21.442-24.989-42.884-37.484-64.325
					c-3.46-5.938-6.921-11.877-10.381-17.814c-0.297-0.51-1.022-0.157-0.914,0.385c4.899,24.363,9.798,48.728,14.696,73.091
					c0.606,3.017,1.213,6.032,1.819,9.049c0.305-0.128,0.609-0.257,0.914-0.385c-11.243-20.338-22.486-40.676-33.729-61.014
					c-0.105-0.19-0.21-0.38-0.315-0.569c-0.284-0.514-1.032-0.154-0.914,0.385c4.526,20.527,9.053,41.056,13.578,61.583
					c0.305-0.128,0.609-0.257,0.914-0.385c-10.179-13.899-20.357-27.798-30.536-41.696c-0.34-0.465-1.012-0.186-0.914,0.385
					c2.487,14.448,4.974,28.897,7.46,43.346c0.279-0.162,0.558-0.324,0.836-0.486c-6.752-8.668-13.505-17.336-20.257-26.004
					c-0.332-0.427-0.933,0.046-0.836,0.486c1.909,8.668,3.818,17.336,5.727,26.004c0.279-0.162,0.558-0.324,0.836-0.486
					c-5.104-4.889-10.206-9.778-15.31-14.667c-0.298-0.285-0.881-0.099-0.854,0.354c0.289,4.742,0.577,9.483,0.866,14.226
					c0.167-0.167,0.333-0.333,0.5-0.5c-4.463,0.147-8.925,0.294-13.388,0.441c-0.644,0.021-0.646,1.021,0,1
					c4.463-0.147,8.925-0.294,13.388-0.441c0.26-0.009,0.517-0.221,0.5-0.5c-0.289-4.742-0.577-9.483-0.866-14.226
					c-0.284,0.118-0.569,0.235-0.854,0.354c5.104,4.889,10.206,9.778,15.31,14.667c0.371,0.355,0.942-0.002,0.836-0.486
					c-1.909-8.668-3.818-17.336-5.727-26.004c-0.279,0.162-0.558,0.324-0.836,0.486c6.752,8.668,13.505,17.336,20.257,26.004
					c0.343,0.439,0.91-0.056,0.836-0.486c-2.487-14.448-4.974-28.897-7.46-43.346c-0.305,0.128-0.609,0.257-0.914,0.385
					c10.179,13.899,20.357,27.798,30.536,41.696c0.33,0.451,1.041,0.192,0.914-0.385c-4.526-20.527-9.053-41.056-13.578-61.583
					c-0.305,0.128-0.609,0.257-0.914,0.385c11.243,20.338,22.486,40.676,33.729,61.014c0.105,0.19,0.21,0.38,0.315,0.569
					c0.286,0.52,1.021,0.151,0.914-0.385c-4.899-24.363-9.798-48.728-14.696-73.091c-0.606-3.017-1.213-6.032-1.819-9.049
					c-0.305,0.128-0.609,0.257-0.914,0.385c12.495,21.442,24.989,42.884,37.484,64.325c3.46,5.938,6.921,11.877,10.381,17.814
					c0.283,0.487,1.079,0.164,0.914-0.385c-6.946-23.058-13.892-46.115-20.837-69.173c-3.504-11.633-7.009-23.267-10.513-34.9
					c-0.305,0.128-0.609,0.257-0.914,0.385c11.933,19.683,23.865,39.365,35.798,59.047c9.433,15.559,18.865,31.117,28.298,46.676
					C299.902,148.803,300.767,148.301,300.432,147.748L300.432,147.748z"/>
				<g>
					<path fill="#2C2C2C" d="M301.182,146.449c-10.91-17.995-21.819-35.991-32.729-53.986c-5.402-8.91-10.805-17.821-16.207-26.731
						c-2.694-4.445-5.39-8.891-8.085-13.336c-1.348-2.223-2.694-4.445-4.042-6.668c-0.845-1.393-2.092-4.71-3.66-5.196
						c-0.288-0.089-1.14,1.687-1.241,1.891c-0.908,1.84-0.033,2.985,0.581,5.026c1.502,4.985,3.004,9.971,4.506,14.956
						c3.004,9.971,6.007,19.941,9.011,29.912c2.803,9.305,5.604,18.608,8.407,27.912c1.476,4.898,2.951,9.797,4.427,14.695
						c0.737,2.449,1.476,4.898,2.213,7.348c0.459,1.523,0.817,5.866,2.574,5.126c0.382-0.16,1.719-2.223,1.5-2.598
						c-8.221-14.106-16.44-28.213-24.661-42.319c-3.945-6.771-7.891-13.542-11.837-20.313c-1.901-3.264-3.803-6.527-5.705-9.79
						c-1.285-2.207-3.921-9.14-6.271-9.919c-0.282-0.094-1.137,1.691-1.24,1.89c-0.761,1.463-0.581,1.213-0.178,3.219
						c0.773,3.847,1.547,7.693,2.32,11.54c1.548,7.694,3.095,15.388,4.642,23.082c1.547,7.693,3.094,15.388,4.641,23.081
						c0.773,3.847,1.547,7.693,2.32,11.541c0.371,1.848,0.743,3.695,1.114,5.543c0.304,1.51,0.239,5.788,2.006,5.044
						c0.388-0.163,1.714-2.211,1.5-2.598c-5.782-10.46-11.564-20.919-17.347-31.379c-2.891-5.229-5.782-10.459-8.673-15.688
						c-1.606-2.906-3.213-5.812-4.819-8.717c-0.867-1.569-2.057-5.416-3.814-6.001c-0.282-0.095-1.137,1.691-1.24,1.89
						c-1.371,2.63,0.531,6.269,1.132,8.993c1.415,6.415,2.829,12.829,4.243,19.244c1.273,5.773,2.546,11.547,3.819,17.32
						c0.707,3.208,1.414,6.415,2.121,9.623c0.283,1.282,0.565,2.565,0.849,3.849c0.306,1.385-0.072,4.236,1.763,3.464
						c0.357-0.15,1.737-2.274,1.5-2.598c-5.089-6.95-10.179-13.899-15.269-20.849c-2.74-3.742-5.48-7.484-8.221-11.226
						c-1.707-2.331-4.975-8.969-7.668-9.818c-0.287-0.09-1.139,1.688-1.24,1.891c-0.744,1.473-0.564,1.221-0.214,3.259
						c0.792,4.597,1.583,9.194,2.374,13.791c1.583,9.195,3.165,18.39,4.747,27.584c0.021-0.009,0.041-0.018,0.062-0.026
						c0.278-0.162,0.557-0.324,0.836-0.486c0.317-0.185,1.674-2.271,1.438-2.571c-3.574-4.589-7.149-9.178-10.725-13.767
						c-1.589-2.04-3.177-4.079-4.766-6.119c-1.125-1.443-3.569-5.948-5.346-6.2c-0.396-0.057-1.236,1.866-1.372,2.164
						c-1.223,2.703,1.046,7.498,1.661,10.289c1.227,5.572,2.454,11.145,3.681,16.717c0.021-0.009,0.041-0.018,0.062-0.026
						c0.278-0.162,0.557-0.324,0.836-0.486c0.293-0.17,1.677-2.343,1.438-2.571c-2.783-2.667-5.567-5.334-8.351-8
						c-1.772-1.698-5.134-6.335-7.508-6.767c-0.145-0.026-0.435,0.505-0.483,0.578c-0.365,0.544-1.372,1.703-1.329,2.406
						c0.289,4.742,0.577,9.484,0.866,14.226c-0.013,0.075,0.011,0.089,0.069,0.04c0.166-0.167,0.333-0.333,0.5-0.5
						c0.269-0.269,1.396-2.57,1.438-2.571c-3.188,0.105-6.375,0.21-9.562,0.315c-1.64,0.054-3.311-0.464-4.477,0.781
						c-0.22,0.234-1.592,2.199-1.332,2.459c1.66,1.662,9.512,0.187,11.958,0.105c1.841-0.061,2.141,0.212,2.942-1.093
						c0.275-0.449,1.013-1.438,0.979-2.002c-0.289-4.742-0.577-9.484-0.866-14.226c-0.003-0.022-0.005-0.045-0.008-0.066
						c-0.284,0.117-0.569,0.235-0.854,0.354c-0.331,0.137-1.744,2.363-1.5,2.598c2.784,2.667,5.567,5.334,8.351,8
						c1.715,1.644,5.244,6.461,7.556,6.739c0.402,0.048,1.241-1.859,1.372-2.165c1.172-2.737-1.059-7.467-1.679-10.278
						c-1.227-5.572-2.454-11.145-3.681-16.717c-0.021,0.009-0.041,0.018-0.062,0.026c-0.278,0.162-0.557,0.324-0.836,0.486
						c-0.317,0.185-1.673,2.271-1.438,2.571c3.574,4.589,7.149,9.178,10.725,13.767c1.589,2.04,3.178,4.079,4.766,6.119
						c1.124,1.442,3.567,5.944,5.341,6.201c0.397,0.058,1.235-1.867,1.372-2.164c0.749-1.63,0.012-3.2-0.289-4.943
						c-0.791-4.598-1.582-9.194-2.373-13.792c-0.792-4.598-1.583-9.194-2.374-13.792c-0.339-1.971-0.678-3.94-1.017-5.911
						c-0.266-1.538-0.148-6.276-1.932-5.525c-0.357,0.15-1.737,2.274-1.5,2.598c5.089,6.95,10.179,13.899,15.268,20.849
						c2.741,3.742,5.481,7.484,8.222,11.226c1.7,2.321,4.988,8.989,7.675,9.815c0.289,0.089,1.14-1.685,1.241-1.89
						c1.312-2.656-0.549-6.246-1.152-8.984c-1.415-6.415-2.829-12.83-4.243-19.244c-1.273-5.773-2.546-11.547-3.819-17.32
						c-0.707-3.208-1.414-6.415-2.121-9.623c-0.283-1.282-0.565-2.565-0.849-3.849c-0.306-1.385,0.072-4.236-1.763-3.464
						c-0.388,0.163-1.714,2.211-1.5,2.598c5.782,10.46,11.564,20.919,17.347,31.379c2.891,5.229,5.782,10.459,8.673,15.689
						c1.606,2.905,3.213,5.811,4.819,8.716c0.867,1.569,2.056,5.412,3.811,6.003c0.241,0.081,0.992-1.415,1.075-1.572
						c1.902-3.616-0.822-9.354-1.586-13.155c-1.677-8.335-3.353-16.67-5.028-25.005c-1.547-7.693-3.094-15.388-4.641-23.081
						c-0.773-3.847-1.547-7.693-2.32-11.541c-0.371-1.848-0.743-3.695-1.114-5.543c-0.304-1.51-0.239-5.788-2.006-5.044
						c-0.382,0.16-1.719,2.223-1.5,2.598c8.221,14.106,16.44,28.213,24.661,42.319c3.945,6.771,7.891,13.542,11.837,20.313
						c1.901,3.264,3.803,6.527,5.705,9.79c1.275,2.189,3.945,9.179,6.287,9.913c0.287,0.09,1.14-1.687,1.241-1.89
						c0.914-1.84,0.037-2.986-0.578-5.028c-1.502-4.985-3.004-9.971-4.506-14.956c-3.004-9.971-6.007-19.942-9.011-29.913
						c-2.803-9.304-5.604-18.607-8.407-27.912c-1.476-4.898-2.951-9.796-4.427-14.694c-0.737-2.449-1.476-4.898-2.213-7.348
						c-0.459-1.523-0.817-5.866-2.574-5.126c-0.378,0.159-1.723,2.23-1.5,2.598c12.943,21.35,25.887,42.699,38.83,64.048
						c6.4,10.558,12.801,21.115,19.202,31.673c0.795,1.312,6.046,11.12,7.094,9.857c0.65-0.783,1.339-1.856,1.341-2.891
						c-0.001,0.384-1.515,1.646-1.516,2.465c0.994-1.364,0.872-2.596-0.366-3.694c-0.674-1.111-1.348-2.223-2.021-3.334
						c-1.348-2.223-2.694-4.445-4.042-6.668c-2.695-4.445-5.391-8.891-8.085-13.336c-5.402-8.911-10.805-17.821-16.207-26.732
						c-10.91-17.995-21.819-35.99-32.729-53.985c-0.5,0.866-1,1.731-1.5,2.598c1.79-0.753,1.603,1.902,2.021,3.289
						c0.738,2.449,1.476,4.898,2.213,7.348c1.291,4.286,2.582,8.572,3.874,12.858c2.608,8.659,5.216,17.318,7.824,25.977
						c2.628,8.725,5.256,17.449,7.884,26.174c1.314,4.362,2.629,8.725,3.942,13.087c0.751,2.492,1.502,4.985,2.253,7.479
						c0.352,1.168,2.722,6.35,2.224,7.351c0.413-0.63,0.827-1.26,1.24-1.89c-2.065-0.648-4.229-6.38-5.344-8.294
						c-1.888-3.238-3.774-6.478-5.662-9.717c-4.274-7.336-8.549-14.671-12.823-22.006c-8.221-14.106-16.44-28.213-24.661-42.319
						c-0.5,0.866-1,1.731-1.5,2.598c1.111-0.819,1.537-0.344,1.278,1.426c0.363,1.81,0.728,3.619,1.091,5.429
						c0.767,3.809,1.532,7.618,2.298,11.427c1.418,7.053,2.836,14.105,4.254,21.158c2.836,14.105,5.672,28.211,8.509,42.315
						c0.142-0.342,0.283-0.684,0.426-1.025c-0.104,0.195-0.207,0.392-0.31,0.588c0.357-0.524,0.716-1.048,1.074-1.572
						c-1.451-0.488-2.149-2.996-2.848-4.259c-1.605-2.906-3.212-5.812-4.818-8.717c-2.891-5.229-5.782-10.459-8.673-15.689
						c-6.104-11.04-12.207-22.081-18.311-33.121c-0.5,0.866-1,1.731-1.5,2.598c1.773-0.746,1.848,3.853,2.187,5.389
						c0.566,2.566,1.132,5.132,1.697,7.698c1.132,5.132,2.263,10.264,3.395,15.396s2.264,10.264,3.395,15.396
						c0.566,2.566,1.132,5.132,1.697,7.698c0.381,1.728,2.833,8.001,2.096,9.492c0.414-0.63,0.827-1.26,1.24-1.89
						c-2.339-0.72-5.028-6.202-6.5-8.212c-2.74-3.742-5.481-7.483-8.222-11.226c-5.48-7.484-10.962-14.968-16.442-22.452
						c-0.5,0.866-1,1.731-1.5,2.598c1.168-0.841,1.585-0.312,1.253,1.586c0.339,1.97,0.679,3.94,1.018,5.91
						c0.678,3.94,1.356,7.882,2.034,11.822s1.356,7.881,2.034,11.821c0.34,1.971,0.679,3.94,1.018,5.911
						c0.216,1.253,1.422,4.875,0.884,6.046c0.457-0.721,0.915-1.442,1.372-2.164c-1.496-0.217-3.223-3.483-4.148-4.672
						c-1.986-2.55-3.973-5.099-5.958-7.648c-3.575-4.589-7.15-9.178-10.725-13.767c-0.479,0.857-0.959,1.714-1.438,2.571
						c0.847-0.493,3.4,11.468,3.638,12.542c0.408,1.857,0.817,3.715,1.227,5.572c0.347,1.572,2.158,6.076,1.525,7.555
						c0.458-0.722,0.915-1.443,1.372-2.165c-2.312-0.277-5.841-5.095-7.556-6.738c-2.783-2.667-5.566-5.334-8.351-8
						c-0.5,0.866-1,1.731-1.5,2.598c1.13-0.468,1.248,6.186,1.279,6.693c0.112,1.85,1.043,5.604,0.331,7.315
						c0.487-0.795,0.976-1.589,1.463-2.383c-1.599,0.672-4.351,0.28-6.091,0.338c-1.863,0.061-6.833,1.07-8.134-0.232
						c-0.444,0.82-0.888,1.64-1.332,2.459c0.868-0.928,4.867-0.527,6.053-0.566c2.551-0.084,5.101-0.168,7.65-0.252
						c0.479-0.857,0.959-1.714,1.438-2.571c-0.026,0.026-0.828-5.987-0.864-6.573c-0.071-1.186-0.144-2.371-0.216-3.556
						c-0.152-2.496-1.434-1.917,0.521-0.046c4.64,4.445,9.278,8.89,13.918,13.334c0.479-0.857,0.959-1.714,1.438-2.571
						c-0.847,0.493-3.4-11.468-3.638-12.542c-0.408-1.857-0.817-3.715-1.227-5.572c-0.342-1.552-2.164-6.112-1.508-7.564
						c-0.457,0.722-0.914,1.442-1.372,2.164c1.5,0.213,3.227,3.48,4.153,4.671c1.986,2.55,3.973,5.099,5.958,7.648
						c3.575,4.589,7.15,9.178,10.725,13.767c0.479-0.857,0.959-1.714,1.438-2.571c-0.879,0.511-2.343-8.654-2.47-9.392
						c-0.678-3.94-1.356-7.881-2.034-11.821c-0.565-3.284-1.131-6.567-1.695-9.852c-0.34-1.971-0.679-3.94-1.018-5.911
						c-0.174-1.012-1.436-4.888-0.984-5.783c-0.413,0.631-0.826,1.261-1.24,1.891c2.343,0.738,5.017,6.197,6.493,8.214
						c2.741,3.742,5.481,7.483,8.222,11.226c5.48,7.484,10.962,14.968,16.442,22.452c0.5-0.866,1-1.731,1.5-2.598
						c-1.773,0.746-1.848-3.853-2.187-5.389c-0.566-2.566-1.132-5.132-1.697-7.698c-1.132-5.132-2.263-10.264-3.395-15.396
						s-2.264-10.264-3.395-15.396c-0.566-2.566-1.132-5.133-1.697-7.698c-0.375-1.699-2.834-8.046-2.075-9.501
						c-0.413,0.63-0.827,1.26-1.241,1.89c1.455,0.484,2.152,2.994,2.852,4.258c1.605,2.905,3.212,5.812,4.818,8.717
						c2.891,5.229,5.782,10.459,8.673,15.689c6.104,11.04,12.207,22.081,18.311,33.121c0.5-0.866,1-1.731,1.5-2.598
						c-1.111,0.819-1.537,0.344-1.278-1.425c-0.363-1.811-0.728-3.62-1.091-5.43c-0.767-3.809-1.532-7.618-2.298-11.427
						c-1.418-7.053-2.836-14.105-4.254-21.158s-2.836-14.105-4.254-21.158c-0.645-3.205-1.289-6.411-1.935-9.617
						c-0.387-1.923-0.773-3.847-1.16-5.77c-0.188-0.938-1.545-4.821-1.114-5.649c-0.414,0.63-0.827,1.26-1.241,1.89
						c2.067,0.687,4.206,6.374,5.328,8.3c1.888,3.238,3.774,6.478,5.662,9.717c4.274,7.336,8.549,14.671,12.823,22.006
						c8.221,14.106,16.44,28.213,24.661,42.319c0.5-0.866,1-1.731,1.5-2.598c-1.79,0.753-1.603-1.902-2.021-3.289
						c-0.738-2.449-1.476-4.898-2.213-7.348c-1.291-4.286-2.583-8.572-3.874-12.858c-2.608-8.659-5.216-17.318-7.824-25.978
						c-2.628-8.725-5.256-17.448-7.884-26.173c-1.314-4.362-2.629-8.725-3.942-13.087c-0.751-2.493-1.502-4.985-2.253-7.479
						c-0.353-1.17-2.722-6.346-2.227-7.349c-0.413,0.63-0.827,1.26-1.24,1.89c1.568,0.486,2.815,3.803,3.66,5.195
						c1.348,2.223,2.694,4.445,4.042,6.668c2.695,4.445,5.391,8.891,8.085,13.336c5.402,8.911,10.805,17.821,16.207,26.732
						c10.91,17.995,21.819,35.99,32.729,53.985C299.547,148.824,301.521,147.01,301.182,146.449z"/>
				</g>
			</g>
		</g>
	</g>
</g>
</svg>
