<?xml version="1.0" encoding="utf-8"?>
<!-- Generator: Adobe Illustrator 14.0.0, SVG Export Plug-In . SVG Version: 6.00 Build 43363)  -->
<!DOCTYPE svg PUBLIC "-//W3C//DTD SVG 1.1//EN" "http://www.w3.org/Graphics/SVG/1.1/DTD/svg11.dtd">
<svg name="2" version="1.1" xmlns="http://www.w3.org/2000/svg" xmlns:xlink="http://www.w3.org/1999/xlink" x="0px" y="0px" width="300px"
	 height="300px" viewBox="0 0 300 300" enable-background="new 0 0 300 300" xml:space="preserve">
<g id="cluster_two">
	<g id="color_emphasis_1_">
		<path fill="none" stroke="#F2F2EF" stroke-width="4" d="M161.08,209.25c-4.39,0.947-8.945,1.445-13.618,1.445
			c-35.485,0-64.253-28.767-64.253-64.254c0-5.074,0.588-10.012,1.7-14.747"/>
		<path fill="none" stroke="#AA9991" stroke-width="4" d="M197.826,106.538c8.696,10.961,13.89,24.825,13.89,39.903
			c0,30.815-21.69,56.562-50.636,62.809"/>
		<path fill="none" stroke="#C34438" stroke-width="4" d="M84.909,131.694c6.665-28.378,32.142-49.506,62.553-49.506
			c20.409,0,38.595,9.515,50.364,24.35"/>
	</g>
	<g id="pattern_balance_1_">
		<g id="pattern_lines_out_1_">
			<g>
				<path fill="#FFFFFF" stroke="#2C2C2C" d="M150.758,148.767c0-48.264,0-96.529,0-144.793c0-1.714,0-3.428,0-5.142
					c0,0.384-1.516,1.647-1.516,2.466c0,48.264,0,96.529,0,144.793c0,1.714,0,3.428,0,5.142
					C149.242,150.849,150.758,149.585,150.758,148.767L150.758,148.767z"/>
			</g>
			<g>
				<path fill="#FFFFFF" stroke="#2C2C2C" d="M150.146,149.031c10.406-47.129,20.812-94.259,31.217-141.389
					c0.37-1.673,0.739-3.347,1.109-5.021c-0.083,0.375-1.836,1.282-2.013,2.081c-10.405,47.129-20.812,94.259-31.217,141.388
					c-0.37,1.674-0.739,3.348-1.108,5.021C148.216,150.737,149.97,149.83,150.146,149.031L150.146,149.031z"/>
			</g>
			<g>
				<path fill="#FFFFFF" stroke="#2C2C2C" d="M149.49,149.157c20.323-43.776,40.644-87.555,60.966-131.333
					c0.723-1.554,1.443-3.108,2.166-4.664c-0.162,0.349-2.069,0.857-2.414,1.599c-20.322,43.777-40.644,87.555-60.966,131.332
					c-0.722,1.556-1.443,3.11-2.165,4.665C147.238,150.407,149.147,149.899,149.49,149.157L149.49,149.157z"/>
			</g>
			<g>
				<path fill="#FFFFFF" stroke="#2C2C2C" d="M148.823,149.14c29.283-38.366,58.564-76.733,87.848-115.102
					c1.041-1.36,2.079-2.724,3.121-4.087c-0.234,0.306-2.206,0.392-2.703,1.041c-29.283,38.366-58.563,76.732-87.847,115.099
					c-1.04,1.364-2.079,2.727-3.12,4.089C146.354,149.874,148.328,149.79,148.823,149.14L148.823,149.14z"/>
			</g>
			<g>
				<path fill="#FFFFFF" stroke="#2C2C2C" d="M148.176,148.979c36.866-31.151,73.731-62.303,110.598-93.456
					c1.31-1.104,2.618-2.211,3.929-3.317c-0.295,0.248-2.238-0.093-2.863,0.434c-36.867,31.15-73.73,62.302-110.597,93.452
					c-1.31,1.108-2.618,2.215-3.929,3.32C145.607,149.163,147.552,149.507,148.176,148.979L148.176,148.979z"/>
			</g>
			<g>
				<path fill="#FFFFFF" stroke="#2C2C2C" d="M147.06,148.262c46.556-12.732,93.109-25.466,139.665-38.2
					c1.653-0.449,3.306-0.903,4.962-1.354c-0.372,0.101-1.991-1.027-2.781-0.813c-46.555,12.732-93.107,25.467-139.663,38.197
					c-1.653,0.455-3.308,0.907-4.961,1.359C144.653,147.349,146.271,148.479,147.06,148.262L147.06,148.262z"/>
			</g>
			<g>
				<path fill="#FFFFFF" stroke="#2C2C2C" d="M146.644,147.74c48.206-2.396,96.409-4.793,144.615-7.19
					c1.713-0.082,3.424-0.169,5.139-0.253c-0.386,0.019-1.724-1.433-2.541-1.394c-48.205,2.396-96.408,4.795-144.614,7.188
					c-1.712,0.089-3.425,0.174-5.137,0.259C144.491,146.33,145.827,147.782,146.644,147.74L146.644,147.74z"/>
			</g>
			<g>
				<path fill="#FFFFFF" stroke="#2C2C2C" d="M146.35,147.142c47.589,8.054,95.175,16.105,142.765,24.157
					c1.689,0.289,3.379,0.573,5.071,0.861c-0.38-0.065-1.374-1.771-2.18-1.909c-47.589-8.053-95.176-16.103-142.764-24.16
					c-1.69-0.282-3.382-0.568-5.071-0.854C144.552,145.301,145.542,147.007,146.35,147.142L146.35,147.142z"/>
			</g>
			<g>
				<path fill="#FFFFFF" stroke="#2C2C2C" d="M146.191,146.494c44.733,18.124,89.464,36.245,134.199,54.368
					c1.587,0.646,3.175,1.289,4.767,1.935c-0.357-0.146-0.961-2.025-1.718-2.334c-44.733-18.123-89.466-36.244-134.197-54.372
					c-1.589-0.64-3.179-1.283-4.768-1.927C144.833,144.309,145.432,146.188,146.191,146.494L146.191,146.494z"/>
			</g>
			<g>
				<path fill="#FFFFFF" stroke="#2C2C2C" d="M146.177,145.827c39.773,27.343,79.545,54.681,119.321,82.022
					c1.411,0.974,2.821,1.943,4.237,2.917c-0.317-0.219-0.502-2.185-1.175-2.649c-39.772-27.341-79.547-54.681-119.318-82.026
					c-1.414-0.967-2.827-1.938-4.239-2.909C145.321,143.4,145.501,145.364,146.177,145.827L146.177,145.827z"/>
			</g>
			<g>
				<path fill="#FFFFFF" stroke="#2C2C2C" d="M146.306,145.173c32.943,35.274,65.885,70.545,98.832,105.819
					c1.168,1.255,2.336,2.506,3.508,3.762c-0.262-0.282-0.018-2.242-0.575-2.841c-32.942-35.272-65.888-70.545-98.828-105.822
					c-1.173-1.248-2.343-2.501-3.513-3.754C145.994,142.619,145.745,144.575,146.306,145.173L146.306,145.173z"/>
			</g>
			<g>
				<path fill="#FFFFFF" stroke="#2C2C2C" d="M146.966,144.022c15.028,45.867,30.055,91.729,45.089,137.596
					c0.531,1.631,1.063,3.257,1.597,4.889c-0.117-0.365,0.93-2.041,0.675-2.818c-15.027-45.864-30.059-91.729-45.084-137.598
					c-0.538-1.625-1.071-3.254-1.604-4.884C147.759,141.575,146.708,143.244,146.966,144.022L146.966,144.022z"/>
			</g>
			<g>
				<path fill="#FFFFFF" stroke="#2C2C2C" d="M147.466,143.581c4.785,48.028,9.57,96.051,14.363,144.081
					c0.166,1.706,0.336,3.409,0.505,5.117c-0.035-0.382,1.348-1.792,1.267-2.606c-4.786-48.025-9.576-96.053-14.358-144.082
					c-0.175-1.702-0.345-3.408-0.514-5.114C148.768,141.362,147.382,142.766,147.466,143.581L147.466,143.581z"/>
			</g>
			<g>
				<path fill="#FFFFFF" stroke="#2C2C2C" d="M148.049,143.258c-5.682,47.931-11.362,95.854-17.038,143.789
					c-0.205,1.702-0.406,3.401-0.609,5.105c0.048-0.38,1.701-1.459,1.798-2.271c5.681-47.928,11.358-95.858,17.043-143.79
					c0.196-1.699,0.397-3.401,0.602-5.104C149.799,141.372,148.143,142.443,148.049,143.258L148.049,143.258z"/>
			</g>
			<g>
				<path fill="#FFFFFF" stroke="#2C2C2C" d="M148.688,143.067c-15.882,45.578-31.762,91.15-47.639,136.734
					c-0.567,1.617-1.13,3.234-1.695,4.854c0.129-0.361,1.976-1.059,2.246-1.831c15.879-45.576,31.757-91.155,47.642-136.734
					c0.558-1.616,1.122-3.235,1.688-4.854C150.804,141.604,148.955,142.292,148.688,143.067L148.688,143.067z"/>
			</g>
			<g>
				<path fill="#FFFFFF" stroke="#2C2C2C" d="M149.354,143.02c-25.336,41.082-50.668,82.159-75.998,123.248
					c-0.904,1.457-1.801,2.915-2.702,4.375c0.202-0.325,2.157-0.607,2.587-1.304c25.332-41.081,50.664-82.165,76.001-123.248
					c0.894-1.458,1.794-2.917,2.696-4.376C151.735,142.046,149.781,142.319,149.354,143.02L149.354,143.02z"/>
			</g>
			<g>
				<path fill="#FFFFFF" stroke="#2C2C2C" d="M150.014,143.116c-33.597,34.654-67.188,69.303-100.782,103.965
					c-1.197,1.228-2.387,2.458-3.582,3.689c0.268-0.273,2.238-0.128,2.807-0.715c33.594-34.654,67.188-69.31,100.786-103.965
					c1.188-1.23,2.381-2.461,3.576-3.691C152.549,142.679,150.582,142.524,150.014,143.116L150.014,143.116z"/>
			</g>
			<g>
				<path fill="#FFFFFF" stroke="#2C2C2C" d="M150.638,143.354c-40.278,26.596-80.55,53.187-120.826,79.791
					c-1.436,0.94-2.861,1.886-4.294,2.831c0.319-0.21,2.213,0.357,2.894-0.094c40.275-26.597,80.551-53.194,120.831-79.791
					c1.426-0.945,2.856-1.89,4.288-2.833C153.208,143.473,151.319,142.897,150.638,143.354L150.638,143.354z"/>
			</g>
			<g>
				<path fill="#FFFFFF" stroke="#2C2C2C" d="M151.196,143.719c-45.065,17.287-90.123,34.57-135.188,51.865
					c-1.604,0.608-3.2,1.225-4.803,1.839c0.356-0.137,2.083,0.826,2.845,0.532c45.062-17.288,90.125-34.577,135.192-51.864
					c1.597-0.615,3.196-1.229,4.798-1.842C153.68,144.39,151.959,143.421,151.196,143.719L151.196,143.719z"/>
			</g>
			<g>
				<path fill="#FFFFFF" stroke="#2C2C2C" d="M151.662,144.196c-47.733,7.164-95.458,14.327-143.19,21.5
					c-1.699,0.247-3.39,0.506-5.088,0.76c0.379-0.057,1.856,1.256,2.664,1.133c47.73-7.166,95.461-14.333,143.194-21.498
					c1.692-0.256,3.386-0.511,5.083-0.764C153.942,145.387,152.472,144.07,151.662,144.196L151.662,144.196z"/>
			</g>
			<g>
				<path fill="#FFFFFF" stroke="#2C2C2C" d="M152.015,144.763c-48.156-3.295-96.303-6.59-144.459-9.877
					c-1.713-0.125-3.419-0.236-5.132-0.354c0.382,0.026,1.542,1.626,2.357,1.681c48.152,3.293,96.306,6.585,144.461,9.879
					c1.708,0.115,3.417,0.231,5.128,0.351C153.983,146.417,152.831,144.814,152.015,144.763L152.015,144.763z"/>
			</g>
			<g>
				<path fill="#FFFFFF" stroke="#2C2C2C" d="M152.235,145.392c-46.312-13.6-92.616-27.197-138.932-40.789
					c-1.645-0.491-3.287-0.968-4.935-1.453c0.367,0.108,1.155,1.921,1.939,2.15c46.31,13.597,92.621,27.193,138.934,40.791
					c1.644,0.481,3.287,0.963,4.933,1.448C153.802,147.433,153.022,145.619,152.235,145.392L152.235,145.392z"/>
			</g>
			<g>
				<path fill="#FFFFFF" stroke="#2C2C2C" d="M152.315,146.054c-42.291-23.265-84.574-46.525-126.869-69.783
					c-1.501-0.834-3.002-1.653-4.506-2.482c0.336,0.185,0.714,2.125,1.43,2.518c42.29,23.262,84.58,46.522,126.872,69.785
					c1.502,0.825,3.003,1.649,4.505,2.479C153.405,148.385,153.035,146.445,152.315,146.054L152.315,146.054z"/>
			</g>
			<g>
				<path fill="#FFFFFF" stroke="#2C2C2C" d="M152.046,147.353c-28.563-38.908-57.122-77.811-85.692-116.715
					c-1.009-1.389-2.026-2.763-3.042-4.149c0.228,0.31-0.248,2.229,0.236,2.887c28.564,38.905,57.13,77.81,85.694,116.716
					c1.015,1.382,2.03,2.762,3.043,4.146C152.054,149.925,152.534,148.01,152.046,147.353L152.046,147.353z"/>
			</g>
			<g>
				<path fill="#FFFFFF" stroke="#2C2C2C" d="M151.708,147.928c-19.502-44.151-39.003-88.296-58.514-132.445
					c-0.686-1.573-1.383-3.134-2.075-4.707c0.155,0.351-0.723,2.122-0.392,2.87c19.504,44.148,39.01,88.296,58.515,132.445
					c0.693,1.568,1.388,3.135,2.078,4.705C151.161,150.441,152.044,148.675,151.708,147.928L151.708,147.928z"/>
			</g>
			<g>
				<path fill="#FFFFFF" stroke="#2C2C2C" d="M151.255,148.417c-9.525-47.318-19.05-94.629-28.584-141.946
					c-0.33-1.684-0.674-3.358-1.011-5.044c0.075,0.376-1.163,1.917-1.002,2.719c9.528,47.314,19.057,94.63,28.584,141.945
					c0.339,1.682,0.68,3.36,1.015,5.043C150.179,150.753,151.421,149.219,151.255,148.417L151.255,148.417z"/>
			</g>
		</g>
		<g id="pattern_radial_1_">
			<polygon fill="none" stroke="#2C2C2C" points="94.354,142.337 93.273,128.078 98.425,116.409 105.676,107.867 115.639,97.76 
				126.521,90.908 139.165,88.362 149.242,88.362 161.426,90.908 172.465,96.065 184.751,102.066 190.56,111.179 197.188,120.87 
				201.778,133.296 204.008,144.188 204.008,155.361 200.05,166.799 192.957,177.985 184.846,185.598 176.097,194.802 
				165.503,200.159 153.107,200.198 142.52,202.797 130.401,200.159 117.059,195.389 108.232,189.112 99.233,177.296 
				93.273,165.016 93.273,152.96 			"/>
			<polygon fill="none" stroke="#2C2C2C" points="27.68,79.227 45.649,55.201 67.781,32.583 95.19,20 122.394,12.765 
				150.758,10.775 178.592,13.16 204.763,26.488 233.087,36.235 252.017,59.248 272.075,81.475 282.641,111.179 285.157,139.336 
				285.157,169.092 280.391,200.862 262.896,226.062 244.931,250.771 219.948,265.688 191.03,273.63 163.051,284.656 
				132.818,284.656 104.805,273.63 78.854,260.235 53.326,242.856 33.726,222.372 20.94,193.691 11.205,165.016 11.205,133.296 			
				"/>
			<path fill="none" stroke="#2C2C2C" d="M30.332,111.179l11.037-26.152c0,0,15.085-18.33,13.814-21.461S76.52,47.042,76.52,47.042
				l22.835-13.869l27.35-6.685h23.14l26.515,3.819l20.829,7.632l25.618,14.266l21.768,15.317l14.408,20.84l10.754,27.316
				l4.185,24.808v29.895l-7.04,25.008L256,221.321l-19.687,20.224l-21.498,15.462l-24.764,13.636h-29.921l-27.279,0.857l-25.775-9
				l-19.732-10.607l-24.032-17.161L44,213.772l-13.668-23.686l-7.147-25.071L20.94,135.8L30.332,111.179z"/>
			<polygon fill="none" stroke="#2C2C2C" points="36.596,136.869 42.165,113.073 52.062,90.908 68.699,73.407 85.474,56.675 
				105.481,47.042 129.011,37.939 149.242,37.939 174.674,37.939 194.366,47.827 215.522,59.248 235.687,75.032 246.016,95.183 
				256,116.893 262.019,140.486 261.067,165.016 251.388,189.112 239.792,210.18 223.671,228.008 207.365,244.404 184.846,254.754 
				160.494,259.009 135.858,259.009 112.377,251.893 89.524,242.933 70.654,226.279 55.498,206.179 44,186.465 39.546,161.027 			
				"/>
		</g>
	</g>
	<g id="rhythm_1_">
		<g>
			<path fill="#2C2C2C" fill-opacity="0.64" stroke="#FFFFFF" stroke-width="0.25" d="M147.978,148.605
				c49.423-25.999,98.845-51.998,148.27-78c1.756-0.92,3.51-1.845,5.268-2.769c-0.396,0.207-2.506-0.663-3.345-0.225
				c-49.423,25.999-98.845,51.999-148.269,77.997c-1.755,0.927-3.511,1.85-5.267,2.773
				C145.029,148.174,147.141,149.047,147.978,148.605L147.978,148.605z"/>
		</g>
		<g>
			<path fill="#2C2C2C" fill-opacity="0.64" stroke="#FFFFFF" stroke-width="0.25" d="M146.696,145.073
				c29.566,50.011,59.132,100.016,88.704,150.028c1.048,1.778,2.095,3.552,3.146,5.332c-0.232-0.4,0.562-2.641,0.062-3.488
				c-29.564-50.009-59.135-100.018-88.698-150.031c-1.055-1.771-2.104-3.546-3.154-5.324
				C146.992,141.991,146.19,144.225,146.696,145.073L146.696,145.073z"/>
		</g>
		<g>
			<path fill="#2C2C2C" fill-opacity="0.64" stroke="#FFFFFF" stroke-width="0.25" d="M151.785,145.964
				C103.047,103.196,54.314,60.435,5.567,17.673c-1.727-1.528-3.459-3.037-5.193-4.562c0.389,0.339,0.321,2.995,1.146,3.718
				c48.74,42.764,97.481,85.527,146.223,128.292c1.731,1.518,3.462,3.035,5.192,4.557
				C152.541,149.337,152.617,146.686,151.785,145.964L151.785,145.964z"/>
		</g>
	</g>
	<g id="contrast_1_">
		<polygon fill="#2C2C2C" fill-opacity="0.35" points="52.062,90.908 98.425,116.409 105.676,107.867 68.699,73.407 		"/>
		<polygon fill="#2C2C2C" fill-opacity="0.35" points="85.474,56.675 105.481,47.042 126.521,90.908 115.639,97.76 		"/>
		<polygon fill="#2C2C2C" fill-opacity="0.35" points="139.165,88.362 149.242,88.362 149.242,37.939 129.011,37.939 		"/>
		<polygon fill="#2C2C2C" fill-opacity="0.35" points="161.426,90.908 172.465,96.065 194.366,47.827 174.674,37.939 		"/>
		<polygon fill="#2C2C2C" fill-opacity="0.35" points="184.751,102.066 215.522,59.248 235.687,75.032 190.56,111.179 		"/>
		<polygon fill="#2C2C2C" fill-opacity="0.35" points="197.188,120.87 201.778,133.296 256.375,118.363 246.016,95.183 		"/>
		<polygon fill="#2C2C2C" fill-opacity="0.35" points="204.008,144.188 204.008,155.361 261.067,165.016 262.019,140.486 		"/>
		<polygon fill="#2C2C2C" fill-opacity="0.35" points="186.403,173.48 195.946,165.016 251.388,189.112 239.792,210.18 		"/>
		<polygon fill="#2C2C2C" fill-opacity="0.35" points="172.465,189.112 180.472,181.756 223.671,228.008 207.365,244.404 		"/>
		<polygon fill="#2C2C2C" fill-opacity="0.35" points="163.604,194.802 184.846,254.754 160.494,259.009 153.107,200.198 		"/>
		<polygon fill="#2C2C2C" fill-opacity="0.35" points="135.858,259.009 142.52,202.797 130.401,200.159 112.377,251.893 		"/>
		<polygon fill="#2C2C2C" fill-opacity="0.35" points="89.524,242.933 117.059,195.389 107.798,186.661 70.654,226.279 		"/>
		<polygon fill="#2C2C2C" fill-opacity="0.35" points="55.498,206.179 99.233,177.296 93.273,165.016 44,186.465 		"/>
		<polygon fill="#2C2C2C" fill-opacity="0.35" points="39.546,161.027 36.596,136.869 94.354,142.337 93.273,152.96 		"/>
	</g>
	<g id="movement">
		<line display="none" fill="#E2139D" stroke="#2C2C2C" x1="146.35" y1="147.142" x2="300" y2="147.142"/>
		<line display="none" fill="#E2139D" stroke="#2C2C2C" x1="146.35" y1="147.142" x2="286.701" y2="84.613"/>
		<g>
			<g>
				<path fill="#2C2C2C" d="M300.863,147.495c-8.513-19.312-17.025-38.623-25.538-57.935c-0.42-0.954-1.854-0.42-1.863,0.505
					c-0.181,19.217-0.361,38.434-0.542,57.65c0.621-0.168,1.242-0.336,1.863-0.505c-8.425-15.636-16.85-31.271-25.274-46.908
					c-0.311-0.577-1.121-0.639-1.57-0.202c-8.214,7.982-16.429,15.965-24.643,23.948c-5.148,5.003-10.296,10.006-15.444,15.009
					c-1.341,1.303-2.682,2.606-4.023,3.91c-0.673,0.654-0.597,0.251,0.174,0.22c-0.353,0.014-0.704,0.028-1.057,0.042
					c-18.918,0.754-37.836,1.509-56.754,2.264c-1.285,0.051-1.29,2.051,0,2c11.78-0.47,23.56-0.94,35.34-1.41
					c6.493-0.259,12.986-0.518,19.48-0.777c1.011-0.041,2.272,0.117,3.262-0.155c0.843-0.232,1.72-1.5,2.301-2.064
					c14.26-13.857,28.519-27.715,42.778-41.573c-0.523-0.067-1.047-0.135-1.57-0.202c8.425,15.636,16.85,31.271,25.274,46.908
					c0.481,0.895,1.854,0.464,1.863-0.505c0.181-19.217,0.361-38.434,0.542-57.65c-0.621,0.168-1.242,0.336-1.863,0.505
					c8.513,19.312,17.025,38.623,25.538,57.935C299.655,149.683,301.379,148.664,300.863,147.495L300.863,147.495z"/>
			</g>
		</g>
	</g>
</g>
</svg>
