<?xml version="1.0" encoding="utf-8"?>
<!-- Generator: Adobe Illustrator 14.0.0, SVG Export Plug-In . SVG Version: 6.00 Build 43363)  -->
<!DOCTYPE svg PUBLIC "-//W3C//DTD SVG 1.1//EN" "http://www.w3.org/Graphics/SVG/1.1/DTD/svg11.dtd">
<svg name="3" version="1.1" xmlns="http://www.w3.org/2000/svg" xmlns:xlink="http://www.w3.org/1999/xlink" x="0px" y="0px" width="300px"
	 height="300px" viewBox="0 0 300 300" enable-background="new 0 0 300 300" xml:space="preserve">
<g id="cluster_three">
	<g id="color_emphasis_2_">
		<path fill="none" stroke="#EAEBEA" stroke-width="4" d="M178.208,274.604c-8.859,1.912-18.056,2.918-27.488,2.918
			c-71.632,0-129.701-58.069-129.701-129.703c0-10.245,1.187-20.211,3.432-29.77"/>
		<path fill="none" stroke="#6C6C6B" stroke-width="4" d="M252.386,67.27c17.555,22.125,28.037,50.113,28.037,80.55
			c0,62.204-43.784,114.175-102.215,126.785"/>
		<path fill="none" stroke="#8D8D8D" stroke-width="4" d="M24.45,118.05c13.455-57.284,64.883-99.932,126.27-99.932
			c41.197,0,77.906,19.206,101.666,49.152"/>
	</g>
	<g id="pattern_lines_out_2_">
		<g>
			<path fill="#2C2C2C" d="M150.758,148.767c0-48.285,0-96.57,0-144.856c0-1.714,0-3.429,0-5.144c0,0.384-1.516,1.647-1.516,2.466
				c0,48.285,0,96.57,0,144.856c0,1.714,0,3.429,0,5.144C149.242,150.849,150.758,149.585,150.758,148.767L150.758,148.767z"/>
		</g>
		<g>
			<path fill="#2C2C2C" d="M151.388,149.291c13.538-46.349,27.076-92.696,40.615-139.046c0.48-1.646,0.961-3.291,1.441-4.938
				c-0.107,0.368-1.916,1.156-2.145,1.942c-13.539,46.348-27.076,92.696-40.615,139.045c-0.48,1.646-0.961,3.292-1.442,4.938
				C149.35,150.864,151.158,150.076,151.388,149.291L151.388,149.291z"/>
		</g>
		<g>
			<path fill="#2C2C2C" fill-opacity="0.55" d="M152.21,149.662c30.793-48.213,61.583-96.426,92.379-144.64
				c1.095-1.711,2.187-3.424,3.279-5.136c-0.243,0.382-2.562,0.678-3.084,1.496c-30.794,48.212-61.586,96.426-92.38,144.639
				c-1.094,1.712-2.187,3.425-3.28,5.136C149.368,150.774,151.687,150.479,152.21,149.662L152.21,149.662z"/>
		</g>
		<g>
			<path fill="#2C2C2C" fill-opacity="0.55" d="M152.872,150.406c48.329-42.239,96.66-84.478,144.994-126.717
				c1.717-1.498,3.43-2.999,5.146-4.5c-0.382,0.335-2.973-0.077-3.791,0.642c-48.332,42.236-96.662,84.477-144.996,126.714
				c-1.717,1.5-3.433,3.001-5.147,4.499C149.461,150.708,152.052,151.119,152.872,150.406L152.872,150.406z"/>
		</g>
		<g>
			<path fill="#2C2C2C" d="M152.116,151.571c43.807-20.306,87.615-40.612,131.424-60.917c1.556-0.72,3.109-1.442,4.666-2.164
				c-0.347,0.161-2.131-0.683-2.873-0.337c-43.809,20.304-87.615,40.611-131.426,60.916c-1.555,0.722-3.111,1.442-4.665,2.163
				C149.589,151.07,151.374,151.914,152.116,151.571L152.116,151.571z"/>
		</g>
		<g>
			<path fill="#2C2C2C" d="M151.905,152.363c47.742-7.209,95.488-14.418,143.232-21.625c1.695-0.254,3.389-0.512,5.086-0.769
				c-0.379,0.058-1.854-1.253-2.664-1.129c-47.744,7.206-95.486,14.417-143.233,21.623c-1.694,0.257-3.391,0.513-5.084,0.769
				C149.62,151.174,151.097,152.484,151.905,152.363L151.905,152.363z"/>
		</g>
		<g>
			<path fill="#2C2C2C" d="M151.481,153.064c47.848,6.467,95.7,12.934,143.551,19.402c1.698,0.231,3.396,0.459,5.096,0.688
				c-0.379-0.051-1.428-1.723-2.239-1.831c-47.85-6.47-95.698-12.934-143.552-19.404c-1.698-0.229-3.398-0.458-5.095-0.688
				C149.62,151.282,150.671,152.954,151.481,153.064L151.481,153.064z"/>
		</g>
		<g>
			<path fill="#2C2C2C" d="M150.878,153.619c44.115,19.623,88.234,39.247,132.352,58.873c1.566,0.698,3.131,1.393,4.699,2.09
				c-0.35-0.155-0.887-2.055-1.637-2.386c-44.115-19.626-88.232-39.247-132.354-58.876c-1.564-0.695-3.133-1.393-4.696-2.088
				C149.591,151.387,150.13,153.285,150.878,153.619L150.878,153.619z"/>
		</g>
		<g>
			<path fill="#2C2C2C" fill-opacity="0.55" d="M150.319,154.257c41.49,35.141,82.983,70.283,124.477,105.428
				c1.474,1.249,2.945,2.494,4.418,3.742c-0.327-0.277-0.308-2.501-1.016-3.095c-41.488-35.146-82.981-70.284-124.477-105.434
				c-1.472-1.245-2.947-2.494-4.418-3.739C149.631,151.437,149.615,153.658,150.319,154.257L150.319,154.257z"/>
		</g>
		<g>
			<path fill="#2C2C2C" fill-opacity="0.55" d="M149.465,154.559c31.276,47.338,62.557,94.681,93.836,142.022
				c1.11,1.684,2.219,3.359,3.33,5.041c-0.248-0.373,0.425-2.595-0.112-3.396c-31.274-47.343-62.556-94.68-93.834-142.028
				c-1.111-1.678-2.224-3.361-3.331-5.038C149.6,151.532,148.933,153.753,149.465,154.559L149.465,154.559z"/>
		</g>
		<g>
			<path fill="#2C2C2C" d="M148.522,154.035c14.252,46.13,28.508,92.266,42.762,138.398c0.506,1.64,1.012,3.273,1.518,4.912
				c-0.113-0.363,0.967-2.018,0.719-2.802c-14.25-46.133-28.508-92.263-42.76-138.401c-0.507-1.636-1.014-3.276-1.519-4.91
				C149.354,151.596,148.28,153.251,148.522,154.035L148.522,154.035z"/>
		</g>
		<g>
			<path fill="#2C2C2C" d="M147.765,153.721c0.747,48.275,1.494,96.558,2.242,144.837c0.025,1.716,0.053,3.426,0.08,5.141
				c-0.008-0.38,1.494-1.665,1.475-2.488c-0.744-48.277-1.494-96.555-2.238-144.839c-0.028-1.712-0.055-3.429-0.081-5.139
				C149.247,151.612,147.753,152.9,147.765,153.721L147.765,153.721z"/>
		</g>
		<g>
			<path fill="#2C2C2C" d="M147.126,153.206c-12.818,46.549-25.639,93.104-38.457,139.656c-0.457,1.654-0.91,3.304-1.365,4.957
				c0.1-0.367,1.902-1.179,2.113-1.976c12.822-46.549,25.639-93.1,38.461-139.656c0.455-1.651,0.91-3.307,1.364-4.955
				C149.141,151.599,147.345,152.416,147.126,153.206L147.126,153.206z"/>
		</g>
		<g>
			<path fill="#2C2C2C" fill-opacity="0.55" d="M146.334,152.816C116.75,200.756,87.162,248.7,57.577,296.643
				c-1.053,1.703-2.099,3.402-3.149,5.105c0.229-0.379,2.516-0.698,3.013-1.521c29.588-47.938,59.169-95.879,88.761-143.824
				c1.049-1.701,2.099-3.406,3.148-5.104C149.116,151.676,146.837,152.004,146.334,152.816L146.334,152.816z"/>
		</g>
		<g>
			<path fill="#2C2C2C" d="M146.396,151.756c-35.859,32.331-71.723,64.665-107.584,96.998c-1.275,1.148-2.545,2.295-3.818,3.443
				c0.281-0.257,2.238,0.03,2.844-0.527c35.863-32.329,71.721-64.661,107.59-96.995c1.27-1.148,2.545-2.298,3.815-3.442
				C148.96,151.486,147.005,151.209,146.396,151.756L146.396,151.756z"/>
		</g>
		<g>
			<path fill="#2C2C2C" d="M146.362,150.937c-43.485,20.979-86.977,41.962-130.465,62.942c-1.547,0.745-3.086,1.489-4.631,2.235
				c0.342-0.168,2.141,0.656,2.879,0.291c43.488-20.978,86.973-41.958,130.469-62.938c1.541-0.746,3.088-1.492,4.628-2.234
				C148.899,151.396,147.101,150.582,146.362,150.937L146.362,150.937z"/>
		</g>
		<g>
			<path fill="#2C2C2C" d="M146.561,150.141c-47.624,7.945-95.253,15.893-142.88,23.838c-1.693,0.281-3.379,0.564-5.072,0.848
				c0.376-0.065,1.871,1.229,2.683,1.086c47.625-7.943,95.247-15.889,142.882-23.833c1.689-0.283,3.383-0.566,5.069-0.847
				C148.867,151.293,147.368,150.008,146.561,150.141L146.561,150.141z"/>
		</g>
		<g>
			<path fill="#2C2C2C" d="M146.974,149.433c-47.941-5.727-95.889-11.452-143.832-17.18c-1.705-0.205-3.402-0.405-5.106-0.608
				c0.378,0.043,1.451,1.705,2.271,1.795c47.941,5.729,95.882,11.454,143.833,17.184c1.702,0.203,3.405,0.405,5.104,0.609
				C148.864,151.186,147.786,149.531,146.974,149.433L146.974,149.433z"/>
		</g>
		<g>
			<path fill="#2C2C2C" d="M147.569,148.869C103.156,129.93,58.737,110.99,14.323,92.05c-1.578-0.675-3.152-1.343-4.731-2.016
				c0.351,0.147,0.915,2.044,1.677,2.36c44.412,18.939,88.824,37.878,133.245,56.822c1.577,0.672,3.155,1.344,4.729,2.016
				C148.892,151.082,148.321,149.191,147.569,148.869L147.569,148.869z"/>
		</g>
		<g>
			<path fill="#2C2C2C" fill-opacity="0.55" d="M147.913,147.915c-47.38-38.89-94.769-77.781-142.151-116.672
				c-1.683-1.385-3.363-2.759-5.048-4.141c0.375,0.305,0.388,2.817,1.203,3.473c47.38,38.89,94.762,77.778,142.15,116.676
				c1.682,1.38,3.366,2.761,5.045,4.14C148.739,151.082,148.717,148.576,147.913,147.915L147.913,147.915z"/>
		</g>
		<g>
			<path fill="#2C2C2C" d="M149.104,148.34c-27.235-39.868-54.476-79.738-81.712-119.608c-0.967-1.419-1.934-2.828-2.901-4.245
				c0.216,0.312-0.33,2.215,0.142,2.891c27.234,39.868,54.471,79.734,81.711,119.611c0.967,1.414,1.934,2.831,2.899,4.244
				C149.028,150.916,149.565,149.018,149.104,148.34L149.104,148.34z"/>
		</g>
		<g>
			<path fill="#2C2C2C" fill-opacity="0.55" d="M149.917,148.304c-15.621-47.924-31.248-95.851-46.87-143.777
				c-0.555-1.705-1.111-3.399-1.666-5.103c0.124,0.376-0.979,2.123-0.704,2.938c15.621,47.923,31.246,95.845,46.871,143.78
				c0.555,1.7,1.107,3.403,1.663,5.102C149.089,150.863,150.182,149.118,149.917,148.304L149.917,148.304z"/>
		</g>
	</g>
	<g id="pattern_radial_2_">
		<polygon fill="none" stroke="#2C2C2C" points="64.434,140.486 73.218,117.164 86.908,98.109 105.978,85.213 127.134,78.52 
			150.758,78.27 170.481,78.52 186.995,92.122 203.711,105.642 207.142,126.066 213.111,141.59 211.005,161.109 206.923,176.89 
			196.386,193.147 183.756,206.219 167.455,210.18 147.765,214.582 131.797,214.582 112.864,210.18 96.764,198.545 82.481,181.756 
			67.886,163.267 		"/>
		<polygon fill="none" stroke="#2C2C2C" points="39.513,138.124 48.12,108.109 67.886,84.456 90.798,62.993 118.922,53.333 
			150.758,49.5 177.641,54.011 203.341,69.343 221.518,88.069 235.655,111.179 246.217,138.124 246.217,164.34 237.808,190.628 
			219.919,213.08 199.61,227.465 175.588,236.5 150,236.5 126.335,234.417 100.159,230.767 78.379,213.08 58.307,193.419 
			42.99,167.421 		"/>
		<polygon fill="none" stroke="#2C2C2C" points="54.106,138.341 62.494,114.239 76.587,95.183 98.609,75 123.352,66.921 
			149.157,66.103 172.979,69.969 193.444,82.024 209.585,98.498 222.742,117.164 229.032,141.438 229.032,165.016 222.171,183.673 
			210.123,202.797 192.365,216.5 171.022,226.856 151.562,226.856 128.272,224.289 108.563,217.147 88.519,205.979 71.665,186.975 
			57.404,165.016 		"/>
		<polygon fill="none" stroke="#2C2C2C" points="116.475,158.635 111.089,146.398 116.475,137.282 122.964,128.083 134.505,123.694 
			143.735,121.305 154.611,118.909 161.934,121.305 171.19,125.977 180.134,128.686 182.577,138.771 187.307,148.559 187.396,158.4 
			185.111,167.494 179.068,174.82 171.236,180.475 162.107,182.699 153.392,184.398 143.754,180.961 136.431,179.1 128.479,176.402 
			119.719,167.219 		"/>
		<polygon fill="none" stroke="#2C2C2C" points="95.192,161.772 90.895,144.838 96.835,129.82 106.604,115.854 122.971,107.802 
			137.441,102.694 153.274,102.694 167.454,102.694 180.978,109.142 190.43,120.522 199.746,133.253 204.319,147.176 
			202.817,161.772 197.343,173.504 188.78,186.054 178.376,192.629 165.133,198.863 153.963,199.44 138.692,198.863 
			126.599,193.084 115.644,186.054 104.063,175.475 		"/>
		<polygon fill="none" stroke="#2C2C2C" points="83.531,162.193 79.417,141.364 86.087,120.633 95.812,105.416 112.788,95.183 
			130.246,88.069 150,88.069 166.239,93.044 183.245,100.808 195.074,111.179 202.8,128.078 208.163,142.337 207.142,159.059 
			201.021,175.923 193.444,190.656 181.094,199.44 165.174,202.797 149.663,207 133.885,207 118.48,201.079 106.642,187.598 
			92.118,175.923 		"/>
		<polygon fill="none" stroke="#2C2C2C" points="49.863,69.664 79.417,46.334 110.542,32.515 150,26.488 184.071,31.996 
			213.111,48.076 242.578,69.664 259.842,101.638 272.087,133.296 274.922,170.836 265.04,201.715 242.704,230.767 215.665,254.754 
			184.686,265.945 151.562,269.4 117.595,266.151 87.587,252.197 60.62,230.767 39.513,204.168 25.459,170.346 25.459,134.919 
			34.993,100.864 		"/>
	</g>
	<g id="contrast_2_">
		<polygon fill="#2C2C2C" fill-opacity="0.55" points="30.998,100.808 49.863,69.664 33.3,56.068 11.269,92.395 		"/>
		<polygon fill="#2C2C2C" fill-opacity="0.55" points="79.417,46.334 110.542,32.515 102.753,8.621 64.632,27.377 		"/>
		<polygon fill="#2C2C2C" fill-opacity="0.55" points="150,26.488 184.071,31.996 191.3,7.25 150,0 		"/>
		<polygon fill="#2C2C2C" fill-opacity="0.54" points="213.111,48.076 242.578,69.664 265.04,52.044 229.982,24.817 		"/>
		<polygon fill="#2C2C2C" fill-opacity="0.55" points="259.842,101.638 272.087,133.296 297.56,128.841 285.333,88.153 		"/>
		<polygon fill="#2C2C2C" fill-opacity="0.55" points="272.087,169.365 257.573,201.079 286.292,212.196 297.889,171.324 		"/>
		<polygon fill="#2C2C2C" fill-opacity="0.55" points="210.802,244.404 238.529,226.856 260.679,247.603 229.188,274.981 		"/>
		<polygon fill="#2C2C2C" fill-opacity="0.55" points="182.543,259.009 191.284,292.434 150,296 151.562,262 		"/>
		<polygon fill="#2C2C2C" fill-opacity="0.55" points="108.669,292.862 119.562,259.009 90.798,245.938 70.585,275.805 		"/>
		<polygon fill="#2C2C2C" fill-opacity="0.55" points="38.812,248.754 65.361,226.856 44.599,201.715 14.146,216.405 		"/>
		<polygon fill="#2C2C2C" fill-opacity="0.55" points="3.681,173.979 29.572,171.195 23.028,134.628 0.306,133.439 		"/>
	</g>
	<g id="movement_2_">
		<g display="none">
			<g display="inline">
				<g>
					<path fill="#2C2C2C" d="M150.275,155.83c50.253,0,100.505,0,150.758,0c0.402,0,1.6-2.549,1.5-2.598
						c-1.873-0.924-1.947-4.826-3.229-6.444c-0.736-0.928-7.015-0.153-8.274-0.153c-3.969,0-7.938,0-11.907,0
						c-14.553,0-29.105,0-43.658,0c-29.085,0-58.17,0-87.255,0c-0.402,0-1.6,2.549-1.5,2.598
						C148.94,150.332,147.975,154.779,150.275,155.83c0.287,0.131,1.622-2.542,1.5-2.598c-2.301-1.051-1.335-5.499-3.566-6.598
						c-0.5,0.866-1,1.732-1.5,2.598c28.424,0,56.847,0,85.271,0c14.553,0,29.105,0,43.658,0c7.276,0,14.553,0,21.829,0
						c1.843,0,1.898,5.775,3.566,6.598c0.5-0.866,1-1.731,1.5-2.598c-50.253,0-100.505,0-150.758,0
						C151.104,153.232,150.556,155.83,150.275,155.83z"/>
				</g>
			</g>
		</g>
		<g display="none">
			<g display="inline">
				<g>
					<path fill="#2C2C2C" d="M153.609,149.306c17.405-47.142,34.804-94.287,52.214-141.427c-0.018,0.049,0.123-0.341-0.024-0.188
						c-1.833,1.893-5.561-0.207-7.415,1.797c-2.269,2.452-2.945,6.713-4.045,9.69c-5.498,14.894-10.996,29.787-16.495,44.68
						c-10.989,29.767-21.978,59.535-32.969,89.301c0.018-0.05-0.123,0.341,0.024,0.188c1.832-1.894,5.561,0.206,7.415-1.798
						c0.405-0.438,1.354-2.524,1.164-2.319c-0.919,0.993-3.307,0.725-4.512,0.799c-1.647,0.103-2.812,1.356-1.985-0.881
						c2.516-6.813,5.03-13.626,7.546-20.439c4.811-13.031,9.622-26.063,14.433-39.094c9.623-26.063,19.245-52.126,28.867-78.189
						c0.172-0.465,3.452-0.39,3.904-0.417c1.647-0.103,2.812-1.355,1.985,0.881c-2.517,6.813-5.03,13.626-7.546,20.439
						c-4.811,13.031-9.622,26.063-14.434,39.094c-9.851,26.684-19.702,53.368-29.554,80.051
						C152.093,151.72,153.402,149.869,153.609,149.306z"/>
				</g>
			</g>
		</g>
		<g>
			<g>
				<g>
					<path fill="#2C2C2C" d="M299.055,146.588c-36.362-38.483-72.724-76.966-109.087-115.448c0.036,0.038-1.714,2.135-1.5,2.598
						c9.279,20.1,19.154,39.946,28.729,59.906c4.728,9.854,9.454,19.708,14.182,29.561c2.207,4.6,4.413,9.2,6.62,13.8
						c1.73,3.607,5.1,8.187,5.869,12.069c0.5-0.866,1-1.732,1.5-2.598c-11.437-12.256-22.116-25.314-33.132-37.951
						c-11.658-13.374-23.315-26.747-34.974-40.121c0.053,0.061-1.704,2.109-1.5,2.598c10.828,25.948,22.672,51.52,33.998,77.255
						c0.5-0.866,1-1.732,1.5-2.598c-2.347-4.274-6.214-7.955-9.222-11.79c-4.081-5.203-8.161-10.405-12.242-15.607
						c-7.687-9.799-15.373-19.599-23.061-29.398c0.095,0.12-1.812,2.112-1.5,2.598c2.773,4.308,4.9,8.902,7.831,13.196
						c3.701,5.421,7.401,10.842,11.103,16.263c7.031,10.3,14.063,20.6,21.095,30.899c-0.118-0.173,1.781-2.044,1.5-2.598
						c-1.13-2.23-2.261-4.46-3.391-6.69c-0.722-1.424-5.287-3.227-6.696-4.088c-5.022-3.065-10.045-6.131-15.068-9.197
						c-6.87-4.193-13.796-8.306-20.637-12.548c-0.228-0.141-1.363,2.143-1.463,2.383c-3.003,7.221-6.007,14.441-9.01,21.662
						c-0.647,1.559-3.611,6.142-2.978,7.796c0.758,1.978,3.503,3.834,3.415,6.037c0.009-0.211,1.249-1.782,1.471-2.316
						c3.957-9.514,7.913-19.029,11.87-28.543c-0.487,0.794-0.976,1.589-1.463,2.383c1.339,0.158,2.819,1.507,3.942,2.216
						c4.421,2.791,8.931,5.451,13.394,8.175c8.371,5.109,16.742,10.219,25.113,15.329c0.121,0.074,1.747-2.363,1.5-2.598
						c-1.368-1.3-1.872-3.115-2.52-4.845c-0.922-2.464-2.731-4.57-4.201-6.724c-3.701-5.421-7.402-10.842-11.103-16.263
						c-7.401-10.842-14.804-21.684-22.205-32.525c0.118,0.173-1.781,2.043-1.5,2.598c5.797,11.439,14.727,21.143,22.632,31.221
						c8.419,10.732,16.837,21.464,25.256,32.196c-0.081-0.103,1.717-2.077,1.5-2.598c-10.828-25.948-22.672-51.52-33.998-77.254
						c-0.5,0.866-1,1.732-1.5,2.598c1.483,2.456,3.77,4.362,5.648,6.517c3.007,3.449,6.014,6.898,9.02,10.347
						c6.02,6.905,12.038,13.81,18.058,20.715c11.771,13.502,23.54,27.004,35.311,40.506c-0.059-0.067,1.725-2.111,1.5-2.598
						c-9.288-20.096-19.154-39.945-28.729-59.906c-4.728-9.854-9.454-19.708-14.182-29.561c-4.082-8.509-9.254-17.101-12.562-25.911
						c-0.5,0.866-1,1.732-1.5,2.598c9.402,8.679,17.81,18.763,26.6,28.066c9.115,9.646,18.229,19.293,27.345,28.939
						c18.438,19.513,36.87,39.029,55.312,58.537c-0.05-0.053,1.802-2.18,1.5-2.598C300.946,151.202,300.558,148.663,299.055,146.588
						c0.106,0.147-1.849,2.117-1.5,2.598c1.503,2.075,1.892,4.615,3.391,6.69c0.5-0.866,1-1.731,1.5-2.598
						c-17.986-19.026-35.964-38.061-53.945-57.091c-9.115-9.646-18.229-19.292-27.345-28.939
						c-9.242-9.781-18.081-20.388-27.967-29.513c-0.019-0.017-1.661,2.169-1.5,2.598c3.309,8.811,8.48,17.402,12.562,25.911
						c4.728,9.854,9.454,19.708,14.182,29.561c9.575,19.961,19.441,39.81,28.729,59.905c0.5-0.866,1-1.731,1.5-2.598
						c-11.771-13.502-23.54-27.004-35.311-40.507c-5.59-6.413-11.18-12.825-16.77-19.237c-3.006-3.449-6.013-6.897-9.019-10.346
						c-2.267-2.6-5.152-5.04-6.938-7.995c0.133,0.22-1.764,1.998-1.5,2.598c11.326,25.735,23.17,51.307,33.998,77.254
						c0.5-0.866,1-1.731,1.5-2.598c-8.018-10.221-16.035-20.442-24.053-30.663c-8.284-10.562-17.762-20.77-23.835-32.754
						c-0.5,0.866-1,1.732-1.5,2.598c7.401,10.842,14.804,21.684,22.205,32.526c3.7,5.421,7.401,10.842,11.103,16.263
						c1.488,2.181,3.186,4.273,4.201,6.724c0.716,1.728,1.127,3.521,2.52,4.845c0.5-0.866,1-1.732,1.5-2.598
						c-8.371-5.109-16.742-10.219-25.113-15.329c-3.906-2.384-7.812-4.769-11.72-7.153c-1.481-0.904-3.865-3.032-5.616-3.238
						c-0.449-0.053-1.316,2.029-1.463,2.383c-3.957,9.514-7.914,19.029-11.87,28.543c0.49-0.772,0.98-1.545,1.471-2.316
						c0.06-1.509-1.179-2.686-2.048-3.814c-2.312-3,0.247-6.658,1.521-9.722c3.003-7.221,6.007-14.441,9.009-21.663
						c-0.487,0.794-0.976,1.589-1.463,2.383c6.841,4.242,13.767,8.355,20.637,12.548c4.465,2.725,8.93,5.45,13.394,8.175
						c2.232,1.363,4.465,2.725,6.697,4.088c2.699,1.648,3.653,4.927,5.064,7.712c0.5-0.866,1-1.732,1.5-2.598
						c-7.031-10.3-14.063-20.6-21.095-30.899c-3.331-4.879-6.661-9.758-9.992-14.637c-1.851-2.71-3.7-5.42-5.551-8.131
						c-1.415-2.073-2.026-4.572-3.391-6.69c-0.5,0.866-1,1.732-1.5,2.598c7.688,9.799,15.374,19.599,23.061,29.398
						c3.673,4.682,7.346,9.364,11.019,14.047c3.388,4.319,7.804,8.54,10.445,13.35c-0.144-0.261,1.776-1.971,1.5-2.598
						c-11.326-25.735-23.17-51.308-33.998-77.255c-0.5,0.866-1,1.732-1.5,2.598c11.226,12.878,22.452,25.757,33.678,38.635
						c11.447,13.131,22.544,26.702,34.428,39.437c0.01,0.01,1.588-2.153,1.5-2.598c-0.664-3.35-3.582-7.301-5.075-10.414
						c-2.472-5.151-4.942-10.303-7.414-15.455c-4.728-9.854-9.454-19.708-14.182-29.561c-9.575-19.96-19.45-39.807-28.729-59.906
						c-0.5,0.866-1,1.732-1.5,2.598c36.363,38.482,72.725,76.965,109.087,115.448C297.517,149.146,299.391,146.943,299.055,146.588z
						"/>
				</g>
			</g>
		</g>
	</g>
</g>
</svg>
