<?xml version="1.0" encoding="utf-8"?>
<!-- Generator: Adobe Illustrator 14.0.0, SVG Export Plug-In . SVG Version: 6.00 Build 43363)  -->
<!DOCTYPE svg PUBLIC "-//W3C//DTD SVG 1.1//EN" "http://www.w3.org/Graphics/SVG/1.1/DTD/svg11.dtd">
<svg name="6" version="1.1" xmlns="http://www.w3.org/2000/svg" xmlns:xlink="http://www.w3.org/1999/xlink" x="0px" y="0px" width="300px"
	 height="300px" viewBox="0 0 300 300" enable-background="new 0 0 300 300" xml:space="preserve">
<g id="cluster_six">
	<g id="color_emphasis_3_">
		<path fill="none" stroke="#EDECEC" stroke-width="4" d="M164.58,215.816c-4.699,1.015-9.577,1.548-14.58,1.548
			c-37.993,0-68.793-30.8-68.793-68.793c0-5.435,0.63-10.72,1.82-15.791"/>
		<path fill="none" stroke="#8D5E4B" stroke-width="4" d="M203.923,105.848c9.311,11.734,14.871,26.579,14.871,42.724
			c0,32.992-23.223,60.558-54.214,67.245"/>
		<path fill="none" stroke="#91949C" stroke-width="4" d="M83.027,132.78C90.164,102.398,117.44,79.777,150,79.777
			c21.852,0,41.321,10.188,53.923,26.07"/>
	</g>
	<g id="pattern_lines_out_5_">
		<g>
			<path fill="#FFFFFF" stroke="#2C2C2C" d="M150.758,148.768c0-48.285,0-96.571,0-144.856c0-1.715,0-3.429,0-5.144
				c0,0.383-1.516,1.646-1.516,2.465c0,48.285,0,96.571,0,144.856c0,1.715,0,3.429,0,5.144
				C149.242,150.85,150.758,149.586,150.758,148.768L150.758,148.768z"/>
		</g>
		<g>
			<path fill="#FFFFFF" stroke="#2C2C2C" d="M151.538,149.47c17.203-45.117,34.406-90.234,51.609-135.351
				c0.61-1.603,1.221-3.204,1.832-4.807c-0.137,0.357-2.004,0.999-2.295,1.764c-17.203,45.116-34.406,90.233-51.609,135.351
				c-0.611,1.603-1.223,3.203-1.833,4.806C149.378,150.875,151.245,150.234,151.538,149.47L151.538,149.47z"/>
		</g>
		<g>
			<path fill="#FFFFFF" stroke="#2C2C2C" d="M152.017,150.404c32.148-36.028,64.297-72.056,96.444-108.082
				c1.142-1.28,2.282-2.559,3.425-3.838c-0.256,0.285-2.229,0.219-2.773,0.83c-32.148,36.025-64.297,72.054-96.445,108.081
				c-1.143,1.279-2.283,2.558-3.425,3.837C149.497,150.947,151.47,151.014,152.017,150.404L152.017,150.404z"/>
		</g>
		<g>
			<path fill="#FFFFFF" stroke="#2C2C2C" d="M151.864,152.462c47.975-5.477,95.949-10.954,143.921-16.431
				c1.704-0.194,3.407-0.389,5.11-0.583c-0.381,0.043-1.807-1.319-2.621-1.228c-47.973,5.476-95.947,10.953-143.922,16.431
				c-1.703,0.193-3.406,0.388-5.11,0.581C149.624,151.19,151.051,152.554,151.864,152.462L151.864,152.462z"/>
		</g>
		<g>
			<path fill="#FFFFFF" stroke="#2C2C2C" d="M151.255,153.316c46.777,11.975,93.556,23.949,140.33,35.923
				c1.662,0.426,3.322,0.851,4.982,1.276c-0.37-0.096-1.218-1.877-2.012-2.081c-46.775-11.976-93.553-23.95-140.331-35.924
				c-1.661-0.427-3.321-0.852-4.982-1.278C149.614,151.33,150.462,153.111,151.255,153.316L151.255,153.316z"/>
		</g>
		<g>
			<path fill="#FFFFFF" stroke="#2C2C2C" d="M150.38,153.896c39.443,27.855,78.885,55.71,118.324,83.562
				c1.4,0.99,2.801,1.979,4.201,2.969c-0.312-0.222-0.469-2.188-1.139-2.662c-39.439-27.854-78.881-55.709-118.324-83.563
				c-1.4-0.99-2.799-1.979-4.2-2.97C149.556,151.457,149.712,153.423,150.38,153.896L150.38,153.896z"/>
		</g>
		<g>
			<path fill="#FFFFFF" stroke="#2C2C2C" d="M148.318,153.979c10.884,47.045,21.767,94.088,32.649,141.129
				c0.386,1.671,0.773,3.341,1.158,5.012c-0.086-0.373,1.107-1.944,0.923-2.744c-10.882-47.042-21.765-94.084-32.649-141.13
				c-0.385-1.671-0.771-3.34-1.157-5.013C149.327,151.61,148.135,153.181,148.318,153.979L148.318,153.979z"/>
		</g>
		<g>
			<path fill="#FFFFFF" stroke="#2C2C2C" d="M147.401,153.47c-6.592,47.835-13.184,95.669-19.773,143.5
				c-0.236,1.698-0.469,3.397-0.705,5.096c0.054-0.38,1.729-1.423,1.841-2.235c6.593-47.832,13.183-95.664,19.774-143.502
				c0.235-1.697,0.469-3.395,0.704-5.096C149.188,151.616,147.515,152.658,147.401,153.47L147.401,153.47z"/>
		</g>
		<g>
			<path fill="#FFFFFF" stroke="#2C2C2C" d="M146.726,152.667c-23.201,42.348-46.403,84.694-69.602,127.039
				c-0.826,1.503-1.648,3.008-2.475,4.51c0.186-0.335,2.121-0.713,2.516-1.433c23.201-42.344,46.402-84.689,69.604-127.04
				c0.825-1.502,1.647-3.005,2.473-4.511C149.056,151.572,147.12,151.949,146.726,152.667L146.726,152.667z"/>
		</g>
		<g>
			<path fill="#FFFFFF" stroke="#2C2C2C" d="M146.38,151.677c-36.767,31.303-73.533,62.604-110.295,93.905
				c-1.309,1.109-2.613,2.223-3.92,3.332c0.293-0.247,2.236,0.09,2.861-0.442c36.766-31.3,73.531-62.601,110.299-93.905
				c1.307-1.109,2.609-2.221,3.917-3.334C148.948,151.483,147.005,151.146,146.38,151.677L146.38,151.677z"/>
		</g>
		<g>
			<path fill="#FFFFFF" stroke="#2C2C2C" d="M146.41,150.628c-45.507,16.149-91.013,32.298-136.515,48.447
				c-1.617,0.57-3.232,1.146-4.85,1.718c0.362-0.127,2.059,0.88,2.832,0.605c45.504-16.147,91.009-32.295,136.518-48.446
				c1.615-0.571,3.229-1.146,4.847-1.72C148.878,151.362,147.183,150.355,146.41,150.628L146.41,150.628z"/>
		</g>
		<g>
			<path fill="#FFFFFF" stroke="#2C2C2C" d="M146.812,149.658c-48.273-1.123-96.547-2.246-144.816-3.369
				c-1.715-0.043-3.43-0.08-5.145-0.122c0.385,0.011,1.611,1.556,2.432,1.575c48.271,1.124,96.543,2.248,144.818,3.371
				c1.715,0.041,3.426,0.08,5.142,0.119C148.856,151.225,147.631,149.68,146.812,149.658L146.812,149.658z"/>
		</g>
		<g>
			<path fill="#FFFFFF" stroke="#2C2C2C" d="M147.532,148.896c-44.705-18.249-89.411-36.497-134.113-54.744
				c-1.586-0.65-3.176-1.297-4.764-1.946c0.355,0.146,0.951,2.027,1.711,2.338c44.703,18.248,89.408,36.497,134.115,54.745
				c1.588,0.649,3.172,1.296,4.761,1.943C148.885,151.088,148.29,149.208,147.532,148.896L147.532,148.896z"/>
		</g>
		<g>
			<path fill="none" stroke="#2C2C2C" d="M149.522,148.353C128.317,104.971,107.11,61.59,85.905,18.214
				c-0.75-1.542-1.506-3.083-2.259-4.624c0.167,0.345-0.64,2.145-0.279,2.883c21.204,43.378,42.409,86.76,63.618,130.141
				c0.752,1.542,1.504,3.079,2.257,4.619C149.071,150.888,149.88,149.089,149.522,148.353L149.522,148.353z"/>
		</g>
	</g>
	<g id="pattern_radial_5_">
		<polygon fill="none" stroke="#2C2C2C" points="81.207,87.618 108.271,67.419 150.758,61.5 181.518,66.588 211.073,84.221 
			231.582,108.581 238.816,142.535 236.242,175.072 222.578,203.026 200.563,230.339 168.318,240.428 134.984,243.58 
			104.477,232.937 77.144,210.623 57.719,183.712 53.587,149.007 62.338,114.121 		"/>
		<polygon fill="none" stroke="#2C2C2C" points="58.716,66.588 96.753,40.403 150.758,33.5 191.687,44.175 229.433,63.646 
			256.33,97.47 268.84,139.107 268.84,183.417 251.886,225.117 217.281,252.498 175.587,265.116 132.017,265.116 90.704,254.919 
			56.649,228.073 36.935,189.479 27.587,148 38.058,105.848 		"/>
		<polygon fill="none" stroke="#2C2C2C" points="101.597,130.146 109.55,114.121 128.956,106.279 150,102.5 166.384,106.279 
			179.93,116.844 188.563,130.865 191.687,146.597 191.687,163.667 184.328,176.014 170.204,185.153 158.328,190.516 
			143.476,190.516 128.927,185.153 116.444,179.156 106.3,166.473 101.597,148 		"/>
		<polygon fill="none" stroke="#2C2C2C" points="42.669,49.508 83.367,16.473 149.242,1.232 202.685,11.076 249.112,39.314 
			282.434,82.24 300.896,135.448 293.707,190.516 268.704,237.459 230.145,274.363 181.95,292.625 129.757,292.625 78.948,278.267 
			38.911,247.45 10.715,203.026 1.995,146.289 13.419,94.152 		"/>
	</g>
	<g id="rhythm_4_" opacity="0.5">
		<g>
			<path fill="#FFFFFF" stroke="#2C2C2C" d="M152.455,151.389c48.363-25.054,96.727-50.106,145.089-75.158
				c1.718-0.891,3.435-1.779,5.151-2.669c-0.384,0.198-2.436-0.665-3.256-0.239c-48.362,25.051-96.727,50.104-145.09,75.157
				c-1.719,0.889-3.435,1.777-5.152,2.667C149.582,150.948,151.634,151.812,152.455,151.389L152.455,151.389z"/>
		</g>
		<g>
			<path fill="#FFFFFF" stroke="#2C2C2C" d="M149.488,154.564c31.697,47.172,63.39,94.344,95.083,141.511
				c1.125,1.676,2.252,3.35,3.376,5.026c-0.251-0.374,0.402-2.604-0.136-3.405c-31.692-47.17-63.388-94.34-95.084-141.512
				c-1.124-1.676-2.248-3.35-3.374-5.027C149.605,151.537,148.952,153.764,149.488,154.564L149.488,154.564z"/>
		</g>
		<g>
			<path fill="#FFFFFF" stroke="#2C2C2C" d="M148.053,147.699C101.089,103.785,54.123,59.872,7.162,15.964
				c-1.665-1.563-3.337-3.121-5.004-4.682c0.372,0.35,0.221,2.973,1.02,3.719c46.961,43.912,93.925,87.826,140.892,131.739
				c1.669,1.562,3.333,3.116,5.001,4.676C148.695,151.067,148.846,148.446,148.053,147.699L148.053,147.699z"/>
		</g>
	</g>
	<g id="contrast_5_">
		<polygon fill="#2C2C2C" fill-opacity="0.5" stroke="#FFFFFF" points="61.965,115.606 81.207,87.618 111.946,113.938 
			103.358,130.865 		"/>
		<polygon fill="#2C2C2C" fill-opacity="0.5" stroke="#FFFFFF" points="149.614,102.5 128.745,105.848 108.271,67.419 
			149.07,61.735 		"/>
		<polygon fill="#2C2C2C" fill-opacity="0.5" stroke="#FFFFFF" points="166.591,106.441 179.93,116.844 211.073,84.222 
			181.201,67.419 		"/>
		<polygon fill="#2C2C2C" fill-opacity="0.5" stroke="#FFFFFF" points="188.563,130.865 231.582,108.581 239.768,142.427 
			190.949,148 		"/>
		<polygon fill="#2C2C2C" fill-opacity="0.5" stroke="#FFFFFF" points="191.687,162.1 236.239,175.078 222.284,204.677 
			183.757,177.468 191.687,163.667 		"/>
		<polygon fill="#2C2C2C" fill-opacity="0.5" stroke="#FFFFFF" points="157.587,191 170.204,185.153 200.563,230.339 
			168.128,239.606 		"/>
		<polygon fill="#2C2C2C" fill-opacity="0.5" stroke="#FFFFFF" points="128.942,185.159 143.476,190.516 134.984,243.58 
			102.747,232.937 		"/>
		<polygon fill="#2C2C2C" fill-opacity="0.5" stroke="#FFFFFF" points="76.941,210.344 116.444,180.5 106.183,166.011 
			57.681,183.389 		"/>
	</g>
	<g id="movement_5_">
		<line display="none" fill="none" stroke="#2C2C2C" stroke-width="2" x1="150" y1="148" x2="299.972" y2="148"/>
		<line display="none" fill="none" stroke="#2C2C2C" stroke-width="2" x1="150" y1="148" x2="290.215" y2="94.792"/>
		<g>
			<path fill="#FFFFFF" stroke="#2C2C2C" d="M300.855,147.573c-13.484-13.854-26.97-27.706-40.454-41.559
				c-0.497-0.511-1.484-0.309-1.809,0.313c-7.016,13.496-14.032,26.991-21.049,40.487c0.494-0.181,0.987-0.361,1.481-0.542
				c-15.961-4.323-31.922-8.646-47.883-12.971c-4.588-1.242-10.594,2.671-14.812,4.226c-7.896,2.911-15.79,5.822-23.686,8.733
				c-1.139,0.42-0.813,1.766,0.357,1.334c7.289-2.687,14.577-5.374,21.866-8.062c4.176-1.54,8.353-3.079,12.528-4.619
				c0.868-0.32,2.345-0.38,1.169-0.699c0.753,0.204,1.505,0.408,2.258,0.612c15.696,4.252,31.393,8.504,47.089,12.756
				c0.536,0.145,1.207-0.015,1.481-0.542c7.016-13.496,14.032-26.991,21.049-40.487c-0.604,0.104-1.206,0.209-1.809,0.313
				c13.484,13.854,26.97,27.706,40.454,41.559C299.703,149.06,301.532,148.268,300.855,147.573L300.855,147.573z"/>
		</g>
	</g>
</g>
</svg>
