<?xml version="1.0" encoding="utf-8"?>
<!-- Generator: Adobe Illustrator 14.0.0, SVG Export Plug-In . SVG Version: 6.00 Build 43363)  -->
<!DOCTYPE svg PUBLIC "-//W3C//DTD SVG 1.1//EN" "http://www.w3.org/Graphics/SVG/1.1/DTD/svg11.dtd">
<svg name="7" version="1.1" xmlns="http://www.w3.org/2000/svg" xmlns:xlink="http://www.w3.org/1999/xlink" x="0px" y="0px" width="300px"
	 height="300px" viewBox="0 0 300 300" enable-background="new 0 0 300 300" xml:space="preserve">
<g id="cluster_seven">
	<g id="color_emphasis_8_">
		<path fill="none" stroke="#E0E3E4" stroke-width="4" d="M169.043,236.632c-6.055,1.307-12.339,1.994-18.783,1.994
			c-48.947,0-88.626-39.679-88.626-88.626c0-7.001,0.812-13.811,2.345-20.342"/>
		<path fill="none" stroke="#A4554E" stroke-width="4" d="M219.729,94.96c11.994,15.118,19.157,34.242,19.157,55.04
			c0,42.504-29.918,78.017-69.843,86.632"/>
		<path fill="none" stroke="#F8A12C" stroke-width="4" d="M63.979,129.658c9.194-39.143,44.334-68.284,86.281-68.284
			c28.149,0,53.233,13.124,69.469,33.586"/>
	</g>
	<g id="rhythm_5_" opacity="0.55">
		<g>
			<path fill="#FFFFFF" stroke="#2C2C2C" d="M152.062,147.509C178.976,98.547,205.888,49.584,232.8,0.624
				c0.763-1.386,1.524-2.771,2.284-4.155c-0.213,0.39-2.471,0.829-2.928,1.665c-26.913,48.96-53.826,97.923-80.738,146.883
				c-0.763,1.387-1.524,2.771-2.285,4.156C149.347,148.782,151.604,148.344,152.062,147.509L152.062,147.509z"/>
		</g>
		<g>
			<path fill="#FFFFFF" stroke="#2C2C2C" d="M152.587,149.068c47.887-30.396,95.775-60.795,143.662-91.193
				c1.355-0.862,2.711-1.721,4.062-2.581c-0.379,0.243-2.603-0.47-3.417,0.051c-47.89,30.397-95.773,60.796-143.66,91.192
				c-1.357,0.86-2.712,1.722-4.065,2.578C149.55,148.874,151.771,149.589,152.587,149.068L152.587,149.068z"/>
		</g>
		<g>
			<path fill="#FFFFFF" stroke="#2C2C2C" d="M151.051,151.86c48.6,22.856,97.2,45.715,145.801,68.569
				c1.38,0.645,2.753,1.293,4.125,1.935c-0.387-0.178-0.946-2.316-1.774-2.707c-48.602-22.857-97.201-45.709-145.801-68.562
				c-1.375-0.651-2.75-1.295-4.121-1.944C149.667,149.335,150.223,151.475,151.051,151.86L151.051,151.86z"/>
		</g>
		<g>
			<path fill="#FFFFFF" stroke="#2C2C2C" d="M149.668,152.723c35.214,48.439,70.428,96.881,105.644,145.318
				c1.002,1.372,1.996,2.742,2.994,4.106c-0.283-0.382,0.316-2.771-0.282-3.599c-35.216-48.443-70.434-96.875-105.646-145.312
				c-0.995-1.375-1.993-2.744-2.983-4.115C149.672,149.51,149.066,151.9,149.668,152.723L149.668,152.723z"/>
		</g>
		<g>
			<path fill="#FFFFFF" stroke="#2C2C2C" d="M146.782,151.141c-19.175,48.488-38.353,96.979-57.527,145.469
				c-0.542,1.379-1.085,2.748-1.622,4.118c0.149-0.387,2.185-1.061,2.514-1.885c19.177-48.496,38.346-96.982,57.522-145.471
				c0.546-1.373,1.087-2.746,1.634-4.115C149.146,149.644,147.105,150.313,146.782,151.141L146.782,151.141z"/>
		</g>
		<g>
			<path fill="#FFFFFF" stroke="#2C2C2C" d="M145.68,149.923C97.976,189.425,50.266,228.928,2.561,268.434
				c-1.352,1.125-2.702,2.24-4.044,3.358c0.376-0.317,2.881,0.146,3.695-0.524c47.711-39.508,95.41-79.011,143.116-118.515
				c1.354-1.116,2.702-2.236,4.057-3.35C148.998,149.716,146.489,149.247,145.68,149.923L145.68,149.923z"/>
		</g>
		<g>
			<path fill="#FFFFFF" stroke="#2C2C2C" d="M147.257,146.953c-47.962-15.554-95.925-31.107-143.889-46.658
				c-1.362-0.44-2.717-0.881-4.072-1.315c0.382,0.12,1.155,2.043,1.973,2.311c47.968,15.555,95.926,31.103,143.889,46.656
				c1.357,0.441,2.716,0.88,4.073,1.323C148.846,149.143,148.074,147.215,147.257,146.953L147.257,146.953z"/>
		</g>
		<g>
			<path fill="#FFFFFF" stroke="#2C2C2C" d="M148.23,145.528C103.032,97.459,57.833,49.386,12.63,1.317
				c-1.284-1.363-2.562-2.722-3.84-4.075c0.363,0.38,0.037,3.071,0.806,3.894c45.204,48.075,90.402,96.138,135.601,144.209
				c1.278,1.36,2.561,2.72,3.838,4.083C148.673,149.041,149.003,146.344,148.23,145.528L148.23,145.528z"/>
		</g>
	</g>
	<g id="patern_balance">
		<g id="pattern_lines_out_6_">
			<g>
				<path fill="#FFFFFF" stroke="#2C2C2C" d="M150.758,146.768c0-47.977,0-95.952,0-143.928c0-1.357,0-2.715,0-4.072
					c0,0.383-1.516,1.646-1.516,2.465c0,47.977,0,95.952,0,143.928c0,1.357,0,2.715,0,4.072
					C149.242,148.85,150.758,147.586,150.758,146.768L150.758,146.768z"/>
			</g>
			<g>
				<path fill="#FFFFFF" stroke="#2C2C2C" d="M151.323,147.223c11.93-46.47,23.859-92.938,35.789-139.407
					c0.338-1.315,0.675-2.63,1.012-3.944c-0.094,0.37-1.877,1.218-2.08,2.011c-11.93,46.469-23.859,92.938-35.789,139.406
					c-0.337,1.315-0.675,2.63-1.013,3.944C149.337,148.862,151.12,148.015,151.323,147.223L151.323,147.223z"/>
			</g>
			<g>
				<path fill="#FFFFFF" stroke="#2C2C2C" d="M152.033,148.474c32.839-34.975,65.679-69.951,98.516-104.927
					c0.93-0.991,1.859-1.979,2.786-2.969c-0.26,0.279-2.23,0.162-2.789,0.76c-32.84,34.976-65.678,69.951-98.516,104.927
					c-0.931,0.99-1.86,1.98-2.788,2.968C149.504,148.954,151.475,149.071,152.033,148.474L152.033,148.474z"/>
			</g>
			<g>
				<path fill="#FFFFFF" stroke="#2C2C2C" d="M152.052,149.913c45.625-14.83,91.252-29.662,136.879-44.495
					c1.291-0.422,2.582-0.841,3.869-1.261c-0.361,0.119-2.032-0.932-2.811-0.678c-45.627,14.831-91.25,29.664-136.875,44.497
					c-1.293,0.418-2.583,0.84-3.872,1.256C149.605,149.115,151.276,150.169,152.052,149.913L152.052,149.913z"/>
			</g>
			<g>
				<path fill="#FFFFFF" stroke="#2C2C2C" d="M151.794,150.591c47.88-3.02,95.762-6.039,143.645-9.061
					c1.355-0.088,2.709-0.173,4.061-0.26c-0.379,0.025-1.736-1.407-2.554-1.355c-47.882,3.02-95.761,6.043-143.641,9.064
					c-1.356,0.083-2.711,0.171-4.062,0.253C149.623,149.21,150.979,150.646,151.794,150.591L151.794,150.591z"/>
			</g>
			<g>
				<path fill="#FFFFFF" stroke="#2C2C2C" d="M151.376,151.184c47.127,8.981,94.256,17.963,141.385,26.942
					c1.336,0.252,2.668,0.507,3.998,0.758c-0.373-0.068-1.332-1.794-2.137-1.947c-47.129-8.982-94.256-17.959-141.383-26.938
					c-1.334-0.258-2.667-0.51-3.997-0.767C149.617,149.306,150.574,151.034,151.376,151.184L151.376,151.184z"/>
			</g>
			<g>
				<path fill="#FFFFFF" stroke="#2C2C2C" d="M150.171,151.972c36.974,30.571,73.947,61.145,110.922,91.715
					c1.05,0.865,2.095,1.73,3.14,2.591c-0.295-0.24-0.305-2.215-0.935-2.736c-36.976-30.574-73.95-61.141-110.923-91.71
					c-1.046-0.869-2.092-1.731-3.134-2.599C149.534,149.479,149.541,151.454,150.171,151.972L150.171,151.972z"/>
			</g>
			<g>
				<path fill="#FFFFFF" stroke="#2C2C2C" d="M148.754,152.308c19.229,48.521,38.455,97.043,57.687,145.563
					c0.549,1.376,1.09,2.748,1.637,4.114c-0.155-0.382,0.869-2.271,0.543-3.098c-19.23-48.525-38.462-97.04-57.689-145.559
					c-0.542-1.376-1.088-2.749-1.626-4.121C149.454,149.597,148.424,151.483,148.754,152.308L148.754,152.308z"/>
			</g>
			<g>
				<path fill="#FFFFFF" stroke="#2C2C2C" d="M148.043,151.867c6.03,47.595,12.057,95.191,18.088,142.786
					c0.174,1.351,0.344,2.697,0.518,4.039c-0.051-0.377,1.292-1.823,1.191-2.635c-6.031-47.6-12.064-95.19-18.093-142.783
					c-0.168-1.35-0.34-2.696-0.506-4.042C149.286,149.613,147.938,151.058,148.043,151.867L148.043,151.867z"/>
			</g>
			<g>
				<path fill="#FFFFFF" stroke="#2C2C2C" d="M147.426,151.487c-5.995,47.599-11.992,95.199-17.985,142.799
					c-0.167,1.352-0.338,2.697-0.503,4.041c0.044-0.378,1.705-1.444,1.809-2.256c5.995-47.604,11.985-95.2,17.98-142.798
					c0.172-1.349,0.341-2.696,0.515-4.041C149.19,149.612,147.525,150.677,147.426,151.487L147.426,151.487z"/>
			</g>
			<g>
				<path fill="#FFFFFF" stroke="#2C2C2C" d="M146.564,150.335c-28.182,38.824-56.366,77.649-84.547,116.476
					c-0.798,1.104-1.595,2.201-2.387,3.299c0.221-0.311,2.189-0.445,2.671-1.104c28.186-38.83,56.361-77.654,84.544-116.479
					c0.8-1.099,1.597-2.198,2.398-3.294C149.013,149.541,147.041,149.672,146.564,150.335L146.564,150.335z"/>
			</g>
			<g>
				<path fill="#FFFFFF" stroke="#2C2C2C" d="M146.364,148.909c-43.398,20.447-86.8,40.896-130.198,61.346
					c-1.231,0.583-2.458,1.16-3.682,1.74c0.344-0.165,2.133,0.666,2.873,0.318c43.404-20.45,86.798-40.9,130.197-61.349
					c1.23-0.577,2.458-1.157,3.688-1.732C148.893,149.394,147.101,148.558,146.364,148.909L146.364,148.909z"/>
			</g>
			<g>
				<path fill="#FFFFFF" stroke="#2C2C2C" d="M146.535,148.204c-47.12,9.014-94.243,18.027-141.363,27.044
					c-1.338,0.259-2.67,0.512-3.999,0.771c0.374-0.075,1.9,1.175,2.704,1.021c47.126-9.015,94.241-18.032,141.362-27.046
					c1.335-0.254,2.669-0.51,4.003-0.762C148.863,149.302,147.336,148.047,146.535,148.204L146.535,148.204z"/>
			</g>
			<g>
				<path fill="#FFFFFF" stroke="#2C2C2C" d="M146.875,147.563c-47.882-2.985-95.766-5.973-143.648-8.956
					c-1.36-0.083-2.713-0.169-4.064-0.249c0.381,0.021,1.548,1.61,2.365,1.662c47.888,2.987,95.765,5.969,143.648,8.955
					c1.355,0.086,2.711,0.169,4.067,0.257C148.858,149.206,147.69,147.611,146.875,147.563L146.875,147.563z"/>
			</g>
			<g>
				<path fill="#FFFFFF" stroke="#2C2C2C" d="M147.971,146.631c-40.522-25.682-81.045-51.364-121.57-77.044
					c-1.151-0.728-2.296-1.454-3.442-2.176c0.324,0.201,0.582,2.156,1.272,2.596c40.527,25.686,81.047,51.36,121.57,77.043
					c1.146,0.728,2.295,1.453,3.441,2.183C148.918,149.024,148.663,147.065,147.971,146.631L147.971,146.631z"/>
			</g>
			<g>
				<path fill="#FFFFFF" stroke="#2C2C2C" d="M149.381,146.342c-23.14-42.024-46.28-84.052-69.424-126.077
					c-0.658-1.192-1.312-2.38-1.967-3.564c0.187,0.333-0.529,2.17-0.137,2.888c23.143,42.03,46.284,84.05,69.424,126.076
					c0.655,1.188,1.312,2.378,1.965,3.568C149.057,148.895,149.778,147.056,149.381,146.342L149.381,146.342z"/>
			</g>
			<g>
				<path fill="#FFFFFF" stroke="#2C2C2C" d="M150.095,146.468c-11.964-46.459-23.926-92.92-35.893-139.381
					c-0.34-1.317-0.679-2.631-1.019-3.941c0.098,0.369-1.052,1.971-0.851,2.764c11.965,46.464,23.931,92.919,35.894,139.379
					c0.339,1.314,0.68,2.63,1.016,3.944C149.147,148.859,150.302,147.258,150.095,146.468L150.095,146.468z"/>
			</g>
		</g>
		<g id="pattern_radial_6_">
			<polygon fill="none" stroke="#2C2C2C" stroke-width="1.12" points="24.231,70.007 48.284,39.232 77.853,19.588 112.333,5.909 
				150,0 186.044,5.882 221.354,17.786 253.335,40.578 277.884,67.411 292.8,104.157 299.499,141.271 296.759,178.884 
				284.071,214.42 263.299,243.541 236.49,268.93 203.964,286.132 167.841,296.058 130.747,296.071 95.287,285.844 62.017,266.811 
				35.552,243.658 15.357,212.313 3.876,177.04 1.527,140.021 7.897,103.439 			"/>
			<path fill="none" stroke="#2C2C2C" stroke-width="1.12" d="M37.392,76.552l19.166-25.473l29.543-16.513l31.189-15.49
				l31.843-2.376l34.375,5.155l29.669,14.469l24.401,18.825l23.09,23.19l14.667,31.498l10.252,30.076c0,0-2.36,34.851-2.452,34.833
				s-7.8,33.686-7.8,33.686l-22.566,26.401l-26.931,19.443l-29.48,13.669L166.516,278h-33.494l-31.427-8.109L73.95,252.955
				l-23.456-21.67l-19.036-26.559l-11.923-32.228L16.087,136l6.873-32.561L37.392,76.552z"/>
			<polygon fill="none" stroke="#2C2C2C" stroke-width="1.12" points="53.088,86.498 71.916,67.411 95.408,48.323 121.261,40.578 
				149.502,35 178.687,40.636 203.848,49.633 226.065,67.411 247.815,86.498 264.233,113.447 270.587,143.795 268.89,172.032 
				258.306,200.425 238.886,223.963 217.686,243.064 192.108,254.277 161.837,260.76 135.193,260.76 109.342,250.299 
				87.633,236.632 63.979,217.574 46.255,197.755 36.157,170.864 36.157,138.358 36.157,110.926 			"/>
			<polygon fill="none" stroke="#2C2C2C" stroke-width="1.12" points="52.366,116.182 63.979,95.516 80.975,74 100.863,61.374 
				128.938,50.5 149.502,50.5 173.396,55.149 199.407,61.374 217.482,76.552 238.886,94.289 250.914,116.182 253.335,143.795 
				252.769,170.506 244.701,195.904 230.692,216.581 208.685,230.685 186.829,243.904 162.546,254.277 136.672,249.011 
				113.618,238.626 91.905,225.635 75.208,210.819 59.629,189.775 52.366,166.219 50.087,138.358 			"/>
			<polygon fill="none" stroke="#2C2C2C" stroke-width="1.12" points="70.108,121.936 77.733,103.913 93.109,89.949 112.309,79.015 
				128.938,70.389 148.038,67.411 171.113,70.135 191.265,76.189 206.737,87.996 220.316,103.954 231.932,123.947 235.084,143.818 
				235.084,164.059 224.37,185.758 212.583,201.609 196.357,216.948 179.588,225.635 159.908,233.459 139.09,229.804 
				118.469,224.992 103.386,212.399 87.633,200.529 75.208,185.758 66.587,162.622 66.587,142.557 			"/>
			<polygon fill="none" stroke="#2C2C2C" stroke-width="1.12" points="80.863,125.423 87.633,110.187 98.343,95.516 116.161,86.01 
				133.744,82.967 150.12,79 167.846,82.861 183.508,86.637 199.678,95.516 213.436,108.322 223.001,126.696 225.129,145.253 
				223.001,164.059 216.17,180.61 203.964,194.483 192.108,207.885 175.086,214.276 157.942,217.945 140.583,217.945 
				122.556,212.399 111.052,201.838 96.608,190.557 87.633,178.257 77.733,161.365 77.733,143.252 			"/>
			<path fill="none" stroke="#2C2C2C" stroke-width="1.12" d="M101.595,117.239l8.79-8.917l13.217-8.799l14.265-0.544h11.266h13.011
				l10.983,6.543l12.706,4.739l10.524,8.901l7.606,12.282l2.773,14.162l-2.89,14.033l-5.537,14.446l-4.9,11.671l-11.847,7.623
				l-12.881,4.741H155.43l-10.343-0.367l-13.873-2.772l-8.491-9.225l-12.018-6.874l-9.11-8.882c0,0-2.343-12.753-2.549-12.714
				s-2.438-13.493-2.438-13.493v-13.267L101.595,117.239z"/>
			<polygon fill="none" stroke="#2C2C2C" stroke-width="1.12" points="115.338,127.744 116.647,126.894 123.602,122.378 
				132.215,115.167 140.953,115.167 150.12,115.167 157.987,115.167 167.846,118.793 174.896,124.125 182.839,127.744 
				187.6,138.358 188.124,146.782 188.124,154.5 184.665,165.796 180.505,177.053 171.023,178.884 163.143,184.143 153.372,181.879 
				145.284,180.61 136.535,177.053 131.214,174.059 123.602,168.205 118.469,162.622 115.338,154.172 112.309,146.927 
				113.618,137.719 			"/>
			<polygon fill="none" stroke="#2C2C2C" stroke-width="1.12" points="128.938,136.362 132.215,131.538 139.09,127.652 
				143.439,126.696 150.595,126.696 153.372,126.696 159.86,129.658 166.516,133.049 168.683,136.73 173.082,141.484 
				174.635,149.15 174.635,155.616 171.723,159.71 167.846,164.622 162.525,170.408 155.927,170.408 150.595,172.006 
				144.842,172.006 140.953,170.354 135.341,165.796 132.215,161.072 131.214,156.047 124.659,152.389 124.659,146.178 
				125.55,139.914 			"/>
		</g>
	</g>
	<g id="contrast_6_">
		<polygon fill="#2C2C2C" fill-opacity="0.55" points="52.366,116.182 63.979,93.4 77.733,103.913 70.108,121.936 		"/>
		<polygon fill="#2C2C2C" fill-opacity="0.55" points="96.608,90.626 112.309,79.015 101.595,62.704 80.975,74 		"/>
		<polygon fill="#2C2C2C" fill-opacity="0.54" points="128.938,70.389 150.837,67.411 149.502,50.5 128.938,50.5 124.659,53.774 		
			"/>
		<polygon fill="#2C2C2C" fill-opacity="0.55" points="171.113,70.135 191.265,76.189 199.407,61.374 173.396,55.149 		"/>
		<polygon fill="#2C2C2C" fill-opacity="0.55" points="206.737,87.996 217.482,76.552 238.886,94.289 221.217,105.504 		"/>
		<polygon fill="#2C2C2C" fill-opacity="0.55" points="231.932,123.947 250.914,116.182 253.335,143.795 235.084,143.818 		"/>
		<polygon fill="#2C2C2C" fill-opacity="0.55" points="224.37,185.758 235.084,167.136 252.769,170.506 244.701,195.904 		"/>
		<polygon fill="#2C2C2C" fill-opacity="0.55" points="196.357,216.948 212.583,201.609 230.692,216.581 208.685,230.685 		"/>
		<polygon fill="#2C2C2C" fill-opacity="0.55" points="186.829,243.904 162.546,254.277 159.908,233.459 179.588,225.635 		"/>
		<polygon fill="#2C2C2C" fill-opacity="0.55" points="139.09,229.804 115.338,224.992 113.618,238.626 136.672,249.011 		"/>
		<polygon fill="#2C2C2C" fill-opacity="0.55" points="91.905,225.635 103.386,212.399 87.633,200.529 75.208,210.819 		"/>
		<polygon fill="#2C2C2C" fill-opacity="0.55" points="59.629,189.775 75.208,184.112 67.418,164.883 52.366,166.219 		"/>
	</g>
	<g id="movement_6_">
		<line display="none" fill="none" stroke="#2C2C2C" stroke-width="2" x1="150" y1="148" x2="299.963" y2="148"/>
		<line display="none" fill="none" stroke="#2C2C2C" x1="150" y1="148" x2="195.301" y2="5.043"/>
		<g>
			<g>
				<path fill="#2C2C2C" d="M300.713,146.701c-33.222-36.986-66.444-73.972-99.666-110.958c-3.73-4.151-7.46-8.304-11.189-12.456
					c0.061,0.067-1.824,2.184-1.5,2.598c30.161,38.581,60.322,77.161,90.483,115.742c1.83,2.34,3.66,4.681,5.49,7.021
					c0.5-0.866,1-1.731,1.5-2.598c-35.128-30.087-70.256-60.174-105.384-90.261c-0.233-0.2-0.466-0.399-0.699-0.599
					c-0.012-0.011-1.783,2.251-1.5,2.598c24.779,30.287,49.558,60.573,74.337,90.859c0.5-0.866,1-1.731,1.5-2.598
					c-26.083-25.341-52.166-50.682-78.249-76.021c0.025,0.025-1.776,2.189-1.5,2.598c16.681,24.642,33.362,49.283,50.043,73.925
					c0.5-0.866,1-1.731,1.5-2.598c-20.045-14.858-40.089-29.717-60.134-44.574c-0.068-0.051-1.688,2.222-1.5,2.598
					c7.71,15.368,15.419,30.736,23.129,46.104c0.5-0.866,1-1.731,1.5-2.598c-10.6-6.246-21.2-12.492-31.8-18.738
					c-0.225-0.133-1.383,2.129-1.463,2.383c-2.108,6.651-4.217,13.304-6.325,19.956c-0.083,0.264,1.246-1.599,1.426-2.168
					c2.108-6.652,4.217-13.304,6.324-19.956c-0.487,0.794-0.976,1.589-1.463,2.383c10.6,6.246,21.2,12.492,31.8,18.738
					c0.135,0.079,1.671-2.257,1.5-2.598c-7.71-15.368-15.419-30.736-23.129-46.104c-0.5,0.866-1,1.731-1.5,2.598
					c20.045,14.858,40.089,29.717,60.134,44.574c0.056,0.042,1.736-2.249,1.5-2.598c-16.681-24.642-33.362-49.283-50.043-73.925
					c-0.5,0.866-1,1.731-1.5,2.598c26.083,25.341,52.166,50.682,78.249,76.021c-0.024-0.023,1.806-2.225,1.5-2.598
					c-24.779-30.287-49.558-60.573-74.337-90.859c-0.5,0.866-1,1.731-1.5,2.598c35.128,30.087,70.256,60.174,105.384,90.261
					c0.233,0.2,0.467,0.399,0.699,0.599c0.012,0.01,1.778-2.242,1.5-2.598C255.67,107.47,225.509,68.89,195.347,30.309
					c-1.829-2.34-3.659-4.681-5.489-7.021c-0.5,0.866-1,1.731-1.5,2.598c33.222,36.986,66.444,73.972,99.666,110.958
					c3.73,4.151,7.46,8.304,11.189,12.456C299.159,149.239,301.054,147.08,300.713,146.701L300.713,146.701z"/>
			</g>
		</g>
	</g>
</g>
</svg>
