<?xml version="1.0" encoding="utf-8"?>
<!-- Generator: Adobe Illustrator 14.0.0, SVG Export Plug-In . SVG Version: 6.00 Build 43363)  -->
<!DOCTYPE svg PUBLIC "-//W3C//DTD SVG 1.1//EN" "http://www.w3.org/Graphics/SVG/1.1/DTD/svg11.dtd">
<svg name="8" version="1.1" xmlns="http://www.w3.org/2000/svg" xmlns:xlink="http://www.w3.org/1999/xlink" x="0px" y="0px" width="300px"
	 height="300px" viewBox="0 0 300 300" enable-background="new 0 0 300 300" xml:space="preserve">
<g id="cluster_eight">
	<g id="color_emphasis_7_">
		<path fill="none" stroke="#AC787D" stroke-width="4" d="M156.87,180.163c-2.215,0.478-4.513,0.729-6.87,0.729
			c-17.905,0-32.42-14.515-32.42-32.419c0-2.562,0.297-5.052,0.857-7.441"/>
		<path fill="none" stroke="#B01332" stroke-width="4" d="M175.411,128.34c4.388,5.53,7.008,12.525,7.008,20.134
			c0,15.548-10.944,28.538-25.549,31.689"/>
		<path fill="none" stroke="#232528" stroke-width="4" d="M118.438,141.032c3.363-14.318,16.218-24.979,31.562-24.979
			c10.297,0,19.473,4.801,25.411,12.286"/>
	</g>
	<g id="rhythm_6_" opacity="0.01">
		<g>
			<path fill="#FFFFFF" stroke="#2C2C2C" d="M152.458,147.789C188.47,99.711,224.481,51.629,260.493,3.55
				c1.017-1.359,2.037-2.721,3.055-4.081c-0.289,0.386-2.754,0.512-3.371,1.334c-36.012,48.078-72.022,96.157-108.031,144.238
				c-1.019,1.36-2.035,2.719-3.057,4.076C149.374,148.739,151.844,148.611,152.458,147.789L152.458,147.789z"/>
		</g>
		<g>
			<path fill="#FFFFFF" stroke="#2C2C2C" d="M152.368,149.341c46.091-25.141,92.18-50.282,138.269-75.425
				c1.302-0.71,2.608-1.423,3.912-2.134c-0.37,0.202-2.375-0.593-3.166-0.163c-46.089,25.139-92.176,50.28-138.263,75.424
				c-1.306,0.712-2.607,1.423-3.912,2.127C149.572,148.978,151.581,149.771,152.368,149.341L152.368,149.341z"/>
		</g>
		<g>
			<path fill="#FFFFFF" stroke="#2C2C2C" d="M150.393,152.986c47.703,47.791,95.403,95.583,143.104,143.37
				c1.349,1.352,2.701,2.705,4.048,4.057c-0.385-0.387-0.126-3.147-0.944-3.967c-47.696-47.79-95.395-95.579-143.102-143.364
				c-1.35-1.354-2.699-2.699-4.036-4.069C149.827,149.402,149.576,152.17,150.393,152.986L150.393,152.986z"/>
		</g>
		<g>
			<path fill="#FFFFFF" stroke="#2C2C2C" d="M146.45,150.928c-26.357,48.104-52.719,96.211-79.071,144.318
				c-0.746,1.358-1.489,2.725-2.237,4.081c0.217-0.387,2.43-0.816,2.876-1.644c26.357-48.102,52.719-96.201,79.067-144.312
				c0.746-1.36,1.488-2.722,2.254-4.086C149.116,149.666,146.901,150.104,146.45,150.928L146.45,150.928z"/>
		</g>
		<g>
			<path fill="#FFFFFF" stroke="#2C2C2C" d="M148.452,145.632C107.293,97.926,66.136,50.214,24.971,2.505
				c-1.16-1.35-2.332-2.7-3.489-4.05c0.329,0.387-0.097,2.947,0.613,3.758c41.152,47.709,82.303,95.416,123.473,143.123
				c1.16,1.347,2.327,2.693,3.495,4.051C148.733,149.008,149.156,146.443,148.452,145.632L148.452,145.632z"/>
		</g>
	</g>
	<g id="pattern_balance_4_">
		<g id="pattern_lines_out_7_">
			<g>
				<path fill="#FFFFFF" stroke="#2C2C2C" d="M150.758,146.768c0-47.977,0-95.952,0-143.928c0-1.357,0-2.715,0-4.072
					c0,0.383-1.516,1.646-1.516,2.465c0,47.977,0,95.952,0,143.928c0,1.357,0,2.715,0,4.072
					C149.242,148.85,150.758,147.586,150.758,146.768L150.758,146.768z"/>
			</g>
			<g>
				<path fill="#FFFFFF" stroke="#2C2C2C" d="M151.013,146.944c5.131-47.701,10.261-95.402,15.391-143.103
					c0.146-1.35,0.291-2.699,0.436-4.049c-0.041,0.381-1.683,1.475-1.77,2.288c-5.131,47.702-10.262,95.402-15.392,143.103
					c-0.146,1.35-0.29,2.699-0.436,4.049C149.283,148.853,150.925,147.758,151.013,146.944L151.013,146.944z"/>
			</g>
			<g>
				<path fill="#FFFFFF" stroke="#2C2C2C" d="M151.247,147.147c10.203-46.879,20.404-93.758,30.605-140.636
					c0.289-1.327,0.578-2.653,0.866-3.979c-0.081,0.375-1.831,1.286-2.005,2.086c-10.202,46.88-20.404,93.758-30.605,140.636
					c-0.289,1.326-0.577,2.652-0.866,3.979C149.323,148.86,151.073,147.947,151.247,147.147L151.247,147.147z"/>
			</g>
			<g>
				<path fill="#FFFFFF" stroke="#2C2C2C" d="M151.46,147.375c15.156-45.52,30.312-91.039,45.469-136.558
					c0.428-1.288,0.857-2.575,1.286-3.863c-0.121,0.364-1.958,1.083-2.218,1.86c-15.156,45.519-30.312,91.037-45.469,136.556
					c-0.428,1.288-0.856,2.575-1.286,3.862C149.362,148.872,151.2,148.151,151.46,147.375L151.46,147.375z"/>
			</g>
			<g>
				<path fill="#FFFFFF" stroke="#2C2C2C" d="M151.646,147.623c19.938-43.637,39.875-87.275,59.812-130.912
					c0.563-1.234,1.128-2.469,1.692-3.703c-0.16,0.35-2.062,0.867-2.404,1.612c-19.938,43.637-39.873,87.273-59.811,130.91
					c-0.563,1.235-1.127,2.469-1.692,3.702C149.401,148.888,151.306,148.368,151.646,147.623L151.646,147.623z"/>
			</g>
			<g>
				<path fill="#FFFFFF" stroke="#2C2C2C" d="M151.804,147.89c24.49-41.254,48.979-82.511,73.469-123.765
					c0.691-1.167,1.385-2.334,2.078-3.502c-0.197,0.331-2.144,0.642-2.562,1.347c-24.49,41.255-48.979,82.509-73.467,123.764
					c-0.692,1.168-1.385,2.334-2.079,3.499C149.437,148.907,151.386,148.595,151.804,147.89L151.804,147.89z"/>
			</g>
			<g>
				<path fill="#FFFFFF" stroke="#2C2C2C" d="M152.03,148.467c32.704-35.104,65.406-70.208,98.107-105.312
					c0.924-0.993,1.85-1.986,2.775-2.98c-0.263,0.282-2.231,0.172-2.791,0.772c-32.703,35.103-65.404,70.205-98.104,105.311
					c-0.926,0.993-1.85,1.985-2.776,2.975C149.501,148.957,151.474,149.066,152.03,148.467L152.03,148.467z"/>
			</g>
			<g>
				<path fill="#FFFFFF" stroke="#2C2C2C" d="M152.097,148.771c36.27-31.405,72.539-62.812,108.807-94.217
					c1.023-0.889,2.051-1.777,3.078-2.666c-0.291,0.252-2.236-0.068-2.857,0.469c-36.27,31.404-72.537,62.809-108.803,94.216
					c-1.027,0.889-2.051,1.776-3.079,2.66C149.529,148.987,151.479,149.307,152.097,148.771L152.097,148.771z"/>
			</g>
			<g>
				<path fill="#FFFFFF" stroke="#2C2C2C" d="M152.13,149.079c39.42-27.347,78.84-54.694,118.258-82.042
					c1.113-0.772,2.23-1.547,3.346-2.32c-0.316,0.22-2.216-0.308-2.892,0.16c-39.419,27.346-78.837,54.691-118.253,82.04
					c-1.117,0.774-2.23,1.548-3.347,2.315C149.555,149.021,151.458,149.546,152.13,149.079L152.13,149.079z"/>
			</g>
			<g>
				<path fill="#FFFFFF" stroke="#2C2C2C" d="M152.097,149.697c44.334-18.338,88.668-36.677,133-55.018
					c1.252-0.518,2.508-1.037,3.762-1.556c-0.355,0.147-2.1-0.771-2.86-0.458c-44.331,18.337-88.662,36.676-132.993,55.018
					c-1.256,0.519-2.508,1.038-3.763,1.549C149.593,149.094,151.341,150.012,152.097,149.697L152.097,149.697z"/>
			</g>
			<g>
				<path fill="#FFFFFF" stroke="#2C2C2C" d="M152.031,150.001c46.04-13.492,92.081-26.985,138.12-40.479
					c1.301-0.381,2.605-0.764,3.906-1.145c-0.368,0.108-2.004-0.992-2.795-0.762c-46.037,13.491-92.075,26.984-138.113,40.48
					c-1.304,0.382-2.604,0.764-3.907,1.137C149.605,149.133,151.245,150.232,152.031,150.001L152.031,150.001z"/>
			</g>
			<g>
				<path fill="#FFFFFF" stroke="#2C2C2C" d="M151.934,150.296c47.22-8.492,94.438-16.984,141.657-25.478
					c1.333-0.239,2.672-0.48,4.006-0.721c-0.378,0.069-1.887-1.2-2.698-1.056c-47.215,8.491-94.433,16.982-141.649,25.479
					c-1.338,0.24-2.671,0.481-4.007,0.712C149.614,149.173,151.128,150.442,151.934,150.296L151.934,150.296z"/>
			</g>
			<g>
				<path fill="#FFFFFF" stroke="#2C2C2C" d="M151.804,150.578c47.857-3.394,95.715-6.788,143.57-10.183
					c1.352-0.096,2.708-0.192,4.061-0.288c-0.385,0.028-1.748-1.396-2.57-1.339c-47.853,3.394-95.707,6.787-143.562,10.186
					c-1.356,0.095-2.708,0.193-4.061,0.278C149.618,149.214,150.987,150.638,151.804,150.578L151.804,150.578z"/>
			</g>
			<g>
				<path fill="#FFFFFF" stroke="#2C2C2C" d="M151.646,150.846c47.945,1.742,95.892,3.485,143.836,5.228
					c1.354,0.05,2.713,0.099,4.067,0.148c-0.385-0.013-1.588-1.575-2.412-1.606c-47.941-1.743-95.884-3.486-143.827-5.225
					c-1.359-0.051-2.713-0.098-4.067-0.158C149.618,149.255,150.827,150.816,151.646,150.846L151.646,150.846z"/>
			</g>
			<g>
				<path fill="#FFFFFF" stroke="#2C2C2C" d="M151.46,151.094c47.484,6.86,94.969,13.721,142.452,20.579
					c1.341,0.194,2.687,0.389,4.028,0.582c-0.382-0.054-1.411-1.735-2.227-1.854c-47.48-6.86-94.961-13.72-142.445-20.574
					c-1.346-0.196-2.686-0.388-4.026-0.594C149.614,149.295,150.649,150.978,151.46,151.094L151.46,151.094z"/>
			</g>
			<g>
				<path fill="#FFFFFF" stroke="#2C2C2C" d="M151.248,151.321c46.479,11.898,92.958,23.798,139.435,35.694
					c1.312,0.337,2.63,0.673,3.943,1.009c-0.374-0.094-1.218-1.876-2.016-2.082c-46.475-11.898-92.949-23.795-139.428-35.688
					c-1.316-0.339-2.629-0.673-3.94-1.021C149.605,149.335,150.455,151.118,151.248,151.321L151.248,151.321z"/>
			</g>
			<g>
				<path fill="#FFFFFF" stroke="#2C2C2C" d="M151.015,151.524c44.939,16.8,89.879,33.602,134.816,50.4
					c1.27,0.476,2.543,0.95,3.813,1.425c-0.362-0.134-1.011-1.995-1.782-2.285c-44.936-16.801-89.871-33.599-134.812-50.395
					c-1.272-0.478-2.541-0.95-3.809-1.438C149.593,149.374,150.247,151.237,151.015,151.524L151.015,151.524z"/>
			</g>
			<g>
				<path fill="#FFFFFF" stroke="#2C2C2C" d="M150.76,151.701c42.886,21.509,85.771,43.021,128.653,64.528
					c1.212,0.608,2.427,1.217,3.64,1.825c-0.347-0.173-0.792-2.093-1.528-2.463c-42.881-21.51-85.762-43.018-128.648-64.522
					c-1.215-0.61-2.426-1.216-3.634-1.837C149.575,149.412,150.026,151.334,150.76,151.701L150.76,151.701z"/>
			</g>
			<g>
				<path fill="#FFFFFF" stroke="#2C2C2C" d="M150.487,151.85c40.34,25.973,80.679,51.946,121.016,77.916
					c1.14,0.734,2.283,1.47,3.424,2.204c-0.326-0.209-0.564-2.165-1.256-2.611c-40.336-25.973-80.671-51.943-121.012-77.91
					c-1.143-0.737-2.282-1.468-3.417-2.216C149.554,149.447,149.798,151.406,150.487,151.85L150.487,151.85z"/>
			</g>
			<g>
				<path fill="#FFFFFF" stroke="#2C2C2C" d="M150.2,151.969c37.332,30.138,74.661,60.275,111.99,90.41
					c1.055,0.852,2.113,1.705,3.168,2.558c-0.302-0.243-0.329-2.214-0.969-2.73c-37.327-30.138-74.654-60.272-111.986-90.405
					c-1.058-0.854-2.112-1.702-3.161-2.568C149.528,149.479,149.562,151.454,150.2,151.969L150.2,151.969z"/>
			</g>
			<g>
				<path fill="#FFFFFF" stroke="#2C2C2C" d="M149.598,152.111c30.067,37.386,60.135,74.772,90.202,112.157
					c0.851,1.057,1.703,2.115,2.551,3.173c-0.242-0.303,0.15-2.233-0.365-2.875c-30.064-37.385-60.129-74.77-90.201-112.152
					c-0.85-1.059-1.701-2.111-2.542-3.182C149.47,149.537,149.083,151.472,149.598,152.111L149.598,152.111z"/>
			</g>
			<g>
				<path fill="#FFFFFF" stroke="#2C2C2C" d="M149.288,152.134c25.897,40.387,51.794,80.774,77.691,121.16
					c0.732,1.142,1.467,2.285,2.197,3.427c-0.209-0.327,0.389-2.205-0.057-2.897c-25.895-40.385-51.788-80.771-77.691-121.154
					c-0.73-1.144-1.465-2.282-2.187-3.437C149.437,149.561,148.845,151.442,149.288,152.134L149.288,152.134z"/>
			</g>
			<g>
				<path fill="#FFFFFF" stroke="#2C2C2C" d="M148.978,152.122c21.431,42.925,42.859,85.851,64.29,128.774
					c0.606,1.213,1.214,2.429,1.817,3.642c-0.172-0.347,0.623-2.15,0.254-2.887c-21.428-42.922-42.854-85.846-64.291-128.768
					c-0.603-1.215-1.211-2.426-1.806-3.651C149.4,149.581,148.611,151.388,148.978,152.122L148.978,152.122z"/>
			</g>
			<g>
				<path fill="#FFFFFF" stroke="#2C2C2C" d="M148.671,152.077c16.717,44.971,33.432,89.942,50.15,134.911
					c0.473,1.271,0.947,2.545,1.418,3.815c-0.135-0.363,0.849-2.071,0.561-2.843c-16.715-44.967-33.428-89.936-50.152-134.904
					c-0.47-1.272-0.944-2.542-1.405-3.824C149.362,149.597,148.385,151.309,148.671,152.077L148.671,152.077z"/>
			</g>
			<g>
				<path fill="#FFFFFF" stroke="#2C2C2C" d="M148.37,152.001c11.812,46.5,23.621,93.002,35.436,139.5
					c0.334,1.314,0.67,2.632,1.002,3.945c-0.094-0.376,1.066-1.969,0.862-2.767c-11.811-46.496-23.619-92.994-35.438-139.494
					c-0.332-1.315-0.668-2.628-0.989-3.953C149.323,149.607,148.167,151.205,148.37,152.001L148.37,152.001z"/>
			</g>
			<g>
				<path fill="#FFFFFF" stroke="#2C2C2C" d="M148.079,151.893c6.771,47.496,13.541,94.994,20.314,142.489
					c0.191,1.343,0.385,2.688,0.574,4.03c-0.053-0.384,1.271-1.844,1.153-2.659c-6.771-47.492-13.538-94.986-20.318-142.483
					c-0.189-1.344-0.383-2.685-0.561-4.037C149.283,149.614,147.963,151.08,148.079,151.893L148.079,151.893z"/>
			</g>
			<g>
				<path fill="#FFFFFF" stroke="#2C2C2C" d="M147.802,151.754c1.652,47.947,3.305,95.897,4.961,143.844
					c0.047,1.355,0.096,2.715,0.139,4.069c-0.01-0.388,1.463-1.698,1.432-2.521c-1.653-47.944-3.303-95.89-4.965-143.839
					c-0.045-1.356-0.094-2.71-0.126-4.075C149.242,149.617,147.772,150.934,147.802,151.754L147.802,151.754z"/>
			</g>
			<g>
				<path fill="#FFFFFF" stroke="#2C2C2C" d="M147.541,151.587c-3.485,47.849-6.97,95.7-10.45,143.549
					c-0.099,1.353-0.195,2.709-0.297,4.061c0.031-0.387,1.636-1.532,1.692-2.353c3.483-47.847,6.971-95.693,10.446-143.545
					c0.1-1.354,0.195-2.705,0.31-4.066C149.201,149.615,147.599,150.767,147.541,151.587L147.541,151.587z"/>
			</g>
			<g>
				<path fill="#FFFFFF" stroke="#2C2C2C" d="M147.299,151.393c-8.581,47.201-17.163,94.406-25.74,141.608
					c-0.243,1.334-0.483,2.672-0.729,4.005c0.072-0.381,1.791-1.349,1.934-2.158c8.58-47.199,17.165-94.398,25.736-141.604
					c0.245-1.336,0.484-2.669,0.743-4.011C149.161,149.609,147.444,150.582,147.299,151.393L147.299,151.393z"/>
			</g>
			<g>
				<path fill="#FFFFFF" stroke="#2C2C2C" d="M147.079,151.173c-13.58,46.014-27.16,92.029-40.735,138.044
					c-0.385,1.3-0.767,2.605-1.153,3.904c0.112-0.371,1.925-1.149,2.152-1.939c13.578-46.011,27.162-92.021,40.732-138.04
					c0.386-1.302,0.767-2.602,1.167-3.909C149.122,149.599,147.311,150.383,147.079,151.173L147.079,151.173z"/>
			</g>
			<g>
				<path fill="#FFFFFF" stroke="#2C2C2C" d="M146.884,150.931c-18.422,44.298-36.846,88.598-55.264,132.897
					c-0.521,1.251-1.04,2.508-1.564,3.758c0.152-0.356,2.037-0.938,2.348-1.698c18.422-44.295,36.848-88.589,55.261-132.892
					c0.522-1.254,1.041-2.506,1.578-3.764C149.084,149.584,147.199,150.171,146.884,150.931L146.884,150.931z"/>
			</g>
			<g>
				<path fill="#FFFFFF" stroke="#2C2C2C" d="M146.577,150.392c-27.42,39.367-54.844,78.735-82.26,118.106
					c-0.775,1.111-1.551,2.229-2.328,3.339c0.225-0.315,2.189-0.482,2.655-1.16c27.42-39.365,54.843-78.728,82.257-118.103
					c0.775-1.112,1.549-2.227,2.341-3.342C149.013,149.544,147.046,149.717,146.577,150.392L146.577,150.392z"/>
			</g>
			<g>
				<path fill="#FFFFFF" stroke="#2C2C2C" d="M146.469,150.101c-31.472,36.21-62.948,72.419-94.418,108.633
					c-0.89,1.022-1.78,2.051-2.671,3.071c0.256-0.291,2.229-0.246,2.764-0.87c31.472-36.207,62.947-72.411,94.414-108.629
					c0.89-1.023,1.778-2.048,2.685-3.073C148.981,149.519,147.007,149.48,146.469,150.101L146.469,150.101z"/>
			</g>
			<g>
				<path fill="#FFFFFF" stroke="#2C2C2C" d="M146.393,149.8c-35.164,32.637-70.332,65.272-105.493,97.913
					c-0.994,0.921-1.99,1.849-2.984,2.768c0.285-0.262,2.242-0.006,2.84-0.568c35.164-32.635,70.33-65.265,105.49-97.911
					c0.994-0.922,1.986-1.846,2.997-2.769C148.952,149.49,146.993,149.24,146.393,149.8L146.393,149.8z"/>
			</g>
			<g>
				<path fill="#FFFFFF" stroke="#2C2C2C" d="M146.349,149.492c-38.453,28.689-76.908,57.378-115.359,86.07
					c-1.086,0.811-2.176,1.625-3.263,2.434c0.312-0.23,2.229,0.233,2.884-0.262c38.453-28.688,76.906-57.369,115.356-86.069
					c1.087-0.81,2.172-1.622,3.275-2.433C148.927,149.459,147.005,149,146.349,149.492L146.349,149.492z"/>
			</g>
			<g>
				<path fill="#FFFFFF" stroke="#2C2C2C" d="M146.337,149.182c-41.3,24.413-82.602,48.825-123.9,73.241
					c-1.167,0.689-2.338,1.383-3.505,2.07c0.335-0.195,2.192,0.471,2.896,0.049c41.3-24.412,82.6-48.816,123.898-73.24
					c1.168-0.688,2.334-1.381,3.517-2.069C148.904,149.425,147.042,148.763,146.337,149.182L146.337,149.182z"/>
			</g>
			<g>
				<path fill="#FFFFFF" stroke="#2C2C2C" d="M146.358,148.872c-43.672,19.856-87.349,39.712-131.021,59.572
					c-1.233,0.561-2.472,1.125-3.707,1.684c0.354-0.158,2.131,0.702,2.875,0.357c43.674-19.855,87.346-39.703,131.02-59.571
					c1.235-0.56,2.469-1.123,3.718-1.682C148.886,149.388,147.104,148.53,146.358,148.872L146.358,148.872z"/>
			</g>
			<g>
				<path fill="#FFFFFF" stroke="#2C2C2C" d="M146.413,148.566c-45.544,15.072-91.094,30.144-136.64,45.22
					c-1.286,0.425-2.578,0.854-3.866,1.277c0.369-0.119,2.044,0.927,2.82,0.663c45.547-15.071,91.092-30.135,136.639-45.219
					c1.288-0.425,2.575-0.854,3.876-1.275C148.871,149.35,147.192,148.307,146.413,148.566L146.413,148.566z"/>
			</g>
			<g>
				<path fill="#FFFFFF" stroke="#2C2C2C" d="M146.501,148.268c-46.895,10.116-93.795,20.229-140.691,30.35
					c-1.324,0.284-2.656,0.574-3.98,0.856c0.379-0.079,1.933,1.14,2.732,0.96c46.897-10.113,93.791-20.221,140.691-30.347
					c1.325-0.285,2.651-0.573,3.989-0.854C148.86,149.311,147.304,148.094,146.501,148.268L146.501,148.268z"/>
			</g>
			<g>
				<path fill="#FFFFFF" stroke="#2C2C2C" d="M146.62,147.98c-47.707,5.044-95.42,10.083-143.131,15.131
					c-1.347,0.141-2.701,0.287-4.049,0.426c0.386-0.038,1.801,1.34,2.615,1.246c47.709-5.039,95.414-10.074,143.129-15.128
					c1.348-0.141,2.697-0.285,4.058-0.423C148.854,149.27,147.437,147.894,146.62,147.98L146.62,147.98z"/>
			</g>
			<g>
				<path fill="#FFFFFF" stroke="#2C2C2C" d="M146.77,147.708c-47.974-0.087-95.951-0.179-143.929-0.262
					c-1.354-0.005-2.717-0.004-4.07-0.011c0.387,0.005,1.646,1.526,2.467,1.52c47.974,0.092,95.943,0.187,143.926,0.265
					c1.354,0.005,2.712,0.005,4.079,0.013C148.854,149.229,147.591,147.709,146.77,147.708L146.77,147.708z"/>
			</g>
			<g>
				<path fill="#FFFFFF" stroke="#2C2C2C" d="M146.947,147.453c-47.69-5.217-95.382-10.438-143.075-15.651
					c-1.346-0.149-2.701-0.295-4.047-0.446c0.385,0.047,1.475,1.693,2.291,1.774c47.689,5.223,95.373,10.445,143.072,15.655
					c1.346,0.149,2.695,0.295,4.054,0.447C148.856,149.188,147.764,147.541,146.947,147.453L146.947,147.453z"/>
			</g>
			<g>
				<path fill="#FFFFFF" stroke="#2C2C2C" d="M147.151,147.219c-46.859-10.286-93.719-20.579-140.582-30.861
					c-1.321-0.293-2.653-0.582-3.975-0.877c0.377,0.088,1.284,1.841,2.088,2.01c46.857,10.292,93.709,20.584,140.577,30.864
					c1.321,0.293,2.647,0.581,3.982,0.878C148.864,149.147,147.953,147.393,147.151,147.219L147.151,147.219z"/>
			</g>
			<g>
				<path fill="#FFFFFF" stroke="#2C2C2C" d="M147.38,147.007c-45.491-15.237-90.981-30.482-136.477-45.718
					c-1.282-0.433-2.576-0.861-3.858-1.296c0.366,0.127,1.081,1.968,1.861,2.222c45.488,15.243,90.971,30.486,136.471,45.72
					c1.282,0.433,2.569,0.86,3.865,1.298C148.876,149.108,148.157,147.266,147.38,147.007L147.38,147.007z"/>
			</g>
			<g>
				<path fill="#FFFFFF" stroke="#2C2C2C" d="M147.628,146.821c-43.6-20.015-87.199-40.036-130.804-60.05
					c-1.229-0.567-2.47-1.132-3.698-1.701c0.351,0.165,0.865,2.072,1.613,2.408c43.598,20.02,87.189,40.04,130.799,60.051
					c1.229,0.567,2.463,1.13,3.704,1.703C148.892,149.07,148.374,147.161,147.628,146.821L147.628,146.821z"/>
			</g>
			<g>
				<path fill="#FFFFFF" stroke="#2C2C2C" d="M147.896,146.664C106.687,122.101,65.478,97.532,24.263,72.97
					c-1.161-0.695-2.334-1.389-3.494-2.087c0.33,0.201,0.638,2.153,1.346,2.567c41.207,24.567,82.408,49.134,123.627,73.693
					c1.162,0.695,2.328,1.387,3.501,2.089C148.911,149.034,148.601,147.081,147.896,146.664L147.896,146.664z"/>
			</g>
			<g>
				<path fill="#FFFFFF" stroke="#2C2C2C" d="M148.179,146.536c-38.347-28.83-76.691-57.664-115.044-86.493
					c-1.08-0.816-2.172-1.631-3.251-2.448c0.307,0.234,0.404,2.209,1.064,2.695c38.343,28.834,76.681,57.665,115.037,86.492
					c1.08,0.815,2.166,1.628,3.257,2.45C148.935,149.001,148.835,147.025,148.179,146.536L148.179,146.536z"/>
			</g>
			<g>
				<path fill="#FFFFFF" stroke="#2C2C2C" d="M148.474,146.438c-35.043-32.765-70.086-65.534-105.135-98.3
					c-0.987-0.927-1.985-1.854-2.971-2.781c0.279,0.266,0.166,2.239,0.77,2.794c35.04,32.768,70.075,65.534,105.129,98.298
					c0.986,0.926,1.979,1.85,2.976,2.783C148.962,148.971,149.073,146.995,148.474,146.438L148.474,146.438z"/>
			</g>
			<g>
				<path fill="#FFFFFF" stroke="#2C2C2C" d="M149.086,146.34c-27.274-39.466-54.548-78.938-81.827-118.407
					c-0.769-1.116-1.547-2.234-2.311-3.351c0.216,0.32-0.314,2.224,0.157,2.895c27.27,39.469,54.538,78.937,81.821,118.405
					c0.768,1.114,1.543,2.229,2.315,3.351C149.024,148.919,149.554,147.013,149.086,146.34L149.086,146.34z"/>
			</g>
			<g>
				<path fill="#FFFFFF" stroke="#2C2C2C" d="M149.396,146.34C126.499,104.184,103.603,62.022,80.7,19.862
					c-0.645-1.192-1.299-2.388-1.939-3.579c0.182,0.342-0.55,2.177-0.152,2.895c22.893,42.159,45.784,84.316,68.69,126.477
					c0.644,1.19,1.296,2.381,1.943,3.578C149.06,148.897,149.789,147.059,149.396,146.34L149.396,146.34z"/>
			</g>
			<g>
				<path fill="#FFFFFF" stroke="#2C2C2C" d="M149.704,146.373c-18.257-44.362-36.514-88.729-54.775-133.098
					c-0.514-1.255-1.037-2.514-1.547-3.767c0.145,0.359-0.779,2.105-0.461,2.862c18.254,44.365,36.506,88.729,54.772,133.096
					c0.513,1.253,1.033,2.506,1.549,3.766C149.097,148.88,150.019,147.13,149.704,146.373L149.704,146.373z"/>
			</g>
			<g>
				<path fill="#FFFFFF" stroke="#2C2C2C" d="M150.008,146.439C136.6,100.38,123.192,54.314,109.778,8.248
					c-0.376-1.303-0.762-2.61-1.135-3.911c0.105,0.373-1,2.011-0.764,2.797c13.404,46.063,26.809,92.123,40.225,138.19
					c0.376,1.3,0.76,2.602,1.138,3.908C149.136,148.867,150.239,147.226,150.008,146.439L150.008,146.439z"/>
			</g>
			<g>
				<path fill="#FFFFFF" stroke="#2C2C2C" d="M150.303,146.538c-8.405-47.229-16.811-94.464-25.222-141.701
					c-0.234-1.335-0.479-2.677-0.709-4.01c0.064,0.382-1.209,1.892-1.059,2.699c8.4,47.232,16.803,94.462,25.216,141.699
					c0.235,1.333,0.477,2.668,0.713,4.007C149.176,148.859,150.448,147.344,150.303,146.538L150.303,146.538z"/>
			</g>
			<g>
				<path fill="#FFFFFF" stroke="#2C2C2C" d="M150.585,146.667c-3.307-47.856-6.612-95.719-9.924-143.585
					c-0.09-1.353-0.189-2.713-0.276-4.062c0.023,0.387-1.405,1.752-1.341,2.57c3.301,47.86,6.605,95.717,9.918,143.583
					c0.092,1.351,0.189,2.703,0.28,4.06C149.217,148.855,150.644,147.484,150.585,146.667L150.585,146.667z"/>
			</g>
		</g>
		<g id="pattern_radial_7_">
			<polygon fill="none" stroke="#2C2C2C" stroke-width="1.466" points="43.228,100.561 49.38,89.706 58.647,81.12 65.142,72.82 
				77.575,64.676 85.915,57.595 96.37,51.888 107.095,46.819 118.438,43.413 129.832,40.175 143.019,37.162 150.587,37.162 
				160.972,40.175 172.888,40.578 183.829,45.357 195.796,50.5 206.612,52.589 217.639,57.595 224.396,68.562 232.672,79 
				241.747,86.907 243.954,110.058 250.367,121.182 256.209,130 256.866,141.605 256.866,154.67 256.866,164.788 252.913,177.348 
				251.681,187.537 245.965,197.755 236.646,205.519 229.696,216.146 215.438,231.97 206.318,233.459 194.196,242.696 
				185.249,250.48 175.411,254.277 165.98,260.76 153.114,261.805 141.114,260.76 128.943,258.5 117.58,256.494 105.19,255.143 
				92.854,250.48 84.087,242.766 75.536,230.685 69.487,221.177 61.989,210.567 54.013,205.519 49.38,195.904 44.087,186.862 
				35.88,174.982 38.333,158.123 34.587,149.013 34.587,138.767 34.587,126.696 37.915,111.936 			"/>
			<polygon fill="none" stroke="#2C2C2C" points="14.739,87.479 22.114,73.45 29.884,57.595 41.138,48.151 65.105,27.477 
				78.761,16.283 93.382,9.509 109.778,8.248 123.313,3.526 140.385,-0.98 150,0 165.069,2.081 182.719,2.532 195.997,8.814 
				213.149,13.008 227.351,20.623 252.913,37.162 263.981,51.888 273.733,64.717 288.858,93.124 294.058,108.377 297.597,124.098 
				299.435,140.107 297.137,154.615 297.597,168.629 292.61,185.942 287.862,201.064 283.053,218.055 273.671,229.358 
				264.39,242.206 241.985,264.566 229.12,273.823 219.05,281.5 200.8,287.961 183.806,291.501 172.113,294.397 154.516,295.446 
				137.091,295.136 122.763,294.848 106.344,289.217 94.806,284.538 64.645,270.677 52.051,258.733 42.446,246.277 30.61,237.734 
				21.827,224.542 14.505,210.485 7.045,197.084 1.829,179.474 3.489,163.111 2.841,147.446 3.872,131.802 6.569,116.357 
				10.903,101.289 			"/>
		</g>
	</g>
	<g id="contrast_7_">
		<polygon fill="#2C2C2C" fill-opacity="0.01" points="250.367,121.182 256.866,131.355 256.866,143.127 256.866,154.67 
			256.866,164.788 253.616,176.291 251.681,187.537 245.965,197.755 236.646,205.519 231.298,215.489 215.438,231.97 
			203.038,235.958 194.196,242.696 186.473,249.416 175.411,254.277 165.98,260.76 151.56,260.76 141.114,260.76 128.943,258.5 
			117.58,256.494 105.19,255.143 92.854,250.48 84.087,242.766 76.445,231.97 69.487,221.177 62.852,211.788 54.699,205.112 
			48.039,193.614 41.863,183.644 36.075,173.639 38.141,159.446 33.587,148.791 33.587,135.051 35.487,122.703 37.915,111.936 
			43.979,99.236 49.38,89.706 58.647,81.12 67.173,71.489 87.254,56.864 97.743,51.238 107.095,46.819 118.438,43.413 
			131.312,39.837 143.019,37.162 150.587,37.162 160.972,40.175 172.62,41.812 183.829,45.357 195.796,50.5 208.002,53.22 
			217.639,57.595 225.35,69.765 232.672,79 241.747,86.907 244.198,110.48 		"/>
	</g>
	<g id="movement_7_">
		<line display="none" fill="none" stroke="#2C2C2C" stroke-width="2" x1="150" y1="148" x2="297.545" y2="148"/>
		<line display="none" fill="none" stroke="#2C2C2C" stroke-width="2" x1="150" y1="148" x2="290.863" y2="104.103"/>
		<g>
			<path fill="#2C2C2C" stroke="#2C2C2C" d="M298.295,146.701c-9.893-6.285-19.785-12.57-29.679-18.855
				c-5.453-3.465-10.906-6.93-16.359-10.395c-2.173-1.381-2.19-1.702-4.514-0.965c-26.244,8.329-52.487,16.658-78.731,24.988
				c-5.268,1.672-10.536,3.344-15.804,5.016c-0.815,0.259-0.976,2.432-1.5,2.598c23.456-7.444,46.913-14.889,70.369-22.334
				c8.704-2.763,17.409-5.525,26.113-8.288c1.275-0.404,7.357,4.627,8.436,5.312c6.549,4.16,13.097,8.321,19.646,12.481
				c6.841,4.347,13.683,8.692,20.523,13.039C296.951,149.398,298.52,146.844,298.295,146.701L298.295,146.701z"/>
		</g>
	</g>
</g>
</svg>
