<?xml version="1.0" encoding="utf-8"?>
<!-- Generator: Adobe Illustrator 14.0.0, SVG Export Plug-In . SVG Version: 6.00 Build 43363)  -->
<!DOCTYPE svg PUBLIC "-//W3C//DTD SVG 1.1//EN" "http://www.w3.org/Graphics/SVG/1.1/DTD/svg11.dtd">
<svg name="9" version="1.1" xmlns="http://www.w3.org/2000/svg" xmlns:xlink="http://www.w3.org/1999/xlink" x="0px" y="0px" width="300px"
	 height="300px" viewBox="0 0 300 300" enable-background="new 0 0 300 300" xml:space="preserve">
<g id="cluster_nine">
	<g id="color_emphasis_6_">
		<path fill="none" stroke="#EDEEE8" stroke-width="4" d="M168.814,242.627c-6.612,1.427-13.477,2.178-20.516,2.178
			c-53.464,0-96.805-43.34-96.805-96.805c0-7.646,0.887-15.085,2.562-22.22"/>
		<path fill="none" stroke="#B42E37" stroke-width="4" d="M224.178,87.881c13.102,16.513,20.926,37.402,20.926,60.119
			c0,46.426-32.679,85.216-76.289,94.627"/>
		<path fill="none" stroke="#C3C5C7" stroke-width="4" d="M54.056,125.78c10.042-42.754,48.426-74.585,94.243-74.585
			c30.747,0,58.146,14.335,75.879,36.686"/>
	</g>
	<g id="rhythm_7_" opacity="0.41">
		<g>
			<path fill="#FFFFFF" stroke="#2C2C2C" d="M152.004,147.551C178.033,99.715,204.064,51.885,230.09,4.05
				c0.738-1.351,1.473-2.705,2.214-4.06c-0.21,0.385-2.408,0.818-2.854,1.636c-26.027,47.835-52.056,95.666-78.085,143.5
				c-0.738,1.353-1.474,2.705-2.213,4.058C149.366,148.801,151.562,148.365,152.004,147.551L152.004,147.551z"/>
		</g>
		<g>
			<path fill="#FFFFFF" stroke="#2C2C2C" d="M152.828,148.564c48.202-39.37,96.404-78.734,144.608-118.104
				c1.358-1.109,2.726-2.225,4.093-3.339c-0.39,0.316-2.902-0.175-3.728,0.496c-48.201,39.374-96.402,78.735-144.602,118.105
				c-1.37,1.11-2.73,2.225-4.102,3.335C149.498,148.744,152.013,149.238,152.828,148.564L152.828,148.564z"/>
		</g>
		<g>
			<path fill="#FFFFFF" stroke="#2C2C2C" d="M151.172,151.681c48.357,18.598,96.719,37.208,145.087,55.809
				c1.362,0.523,2.732,1.052,4.106,1.576c-0.393-0.148-1.075-2.169-1.902-2.486c-48.365-18.6-96.721-37.208-145.085-55.811
				c-1.369-0.528-2.738-1.056-4.114-1.594C149.655,149.342,150.342,151.365,151.172,151.681L151.172,151.681z"/>
		</g>
		<g>
			<path fill="#FFFFFF" stroke="#2C2C2C" d="M150.013,152.863c40.852,47.99,81.707,95.991,122.567,143.989
				c1.156,1.352,2.311,2.712,3.475,4.075c-0.336-0.393,0.112-2.946-0.587-3.767c-40.859-47.992-81.703-95.99-122.571-143.985
				c-1.153-1.361-2.312-2.721-3.472-4.099C149.754,149.484,149.309,152.041,150.013,152.863L150.013,152.863z"/>
		</g>
		<g>
			<path fill="#FFFFFF" stroke="#2C2C2C" d="M146.702,151.126c-20.691,48.631-41.38,97.264-62.072,145.897
				c-0.578,1.375-1.167,2.75-1.752,4.137c0.165-0.4,2.254-1.021,2.607-1.854c20.68-48.633,41.378-97.258,62.06-145.898
				c0.592-1.372,1.177-2.749,1.769-4.146C149.14,149.666,147.053,150.292,146.702,151.126L146.702,151.126z"/>
		</g>
		<g>
			<path fill="#FFFFFF" stroke="#2C2C2C" d="M145.858,150.647c-39.148,48.5-78.295,96.999-117.444,145.499
				c-1.101,1.376-2.211,2.744-3.321,4.13c0.316-0.402,2.885-0.435,3.557-1.264c39.134-48.503,78.289-96.993,117.43-145.505
				c1.113-1.365,2.221-2.738,3.34-4.133C149.093,149.775,146.523,149.815,145.858,150.647L145.858,150.647z"/>
		</g>
		<g>
			<path fill="#FFFFFF" stroke="#2C2C2C" d="M146.089,149.333c-44.65,27.96-89.3,55.92-133.951,83.88
				c-1.26,0.794-2.523,1.581-3.794,2.382c0.363-0.233,2.427,0.449,3.192-0.028c44.639-27.966,89.292-55.918,133.939-83.888
				c1.267-0.784,2.532-1.579,3.806-2.384C148.917,149.523,146.851,148.85,146.089,149.333L146.089,149.333z"/>
		</g>
		<g>
			<path fill="#FFFFFF" stroke="#2C2C2C" d="M147.634,146.337C99.942,117.223,52.25,88.116,4.553,59.005
				c-1.348-0.817-2.693-1.643-4.058-2.467c0.391,0.233,0.728,2.513,1.54,3.012c47.692,29.096,95.385,58.214,143.079,87.313
				c1.344,0.834,2.702,1.657,4.063,2.475C148.8,149.117,148.455,146.826,147.634,146.337L147.634,146.337z"/>
		</g>
		<g>
			<path fill="#FFFFFF" stroke="#2C2C2C" d="M148.794,145.783C113.779,98.276,78.764,50.773,43.743,3.265
				c-0.988-1.338-1.979-2.68-2.982-4.032c0.291,0.385-0.292,2.748,0.304,3.56C76.086,50.284,111.102,97.8,146.122,145.296
				c0.978,1.352,1.981,2.698,2.98,4.04C148.825,148.971,149.402,146.59,148.794,145.783L148.794,145.783z"/>
		</g>
	</g>
	<g id="pattern_balance_5_">
		<g id="pattern_lines_out_8_">
			<g>
				<path fill="#FFFFFF" stroke="#2C2C2C" d="M150.758,146.768c0-47.977,0-95.952,0-143.928c0-1.357,0-2.715,0-4.072
					c0,0.383-1.516,1.646-1.516,2.465c0,47.977,0,95.952,0,143.928c0,1.357,0,2.715,0,4.072
					C149.242,148.85,150.758,147.586,150.758,146.768L150.758,146.768z"/>
			</g>
			<g>
				<path fill="#FFFFFF" stroke="#2C2C2C" d="M150.893,146.855c2.655-47.903,5.311-95.806,7.966-143.707
					c0.075-1.355,0.15-2.711,0.226-4.066c-0.021,0.382-1.605,1.56-1.65,2.377c-2.655,47.903-5.311,95.806-7.966,143.707
					c-0.075,1.355-0.15,2.711-0.226,4.066C149.264,148.85,150.848,147.672,150.893,146.855L150.893,146.855z"/>
			</g>
			<g>
				<path fill="#FFFFFF" stroke="#2C2C2C" d="M151.021,146.951c5.303-47.684,10.605-95.365,15.907-143.047
					c0.15-1.349,0.301-2.698,0.451-4.048c-0.043,0.381-1.69,1.469-1.78,2.283c-5.303,47.683-10.604,95.364-15.906,143.045
					c-0.15,1.35-0.301,2.699-0.451,4.048C149.285,148.852,150.933,147.763,151.021,146.951L151.021,146.951z"/>
			</g>
			<g>
				<path fill="#FFFFFF" stroke="#2C2C2C" d="M151.146,147.053c7.934-47.316,15.867-94.632,23.799-141.946
					c0.226-1.339,0.45-2.678,0.676-4.018c-0.064,0.379-1.77,1.373-1.905,2.182c-7.933,47.316-15.864,94.631-23.798,141.945
					c-0.225,1.339-0.449,2.679-0.675,4.017C149.307,148.854,151.012,147.858,151.146,147.053L151.146,147.053z"/>
			</g>
			<g>
				<path fill="#FFFFFF" stroke="#2C2C2C" d="M151.264,147.161c10.54-46.804,21.08-93.608,31.618-140.411
					c0.299-1.324,0.598-2.649,0.897-3.975c-0.085,0.376-1.844,1.273-2.023,2.073c-10.539,46.806-21.077,93.607-31.617,140.411
					c-0.299,1.324-0.597,2.649-0.896,3.973C149.328,148.858,151.085,147.959,151.264,147.161L151.264,147.161z"/>
			</g>
			<g>
				<path fill="#FFFFFF" stroke="#2C2C2C" d="M151.376,147.276c13.113-46.148,26.229-92.298,39.34-138.446
					c0.372-1.305,0.743-2.611,1.116-3.918c-0.105,0.37-1.911,1.169-2.135,1.957c-13.113,46.151-26.226,92.298-39.339,138.446
					c-0.373,1.306-0.743,2.612-1.116,3.917C149.35,148.863,151.153,148.063,151.376,147.276L151.376,147.276z"/>
			</g>
			<g>
				<path fill="#FFFFFF" stroke="#2C2C2C" d="M151.481,147.397c15.647-45.353,31.297-90.704,46.941-136.057
					c0.443-1.282,0.887-2.566,1.331-3.851c-0.126,0.364-1.973,1.062-2.239,1.836c-15.647,45.355-31.293,90.705-46.941,136.058
					c-0.444,1.282-0.887,2.566-1.331,3.849C149.37,148.869,151.216,148.172,151.481,147.397L151.481,147.397z"/>
			</g>
			<g>
				<path fill="#FFFFFF" stroke="#2C2C2C" d="M151.58,147.524c18.134-44.417,36.269-88.833,54.399-133.251
					c0.514-1.255,1.026-2.513,1.542-3.771c-0.146,0.357-2.028,0.952-2.338,1.709c-18.133,44.42-36.265,88.835-54.399,133.252
					c-0.514,1.256-1.027,2.513-1.542,3.769C149.391,148.877,151.272,148.282,151.58,147.524L151.58,147.524z"/>
			</g>
			<g>
				<path fill="#FFFFFF" stroke="#2C2C2C" d="M151.671,147.657c20.564-43.347,41.13-86.69,61.691-130.036
					c0.582-1.225,1.163-2.452,1.748-3.68c-0.165,0.349-2.077,0.838-2.429,1.577c-20.563,43.348-41.126,86.69-61.69,130.037
					c-0.583,1.226-1.165,2.451-1.749,3.677C149.411,148.886,151.322,148.396,151.671,147.657L151.671,147.657z"/>
			</g>
			<g>
				<path fill="#FFFFFF" stroke="#2C2C2C" d="M151.831,147.936c25.229-40.81,50.459-81.614,75.685-122.422
					c0.715-1.153,1.428-2.309,2.145-3.464c-0.203,0.329-2.158,0.604-2.589,1.3c-25.228,40.81-50.455,81.614-75.684,122.422
					c-0.716,1.154-1.429,2.308-2.146,3.461C149.45,148.906,151.403,148.631,151.831,147.936L151.831,147.936z"/>
			</g>
			<g>
				<path fill="#FFFFFF" stroke="#2C2C2C" d="M151.899,148.081c27.448-39.351,54.898-78.696,82.344-118.046
					c0.777-1.111,1.554-2.226,2.333-3.34c-0.222,0.317-2.188,0.482-2.657,1.154c-27.446,39.351-54.895,78.697-82.342,118.046
					c-0.779,1.112-1.555,2.226-2.335,3.337C149.469,148.918,151.435,148.752,151.899,148.081L151.899,148.081z"/>
			</g>
			<g>
				<path fill="#FFFFFF" stroke="#2C2C2C" d="M151.96,148.23c29.584-37.772,59.17-75.538,88.751-113.309
					c0.837-1.065,1.674-2.136,2.514-3.205c-0.239,0.305-2.212,0.36-2.718,1.005c-29.582,37.772-59.166,75.539-88.748,113.309
					c-0.84,1.066-1.676,2.137-2.517,3.202C149.486,148.931,151.459,148.875,151.96,148.23L151.96,148.23z"/>
			</g>
			<g>
				<path fill="#FFFFFF" stroke="#2C2C2C" d="M152.012,148.382c31.629-36.076,63.26-72.146,94.887-108.223
					c0.894-1.018,1.789-2.039,2.687-3.062c-0.256,0.292-2.229,0.238-2.77,0.854c-31.627,36.077-63.256,72.148-94.883,108.224
					c-0.898,1.018-1.791,2.041-2.69,3.058C149.503,148.944,151.477,148.998,152.012,148.382L152.012,148.382z"/>
			</g>
			<g>
				<path fill="#FFFFFF" stroke="#2C2C2C" d="M152.056,148.536c33.576-34.27,67.154-68.535,100.73-102.805
					c0.947-0.967,1.898-1.938,2.852-2.908c-0.271,0.276-2.238,0.114-2.812,0.698c-33.575,34.272-67.152,68.537-100.727,102.808
					c-0.954,0.966-1.901,1.938-2.856,2.903C149.52,148.959,151.487,149.122,152.056,148.536L152.056,148.536z"/>
			</g>
			<g>
				<path fill="#FFFFFF" stroke="#2C2C2C" d="M152.091,148.693c35.421-32.358,70.844-64.714,106.266-97.073
					c0.999-0.912,2.003-1.829,3.008-2.745c-0.286,0.261-2.241-0.01-2.848,0.542c-35.42,32.361-70.842,64.715-106.261,97.074
					c-1.007,0.912-2.006,1.829-3.014,2.741C149.535,148.975,151.491,149.247,152.091,148.693L152.091,148.693z"/>
			</g>
			<g>
				<path fill="#FFFFFF" stroke="#2C2C2C" d="M152.135,149.012c38.779-28.246,77.561-56.487,116.343-84.734
					c1.093-0.796,2.192-1.596,3.292-2.396c-0.312,0.228-2.227-0.258-2.89,0.224c-38.78,28.249-77.56,56.489-116.339,84.735
					c-1.101,0.797-2.196,1.596-3.299,2.392C149.563,149.009,151.478,149.497,152.135,149.012L152.135,149.012z"/>
			</g>
			<g>
				<path fill="#FFFFFF" stroke="#2C2C2C" d="M152.144,149.172c40.283-26.056,80.567-52.107,120.854-78.165
					c1.135-0.734,2.276-1.472,3.42-2.21c-0.325,0.211-2.21-0.381-2.898,0.063c-40.284,26.06-80.566,52.11-120.85,78.167
					c-1.143,0.734-2.281,1.472-3.427,2.205C149.576,149.027,151.46,149.62,152.144,149.172L152.144,149.172z"/>
			</g>
			<g>
				<path fill="#FFFFFF" stroke="#2C2C2C" d="M152.144,149.333c41.662-23.786,83.327-47.568,124.994-71.356
					c1.173-0.671,2.354-1.344,3.536-2.018c-0.336,0.192-2.186-0.503-2.897-0.098c-41.665,23.79-83.327,47.571-124.99,71.359
					c-1.182,0.67-2.359,1.343-3.544,2.012C149.588,149.046,151.436,149.742,152.144,149.333L152.144,149.333z"/>
			</g>
			<g>
				<path fill="#FFFFFF" stroke="#2C2C2C" d="M152.135,149.494c42.914-21.444,85.831-42.885,128.751-64.33
					c1.208-0.604,2.425-1.211,3.643-1.818c-0.347,0.174-2.155-0.623-2.889-0.258c-42.917,21.447-85.831,42.886-128.748,64.332
					c-1.217,0.604-2.43,1.21-3.649,1.812C149.599,149.065,151.405,149.863,152.135,149.494L152.135,149.494z"/>
			</g>
			<g>
				<path fill="#FFFFFF" stroke="#2C2C2C" d="M152.117,149.653c44.034-19.036,88.072-38.068,132.112-57.105
					c1.241-0.537,2.489-1.075,3.738-1.614c-0.355,0.155-2.117-0.741-2.87-0.416c-44.038,19.038-88.072,38.068-132.111,57.107
					c-1.248,0.535-2.492,1.073-3.744,1.607C149.607,149.086,151.368,149.982,152.117,149.653L152.117,149.653z"/>
			</g>
			<g>
				<path fill="#FFFFFF" stroke="#2C2C2C" d="M152.091,149.812c45.019-16.569,90.043-33.136,135.069-49.706
					c1.269-0.467,2.545-0.937,3.821-1.405c-0.362,0.136-2.072-0.857-2.842-0.573c-45.024,16.571-90.045,33.135-135.07,49.707
					c-1.275,0.467-2.547,0.935-3.827,1.398C149.615,149.106,151.324,150.1,152.091,149.812L152.091,149.812z"/>
			</g>
			<g>
				<path fill="#FFFFFF" stroke="#2C2C2C" d="M152.056,149.969c45.866-14.053,91.737-28.102,137.613-42.155
					c1.292-0.396,2.593-0.794,3.893-1.191c-0.37,0.115-2.021-0.971-2.806-0.729c-45.872,14.054-91.741,28.101-137.614,42.155
					c-1.3,0.396-2.595,0.793-3.899,1.185C149.622,149.127,151.273,150.213,152.056,149.969L152.056,149.969z"/>
			</g>
			<g>
				<path fill="#FFFFFF" stroke="#2C2C2C" d="M152.012,150.124c46.573-11.493,93.151-22.981,139.735-34.475
					c1.312-0.324,2.633-0.649,3.952-0.975c-0.376,0.095-1.965-1.081-2.761-0.884c-46.58,11.494-93.156,22.98-139.736,34.475
					c-1.32,0.323-2.635,0.647-3.96,0.967C149.627,149.148,151.217,150.323,152.012,150.124L152.012,150.124z"/>
			</g>
			<g>
				<path fill="#FFFFFF" stroke="#2C2C2C" d="M151.959,150.275c47.138-8.897,94.28-17.79,141.429-26.688
					c1.327-0.251,2.664-0.502,4-0.755c-0.381,0.074-1.902-1.188-2.707-1.035c-47.145,8.898-94.285,17.79-141.431,26.688
					c-1.336,0.25-2.667,0.5-4.008,0.746C149.631,149.17,151.154,150.431,151.959,150.275L151.959,150.275z"/>
			</g>
			<g>
				<path fill="#FFFFFF" stroke="#2C2C2C" d="M151.897,150.424c47.559-6.274,95.121-12.545,142.689-18.819
					c1.339-0.177,2.688-0.354,4.036-0.532c-0.386,0.053-1.834-1.291-2.646-1.183c-47.564,6.275-95.125,12.544-142.69,18.819
					c-1.348,0.177-2.691,0.352-4.044,0.523C149.634,149.191,151.085,150.535,151.897,150.424L151.897,150.424z"/>
			</g>
			<g>
				<path fill="#FFFFFF" stroke="#2C2C2C" d="M151.828,150.569c47.832-3.633,95.67-7.261,143.512-10.894
					c1.347-0.103,2.703-0.204,4.061-0.309c-0.389,0.031-1.761-1.391-2.577-1.327c-47.84,3.634-95.674,7.261-143.514,10.894
					c-1.355,0.102-2.707,0.202-4.067,0.299C149.636,149.213,151.011,150.636,151.828,150.569L151.828,150.569z"/>
			</g>
			<g>
				<path fill="#FFFFFF" stroke="#2C2C2C" d="M151.751,150.711c47.96-0.98,95.925-1.955,143.895-2.935
					c1.351-0.028,2.711-0.055,4.07-0.084c-0.389,0.01-1.681-1.486-2.499-1.468c-47.967,0.981-95.929,1.955-143.896,2.935
					c-1.358,0.026-2.714,0.052-4.078,0.073C149.636,149.235,150.931,150.732,151.751,150.711L151.751,150.711z"/>
			</g>
			<g>
				<path fill="#FFFFFF" stroke="#2C2C2C" d="M151.666,150.848c47.94,1.676,95.886,3.357,143.836,5.033
					c1.351,0.047,2.71,0.096,4.069,0.142c-0.389-0.012-1.596-1.576-2.414-1.604c-47.948-1.675-95.891-3.357-143.838-5.034
					c-1.358-0.049-2.713-0.098-4.077-0.152C149.635,149.258,150.845,150.823,151.666,150.848L151.666,150.848z"/>
			</g>
			<g>
				<path fill="#FFFFFF" stroke="#2C2C2C" d="M151.573,150.979c47.774,4.327,95.554,8.659,143.338,12.985
					c1.345,0.122,2.699,0.246,4.055,0.367c-0.388-0.033-1.506-1.662-2.322-1.734c-47.782-4.326-95.558-8.659-143.338-12.987
					c-1.354-0.124-2.704-0.247-4.063-0.378C149.633,149.28,150.755,150.909,151.573,150.979L151.573,150.979z"/>
			</g>
			<g>
				<path fill="#FFFFFF" stroke="#2C2C2C" d="M151.473,151.105c47.462,6.965,94.929,13.936,142.399,20.899
					c1.337,0.196,2.683,0.395,4.029,0.59c-0.385-0.054-1.412-1.742-2.223-1.859c-47.47-6.964-94.932-13.936-142.399-20.9
					c-1.345-0.199-2.687-0.396-4.037-0.603C149.63,149.302,150.66,150.99,151.473,151.105L151.473,151.105z"/>
			</g>
			<g>
				<path fill="#FFFFFF" stroke="#2C2C2C" d="M151.366,151.227c47.004,9.58,94.012,19.168,141.024,28.748
					c1.324,0.271,2.656,0.542,3.99,0.812c-0.382-0.075-1.313-1.817-2.116-1.979c-47.012-9.58-94.015-19.168-141.024-28.749
					c-1.331-0.273-2.66-0.544-3.998-0.825C149.625,149.323,150.562,151.066,151.366,151.227L151.366,151.227z"/>
			</g>
			<g>
				<path fill="#FFFFFF" stroke="#2C2C2C" d="M151.253,151.342c46.401,12.166,92.807,24.342,139.217,36.509
					c1.308,0.343,2.622,0.688,3.939,1.03c-0.377-0.097-1.211-1.887-2.004-2.094c-46.409-12.167-92.809-24.341-139.216-36.509
					c-1.314-0.348-2.627-0.691-3.947-1.046C149.619,149.345,150.458,151.137,151.253,151.342L151.253,151.342z"/>
			</g>
			<g>
				<path fill="#FFFFFF" stroke="#2C2C2C" d="M151.134,151.45c45.656,14.715,91.316,29.44,136.982,44.157
					c1.286,0.415,2.58,0.832,3.876,1.247c-0.37-0.117-1.104-1.95-1.885-2.201c-45.664-14.717-91.318-29.44-136.981-44.158
					c-1.293-0.419-2.585-0.836-3.884-1.263C149.612,149.366,150.351,151.201,151.134,151.45L151.134,151.45z"/>
			</g>
			<g>
				<path fill="#FFFFFF" stroke="#2C2C2C" d="M150.878,151.646c43.75,19.671,87.504,39.353,131.263,59.026
					c1.232,0.554,2.472,1.113,3.715,1.668c-0.354-0.158-0.882-2.061-1.631-2.396c-43.757-19.673-87.504-39.353-131.261-59.026
					c-1.238-0.56-2.478-1.117-3.722-1.685C149.596,149.407,150.126,151.312,150.878,151.646L150.878,151.646z"/>
			</g>
			<g>
				<path fill="#FFFFFF" stroke="#2C2C2C" d="M150.742,151.732c42.595,22.062,85.191,44.135,127.794,66.2
					c1.201,0.622,2.407,1.249,3.618,1.872c-0.346-0.179-0.767-2.107-1.496-2.483c-42.601-22.065-85.191-44.136-127.793-66.201
					c-1.205-0.627-2.412-1.252-3.623-1.888C149.587,149.427,150.011,151.358,150.742,151.732L150.742,151.732z"/>
			</g>
			<g>
				<path fill="#FFFFFF" stroke="#2C2C2C" d="M150.603,151.812c41.308,24.385,82.617,48.782,123.934,73.172
					c1.165,0.688,2.334,1.38,3.509,2.069c-0.335-0.198-0.648-2.147-1.355-2.562c-41.314-24.389-82.618-48.783-123.935-73.172
					c-1.168-0.693-2.339-1.384-3.513-2.086C149.576,149.446,149.893,151.397,150.603,151.812L150.603,151.812z"/>
			</g>
			<g>
				<path fill="#FFFFFF" stroke="#2C2C2C" d="M150.458,151.883c39.895,26.634,79.791,53.279,119.693,79.919
					c1.126,0.751,2.255,1.507,3.39,2.261c-0.324-0.217-0.528-2.181-1.212-2.634c-39.9-26.638-79.791-53.281-119.694-79.919
					c-1.129-0.757-2.259-1.511-3.393-2.277C149.564,149.464,149.772,151.43,150.458,151.883L150.458,151.883z"/>
			</g>
			<g>
				<path fill="#FFFFFF" stroke="#2C2C2C" d="M150.31,151.946c38.36,28.801,76.721,57.613,115.087,86.421
					c1.083,0.812,2.169,1.629,3.26,2.445c-0.312-0.235-0.407-2.207-1.064-2.697c-38.364-28.805-76.72-57.616-115.088-86.421
					c-1.085-0.818-2.172-1.633-3.262-2.462C149.552,149.481,149.65,151.455,150.31,151.946L150.31,151.946z"/>
			</g>
			<g>
				<path fill="#FFFFFF" stroke="#2C2C2C" d="M150.158,152.002c36.707,30.879,73.415,61.771,110.128,92.657
					c1.036,0.87,2.075,1.746,3.119,2.622c-0.299-0.253-0.285-2.226-0.914-2.753c-36.71-30.883-73.413-61.772-110.128-92.657
					c-1.038-0.877-2.079-1.75-3.121-2.639C149.538,149.498,149.526,151.474,150.158,152.002L150.158,152.002z"/>
			</g>
			<g>
				<path fill="#FFFFFF" stroke="#2C2C2C" d="M150.004,152.048c34.941,32.864,69.884,65.74,104.831,98.61
					c0.986,0.927,1.976,1.858,2.97,2.791c-0.285-0.27-0.162-2.238-0.761-2.8c-34.944-32.866-69.881-65.74-104.831-98.609
					c-0.987-0.934-1.979-1.863-2.971-2.808C149.523,149.514,149.402,151.485,150.004,152.048L150.004,152.048z"/>
			</g>
			<g>
				<path fill="#FFFFFF" stroke="#2C2C2C" d="M149.848,152.085c33.068,34.749,66.138,69.508,99.212,104.263
					c0.935,0.979,1.87,1.964,2.812,2.95c-0.271-0.284-0.038-2.243-0.604-2.837c-33.072-34.751-66.135-69.508-99.214-104.261
					c-0.934-0.986-1.872-1.97-2.811-2.968C149.508,149.528,149.278,151.49,149.848,152.085L149.848,152.085z"/>
			</g>
			<g>
				<path fill="#FFFFFF" stroke="#2C2C2C" d="M149.529,152.135c29.025,38.191,58.052,76.392,87.081,114.589
					c0.822,1.075,1.642,2.158,2.469,3.242c-0.238-0.312,0.21-2.233-0.287-2.886c-29.029-38.193-58.048-76.391-87.083-114.587
					c-0.82-1.083-1.643-2.165-2.467-3.261C149.476,149.555,149.029,151.479,149.529,152.135L149.529,152.135z"/>
			</g>
			<g>
				<path fill="#FFFFFF" stroke="#2C2C2C" d="M149.369,152.146c26.867,39.739,53.734,79.486,80.605,119.232
					c0.762,1.119,1.52,2.246,2.285,3.374c-0.221-0.324,0.334-2.219-0.126-2.897c-26.872-39.741-53.731-79.485-80.608-119.23
					c-0.76-1.127-1.521-2.253-2.283-3.393C149.458,149.567,148.905,151.464,149.369,152.146L149.369,152.146z"/>
			</g>
			<g>
				<path fill="#FFFFFF" stroke="#2C2C2C" d="M149.208,152.148c24.627,41.166,49.254,82.34,73.883,123.512
					c0.699,1.159,1.394,2.327,2.096,3.495c-0.203-0.336,0.456-2.197,0.034-2.9c-24.632-41.167-49.25-82.337-73.887-123.508
					c-0.695-1.168-1.393-2.334-2.092-3.515C149.439,149.579,148.783,151.441,149.208,152.148L149.208,152.148z"/>
			</g>
			<g>
				<path fill="#FFFFFF" stroke="#2C2C2C" d="M149.047,152.142c22.311,42.467,44.622,84.94,66.934,127.411
					c0.635,1.197,1.264,2.401,1.899,3.606c-0.185-0.347,0.577-2.169,0.195-2.895c-22.316-42.467-44.618-84.936-66.938-127.407
					c-0.63-1.205-1.261-2.407-1.895-3.625C149.421,149.59,148.662,151.412,149.047,152.142L149.047,152.142z"/>
			</g>
			<g>
				<path fill="#FFFFFF" stroke="#2C2C2C" d="M148.887,152.126c19.926,43.638,39.853,87.28,59.779,130.921
					c0.567,1.23,1.129,2.468,1.696,3.706c-0.164-0.356,0.696-2.134,0.356-2.88c-19.933-43.637-39.85-87.274-59.785-130.916
					c-0.562-1.238-1.126-2.474-1.691-3.725C149.401,149.599,148.543,151.376,148.887,152.126L148.887,152.126z"/>
			</g>
			<g>
				<path fill="#FFFFFF" stroke="#2C2C2C" d="M148.728,152.102c17.479,44.674,34.961,89.353,52.442,134.029
					c0.498,1.26,0.99,2.526,1.488,3.794c-0.145-0.364,0.813-2.092,0.516-2.855c-17.487-44.673-34.959-89.347-52.449-134.024
					c-0.493-1.268-0.987-2.532-1.482-3.812C149.382,149.606,148.426,151.334,148.728,152.102L148.728,152.102z"/>
			</g>
			<g>
				<path fill="#FFFFFF" stroke="#2C2C2C" d="M148.57,152.068c14.979,45.573,29.962,91.15,44.944,136.727
					c0.428,1.285,0.849,2.577,1.275,3.871c-0.124-0.372,0.929-2.044,0.673-2.822c-14.987-45.572-29.961-91.145-44.951-136.723
					c-0.422-1.293-0.846-2.583-1.27-3.889C149.361,149.613,148.311,151.286,148.57,152.068L148.57,152.068z"/>
			</g>
			<g>
				<path fill="#FFFFFF" stroke="#2C2C2C" d="M148.415,152.026c12.435,46.333,24.871,92.669,37.309,139.005
					c0.355,1.308,0.704,2.62,1.06,3.937c-0.104-0.379,1.04-1.99,0.828-2.781c-12.443-46.332-24.871-92.663-37.316-139.001
					c-0.35-1.314-0.702-2.626-1.053-3.953C149.341,149.619,148.199,151.232,148.415,152.026L148.415,152.026z"/>
			</g>
			<g>
				<path fill="#FFFFFF" stroke="#2C2C2C" d="M148.262,151.976c9.852,46.951,19.704,93.904,29.559,140.857
					c0.282,1.325,0.559,2.655,0.84,3.989c-0.082-0.384,1.149-1.93,0.981-2.731c-9.86-46.949-19.705-93.897-29.567-140.853
					c-0.275-1.332-0.555-2.661-0.832-4.006C149.319,149.624,148.091,151.172,148.262,151.976L148.262,151.976z"/>
			</g>
			<g>
				<path fill="#FFFFFF" stroke="#2C2C2C" d="M148.112,151.918c7.237,47.424,14.477,94.85,21.717,142.276
					c0.209,1.339,0.411,2.683,0.618,4.03c-0.061-0.388,1.255-1.863,1.131-2.674c-7.246-47.423-14.479-94.844-21.727-142.272
					c-0.201-1.345-0.406-2.688-0.609-4.046C149.298,149.628,147.985,151.105,148.112,151.918L148.112,151.918z"/>
			</g>
			<g>
				<path fill="#FFFFFF" stroke="#2C2C2C" d="M147.966,151.852c4.602,47.751,9.205,95.506,13.81,143.26
					c0.134,1.349,0.262,2.701,0.395,4.059c-0.039-0.39,1.355-1.791,1.276-2.607c-4.61-47.75-9.207-95.499-13.819-143.257
					c-0.127-1.354-0.257-2.705-0.385-4.073C149.276,149.63,147.884,151.033,147.966,151.852L147.966,151.852z"/>
			</g>
			<g>
				<path fill="#FFFFFF" stroke="#2C2C2C" d="M147.823,151.777c1.952,47.933,3.905,95.869,5.859,143.805
					c0.06,1.354,0.112,2.711,0.17,4.074c-0.018-0.392,1.453-1.714,1.419-2.533c-1.961-47.932-3.908-95.863-5.87-143.803
					c-0.052-1.357-0.106-2.714-0.159-4.088C149.255,149.631,147.786,150.955,147.823,151.777L147.823,151.777z"/>
			</g>
			<g>
				<path fill="#FFFFFF" stroke="#2C2C2C" d="M147.685,151.695c-0.703,47.968-1.406,95.938-2.108,143.908
					c-0.015,1.354-0.037,2.713-0.055,4.078c0.004-0.393,1.546-1.632,1.557-2.451c0.694-47.967,1.403-95.933,2.098-143.908
					c0.023-1.357,0.044-2.715,0.066-4.09C149.233,149.631,147.693,150.872,147.685,151.695L147.685,151.695z"/>
			</g>
			<g>
				<path fill="#FFFFFF" stroke="#2C2C2C" d="M147.552,151.605c-3.357,47.855-6.714,95.712-10.07,143.571
					c-0.09,1.352-0.188,2.706-0.28,4.068c0.025-0.392,1.634-1.544,1.689-2.36c3.348-47.855,6.711-95.709,10.06-143.572
					c0.099-1.354,0.193-2.708,0.292-4.08C149.212,149.63,147.604,150.784,147.552,151.605L147.552,151.605z"/>
			</g>
			<g>
				<path fill="#FFFFFF" stroke="#2C2C2C" d="M147.424,151.508c-6.001,47.597-12.001,95.194-18.001,142.795
					c-0.164,1.345-0.337,2.691-0.505,4.046c0.047-0.39,1.716-1.45,1.817-2.263c5.991-47.598,11.998-95.191,17.99-142.796
					c0.173-1.346,0.343-2.692,0.517-4.058C149.19,149.628,147.521,150.691,147.424,151.508L147.424,151.508z"/>
			</g>
			<g>
				<path fill="#FFFFFF" stroke="#2C2C2C" d="M147.301,151.403c-8.626,47.192-17.25,94.385-25.876,141.58
					c-0.238,1.334-0.485,2.669-0.728,4.013c0.068-0.388,1.793-1.354,1.939-2.16c8.616-47.192,17.248-94.381,25.865-141.581
					c0.248-1.333,0.491-2.669,0.74-4.022C149.169,149.624,147.444,150.595,147.301,151.403L147.301,151.403z"/>
			</g>
			<g>
				<path fill="#FFFFFF" stroke="#2C2C2C" d="M147.184,151.292c-11.224,46.643-22.447,93.286-33.671,139.932
					c-0.312,1.318-0.634,2.638-0.949,3.967c0.09-0.384,1.865-1.253,2.057-2.05c11.214-46.644,22.445-93.282,33.66-139.933
					c0.322-1.317,0.639-2.638,0.962-3.976C149.147,149.619,147.372,150.493,147.184,151.292L147.184,151.292z"/>
			</g>
			<g>
				<path fill="#FFFFFF" stroke="#2C2C2C" d="M147.073,151.176c-13.788,45.949-27.575,91.9-41.364,137.853
					c-0.384,1.3-0.778,2.6-1.166,3.909c0.109-0.379,1.932-1.148,2.166-1.934c13.778-45.951,27.573-91.897,41.354-137.854
					c0.395-1.298,0.784-2.599,1.18-3.917C149.126,149.613,147.306,150.388,147.073,151.176L147.073,151.176z"/>
			</g>
			<g>
				<path fill="#FFFFFF" stroke="#2C2C2C" d="M146.969,151.053c-16.31,45.116-32.618,90.234-48.93,135.352
					c-0.455,1.276-0.92,2.553-1.381,3.839c0.131-0.372,1.992-1.039,2.271-1.811c16.3-45.118,32.617-90.229,48.919-135.354
					c0.466-1.273,0.928-2.551,1.395-3.846C149.105,149.606,147.245,150.279,146.969,151.053L146.969,151.053z"/>
			</g>
			<g>
				<path fill="#FFFFFF" stroke="#2C2C2C" d="M146.783,150.79c-21.197,43.038-42.392,86.077-63.59,129.116
					c-0.594,1.218-1.196,2.435-1.796,3.662c0.17-0.355,2.094-0.812,2.457-1.549c21.186-43.04,42.389-86.072,63.577-129.119
					c0.605-1.213,1.205-2.432,1.811-3.668C149.065,149.589,147.142,150.052,146.783,150.79L146.783,150.79z"/>
			</g>
			<g>
				<path fill="#FFFFFF" stroke="#2C2C2C" d="M146.701,150.651c-23.547,41.8-47.091,83.6-70.638,125.399
					c-0.66,1.184-1.329,2.364-1.996,3.557c0.188-0.345,2.135-0.695,2.539-1.41c23.534-41.802,47.087-83.594,70.626-125.402
					c0.671-1.178,1.337-2.361,2.01-3.562C149.046,149.578,147.1,149.935,146.701,150.651L146.701,150.651z"/>
			</g>
			<g>
				<path fill="#FFFFFF" stroke="#2C2C2C" d="M146.627,150.509c-25.824,40.433-51.646,80.865-77.47,121.298
					c-0.725,1.146-1.458,2.287-2.189,3.44c0.207-0.333,2.17-0.576,2.613-1.268c25.812-40.435,51.641-80.859,77.457-121.302
					c0.735-1.139,1.466-2.283,2.204-3.445C149.027,149.566,147.064,149.815,146.627,150.509L146.627,150.509z"/>
			</g>
			<g>
				<path fill="#FFFFFF" stroke="#2C2C2C" d="M146.561,150.362c-28.021,38.941-56.042,77.883-84.063,116.824
					c-0.787,1.104-1.583,2.203-2.377,3.314c0.226-0.321,2.199-0.455,2.68-1.121c28.01-38.943,56.036-77.878,84.052-116.83
					c0.797-1.096,1.59-2.198,2.391-3.317C149.009,149.554,147.035,149.694,146.561,150.362L146.561,150.362z"/>
			</g>
			<g>
				<path fill="#FFFFFF" stroke="#2C2C2C" d="M146.452,150.059c-32.153,35.606-64.305,71.213-96.459,106.819
					c-0.904,1.011-1.816,2.014-2.729,3.032c0.26-0.296,2.236-0.211,2.787-0.82c32.143-35.608,64.3-71.208,96.448-106.823
					c0.914-1.003,1.823-2.011,2.742-3.034C148.975,149.525,146.999,149.447,146.452,150.059L146.452,150.059z"/>
			</g>
			<g>
				<path fill="#FFFFFF" stroke="#2C2C2C" d="M146.411,149.903c-34.074,33.772-68.147,67.545-102.223,101.317
					c-0.959,0.958-1.925,1.91-2.893,2.876c0.276-0.28,2.245-0.087,2.829-0.665c34.063-33.774,68.142-67.54,102.211-101.321
					c0.969-0.95,1.933-1.907,2.906-2.878C148.959,149.51,146.991,149.322,146.411,149.903L146.411,149.903z"/>
			</g>
			<g>
				<path fill="#FFFFFF" stroke="#2C2C2C" d="M146.379,149.746c-35.892,31.835-71.782,63.67-107.673,95.505
					c-1.012,0.902-2.028,1.801-3.048,2.711c0.291-0.265,2.246,0.037,2.861-0.508c35.881-31.837,71.775-63.665,107.662-95.509
					c1.02-0.895,2.035-1.798,3.061-2.713C148.945,149.493,146.99,149.198,146.379,149.746L146.379,149.746z"/>
			</g>
			<g>
				<path fill="#FFFFFF" stroke="#2C2C2C" d="M146.355,149.587c-37.599,29.8-75.196,59.6-112.793,89.399
					c-1.061,0.846-2.125,1.686-3.194,2.538c0.306-0.248,2.241,0.162,2.886-0.349c37.588-29.802,75.188-59.595,112.783-89.403
					c1.066-0.837,2.132-1.684,3.205-2.54C148.933,149.477,146.996,149.074,146.355,149.587L146.355,149.587z"/>
			</g>
			<g>
				<path fill="#FFFFFF" stroke="#2C2C2C" d="M146.341,149.427c-39.189,27.674-78.379,55.347-117.567,83.021
					c-1.106,0.785-2.216,1.564-3.33,2.356c0.318-0.23,2.229,0.286,2.9-0.188c39.18-27.677,78.371-55.343,117.558-83.024
					c1.111-0.777,2.223-1.564,3.341-2.359C148.921,149.459,147.009,148.95,146.341,149.427L146.341,149.427z"/>
			</g>
			<g>
				<path fill="#FFFFFF" stroke="#2C2C2C" d="M146.338,149.106c-42.009,23.172-84.015,46.345-126.022,69.518
					c-1.186,0.657-2.374,1.31-3.57,1.974c0.343-0.193,2.184,0.531,2.904,0.135c41.997-23.178,84.007-46.343,126.012-69.524
					c1.192-0.649,2.383-1.308,3.581-1.976C148.9,149.422,147.055,148.705,146.338,149.106L146.338,149.106z"/>
			</g>
			<g>
				<path fill="#FFFFFF" stroke="#2C2C2C" d="M146.351,148.946c-43.228,20.812-86.452,41.623-129.678,62.437
					c-1.22,0.591-2.442,1.176-3.674,1.772c0.353-0.174,2.151,0.651,2.892,0.296c43.217-20.818,86.444-41.623,129.667-62.444
					c1.227-0.582,2.452-1.174,3.685-1.774C148.892,149.403,147.087,148.585,146.351,148.946L146.351,148.946z"/>
			</g>
			<g>
				<path fill="#FFFFFF" stroke="#2C2C2C" d="M146.372,148.786c-44.314,18.389-88.624,36.775-132.936,55.164
					c-1.25,0.522-2.503,1.039-3.766,1.567c0.361-0.154,2.112,0.769,2.87,0.455c44.304-18.395,88.616-36.775,132.925-55.172
					c1.257-0.514,2.513-1.037,3.776-1.568C148.884,149.384,147.126,148.467,146.372,148.786L146.372,148.786z"/>
			</g>
			<g>
				<path fill="#FFFFFF" stroke="#2C2C2C" d="M146.402,148.629c-45.265,15.907-90.523,31.813-135.786,47.722
					c-1.276,0.452-2.556,0.898-3.846,1.356c0.369-0.134,2.066,0.884,2.841,0.613c45.253-15.914,90.516-31.814,135.774-47.731
					c1.283-0.442,2.565-0.896,3.856-1.356C148.877,149.364,147.172,148.351,146.402,148.629L146.402,148.629z"/>
			</g>
			<g>
				<path fill="#FFFFFF" stroke="#2C2C2C" d="M146.441,148.473c-46.076,13.378-92.146,26.755-138.22,40.134
					c-1.299,0.381-2.602,0.755-3.915,1.142c0.376-0.113,2.014,0.996,2.802,0.77c46.064-13.385,92.138-26.756,138.209-40.144
					c1.306-0.372,2.61-0.753,3.925-1.142C148.871,149.345,147.224,148.237,146.441,148.473L146.441,148.473z"/>
			</g>
			<g>
				<path fill="#FFFFFF" stroke="#2C2C2C" d="M146.487,148.319c-46.745,10.807-93.484,21.614-140.229,32.422
					c-1.318,0.309-2.64,0.61-3.972,0.923c0.382-0.092,1.955,1.107,2.755,0.924c46.734-10.814,93.478-21.615,140.219-32.433
					c1.324-0.299,2.647-0.607,3.981-0.923C148.866,149.324,147.282,148.127,146.487,148.319L146.487,148.319z"/>
			</g>
			<g>
				<path fill="#FFFFFF" stroke="#2C2C2C" d="M146.542,148.168c-47.271,8.203-94.537,16.407-141.808,24.611
					c-1.333,0.235-2.669,0.464-4.017,0.702c0.387-0.07,1.892,1.214,2.699,1.074c47.262-8.211,94.531-16.408,141.799-24.622
					c1.339-0.225,2.678-0.46,4.026-0.701C148.862,149.304,147.347,148.021,146.542,148.168L146.542,148.168z"/>
			</g>
			<g>
				<path fill="#FFFFFF" stroke="#2C2C2C" d="M146.605,148.021c-47.652,5.574-95.3,11.15-142.952,16.726
					c-1.344,0.161-2.69,0.314-4.05,0.479c0.391-0.049,1.821,1.316,2.636,1.222c47.645-5.583,95.295-11.151,142.944-16.736
					c1.349-0.15,2.699-0.312,4.059-0.478C148.859,149.283,147.417,147.918,146.605,148.021L146.605,148.021z"/>
			</g>
			<g>
				<path fill="#FFFFFF" stroke="#2C2C2C" d="M146.677,147.877c-47.888,2.928-95.771,5.858-143.658,8.787
					c-1.351,0.087-2.704,0.166-4.07,0.255c0.393-0.027,1.746,1.415,2.564,1.365c47.88-2.938,95.766-5.86,143.65-8.8
					c1.355-0.075,2.713-0.161,4.079-0.252C148.858,149.263,147.493,147.819,146.677,147.877L146.677,147.877z"/>
			</g>
			<g>
				<path fill="#FFFFFF" stroke="#2C2C2C" d="M146.756,147.737c-47.977,0.272-95.948,0.549-143.924,0.823
					c-1.354,0.012-2.709,0.016-4.078,0.029c0.393-0.006,1.665,1.51,2.484,1.505c47.97-0.283,95.944-0.552,143.917-0.837
					c1.357,0.001,2.718-0.01,4.087-0.025C148.858,149.242,147.575,147.725,146.756,147.737L146.756,147.737z"/>
			</g>
			<g>
				<path fill="#FFFFFF" stroke="#2C2C2C" d="M146.843,147.602c-47.918-2.383-95.831-4.762-143.749-7.143
					c-1.352-0.063-2.705-0.135-4.073-0.196c0.393,0.016,1.579,1.599,2.397,1.64c47.912,2.372,95.828,4.759,143.742,7.13
					c1.355,0.076,2.715,0.141,4.082,0.2C148.859,149.222,147.662,147.635,146.843,147.602L146.843,147.602z"/>
			</g>
			<g>
				<path fill="#FFFFFF" stroke="#2C2C2C" d="M146.938,147.471c-47.713-5.03-95.421-10.058-143.134-15.086
					c-1.346-0.139-2.693-0.285-4.056-0.422c0.391,0.037,1.487,1.683,2.303,1.77c47.707,5.021,95.418,10.056,143.127,15.074
					c1.349,0.151,2.703,0.291,4.064,0.426C148.861,149.201,147.754,147.55,146.938,147.471L146.938,147.471z"/>
			</g>
			<g>
				<path fill="#FFFFFF" stroke="#2C2C2C" d="M147.039,147.347c-47.361-7.664-94.719-15.324-142.08-22.985
					c-1.336-0.213-2.673-0.434-4.025-0.646c0.388,0.059,1.392,1.762,2.201,1.895c47.355,7.652,94.715,15.32,142.073,22.973
					c1.338,0.225,2.683,0.439,4.034,0.649C148.864,149.181,147.85,147.47,147.039,147.347L147.039,147.347z"/>
			</g>
			<g>
				<path fill="#FFFFFF" stroke="#2C2C2C" d="M147.147,147.228c-46.864-10.273-93.726-20.542-140.59-30.813
					c-1.322-0.286-2.646-0.58-3.984-0.867c0.384,0.08,1.293,1.836,2.093,2.014c46.859,10.262,93.723,20.539,140.584,30.801
					c1.323,0.299,2.654,0.587,3.992,0.871C148.868,149.16,147.949,147.396,147.147,147.228L147.147,147.228z"/>
			</g>
			<g>
				<path fill="#FFFFFF" stroke="#2C2C2C" d="M147.262,147.115c-46.224-12.852-92.445-25.698-138.669-38.548
					c-1.305-0.358-2.609-0.726-3.931-1.086c0.38,0.102,1.189,1.905,1.979,2.127c46.22,12.839,92.442,25.693,138.664,38.533
					c1.305,0.372,2.618,0.733,3.938,1.091C148.874,149.14,148.054,147.327,147.262,147.115L147.262,147.115z"/>
			</g>
			<g>
				<path fill="#FFFFFF" stroke="#2C2C2C" d="M147.382,147.009c-45.44-15.391-90.881-30.775-136.322-46.163
					c-1.283-0.431-2.565-0.868-3.864-1.302c0.373,0.122,1.082,1.968,1.857,2.233c45.438,15.377,90.879,30.771,136.318,46.148
					c1.282,0.443,2.574,0.877,3.871,1.307C148.881,149.119,148.161,147.265,147.382,147.009L147.382,147.009z"/>
			</g>
			<g>
				<path fill="#FFFFFF" stroke="#2C2C2C" d="M147.508,146.909c-44.519-17.882-89.037-35.758-133.558-53.637
					c-1.258-0.502-2.514-1.009-3.787-1.514c0.365,0.143,0.972,2.025,1.731,2.332c44.517,17.868,89.036,35.754,133.555,53.623
					c1.256,0.514,2.522,1.019,3.793,1.519C148.889,149.1,148.272,147.208,147.508,146.909L147.508,146.909z"/>
			</g>
			<g>
				<path fill="#FFFFFF" stroke="#2C2C2C" d="M147.64,146.816c-43.461-20.317-86.921-40.63-130.385-60.945
					c-1.229-0.571-2.454-1.146-3.697-1.722c0.356,0.163,0.858,2.076,1.6,2.425c43.46,20.304,86.921,40.626,130.382,60.932
					c1.226,0.583,2.463,1.157,3.703,1.727C148.897,149.08,148.387,147.157,147.64,146.816L147.64,146.816z"/>
			</g>
			<g>
				<path fill="#FFFFFF" stroke="#2C2C2C" d="M147.776,146.732c-42.27-22.692-84.539-45.379-126.812-68.069
					c-1.194-0.638-2.387-1.28-3.596-1.923c0.347,0.183,0.742,2.12,1.463,2.509c42.27,22.678,84.539,45.374,126.81,68.055
					c1.191,0.65,2.396,1.292,3.602,1.929C148.907,149.062,148.503,147.113,147.776,146.732L147.776,146.732z"/>
			</g>
			<g>
				<path fill="#FFFFFF" stroke="#2C2C2C" d="M148.062,146.586C108.56,119.361,69.057,92.142,29.55,64.919
					c-1.116-0.766-2.23-1.536-3.361-2.308c0.324,0.219,0.504,2.188,1.177,2.655c39.504,27.209,79.007,54.438,118.513,81.651
					c1.111,0.778,2.236,1.549,3.364,2.314C148.93,149.025,148.743,147.044,148.062,146.586L148.062,146.586z"/>
			</g>
			<g>
				<path fill="#FFFFFF" stroke="#2C2C2C" d="M148.21,146.524C110.275,117.156,72.34,87.791,34.4,58.424
					c-1.072-0.826-2.143-1.656-3.229-2.489c0.312,0.235,0.382,2.212,1.028,2.716c37.938,29.354,75.873,58.727,113.812,88.085
					c1.066,0.839,2.147,1.67,3.23,2.497C148.942,149.009,148.865,147.02,148.21,146.524L148.21,146.524z"/>
			</g>
			<g>
				<path fill="#FFFFFF" stroke="#2C2C2C" d="M148.362,146.472c-36.252-31.423-72.504-62.843-108.76-94.265
					c-1.024-0.884-2.047-1.771-3.087-2.664c0.299,0.253,0.259,2.23,0.877,2.769c36.254,31.408,72.507,62.836,108.763,94.249
					c1.018,0.896,2.052,1.786,3.087,2.672C148.956,148.992,148.989,147.002,148.362,146.472L148.362,146.472z"/>
			</g>
			<g>
				<path fill="#FFFFFF" stroke="#2C2C2C" d="M148.517,146.427C114.06,113.046,79.602,79.668,45.141,46.288
					c-0.974-0.939-1.946-1.882-2.935-2.831c0.285,0.27,0.136,2.242,0.723,2.813c34.46,33.366,68.918,66.752,103.38,100.123
					c0.966,0.952,1.95,1.897,2.934,2.839C148.971,148.977,149.113,146.991,148.517,146.427L148.517,146.427z"/>
			</g>
			<g>
				<path fill="#FFFFFF" stroke="#2C2C2C" d="M148.673,146.391c-32.557-35.236-65.114-70.47-97.676-105.706
					c-0.919-0.992-1.839-1.987-2.772-2.989c0.271,0.285,0.012,2.246,0.565,2.849c32.562,35.223,65.119,70.465,97.681,105.691
					c0.911,1.005,1.843,2.003,2.771,2.997C148.985,148.962,149.237,146.987,148.673,146.391L148.673,146.391z"/>
			</g>
			<g>
				<path fill="#FFFFFF" stroke="#2C2C2C" d="M148.831,146.363C118.274,109.38,87.717,72.398,57.155,35.414
					c-0.862-1.042-1.726-2.087-2.603-3.139c0.254,0.3-0.112,2.243,0.407,2.875c30.562,36.972,61.12,73.962,91.681,110.937
					c0.854,1.054,1.73,2.102,2.602,3.146C149.001,148.948,149.362,146.99,148.831,146.363L148.831,146.363z"/>
			</g>
			<g>
				<path fill="#FFFFFF" stroke="#2C2C2C" d="M149.151,146.335C122.87,106.201,96.587,66.07,70.3,25.935
					c-0.742-1.131-1.485-2.265-2.24-3.408c0.22,0.327-0.359,2.219,0.087,2.903c26.289,40.123,52.572,80.265,78.859,120.39
					c0.732,1.141,1.486,2.279,2.236,3.413C149.033,148.924,149.61,147.017,149.151,146.335L149.151,146.335z"/>
			</g>
			<g>
				<path fill="#FFFFFF" stroke="#2C2C2C" d="M149.312,146.334c-24.021-41.526-48.042-83.051-72.067-124.58
					c-0.679-1.17-1.358-2.343-2.049-3.525c0.202,0.338-0.481,2.194-0.073,2.902c24.028,41.517,48.05,83.052,72.076,124.57
					c0.667,1.179,1.357,2.358,2.043,3.531C149.051,148.912,149.732,147.04,149.312,146.334L149.312,146.334z"/>
			</g>
			<g>
				<path fill="#FFFFFF" stroke="#2C2C2C" d="M149.474,146.342c-21.686-42.791-43.373-85.581-65.062-128.377
					c-0.613-1.205-1.227-2.414-1.851-3.634c0.184,0.349-0.603,2.165-0.234,2.895c21.694,42.783,43.38,85.584,65.072,128.368
					c0.601,1.214,1.225,2.43,1.844,3.639C149.069,148.901,149.854,147.07,149.474,146.342L149.474,146.342z"/>
			</g>
			<g>
				<path fill="#FFFFFF" stroke="#2C2C2C" d="M149.634,146.358c-19.284-43.925-38.57-87.85-57.857-131.78
					c-0.546-1.237-1.092-2.478-1.646-3.73c0.163,0.358-0.722,2.128-0.395,2.877c19.293,43.918,38.576,87.854,57.868,131.773
					c0.532,1.245,1.088,2.493,1.639,3.734C149.088,148.893,149.973,147.107,149.634,146.358L149.634,146.358z"/>
			</g>
			<g>
				<path fill="#FFFFFF" stroke="#2C2C2C" d="M149.792,146.385c-16.822-44.925-33.648-89.85-50.475-134.78
					c-0.477-1.266-0.953-2.534-1.438-3.816c0.144,0.367-0.839,2.085-0.554,2.852c16.833,44.918,33.655,89.854,50.487,134.773
					c0.462,1.273,0.948,2.55,1.429,3.819C149.107,148.885,150.09,147.151,149.792,146.385L149.792,146.385z"/>
			</g>
			<g>
				<path fill="#FFFFFF" stroke="#2C2C2C" d="M149.949,146.419c-14.31-45.786-28.624-91.573-42.938-137.366
					c-0.405-1.29-0.811-2.583-1.224-3.891c0.123,0.375-0.953,2.036-0.71,2.816c14.32,45.781,28.631,91.578,42.95,137.361
					c0.392,1.298,0.806,2.599,1.215,3.893C149.127,148.878,150.204,147.201,149.949,146.419L149.949,146.419z"/>
			</g>
			<g>
				<path fill="#FFFFFF" stroke="#2C2C2C" d="M150.104,146.462c-11.754-46.508-23.512-93.017-35.271-139.531
					c-0.333-1.311-0.666-2.624-1.007-3.952c0.103,0.381-1.063,1.98-0.864,2.772c11.765,46.504,23.519,93.022,35.282,139.527
					c0.318,1.318,0.661,2.64,0.997,3.954C149.147,148.872,150.316,147.258,150.104,146.462L150.104,146.462z"/>
			</g>
			<g>
				<path fill="#FFFFFF" stroke="#2C2C2C" d="M150.257,146.514c-9.162-47.087-18.327-94.175-27.494-141.27
					c-0.26-1.327-0.52-2.656-0.786-4.002c0.08,0.387-1.172,1.919-1.017,2.721c9.173,47.084,18.334,94.182,27.506,141.267
					c0.245,1.334,0.515,2.672,0.776,4.003C149.168,148.867,150.424,147.32,150.257,146.514L150.257,146.514z"/>
			</g>
			<g>
				<path fill="#FFFFFF" stroke="#2C2C2C" d="M150.405,146.574C143.864,99.053,137.319,51.529,130.773,4
					c-0.187-1.34-0.373-2.682-0.564-4.04c0.059,0.391-1.275,1.852-1.166,2.661c6.554,47.519,13.095,95.052,19.646,142.571
					c0.172,1.346,0.366,2.696,0.554,4.04C149.188,148.863,150.528,147.389,150.405,146.574L150.405,146.574z"/>
			</g>
			<g>
				<path fill="#FFFFFF" stroke="#2C2C2C" d="M150.572,146.652c-3.511-47.84-7.024-95.684-10.539-143.533
					c-0.101-1.348-0.201-2.7-0.306-4.067c0.033,0.393-1.392,1.767-1.333,2.583c3.522,47.837,7.032,95.691,10.553,143.529
					c0.086,1.354,0.193,2.715,0.295,4.068C149.212,148.858,150.644,147.474,150.572,146.652L150.572,146.652z"/>
			</g>
		</g>
		<g id="pattern_radial_8_">
			<polygon fill="none" stroke="#2C2C2C" stroke-width="0.6" points="110.154,127.931 110.563,125.78 112.94,123.716 
				113.773,121.785 116.096,120.086 118.87,117.707 120.174,115.547 121.899,113.769 123.562,112.986 125.499,112.986 
				126.893,110.605 129.661,110.605 131.582,109.018 134.97,109.018 136.188,107.481 139.116,107.481 142.357,105.922 
				143.277,105.922 146.057,105.857 149.849,105.559 153.161,105.922 154.163,107.481 156.244,107.481 159.084,109.018 
				160.673,109.018 163.449,110.25 164.924,110.831 167.38,112.598 168.814,113.769 171.173,113.769 173.796,116.691 
				175.62,118.023 176.583,118.059 178.382,120.496 179.802,121.785 182.177,123.716 183.368,124.389 185.518,125.78 
				187.638,128.357 189.451,130.848 189.451,132.39 190.728,135.592 190.921,136.475 191.832,138.734 192.909,141.002 
				192.909,144.305 194.161,147.355 192.909,148.982 192.909,150.771 192.909,154.725 191.832,156.022 190.75,158.285 
				190.728,160.122 189.451,162.205 187.214,164.332 186.116,167.491 185.031,169.494 183.779,171.398 182.177,172.595 
				180.435,174.566 179.657,176.819 178.382,177.378 175.95,179.516 175.95,181.197 173.525,181.197 170.537,183.457 
				168.814,184.519 166.511,185.384 164.764,186.897 163.449,186.897 160.019,186.897 158.312,186.897 155.851,188.143 
				155.178,188.143 152.157,188.143 150.13,188.143 148.388,188.143 146.511,188.143 144.243,188.881 142.13,188.143 
				139.879,188.143 137.201,186.25 135.609,185.293 134.145,184.918 130.903,184.918 128.918,184.519 127.515,183.256 
				124.372,181.197 122.95,180.786 120.946,179.12 119.092,179.12 117.516,177.378 115.319,176.124 112.94,173.474 111.655,172.595 
				108.653,169.894 108.104,167.359 108.104,165.453 106.391,162.69 106.391,161.361 106.391,158.285 106.391,156.022 
				106.391,154.254 106.391,150.711 106.391,148.718 106.391,146.225 106.391,144.305 106.391,140.77 108.104,138.67 
				108.104,136.475 108.104,135.312 108.653,132.39 108.653,129.884 			"/>
			<path fill="none" stroke="#2C2C2C" stroke-width="0.6" d="M95.724,120.086l0.935-3.794l1.595-3.306l1.222-2.269l2.423-3.236
				l2.783-3.52l1.447-1.378l2.525-3.04l3.002-3.199l1.285-2.881l2.963-1.854l4.794-2.05l2.864-2.587l1.861-1.333l5.062-1.491
				l3.764-0.419l2.099-0.739l5.138-1.21l2.998,1.949l5.646-1.949h2.852l3.628,1.21h5.277l3.566,1.158h2.285l3.365,1.729h4.007
				l3.271,2.609l3.795,1.986l3.331,2.989l1.706,1.345l3.514,3.267l2.886,2.858l2.62,1.65l3.521,2.569l2.687,2.328l1.083,2.227
				l2.8,4.061l1.198,2.523l2.984,3.794l0.886,2.292l2.252,4.781v3.942l1.314,3.491v3.445l0.152,2.56l0.588,4.15v3.97v3.909
				l-0.74,3.396l-1.314,2.673l-2.252,4.768c0,0-1.102,2.502-0.886,2.988s-1.557,3.043-1.557,3.043l-1.428,3.101l-1.967,1.972
				l-2.323,4.356l-2.675,1.863l-2.72,1.821l-1.604,2.311l-2.072,2.118l-2.329,2.27l-2.381,2.192l-3.484,0.521l-3.105,1.462
				l-2.67,1.541l-1.81,2.935l-3.213,0.641l-4.632,0.943l-1.723,1.8l-2.304,0.438l-4.08-0.438l-2.586,0.438l-2.375,1.374h-3.033
				h-3.679l-2.936,1.112h-2.441h-3.076l-3.225-2.602h-3.471l-2.002-0.323l-2.704-1.373l-3.389-1.37l-3.418-1.743h-1.677
				l-4.223-1.832l-1.612-3.003h-1.584l-2.438-2.164l-2.409-4.017l-2.05-0.546l-3.063-2.686l-3.109-1.821l-2.074-2.503l-0.004-1.801
				l-2.579-3.009l-2.006-3.481l-0.337-3.274l-2.053-2.386v-2.06l-0.429-3.987v-2.399l-0.894-4.638l-1.351-2.78v-3.72l1.131-1.725
				l1.113-4.509v-2.478v-3.647l0.429-2.506l2.021-4.104l0.369-3.444L95.724,120.086z"/>
			<polygon fill="none" stroke="#2C2C2C" stroke-width="0.6" points="75.088,131.958 75.765,127.239 76.774,123.716 78.007,120.086 
				78.812,116.292 79.702,111.916 81.399,109.018 85.467,103.449 87.256,101.26 89.662,97.604 92.45,93.464 96.658,90.098 
				98.253,87.534 101.897,83.73 104.543,80.04 106.391,77.197 112.221,75.237 117.239,72.573 120.946,71.5 124.525,70.176 
				129.036,69.313 133.563,68.69 138.393,67.5 144.483,67.5 149.334,67.5 155.272,67.5 159.084,68.69 163.951,68.69 168.814,69.224 
				171.586,70.608 177.71,71.379 182.177,72.582 185.316,76.74 189.451,78.51 192.909,80.04 197.305,82.991 202.153,84.149 
				206.323,86.438 208.946,90.475 212.551,93.464 215.698,97.217 218.184,100.907 220.112,103.405 221.401,108.047 224.321,112.598 
				225.365,116.691 227.356,120.496 227.356,125.78 229.66,129.884 229.66,134.067 229.66,138.636 231.178,143.023 229.66,148 
				229.66,153.08 228.337,156.782 227.797,160.772 227.78,165.254 226.46,169.494 224.814,174.566 224.321,178.06 220.112,182.607 
				218.184,186.669 214.958,188.043 212.739,192.447 210.506,195.379 208.949,198.598 202.44,199.285 199.754,202.326 
				197.9,206.038 192.909,206.704 189.451,209.867 186.778,211.992 182.177,212.24 178.382,214.42 174.498,216.195 171.586,217.22 
				166.511,219.45 162.494,219.805 159.084,220.949 155.272,222.211 152.209,222.1 148.104,221.085 144.131,222.1 139.725,222.1 
				135.609,220.854 132.315,219.578 128.611,217.992 124.387,217.992 120.697,216.528 115.903,214.42 111.655,214.193 
				109.163,211.992 105.041,208.062 101.897,206.038 98.253,204.571 95.269,201.664 92.45,198.598 88.581,195.379 86.551,191.647 
				84.113,188.143 82.878,184.918 81.12,182.038 78.812,176.82 78.007,172.595 75.765,168.994 75.765,164.671 75.088,160.914 
				74.423,156.782 73.998,153.08 72.087,148.718 73.998,144.305 74.423,140.263 74.423,136.037 			"/>
			<path fill="none" stroke="#2C2C2C" stroke-width="0.6" d="M55.981,134.154l1.003-6.688v-5.446l3.136-4.562v-4.86l2.217-5.116
				c0,0,3.299-1.39,3.303-3.113s2.929-6.293,2.929-6.293l2.407-4.611l3.447-2.137l2.529-5.687l4.168-3.859l4.693-3.42l3.344-4.219
				l3.293-1.651l4.208-3.801l5.239-1.288l4.493-2.708l5.265-2.812l4.248-1.657h5.512l6.1-3.132l3.684-0.555l6.728-0.604l4.322-1.909
				h8.028h5.43l4.139,1.909l6.478,0.604h4.215l5.413,1.712l6.227,2l4.368,1.632l4.205,3.405l4.753,2.213l4.251,2.921l4.658,2.382
				l3.109,2.357l5.218,3.35l4.146,3.271l3.227,4.775l1.713,3.918l3.54,5.202l5.812,7.261l1.968,6.08l2.441,3.58l0.989,4.505
				l2.3,4.683l1.361,6.572v5.26l1.35,4.421v4.985v5.444l-1.25,4.612v5.205l-1.258,4.144v5.129l-0.796,5.037l-1.316,6.525
				l-2.88,3.487l-1.765,3.997l-1.145,5.843l-1.911,5.81l-3.953,3.084l-3.488,4.308l-1.713,4.219l-4.414,2.473l-2.747,3.855
				l-5.43,3.609l-2.218,2.406l-4.705,3l-5.096,4.329l-3.671,0.775l-4.618,2.088l-4.784,1.659l-4.048,3.829h-5.348l-5.654,2.921
				l-4.949,0.712l-4.362-0.712l-6.437,0.712h-3.81l-5.004-0.712h-5.617l-4.417-1.526l-5.892-1.036l-3.942-2.51h-4.979l-5.031-1.678
				l-4.287-2.409l-4.11-3.062l-5.81-3.093l-3.802-2.384l-4.726-3.31l-2.863-2.019l-4.465-3.593l-3.176-3.274l-3.795-4.881
				l-3.542-4.374l-2.165-4.81l-3.232-3.966l-2.028-4.746l-1.674-3.225l-3.146-5.966l-1.033-4.386l-2.292-5.51l-0.813-5.172v-3.731
				l-1.429-6.642v-5.774v-4.714v-5.29L55.981,134.154z"/>
			<polygon fill="none" stroke="#2C2C2C" stroke-width="0.6" points="31.171,115.547 33.254,109.018 35.658,102.584 36.516,98.075 
				39.699,90.446 42.206,82.991 46.375,78.361 51.494,73.581 54.056,66.749 60.12,60.798 63.574,56.538 70.562,54.025 
				76.952,51.195 82.878,47.916 89.662,43.218 95.724,40.287 101.663,37.098 106.391,34.831 112.94,32.275 120.946,31.11 
				126.247,31.11 132.774,29.688 140.271,27.121 148.937,26.695 157.529,27.121 163.449,29.001 170.537,27.121 175.95,30.634 
				184.213,31.717 188.891,34.324 194.161,37.098 203.231,38.977 208.949,43.457 213.644,45.07 221.401,48.445 226.038,51.195 
				232.304,54.025 236.576,60.107 243.225,65.443 247.199,71.489 251.366,76.74 255.638,79.867 260.23,85.879 263.405,93.898 
				264.579,99.388 268.656,105.559 268.867,112.598 270.188,119.404 271.77,125.78 271.77,133.083 271.77,138.767 271.77,147.22 
				271.77,153.531 271.77,160.345 271.77,167.228 268.656,174.566 268.656,180.561 267.246,188.881 263.405,193.096 
				259.639,200.555 257.805,205.483 255.521,211.992 249.585,217.992 245.104,222.211 241.587,227.053 234.958,231.962 
				228.578,234.824 223.571,239.28 220.112,242.627 214.958,247.281 210.506,251.659 203.985,253.449 197.822,259.298 
				192.544,259.91 187.214,264.756 180.831,266.936 174.498,269.594 167.752,270.501 159.402,270.501 154.259,272.335 
				145.917,272.335 139.725,272.335 133.957,270.501 126.893,271.533 120.064,270.501 111.655,269.214 106.391,267.781 
				98.733,263.875 94.739,259.91 87.716,258.469 81.399,255.467 75.907,251.157 69.856,244.805 64.501,240.812 60.12,237.574 
				54.056,233.67 48.225,227.365 43.426,222.1 41.296,214.954 37.644,209.065 33.356,203.35 31.171,196.591 30.368,189.408 
				28.883,182.607 26.188,174.566 26.188,168.629 25.093,162.237 25.093,155.313 23.953,148.439 25.443,140.598 26.188,132.701 
				27.027,127.931 30.368,120.086 			"/>
			<path fill="none" stroke="#2C2C2C" stroke-width="0.6" d="M26.188,64.002l6.011-5.352l4.316-9.107l6.413-3.272l5.296-8.575
				l7.696-5.42l12.139-9.749l7.137-4.298l7.364-3.897l7.175-0.606l8.145-5.937l7.907-2.626l7.282-0.25l9.249-1.934l7.224-1.736
				l8.853,0.393l12.363-2.867l6.676,2.691L165.6,2.14l8.115,1.131l10.064-0.495l5.918,4.094l10.057,0.621l7.768,3.013l11.083,5.499
				l11.056,6.048l5.746,5.071l7.818,5.154l6.36,4.822l6.053,5.726l5.727,6.052l4.107,5.15l5.295,8.586l5.65,6.186l4.257,7.162
				l1.48,7.032l5.813,7.942l3.014,7.767l2.58,7.922l0.848,6.364l2.979,9.847l1.235,8.239l-1.235,8.448l2.328,8.172l-1.093,5.388
				l-1.979,9.518l-0.965,8.138l-1.414,8.071l-1.859,7.98l-2.298,7.866l-4.252,8.835v8.852l-7.319,5.593l-0.491,9.12l-5.716,4.376
				l-3.673,9.384l-8.37,3.847l-2.481,8.79l-7.192,4.527l-4.281,4.958l-8.547,5.329l-5.524,6.489l-7.039,1.502l-7.146,4.01
				l-9.126,3.4l-5.775,3.404l-7.711,2.774l-7.852,2.343l-7.97,1.904l-8.056,2.905l-9.811-1.885l-6.504,2.012l-8.193,0.107
				l-8.188-0.346l-7.355-1.917l-10.838,2.028l-5.378-4.33l-10.278-1.397l-6.112-2.836l-8.104-1.68l-6.97-4.733l-7.248-3.822
				l-7.025-4.218l-8.05-5.447l-5.535-3.407l-5.944-6.035l-5.863-7.869l-5.669-3.767l-5.266-6.278l-4.48-8.729l-4.82-7.621
				l-3.638-6.202l-4.425-5.173l-3.35-7.479l-4.197-9.118l-4.037-7.106v-8.962l-0.89-6.23l-1.178-8.109l-0.727-8.162l-0.274-8.189
				l-0.743-9.497l1.556-6.865l0.236-8.664l0.286-9.521l4.197-9.988l1.573-6.505l1.819-7.295c0,0,2.277-4.15,2.836-5.88
				s5.832-6.63,5.832-6.63l1.591-10.559L26.188,64.002z"/>
		</g>
	</g>
	<g id="contrast_8_">
		<polygon fill="#2C2C2C" fill-opacity="0.41" points="83.506,48.875 98.074,68.342 103.199,66.618 89.662,43.218 		"/>
		<polygon fill="#2C2C2C" fill-opacity="0.41" points="95.724,40.287 108.104,62.611 112.94,61.381 101.663,37.098 		"/>
		<polygon fill="#2C2C2C" fill-opacity="0.41" points="107.059,32.275 115.903,60.225 121.415,60.225 114.237,32.087 		"/>
		<polygon fill="#2C2C2C" fill-opacity="0.41" points="120.946,31.11 127.515,57.093 131.198,56.538 126.247,31.11 		"/>
		<polygon fill="#2C2C2C" fill-opacity="0.41" points="132.774,29.688 133.053,31.109 137.926,55.935 143.772,54.025 
			141.796,27.121 		"/>
		<polygon fill="#2C2C2C" fill-opacity="0.41" points="148.937,26.695 150.276,54.025 155.706,54.025 157.529,27.121 		"/>
		<polygon fill="#2C2C2C" fill-opacity="0.41" points="163.449,29.001 159.845,55.935 166.322,56.538 170.537,27.121 		"/>
		<polygon fill="#2C2C2C" fill-opacity="0.41" points="175.95,30.634 172.016,56.538 175.95,58.25 184.213,31.717 		"/>
		<polygon fill="#2C2C2C" fill-opacity="0.41" points="190.248,35.038 182.177,60.25 186.545,61.882 195.503,37.695 		"/>
		<polygon fill="#2C2C2C" fill-opacity="0.41" points="203.231,38.977 189.451,64.235 195.503,67.5 207.521,44.102 		"/>
		<polygon fill="#2C2C2C" fill-opacity="0.41" points="213.644,45.07 199.754,70.421 204.412,72.803 221.401,48.445 		"/>
		<polygon fill="#2C2C2C" fill-opacity="0.41" points="227.966,51.195 207.521,76.74 212.739,78.51 233.204,55.779 		"/>
		<polygon fill="#2C2C2C" fill-opacity="0.41" points="236.576,60.107 216.886,81.781 220.112,86.557 243.225,65.443 		"/>
		<polygon fill="#2C2C2C" fill-opacity="0.41" points="246.112,69.837 221.825,90.475 225.365,95.677 251.366,76.74 		"/>
		<polygon fill="#2C2C2C" fill-opacity="0.41" points="257.805,80.833 228.353,98.075 231.178,102.938 260.23,85.879 		"/>
		<polygon fill="#2C2C2C" fill-opacity="0.41" points="263.405,93.898 233.204,107.481 235.587,112.598 264.579,99.388 		"/>
		<polygon fill="#2C2C2C" fill-opacity="0.41" points="268.656,105.559 236.576,117.103 238.876,121.785 268.867,112.598 		"/>
		<polygon fill="#2C2C2C" fill-opacity="0.41" points="270.188,119.404 240.237,128.357 240.237,133.617 271.77,125.78 		"/>
		<path fill="#2C2C2C" fill-opacity="0.41" d="M271.77,133.083l-28.545,4.955l-1.638,4.985c0,0,30.183-0.595,30.183-2.426
			S271.77,133.083,271.77,133.083z"/>
		<polygon fill="#2C2C2C" fill-opacity="0.41" points="271.77,147.22 243.225,147.327 240.337,153.08 271.77,153.531 		"/>
		<polygon fill="#2C2C2C" fill-opacity="0.41" points="271.77,160.345 240.337,158.285 239.079,162.429 271.77,167.228 		"/>
		<polygon fill="#2C2C2C" fill-opacity="0.41" points="268.656,174.566 239.079,167.558 238.283,172.595 268.656,180.561 		"/>
		<polygon fill="#2C2C2C" fill-opacity="0.41" points="267.503,187.367 236.967,179.12 234.087,182.607 263.405,193.096 		"/>
		<polygon fill="#2C2C2C" fill-opacity="0.41" points="232.322,186.604 231.178,192.447 257.805,205.483 260.324,199.197 		"/>
		<polygon fill="#2C2C2C" fill-opacity="0.41" points="231.178,197.62 225.313,201.341 249.585,217.992 255.521,211.992 		"/>
		<polygon fill="#2C2C2C" fill-opacity="0.41" points="221.825,205.648 245.104,222.211 241.587,227.053 220.112,209.867 		"/>
		<polygon fill="#2C2C2C" fill-opacity="0.41" points="212.951,216.195 215.698,212.34 234.958,231.962 228.578,234.824 		"/>
		<polygon fill="#2C2C2C" fill-opacity="0.41" points="203.887,223.114 208.949,217.992 224.814,238.174 220.112,242.627 		"/>
		<path fill="#2C2C2C" fill-opacity="0.41" d="M195.503,229.54c1.175-0.998,5.096-4.329,5.096-4.329l13.752,20.342l-3.845,6.106
			L195.503,229.54z"/>
		<polygon fill="#2C2C2C" fill-opacity="0.41" points="187.214,232.403 190.111,230.31 203.523,251.659 199.413,259.12 		"/>
		<polygon fill="#2C2C2C" fill-opacity="0.41" points="178.382,237.892 182.43,234.062 192.544,259.91 187.214,264.756 		"/>
		<polygon fill="#2C2C2C" fill-opacity="0.41" points="167.38,240.812 173.034,237.892 180.831,266.936 174.498,269.594 		"/>
		<polygon fill="#2C2C2C" fill-opacity="0.41" points="162.431,241.524 167.752,270.501 159.402,270.501 158.068,240.812 		"/>
		<polygon fill="#2C2C2C" fill-opacity="0.41" points="147.822,241.524 151.632,241.524 152.952,270.501 145.917,272.335 		"/>
		<polygon fill="#2C2C2C" fill-opacity="0.41" points="137.201,240.812 142.818,240.812 139.725,272.335 133.957,270.501 		"/>
		<polygon fill="#2C2C2C" fill-opacity="0.41" points="126.893,238.25 132.784,239.286 126.893,271.533 118.555,270.27 		"/>
		<path fill="#2C2C2C" fill-opacity="0.41" d="M116.687,234.824c1.729-0.312,6.264,0.916,6.264,0.916l-11.295,33.474l-6.975-2.305
			L116.687,234.824z"/>
		<path fill="#2C2C2C" fill-opacity="0.41" d="M98.733,263.875c0.566-1.332,14.207-29.812,14.207-29.812l-5.32-3.753L94.739,259.91
			L98.733,263.875z"/>
		<polygon fill="#2C2C2C" fill-opacity="0.41" points="87.716,258.469 81.399,255.467 98.733,225.498 104.543,228.591 		"/>
		<polygon fill="#2C2C2C" fill-opacity="0.41" points="75.907,251.157 69.856,244.805 90.206,219.805 94.932,223.114 		"/>
		<polygon fill="#2C2C2C" fill-opacity="0.41" points="66.552,240.812 58.809,236.73 82.878,214.193 88.594,216.4 		"/>
		<polygon fill="#2C2C2C" fill-opacity="0.41" points="54.056,233.67 48.225,227.365 75.907,206.038 79.702,210.919 		"/>
		<polygon fill="#2C2C2C" fill-opacity="0.41" points="43.426,222.1 41.296,214.954 70.2,196.854 73.998,201.664 		"/>
		<polygon fill="#2C2C2C" fill-opacity="0.41" points="37.644,209.065 33.356,203.35 64.939,188.143 68.544,192.02 		"/>
		<polygon fill="#2C2C2C" fill-opacity="0.41" points="31.171,196.591 30.368,189.408 60.12,178.952 64.228,184.519 		"/>
		<polygon fill="#2C2C2C" fill-opacity="0.41" points="28.883,182.607 26.188,174.566 56.795,169.057 59.087,174.566 		"/>
		<polygon fill="#2C2C2C" fill-opacity="0.41" points="26.188,168.629 25.093,162.237 57.647,158.285 55.981,163.885 		"/>
		<polygon fill="#2C2C2C" fill-opacity="0.41" points="25.093,155.313 23.953,148.439 54.553,147.737 54.553,153.512 		"/>
		<polygon fill="#2C2C2C" fill-opacity="0.41" points="25.093,142.442 25.443,134.665 54.553,137.733 55.925,144.305 		"/>
		<polygon fill="#2C2C2C" fill-opacity="0.41" points="27.027,127.931 30.368,120.086 56.984,127.466 56.984,132.701 		"/>
		<polygon fill="#2C2C2C" fill-opacity="0.41" points="31.171,115.547 33.254,109.018 60.12,117.458 56.984,122.02 		"/>
		<polygon fill="#2C2C2C" fill-opacity="0.41" points="35.658,102.584 37.634,95.396 62.337,107.481 60.907,113.769 		"/>
		<polygon fill="#2C2C2C" fill-opacity="0.41" points="39.699,90.446 42.206,82.991 68.568,98.075 65.64,104.368 		"/>
		<polygon fill="#2C2C2C" fill-opacity="0.41" points="47.265,77.197 51.494,73.581 74.423,91.327 70.976,93.464 		"/>
		<polygon fill="#2C2C2C" fill-opacity="0.41" points="54.553,64.853 60.844,59.905 81.12,81.781 76.952,85.641 		"/>
		<polygon fill="#2C2C2C" fill-opacity="0.41" points="63.574,56.538 72.087,51.195 89.157,74.143 85.813,78.361 		"/>
	</g>
	<g id="movement_8_">
		<line display="none" fill="none" stroke="#2C2C2C" x1="150" y1="148" x2="300" y2="148"/>
		<line display="none" fill="none" stroke="#2C2C2C" x1="150.001" y1="148" x2="9.692" y2="94.959"/>
		<g>
			<g>
				<path fill="#FFFFFF" stroke="#2C2C2C" d="M300.504,147.299c-43.628-7.14-87.256-14.28-130.884-21.42
					c-44.599-7.299-89.197-14.598-133.797-21.896c-0.015-0.003-0.029-0.005-0.044-0.008c-0.441-0.072-2.198,0.654-1.576,0.787
					c47.646,10.171,95.293,20.341,142.94,30.512c21.218,4.529,42.437,9.059,63.655,13.588c0.525-0.263,1.051-0.524,1.576-0.787
					c-48.855-8.477-97.711-16.953-146.567-25.43c-5.671-0.984-11.342-1.968-17.013-2.952c-0.424-0.073-2.221,0.625-1.576,0.787
					c38.301,9.632,76.602,19.265,114.902,28.896c0.469-0.271,0.938-0.543,1.407-0.814c-14.303-0.327-28.605-0.655-42.908-0.982
					c-0.441-0.011-2.219,0.819-1.238,0.842c14.303,0.327,28.605,0.655,42.908,0.982c0.279,0.007,2.115-0.637,1.407-0.814
					c-38.301-9.632-76.602-19.265-114.902-28.896c-0.525,0.263-1.051,0.524-1.576,0.787c48.855,8.477,97.711,16.953,146.567,25.43
					c5.671,0.984,11.342,1.968,17.013,2.952c0.448,0.078,2.193-0.655,1.576-0.787c-47.646-10.17-95.293-20.341-142.94-30.512
					c-21.218-4.529-42.437-9.059-63.655-13.588c-0.525,0.263-1.051,0.524-1.576,0.787c43.628,7.14,87.256,14.28,130.884,21.42
					c44.599,7.299,89.197,14.598,133.797,21.896c0.015,0.003,0.029,0.005,0.044,0.008
					C299.406,148.164,301.084,147.394,300.504,147.299L300.504,147.299z"/>
				<g>
					<path fill="#FFFFFF" stroke="#2C2C2C" d="M297.123,145.677c-44.939-7.354-89.88-14.709-134.819-22.063
						c-22.955-3.757-45.91-7.514-68.865-11.271c-11.15-1.825-22.3-3.649-33.449-5.475c-2.91-0.476-28.942-5.572-29.167-3.729
						c-0.045,0.369,6.026,3.087,6.762,3.244c34.77,7.422,69.538,14.844,104.308,22.266c17.379,3.709,34.757,7.419,52.136,11.128
						c8.358,1.785,16.717,3.569,25.076,5.354c4.501,0.961,9.002,1.921,13.503,2.882c3.686,0.787,9.761,3.376,13.149,1.684
						c-1.039,0.519-5.394-3.007-6.762-3.244c-28.011-4.86-56.021-9.72-84.032-14.58c-14.331-2.486-28.662-4.973-42.993-7.459
						c-7.144-1.239-14.288-2.479-21.433-3.719c-1.85-0.321-16.523-3.66-16.698-1.837c-0.041,0.422,6.01,3.055,6.762,3.244
						c19.15,4.816,38.301,9.632,57.451,14.448c9.575,2.408,19.15,4.816,28.726,7.225c5.107,1.284,10.214,2.568,15.32,3.853
						c3.728,0.938,11.498,4.475,14.812,2.557c-1.03,0.597-5.34-3.212-6.762-3.244c-9.752-0.223-19.504-0.446-29.256-0.67
						c-4.328-0.1-10.237-1.281-14.388-0.104c-1.889,0.535,2.304,2.021,2.861,2.289c6.303,3.023,14.053,1.832,20.951,1.99
						c2.651,0.061,26.817,1.135,26.762-0.234c-0.024-0.597-5.938-3.037-6.762-3.244c-19.15-4.816-38.301-9.632-57.451-14.448
						c-9.575-2.408-19.15-4.816-28.726-7.225c-5.107-1.284-10.214-2.568-15.32-3.853c-3.953-0.994-11.337-4.404-14.981-2.584
						c1.039-0.519,5.394,3.007,6.762,3.244c28.011,4.859,56.021,9.72,84.032,14.58c14.331,2.486,28.662,4.973,42.993,7.459
						c7.144,1.239,14.288,2.479,21.433,3.719c1.87,0.324,16.466,3.709,16.698,1.837c0.046-0.366-6.027-3.087-6.762-3.244
						c-34.77-7.421-69.538-14.843-104.308-22.265c-17.379-3.71-34.757-7.42-52.136-11.129c-8.358-1.785-16.717-3.569-25.076-5.354
						c-4.501-0.961-9.002-1.921-13.503-2.882c-3.686-0.787-9.761-3.376-13.149-1.684c1.05-0.524,5.382,3.019,6.762,3.244
						c44.939,7.354,89.88,14.709,134.819,22.063c22.955,3.757,45.91,7.514,68.865,11.271c11.15,1.825,22.3,3.649,33.449,5.475
						c2.954,0.483,28.828,5.736,29.167,3.729C304.009,148.186,297.017,146.304,297.123,145.677
						c-0.341,2.019-24.412-2.95-27.199-3.407c-11.15-1.824-22.3-3.648-33.449-5.474c-22.955-3.757-45.911-7.514-68.866-11.271
						c-45.596-7.462-91.19-14.924-136.786-22.386c2.254,1.081,4.508,2.163,6.762,3.244c3.075-1.535,7.897,0.562,11.222,1.271
						c4.5,0.961,9.001,1.922,13.502,2.883c9.002,1.921,18.004,3.843,27.006,5.765c17.378,3.709,34.757,7.419,52.135,11.129
						c34.77,7.422,69.539,14.844,104.308,22.265c-2.254-1.081-4.508-2.163-6.762-3.244c-0.234,1.89-13.101-1.213-14.809-1.509
						c-7.123-1.236-14.246-2.472-21.369-3.708c-14.331-2.486-28.662-4.973-42.993-7.459c-28.662-4.973-57.323-9.946-85.985-14.919
						c2.254,1.081,4.508,2.163,6.762,3.244c3.351-1.674,9.455,1.194,13.066,2.103c5.106,1.284,10.214,2.568,15.32,3.853
						c9.575,2.408,19.15,4.816,28.726,7.225c19.789,4.977,39.578,9.953,59.366,14.93c-2.254-1.081-4.508-2.163-6.762-3.244
						c0.06,1.465-16.97,0.458-18.961,0.412c-8.451-0.193-16.903-0.387-25.354-0.58c2.254,1.081,4.508,2.163,6.762,3.244
						c-0.751-0.814,6.385-0.724,7.09-0.708c3.9,0.089,7.801,0.179,11.702,0.269c8.451,0.193,16.903,0.387,25.354,0.58
						c-2.254-1.081-4.508-2.163-6.762-3.244c-3.06,1.771-9.483-1.217-12.897-2.075c-5.106-1.284-10.214-2.568-15.32-3.853
						c-9.575-2.408-19.15-4.816-28.726-7.225c-19.789-4.977-39.578-9.953-59.366-14.93c2.254,1.081,4.508,2.163,6.762,3.244
						c0.177-1.849,13.122,1.217,14.809,1.509c7.123,1.236,14.246,2.472,21.369,3.708c14.331,2.486,28.662,4.973,42.993,7.459
						c28.662,4.973,57.323,9.946,85.985,14.919c-2.254-1.081-4.508-2.163-6.762-3.244c-3.075,1.535-7.897-0.562-11.222-1.271
						c-4.5-0.961-9.001-1.922-13.502-2.883c-9.002-1.921-18.004-3.843-27.006-5.765c-17.378-3.709-34.757-7.419-52.135-11.128
						c-34.77-7.422-69.539-14.844-104.308-22.266c2.254,1.081,4.508,2.163,6.762,3.244c0.229-1.867,24.457,2.958,27.199,3.407
						c11.15,1.824,22.3,3.649,33.449,5.474c22.955,3.757,45.911,7.514,68.866,11.271c45.596,7.462,91.19,14.924,136.786,22.386
						C301.534,148.536,299.505,146.066,297.123,145.677z"/>
				</g>
			</g>
		</g>
	</g>
</g>
</svg>
