<?xml version="1.0" encoding="utf-8"?>
<!-- Generator: Adobe Illustrator 14.0.0, SVG Export Plug-In . SVG Version: 6.00 Build 43363)  -->
<!DOCTYPE svg PUBLIC "-//W3C//DTD SVG 1.1//EN" "http://www.w3.org/Graphics/SVG/1.1/DTD/svg11.dtd">
<svg version="1.1" id="lilypad" xmlns="http://www.w3.org/2000/svg" xmlns:xlink="http://www.w3.org/1999/xlink" x="0px" y="0px"
	 width="667.164px" height="825.082px" viewBox="0 0 667.164 825.082" enable-background="new 0 0 667.164 825.082"
	 xml:space="preserve">
	 <g id="lilyroot">
	 	<g id="left-outer">
	<line fill="none" stroke="#FFFFFF" stroke-width="1.75" x1="372.225" y1="178.65" x2="372.058" y2="179.917"/>
	<line fill="none" stroke="#FFFFFF" stroke-width="1.75" x1="388.277" y1="181.206" x2="387.662" y2="184.527"/>
	<line fill="none" stroke="#FFFFFF" stroke-width="1.75" x1="403.214" y1="184.369" x2="401.462" y2="191.756"/>
	<line fill="none" stroke="#FFFFFF" stroke-width="1.75" x1="416.911" y1="187.971" x2="413.938" y2="198.35"/>
	<line fill="none" stroke="#FFFFFF" stroke-width="1.75" x1="431.373" y1="192.519" x2="426.245" y2="207.574"/>
	<line fill="none" stroke="#FFFFFF" stroke-width="1.75" x1="446.905" y1="198.292" x2="439.248" y2="217.346"/>
	<line fill="none" stroke="#FFFFFF" stroke-width="1.75" x1="459.812" y1="205.631" x2="449.566" y2="227.957"/>
	<line fill="none" stroke="#FFFFFF" stroke-width="1.75" x1="475.108" y1="211.36" x2="459.593" y2="240.929"/>
	<line fill="none" stroke="#FFFFFF" stroke-width="1.75" x1="488.426" y1="218.794" x2="467.874" y2="253.648"/>
	<line fill="none" stroke="#FFFFFF" stroke-width="1.75" x1="500.963" y1="226.598" x2="474.423" y2="267.038"/>
	<line fill="none" stroke="#FFFFFF" stroke-width="1.75" x1="514.147" y1="235.778" x2="480.078" y2="282.214"/>
	<line fill="none" stroke="#FFFFFF" stroke-width="1.75" x1="525.838" y1="244.817" x2="483.078" y2="295.214"/>
	<line fill="none" stroke="#FFFFFF" stroke-width="1.75" x1="537.419" y1="254.706" x2="486.279" y2="311.792"/>
	<line fill="none" stroke="#FFFFFF" stroke-width="1.75" x1="549.403" y1="266.06" x2="487.543" y2="328.074"/>
	<line fill="none" stroke="#FFFFFF" stroke-width="1.75" x1="560.764" y1="278.04" x2="487.817" y2="343.711"/>
	<line fill="none" stroke="#FFFFFF" stroke-width="1.75" x1="571.465" y1="290.612" x2="485.691" y2="359.876"/>
	<line fill="none" stroke="#FFFFFF" stroke-width="1.75" x1="581.476" y1="303.74" x2="481.573" y2="375.916"/>
	<line fill="none" stroke="#FFFFFF" stroke-width="1.75" x1="590.768" y1="317.387" x2="475.716" y2="391.453"/>
	<line fill="none" stroke="#FFFFFF" stroke-width="1.75" x1="599.313" y1="331.511" x2="469.447" y2="405.579"/>
	<line fill="none" stroke="#FFFFFF" stroke-width="1.75" x1="607.09" y1="346.074" x2="460.782" y2="419.413"/>
	<line fill="none" stroke="#FFFFFF" stroke-width="1.75" x1="614.074" y1="361.033" x2="450.693" y2="432.237"/>
	<line fill="none" stroke="#FFFFFF" stroke-width="1.75" x1="620.247" y1="376.346" x2="438.396" y2="444.243"/>
	<line fill="none" stroke="#FFFFFF" stroke-width="1.75" x1="625.59" y1="391.967" x2="426.02" y2="454.506"/>
	<line fill="none" stroke="#FFFFFF" stroke-width="1.75" x1="630.086" y1="407.852" x2="410.818" y2="463.844"/>
	<line fill="none" stroke="#FFFFFF" stroke-width="1.75" x1="633.724" y1="423.955" x2="394.243" y2="471.591"/>
	<line fill="none" stroke="#FFFFFF" stroke-width="1.75" x1="636.493" y1="440.231" x2="331.716" y2="484.017"/>
	<line fill="none" stroke="#FFFFFF" stroke-width="1.75" x1="638.385" y1="456.632" x2="331.698" y2="484.008"/>
	<line fill="none" stroke="#FFFFFF" stroke-width="1.75" x1="639.394" y1="473.11" x2="331.682" y2="483.997"/>
	<line fill="none" stroke="#FFFFFF" stroke-width="1.75" x1="639.518" y1="489.619" x2="331.664" y2="483.986"/>
	<line fill="none" stroke="#FFFFFF" stroke-width="1.75" x1="638.757" y1="506.111" x2="331.648" y2="483.974"/>
	<line fill="none" stroke="#FFFFFF" stroke-width="1.75" x1="637.112" y1="522.538" x2="331.634" y2="483.96"/>
	<line fill="none" stroke="#FFFFFF" stroke-width="1.75" x1="634.588" y1="538.854" x2="331.618" y2="483.947"/>
	<line fill="none" stroke="#FFFFFF" stroke-width="1.75" x1="631.194" y1="555.012" x2="331.604" y2="483.933"/>
	<line fill="none" stroke="#FFFFFF" stroke-width="1.75" x1="626.937" y1="570.963" x2="331.591" y2="483.917"/>
	<line fill="none" stroke="#FFFFFF" stroke-width="1.75" x1="621.831" y1="586.662" x2="331.58" y2="483.9"/>
	<line fill="none" stroke="#FFFFFF" stroke-width="1.75" x1="615.889" y1="602.065" x2="331.568" y2="483.884"/>
	<line fill="none" stroke="#FFFFFF" stroke-width="1.75" x1="609.131" y1="617.128" x2="331.558" y2="483.866"/>
	<line fill="none" stroke="#FFFFFF" stroke-width="1.75" x1="601.575" y1="631.806" x2="331.547" y2="483.848"/>
	<line fill="none" stroke="#FFFFFF" stroke-width="1.75" x1="593.24" y1="646.058" x2="331.538" y2="483.829"/>
	<line fill="none" stroke="#FFFFFF" stroke-width="1.75" x1="584.154" y1="659.842" x2="331.531" y2="483.81"/>
	<line fill="none" stroke="#FFFFFF" stroke-width="1.75" x1="574.343" y1="673.12" x2="331.525" y2="483.791"/>
	<line fill="none" stroke="#FFFFFF" stroke-width="1.75" x1="563.833" y1="685.852" x2="331.52" y2="483.771"/>
	<line fill="none" stroke="#FFFFFF" stroke-width="1.75" x1="552.655" y1="698.002" x2="331.516" y2="483.752"/>
	<line fill="none" stroke="#FFFFFF" stroke-width="1.75" x1="540.843" y1="709.535" x2="331.512" y2="483.73"/>
	<line fill="none" stroke="#FFFFFF" stroke-width="1.75" x1="528.427" y1="720.418" x2="331.511" y2="483.71"/>
	<line fill="none" stroke="#FFFFFF" stroke-width="1.75" x1="515.446" y1="730.618" x2="331.51" y2="483.689"/>
	<line fill="none" stroke="#FFFFFF" stroke-width="1.75" x1="501.937" y1="740.109" x2="331.511" y2="483.669"/>
	<line fill="none" stroke="#FFFFFF" stroke-width="1.75" x1="487.938" y1="748.86" x2="331.511" y2="483.649"/>
	<line fill="none" stroke="#FFFFFF" stroke-width="1.75" x1="473.489" y1="756.85" x2="331.513" y2="483.629"/>
	<line fill="none" stroke="#FFFFFF" stroke-width="1.75" x1="458.633" y1="764.051" x2="331.517" y2="483.608"/>
	<line fill="none" stroke="#FFFFFF" stroke-width="1.75" x1="443.412" y1="770.445" x2="331.52" y2="483.59"/>
	<line fill="none" stroke="#FFFFFF" stroke-width="1.75" x1="427.871" y1="776.015" x2="331.526" y2="483.571"/>
	<line fill="none" stroke="#FFFFFF" stroke-width="1.75" x1="412.054" y1="780.742" x2="331.531" y2="483.552"/>
	<line fill="none" stroke="#FFFFFF" stroke-width="1.75" x1="396.005" y1="784.615" x2="331.539" y2="483.532"/>
	<line fill="none" stroke="#FFFFFF" stroke-width="1.75" x1="379.771" y1="787.62" x2="331.548" y2="483.514"/>
	<line fill="none" stroke="#FFFFFF" stroke-width="1.75" x1="363.399" y1="789.752" x2="331.558" y2="483.496"/>
	<line fill="none" stroke="#FFFFFF" stroke-width="1.75" x1="346.938" y1="791.001" x2="331.567" y2="483.479"/>
	<line fill="none" stroke="#FFFFFF" stroke-width="1.75" x1="330.432" y1="791.366" x2="331.579" y2="483.462"/>
	<line fill="none" stroke="#FFFFFF" stroke-width="1.75" x1="313.931" y1="790.846" x2="331.59" y2="483.445"/>
	<line fill="none" stroke="#FFFFFF" stroke-width="1.75" x1="297.481" y1="789.439" x2="331.604" y2="483.43"/>
	<line fill="none" stroke="#FFFFFF" stroke-width="1.75" x1="281.13" y1="787.153" x2="331.617" y2="483.414"/>
	<line fill="none" stroke="#FFFFFF" stroke-width="1.75" x1="264.927" y1="783.995" x2="331.632" y2="483.4"/>
	<line fill="none" stroke="#FFFFFF" stroke-width="1.75" x1="248.915" y1="779.971" x2="331.647" y2="483.387"/>
	<line fill="none" stroke="#FFFFFF" stroke-width="1.75" x1="233.142" y1="775.095" x2="331.663" y2="483.375"/>
	<line fill="none" stroke="#FFFFFF" stroke-width="1.75" x1="217.654" y1="769.378" x2="331.681" y2="483.362"/>
	<line fill="none" stroke="#FFFFFF" stroke-width="1.75" x1="202.495" y1="762.839" x2="331.698" y2="483.352"/>
	<line fill="none" stroke="#FFFFFF" stroke-width="1.75" x1="187.707" y1="755.496" x2="331.716" y2="483.342"/>
	<line fill="none" stroke="#FFFFFF" stroke-width="1.75" x1="173.335" y1="747.372" x2="331.734" y2="483.333"/>
	<line fill="none" stroke="#FFFFFF" stroke-width="1.75" x1="159.42" y1="738.488" x2="331.754" y2="483.324"/>
	<line fill="none" stroke="#FFFFFF" stroke-width="1.75" x1="146" y1="728.87" x2="331.771" y2="483.318"/>
	<line fill="none" stroke="#FFFFFF" stroke-width="1.75" x1="133.117" y1="718.547" x2="331.792" y2="483.312"/>
	<line fill="none" stroke="#FFFFFF" stroke-width="1.75" x1="120.806" y1="707.546" x2="331.812" y2="483.307"/>
	<line fill="none" stroke="#FFFFFF" stroke-width="1.75" x1="109.103" y1="695.902" x2="331.832" y2="483.304"/>
	<line fill="none" stroke="#FFFFFF" stroke-width="1.75" x1="98.04" y1="683.647" x2="331.853" y2="483.301"/>
	<line fill="none" stroke="#FFFFFF" stroke-width="1.75" x1="87.65" y1="670.816" x2="331.873" y2="483.299"/>
	<line fill="none" stroke="#FFFFFF" stroke-width="1.75" x1="77.965" y1="657.446" x2="331.893" y2="483.299"/>
	<line fill="none" stroke="#FFFFFF" stroke-width="1.75" x1="69.011" y1="643.576" x2="331.914" y2="483.299"/>
	<line fill="none" stroke="#FFFFFF" stroke-width="1.75" x1="60.812" y1="629.247" x2="331.934" y2="483.301"/>
	<line fill="none" stroke="#FFFFFF" stroke-width="1.75" x1="53.396" y1="614.497" x2="331.954" y2="483.304"/>
	<line fill="none" stroke="#FFFFFF" stroke-width="1.75" x1="46.779" y1="599.371" x2="331.975" y2="483.308"/>
	<line fill="none" stroke="#FFFFFF" stroke-width="1.75" x1="40.983" y1="583.913" x2="331.995" y2="483.312"/>
	<line fill="none" stroke="#FFFFFF" stroke-width="1.75" x1="36.026" y1="568.165" x2="332.014" y2="483.318"/>
	<line fill="none" stroke="#FFFFFF" stroke-width="1.75" x1="31.921" y1="552.175" x2="332.032" y2="483.325"/>
	<line fill="none" stroke="#FFFFFF" stroke-width="1.75" x1="28.679" y1="535.987" x2="332.052" y2="483.333"/>
	<line fill="none" stroke="#FFFFFF" stroke-width="1.75" x1="26.311" y1="519.648" x2="332.07" y2="483.343"/>
	<line fill="none" stroke="#FFFFFF" stroke-width="1.75" x1="24.82" y1="503.207" x2="332.088" y2="483.354"/>
	<line fill="none" stroke="#FFFFFF" stroke-width="1.75" x1="24.215" y1="486.708" x2="332.105" y2="483.364"/>
	<line fill="none" stroke="#FFFFFF" stroke-width="1.75" x1="24.496" y1="470.2" x2="332.122" y2="483.376"/>
	<line fill="none" stroke="#FFFFFF" stroke-width="1.75" x1="25.661" y1="453.732" x2="332.139" y2="483.389"/>
	<line fill="none" stroke="#FFFFFF" stroke-width="1.75" x1="27.708" y1="437.351" x2="332.154" y2="483.402"/>
	<line fill="none" stroke="#FFFFFF" stroke-width="1.75" x1="30.631" y1="421.102" x2="269.918" y2="470.552"/>
	<line fill="none" stroke="#FFFFFF" stroke-width="1.75" x1="35.365" y1="401.541" x2="249.918" y2="460.552"/>
	<line fill="none" stroke="#FFFFFF" stroke-width="1.75" x1="40.197" y1="385.756" x2="237.749" y2="451.849"/>
	<line fill="none" stroke="#FFFFFF" stroke-width="1.75" x1="45.87" y1="370.25" x2="225.128" y2="441.127"/>
	<line fill="none" stroke="#FFFFFF" stroke-width="1.75" x1="52.365" y1="355.072" x2="213.738" y2="429.118"/>
	<line fill="none" stroke="#FFFFFF" stroke-width="1.75" x1="59.665" y1="340.266" x2="203.555" y2="415.88"/>
	<line fill="none" stroke="#FFFFFF" stroke-width="1.75" x1="67.749" y1="325.87" x2="195.376" y2="401.941"/>
	<line fill="none" stroke="#FFFFFF" stroke-width="1.75" x1="76.595" y1="311.929" x2="188.713" y2="387.189"/>
	<line fill="none" stroke="#FFFFFF" stroke-width="1.75" x1="86.174" y1="298.483" x2="183.593" y2="371.753"/>
	<line fill="none" stroke="#FFFFFF" stroke-width="1.75" x1="96.46" y1="285.57" x2="180.673" y2="356.286"/>
	<line fill="none" stroke="#FFFFFF" stroke-width="1.75" x1="107.425" y1="273.228" x2="179.203" y2="340.387"/>
	<line fill="none" stroke="#FFFFFF" stroke-width="1.75" x1="116.441" y1="264.011" x2="177.676" y2="326.317"/>
	<line fill="none" stroke="#FFFFFF" stroke-width="1.75" x1="128.535" y1="252.77" x2="180.334" y2="300.167"/>
	<line fill="none" stroke="#FFFFFF" stroke-width="1.75" x1="141.212" y1="242.195" x2="182.334" y2="294.167"/>
	<line fill="none" stroke="#FFFFFF" stroke-width="1.75" x1="153.64" y1="232.885" x2="186.556" y2="279.099"/>
	<line fill="none" stroke="#FFFFFF" stroke-width="1.75" x1="165.836" y1="224.647" x2="191.999" y2="265.369"/>
	<line fill="none" stroke="#FFFFFF" stroke-width="1.75" x1="179.193" y1="216.559" x2="198.951" y2="251.04"/>
	<line fill="none" stroke="#FFFFFF" stroke-width="1.75" x1="192.377" y1="209.444" x2="207.264" y2="238.633"/>
	<line fill="none" stroke="#FFFFFF" stroke-width="1.75" x1="206.848" y1="202.55" x2="217.187" y2="225.735"/>
	<line fill="none" stroke="#FFFFFF" stroke-width="1.75" x1="221.105" y1="196.64" x2="228.508" y2="215.758"/>
	<line fill="none" stroke="#FFFFFF" stroke-width="1.75" x1="235.169" y1="191.61" x2="239.853" y2="205.704"/>
	<line fill="none" stroke="#FFFFFF" stroke-width="1.75" x1="250.428" y1="186.991" x2="253.255" y2="197.247"/>
	<line fill="none" stroke="#FFFFFF" stroke-width="1.75" x1="264.604" y1="183.452" x2="265.98" y2="189.566"/>
	<line fill="none" stroke="#FFFFFF" stroke-width="1.75" x1="279.982" y1="180.414" x2="280.461" y2="183.194"/>
</g>
<g id="right-outer">
	<line fill="none" stroke="#FAFAFA" stroke-width="1.75" x1="638.784" y1="368.438" x2="637.517" y2="368.271"/>
	<line fill="none" stroke="#FAFAFA" stroke-width="1.75" x1="636.228" y1="384.491" x2="632.908" y2="383.876"/>
	<line fill="none" stroke="#FAFAFA" stroke-width="1.75" x1="633.066" y1="399.428" x2="625.679" y2="397.676"/>
	<line fill="none" stroke="#FAFAFA" stroke-width="1.75" x1="629.465" y1="413.125" x2="619.085" y2="410.151"/>
	<line fill="none" stroke="#FAFAFA" stroke-width="1.75" x1="624.915" y1="427.587" x2="609.861" y2="422.459"/>
	<line fill="none" stroke="#FAFAFA" stroke-width="1.75" x1="619.143" y1="443.119" x2="600.089" y2="435.462"/>
	<line fill="none" stroke="#FAFAFA" stroke-width="1.75" x1="611.804" y1="456.025" x2="589.479" y2="445.78"/>
	<line fill="none" stroke="#FAFAFA" stroke-width="1.75" x1="606.075" y1="471.322" x2="576.506" y2="455.807"/>
	<line fill="none" stroke="#FAFAFA" stroke-width="1.75" x1="598.641" y1="484.64" x2="563.785" y2="464.088"/>
	<line fill="none" stroke="#FAFAFA" stroke-width="1.75" x1="590.838" y1="497.177" x2="550.396" y2="470.637"/>
	<line fill="none" stroke="#FAFAFA" stroke-width="1.75" x1="581.656" y1="510.361" x2="535.221" y2="476.292"/>
	<line fill="none" stroke="#FAFAFA" stroke-width="1.75" x1="572.617" y1="522.052" x2="515.221" y2="479.292"/>
	<line fill="none" stroke="#FAFAFA" stroke-width="1.75" x1="562.729" y1="533.633" x2="505.642" y2="482.493"/>
	<line fill="none" stroke="#FAFAFA" stroke-width="1.75" x1="551.374" y1="545.617" x2="489.361" y2="483.757"/>
	<line fill="none" stroke="#FAFAFA" stroke-width="1.75" x1="539.395" y1="556.979" x2="473.725" y2="484.032"/>
	<line fill="none" stroke="#FAFAFA" stroke-width="1.75" x1="526.822" y1="567.679" x2="457.56" y2="481.906"/>
	<line fill="none" stroke="#FAFAFA" stroke-width="1.75" x1="513.695" y1="577.689" x2="441.52" y2="477.787"/>
	<line fill="none" stroke="#FAFAFA" stroke-width="1.75" x1="500.048" y1="586.981" x2="425.982" y2="471.93"/>
	<line fill="none" stroke="#FAFAFA" stroke-width="1.75" x1="485.924" y1="595.528" x2="411.856" y2="465.661"/>
	<line fill="none" stroke="#FAFAFA" stroke-width="1.75" x1="471.361" y1="603.305" x2="398.021" y2="456.996"/>
	<line fill="none" stroke="#FAFAFA" stroke-width="1.75" x1="456.401" y1="610.289" x2="385.198" y2="446.907"/>
	<line fill="none" stroke="#FAFAFA" stroke-width="1.75" x1="441.089" y1="616.461" x2="373.192" y2="434.609"/>
	<line fill="none" stroke="#FAFAFA" stroke-width="1.75" x1="425.469" y1="621.804" x2="362.93" y2="422.233"/>
	<line fill="none" stroke="#FAFAFA" stroke-width="1.75" x1="409.583" y1="626.3" x2="353.591" y2="407.032"/>
	<line fill="none" stroke="#FAFAFA" stroke-width="1.75" x1="393.479" y1="629.938" x2="345.844" y2="390.457"/>
	<line fill="none" stroke="#FAFAFA" stroke-width="1.75" x1="377.203" y1="632.707" x2="333.417" y2="327.93"/>
	<line fill="none" stroke="#FAFAFA" stroke-width="1.75" x1="360.803" y1="634.599" x2="333.427" y2="327.912"/>
	<line fill="none" stroke="#FAFAFA" stroke-width="1.75" x1="344.324" y1="635.607" x2="333.438" y2="327.896"/>
	<line fill="none" stroke="#FAFAFA" stroke-width="1.75" x1="327.815" y1="635.731" x2="333.448" y2="327.878"/>
	<line fill="none" stroke="#FAFAFA" stroke-width="1.75" x1="311.323" y1="634.971" x2="333.461" y2="327.862"/>
	<line fill="none" stroke="#FAFAFA" stroke-width="1.75" x1="294.896" y1="633.326" x2="333.474" y2="327.848"/>
	<line fill="none" stroke="#FAFAFA" stroke-width="1.75" x1="278.58" y1="630.802" x2="333.487" y2="327.832"/>
	<line fill="none" stroke="#FAFAFA" stroke-width="1.75" x1="262.424" y1="627.408" x2="333.502" y2="327.818"/>
	<line fill="none" stroke="#FAFAFA" stroke-width="1.75" x1="246.472" y1="623.15" x2="333.518" y2="327.805"/>
	<line fill="none" stroke="#FAFAFA" stroke-width="1.75" x1="230.773" y1="618.045" x2="333.534" y2="327.794"/>
	<line fill="none" stroke="#FAFAFA" stroke-width="1.75" x1="215.369" y1="612.103" x2="333.551" y2="327.782"/>
	<line fill="none" stroke="#FAFAFA" stroke-width="1.75" x1="200.307" y1="605.345" x2="333.568" y2="327.771"/>
	<line fill="none" stroke="#FAFAFA" stroke-width="1.75" x1="185.628" y1="597.789" x2="333.587" y2="327.761"/>
	<line fill="none" stroke="#FAFAFA" stroke-width="1.75" x1="171.377" y1="589.454" x2="333.605" y2="327.752"/>
	<line fill="none" stroke="#FAFAFA" stroke-width="1.75" x1="157.593" y1="580.368" x2="333.624" y2="327.745"/>
	<line fill="none" stroke="#FAFAFA" stroke-width="1.75" x1="144.314" y1="570.557" x2="333.644" y2="327.739"/>
	<line fill="none" stroke="#FAFAFA" stroke-width="1.75" x1="131.583" y1="560.047" x2="333.664" y2="327.733"/>
	<line fill="none" stroke="#FAFAFA" stroke-width="1.75" x1="119.433" y1="548.869" x2="333.683" y2="327.729"/>
	<line fill="none" stroke="#FAFAFA" stroke-width="1.75" x1="107.9" y1="537.057" x2="333.704" y2="327.726"/>
	<line fill="none" stroke="#FAFAFA" stroke-width="1.75" x1="97.018" y1="524.641" x2="333.725" y2="327.725"/>
	<line fill="none" stroke="#FAFAFA" stroke-width="1.75" x1="86.816" y1="511.66" x2="333.745" y2="327.724"/>
	<line fill="none" stroke="#FAFAFA" stroke-width="1.75" x1="77.326" y1="498.151" x2="333.766" y2="327.725"/>
	<line fill="none" stroke="#FAFAFA" stroke-width="1.75" x1="68.574" y1="484.152" x2="333.786" y2="327.725"/>
	<line fill="none" stroke="#FAFAFA" stroke-width="1.75" x1="60.586" y1="469.703" x2="333.806" y2="327.727"/>
	<line fill="none" stroke="#FAFAFA" stroke-width="1.75" x1="53.384" y1="454.847" x2="333.826" y2="327.73"/>
	<line fill="none" stroke="#FAFAFA" stroke-width="1.75" x1="46.99" y1="439.626" x2="333.845" y2="327.734"/>
	<line fill="none" stroke="#FAFAFA" stroke-width="1.75" x1="41.42" y1="424.085" x2="333.864" y2="327.74"/>
	<line fill="none" stroke="#FAFAFA" stroke-width="1.75" x1="36.692" y1="408.268" x2="333.884" y2="327.745"/>
	<line fill="none" stroke="#FAFAFA" stroke-width="1.75" x1="32.82" y1="392.219" x2="333.902" y2="327.753"/>
	<line fill="none" stroke="#FAFAFA" stroke-width="1.75" x1="29.814" y1="375.984" x2="333.92" y2="327.762"/>
	<line fill="none" stroke="#FAFAFA" stroke-width="1.75" x1="27.684" y1="359.613" x2="333.938" y2="327.771"/>
	<line fill="none" stroke="#FAFAFA" stroke-width="1.75" x1="26.434" y1="343.151" x2="333.956" y2="327.781"/>
	<line fill="none" stroke="#FAFAFA" stroke-width="1.75" x1="26.068" y1="326.646" x2="333.973" y2="327.793"/>
	<line fill="none" stroke="#FAFAFA" stroke-width="1.75" x1="26.59" y1="310.145" x2="333.99" y2="327.804"/>
	<line fill="none" stroke="#FAFAFA" stroke-width="1.75" x1="27.996" y1="293.695" x2="334.006" y2="327.817"/>
	<line fill="none" stroke="#FAFAFA" stroke-width="1.75" x1="30.281" y1="277.344" x2="334.021" y2="327.831"/>
	<line fill="none" stroke="#FAFAFA" stroke-width="1.75" x1="33.439" y1="261.141" x2="334.034" y2="327.846"/>
	<line fill="none" stroke="#FAFAFA" stroke-width="1.75" x1="37.464" y1="245.129" x2="334.049" y2="327.861"/>
	<line fill="none" stroke="#FAFAFA" stroke-width="1.75" x1="42.341" y1="229.355" x2="334.061" y2="327.877"/>
	<line fill="none" stroke="#FAFAFA" stroke-width="1.75" x1="48.058" y1="213.867" x2="334.072" y2="327.895"/>
	<line fill="none" stroke="#FAFAFA" stroke-width="1.75" x1="54.597" y1="198.709" x2="334.083" y2="327.912"/>
	<line fill="none" stroke="#FAFAFA" stroke-width="1.75" x1="61.939" y1="183.921" x2="334.093" y2="327.93"/>
	<line fill="none" stroke="#FAFAFA" stroke-width="1.75" x1="70.063" y1="169.549" x2="334.102" y2="327.948"/>
	<line fill="none" stroke="#FAFAFA" stroke-width="1.75" x1="78.947" y1="155.634" x2="334.109" y2="327.968"/>
	<line fill="none" stroke="#FAFAFA" stroke-width="1.75" x1="88.565" y1="142.214" x2="334.116" y2="327.985"/>
	<line fill="none" stroke="#FAFAFA" stroke-width="1.75" x1="98.889" y1="129.331" x2="334.122" y2="328.006"/>
	<line fill="none" stroke="#FAFAFA" stroke-width="1.75" x1="109.889" y1="117.02" x2="334.127" y2="328.025"/>
	<line fill="none" stroke="#FAFAFA" stroke-width="1.75" x1="121.532" y1="105.316" x2="334.131" y2="328.046"/>
	<line fill="none" stroke="#FAFAFA" stroke-width="1.75" x1="133.787" y1="94.254" x2="334.133" y2="328.066"/>
	<line fill="none" stroke="#FAFAFA" stroke-width="1.75" x1="146.618" y1="83.864" x2="334.136" y2="328.086"/>
	<line fill="none" stroke="#FAFAFA" stroke-width="1.75" x1="159.987" y1="74.179" x2="334.136" y2="328.106"/>
	<line fill="none" stroke="#FAFAFA" stroke-width="1.75" x1="173.857" y1="65.225" x2="334.136" y2="328.128"/>
	<line fill="none" stroke="#FAFAFA" stroke-width="1.75" x1="188.188" y1="57.026" x2="334.133" y2="328.148"/>
	<line fill="none" stroke="#FAFAFA" stroke-width="1.75" x1="202.937" y1="49.609" x2="334.131" y2="328.168"/>
	<line fill="none" stroke="#FAFAFA" stroke-width="1.75" x1="218.062" y1="42.993" x2="334.127" y2="328.188"/>
	<line fill="none" stroke="#FAFAFA" stroke-width="1.75" x1="233.522" y1="37.197" x2="334.122" y2="328.209"/>
	<line fill="none" stroke="#FAFAFA" stroke-width="1.75" x1="249.27" y1="32.24" x2="334.115" y2="328.228"/>
	<line fill="none" stroke="#FAFAFA" stroke-width="1.75" x1="265.26" y1="28.135" x2="334.109" y2="328.246"/>
	<line fill="none" stroke="#FAFAFA" stroke-width="1.75" x1="281.447" y1="24.893" x2="334.101" y2="328.266"/>
	<line fill="none" stroke="#FAFAFA" stroke-width="1.75" x1="297.787" y1="22.524" x2="334.092" y2="328.284"/>
	<line fill="none" stroke="#FAFAFA" stroke-width="1.75" x1="314.228" y1="21.034" x2="334.081" y2="328.302"/>
	<line fill="none" stroke="#FAFAFA" stroke-width="1.75" x1="330.727" y1="20.429" x2="334.069" y2="328.319"/>
	<line fill="none" stroke="#FAFAFA" stroke-width="1.75" x1="347.234" y1="20.71" x2="334.06" y2="328.336"/>
	<line fill="none" stroke="#FAFAFA" stroke-width="1.75" x1="363.702" y1="21.875" x2="334.046" y2="328.353"/>
	<line fill="none" stroke="#FAFAFA" stroke-width="1.75" x1="380.084" y1="23.922" x2="334.033" y2="328.368"/>
	<line fill="none" stroke="#FAFAFA" stroke-width="1.75" x1="396.333" y1="26.845" x2="346.882" y2="266.132"/>
	<line fill="none" stroke="#FAFAFA" stroke-width="1.75" x1="415.894" y1="31.579" x2="354.882" y2="246.132"/>
	<line fill="none" stroke="#FAFAFA" stroke-width="1.75" x1="431.679" y1="36.411" x2="365.586" y2="233.963"/>
	<line fill="none" stroke="#FAFAFA" stroke-width="1.75" x1="447.185" y1="42.085" x2="376.307" y2="221.342"/>
	<line fill="none" stroke="#FAFAFA" stroke-width="1.75" x1="462.362" y1="48.579" x2="388.316" y2="209.952"/>
	<line fill="none" stroke="#FAFAFA" stroke-width="1.75" x1="477.169" y1="55.879" x2="401.555" y2="199.769"/>
	<line fill="none" stroke="#FAFAFA" stroke-width="1.75" x1="491.565" y1="63.963" x2="415.493" y2="191.59"/>
	<line fill="none" stroke="#FAFAFA" stroke-width="1.75" x1="505.506" y1="72.809" x2="430.245" y2="184.927"/>
	<line fill="none" stroke="#FAFAFA" stroke-width="1.75" x1="518.952" y1="82.388" x2="445.683" y2="179.807"/>
	<line fill="none" stroke="#FAFAFA" stroke-width="1.75" x1="531.864" y1="92.674" x2="461.147" y2="176.887"/>
	<line fill="none" stroke="#FAFAFA" stroke-width="1.75" x1="544.207" y1="103.639" x2="477.048" y2="175.416"/>
	<line fill="none" stroke="#FAFAFA" stroke-width="1.75" x1="553.425" y1="112.655" x2="491.116" y2="173.889"/>
	<line fill="none" stroke="#FAFAFA" stroke-width="1.75" x1="564.665" y1="124.749" x2="491.116" y2="176.889"/>
	<line fill="none" stroke="#FAFAFA" stroke-width="1.75" x1="575.238" y1="137.426" x2="523.269" y2="178.548"/>
	<line fill="none" stroke="#FAFAFA" stroke-width="1.75" x1="584.55" y1="149.854" x2="538.336" y2="182.771"/>
	<line fill="none" stroke="#FAFAFA" stroke-width="1.75" x1="592.787" y1="162.05" x2="552.065" y2="188.213"/>
	<line fill="none" stroke="#FAFAFA" stroke-width="1.75" x1="600.877" y1="175.407" x2="566.395" y2="195.165"/>
	<line fill="none" stroke="#FAFAFA" stroke-width="1.75" x1="607.99" y1="188.591" x2="578.803" y2="203.478"/>
	<line fill="none" stroke="#FAFAFA" stroke-width="1.75" x1="614.885" y1="203.062" x2="591.699" y2="213.4"/>
	<line fill="none" stroke="#FAFAFA" stroke-width="1.75" x1="620.795" y1="217.319" x2="601.677" y2="224.722"/>
	<line fill="none" stroke="#FAFAFA" stroke-width="1.75" x1="625.824" y1="231.383" x2="611.731" y2="236.066"/>
	<line fill="none" stroke="#FAFAFA" stroke-width="1.75" x1="630.444" y1="246.641" x2="620.187" y2="249.469"/>
	<line fill="none" stroke="#FAFAFA" stroke-width="1.75" x1="633.983" y1="260.817" x2="627.869" y2="262.194"/>
	<line fill="none" stroke="#FAFAFA" stroke-width="1.75" x1="637.02" y1="276.196" x2="634.24" y2="276.675"/>
</g>
<g id="left-lily">
	<line fill="none" stroke="#d50000" stroke-width="1.75" x1="325.8" y1="176.052" x2="332.196" y2="483.889"/>
	<line fill="none" stroke="#d50000" stroke-width="1.75" x1="342.31" y1="176.168" x2="332.185" y2="483.905"/>
	<line fill="none" stroke="#d50000" stroke-width="1.75" x1="356.673" y1="176.994" x2="332.172" y2="483.921"/>
	<line fill="none" stroke="#d50000" stroke-width="1.75" x1="372.058" y1="179.917" x2="332.159" y2="483.936"/>
	<line fill="none" stroke="#d50000" stroke-width="1.75" x1="387.662" y1="184.527" x2="332.145" y2="483.95"/>
	<line fill="none" stroke="#d50000" stroke-width="1.75" x1="401.462" y1="191.756" x2="332.13" y2="483.963"/>
	<line fill="none" stroke="#d50000" stroke-width="1.75" x1="413.938" y1="198.35" x2="332.113" y2="483.977"/>
	<line fill="none" stroke="#d50000" stroke-width="1.75" x1="426.245" y1="207.574" x2="332.098" y2="483.987"/>
	<line fill="none" stroke="#d50000" stroke-width="1.75" x1="439.248" y1="217.346" x2="332.089" y2="483.996"/>
	<line fill="none" stroke="#d50000" stroke-width="1.75" x1="449.566" y1="227.957" x2="332.064" y2="484.009"/>
	<line fill="none" stroke="#d50000" stroke-width="1.75" x1="459.593" y1="240.929" x2="332.046" y2="484.019"/>
	<line fill="none" stroke="#d50000" stroke-width="1.75" x1="467.874" y1="253.648" x2="332.03" y2="484.02"/>
	<line fill="none" stroke="#d50000" stroke-width="1.75" x1="474.423" y1="267.038" x2="332.03" y2="484.02"/>
	<line fill="none" stroke="#d50000" stroke-width="1.75" x1="480.078" y1="282.214" x2="332.009" y2="484.033"/>
	<line fill="none" stroke="#d50000" stroke-width="1.75" x1="483.555" y1="296.998" x2="331.989" y2="484.04"/>
	<line fill="none" stroke="#d50000" stroke-width="1.75" x1="486.279" y1="311.792" x2="331.971" y2="484.046"/>
	<line fill="none" stroke="#d50000" stroke-width="1.75" x1="487.543" y1="328.074" x2="331.952" y2="484.05"/>
	<line fill="none" stroke="#d50000" stroke-width="1.75" x1="487.817" y1="343.711" x2="331.932" y2="484.052"/>
	<line fill="none" stroke="#d50000" stroke-width="1.75" x1="485.691" y1="359.876" x2="331.91" y2="484.055"/>
	<line fill="none" stroke="#d50000" stroke-width="1.75" x1="481.573" y1="375.916" x2="331.891" y2="484.057"/>
	<line fill="none" stroke="#d50000" stroke-width="1.75" x1="475.716" y1="391.453" x2="331.871" y2="484.057"/>
	<line fill="none" stroke="#d50000" stroke-width="1.75" x1="469.447" y1="405.579" x2="331.852" y2="484.055"/>
	<line fill="none" stroke="#d50000" stroke-width="1.75" x1="460.782" y1="419.413" x2="331.831" y2="484.052"/>
	<line fill="none" stroke="#d50000" stroke-width="1.75" x1="450.693" y1="432.237" x2="331.811" y2="484.049"/>
	<line fill="none" stroke="#d50000" stroke-width="1.75" x1="438.396" y1="444.243" x2="331.792" y2="484.045"/>
	<line fill="none" stroke="#d50000" stroke-width="1.75" x1="426.02" y1="454.506" x2="331.771" y2="484.039"/>
	<line fill="none" stroke="#d50000" stroke-width="1.75" x1="410.818" y1="463.844" x2="331.754" y2="484.032"/>
	<line fill="none" stroke="#d50000" stroke-width="1.75" x1="394.243" y1="471.591" x2="331.734" y2="484.025"/>
	<line fill="none" stroke="#d50000" stroke-width="1.75" x1="269.918" y1="470.552" x2="332.168" y2="483.417"/>
	<line fill="none" stroke="#d50000" stroke-width="1.75" x1="252.006" y1="461.311" x2="332.168" y2="483.427"/>
	<line fill="none" stroke="#d50000" stroke-width="1.75" x1="237.749" y1="451.849" x2="332.196" y2="483.447"/>
	<line fill="none" stroke="#d50000" stroke-width="1.75" x1="225.128" y1="441.127" x2="332.208" y2="483.465"/>
	<line fill="none" stroke="#d50000" stroke-width="1.75" x1="213.738" y1="429.118" x2="332.22" y2="483.482"/>
	<line fill="none" stroke="#d50000" stroke-width="1.75" x1="203.555" y1="415.88" x2="332.229" y2="483.501"/>
	<line fill="none" stroke="#d50000" stroke-width="1.75" x1="195.376" y1="401.941" x2="332.238" y2="483.519"/>
	<line fill="none" stroke="#d50000" stroke-width="1.75" x1="188.713" y1="387.189" x2="332.246" y2="483.538"/>
	<line fill="none" stroke="#d50000" stroke-width="1.75" x1="183.593" y1="371.753" x2="332.252" y2="483.558"/>
	<line fill="none" stroke="#d50000" stroke-width="1.75" x1="180.673" y1="356.286" x2="332.259" y2="483.578"/>
	<line fill="none" stroke="#d50000" stroke-width="1.75" x1="179.203" y1="340.387" x2="332.263" y2="483.598"/>
	<line fill="none" stroke="#d50000" stroke-width="1.75" x1="177.676" y1="326.317" x2="332.268" y2="483.618"/>
	<line fill="none" stroke="#d50000" stroke-width="1.75" x1="179.295" y1="307.292" x2="332.268" y2="483.618"/>
	<line fill="none" stroke="#d50000" stroke-width="1.75" x1="182.334" y1="294.167" x2="332.271" y2="483.66"/>
	<line fill="none" stroke="#d50000" stroke-width="1.75" x1="186.556" y1="279.099" x2="332.271" y2="483.681"/>
	<line fill="none" stroke="#d50000" stroke-width="1.75" x1="191.999" y1="265.369" x2="332.27" y2="483.7"/>
	<line fill="none" stroke="#d50000" stroke-width="1.75" x1="198.951" y1="251.04" x2="332.27" y2="483.722"/>
	<line fill="none" stroke="#d50000" stroke-width="1.75" x1="207.264" y1="238.633" x2="332.268" y2="483.743"/>
	<line fill="none" stroke="#d50000" stroke-width="1.75" x1="217.187" y1="225.735" x2="332.247" y2="483.769"/>
	<line fill="none" stroke="#d50000" stroke-width="1.75" x1="228.508" y1="215.758" x2="332.273" y2="483.781"/>
	<line fill="none" stroke="#d50000" stroke-width="1.75" x1="239.853" y1="205.704" x2="332.262" y2="483.811"/>
	<line fill="none" stroke="#d50000" stroke-width="1.75" x1="253.255" y1="197.247" x2="332.243" y2="483.832"/>
	<line fill="none" stroke="#d50000" stroke-width="1.75" x1="265.98" y1="189.566" x2="332.25" y2="483.837"/>
	<line fill="none" stroke="#d50000" stroke-width="1.75" x1="280.461" y1="183.194" x2="332.229" y2="483.858"/>
	<line fill="none" stroke="#d50000" stroke-width="1.75" x1="295.53" y1="178.145" x2="332.229" y2="483.858"/>
	<line fill="none" stroke="#d50000" stroke-width="1.75" x1="310.652" y1="176.724" x2="332.219" y2="483.877"/>
</g>
<g id="right-lily">
	<line fill="none" stroke="#3949AB" stroke-width="1.75" x1="641.383" y1="322.014" x2="333.547" y2="328.41"/>
	<line fill="none" stroke="#3949AB" stroke-width="1.75" x1="641.267" y1="338.523" x2="333.53" y2="328.398"/>
	<line fill="none" stroke="#3949AB" stroke-width="1.75" x1="640.441" y1="352.887" x2="333.514" y2="328.387"/>
	<line fill="none" stroke="#3949AB" stroke-width="1.75" x1="637.517" y1="368.271" x2="333.499" y2="328.373"/>
	<line fill="none" stroke="#3949AB" stroke-width="1.75" x1="632.908" y1="383.876" x2="333.484" y2="328.358"/>
	<line fill="none" stroke="#3949AB" stroke-width="1.75" x1="625.679" y1="397.676" x2="333.472" y2="328.344"/>
	<line fill="none" stroke="#3949AB" stroke-width="1.75" x1="619.085" y1="410.151" x2="333.459" y2="328.328"/>
	<line fill="none" stroke="#3949AB" stroke-width="1.75" x1="609.861" y1="422.459" x2="333.447" y2="328.312"/>
	<line fill="none" stroke="#3949AB" stroke-width="1.75" x1="600.089" y1="435.462" x2="333.438" y2="328.303"/>
	<line fill="none" stroke="#3949AB" stroke-width="1.75" x1="589.479" y1="445.78" x2="333.426" y2="328.278"/>
	<line fill="none" stroke="#3949AB" stroke-width="1.75" x1="576.506" y1="455.807" x2="333.416" y2="328.26"/>
	<line fill="none" stroke="#3949AB" stroke-width="1.75" x1="563.785" y1="464.088" x2="333.415" y2="328.245"/>
	<line fill="none" stroke="#3949AB" stroke-width="1.75" x1="550.396" y1="470.637" x2="333.415" y2="328.245"/>
	<line fill="none" stroke="#3949AB" stroke-width="1.75" x1="535.221" y1="476.292" x2="333.401" y2="328.223"/>
	<line fill="none" stroke="#3949AB" stroke-width="1.75" x1="520.436" y1="479.769" x2="333.401" y2="328.223"/>
	<line fill="none" stroke="#3949AB" stroke-width="1.75" x1="505.642" y1="482.493" x2="333.39" y2="328.185"/>
	<line fill="none" stroke="#3949AB" stroke-width="1.75" x1="489.361" y1="483.757" x2="333.385" y2="328.166"/>
	<line fill="none" stroke="#3949AB" stroke-width="1.75" x1="473.725" y1="484.032" x2="333.382" y2="328.146"/>
	<line fill="none" stroke="#3949AB" stroke-width="1.75" x1="457.56" y1="481.906" x2="333.381" y2="328.124"/>
	<line fill="none" stroke="#3949AB" stroke-width="1.75" x1="441.52" y1="477.787" x2="333.379" y2="328.104"/>
	<line fill="none" stroke="#3949AB" stroke-width="1.75" x1="425.982" y1="471.93" x2="333.379" y2="328.085"/>
	<line fill="none" stroke="#3949AB" stroke-width="1.75" x1="411.856" y1="465.661" x2="333.381" y2="328.065"/>
	<line fill="none" stroke="#3949AB" stroke-width="1.75" x1="398.021" y1="456.996" x2="333.382" y2="328.045"/>
	<line fill="none" stroke="#3949AB" stroke-width="1.75" x1="385.198" y1="446.907" x2="333.386" y2="328.024"/>
	<line fill="none" stroke="#3949AB" stroke-width="1.75" x1="373.192" y1="434.609" x2="333.391" y2="328.006"/>
	<line fill="none" stroke="#3949AB" stroke-width="1.75" x1="362.93" y1="422.233" x2="333.396" y2="327.985"/>
	<line fill="none" stroke="#3949AB" stroke-width="1.75" x1="353.591" y1="407.032" x2="333.402" y2="327.968"/>
	<line fill="none" stroke="#3949AB" stroke-width="1.75" x1="345.844" y1="390.457" x2="333.409" y2="327.948"/>
	<line fill="none" stroke="#3949AB" stroke-width="1.75" x1="346.882" y1="266.132" x2="334.018" y2="328.382"/>
	<line fill="none" stroke="#3949AB" stroke-width="1.75" x1="356.123" y1="248.22" x2="334.018" y2="328.382"/>
	<line fill="none" stroke="#3949AB" stroke-width="1.75" x1="365.586" y1="233.963" x2="333.988" y2="328.41"/>
	<line fill="none" stroke="#3949AB" stroke-width="1.75" x1="376.307" y1="221.342" x2="333.971" y2="328.422"/>
	<line fill="none" stroke="#3949AB" stroke-width="1.75" x1="388.316" y1="209.952" x2="333.953" y2="328.434"/>
	<line fill="none" stroke="#3949AB" stroke-width="1.75" x1="401.555" y1="199.769" x2="333.935" y2="328.443"/>
	<line fill="none" stroke="#3949AB" stroke-width="1.75" x1="415.493" y1="191.59" x2="333.916" y2="328.452"/>
	<line fill="none" stroke="#3949AB" stroke-width="1.75" x1="430.245" y1="184.927" x2="333.896" y2="328.46"/>
	<line fill="none" stroke="#3949AB" stroke-width="1.75" x1="445.683" y1="179.807" x2="333.876" y2="328.466"/>
	<line fill="none" stroke="#3949AB" stroke-width="1.75" x1="461.147" y1="176.887" x2="333.857" y2="328.473"/>
	<line fill="none" stroke="#3949AB" stroke-width="1.75" x1="477.048" y1="175.416" x2="333.837" y2="328.477"/>
	<line fill="none" stroke="#3949AB" stroke-width="1.75" x1="491.116" y1="173.889" x2="333.816" y2="328.481"/>
	<line fill="none" stroke="#3949AB" stroke-width="1.75" x1="510.143" y1="175.509" x2="333.816" y2="328.481"/>
	<line fill="none" stroke="#3949AB" stroke-width="1.75" x1="523.269" y1="178.548" x2="333.774" y2="328.485"/>
	<line fill="none" stroke="#3949AB" stroke-width="1.75" x1="538.336" y1="182.771" x2="333.754" y2="328.485"/>
	<line fill="none" stroke="#3949AB" stroke-width="1.75" x1="552.065" y1="188.213" x2="333.734" y2="328.483"/>
	<line fill="none" stroke="#3949AB" stroke-width="1.75" x1="566.395" y1="195.165" x2="333.713" y2="328.483"/>
	<line fill="none" stroke="#3949AB" stroke-width="1.75" x1="578.803" y1="203.478" x2="333.691" y2="328.481"/>
	<line fill="none" stroke="#3949AB" stroke-width="1.75" x1="591.699" y1="213.4" x2="333.665" y2="328.461"/>
	<line fill="none" stroke="#3949AB" stroke-width="1.75" x1="601.677" y1="224.722" x2="333.654" y2="328.487"/>
	<line fill="none" stroke="#3949AB" stroke-width="1.75" x1="611.731" y1="236.066" x2="333.624" y2="328.476"/>
	<line fill="none" stroke="#3949AB" stroke-width="1.75" x1="620.187" y1="249.469" x2="333.603" y2="328.457"/>
	<line fill="none" stroke="#3949AB" stroke-width="1.75" x1="627.869" y1="262.194" x2="333.598" y2="328.464"/>
	<line fill="none" stroke="#3949AB" stroke-width="1.75" x1="634.24" y1="276.675" x2="333.575" y2="328.442"/>
	<line fill="none" stroke="#3949AB" stroke-width="1.75" x1="639.29" y1="291.744" x2="333.575" y2="328.442"/>
	<line fill="none" stroke="#3949AB" stroke-width="1.75" x1="640.711" y1="306.866" x2="333.558" y2="328.433"/>
</g>
 </g>
</svg>
